<svg width="40" height="425" viewBox="0 0 37 425" fill="none" xmlns="http://www.w3.org/2000/svg">
<circle cx="19" cy="101" r="4" fill="#81A6FF" fill-opacity="0.44"/>
<circle cx="19" cy="121" r="4" fill="#81A6FF" fill-opacity="0.48"/>
<circle cx="19" cy="141" r="4" fill="#81A6FF" fill-opacity="0.52"/>
<circle cx="19" cy="161" r="4" fill="#81A6FF" fill-opacity="0.56"/>
<circle cx="19" cy="181" r="4" fill="#81A6FF" fill-opacity="0.6"/>
<circle cx="19" cy="201" r="4" fill="#81A6FF" fill-opacity="0.64"/>
<circle cx="19" cy="221" r="4" fill="#81A6FF" fill-opacity="0.68"/>
<circle cx="19" cy="241" r="4" fill="#81A6FF" fill-opacity="0.72"/>
<circle cx="19" cy="261" r="4" fill="#81A6FF" fill-opacity="0.76"/>
<circle cx="19" cy="281" r="4" fill="#81A6FF" fill-opacity="0.8"/>
<circle cx="19" cy="301" r="4" fill="#81A6FF" fill-opacity="0.84"/>
<circle cx="19" cy="321" r="4" fill="#81A6FF" fill-opacity="0.88"/>
<circle cx="19" cy="341" r="4" fill="#81A6FF" fill-opacity="0.92"/>
<circle cx="19" cy="361" r="4" fill="#81A6FF" fill-opacity="0.92"/>
<circle cx="19" cy="381" r="4" fill="#81A6FF" fill-opacity="0.92"/>
<circle cx="19" cy="401" r="4" fill="#81A6FF" fill-opacity="0.92"/>
<circle cx="19" cy="421" r="4" fill="#81A6FF" fill-opacity="0.92"/>
<path d="M18.4627 1.16309C8.9232 1.16309 1.1626 8.88068 1.1626 18.3673C1.1626 27.8539 8.9232 35.5715 18.4627 35.5715C28.0021 35.5715 35.7628 27.8539 35.7628 18.3673C35.7628 8.88068 28.0021 1.16309 18.4627 1.16309Z" fill="#81A6FF"/>
<path d="M23.2122 34.6411C25.7759 33.6874 28.098 33.4348 30.3638 31.3734C33.4854 28.5336 36.1625 23.485 36.1625 19.52C36.1625 15.9082 35.3039 11.6858 32.6833 8.24316C30.2655 5.067 26.2053 2.56804 23.2122 1.51562C23.2122 1.51562 28.4374 9.86403 28.4374 18.3181C28.4374 26.7721 23.2122 34.6411 23.2122 34.6411Z" fill="#0033C7"/>
<path d="M18.2628 80.595L22.4916 69.2636C22.4916 69.2636 21.2664 40.3431 21.9289 40.1943H14.2499C14.9122 40.3431 13.9165 69.0884 13.9165 69.0884L18.2628 80.595Z" fill="#D0CFCE"/>
<path d="M18.439 79.4851L22.3741 69.0299C22.3741 69.0299 22.5294 40.8763 22.4665 40.1836L18.1094 40.1942L18.439 79.4851Z" fill="#9B9B9A"/>
<path d="M18.5 35.3186C28.165 35.3186 36 27.6361 36 18.1593C36 8.68248 28.165 1 18.5 1C8.83502 1 1 8.68248 1 18.1593C1 27.6361 8.83502 35.3186 18.5 35.3186Z" stroke="#81A6FF" stroke-width="2" stroke-miterlimit="10" stroke-linecap="round" stroke-linejoin="round"/>
<path d="M22.2762 41.0215V68.0725L18.4468 80.4324L13.979 68.0725V41.0215" stroke="#D0CFCE" stroke-width="2" stroke-miterlimit="10" stroke-linecap="round" stroke-linejoin="round"/>
</svg>
