<svg width="329" height="308" viewBox="0 0 329 308" fill="none" xmlns="http://www.w3.org/2000/svg">
<path d="M25.5894 193.224C6.13607 125.953 3.32561 54.516 86.8724 29.9455C170.419 5.37506 298.509 136.999 317.963 204.27C337.416 271.541 240.866 248.986 157.319 273.557C73.7722 298.127 45.0426 260.495 25.5894 193.224Z" fill="#E4FFFF"/>
<path d="M117.406 170.138C118.712 169.575 164.15 152.143 164.15 152.143C164.15 152.143 174.78 147.15 177.729 139.647C177.924 139.121 178.006 138.558 177.971 137.996C177.936 137.434 177.785 136.885 177.528 136.386C177.27 135.886 176.912 135.447 176.477 135.097C176.041 134.747 175.539 134.494 175.002 134.355L148.796 127.212C147.899 126.968 147.062 126.536 146.337 125.944C145.612 125.351 145.016 124.612 144.587 123.773C144.158 122.933 143.906 122.013 143.847 121.071C143.787 120.13 143.922 119.187 144.243 118.303C144.865 116.712 146.045 115.416 147.555 114.664C149.066 113.912 150.8 113.758 152.423 114.231L179.699 121.66C179.699 121.66 190.329 115.925 218.507 129.88C218.608 129.93 218.717 129.989 218.826 130.041L219.194 129.812L219.201 129.813L250.458 110.764L269.108 142.255L239.405 160.732L238.997 160.984C238.997 160.984 238.968 161.105 238.896 161.331C238.072 163.79 231.912 179.15 201.935 195.333L196.712 198.76C190.869 210.923 178.297 228.88 176.556 231.507C175.12 233.669 169.383 235.439 167.257 233.97C166.233 233.262 165.525 232.171 165.288 230.937C165.051 229.702 165.305 228.426 165.993 227.388C168.779 223.184 171.934 217.885 174.928 212.482C177.924 207.072 180.759 201.56 182.904 196.93C182.904 196.93 183.831 193.427 179.955 194.195L144.215 222.485C142.268 224.172 138.321 224.468 136.643 222.481C134.982 220.474 135.128 214.46 137.075 212.773L168.676 184.539L168.677 184.531C168.692 184.416 168.893 182.591 167.241 182.115L123.969 205.68C121.694 206.874 117.777 204.198 116.589 201.874C115.402 199.55 117.237 194.804 119.513 193.602L160.744 170.006C160.753 169.991 160.76 169.974 160.765 169.957C160.902 169.644 160.949 169.296 160.899 168.955C160.849 168.614 160.705 168.294 160.483 168.032C160.261 167.771 159.97 167.579 159.646 167.479C159.321 167.38 158.976 167.376 158.651 167.469C143.131 171.938 122.459 180.637 120.809 180.94C117.557 181.522 115.718 180.807 114.707 178.404C113.704 175.987 115.045 171.152 117.406 170.138Z" fill="#FED4C0"/>
<path d="M232.515 150.232C232.535 150.143 232.586 150.065 232.659 150.013C232.732 149.961 232.822 149.938 232.911 149.949C232.921 149.95 232.931 149.953 232.938 149.96C234.02 150.154 235.053 150.57 235.975 151.183C236.897 151.795 237.689 152.591 238.302 153.522C240.016 156.266 239.693 159.567 239.523 160.629L239.117 160.881C239.117 160.881 239.087 161.001 239.016 161.227C238.929 161.201 238.856 161.143 238.809 161.065C238.763 160.986 238.748 160.893 238.766 160.803C238.838 160.461 240.466 152.418 232.791 150.666C232.745 150.657 232.701 150.637 232.662 150.61C232.623 150.583 232.59 150.548 232.564 150.508C232.538 150.467 232.521 150.422 232.512 150.375C232.504 150.328 232.505 150.279 232.515 150.232Z" fill="#ECA085"/>
<path d="M218.676 129.911C218.677 129.904 218.677 129.904 218.685 129.898C218.787 129.948 218.895 130.007 219.004 130.059L219.371 129.83L219.379 129.831C228.849 134.236 228.464 142.254 228.454 142.333C228.451 142.381 228.439 142.427 228.419 142.47C228.398 142.513 228.37 142.551 228.335 142.582C228.3 142.614 228.259 142.638 228.214 142.653C228.17 142.668 228.123 142.674 228.076 142.67C228.029 142.667 227.984 142.654 227.942 142.632C227.9 142.611 227.863 142.581 227.832 142.545C227.801 142.508 227.778 142.466 227.763 142.421C227.749 142.375 227.743 142.327 227.747 142.28C227.765 141.967 228.095 134.558 218.861 130.391C218.818 130.372 218.778 130.345 218.745 130.31C218.712 130.276 218.687 130.235 218.669 130.19C218.652 130.145 218.644 130.098 218.645 130.05C218.646 130.002 218.657 129.955 218.676 129.911Z" fill="#ECA085"/>
<path d="M173.815 166.369C190.109 168.607 201.548 186.151 201.676 186.351C201.728 186.432 201.747 186.531 201.727 186.625C201.708 186.72 201.653 186.802 201.573 186.855C201.494 186.907 201.397 186.925 201.304 186.905C201.211 186.885 201.13 186.828 201.078 186.747C200.935 186.525 186.635 164.608 167.419 167.054C167.325 167.066 167.23 167.04 167.155 166.98C167.079 166.921 167.03 166.834 167.018 166.738C167.005 166.642 167.031 166.545 167.089 166.469C167.146 166.393 167.232 166.343 167.326 166.331C169.48 166.057 171.661 166.07 173.815 166.369Z" fill="#ECA085"/>
<path d="M219.356 147.254C219.423 147.263 219.486 147.291 219.538 147.335C219.59 147.38 219.629 147.438 219.65 147.503C219.672 147.569 219.675 147.639 219.658 147.706C219.642 147.773 219.608 147.834 219.56 147.882C219.344 148.094 197.732 169.021 176.936 155.814C176.855 155.763 176.797 155.681 176.775 155.586C176.753 155.491 176.769 155.392 176.818 155.309C176.868 155.227 176.948 155.168 177.041 155.146C177.133 155.124 177.231 155.141 177.312 155.192C197.636 168.105 218.847 147.562 219.06 147.352C219.099 147.314 219.145 147.285 219.197 147.268C219.248 147.251 219.302 147.246 219.356 147.254Z" fill="#ECA085"/>
<path d="M148.7 216.866C148.125 215.54 130.228 169.442 130.228 169.442C130.228 169.442 125.144 158.662 117.736 155.702C117.217 155.507 116.664 155.426 116.114 155.464C115.563 155.503 115.028 155.659 114.543 155.923C114.057 156.188 113.633 156.554 113.298 156.998C112.962 157.442 112.723 157.954 112.597 158.5L106.061 185.174C105.838 186.087 105.429 186.94 104.861 187.68C104.294 188.42 103.579 189.03 102.764 189.47C101.949 189.91 101.052 190.171 100.129 190.236C99.207 190.301 98.2803 190.169 97.4089 189.847C95.8381 189.223 94.5462 188.03 93.7821 186.498C93.0181 184.967 92.836 183.205 93.271 181.553L100.068 153.791C100.068 153.791 94.2568 143.014 107.436 114.302C107.483 114.198 107.539 114.088 107.588 113.977L107.357 113.604L107.358 113.596L76.4059 63.6561L106.945 44.5404L137.308 92.9045L137.563 93.3175C137.563 93.3175 137.682 93.3472 137.904 93.4191C140.33 94.2439 155.497 100.428 171.895 130.817L175.348 136.11C187.375 141.988 205.201 154.676 207.808 156.432C209.953 157.881 211.789 163.703 210.388 165.872C209.712 166.916 208.655 167.641 207.449 167.888C206.243 168.135 204.988 167.884 203.958 167.19C199.787 164.38 194.536 161.199 189.186 158.183C183.83 155.165 178.375 152.311 173.799 150.153C173.799 150.153 170.348 149.229 171.17 153.165L199.539 189.351C201.228 191.322 201.588 195.332 199.67 197.048C197.732 198.746 191.834 198.628 190.145 196.657L161.905 164.678L161.898 164.677C161.784 164.663 159.992 164.467 159.554 166.149L183.425 210.015C184.636 212.322 182.082 216.317 179.825 217.536C177.568 218.754 172.883 216.913 171.664 214.606L147.799 172.814C147.784 172.805 147.768 172.799 147.751 172.794C147.441 172.655 147.1 172.609 146.766 172.662C146.433 172.714 146.122 172.863 145.869 173.09C145.617 173.317 145.434 173.613 145.342 173.943C145.25 174.273 145.253 174.624 145.35 174.954C150.006 190.708 158.902 211.676 159.229 213.352C159.857 216.655 159.188 218.527 156.851 219.567C154.5 220.599 149.736 219.26 148.7 216.866Z" fill="#B86A4B"/>
<path d="M127.27 100.206C127.182 100.186 127.105 100.134 127.052 100.059C126.999 99.985 126.975 99.8934 126.985 99.8025C126.985 99.7921 126.988 99.7822 126.995 99.7743C127.167 98.6674 127.558 97.609 128.144 96.6633C128.731 95.7175 129.5 94.9042 130.406 94.2724C133.078 92.5064 136.334 92.8199 137.383 92.9884L137.639 93.4027C137.639 93.4027 137.758 93.4324 137.981 93.5045C137.957 93.5928 137.902 93.6685 137.825 93.7162C137.749 93.7639 137.657 93.78 137.569 93.7613C137.23 93.6894 129.281 92.066 127.693 99.9208C127.684 99.9681 127.666 100.013 127.64 100.053C127.614 100.093 127.58 100.127 127.541 100.154C127.502 100.181 127.457 100.199 127.411 100.208C127.364 100.217 127.317 100.216 127.27 100.206Z" fill="#633322"/>
<path d="M107.385 114.456C107.377 114.455 107.377 114.455 107.371 114.447C107.419 114.342 107.475 114.232 107.524 114.121L107.293 113.746L107.294 113.739C111.46 104.046 119.359 104.399 119.437 104.409C119.484 104.411 119.53 104.423 119.573 104.444C119.615 104.464 119.653 104.494 119.685 104.529C119.716 104.565 119.741 104.607 119.756 104.652C119.772 104.697 119.779 104.745 119.776 104.793C119.773 104.84 119.762 104.887 119.741 104.93C119.72 104.973 119.692 105.011 119.657 105.043C119.621 105.074 119.58 105.098 119.536 105.113C119.491 105.129 119.444 105.135 119.397 105.131C119.089 105.114 111.791 104.815 107.854 114.265C107.836 114.309 107.81 114.349 107.776 114.383C107.743 114.417 107.703 114.444 107.66 114.461C107.616 114.479 107.569 114.488 107.522 114.487C107.475 114.486 107.428 114.475 107.385 114.456Z" fill="#633322"/>
<path d="M143.963 159.461C145.868 142.882 162.872 131.162 163.065 131.031C163.104 131.005 163.148 130.986 163.194 130.977C163.24 130.968 163.288 130.968 163.334 130.978C163.38 130.987 163.424 131.006 163.463 131.033C163.502 131.059 163.535 131.094 163.562 131.134C163.588 131.173 163.606 131.218 163.615 131.265C163.625 131.312 163.625 131.36 163.616 131.407C163.607 131.454 163.589 131.498 163.563 131.538C163.537 131.578 163.503 131.612 163.464 131.638C163.249 131.784 142.007 146.434 144.749 165.96C144.763 166.055 144.738 166.152 144.681 166.229C144.625 166.306 144.54 166.357 144.446 166.37C144.352 166.383 144.257 166.357 144.181 166.299C144.105 166.241 144.055 166.154 144.041 166.058C143.735 163.87 143.708 161.652 143.963 159.461Z" fill="#633322"/>
<path d="M124.445 113.511C124.453 113.443 124.48 113.379 124.521 113.326C124.563 113.273 124.619 113.233 124.682 113.211C124.746 113.19 124.814 113.186 124.879 113.202C124.944 113.218 125.004 113.253 125.051 113.302C125.261 113.519 145.935 135.319 133.496 156.463C133.447 156.544 133.369 156.603 133.278 156.625C133.187 156.647 133.09 156.632 133.01 156.582C132.929 156.532 132.871 156.452 132.848 156.359C132.825 156.266 132.839 156.167 132.886 156.085C145.049 135.421 124.753 114.025 124.546 113.811C124.508 113.772 124.48 113.724 124.462 113.672C124.445 113.621 124.439 113.566 124.445 113.511Z" fill="#633322"/>
<path d="M178.194 116.289C178.73 117.632 195.255 164.254 195.255 164.254C195.255 164.254 200.018 175.184 207.337 178.371C207.85 178.581 208.401 178.679 208.952 178.658C209.503 178.637 210.043 178.497 210.537 178.248C211.03 177.998 211.465 177.645 211.813 177.212C212.162 176.778 212.416 176.274 212.559 175.732L219.885 149.276C220.136 148.37 220.57 147.53 221.159 146.808C221.749 146.086 222.482 145.499 223.31 145.084C224.137 144.669 225.043 144.436 225.967 144.399C226.891 144.363 227.813 144.524 228.675 144.872C230.227 145.544 231.484 146.776 232.202 148.33C232.92 149.884 233.05 151.651 232.566 153.289L224.945 180.825C224.945 180.825 230.436 191.774 216.406 220.063C216.356 220.165 216.296 220.274 216.244 220.383L216.464 220.764L216.463 220.771L248.778 277.759L203.647 271.184L185.903 240.528L185.66 240.107C185.66 240.107 185.542 240.074 185.322 239.995C182.921 239.096 167.94 232.448 152.448 201.572L149.152 196.177C137.301 189.932 119.855 176.702 117.301 174.866C115.199 173.352 113.535 167.477 115.001 165.352C115.708 164.33 116.786 163.638 117.999 163.428C119.212 163.218 120.46 163.508 121.469 164.234C125.556 167.171 130.712 170.511 135.971 173.691C141.237 176.871 146.606 179.892 151.118 182.189C151.118 182.189 154.541 183.219 153.835 179.26L126.546 142.221C124.916 140.2 124.674 136.181 126.643 134.526C128.631 132.888 134.525 133.187 136.155 135.209L163.442 168.039L163.449 168.04C163.562 168.058 165.348 168.309 165.836 166.641L143.271 122.066C142.128 119.724 144.801 115.809 147.094 114.661C149.387 113.512 154.016 115.497 155.166 117.841L177.787 160.342C177.801 160.352 177.817 160.359 177.834 160.365C178.14 160.512 178.48 160.569 178.815 160.526C179.15 160.484 179.465 160.345 179.724 160.126C179.983 159.907 180.175 159.617 180.277 159.29C180.379 158.963 180.386 158.612 180.299 158.279C176.111 142.391 167.839 121.161 167.563 119.477C167.032 116.156 167.757 114.306 170.125 113.338C172.506 112.38 177.23 113.864 178.194 116.289Z" fill="#ECA085"/>
<path d="M196.132 233.538C196.219 233.561 196.295 233.615 196.346 233.691C196.396 233.767 196.417 233.86 196.405 233.95C196.405 233.961 196.401 233.97 196.394 233.978C196.189 235.079 195.767 236.125 195.153 237.052C194.538 237.979 193.745 238.769 192.82 239.372C190.096 241.055 186.85 240.641 185.806 240.441L185.563 240.019C185.563 240.019 185.445 239.985 185.224 239.906C185.25 239.819 185.308 239.745 185.386 239.7C185.464 239.654 185.556 239.641 185.644 239.662C185.98 239.745 193.88 241.612 195.701 233.81C195.711 233.763 195.73 233.719 195.757 233.679C195.785 233.64 195.819 233.607 195.86 233.582C195.9 233.556 195.944 233.539 195.991 233.532C196.038 233.525 196.086 233.527 196.132 233.538Z" fill="#B86A4B"/>
<path d="M216.434 219.905C216.441 219.906 216.441 219.906 216.447 219.914C216.396 220.017 216.337 220.126 216.285 220.235L216.505 220.617L216.504 220.624C212.05 230.184 204.163 229.588 204.085 229.576C204.038 229.572 203.993 229.558 203.951 229.536C203.909 229.514 203.872 229.484 203.841 229.448C203.811 229.411 203.788 229.369 203.773 229.323C203.759 229.277 203.754 229.229 203.758 229.181C203.762 229.134 203.775 229.087 203.797 229.045C203.818 229.003 203.848 228.965 203.884 228.935C203.921 228.905 203.962 228.882 204.007 228.868C204.052 228.855 204.099 228.85 204.146 228.855C204.454 228.881 211.742 229.406 215.959 220.081C215.978 220.037 216.006 219.998 216.04 219.965C216.075 219.932 216.115 219.907 216.159 219.891C216.204 219.874 216.251 219.867 216.298 219.869C216.345 219.872 216.391 219.884 216.434 219.905Z" fill="#B86A4B"/>
<path d="M181.217 173.801C178.819 190.312 161.469 201.502 161.271 201.627C161.232 201.652 161.187 201.669 161.141 201.677C161.095 201.685 161.047 201.683 161.002 201.672C160.956 201.661 160.913 201.641 160.874 201.613C160.836 201.585 160.803 201.55 160.778 201.51C160.753 201.469 160.736 201.424 160.729 201.376C160.721 201.329 160.722 201.281 160.732 201.235C160.743 201.188 160.762 201.144 160.789 201.105C160.816 201.066 160.851 201.033 160.891 201.008C161.11 200.869 182.785 186.881 180.624 167.281C180.613 167.185 180.64 167.089 180.7 167.014C180.729 166.977 180.765 166.946 180.806 166.923C180.847 166.9 180.892 166.886 180.939 166.881C180.986 166.876 181.033 166.88 181.078 166.893C181.123 166.907 181.165 166.929 181.202 166.96C181.239 166.99 181.269 167.027 181.292 167.069C181.315 167.111 181.329 167.157 181.334 167.204C181.576 169.401 181.537 171.618 181.217 173.801Z" fill="#B86A4B"/>
<path d="M199.353 220.323C199.343 220.39 199.315 220.454 199.271 220.505C199.228 220.557 199.171 220.595 199.107 220.615C199.043 220.635 198.975 220.636 198.91 220.618C198.846 220.6 198.787 220.564 198.742 220.513C198.538 220.289 178.524 197.865 191.578 177.122C191.604 177.082 191.636 177.047 191.675 177.02C191.713 176.993 191.756 176.974 191.802 176.964C191.847 176.954 191.894 176.954 191.94 176.962C191.986 176.971 192.03 176.989 192.069 177.015C192.109 177.041 192.143 177.075 192.169 177.114C192.196 177.153 192.215 177.198 192.225 177.244C192.235 177.291 192.236 177.339 192.227 177.386C192.219 177.433 192.202 177.478 192.177 177.518C179.412 197.791 199.06 219.8 199.261 220.02C199.297 220.061 199.325 220.109 199.34 220.161C199.356 220.213 199.361 220.269 199.353 220.323Z" fill="#B86A4B"/>
<path d="M223.719 166.286C222.609 167.183 183.446 196.312 183.446 196.312C183.446 196.312 174.522 204.01 173.644 212.053C173.595 212.613 173.663 213.178 173.843 213.711C174.023 214.244 174.312 214.733 174.69 215.146C175.069 215.559 175.528 215.886 176.038 216.106C176.548 216.326 177.098 216.434 177.65 216.423L204.728 216.225C205.655 216.218 206.574 216.408 207.426 216.784C208.278 217.16 209.045 217.712 209.676 218.406C210.308 219.1 210.791 219.921 211.094 220.814C211.397 221.707 211.513 222.654 211.436 223.593C211.253 225.298 210.456 226.869 209.199 228.004C207.942 229.139 206.314 229.757 204.629 229.74L176.447 229.951C176.447 229.951 167.718 238.365 136.964 232.52C136.852 232.499 136.733 232.471 136.614 232.451L136.32 232.771L136.312 232.772L104.391 266.925L69.3824 251.338L108.8 208.391L109.126 208.037C109.126 208.037 109.123 207.912 109.134 207.675C109.284 205.078 111.199 188.581 135.814 164.843L139.944 160.12C142.389 146.796 149.795 126.058 150.784 123.05C151.601 120.574 156.658 117.312 159.087 118.154C160.257 118.561 161.223 119.423 161.773 120.55C162.324 121.678 162.413 122.979 162.022 124.167C160.44 128.98 158.789 134.95 157.318 140.976C155.849 147.01 154.561 153.1 153.706 158.15C153.706 158.15 153.729 161.783 157.257 159.992L184.255 123.005C185.688 120.849 189.407 119.495 191.541 120.96C193.663 122.447 195.093 128.293 193.661 130.449L170.631 166.262L170.632 166.269C170.648 166.384 170.931 168.2 172.645 168.213L208.122 133.749C209.999 131.98 214.467 133.504 216.217 135.426C217.966 137.349 217.44 142.427 215.564 144.203L182.058 178.145C182.053 178.162 182.051 178.18 182.051 178.197C182 178.537 182.046 178.886 182.183 179.202C182.32 179.517 182.543 179.787 182.825 179.979C183.106 180.172 183.436 180.278 183.774 180.287C184.112 180.295 184.445 180.205 184.734 180.027C198.499 171.512 216.116 157.517 217.623 156.779C220.601 155.336 222.557 155.529 224.157 157.575C225.753 159.637 225.726 164.668 223.719 166.286Z" fill="#633322"/>
<path d="M118.142 216.58C118.146 216.671 118.117 216.76 118.06 216.83C118.003 216.901 117.923 216.947 117.834 216.96C117.824 216.963 117.814 216.962 117.805 216.957C116.711 217.063 115.607 216.941 114.558 216.6C113.509 216.258 112.538 215.704 111.703 214.97C109.334 212.783 108.783 209.505 108.669 208.432L108.995 208.078C108.995 208.078 108.992 207.954 109.002 207.717C109.092 207.718 109.178 207.754 109.243 207.818C109.308 207.881 109.347 207.967 109.353 208.058C109.373 208.409 109.906 216.623 117.762 216.235C117.809 216.232 117.856 216.238 117.901 216.254C117.945 216.27 117.987 216.294 118.022 216.327C118.058 216.359 118.086 216.398 118.107 216.441C118.127 216.484 118.139 216.532 118.142 216.58Z" fill="#471301"/>
<path d="M136.814 232.443C136.815 232.45 136.815 232.45 136.809 232.458C136.697 232.437 136.578 232.409 136.46 232.389L136.165 232.709L136.158 232.71C125.878 231.02 124.153 223.165 124.142 223.086C124.132 223.039 124.131 222.991 124.139 222.944C124.148 222.897 124.165 222.853 124.191 222.813C124.217 222.773 124.25 222.739 124.289 222.712C124.328 222.685 124.371 222.667 124.417 222.658C124.463 222.648 124.511 222.648 124.557 222.658C124.603 222.667 124.646 222.686 124.685 222.713C124.724 222.74 124.758 222.774 124.784 222.814C124.81 222.854 124.828 222.899 124.837 222.946C124.901 223.253 126.521 230.504 136.51 232.029C136.557 232.035 136.602 232.051 136.643 232.075C136.684 232.1 136.719 232.132 136.748 232.171C136.776 232.21 136.796 232.254 136.808 232.3C136.819 232.347 136.821 232.395 136.814 232.443Z" fill="#471301"/>
<path d="M170.477 185.217C154.196 187.472 138.591 173.6 138.415 173.441C138.38 173.409 138.351 173.371 138.33 173.327C138.31 173.284 138.297 173.237 138.294 173.189C138.291 173.142 138.298 173.094 138.313 173.048C138.328 173.003 138.352 172.961 138.383 172.926C138.414 172.89 138.452 172.861 138.494 172.84C138.536 172.819 138.582 172.807 138.629 172.804C138.676 172.801 138.723 172.808 138.768 172.824C138.812 172.839 138.853 172.864 138.889 172.896C139.084 173.072 158.588 190.4 176.458 182.819C176.545 182.782 176.644 182.782 176.732 182.819C176.82 182.856 176.89 182.927 176.927 183.016C176.964 183.106 176.965 183.206 176.929 183.296C176.894 183.385 176.824 183.457 176.737 183.494C174.734 184.343 172.63 184.922 170.477 185.217Z" fill="#471301"/>
<path d="M131.637 215.908C131.57 215.917 131.502 215.907 131.44 215.879C131.379 215.85 131.326 215.805 131.289 215.747C131.251 215.69 131.23 215.623 131.228 215.554C131.226 215.486 131.244 215.418 131.278 215.359C131.43 215.096 146.773 189.097 170.207 196.174C170.298 196.201 170.375 196.265 170.421 196.35C170.467 196.435 170.478 196.535 170.451 196.628C170.425 196.721 170.363 196.799 170.28 196.845C170.197 196.892 170.099 196.902 170.007 196.874C147.103 189.952 132.046 215.474 131.896 215.733C131.869 215.78 131.831 215.821 131.786 215.851C131.741 215.881 131.69 215.901 131.637 215.908Z" fill="#471301"/>
</svg>
