<svg width="467" height="345" viewBox="0 0 467 345" fill="none" xmlns="http://www.w3.org/2000/svg">
<path d="M25 230.334C3.0062 154.106 102.788 60.641 197.246 32.7992C291.704 4.9574 436.522 154.106 458.516 230.334C480.509 306.561 371.35 281.003 276.893 308.845C182.435 336.687 46.9938 306.562 25 230.334Z" fill="#E4FFFF"/>
<path d="M231.767 191.657C233.244 191.019 284.615 171.266 284.615 171.266C284.615 171.266 296.634 165.609 299.969 157.106C300.188 156.51 300.281 155.873 300.242 155.236C300.202 154.599 300.031 153.977 299.74 153.411C299.449 152.845 299.044 152.347 298.552 151.95C298.06 151.554 297.492 151.267 296.885 151.11L267.257 143.016C266.243 142.74 265.296 142.25 264.476 141.579C263.657 140.907 262.983 140.069 262.498 139.119C262.013 138.168 261.728 137.125 261.661 136.058C261.594 134.99 261.746 133.922 262.109 132.921C262.812 131.118 264.146 129.649 265.854 128.797C267.562 127.945 269.522 127.77 271.357 128.307L302.195 136.725C302.195 136.725 314.213 130.226 346.071 146.039C346.186 146.096 346.308 146.163 346.432 146.221L346.848 145.962L346.856 145.963L382.195 124.378L403.281 160.062L369.699 180.998L369.238 181.285C369.238 181.285 369.204 181.422 369.123 181.677C368.192 184.464 361.227 201.869 327.335 220.206L321.43 224.09C314.824 237.873 300.61 258.22 298.642 261.197C297.018 263.647 290.532 265.652 288.128 263.988C286.971 263.186 286.171 261.949 285.903 260.551C285.635 259.152 285.921 257.706 286.7 256.529C289.849 251.766 293.416 245.761 296.802 239.639C300.188 233.509 303.394 227.262 305.819 222.016C305.819 222.016 306.867 218.046 302.485 218.917L262.077 250.974C259.876 252.886 255.414 253.221 253.517 250.969C251.639 248.695 251.804 241.88 254.005 239.968L289.733 207.975L289.734 207.967C289.75 207.836 289.978 205.768 288.111 205.228L239.188 231.931C236.615 233.284 232.186 230.251 230.844 227.618C229.501 224.985 231.576 219.607 234.149 218.245L280.765 191.507C280.775 191.49 280.782 191.472 280.788 191.452C280.944 191.097 280.997 190.703 280.94 190.316C280.884 189.93 280.72 189.567 280.469 189.271C280.218 188.975 279.89 188.758 279.523 188.645C279.157 188.532 278.766 188.527 278.399 188.633C260.851 193.696 237.48 203.554 235.615 203.897C231.938 204.557 229.859 203.746 228.715 201.023C227.582 198.285 229.098 192.806 231.767 191.657Z" fill="#FED4C0"/>
<path d="M361.909 169.101C361.931 169 361.989 168.912 362.072 168.853C362.154 168.793 362.256 168.768 362.356 168.78C362.368 168.781 362.379 168.785 362.387 168.793C363.611 169.013 364.779 169.484 365.821 170.178C366.864 170.872 367.759 171.773 368.452 172.829C370.39 175.938 370.025 179.678 369.832 180.882L369.373 181.168C369.373 181.168 369.339 181.304 369.258 181.559C369.161 181.53 369.077 181.465 369.025 181.376C368.973 181.287 368.956 181.181 368.977 181.08C369.058 180.692 370.898 171.578 362.221 169.593C362.169 169.582 362.12 169.56 362.075 169.529C362.031 169.499 361.994 169.459 361.964 169.413C361.935 169.368 361.915 169.316 361.906 169.263C361.896 169.209 361.897 169.154 361.909 169.101Z" fill="#ECA085"/>
<path d="M346.263 146.074C346.264 146.066 346.264 146.066 346.273 146.059C346.388 146.116 346.51 146.183 346.633 146.241L347.049 145.983L347.057 145.984C357.764 150.975 357.329 160.06 357.317 160.15C357.315 160.204 357.301 160.257 357.278 160.305C357.255 160.354 357.223 160.397 357.183 160.433C357.143 160.468 357.097 160.495 357.047 160.512C356.997 160.53 356.944 160.536 356.891 160.532C356.838 160.528 356.786 160.514 356.739 160.489C356.691 160.465 356.649 160.431 356.614 160.39C356.58 160.349 356.553 160.301 356.537 160.249C356.52 160.198 356.514 160.144 356.518 160.09C356.538 159.735 356.912 151.34 346.472 146.618C346.423 146.597 346.378 146.566 346.341 146.527C346.304 146.487 346.275 146.441 346.255 146.39C346.236 146.34 346.226 146.286 346.228 146.231C346.229 146.177 346.241 146.124 346.263 146.074Z" fill="#ECA085"/>
<path d="M295.543 187.387C313.965 189.923 326.898 209.802 327.043 210.029C327.102 210.121 327.123 210.233 327.101 210.34C327.079 210.447 327.016 210.54 326.927 210.6C326.837 210.659 326.727 210.68 326.622 210.657C326.517 210.634 326.425 210.569 326.366 210.477C326.205 210.226 310.038 185.391 288.312 188.163C288.206 188.177 288.098 188.147 288.013 188.079C287.928 188.012 287.872 187.913 287.858 187.805C287.844 187.696 287.873 187.586 287.938 187.5C288.004 187.413 288.1 187.357 288.207 187.343C290.642 187.033 293.108 187.048 295.543 187.387Z" fill="#ECA085"/>
<path d="M347.031 165.726C347.107 165.736 347.178 165.769 347.237 165.819C347.296 165.869 347.34 165.935 347.364 166.009C347.388 166.083 347.391 166.163 347.373 166.239C347.355 166.315 347.316 166.383 347.261 166.437C347.017 166.679 322.583 190.391 299.071 175.426C298.98 175.368 298.914 175.275 298.889 175.168C298.864 175.06 298.882 174.947 298.938 174.854C298.995 174.76 299.085 174.694 299.19 174.669C299.295 174.644 299.405 174.663 299.496 174.721C322.475 189.354 346.456 166.075 346.697 165.838C346.74 165.794 346.793 165.762 346.851 165.742C346.909 165.723 346.971 165.717 347.031 165.726Z" fill="#ECA085"/>
<path d="M267.148 244.606C266.498 243.105 246.263 190.869 246.263 190.869C246.263 190.869 240.515 178.653 232.14 175.299C231.553 175.079 230.928 174.987 230.306 175.03C229.684 175.073 229.078 175.251 228.53 175.55C227.981 175.85 227.501 176.265 227.122 176.768C226.743 177.271 226.473 177.851 226.33 178.47L218.941 208.695C218.688 209.73 218.226 210.697 217.584 211.535C216.942 212.374 216.134 213.064 215.213 213.563C214.292 214.062 213.277 214.358 212.234 214.431C211.191 214.505 210.144 214.355 209.158 213.991C207.382 213.283 205.922 211.931 205.058 210.196C204.194 208.46 203.988 206.464 204.48 204.592L212.165 173.133C212.165 173.133 205.595 160.922 220.494 128.388C220.548 128.27 220.612 128.145 220.667 128.019L220.406 127.596L220.407 127.588L185.412 70.9983L219.94 49.3376L254.268 104.141L254.556 104.609C254.556 104.609 254.691 104.643 254.942 104.724C257.685 105.659 274.833 112.667 293.371 147.102L297.275 153.098C310.873 159.759 331.028 174.137 333.975 176.127C336.4 177.769 338.476 184.366 336.892 186.824C336.128 188.007 334.933 188.828 333.569 189.108C332.206 189.388 330.786 189.103 329.622 188.317C324.906 185.132 318.97 181.529 312.922 178.11C306.866 174.691 300.699 171.457 295.525 169.012C295.525 169.012 291.623 167.964 292.553 172.424L324.626 213.429C326.535 215.662 326.943 220.206 324.774 222.15C322.583 224.074 315.915 223.941 314.005 221.708L282.077 185.471L282.069 185.47C281.94 185.454 279.914 185.232 279.419 187.137L306.408 236.844C307.777 239.457 304.889 243.985 302.338 245.366C299.786 246.747 294.489 244.66 293.111 242.045L266.129 194.69C266.112 194.68 266.094 194.672 266.075 194.667C265.725 194.51 265.338 194.458 264.961 194.517C264.584 194.577 264.233 194.745 263.948 195.002C263.662 195.259 263.456 195.595 263.351 195.969C263.247 196.343 263.25 196.741 263.36 197.115C268.625 214.966 278.683 238.726 279.051 240.624C279.762 244.367 279.006 246.489 276.363 247.668C273.705 248.836 268.319 247.32 267.148 244.606Z" fill="#B86A4B"/>
<path d="M242.92 112.414C242.82 112.392 242.733 112.333 242.673 112.248C242.613 112.164 242.586 112.06 242.597 111.957C242.597 111.946 242.601 111.934 242.608 111.925C242.803 110.671 243.245 109.472 243.908 108.4C244.571 107.328 245.441 106.407 246.465 105.691C249.486 103.69 253.167 104.045 254.353 104.236L254.642 104.705C254.642 104.705 254.777 104.739 255.029 104.821C255.003 104.921 254.94 105.007 254.853 105.061C254.766 105.115 254.663 105.133 254.563 105.112C254.181 105.03 245.193 103.191 243.398 112.091C243.388 112.145 243.367 112.196 243.338 112.241C243.308 112.287 243.27 112.326 243.226 112.356C243.181 112.386 243.131 112.406 243.079 112.416C243.026 112.426 242.972 112.426 242.92 112.414Z" fill="#633322"/>
<path d="M220.437 128.561C220.429 128.56 220.429 128.56 220.422 128.551C220.476 128.433 220.539 128.308 220.594 128.182L220.333 127.757L220.334 127.749C225.045 116.766 233.975 117.166 234.063 117.177C234.116 117.18 234.168 117.193 234.216 117.216C234.264 117.24 234.308 117.273 234.343 117.313C234.379 117.354 234.406 117.401 234.424 117.452C234.442 117.503 234.449 117.558 234.446 117.612C234.443 117.666 234.43 117.719 234.407 117.768C234.384 117.816 234.351 117.86 234.311 117.895C234.272 117.931 234.225 117.958 234.175 117.975C234.125 117.992 234.071 117.999 234.018 117.995C233.67 117.976 225.418 117.637 220.967 128.345C220.947 128.395 220.917 128.441 220.88 128.479C220.842 128.517 220.797 128.548 220.748 128.568C220.698 128.588 220.645 128.598 220.592 128.597C220.538 128.595 220.486 128.583 220.437 128.561Z" fill="#633322"/>
<path d="M261.792 179.558C263.946 160.772 283.17 147.493 283.389 147.344C283.433 147.314 283.483 147.293 283.535 147.283C283.587 147.272 283.64 147.273 283.692 147.283C283.744 147.294 283.794 147.315 283.838 147.346C283.882 147.376 283.92 147.415 283.95 147.46C283.98 147.505 284 147.556 284.011 147.609C284.021 147.662 284.021 147.717 284.011 147.77C284.001 147.823 283.981 147.873 283.951 147.918C283.922 147.963 283.884 148.002 283.84 148.032C283.597 148.197 259.581 164.797 262.681 186.923C262.696 187.031 262.669 187.141 262.604 187.228C262.54 187.315 262.444 187.373 262.338 187.387C262.232 187.402 262.124 187.373 262.038 187.307C261.953 187.241 261.896 187.143 261.881 187.035C261.534 184.555 261.504 182.042 261.792 179.558Z" fill="#633322"/>
<path d="M239.726 127.491C239.735 127.414 239.764 127.341 239.812 127.281C239.859 127.221 239.922 127.176 239.994 127.151C240.065 127.126 240.142 127.123 240.216 127.141C240.29 127.159 240.357 127.198 240.41 127.254C240.648 127.5 264.022 152.203 249.959 176.161C249.903 176.253 249.815 176.32 249.712 176.345C249.609 176.37 249.5 176.353 249.409 176.296C249.318 176.24 249.252 176.149 249.226 176.043C249.199 175.938 249.215 175.826 249.269 175.733C263.02 152.317 240.074 128.073 239.84 127.83C239.797 127.786 239.765 127.732 239.745 127.674C239.725 127.615 239.719 127.552 239.726 127.491Z" fill="#633322"/>
<path d="M300.493 130.639C301.099 132.16 319.783 184.989 319.783 184.989C319.783 184.989 325.168 197.375 333.443 200.986C334.023 201.225 334.645 201.336 335.268 201.311C335.892 201.287 336.502 201.129 337.06 200.847C337.617 200.564 338.109 200.164 338.503 199.673C338.897 199.182 339.185 198.61 339.346 197.996L347.63 168.017C347.913 166.991 348.403 166.039 349.07 165.221C349.737 164.403 350.565 163.737 351.501 163.267C352.437 162.797 353.46 162.533 354.505 162.492C355.55 162.45 356.593 162.633 357.567 163.027C359.322 163.789 360.742 165.185 361.555 166.946C362.367 168.707 362.514 170.709 361.966 172.565L353.35 203.767C353.35 203.767 359.558 216.174 343.696 248.229C343.639 248.345 343.572 248.468 343.513 248.592L343.761 249.023L343.76 249.032L380.295 313.607L329.271 306.157L309.209 271.419L308.935 270.942C308.935 270.942 308.801 270.905 308.552 270.816C305.838 269.797 288.9 262.264 271.385 227.277L267.659 221.163C254.261 214.087 234.535 199.095 231.648 197.015C229.272 195.299 227.391 188.642 229.048 186.234C229.847 185.076 231.066 184.292 232.437 184.054C233.809 183.816 235.22 184.145 236.361 184.967C240.981 188.295 246.81 192.08 252.756 195.683C258.71 199.287 264.78 202.71 269.881 205.313C269.881 205.313 273.751 206.48 272.954 201.994L242.1 160.024C240.257 157.733 239.985 153.179 242.211 151.303C244.458 149.447 251.122 149.787 252.965 152.078L283.815 189.279L283.822 189.28C283.95 189.3 285.97 189.584 286.521 187.695L261.009 137.185C259.718 134.531 262.739 130.095 265.332 128.794C267.924 127.492 273.159 129.741 274.458 132.397L300.033 180.557C300.05 180.568 300.068 180.576 300.086 180.583C300.432 180.75 300.817 180.814 301.195 180.766C301.574 180.718 301.931 180.561 302.224 180.313C302.516 180.064 302.733 179.736 302.848 179.365C302.963 178.994 302.972 178.597 302.874 178.22C298.138 160.216 288.786 136.16 288.474 134.251C287.874 130.488 288.693 128.391 291.37 127.295C294.062 126.209 299.403 127.891 300.493 130.639Z" fill="#ECA085"/>
<path d="M320.774 263.499C320.873 263.524 320.959 263.586 321.016 263.672C321.073 263.758 321.097 263.863 321.083 263.965C321.083 263.977 321.078 263.988 321.071 263.997C320.839 265.245 320.362 266.43 319.667 267.48C318.972 268.531 318.075 269.425 317.03 270.109C313.95 272.016 310.28 271.548 309.1 271.32L308.825 270.842C308.825 270.842 308.691 270.804 308.442 270.715C308.471 270.615 308.537 270.532 308.625 270.48C308.713 270.429 308.817 270.414 308.917 270.438C309.296 270.531 318.228 272.648 320.287 263.807C320.298 263.753 320.32 263.703 320.351 263.659C320.382 263.614 320.421 263.577 320.466 263.548C320.512 263.519 320.562 263.5 320.615 263.492C320.668 263.483 320.722 263.486 320.774 263.499Z" fill="#B86A4B"/>
<path d="M343.728 248.05C343.736 248.051 343.736 248.051 343.743 248.061C343.685 248.177 343.618 248.3 343.559 248.425L343.808 248.857L343.807 248.865C338.771 259.698 329.854 259.022 329.766 259.008C329.713 259.004 329.662 258.989 329.614 258.964C329.567 258.939 329.525 258.905 329.49 258.863C329.456 258.822 329.43 258.774 329.413 258.722C329.397 258.67 329.391 258.616 329.396 258.562C329.4 258.508 329.415 258.455 329.44 258.407C329.465 258.359 329.498 258.317 329.539 258.283C329.58 258.248 329.627 258.222 329.678 258.207C329.729 258.191 329.782 258.186 329.835 258.192C330.183 258.221 338.423 258.816 343.191 248.25C343.212 248.2 343.244 248.155 343.282 248.118C343.321 248.081 343.367 248.052 343.417 248.034C343.467 248.015 343.521 248.007 343.574 248.01C343.627 248.013 343.679 248.026 343.728 248.05Z" fill="#B86A4B"/>
<path d="M303.911 195.808C301.2 214.518 281.585 227.197 281.361 227.339C281.316 227.367 281.266 227.386 281.214 227.395C281.161 227.404 281.108 227.402 281.056 227.39C281.004 227.377 280.955 227.355 280.912 227.323C280.869 227.291 280.832 227.252 280.804 227.205C280.775 227.159 280.756 227.108 280.747 227.055C280.738 227.001 280.74 226.947 280.752 226.894C280.763 226.841 280.785 226.791 280.816 226.747C280.847 226.703 280.886 226.666 280.931 226.637C281.179 226.48 305.685 210.629 303.241 188.42C303.229 188.311 303.26 188.202 303.327 188.117C303.36 188.075 303.401 188.04 303.447 188.014C303.493 187.988 303.545 187.972 303.597 187.966C303.65 187.96 303.704 187.965 303.755 187.981C303.806 187.996 303.853 188.021 303.895 188.055C303.936 188.089 303.971 188.131 303.996 188.179C304.022 188.227 304.038 188.279 304.044 188.333C304.317 190.822 304.273 193.335 303.911 195.808Z" fill="#B86A4B"/>
<path d="M324.416 248.524C324.405 248.6 324.373 248.672 324.324 248.731C324.274 248.789 324.21 248.832 324.138 248.855C324.066 248.877 323.989 248.878 323.916 248.858C323.843 248.838 323.776 248.797 323.725 248.74C323.495 248.486 300.867 223.076 315.626 199.571C315.655 199.525 315.692 199.486 315.735 199.456C315.778 199.425 315.827 199.404 315.879 199.392C315.93 199.381 315.983 199.38 316.035 199.39C316.087 199.4 316.137 199.421 316.181 199.45C316.226 199.48 316.264 199.518 316.294 199.562C316.324 199.607 316.346 199.657 316.357 199.71C316.368 199.763 316.369 199.818 316.36 199.871C316.351 199.924 316.331 199.975 316.303 200.02C301.871 222.993 324.085 247.931 324.312 248.181C324.353 248.227 324.384 248.281 324.402 248.34C324.42 248.4 324.425 248.462 324.416 248.524Z" fill="#B86A4B"/>
<path d="M351.964 187.292C350.709 188.309 306.432 221.316 306.432 221.316C306.432 221.316 296.343 230.039 295.35 239.152C295.294 239.787 295.371 240.427 295.575 241.032C295.778 241.636 296.105 242.19 296.533 242.658C296.96 243.125 297.48 243.496 298.056 243.746C298.633 243.995 299.254 244.117 299.879 244.105L330.493 243.88C331.541 243.872 332.58 244.088 333.543 244.514C334.507 244.939 335.373 245.566 336.088 246.352C336.802 247.138 337.348 248.068 337.69 249.08C338.033 250.092 338.165 251.165 338.077 252.23C337.87 254.161 336.969 255.941 335.548 257.227C334.127 258.513 332.286 259.214 330.381 259.194L298.519 259.433C298.519 259.433 288.649 268.968 253.879 262.345C253.753 262.32 253.618 262.289 253.484 262.266L253.151 262.629L253.143 262.63L217.053 301.331L177.472 283.668L222.037 235.004L222.406 234.602C222.406 234.602 222.403 234.461 222.414 234.192C222.584 231.249 224.75 212.556 252.579 185.657L257.249 180.306C260.013 165.208 268.386 141.708 269.504 138.3C270.428 135.494 276.145 131.798 278.892 132.752C280.214 133.213 281.307 134.19 281.929 135.467C282.551 136.745 282.652 138.219 282.21 139.566C280.421 145.019 278.554 151.784 276.892 158.613C275.231 165.45 273.775 172.35 272.808 178.073C272.808 178.073 272.834 182.19 276.823 180.16L307.347 138.249C308.967 135.806 313.172 134.272 315.584 135.931C317.983 137.617 319.6 144.241 317.98 146.684L291.943 187.265L291.944 187.273C291.963 187.404 292.282 189.462 294.22 189.476L334.331 150.423C336.453 148.419 341.504 150.146 343.482 152.324C345.46 154.502 344.865 160.257 342.744 162.269L304.862 200.73C304.857 200.749 304.855 200.769 304.854 200.789C304.797 201.175 304.849 201.57 305.004 201.927C305.159 202.285 305.41 202.591 305.729 202.809C306.048 203.026 306.42 203.147 306.803 203.157C307.185 203.167 307.561 203.065 307.887 202.863C323.45 193.214 343.368 177.356 345.073 176.519C348.439 174.885 350.65 175.103 352.459 177.422C354.263 179.758 354.233 185.459 351.964 187.292Z" fill="#633322"/>
<path d="M232.599 244.282C232.604 244.385 232.571 244.487 232.506 244.566C232.442 244.646 232.351 244.699 232.251 244.714C232.24 244.716 232.228 244.715 232.218 244.71C230.982 244.83 229.733 244.692 228.547 244.305C227.361 243.918 226.263 243.289 225.32 242.458C222.641 239.98 222.017 236.266 221.889 235.05L222.257 234.649C222.257 234.649 222.254 234.508 222.266 234.239C222.367 234.241 222.465 234.282 222.538 234.353C222.612 234.425 222.656 234.523 222.662 234.626C222.685 235.023 223.288 244.332 232.169 243.892C232.222 243.888 232.276 243.895 232.326 243.913C232.377 243.931 232.424 243.959 232.464 243.995C232.504 244.032 232.536 244.076 232.559 244.125C232.583 244.174 232.596 244.228 232.599 244.282Z" fill="#471301"/>
<path d="M253.709 262.257C253.711 262.266 253.711 262.266 253.704 262.275C253.578 262.251 253.443 262.219 253.309 262.196L252.976 262.559L252.968 262.56C241.345 260.645 239.395 251.745 239.382 251.655C239.371 251.602 239.37 251.547 239.38 251.494C239.39 251.441 239.409 251.39 239.438 251.345C239.467 251.3 239.505 251.261 239.549 251.231C239.593 251.201 239.642 251.18 239.694 251.169C239.746 251.159 239.8 251.159 239.852 251.17C239.904 251.18 239.953 251.202 239.997 251.232C240.042 251.262 240.079 251.301 240.109 251.347C240.138 251.392 240.158 251.443 240.168 251.496C240.241 251.844 242.072 260.061 253.367 261.788C253.419 261.795 253.47 261.813 253.516 261.841C253.563 261.869 253.603 261.906 253.635 261.949C253.667 261.993 253.69 262.043 253.703 262.096C253.715 262.149 253.718 262.204 253.709 262.257Z" fill="#471301"/>
<path d="M291.769 208.744C273.362 211.299 255.719 195.58 255.52 195.4C255.48 195.364 255.448 195.32 255.424 195.271C255.401 195.222 255.387 195.169 255.384 195.115C255.38 195.061 255.387 195.006 255.404 194.955C255.422 194.904 255.449 194.856 255.484 194.816C255.519 194.775 255.562 194.742 255.609 194.719C255.657 194.695 255.709 194.681 255.762 194.678C255.815 194.675 255.868 194.682 255.919 194.7C255.969 194.718 256.016 194.746 256.056 194.782C256.276 194.982 278.328 214.616 298.531 206.027C298.63 205.985 298.741 205.985 298.841 206.026C298.94 206.068 299.02 206.149 299.062 206.25C299.104 206.352 299.104 206.466 299.064 206.567C299.024 206.668 298.945 206.749 298.846 206.791C296.582 207.753 294.203 208.41 291.769 208.744Z" fill="#471301"/>
<path d="M247.856 243.521C247.781 243.532 247.704 243.52 247.634 243.488C247.565 243.456 247.505 243.404 247.463 243.339C247.42 243.274 247.397 243.198 247.394 243.12C247.392 243.043 247.412 242.966 247.45 242.899C247.622 242.601 264.969 213.14 291.463 221.159C291.567 221.191 291.654 221.262 291.706 221.359C291.757 221.455 291.77 221.569 291.74 221.674C291.71 221.78 291.64 221.868 291.546 221.92C291.452 221.973 291.341 221.985 291.238 221.953C265.342 214.109 248.319 243.029 248.149 243.323C248.118 243.376 248.076 243.422 248.025 243.456C247.975 243.491 247.917 243.513 247.856 243.521Z" fill="#471301"/>
</svg>
