<svg width="326" height="293" viewBox="0 0 326 293" fill="none" xmlns="http://www.w3.org/2000/svg">
<path d="M25.5894 192.224C6.13607 124.952 3.32561 53.5159 86.8724 28.9454C170.419 4.37494 298.509 135.999 317.963 203.27C337.416 270.541 240.866 247.986 157.319 272.556C73.7722 297.127 45.0426 259.495 25.5894 192.224Z" fill="#E4FFFF"/>
<path d="M117.406 169.138C118.712 168.575 164.15 151.143 164.15 151.143C164.15 151.143 174.78 146.15 177.729 138.646C177.924 138.121 178.006 137.558 177.971 136.996C177.936 136.434 177.785 135.885 177.528 135.386C177.27 134.886 176.912 134.446 176.477 134.096C176.041 133.746 175.539 133.494 175.002 133.355L148.796 126.212C147.899 125.968 147.062 125.536 146.337 124.944C145.612 124.351 145.016 123.612 144.587 122.773C144.158 121.933 143.906 121.013 143.847 120.071C143.787 119.129 143.922 118.187 144.243 117.303C144.865 115.712 146.045 114.416 147.555 113.664C149.066 112.912 150.8 112.758 152.423 113.231L179.699 120.66C179.699 120.66 190.329 114.924 218.507 128.88C218.608 128.93 218.717 128.989 218.826 129.041L219.194 128.812L219.201 128.813L250.458 109.764L269.108 141.255L239.405 159.732L238.997 159.984C238.997 159.984 238.968 160.105 238.896 160.331C238.072 162.79 231.912 178.15 201.935 194.333L196.712 197.76C190.869 209.923 178.297 227.879 176.556 230.507C175.12 232.669 169.383 234.438 167.257 232.97C166.233 232.262 165.525 231.171 165.288 229.937C165.051 228.702 165.305 227.426 165.993 226.388C168.779 222.184 171.934 216.884 174.928 211.482C177.924 206.072 180.759 200.56 182.904 195.93C182.904 195.93 183.831 192.427 179.955 193.195L144.215 221.485C142.268 223.172 138.321 223.468 136.643 221.481C134.982 219.474 135.128 213.46 137.075 211.773L168.676 183.538L168.677 183.531C168.692 183.416 168.893 181.591 167.241 181.114L123.969 204.68C121.694 205.874 117.777 203.197 116.589 200.873C115.402 198.55 117.237 193.803 119.513 192.602L160.744 169.006C160.753 168.99 160.76 168.974 160.765 168.957C160.902 168.644 160.949 168.296 160.899 167.955C160.849 167.614 160.705 167.294 160.483 167.032C160.261 166.771 159.97 166.579 159.646 166.479C159.321 166.38 158.976 166.376 158.651 166.469C143.131 170.938 122.459 179.637 120.809 179.94C117.557 180.522 115.718 179.806 114.707 177.404C113.704 174.987 115.045 170.151 117.406 169.138Z" fill="#FED4C0"/>
<path d="M232.515 149.232C232.535 149.143 232.586 149.065 232.659 149.013C232.732 148.961 232.822 148.938 232.911 148.949C232.921 148.949 232.931 148.953 232.938 148.96C234.02 149.154 235.053 149.57 235.975 150.182C236.897 150.795 237.689 151.591 238.302 152.522C240.016 155.266 239.693 158.566 239.523 159.629L239.117 159.881C239.117 159.881 239.087 160.001 239.016 160.226C238.929 160.201 238.856 160.143 238.809 160.064C238.763 159.986 238.748 159.893 238.766 159.803C238.838 159.461 240.466 151.418 232.791 149.666C232.745 149.656 232.701 149.637 232.662 149.61C232.623 149.583 232.59 149.548 232.564 149.508C232.538 149.467 232.521 149.422 232.512 149.375C232.504 149.327 232.505 149.279 232.515 149.232Z" fill="#ECA085"/>
<path d="M218.676 128.911C218.677 128.904 218.677 128.904 218.685 128.897C218.787 128.948 218.895 129.007 219.004 129.058L219.371 128.83L219.379 128.831C228.849 133.236 228.464 141.254 228.454 141.333C228.451 141.38 228.439 141.427 228.419 141.47C228.398 141.513 228.37 141.551 228.335 141.582C228.3 141.614 228.259 141.638 228.214 141.653C228.17 141.668 228.123 141.674 228.076 141.67C228.029 141.667 227.984 141.654 227.942 141.632C227.9 141.611 227.863 141.581 227.832 141.544C227.801 141.508 227.778 141.466 227.763 141.421C227.749 141.375 227.743 141.327 227.747 141.28C227.765 140.967 228.095 133.558 218.861 129.391C218.818 129.372 218.778 129.345 218.745 129.31C218.712 129.276 218.687 129.235 218.669 129.19C218.652 129.145 218.644 129.097 218.645 129.05C218.646 129.002 218.657 128.954 218.676 128.911Z" fill="#ECA085"/>
<path d="M173.815 165.369C190.109 167.607 201.548 185.151 201.676 185.351C201.728 185.432 201.747 185.531 201.727 185.625C201.708 185.72 201.653 185.802 201.573 185.855C201.494 185.907 201.397 185.925 201.304 185.905C201.211 185.885 201.13 185.828 201.078 185.747C200.935 185.525 186.635 163.608 167.419 166.054C167.325 166.066 167.23 166.04 167.155 165.98C167.079 165.921 167.03 165.834 167.018 165.738C167.005 165.642 167.031 165.545 167.089 165.469C167.146 165.393 167.232 165.343 167.326 165.331C169.48 165.057 171.661 165.07 173.815 165.369Z" fill="#ECA085"/>
<path d="M219.356 146.254C219.423 146.263 219.486 146.291 219.538 146.335C219.59 146.379 219.629 146.438 219.65 146.503C219.672 146.569 219.675 146.639 219.658 146.706C219.642 146.773 219.608 146.834 219.56 146.882C219.344 147.094 197.732 168.021 176.936 154.814C176.855 154.763 176.797 154.681 176.775 154.586C176.753 154.491 176.769 154.391 176.818 154.309C176.868 154.226 176.948 154.168 177.041 154.146C177.133 154.124 177.231 154.14 177.312 154.192C197.636 167.105 218.847 146.562 219.06 146.352C219.099 146.314 219.145 146.285 219.197 146.268C219.248 146.251 219.302 146.246 219.356 146.254Z" fill="#ECA085"/>
<path d="M148.7 215.866C148.125 214.54 130.228 168.442 130.228 168.442C130.228 168.442 125.144 157.662 117.736 154.702C117.217 154.507 116.664 154.426 116.114 154.465C115.563 154.503 115.028 154.659 114.543 154.923C114.057 155.188 113.633 155.554 113.298 155.998C112.962 156.442 112.723 156.954 112.597 157.501L106.061 184.174C105.838 185.087 105.429 185.941 104.861 186.68C104.294 187.42 103.579 188.03 102.764 188.47C101.949 188.91 101.052 189.171 100.129 189.236C99.207 189.301 98.2803 189.169 97.4089 188.847C95.8381 188.223 94.5462 187.03 93.7821 185.498C93.0181 183.967 92.836 182.205 93.271 180.553L100.068 152.791C100.068 152.791 94.2568 142.014 107.436 113.302C107.483 113.199 107.539 113.088 107.588 112.977L107.357 112.604L107.358 112.597L76.4059 62.6562L106.945 43.5405L137.308 91.9046L137.563 92.3177C137.563 92.3177 137.682 92.3473 137.904 92.4192C140.33 93.2441 155.497 99.4285 171.895 129.818L175.348 135.11C187.375 140.988 205.201 153.676 207.808 155.432C209.953 156.882 211.789 162.703 210.388 164.872C209.712 165.916 208.655 166.641 207.449 166.889C206.243 167.136 204.988 166.884 203.958 166.19C199.787 163.38 194.536 160.2 189.186 157.183C183.83 154.165 178.375 151.311 173.799 149.153C173.799 149.153 170.348 148.229 171.17 152.165L199.539 188.352C201.228 190.322 201.588 194.332 199.67 196.048C197.732 197.746 191.834 197.628 190.145 195.658L161.905 163.678L161.898 163.678C161.784 163.663 159.992 163.468 159.554 165.149L183.425 209.015C184.636 211.322 182.082 215.317 179.825 216.536C177.568 217.755 172.883 215.913 171.664 213.606L147.799 171.814C147.784 171.806 147.768 171.799 147.751 171.794C147.441 171.655 147.1 171.61 146.766 171.662C146.433 171.715 146.122 171.863 145.869 172.09C145.617 172.317 145.434 172.613 145.342 172.943C145.25 173.273 145.253 173.624 145.35 173.954C150.006 189.708 158.902 210.677 159.229 212.352C159.857 215.655 159.188 217.527 156.851 218.568C154.5 219.599 149.736 218.26 148.7 215.866Z" fill="#B86A4B"/>
<path d="M127.27 99.2059C127.182 99.1861 127.105 99.134 127.052 99.0595C126.999 98.9851 126.975 98.8936 126.985 98.8026C126.985 98.7923 126.988 98.7823 126.995 98.7744C127.167 97.6675 127.558 96.6091 128.144 95.6634C128.731 94.7177 129.5 93.9043 130.406 93.2726C133.078 91.5065 136.334 91.82 137.383 91.9885L137.639 92.4028C137.639 92.4028 137.758 92.4325 137.981 92.5046C137.957 92.5929 137.902 92.6686 137.825 92.7163C137.749 92.764 137.657 92.7801 137.569 92.7614C137.23 92.6895 129.281 91.0662 127.693 98.9209C127.684 98.9683 127.666 99.0132 127.64 99.0533C127.614 99.0933 127.58 99.1276 127.541 99.1541C127.502 99.1806 127.457 99.1989 127.411 99.2078C127.364 99.2167 127.317 99.216 127.27 99.2059Z" fill="#633322"/>
<path d="M107.385 113.456C107.377 113.455 107.377 113.455 107.371 113.447C107.419 113.342 107.475 113.232 107.524 113.121L107.293 112.746L107.294 112.739C111.46 103.046 119.359 103.399 119.437 103.409C119.484 103.411 119.53 103.423 119.573 103.444C119.615 103.464 119.653 103.494 119.685 103.529C119.716 103.565 119.741 103.607 119.756 103.652C119.772 103.697 119.779 103.745 119.776 103.793C119.773 103.84 119.762 103.887 119.741 103.93C119.72 103.973 119.692 104.011 119.657 104.043C119.621 104.074 119.58 104.098 119.536 104.113C119.491 104.129 119.444 104.135 119.397 104.131C119.089 104.114 111.791 103.815 107.854 113.265C107.836 113.309 107.81 113.349 107.776 113.383C107.743 113.417 107.703 113.444 107.66 113.461C107.616 113.479 107.569 113.488 107.522 113.487C107.475 113.486 107.428 113.475 107.385 113.456Z" fill="#633322"/>
<path d="M143.963 158.461C145.868 141.882 162.872 130.163 163.065 130.031C163.104 130.005 163.148 129.987 163.194 129.977C163.24 129.968 163.288 129.968 163.334 129.978C163.38 129.987 163.424 130.006 163.463 130.033C163.502 130.06 163.535 130.094 163.562 130.134C163.588 130.173 163.606 130.218 163.615 130.265C163.625 130.312 163.625 130.36 163.616 130.407C163.607 130.454 163.589 130.499 163.563 130.538C163.537 130.578 163.503 130.612 163.464 130.638C163.249 130.784 142.007 145.434 144.749 164.96C144.763 165.056 144.738 165.152 144.681 165.229C144.625 165.306 144.54 165.357 144.446 165.37C144.352 165.383 144.257 165.358 144.181 165.299C144.105 165.241 144.055 165.154 144.041 165.059C143.735 162.87 143.708 160.652 143.963 158.461Z" fill="#633322"/>
<path d="M124.445 112.511C124.453 112.443 124.48 112.379 124.521 112.326C124.563 112.273 124.619 112.233 124.682 112.211C124.746 112.189 124.814 112.186 124.879 112.202C124.944 112.218 125.004 112.253 125.051 112.302C125.261 112.519 145.935 134.319 133.496 155.462C133.447 155.544 133.369 155.603 133.278 155.625C133.187 155.647 133.09 155.632 133.01 155.582C132.929 155.532 132.871 155.452 132.848 155.359C132.825 155.266 132.839 155.167 132.886 155.085C145.049 134.421 124.753 113.025 124.546 112.81C124.508 112.771 124.48 112.724 124.462 112.672C124.445 112.621 124.439 112.565 124.445 112.511Z" fill="#633322"/>
<path d="M178.194 115.289C178.73 116.632 195.255 163.254 195.255 163.254C195.255 163.254 200.018 174.184 207.337 177.371C207.85 177.581 208.401 177.679 208.952 177.658C209.503 177.637 210.043 177.497 210.537 177.248C211.03 176.998 211.465 176.645 211.813 176.212C212.162 175.778 212.416 175.274 212.559 174.732L219.885 148.276C220.136 147.37 220.57 146.53 221.159 145.808C221.749 145.086 222.482 144.499 223.31 144.084C224.137 143.669 225.043 143.436 225.967 143.399C226.891 143.363 227.813 143.524 228.675 143.872C230.227 144.544 231.484 145.776 232.202 147.33C232.92 148.884 233.05 150.651 232.566 152.289L224.945 179.825C224.945 179.825 230.436 190.774 216.406 219.063C216.356 219.165 216.296 219.274 216.244 219.383L216.464 219.764L216.463 219.771L248.778 276.759L203.647 270.184L185.903 239.528L185.66 239.107C185.66 239.107 185.542 239.074 185.322 238.995C182.921 238.096 167.94 231.448 152.448 200.572L149.152 195.177C137.301 188.932 119.855 175.702 117.301 173.866C115.199 172.352 113.535 166.477 115.001 164.352C115.708 163.33 116.786 162.638 117.999 162.428C119.212 162.218 120.46 162.508 121.469 163.234C125.556 166.171 130.712 169.511 135.971 172.691C141.237 175.871 146.606 178.892 151.118 181.189C151.118 181.189 154.541 182.219 153.835 178.26L126.546 141.221C124.916 139.2 124.674 135.181 126.643 133.526C128.631 131.888 134.525 132.187 136.155 134.209L163.442 167.039L163.449 167.04C163.562 167.058 165.348 167.309 165.836 165.641L143.271 121.066C142.128 118.724 144.801 114.809 147.094 113.661C149.387 112.512 154.016 114.497 155.166 116.841L177.787 159.342C177.801 159.352 177.817 159.359 177.834 159.365C178.14 159.512 178.48 159.569 178.815 159.526C179.15 159.484 179.465 159.345 179.724 159.126C179.983 158.907 180.175 158.617 180.277 158.29C180.379 157.963 180.386 157.612 180.299 157.279C176.111 141.391 167.839 120.161 167.563 118.477C167.032 115.156 167.757 113.306 170.125 112.338C172.506 111.38 177.23 112.864 178.194 115.289Z" fill="#ECA085"/>
<path d="M196.132 232.538C196.219 232.561 196.295 232.615 196.346 232.691C196.396 232.767 196.417 232.86 196.405 232.95C196.405 232.961 196.401 232.97 196.394 232.978C196.189 234.079 195.767 235.125 195.153 236.052C194.538 236.979 193.745 237.769 192.82 238.372C190.096 240.055 186.85 239.641 185.806 239.441L185.563 239.019C185.563 239.019 185.445 238.985 185.224 238.906C185.25 238.819 185.308 238.745 185.386 238.7C185.464 238.654 185.556 238.641 185.644 238.662C185.98 238.745 193.88 240.612 195.701 232.81C195.711 232.763 195.73 232.719 195.757 232.679C195.785 232.64 195.819 232.607 195.86 232.582C195.9 232.556 195.944 232.539 195.991 232.532C196.038 232.525 196.086 232.527 196.132 232.538Z" fill="#B86A4B"/>
<path d="M216.434 218.905C216.441 218.906 216.441 218.906 216.447 218.914C216.396 219.017 216.337 219.126 216.285 219.235L216.505 219.617L216.504 219.624C212.05 229.184 204.163 228.588 204.085 228.575C204.038 228.572 203.993 228.558 203.951 228.536C203.909 228.514 203.872 228.484 203.841 228.448C203.811 228.411 203.788 228.368 203.773 228.323C203.759 228.277 203.754 228.229 203.758 228.181C203.762 228.134 203.775 228.087 203.797 228.045C203.818 228.003 203.848 227.965 203.884 227.935C203.921 227.905 203.962 227.882 204.007 227.868C204.052 227.854 204.099 227.85 204.146 227.855C204.454 227.881 211.742 228.405 215.959 219.081C215.978 219.037 216.006 218.998 216.04 218.965C216.075 218.932 216.115 218.907 216.159 218.891C216.204 218.874 216.251 218.867 216.298 218.869C216.345 218.872 216.391 218.884 216.434 218.905Z" fill="#B86A4B"/>
<path d="M181.217 172.801C178.819 189.312 161.469 200.502 161.271 200.627C161.232 200.652 161.187 200.669 161.141 200.677C161.095 200.685 161.047 200.683 161.002 200.672C160.956 200.661 160.913 200.641 160.874 200.613C160.836 200.585 160.803 200.55 160.778 200.509C160.753 200.469 160.736 200.424 160.729 200.376C160.721 200.329 160.722 200.281 160.732 200.234C160.743 200.188 160.762 200.144 160.789 200.105C160.816 200.066 160.851 200.033 160.891 200.008C161.11 199.869 182.785 185.881 180.624 166.281C180.613 166.185 180.64 166.089 180.7 166.014C180.729 165.977 180.765 165.946 180.806 165.923C180.847 165.9 180.892 165.886 180.939 165.88C180.986 165.875 181.033 165.88 181.078 165.893C181.123 165.907 181.165 165.929 181.202 165.959C181.239 165.989 181.269 166.027 181.292 166.069C181.315 166.111 181.329 166.157 181.334 166.204C181.576 168.401 181.537 170.618 181.217 172.801Z" fill="#B86A4B"/>
<path d="M199.353 219.323C199.343 219.39 199.315 219.454 199.271 219.505C199.228 219.557 199.171 219.595 199.107 219.615C199.043 219.635 198.975 219.636 198.91 219.618C198.846 219.6 198.787 219.564 198.742 219.513C198.538 219.289 178.524 196.865 191.578 176.122C191.604 176.082 191.636 176.047 191.675 176.02C191.713 175.993 191.756 175.974 191.802 175.964C191.847 175.954 191.894 175.954 191.94 175.962C191.986 175.971 192.03 175.989 192.069 176.015C192.109 176.041 192.143 176.075 192.169 176.114C192.196 176.154 192.215 176.198 192.225 176.245C192.235 176.291 192.236 176.34 192.227 176.386C192.219 176.433 192.202 176.478 192.177 176.518C179.412 196.792 199.06 218.8 199.261 219.02C199.297 219.061 199.325 219.109 199.34 219.161C199.356 219.213 199.361 219.269 199.353 219.323Z" fill="#B86A4B"/>
<path d="M223.719 165.285C222.609 166.183 183.446 195.312 183.446 195.312C183.446 195.312 174.522 203.01 173.644 211.052C173.595 211.613 173.663 212.178 173.843 212.711C174.023 213.244 174.312 213.733 174.69 214.146C175.069 214.559 175.528 214.886 176.038 215.106C176.548 215.326 177.098 215.434 177.65 215.423L204.728 215.225C205.655 215.218 206.574 215.408 207.426 215.784C208.278 216.16 209.045 216.712 209.676 217.406C210.308 218.1 210.791 218.92 211.094 219.814C211.397 220.707 211.513 221.654 211.436 222.593C211.253 224.298 210.456 225.869 209.199 227.004C207.942 228.138 206.314 228.757 204.629 228.739L176.447 228.95C176.447 228.95 167.718 237.365 136.964 231.52C136.852 231.499 136.733 231.471 136.614 231.451L136.32 231.771L136.312 231.772L104.391 265.925L69.3824 250.338L108.8 207.391L109.126 207.037C109.126 207.037 109.123 206.912 109.134 206.675C109.284 204.078 111.199 187.581 135.814 163.843L139.944 159.12C142.389 145.796 149.795 125.057 150.784 122.05C151.601 119.574 156.658 116.312 159.087 117.154C160.257 117.561 161.223 118.423 161.773 119.55C162.324 120.678 162.413 121.979 162.022 123.167C160.44 127.98 158.789 133.95 157.318 139.976C155.849 146.01 154.561 152.099 153.706 157.15C153.706 157.15 153.729 160.783 157.257 158.992L184.255 122.005C185.688 119.849 189.407 118.495 191.541 119.959C193.663 121.447 195.093 127.293 193.661 129.449L170.631 165.262L170.632 165.269C170.648 165.384 170.931 167.2 172.645 167.213L208.122 132.749C209.999 130.98 214.467 132.504 216.217 134.426C217.966 136.348 217.44 141.427 215.564 143.203L182.058 177.145C182.053 177.162 182.051 177.179 182.051 177.197C182 177.537 182.046 177.886 182.183 178.201C182.32 178.517 182.543 178.787 182.825 178.979C183.106 179.171 183.436 179.278 183.774 179.287C184.112 179.295 184.445 179.205 184.734 179.027C198.499 170.512 216.116 156.517 217.623 155.779C220.601 154.336 222.557 154.529 224.157 156.575C225.753 158.637 225.726 163.668 223.719 165.285Z" fill="#633322"/>
<path d="M118.142 215.58C118.146 215.671 118.117 215.76 118.06 215.83C118.003 215.901 117.923 215.947 117.834 215.96C117.824 215.963 117.814 215.962 117.805 215.957C116.711 216.063 115.607 215.941 114.558 215.6C113.509 215.258 112.538 214.704 111.703 213.97C109.334 211.783 108.783 208.505 108.669 207.432L108.995 207.078C108.995 207.078 108.992 206.954 109.002 206.717C109.092 206.718 109.178 206.754 109.243 206.818C109.308 206.881 109.347 206.967 109.353 207.058C109.373 207.409 109.906 215.623 117.762 215.235C117.809 215.232 117.856 215.238 117.901 215.254C117.945 215.27 117.987 215.294 118.022 215.327C118.058 215.359 118.086 215.398 118.107 215.441C118.127 215.484 118.139 215.532 118.142 215.58Z" fill="#471301"/>
<path d="M136.814 231.443C136.815 231.45 136.815 231.45 136.809 231.458C136.697 231.437 136.578 231.409 136.46 231.389L136.165 231.709L136.158 231.71C125.878 230.02 124.153 222.165 124.142 222.086C124.132 222.039 124.131 221.991 124.139 221.944C124.148 221.897 124.165 221.853 124.191 221.813C124.217 221.773 124.25 221.739 124.289 221.712C124.328 221.685 124.371 221.667 124.417 221.658C124.463 221.648 124.511 221.648 124.557 221.658C124.603 221.667 124.646 221.686 124.685 221.713C124.724 221.74 124.758 221.774 124.784 221.814C124.81 221.854 124.828 221.899 124.837 221.946C124.901 222.253 126.521 229.504 136.51 231.029C136.557 231.035 136.602 231.051 136.643 231.075C136.684 231.1 136.719 231.132 136.748 231.171C136.776 231.21 136.796 231.254 136.808 231.3C136.819 231.347 136.821 231.395 136.814 231.443Z" fill="#471301"/>
<path d="M170.477 184.217C154.196 186.472 138.591 172.6 138.415 172.441C138.38 172.409 138.351 172.371 138.33 172.327C138.31 172.284 138.297 172.237 138.294 172.189C138.291 172.142 138.298 172.094 138.313 172.048C138.328 172.003 138.352 171.961 138.383 171.926C138.414 171.89 138.452 171.861 138.494 171.84C138.536 171.819 138.582 171.807 138.629 171.804C138.676 171.801 138.723 171.808 138.768 171.824C138.812 171.839 138.853 171.864 138.889 171.896C139.084 172.072 158.588 189.4 176.458 181.819C176.545 181.782 176.644 181.782 176.732 181.819C176.82 181.856 176.89 181.927 176.927 182.016C176.964 182.106 176.965 182.206 176.929 182.296C176.894 182.385 176.824 182.457 176.737 182.494C174.734 183.343 172.63 183.922 170.477 184.217Z" fill="#471301"/>
<path d="M131.637 214.908C131.57 214.917 131.502 214.907 131.44 214.879C131.379 214.85 131.326 214.805 131.289 214.747C131.251 214.69 131.23 214.623 131.228 214.554C131.226 214.486 131.244 214.418 131.278 214.359C131.43 214.096 146.773 188.097 170.207 195.174C170.298 195.201 170.375 195.265 170.421 195.35C170.467 195.435 170.478 195.535 170.451 195.628C170.425 195.721 170.363 195.799 170.28 195.845C170.197 195.892 170.099 195.902 170.007 195.874C147.103 188.952 132.046 214.474 131.896 214.733C131.869 214.78 131.831 214.821 131.786 214.851C131.741 214.881 131.69 214.901 131.637 214.908Z" fill="#471301"/>
</svg>
