<svg width="361" height="454" viewBox="0 0 406 511" fill="none" xmlns="http://www.w3.org/2000/svg">
<path d="M13.321 470.853L15.0001 458.742L15.5485 463.274C15.6364 463.999 17.375 478.363 17.375 478.363C17.5801 480.056 18.6634 481.418 20.135 481.833L29.0001 484.33L20.1287 486.829C18.6608 487.242 17.5798 488.603 17.3749 490.297L15.0003 509.918L12.6257 490.298C12.4207 488.604 11.3397 487.243 9.87164 486.829L1 484.331L9.87219 481.831C11.3398 481.418 12.3322 479.057 12.537 477.364" stroke="black" stroke-width="2" stroke-miterlimit="10" stroke-linecap="round" stroke-linejoin="round"/>
<path d="M383.594 16.736L385.856 1L386.594 6.8885C386.713 7.83034 389.054 26.495 389.054 26.495C389.33 28.695 390.79 30.4648 392.771 31.0032L404.711 34.2478L392.763 37.4944C390.786 38.0316 389.33 39.8004 389.054 42.0011L385.856 67.4954L382.658 42.0021C382.382 39.8016 380.926 38.0325 378.949 37.4951L367 34.2488L378.949 31.0014C380.926 30.4641 382.262 27.3962 382.538 25.1962" stroke="black" stroke-width="2" stroke-miterlimit="10" stroke-linecap="round" stroke-linejoin="round"/>
</svg>