<svg width="421" height="295" viewBox="0 0 421 295" fill="none" xmlns="http://www.w3.org/2000/svg">
<path d="M344.223 0H257.405C254.187 0 251.578 2.6087 251.578 5.8267V69.9204C251.578 73.1384 254.187 75.7471 257.405 75.7471H344.223C347.441 75.7471 350.049 73.1384 350.049 69.9204V5.8267C350.049 2.6087 347.441 0 344.223 0Z" fill="#F2F6FB"/>
<path d="M266.843 60.1745L281.543 37.8089C282.938 35.6854 285.996 35.4666 287.674 37.3696L293.605 44.0804C296.31 47.1372 301.217 46.6685 303.286 43.1604L317.429 19.1448C318.845 16.739 322.226 16.5734 323.893 18.8202L338.895 39.2798C339.245 39.7563 339.913 39.8587 340.389 39.5083C340.864 39.158 340.966 38.4876 340.617 38.0111L325.611 17.5466C323.031 14.0701 317.784 14.3272 315.589 18.0561L301.447 42.0708C300.116 44.3274 296.947 44.63 295.203 42.6593L289.274 35.9502C286.665 32.9905 281.928 33.3295 279.759 36.6305L265.059 58.9959C264.735 59.4898 264.871 60.154 265.363 60.4795C265.856 60.8049 266.519 60.6684 266.843 60.1745Z" fill="#E1E5F0"/>
<path d="M272.845 52.3807C274.615 52.3807 276.05 50.9423 276.05 49.1678C276.05 47.3934 274.615 45.9549 272.845 45.9549C271.075 45.9549 269.641 47.3934 269.641 49.1678C269.641 50.9423 271.075 52.3807 272.845 52.3807Z" fill="#3ABF7C"/>
<path d="M308.583 35.0502C310.353 35.0502 311.787 33.6117 311.787 31.8373C311.787 30.0628 310.353 28.6243 308.583 28.6243C306.813 28.6243 305.378 30.0628 305.378 31.8373C305.378 33.6117 306.813 35.0502 308.583 35.0502Z" fill="#FFCB3D"/>
<path d="M160.682 0H65.415C64.4496 0 63.667 0.782611 63.667 1.74801V73.9991C63.667 74.9645 64.4496 75.7471 65.415 75.7471H160.682C161.647 75.7471 162.43 74.9645 162.43 73.9991V1.74801C162.43 0.782611 161.647 0 160.682 0Z" fill="#F2F6FB"/>
<path d="M142.399 40.697H145.838C147.137 40.697 147.608 40.8322 148.082 41.0861C148.557 41.3401 148.93 41.7127 149.184 42.1874C149.438 42.6622 149.573 43.1331 149.573 44.4318V75.7471H138.664V44.4318C138.664 43.1331 138.799 42.6622 139.053 42.1874C139.307 41.7127 139.68 41.3401 140.154 41.0861C140.629 40.8322 141.1 40.697 142.399 40.697Z" fill="#D8DEED"/>
<path d="M129.932 49.0701H133.566C134.865 49.0701 135.336 49.2053 135.81 49.4592C136.285 49.7131 136.658 50.0857 136.912 50.5605C137.166 51.0352 137.301 51.5062 137.301 52.8048V75.7471H126.197V52.8048C126.197 51.5062 126.332 51.0352 126.586 50.5605C126.84 50.0857 127.213 49.7131 127.688 49.4592C128.162 49.2053 128.633 49.0701 129.932 49.0701Z" fill="#D8DEED"/>
<path d="M117.661 22.9772H121.1C122.398 22.9772 122.869 23.1125 123.344 23.3664C123.819 23.6203 124.191 23.9929 124.445 24.4676C124.699 24.9424 124.834 25.4133 124.834 26.712V75.7471H113.926V26.712C113.926 25.4133 114.061 24.9424 114.315 24.4676C114.569 23.9929 114.941 23.6203 115.416 23.3664C115.891 23.1125 116.362 22.9772 117.661 22.9772Z" fill="#E1E5F0"/>
<path d="M105.193 29.7926H108.632C109.931 29.7926 110.402 29.9278 110.876 30.1817C111.351 30.4356 111.724 30.8082 111.978 31.283C112.231 31.7578 112.367 32.2287 112.367 33.5273V75.7471H101.458V33.5273C101.458 32.2287 101.593 31.7578 101.847 31.283C102.101 30.8082 102.474 30.4356 102.948 30.1817C103.423 29.9278 103.894 29.7926 105.193 29.7926Z" fill="#D8DEED"/>
<path d="M92.9203 45.7596H96.3595C97.6581 45.7596 98.1291 45.8948 98.6038 46.1487C99.0786 46.4026 99.4512 46.7752 99.7051 47.25C99.959 47.7248 100.094 48.1957 100.094 49.4943V75.7469H89.1855V49.4943C89.1855 48.1957 89.3208 47.7248 89.5747 47.25C89.8286 46.7752 90.2012 46.4026 90.676 46.1487C91.1507 45.8948 91.6216 45.7596 92.9203 45.7596Z" fill="#D8DEED"/>
<path d="M80.4535 37.7761H83.8927C85.1913 37.7761 85.6623 37.9113 86.137 38.1652C86.6118 38.4192 86.9844 38.7918 87.2383 39.2665C87.4922 39.7413 87.6274 40.2122 87.6274 41.5109V75.747H76.7188V41.5109C76.7188 40.2122 76.854 39.7413 77.1079 39.2665C77.3618 38.7918 77.7344 38.4192 78.2092 38.1652C78.6839 37.9113 79.1548 37.7761 80.4535 37.7761Z" fill="#D8DEED"/>
<path d="M410.56 229.751V229.805C410.56 230.504 409.948 231.087 409.249 231.087H387.253L395.003 245.304C400.538 255.443 406.044 265.552 411.551 275.69L420.669 292.413C420.99 292.996 420.728 293.753 420.116 294.103L419.999 294.161C419.387 294.511 418.601 294.307 418.31 293.753L384.194 231.087H361.47L327.355 293.753C327.063 294.307 326.277 294.481 325.665 294.161L325.548 294.103C324.937 293.753 324.674 292.996 324.995 292.413L334.114 275.69C339.649 265.552 345.155 255.443 350.662 245.304L358.411 231.087H329.248C328.52 231.087 327.937 230.504 327.937 229.805V229.659C327.937 228.96 328.549 228.378 329.248 228.378H349.059C361.965 228.378 374.901 228.378 387.836 228.378H407.988L410.443 208.509C412.133 194.991 413.794 181.443 415.484 167.896L418.251 145.522C418.339 144.735 419.009 144.153 419.737 144.24L419.883 144.269C420.582 144.357 421.077 145.085 420.99 145.813L410.589 229.601C410.582 229.652 410.572 229.702 410.56 229.751Z" fill="#D8DEED"/>
<path d="M128.474 181.359C128.184 181.872 127.633 182.219 127.002 182.219H85.1372C84.2049 182.219 83.4766 181.461 83.4766 180.529C83.4766 179.596 84.234 178.839 85.1372 178.839H125.859L140.054 140.645C140.374 139.771 141.336 139.334 142.21 139.654C143.084 139.975 143.521 140.936 143.2 141.81L128.604 181.082C128.569 181.18 128.525 181.272 128.474 181.359Z" fill="#474961"/>
<path d="M10.44 229.459V229.514C10.44 230.213 11.0518 230.796 11.751 230.796H33.7472L25.9973 245.013C20.4619 255.151 14.9557 265.261 9.44945 275.399L0.330666 292.122C0.0101929 292.704 0.272392 293.462 0.884201 293.811L1.00073 293.87C1.61253 294.219 2.39915 294.015 2.69048 293.462L36.8058 230.796H59.5299L93.6453 293.462C93.9366 294.015 94.7232 294.19 95.335 293.87L95.4516 293.811C96.0634 293.462 96.3256 292.704 96.0051 292.122L86.8863 275.399C81.3509 265.261 75.8447 255.151 70.3385 245.013L62.5885 230.796H91.7516C92.4799 230.796 93.0626 230.213 93.0626 229.514V229.368C93.0626 228.669 92.4508 228.086 91.7516 228.086H71.9408C59.0347 228.086 46.0994 228.086 33.1641 228.086H13.0122L10.5565 208.217C8.86678 194.699 7.20617 181.152 5.51643 167.605L2.74874 145.231C2.66134 144.444 1.99126 143.861 1.26293 143.949L1.11726 143.978C0.41806 144.065 -0.0772095 144.794 0.0101929 145.522L10.4109 229.31C10.4184 229.361 10.4282 229.411 10.44 229.459Z" fill="#D8DEED"/>
<path d="M187.019 230.97H163.974C163.275 230.97 162.663 230.388 162.663 229.688V229.543C162.663 228.843 163.275 228.261 164.032 228.261H185.387C198.322 228.261 211.257 228.261 224.164 228.261H243.974C244.674 228.261 245.285 228.843 245.285 229.543V229.688C245.285 230.388 244.703 230.97 243.974 230.97H215.86L223.61 245.187C229.116 255.326 234.623 265.435 240.158 275.574L249.277 292.296C249.597 292.879 249.335 293.636 248.723 293.986L248.607 294.044C247.995 294.365 247.208 294.19 246.917 293.636L212.802 230.97H190.077L155.962 293.636C155.671 294.19 154.884 294.394 154.272 294.044L154.156 293.986C153.544 293.636 153.282 292.879 153.602 292.296L162.721 275.574C168.227 265.435 173.734 255.326 179.269 245.187L187.019 230.97ZM162.75 219.554V202.614C162.75 189.695 162.75 176.806 162.75 163.916V148.522C162.75 146.109 164.707 144.152 167.12 144.152H214.666C217.08 144.152 219.036 146.109 219.036 148.522V219.604C219.036 222.017 217.08 223.974 214.666 223.974C214.665 223.974 214.663 223.974 214.662 223.974L167.116 223.924C164.704 223.921 162.75 221.965 162.75 219.554Z" fill="#D8DEED"/>
<path d="M256.444 294.248H210.151C209.422 294.248 208.84 293.666 208.84 292.937C208.84 292.209 209.422 291.626 210.151 291.626H256.444C257.172 291.626 257.755 292.209 257.755 292.937C257.755 293.666 257.172 294.248 256.444 294.248ZM171.607 294.248C170.879 294.248 170.296 293.744 170.296 293.139V292.736C170.296 292.13 170.908 291.626 171.607 291.626H201.469C202.197 291.626 202.78 292.13 202.78 292.736V293.139C202.78 293.744 202.168 294.248 201.469 294.248H171.607Z" fill="#A339FF"/>
<path d="M256.902 291.707C256.76 291.655 256.606 291.626 256.444 291.626H210.151C209.94 291.626 209.741 291.675 209.565 291.762C209.529 291.636 209.51 291.503 209.51 291.364L210.53 275.253C210.471 274.379 211.141 273.709 211.986 273.68L230.544 273.563C230.865 273.563 231.156 273.651 231.418 273.855C234.739 277.409 237.915 279.39 240.217 280.556C241.994 281.459 247.937 283.964 250.617 285.188C251.987 285.8 253.298 286.528 254.579 287.314C254.667 287.373 254.725 287.402 254.812 287.489C255.483 288.101 256.502 289.208 256.881 290.519C256.939 290.694 256.939 290.84 256.968 291.014C256.997 291.16 256.968 291.306 256.968 291.451V291.481C256.952 291.559 256.93 291.635 256.902 291.707ZM201.637 291.635C201.582 291.629 201.526 291.626 201.469 291.626H171.607C171.606 291.626 171.605 291.626 171.604 291.626L178.366 273.593L199.226 276.419L201.637 291.635Z" fill="#474961"/>
<path d="M209.052 223.314C208.045 224.045 207.166 224.681 206.417 225.222L206.042 231.408C205.868 234.679 205.664 237.552 205.431 240.084C205.256 242.075 203.012 264.632 202.197 272.91C202.022 274.787 200.769 276.38 199.05 276.892C196.457 277.689 176.996 276.779 176.268 276.437C175.336 276.01 174.84 275.811 174.345 275.328C172.597 273.678 172.714 271.061 172.684 270.094C172.51 262.783 171.985 240.795 171.985 225.406C171.985 225.355 171.985 225.305 171.985 225.254C170.064 223.606 168.367 221.126 167.037 218.047C165.016 213.395 163.782 207.344 163.748 200.777C163.748 200.696 163.748 196.744 163.748 188.92C163.748 188.889 163.748 188.889 163.748 188.859C163.782 186.7 165.838 184.998 168.27 184.998H195.164C198.899 185.119 202.599 185.241 206.333 185.363C212.145 185.516 220.415 185.742 231.141 186.04C235.335 186.156 239.124 188.574 240.995 192.33C241.887 194.119 242.429 195.589 242.621 196.742C243.774 198.779 244.412 201.159 244.353 203.694C244.353 203.751 244.353 203.78 244.353 203.836C243.887 227.195 238.439 260.471 238.06 271.724C238.031 272.15 237.914 273.088 237.303 274.082C235.409 277.123 230.981 276.441 220.638 276.697C211.84 276.924 208.286 277.606 206.479 275.105C205.489 273.741 205.518 272.178 205.547 271.468C206.364 255.292 207.604 238.943 209.052 223.314Z" fill="#474BFF"/>
<path opacity="0.176986" d="M209.043 223.421C208.033 224.154 207.155 224.789 206.411 225.326L207.529 206.859C207.558 205.579 207.703 197.842 201.906 192.921C197.682 189.365 192.554 189.138 189.145 188.996C183.901 188.768 179.823 190.247 179.036 190.532C178.046 190.901 177.55 191.101 177.055 191.357C171.403 194.315 171.84 208.538 171.898 211.126C171.956 214.347 171.985 219.333 171.986 225.134C170.122 223.486 168.473 221.052 167.176 218.047C165.154 213.395 163.921 207.344 163.887 200.777C163.887 200.696 163.887 196.744 163.887 188.92C163.887 188.889 163.887 188.889 163.887 188.859C163.921 186.7 165.977 184.998 168.409 184.998H195.303C199.037 185.119 202.737 185.241 206.472 185.363C212.284 185.516 220.553 185.742 231.28 186.04C235.474 186.156 239.263 188.574 241.134 192.33C242.115 194.299 242.673 195.883 242.807 197.081C240.587 192.879 236.211 190.043 231.185 190.14C228.738 190.196 226.32 190.253 223.873 190.31C217.318 190.481 211.87 195.567 211.17 202.217C210.431 209.071 209.714 216.169 209.043 223.421Z" fill="#444444"/>
<path d="M201.665 124.683C203.944 124.725 207.531 125.156 211.075 127.216C211.685 127.564 212.587 128.146 213.576 128.988C214.419 129.715 216.892 132.127 219.248 138.928C220.091 141.311 222.563 145.961 223.988 148.519C224.454 149.362 223.901 150.408 222.912 150.495C219.795 150.719 215.95 151.998 212.317 152.005C212.616 157.442 212.827 163.926 212.907 171.159C212.907 171.159 213.372 179.767 210.697 182.557C210.233 183.048 201.544 182.537 192.315 182.83C182.417 183.144 171.874 184.164 169.42 181.592C165.453 177.434 167.721 176.307 171.362 152.616C170.792 152.675 170.261 152.727 169.788 152.77C166.11 153.12 158.408 152.887 154.701 152.741C153.717 152.712 153.08 151.605 153.485 150.673C154.701 147.847 156.844 142.749 157.481 140.157C159.306 132.758 161.593 130.049 162.375 129.233C163.273 128.301 164.173 127.667 164.721 127.223C166.554 125.737 172.336 124.664 182.066 124.005C186.259 122.577 191.047 122.987 194.147 123.263C196.314 123.46 199.047 123.703 201.665 124.683Z" fill="#A339FF"/>
<path opacity="0.176986" d="M201.761 124.691C204.051 124.766 207.486 125.248 210.881 127.223C211.493 127.572 212.396 128.155 213.386 129C214.231 129.728 216.708 132.146 219.067 138.963C219.912 141.352 222.563 145.95 223.991 148.514C224.457 149.359 223.903 150.408 222.913 150.495C222.003 150.561 220.977 150.751 220.003 150.912C219.617 150.975 218.551 151.099 218.076 151.199C215.78 151.684 214.442 152.005 212.302 152.005C212.291 152.005 212.28 152.005 212.269 152.005C211.808 143.622 211.137 137.726 210.414 135.414C209.918 133.841 209.2 132.035 209.2 132.035C208.851 131.015 208.287 129.966 207.151 128.539C205.619 126.636 203.726 125.452 201.761 124.691ZM194.903 127.798C194.379 130.886 193.418 131.798 193.418 131.798C191.203 130.516 183.308 126.516 184.037 124.331C184.095 124.185 184.211 123.894 184.969 123.428C187.824 121.68 191.32 122.525 192.544 122.874C192.544 122.874 198.166 122.233 199.244 125.525C200.322 128.817 199.04 131.148 199.04 131.148C198.108 130.585 196.729 129.468 194.903 127.798Z" fill="#444444"/>
<path d="M212.871 175.487L212.301 152.006L220.021 150.912L222.379 179.705C222.582 179.81 222.778 179.914 222.969 180.016C224.638 180.91 226.022 182.539 227.119 184.902C227.175 185.022 227.203 185.152 227.201 185.283C227.194 185.766 226.797 186.151 226.314 186.144L164.963 185.256C150.317 182.352 154.301 162.486 157.169 152.834C161.194 152.96 166.88 153.061 169.888 152.776C172.731 152.518 177.668 151.948 180.571 151.513L175.365 167.11C189.344 167.804 203.072 171.698 212.871 175.487ZM196.531 120.978L196.4 126.352C190.827 128.408 186.873 125.245 186.873 125.245C186.873 125.245 187.082 121.24 187.501 113.229C187.433 113.084 187.367 112.931 187.304 112.769C186.779 111.458 184.892 107.153 185.3 105.668C185.374 105.354 183.818 100.684 186.097 98.3291C188.262 96.0924 194.265 96.1556 194.506 96.1698C195.526 96.199 196.545 96.1698 197.652 95.9368C197.769 95.9368 197.885 95.9076 198.002 95.9076C198.993 95.8202 204.557 95.558 207.412 99.695C207.674 100.045 207.907 100.423 208.111 100.889C208.548 101.967 208.752 103.133 208.665 104.298L208.257 109.484C208.199 110.008 208.111 110.533 207.995 111.028C207.15 114.699 205.781 117.699 204.324 119.593C203.246 121.021 202.081 121.836 201.061 121.866C200.77 121.895 199.197 121.866 197.361 121.312C197.242 121.272 197.272 121.3 196.531 120.978Z" fill="#F2A98A"/>
<path d="M181.301 151.464C181.205 151.686 180.947 151.787 180.726 151.691C180.505 151.595 180.403 151.337 180.499 151.116C181.063 149.819 181.29 149.094 181.727 147.201C181.781 146.965 182.016 146.819 182.251 146.873C182.486 146.927 182.633 147.162 182.579 147.397C182.13 149.339 181.888 150.114 181.301 151.464ZM175.673 166.5C175.914 166.477 176.127 166.654 176.149 166.894C176.172 167.134 175.996 167.347 175.755 167.37C175.699 167.375 175.588 167.388 175.43 167.409C175.165 167.444 174.869 167.491 174.55 167.551C173.639 167.72 172.729 167.957 171.883 168.27C171.384 168.455 170.923 168.662 170.506 168.891C170.295 169.007 170.029 168.93 169.913 168.719C169.796 168.507 169.873 168.242 170.085 168.125C170.541 167.874 171.042 167.65 171.58 167.451C172.477 167.118 173.433 166.87 174.39 166.691C174.724 166.629 175.035 166.58 175.314 166.543C175.412 166.529 175.5 166.519 175.576 166.51C175.622 166.505 175.655 166.502 175.673 166.5Z" fill="#482D1F"/>
<path opacity="0.2" d="M222.329 179.734C219.924 178.478 216.678 176.999 212.818 175.503L212.248 152.005L219.967 150.911L222.329 179.734Z" fill="#8C2A00"/>
<path d="M196.539 120.987L196.458 123.963L192.436 119.137C192.493 119.165 192.552 119.194 192.612 119.223C193.195 119.514 193.923 119.835 194.855 120.243C195.672 120.607 196.196 120.838 196.539 120.987Z" fill="#482D1F"/>
<path d="M193.308 107.131L193.282 106.57C193.282 106.57 193.166 105.522 192.437 104.473C192.379 104.415 191.884 103.774 191.126 103.453C189.757 102.929 187.951 103.541 186.96 104.793C185.911 106.075 185.911 107.794 186.465 109.105C187.018 110.416 188.096 111.028 188.475 111.203L190.165 111.727L190.172 111.724C188.696 113.889 187.41 115.776 187.41 115.776C187.41 115.776 184.979 113.533 183.901 111.756C183.377 110.882 181.512 108.755 181.192 105.405C181.104 104.298 180.755 100.54 183.26 97.7721C184.134 96.8107 185.125 96.3446 185.533 96.1406C187.834 95.121 189.524 95.7328 193.952 95.8202C194.302 95.8202 194.885 95.8493 195.642 95.8202C197.011 95.791 197.973 95.7328 198.235 95.7328C200.42 95.6454 205.169 96.3154 207.266 99.5493C207.383 99.7823 207.529 99.9863 207.645 100.161C207.033 100.365 206.363 100.744 205.547 100.889C203.333 101.239 201.44 100.802 200.303 100.394C198.089 102.492 195.846 104.56 193.632 106.658C193.531 106.806 193.422 106.964 193.308 107.131Z" fill="#DE6903"/>
<path d="M206.575 110.395C206.662 110.046 207.012 109.783 207.362 109.842C207.595 109.871 207.769 110.046 207.857 110.453C207.944 111.473 206.837 112.755 206.517 112.143C206.313 111.735 206.488 110.89 206.575 110.395ZM200.42 109.6C200.508 109.251 200.857 108.989 201.207 109.047C201.44 109.076 201.615 109.251 201.702 109.659C201.789 110.678 200.682 111.96 200.362 111.348C200.129 110.941 200.304 110.096 200.42 109.6Z" fill="#482D1F"/>
<path d="M204.586 110.594L204.615 113.507C204.615 113.518 204.571 113.563 204.557 113.563C204.397 113.563 204.235 113.552 203.98 113.528C203.931 113.523 203.879 113.518 203.805 113.51C203.711 113.5 203.66 113.495 203.611 113.49C203.443 113.473 203.303 113.46 203.154 113.447C202.994 113.433 202.853 113.552 202.839 113.712C202.825 113.872 202.944 114.014 203.104 114.028C203.25 114.04 203.387 114.053 203.553 114.07C203.601 114.075 203.652 114.08 203.746 114.09C203.821 114.097 203.874 114.103 203.924 114.107C204.195 114.134 204.375 114.145 204.557 114.145C204.893 114.145 205.198 113.84 205.198 113.504L205.169 110.588C205.167 110.427 205.035 110.298 204.874 110.3C204.713 110.301 204.584 110.433 204.586 110.594Z" fill="#482D1F"/>
<path d="M202.547 115.689C202.343 115.602 201.848 115.369 201.819 115.077C201.819 115.019 201.79 114.932 201.848 114.902C201.994 114.757 202.343 114.902 202.868 115.048C203.8 115.281 204.557 115.339 204.557 115.339C204.557 115.339 204.266 115.806 204.091 115.922C203.742 116.243 202.838 115.835 202.547 115.689Z" fill="#482D1F"/>
<path d="M203.84 110.913C203.376 112.689 201.76 113.999 199.838 113.999C197.553 113.999 195.701 112.147 195.701 109.862C195.701 109.356 195.792 108.87 195.959 108.422L193.649 107.427C193.419 107.356 193.29 107.111 193.362 106.88C193.433 106.65 193.678 106.521 193.909 106.593L196.346 107.643C197.081 106.49 198.37 105.725 199.838 105.725C202.123 105.725 203.975 107.578 203.975 109.862C203.975 109.924 203.974 109.986 203.971 110.047L204.88 110.141C205.274 108.268 206.937 106.862 208.928 106.862C211.212 106.862 213.065 108.714 213.065 110.998C213.065 113.283 211.212 115.135 208.928 115.135C206.647 115.135 204.797 113.29 204.791 111.011L203.84 110.913ZM196.879 108.484C196.684 108.903 196.575 109.37 196.575 109.862C196.575 111.664 198.036 113.125 199.838 113.125C201.64 113.125 203.101 111.664 203.101 109.862C203.101 108.06 201.64 106.599 199.838 106.599C198.601 106.599 197.524 107.288 196.971 108.303C196.969 108.312 196.966 108.322 196.963 108.331C196.945 108.389 196.916 108.441 196.879 108.484ZM205.674 110.75C205.668 110.832 205.665 110.915 205.665 110.998C205.665 112.801 207.126 114.261 208.928 114.261C210.73 114.261 212.191 112.801 212.191 110.998C212.191 109.196 210.73 107.736 208.928 107.736C207.269 107.736 205.899 108.974 205.692 110.576C205.695 110.605 205.695 110.635 205.691 110.665C205.688 110.694 205.682 110.723 205.674 110.75Z" fill="#482D1F"/>
<path d="M57.8381 293.986C57.8092 293.968 57.7809 293.949 57.7532 293.928L28.5032 272.136C27.9205 271.699 27.804 270.854 28.241 270.271C28.678 269.689 29.5228 269.572 30.1055 270.009L59.0427 291.568H74.7963C75.5246 291.568 76.1364 292.18 76.1364 292.908C76.1364 293.636 75.5246 294.248 74.7963 294.248H58.6272C58.3309 294.248 58.0587 294.152 57.8381 293.986ZM150.98 294.248H104.687C103.959 294.248 103.376 293.666 103.376 292.937C103.376 292.209 103.959 291.626 104.687 291.626H150.98C151.709 291.626 152.291 292.209 152.291 292.937C152.291 293.666 151.709 294.248 150.98 294.248Z" fill="#DE3190"/>
<path d="M151.274 291.731C151.138 291.684 150.99 291.658 150.836 291.658H104.543C104.421 291.658 104.303 291.674 104.191 291.705C104.098 291.514 104.046 291.3 104.046 291.073L103.609 274.962C103.551 274.088 104.221 273.418 105.065 273.389L125.08 273.272C125.401 273.272 125.692 273.36 125.954 273.563C129.275 277.118 132.451 279.099 134.753 280.264C136.53 281.167 142.473 283.673 145.153 284.896C146.522 285.508 147.833 286.237 149.115 287.023C149.203 287.081 149.261 287.111 149.348 287.198C150.018 287.81 151.038 288.917 151.417 290.228C151.475 290.403 151.475 290.548 151.504 290.723C151.533 290.869 151.504 291.014 151.504 291.16V291.189C151.463 291.389 151.383 291.572 151.274 291.731ZM75.2417 291.74C75.0629 291.65 74.8624 291.599 74.6523 291.599H58.8987L30.0713 270.122L40.9426 254.714L58.481 267.445C59.4424 270.708 60.4329 273.971 61.4235 277.263C61.9479 278.982 62.4723 280.672 62.9967 282.362C64.6282 283.003 66.0266 283.585 67.0171 284.022C68.9108 284.838 70.5131 285.596 72.2611 286.732C72.2611 286.732 73.7761 287.664 74.621 289.004C74.8832 289.441 75.1162 289.936 75.2619 290.461C75.3202 290.694 75.3202 290.927 75.3493 291.131C75.3402 291.322 75.2969 291.536 75.2417 291.74Z" fill="#474961"/>
<path d="M112.13 185.986L120.087 185.882C122.476 185.736 125.476 187.222 127.72 188.911C128.186 189.261 128.594 189.64 128.972 190.048C129.322 190.426 129.672 190.834 129.963 191.271C131.245 193.107 131.915 195.292 131.886 197.535C131.828 202.4 131.245 206.188 130.866 207.44C128.39 215.102 122.039 243.857 128.419 256.297C128.419 256.297 131.653 262.561 130.953 267.251C130.684 269.136 129.648 271.342 129.324 271.998C129.332 272.008 129.339 272.018 129.347 272.028C126.912 275.54 96.6652 280.701 73.4267 273.068C70.2526 272.026 65.6189 270.825 60.3166 268.465C60.0835 268.378 59.8505 268.261 59.6465 268.116C56.0631 265.814 52.4797 263.542 48.8963 261.24L39.894 255.472C38.1751 254.365 37.6799 252.15 38.7869 250.548L46.0994 239.885L50.4695 233.505C51.6931 231.699 52.9749 229.834 54.286 227.94C54.9098 227.96 53.7833 227.912 50.9065 227.795C40.8773 227.387 27.8036 225.464 22.8509 217.511C20.3454 213.461 19.9084 209.208 19.7045 207.256C18.5683 195.864 24.2515 189.997 26.1139 188.144C27.3554 186.909 30.4814 184.927 35.4917 182.199L68.1108 184.124L99.5886 185.289C99.6419 185.262 106.178 184.782 112.13 185.986Z" fill="#FFCB3D"/>
<path opacity="0.2" d="M112.028 185.987L120.086 185.882C122.475 185.736 125.476 187.222 127.719 188.912C128.186 189.261 128.593 189.64 128.972 190.048C129.322 190.427 129.671 190.834 129.963 191.271C131.245 193.107 131.915 195.292 131.886 197.535C131.827 202.4 131.245 206.188 130.866 207.44C128.39 215.103 122.038 243.857 128.419 256.297C128.419 256.297 131.652 262.561 130.953 267.252C130.68 269.166 129.616 271.411 129.309 272.028C126.684 268.516 116.293 252.488 120.41 225.087C120.527 224.388 123.082 209.284 123.082 205.118C123.082 190.072 119.438 187.931 113.118 186.252C112.759 186.157 112.395 186.069 112.028 185.987Z" fill="#8C2A00"/>
<path d="M67.6667 208.479C66.2293 210.653 64.7155 212.765 61.0399 217.793C57.352 222.838 55.8335 224.957 54.3818 227.153C54.2044 227.422 54.2781 227.783 54.5466 227.961C54.815 228.138 55.1765 228.064 55.3539 227.796C56.7914 225.622 58.3052 223.509 61.9807 218.481C65.6687 213.436 67.1872 211.317 68.6388 209.121C68.8163 208.853 68.7425 208.491 68.4741 208.314C68.2057 208.136 67.8442 208.21 67.6667 208.479Z" fill="#482D1F"/>
<path d="M52.9339 129.09C55.2067 128.936 58.1244 129.357 60.6375 131.776C63.0848 134.106 61.9194 136.146 65.5902 142.38C67.4256 145.468 69.1737 147.508 68.5327 149.43C68.2996 150.149 67.6102 150.819 66.4642 151.441C63.9199 151.771 62.3564 151.965 61.7737 152.023C61.6168 152.038 61.4372 152.055 61.2524 152.074L60.7832 160.293L60.7541 160.584L59.9383 175.063L59.7635 177.889C59.7635 178.122 59.7344 178.326 59.7053 178.559C59.6761 178.822 59.647 179.055 59.6179 179.317C59.5305 179.987 59.3848 180.628 59.21 181.269C59.1226 181.531 59.0643 181.793 58.9478 182.055L29.1734 181.822L25.9842 152.074C23.6234 151.993 21.1127 151.907 18.4522 151.815C17.0344 151.29 16.1798 150.679 15.8885 149.979C15.1019 148.086 17.316 145.872 19.6176 142.55C24.2498 135.908 22.8223 133.956 25.8521 131.363C29.8677 127.925 33.9631 127.412 36.7378 127.6C36.7994 127.582 36.861 127.564 36.9229 127.547C38.3795 127.139 39.9528 126.964 41.5551 127.051L47.9645 127.459C49.7317 127.554 51.4036 128.143 52.9339 129.09Z" fill="#DE3190"/>
<path opacity="0.176986" d="M52.8291 129.097C55.1166 128.923 58.086 129.319 60.6383 131.775C63.0856 134.106 61.9202 136.145 65.591 142.38C67.4264 145.468 69.1745 147.508 68.5335 149.43C68.3004 150.149 67.611 150.819 66.465 151.441C63.9207 151.771 62.3572 151.965 61.7745 152.023C61.5808 152.041 61.3526 152.064 61.1226 152.087L61.5577 144.466C61.0625 138.96 58.12 133.046 53.8665 129.812C53.5287 129.556 53.1827 129.317 52.8291 129.097Z" fill="#444444"/>
<path d="M60.148 169.031L60.6243 160.577L60.6534 160.286L61.1243 152.038L65.9609 151.446L67.466 169.657C70.6763 169.92 73.9065 170.168 77.1559 170.402C80.681 170.664 84.2062 170.898 87.6731 171.101C88.1516 170.822 92.1442 170.455 96.7444 171.101C98.1584 171.3 100.233 171.881 102.968 172.843C108.154 174.361 111.634 175.439 113.407 176.077C116.068 177.034 113.407 178.822 109.698 178.822C108.952 178.822 98.3205 179.213 95.231 179.648C95.2834 179.64 95.338 179.633 95.3947 179.626L97.2155 180.12C98.153 180.35 99.0481 180.698 99.9252 181.192C100.707 181.631 101.489 182.07 102.272 182.509C102.486 182.647 102.679 182.874 102.782 183.162C103.115 184.025 103.015 185.584 102.272 185.581L57.1023 184.193C57.8602 184.137 58.6169 184.078 59.3733 184.017C52.4319 184.528 45.4754 184.844 37.5926 184.794C32.9895 184.765 31.8241 184.619 30.4257 183.891C24.4242 180.774 23.2589 171.742 22.2975 163.847C21.9012 160.787 21.6048 156.762 21.7978 151.973C31.06 152.293 38.3084 152.539 43.5431 152.712C43.5414 152.948 43.5389 153.173 43.5358 153.388C43.5067 156.418 43.4193 159.215 43.6815 163.352C43.798 165.071 43.8271 166.498 43.8854 167.431C49.2434 168.007 54.6654 168.54 60.148 169.031ZM50.5588 125.868L50.1623 127.405C51.5257 127.917 52.7085 128.873 53.9947 129.848C53.8199 130.606 53.4995 131.13 53.1207 131.509C50.8192 133.811 43.4581 131.859 36.3204 127.489C36.9082 127.324 38.4942 126.677 41.3217 126.6C41.5496 126.594 41.8164 126.594 42.1222 126.6C42.8029 125.192 43.4565 123.92 44.1705 122.346C44.1597 122.339 44.1519 122.335 44.1476 122.332L44.876 117.03C44.8468 116.709 44.9342 116.971 44.6429 116.855C43.9145 116.593 43.2736 116.097 42.7783 115.456C41.9335 114.291 41.7587 112.66 42.3413 111.203C43.0114 109.834 44.6138 108.843 46.0122 109.076C46.5366 109.164 47.0027 109.397 47.4397 109.746L47.4688 109.775C47.6145 109.921 47.8184 109.979 47.9932 110.008C48.4885 110.038 48.9255 109.717 48.9838 109.222L49.7995 101.647C49.8286 101.152 49.5371 100.938 50.0324 100.968C50.751 101.026 51.9392 101.026 53.5968 100.968C53.7425 100.968 54.8663 100.968 54.9828 100.968C55.679 101.084 61.0159 100.802 63.7253 105.172C63.9584 105.609 64.1915 106.017 64.3663 106.454C64.8033 107.532 64.9489 108.727 64.8033 109.921L64.1041 115.194C64.0167 115.719 63.9001 116.243 63.7545 116.767C61.8899 123.206 58.5978 127.518 56.0924 127.489C54.8105 127.43 53.5286 127.197 52.3341 126.731C52.1774 126.653 52.2783 126.715 50.5588 125.868Z" fill="#DB9E75"/>
<path opacity="0.2" d="M60.0062 169.184L60.4884 160.626L60.5175 160.334L60.9891 152.073L65.9609 151.446L67.3547 169.814C64.8934 169.612 62.4438 169.403 60.0062 169.184ZM95.3849 179.658L97.0381 180.105C97.9756 180.334 98.9021 180.637 99.7791 181.131C100.561 181.571 101.489 182.07 102.272 182.509C102.486 182.647 102.679 182.874 102.782 183.162C103.115 184.025 103.015 185.584 102.272 185.581L56.9902 184.239C63.0673 183.789 69.0586 183.177 75.5699 182.557C77.5801 182.383 94.1179 180.081 95.0502 179.702C95.1531 179.688 95.2649 179.673 95.3849 179.658Z" fill="#8C2A00"/>
<path d="M40.2009 168.157C39.9608 168.181 39.7464 168.006 39.722 167.766C39.6976 167.526 39.8725 167.312 40.1126 167.287L43.8417 166.909C44.0818 166.884 44.2962 167.059 44.3206 167.299C44.345 167.539 44.1701 167.754 43.93 167.778L40.2009 168.157ZM43.4332 152.887C43.1953 152.846 43.0356 152.62 43.0764 152.382C43.1173 152.144 43.3432 151.984 43.5811 152.025C43.5907 152.027 43.6175 152.031 43.6592 152.035C44.036 152.071 44.4724 152.033 44.8744 151.868C45.6062 151.567 46.0644 150.904 46.1298 149.694C46.2142 148.133 46.1501 146.892 45.9935 145.948C45.9564 145.725 45.9171 145.538 45.8783 145.388C45.8564 145.302 45.8406 145.251 45.8337 145.231C45.7532 145.004 45.8723 144.754 46.0998 144.673C46.3273 144.593 46.577 144.712 46.6576 144.939C46.7109 145.09 46.7844 145.376 46.8557 145.805C47.023 146.812 47.0903 148.118 47.0025 149.741C46.9191 151.284 46.2544 152.245 45.2072 152.676C44.6531 152.904 44.0814 152.954 43.5749 152.905C43.5112 152.898 43.4632 152.892 43.4332 152.887Z" fill="#482D1F"/>
<path d="M50.6736 125.74L47.6729 124.429L49.7996 128.77L50.6736 125.74Z" fill="#482D1F"/>
<path d="M49.5557 114.501L48.7517 111.64C48.4895 110.94 48.0525 110.329 47.499 109.833C47.0619 109.484 46.5958 109.251 46.0714 109.163C44.673 108.93 43.0707 109.921 42.4006 111.29C41.7596 112.659 41.9053 114.291 42.8376 115.456C43.4096 116.228 44.2061 116.776 45.1446 117.016C44.739 119.274 44.1486 122.39 44.1486 122.39C44.1486 122.39 43.4327 122.058 42.001 121.393C38.5338 119.455 36.6499 115.839 36.3493 110.545C30.7058 112.719 25.3122 111.202 23.2016 107.969C21.5993 105.492 21.9518 102.193 22.0654 101.734C23.2016 97.1498 27.1055 96.4611 27.1055 96.4611C27.1055 96.4611 32.7283 93.5769 38.7298 102.375C38.7524 102.409 38.7751 102.442 38.7978 102.476C39.4515 101.801 40.2587 101.308 41.1187 100.948C43.5368 99.9571 45.2557 100.656 49.8588 100.86C50.791 100.919 52.1894 100.948 53.9375 100.889C54.0831 100.889 54.1997 100.889 54.3162 100.889C55.365 100.86 61.036 100.831 63.7454 105.201C63.7163 105.288 63.6755 105.37 63.6098 105.492C63.6098 105.492 57.984 115.207 49.5557 114.501ZM60.6964 113.621C60.1138 113.679 59.1524 113.708 58.3949 113.388C57.0839 112.892 58.4823 112.281 59.7059 112.397C60.2886 112.426 60.6964 112.747 60.9586 113.009C61.1334 113.242 60.9878 113.592 60.6964 113.621ZM65.62 114.233C65.0082 114.349 64.105 114.466 63.2893 114.203C61.92 113.825 63.231 113.067 64.4838 113.096C65.1247 113.125 65.5326 113.359 65.8239 113.621C66.0279 113.825 65.9113 114.174 65.62 114.233Z" fill="#482D1F"/>
<path d="M62.9979 117.262C62.7939 116.884 62.9979 116.097 63.1435 115.602C63.2309 115.252 63.6097 115.048 63.9301 115.107C64.1341 115.165 64.3671 115.311 64.3671 115.718C64.4254 116.709 63.2601 117.903 62.9979 117.262ZM58.22 116.592C57.9869 116.214 58.22 115.427 58.3656 114.932C58.453 114.582 58.8318 114.378 59.1522 114.437C59.3562 114.495 59.5892 114.64 59.5892 115.048C59.6475 116.039 58.5113 117.233 58.22 116.592Z" fill="#482D1F"/>
<path d="M63.014 115.015C63.06 114.861 62.9723 114.698 62.8181 114.652C62.6639 114.607 62.5016 114.694 62.4556 114.848L61.9604 116.509L61.9519 116.546L61.4566 119.634C61.4548 119.645 61.4297 119.662 61.3776 119.654C61.0751 119.582 60.7239 119.495 60.3496 119.398C60.1938 119.358 60.0349 119.452 59.9947 119.608C59.9545 119.763 60.0482 119.922 60.2039 119.963C60.5822 120.06 60.9374 120.148 61.2697 120.226C61.6473 120.281 61.975 120.068 62.0317 119.728L62.5242 116.657L63.014 115.015Z" fill="#482D1F"/>
<path d="M50.6738 125.886L48.4014 124.75L49.3919 130.11L50.6738 125.886Z" fill="#482D1F"/>
<path d="M59.3554 122.244C59.1514 122.186 58.6562 122.011 58.5979 121.662C58.5979 121.603 58.5688 121.516 58.5979 121.458C58.6853 121.312 59.6176 121.458 59.6176 121.458C60.7829 121.662 61.1034 121.632 61.1616 121.807C61.1908 121.895 61.1616 122.011 60.8994 122.244C60.579 122.681 59.6467 122.361 59.3554 122.244Z" fill="#482D1F"/>
<path d="M317.842 291.918H358.032C358.76 291.918 359.343 292.5 359.343 293.229C359.343 293.957 358.76 294.54 358.032 294.54H311.739H277.653C276.924 294.54 276.342 293.957 276.342 293.229C276.342 292.5 276.924 291.918 277.653 291.918H317.842Z" fill="#FF5645"/>
<path d="M277.944 291.918H277.653C277.568 291.918 277.486 291.926 277.406 291.94C277.324 291.801 277.263 291.647 277.229 291.481V291.452C277.229 291.306 277.2 291.16 277.229 291.015C277.258 290.84 277.258 290.694 277.316 290.519C277.511 289.843 278.014 289.052 278.825 288.143C279.285 287.628 279.826 287.19 280.426 286.847C281.764 286.083 282.815 285.53 283.58 285.188C286.26 283.964 292.203 281.459 293.981 280.556C296.282 279.39 299.458 277.409 302.779 273.855C303.041 273.651 303.332 273.564 303.653 273.564L320.362 273.68C321.207 273.68 321.877 274.379 321.819 275.253L323.224 283.144C324.703 282.505 326.033 281.888 327.675 280.934C329.044 280.148 330.967 278.866 333.123 276.943C334.317 275.894 335.541 274.845 336.736 273.797L354.769 273.564L358.479 291.946C358.543 291.959 358.605 291.977 358.665 291.999L358.683 292.088C358.498 291.983 358.283 291.922 358.054 291.918C358.047 291.918 358.04 291.918 358.032 291.918H317.842H311.16H277.944Z" fill="#474961"/>
<path opacity="0.176986" d="M317.93 291.918H317.842H277.653C277.568 291.918 277.486 291.926 277.406 291.94C277.324 291.801 277.263 291.647 277.229 291.481V291.452C277.229 291.306 277.2 291.16 277.229 291.015C277.258 290.84 277.258 290.694 277.316 290.519C277.511 289.843 278.014 289.052 278.825 288.143C279.285 287.628 279.826 287.19 280.426 286.847C281.764 286.083 282.815 285.53 283.58 285.188C286.26 283.964 292.203 281.459 293.981 280.556C296.282 279.39 299.458 277.409 302.779 273.855C303.041 273.651 303.332 273.564 303.653 273.564L320.362 273.68C321.207 273.68 321.877 274.379 321.819 275.253L323.236 283.214C321.687 283.882 319.959 284.589 317.537 285.741C316.138 286.411 314.798 287.169 313.487 288.014C312.846 288.596 311.739 289.791 311.389 291.189C311.331 291.422 311.331 291.655 311.302 291.859C311.302 291.879 311.313 291.899 311.334 291.918H318.017H317.93ZM358.683 292.088C358.498 291.983 358.283 291.922 358.054 291.918L358.207 291.918C358.368 291.918 358.523 291.946 358.665 291.999L358.683 292.088Z" fill="#444444"/>
<path d="M316.725 186.211C317.227 186.132 317.701 186.106 318.149 186.134L371.434 185.93L395.848 185.872C396.839 185.93 401.018 187.209 401.979 188.303C402.911 188.798 408.871 194.961 407.88 206.411C407.706 208.334 407.327 212.616 404.88 216.695C402.316 220.948 398.004 224.066 392.731 225.843C388.07 227.416 382.622 227.97 376.97 227.358C365.025 225.202 353.109 223.075 341.165 220.919V221.356L341.223 221.56C341.223 221.56 342.68 224.299 343.932 227.125C345.185 229.922 346.933 243.148 346.933 243.236C349.788 247.78 352.672 253.928 354.887 261.677C355.761 264.794 356.227 267.242 356.402 268.174C356.753 270.173 357.033 272.588 357.24 275.417C357.243 275.46 357.245 275.502 357.245 275.545C357.245 276.51 356.462 277.293 355.497 277.293C355.213 277.293 354.991 277.293 354.828 277.293L328.929 277.263L320.963 277.224C320.697 277.294 320.418 277.332 320.131 277.332L298.864 277.244H297.145C295.455 277.244 294.028 275.904 293.94 274.215C293.736 270.806 293.474 266.319 293.154 261.134C292.28 248.053 291.813 243.887 291.289 233.806C291.202 232.117 291.114 230.602 291.056 229.174C290.823 222.386 290.211 216.035 289.017 207.732C288.347 203.129 288.026 200.274 287.997 197.856C287.968 195.612 288.638 193.398 289.92 191.563C290.561 190.66 291.289 189.873 292.163 189.203C294.406 187.484 296.013 186.315 301.641 186.231C306.095 186.165 311.246 186.186 316.725 186.211Z" fill="#3ABF7C"/>
<path opacity="0.176986" d="M316.881 186.188C316.809 186.198 316.737 186.209 316.664 186.221C314.624 186.571 312.323 187.765 310.545 189.135C309.671 189.805 308.914 190.591 308.302 191.495C307.02 193.301 306.35 195.457 306.35 197.671V197.816C306.379 200.235 306.7 203.09 307.341 207.693C308.535 215.996 309.147 222.318 309.38 229.135C309.438 230.533 309.526 232.077 309.613 233.767C310.108 243.818 310.604 247.984 311.478 261.094C311.827 266.28 312.09 270.738 312.264 274.175C312.352 275.865 313.779 277.205 315.469 277.205H317.188L320.869 277.224C320.631 277.279 320.385 277.308 320.131 277.308L298.864 277.221H297.145C295.455 277.221 294.028 275.88 293.94 274.191C293.736 270.782 293.474 266.295 293.154 261.11C292.28 248.029 291.814 243.863 291.289 233.782C291.202 232.093 291.114 230.578 291.056 229.15C290.823 222.362 290.211 216.011 289.017 207.708C288.347 203.105 288.026 200.25 287.997 197.832C287.968 195.588 288.638 193.374 289.92 191.539C290.561 190.636 291.289 189.849 292.163 189.179C294.406 187.46 296.013 186.291 301.641 186.207C306.137 186.141 311.345 186.162 316.881 186.188L316.881 186.188Z" fill="#444444"/>
<path d="M341.019 220.271C340.658 219.916 340.281 219.544 339.888 219.154C339.781 219.049 339.781 219.049 339.675 218.943C338.565 217.843 337.656 216.937 335.895 215.176C335.668 214.948 335.299 214.948 335.071 215.176C334.844 215.403 334.844 215.772 335.071 216C336.833 217.762 337.743 218.669 338.854 219.771C338.961 219.877 338.961 219.877 339.068 219.982C339.462 220.373 339.84 220.746 340.202 221.102C340.431 221.327 340.8 221.324 341.026 221.095C341.252 220.865 341.249 220.497 341.019 220.271Z" fill="#482D1F"/>
<path d="M379.266 125.757C380.981 125.175 382.851 124.901 384.792 125.004C392.513 125.383 398.456 131.53 398.077 138.726C397.891 142.244 396.217 145.362 393.651 147.576L400.102 171.159C401.093 174.888 400.743 178.676 399.287 181.939C399.083 182.405 398.85 182.871 398.616 183.308C398.354 183.774 398.063 184.24 397.772 184.677C397.451 185.143 397.102 185.609 396.723 186.046H364.996C364.734 185.609 364.472 185.172 364.239 184.677C364.006 184.24 363.802 183.774 363.627 183.308C363.452 182.871 363.307 182.405 363.161 181.939C363.132 181.851 363.103 181.764 363.074 181.676L354.826 152.927L348.807 153.589C348.282 153.648 347.787 153.298 347.729 152.803L347.467 150.764C347.456 150.672 347.46 150.583 347.477 150.498C346.488 149.897 345.582 149.175 344.816 148.345C343.709 147.151 342.864 145.753 342.368 144.15C340.387 137.799 344.786 131.011 352.186 129.03C355.165 128.233 358.181 128.327 360.851 129.139C361.983 128.352 363.224 127.747 364.559 127.372L370.94 125.478C373.877 125.042 376.703 125.143 379.266 125.757Z" fill="#FF5645"/>
<path opacity="0.176986" d="M354.782 152.931L348.807 153.589C348.282 153.648 347.787 153.298 347.729 152.803L347.467 150.764C347.456 150.672 347.46 150.583 347.477 150.498C346.488 149.897 345.582 149.176 344.816 148.345C343.709 147.151 342.864 145.753 342.368 144.15C340.387 137.799 344.786 131.011 352.186 129.03C355.181 128.228 358.214 128.328 360.896 129.153C354.868 133.284 351.877 142.545 353.869 149.751L354.782 152.931Z" fill="#444444"/>
<path d="M349.73 130.314C349.73 130.314 349.176 132.528 352.119 131.916C355.061 131.304 355.906 131.013 355.906 131.013L355.149 129.003L349.73 130.314Z" fill="#482D1F"/>
<path d="M359.875 124.53C359.779 124.556 359.684 124.58 359.59 124.603L359.889 124.559L359.875 124.53ZM367.673 119.83L368.405 119.534L371.93 125.623L366.119 127.444L371.814 154.495C371.814 154.495 372.298 152.542 372.918 149.022C372.947 149.032 372.977 149.04 373.008 149.047L389.119 152.63C389.187 152.645 389.255 152.653 389.322 152.654C388.758 154.904 388.157 157.61 387.517 160.409C385.856 167.634 385.594 170.984 382.943 175.762C379.913 181.21 377.116 181.356 376.009 181.764C373.533 182.725 371.056 182.579 369.512 182.201C367.66 181.752 364.266 181.029 361.386 175.794L363.074 181.676C363.103 181.764 363.132 181.851 363.161 181.938C363.307 182.405 363.453 182.871 363.627 183.308C363.802 183.774 364.006 184.24 364.239 184.677C364.472 185.172 364.734 185.609 364.997 186.046H368.729L320.375 186.107C320.24 186.107 320.115 186.061 320.016 185.984C311.997 181.138 308.025 177.439 308.101 174.887C310.526 174.517 313.988 174.011 318.487 173.366C321.282 172.966 324.12 172.974 326.913 173.391L335.694 174.7C342.264 172.594 351.031 169.828 353.22 169.352L349.461 153.517L354.826 152.926L357.349 161.72C355.875 151.308 356.256 140.459 354.924 130.014L351.857 130.081C350.051 130.809 346.264 132.033 345.856 129.44C345.856 129.44 350.867 127.371 354.392 125.856L354.654 125.623C354.887 125.419 355.091 125.303 355.383 125.216C355.441 125.186 355.499 125.186 355.557 125.186L356.956 124.982L357.152 124.954C356.687 124.977 356.364 124.965 356.247 124.953C353.813 124.779 350.974 120.321 349.699 113.883C349.583 113.358 349.554 112.834 349.496 112.309L349.265 107.094C349.207 105.929 349.438 104.764 349.989 103.744C350.221 103.307 350.452 102.899 350.713 102.579C353.697 98.5584 359.202 98.9954 360.187 99.1119C360.303 99.1119 360.419 99.141 360.535 99.141C361.636 99.4032 362.621 99.4906 363.664 99.4615C364.127 99.4615 364.504 99.8402 364.533 100.306L364.678 107.765C364.707 108.464 368.241 107.124 368.241 107.094C369.938 105.813 372.065 112.717 371.196 113.737C370.559 114.436 368.763 115.427 368.241 115.601C367.922 115.718 367.691 115.98 367.633 116.272C367.831 117.747 367.845 118.933 367.673 119.83Z" fill="#DB9E75"/>
<path opacity="0.2" d="M349.46 153.542L354.825 152.951L363.073 181.701C363.102 181.788 363.131 181.875 363.16 181.963C363.306 182.429 363.452 182.895 363.626 183.332C363.801 183.798 364.005 184.264 364.238 184.701C364.471 185.197 364.734 185.634 364.996 186.071H368.728L320.375 186.132C320.239 186.132 320.114 186.086 320.015 186.008C311.996 181.162 308.024 177.463 308.1 174.911C310.525 174.542 313.987 174.035 318.486 173.391C321.281 172.99 324.119 172.999 326.912 173.415L335.693 174.724C342.263 172.618 351.03 169.853 353.219 169.376L349.46 153.542Z" fill="#8C2A00"/>
<path d="M306.781 178.868C309.908 175.019 316.344 171.903 327.116 179.081C328.758 180.138 328.202 183.606 326.395 183.645L307.771 183.959C306.371 184.005 305.739 180.162 306.781 178.868Z" fill="#474961"/>
<path d="M376.622 106.114C380.358 108.567 383.926 112.172 383.291 114.553C382.796 116.476 380.931 117.495 379.038 118.544C377.508 119.383 374.684 120.681 370.617 120.953C370.618 120.956 370.618 120.959 370.618 120.962C369.657 121.108 368.724 121.254 367.763 121.399C367.268 121.457 366.801 121.108 366.772 120.613C366.918 119.564 367.064 118.515 367.209 117.466C367.34 116.943 367.478 116.282 367.562 115.574C368.027 115.461 369.065 115.161 369.86 114.232C370.734 113.213 371.201 111.669 370.618 110.183C370.094 108.755 368.637 107.648 367.238 107.765C366.452 107.823 365.84 108.26 365.753 108.318C365.121 108.797 364.595 109.452 364.308 109.845C362.937 109.312 360.809 108.176 359.052 105.929C358.644 105.424 358.168 104.677 357.624 103.686C354.723 104.344 352.285 104.179 350.312 103.191C350.743 102.37 351.415 101.628 352.327 100.965C353.696 99.9691 353.847 99.8487 355.574 99.3638C356.655 99.0602 358.7 98.9633 360.163 99.1121H360.217C361.878 99.2869 363.247 99.3451 364.15 99.3451C368.579 99.4325 370.297 98.8499 372.541 99.9569C372.949 100.161 373.91 100.685 374.755 101.676C375.952 103.075 376.442 104.696 376.622 106.114ZM350.232 116.132C351.334 120.067 352.507 121.516 352.357 121.516C352.208 121.516 351.82 121.72 348.819 120.875C347.333 120.467 345.935 120.059 345.294 118.865C344.391 117.175 347.082 113.684 349.471 111.353C349.471 113.078 349.757 114.379 350.232 116.132ZM348.476 110.358C348.185 110.299 348.069 109.95 348.273 109.746C348.535 109.513 348.972 109.221 349.554 109.192C350.749 109.134 352.06 109.833 350.778 110.241C349.962 110.532 349.03 110.445 348.476 110.358ZM354.128 110.358C353.837 110.299 353.721 109.95 353.954 109.746C354.216 109.513 354.653 109.221 355.265 109.192C356.459 109.134 357.77 109.862 356.488 110.241C355.614 110.532 354.711 110.445 354.128 110.358Z" fill="#482D1F"/>
<path d="M350.662 112.601C350.721 113.096 350.779 113.912 350.517 114.261C350.138 114.786 349.235 113.446 349.439 112.513C349.526 112.106 349.73 111.989 349.963 111.989C350.313 111.989 350.604 112.251 350.662 112.601ZM355.848 112.426C355.936 112.921 355.994 113.737 355.703 114.087C355.324 114.611 354.421 113.271 354.625 112.339C354.712 111.931 354.916 111.814 355.149 111.814C355.499 111.814 355.79 112.076 355.848 112.426Z" fill="#482D1F"/>
<path d="M371.481 154.648C371.413 154.416 371.545 154.173 371.777 154.105C372.008 154.037 372.251 154.169 372.319 154.4L375.204 164.16C375.272 164.391 375.14 164.634 374.908 164.703C374.677 164.771 374.434 164.639 374.366 164.408L371.481 154.648ZM391.212 149.626C391.219 149.677 391.217 149.731 391.205 149.784L390.71 151.968C390.541 152.727 389.784 153.197 389.023 153.028C388.788 152.975 388.639 152.742 388.692 152.506C388.744 152.271 388.977 152.122 389.213 152.175C389.507 152.24 389.794 152.062 389.857 151.776L390.283 149.899C390.205 149.858 390.139 149.793 390.097 149.708C389.989 149.493 390.076 149.23 390.292 149.122C391.536 148.5 392.693 147.681 393.679 146.723C393.852 146.555 394.129 146.559 394.297 146.732C394.465 146.905 394.461 147.182 394.288 147.35C393.379 148.233 392.335 149.005 391.212 149.626ZM373.21 145.734C373.208 145.754 373.205 145.774 373.201 145.793L372.706 147.976C372.64 148.27 372.819 148.557 373.102 148.62C373.338 148.673 373.486 148.906 373.434 149.142C373.382 149.377 373.148 149.526 372.913 149.474C372.153 149.305 371.683 148.548 371.853 147.785L372.348 145.6C372.367 145.515 372.41 145.442 372.468 145.385C372.124 144.97 371.865 144.605 371.65 144.236C371.456 143.903 371.294 143.563 371.122 143.137C371.005 142.847 370.932 142.653 370.674 141.942C370.591 141.715 370.708 141.464 370.935 141.382C371.162 141.3 371.413 141.417 371.495 141.643C371.75 142.343 371.821 142.534 371.932 142.81C372.089 143.199 372.234 143.503 372.404 143.795C372.633 144.186 372.921 144.578 373.338 145.061C373.496 145.244 373.476 145.52 373.293 145.678C373.267 145.7 373.239 145.719 373.21 145.734ZM361.904 124.026C360.826 124.521 360.093 125.397 358.412 125.565C357.071 125.886 355.935 125.507 355.353 125.216C355.411 125.187 355.469 125.187 355.527 125.187L356.926 124.983C357.596 124.983 358.673 124.866 359.925 124.517L361.904 124.026Z" fill="#482D1F"/>
<path d="M354.362 118.311C354.566 118.253 355.061 118.078 355.149 117.757C355.149 117.699 355.178 117.612 355.149 117.553C355.032 117.379 354.654 117.466 354.129 117.524C353.197 117.612 352.439 117.524 352.439 117.524C352.439 117.524 352.673 118.107 352.818 118.253C353.139 118.719 354.071 118.427 354.362 118.311Z" fill="#482D1F"/>
<path d="M352.178 112.844L352.18 112.802L352.177 112.823L352.178 112.844ZM351.83 115.919L351.828 115.951C351.828 116.269 352.046 116.565 352.363 116.617C352.421 116.623 352.454 116.625 352.486 116.627C352.794 116.647 353.015 116.65 353.809 116.65C353.97 116.65 354.101 116.52 354.101 116.359C354.101 116.198 353.97 116.068 353.809 116.068C353.029 116.068 352.815 116.065 352.524 116.046C352.494 116.044 352.463 116.042 352.433 116.04C352.44 116.04 352.415 116.006 352.411 115.963L352.759 112.866L352.76 112.824L352.702 111.105C352.697 110.944 352.562 110.819 352.401 110.824C352.24 110.829 352.114 110.964 352.12 111.125L352.177 112.823L351.83 115.919Z" fill="#482D1F"/>
<path d="M399.868 182.084H27.8333C26.707 182.084 25.7939 182.997 25.7939 184.124C25.7939 185.25 26.707 186.163 27.8333 186.163H399.868C400.994 186.163 401.907 185.25 401.907 184.124C401.907 182.997 400.994 182.084 399.868 182.084Z" fill="#D8DEED"/>
<path d="M259.233 177.715L262.035 166.41H241.004C238.819 166.41 237.012 164.75 237.012 162.74V130.722C236.983 128.683 238.76 127.022 240.975 127.022H304.981C307.166 127.022 308.972 128.683 308.972 130.693V162.74C308.972 164.75 307.166 166.41 304.981 166.41H279.35L278.194 177.715H285.782C286.948 177.715 287.851 178.647 287.851 179.783C287.851 180.949 286.918 181.852 285.782 181.852H253.298C252.133 181.852 251.23 180.92 251.23 179.783C251.172 178.647 252.133 177.715 253.298 177.715H259.233Z" fill="#474961"/>
<path fill-rule="evenodd" clip-rule="evenodd" d="M280.219 158.171L280.306 177.744H278.217L280.219 158.171Z" fill="white"/>
<path d="M251.286 4.9527H155.437C152.219 4.9527 149.61 7.5614 149.61 10.7794V81.5738C149.61 84.7918 152.219 87.4005 155.437 87.4005H251.286C254.504 87.4005 257.113 84.7918 257.113 81.5738V10.7794C257.113 7.5614 254.504 4.9527 251.286 4.9527Z" fill="#F2F6FB"/>
<path d="M215.611 69.3948C224.851 64.6599 226.532 51.3711 219.366 39.7135C212.2 28.0558 198.901 22.4437 189.661 27.1786C180.421 31.9135 178.74 45.2023 185.906 56.86C193.072 68.5177 206.371 74.1297 215.611 69.3948ZM211.453 62.6296C205.166 65.851 196.125 62.0359 191.258 54.1174C186.39 46.1989 187.533 37.1651 193.819 33.9438C200.106 30.7225 209.147 34.5375 214.014 42.456C218.882 50.3746 217.739 59.4083 211.453 62.6296Z" fill="#E1E5F0"/>
<path d="M187.582 23.7961C176.865 29.2876 174.915 44.7037 183.23 58.2307C191.545 71.7577 206.974 78.2681 217.69 72.7766C228.406 67.285 230.357 51.8689 222.042 38.3419L216.69 41.0845C222.707 50.8724 221.294 62.0335 213.532 66.0115C205.769 69.9895 194.599 65.2761 188.582 55.4882C182.565 45.7002 183.977 34.5392 191.74 30.5611L187.582 23.7961Z" fill="#474BFF"/>
<path d="M186.381 25.4958C175.898 30.8636 173.968 45.9741 182.076 59.2481C190.183 72.5221 205.254 78.9272 215.737 73.5593L211.008 65.816C203.895 69.458 193.676 65.1151 188.183 56.1209C182.689 47.1267 183.998 36.8812 191.11 33.2391L186.381 25.4958Z" fill="#D8DEED"/>
<path d="M149.61 9.61555C149.61 7.04033 151.698 4.9527 154.273 4.9527H252.451C255.026 4.9527 257.113 7.03976 257.113 9.61555V14.2784H149.61V9.61555Z" fill="#E1E5F0"/>
<path d="M155.865 11.7351C156.977 11.7351 157.879 10.8337 157.879 9.72164C157.879 8.60961 156.977 7.70813 155.865 7.70813C154.752 7.70813 153.851 8.60961 153.851 9.72164C153.851 10.8337 154.752 11.7351 155.865 11.7351Z" fill="#FF5645"/>
<path d="M162.438 11.7351C163.551 11.7351 164.453 10.8337 164.453 9.72164C164.453 8.60961 163.551 7.70813 162.438 7.70813C161.326 7.70813 160.424 8.60961 160.424 9.72164C160.424 10.8337 161.326 11.7351 162.438 11.7351Z" fill="#FFCB3D"/>
<path d="M169.223 11.7351C170.336 11.7351 171.238 10.8337 171.238 9.72164C171.238 8.60961 170.336 7.70813 169.223 7.70813C168.111 7.70813 167.209 8.60961 167.209 9.72164C167.209 10.8337 168.111 11.7351 169.223 11.7351Z" fill="#3ABF7C"/>
</svg>
