<svg width="189" height="110" viewBox="0 0 100 100" fill="none" xmlns="http://www.w3.org/2000/svg">
<path fill-rule="evenodd" clip-rule="evenodd" d="M7.567 74.5488H21.6807C25.8425 74.5488 29.2477 77.8375 29.2477 81.8515V97.9517C29.0528 98.998 28.2044 99.8175 27.1267 100H2.12103C1.04312 99.8175 0.189089 98.998 0 97.9517V81.8515C0 77.8373 3.40522 74.5488 7.567 74.5488Z" fill="#A5CDFF"/>
<path fill-rule="evenodd" clip-rule="evenodd" d="M16.624 74.5488H21.6803C25.8421 74.5488 29.2473 77.8375 29.2473 81.8515V97.9517C29.0523 98.998 28.204 99.8175 27.1263 100H22.07C23.1479 99.8175 23.9963 98.998 24.191 97.9517V81.8515C24.191 77.8373 20.7858 74.5488 16.624 74.5488Z" fill="#8ABFFF"/>
<path fill-rule="evenodd" clip-rule="evenodd" d="M42.9433 74.5488H57.0627C61.2188 74.5488 64.624 77.8375 64.624 81.8515V97.9517C64.4349 98.998 63.5809 99.8175 62.503 100H37.4975C36.4196 99.8175 35.5712 98.998 35.3765 97.9517V81.8515C35.3765 77.8373 38.7815 74.5488 42.9433 74.5488Z" fill="#EBD2FF"/>
<path fill-rule="evenodd" clip-rule="evenodd" d="M52.0059 74.5488H57.0621C61.2182 74.5488 64.6235 77.8375 64.6235 81.8515V97.9517C64.4344 98.998 63.5803 99.8175 62.5024 100H57.4464C58.5241 99.8175 59.3783 98.998 59.5674 97.9517V81.8515C59.5672 77.8373 56.1622 74.5488 52.0059 74.5488Z" fill="#D7BEF0"/>
<path fill-rule="evenodd" clip-rule="evenodd" d="M78.3185 74.5488H92.4378C96.5998 74.5488 99.9992 77.8375 99.9992 81.8515V97.9517C99.8099 98.998 98.9617 99.8175 97.8782 100H72.8784C71.8007 99.8175 70.9464 98.998 70.7573 97.9517V81.8515C70.7573 77.8373 74.1567 74.5488 78.3185 74.5488Z" fill="#CCF49F"/>
<path fill-rule="evenodd" clip-rule="evenodd" d="M87.3823 74.5488H92.4386C96.6006 74.5488 99.9999 77.8375 99.9999 81.8515V97.9517C99.8106 98.998 98.9625 99.8175 97.8789 100H92.8228C93.9064 99.8175 94.7548 98.998 94.9439 97.9517V81.8515C94.9437 77.8373 91.5443 74.5488 87.3823 74.5488Z" fill="#B3E59F"/>
<path d="M21.6004 100V84.6693C21.6004 83.8611 22.2771 83.2021 23.1139 83.2021C23.9508 83.2021 24.6331 83.8611 24.6331 84.6693V100H21.6004ZM4.61475 84.6693C4.61475 83.8611 5.29688 83.2021 6.13393 83.2021C6.97098 83.2021 7.64725 83.8611 7.64725 84.6693V100H4.61475V84.6693Z" fill="#71AAF0"/>
<path d="M56.9764 100V84.6693C56.9764 83.8611 57.6531 83.2021 58.4899 83.2021C59.3324 83.2021 60.0091 83.8611 60.0091 84.6693V100H56.9764ZM39.9907 84.6693C39.9907 83.8611 40.6729 83.2021 41.5099 83.2021C42.347 83.2021 43.0291 83.8611 43.0291 84.6693V100H39.9909V84.6693H39.9907Z" fill="#C19EE3"/>
<path d="M92.3526 100V84.6693C92.3526 83.8611 93.0347 83.2021 93.8717 83.2021C94.7088 83.2021 95.3851 83.8611 95.3851 84.6693V100H92.3526ZM75.3726 84.6693C75.3726 83.8611 76.049 83.2021 76.8857 83.2021C77.7227 83.2021 78.4051 83.8611 78.4051 84.6693V100H75.3726V84.6693Z" fill="#95D6A4"/>
<path fill-rule="evenodd" clip-rule="evenodd" d="M25.9287 39.9292H44.4163L48.8018 47.2651C49.3808 48.2396 50.5962 48.2782 51.2037 47.2651L55.5894 39.9292H74.0772L82.3951 47.6636C83.3066 48.5163 84.2811 47.9792 84.4017 46.9716L85.3532 39.0599C93.8088 36.5519 100 28.9226 100 19.9646C99.9996 8.98573 90.7015 0 79.328 0H20.6716C9.30399 0 0 8.98573 0 19.9646C0 28.9226 6.191 36.5519 14.6468 39.0599L15.604 46.9716C15.7358 48.0954 16.8136 48.4056 17.6106 47.6636L25.9287 39.9292Z" fill="#CBE2FF"/>
<path fill-rule="evenodd" clip-rule="evenodd" d="M49.9999 27.6712H45.5113C45.5169 23.026 40.8105 21.1991 40.8105 15.646C40.8105 10.7462 44.9266 6.771 49.9999 6.771C55.079 6.771 59.1894 10.746 59.1894 15.646C59.1894 21.1991 54.4828 23.026 54.4887 27.6712H49.9999Z" fill="#FFE5A0"/>
<path fill-rule="evenodd" clip-rule="evenodd" d="M54.4884 27.6714V30.7995C54.4884 32.2501 53.2617 33.4349 51.7597 33.4349H48.2456C46.7436 33.4349 45.5112 32.2501 45.5112 30.7995V27.6714H54.4884Z" fill="#477B9E"/>
<path fill-rule="evenodd" clip-rule="evenodd" d="M93.3727 67.9435C93.3727 72.19 89.7725 75.6668 85.3812 75.6668C80.9845 75.6668 77.3843 72.19 77.3843 67.9435V59.6775C77.3843 57.2969 79.4022 55.3535 81.8615 55.3535H88.8954C91.3603 55.3535 93.3727 57.2969 93.3727 59.6775V67.9435Z" fill="#FFCBBE"/>
<path fill-rule="evenodd" clip-rule="evenodd" d="M22.6433 67.9214C22.6433 72.179 19.0318 75.6669 14.6235 75.6669C10.2094 75.6669 6.60352 72.179 6.60352 67.9214C6.60352 65.1532 6.60352 62.3849 6.60352 59.6167C6.60352 57.236 8.62161 55.2817 11.0921 55.2817H21.4512C22.2708 55.2817 22.6435 55.7413 22.6435 56.4388C22.6433 60.2645 22.6433 64.0903 22.6433 67.9214Z" fill="#D8A595"/>
<path fill-rule="evenodd" clip-rule="evenodd" d="M77.3843 59.6775V64.749L82.8533 62.1635C83.587 61.8146 84.3035 61.7869 85.0488 62.0305L93.3725 64.749V59.6775C93.3725 57.2969 91.3603 55.3535 88.8952 55.3535H81.8615C79.4022 55.3537 77.3843 57.2969 77.3843 59.6775Z" fill="#FFE5A0"/>
<path fill-rule="evenodd" clip-rule="evenodd" d="M3 68.3143V76H22V58.5537C22 56.4115 21.5585 55 20.5876 55H8.31697C5.39054 55 3 61.0024 3 68.3143Z" fill="#477B9E"/>
<path fill-rule="evenodd" clip-rule="evenodd" d="M58.02 67.9214C58.02 72.179 54.4142 75.6669 50 75.6669C45.5917 75.6669 41.98 72.179 41.98 67.9214V59.6167C41.98 57.236 44.0037 55.2817 46.4686 55.2817H53.5314C56.0021 55.2817 58.02 57.236 58.02 59.6167V67.9214Z" fill="#FFCBBE"/>
<path fill-rule="evenodd" clip-rule="evenodd" d="M41.98 59.6167V62.6341C44.2444 63.4479 46.1304 62.7671 47.214 62.169C48.0624 61.704 48.1999 61.6153 49.0369 62.3184C52.8893 65.5796 58.0202 63.769 58.0202 63.769V59.6167C58.0202 57.236 56.0023 55.2817 53.5316 55.2817H46.4688C44.0037 55.2817 41.98 57.236 41.98 59.6167Z" fill="#D09080"/>
<path fill-rule="evenodd" clip-rule="evenodd" d="M17.5876 62.1191V67.9213C17.5876 71.3262 15.2773 74.2385 12.0957 75.2681C12.8927 75.5228 13.7411 75.6668 14.6238 75.6668C19.0321 75.6668 22.6436 72.1789 22.6436 67.9213V62.1191H17.5876Z" fill="#D09080"/>
<path fill-rule="evenodd" clip-rule="evenodd" d="M21.4513 55.2817H16.395C17.2149 55.2817 17.5874 55.7413 17.5874 56.4388V62.119H22.6435V56.4388C22.6435 55.7413 22.2709 55.2817 21.4513 55.2817Z" fill="#365E7D"/>
<path fill-rule="evenodd" clip-rule="evenodd" d="M52.9633 67.9214C52.9633 70.7227 51.4038 73.1866 49.0822 74.5485C48.5776 74.8419 48.0389 75.0856 47.4712 75.2682C48.2682 75.5229 49.1166 75.6669 49.9993 75.6669C51.5126 75.6669 52.9287 75.2571 54.1382 74.5485C56.4599 73.1866 58.0193 70.7227 58.0193 67.9214V63.769C58.0193 63.769 55.6746 64.594 52.9631 64.1233V67.9214H52.9633Z" fill="#F7BEAF"/>
<path fill-rule="evenodd" clip-rule="evenodd" d="M48.4746 55.2817C50.9453 55.2817 52.9632 57.236 52.9632 59.6167V64.1235C55.6748 64.594 58.0195 63.7692 58.0195 63.7692V59.6169C58.0195 57.2362 56.0016 55.2819 53.5309 55.2819H48.4746V55.2817Z" fill="#BE694F"/>
<path fill-rule="evenodd" clip-rule="evenodd" d="M88.3165 67.9434C88.3165 70.7339 86.7629 73.1919 84.4528 74.5483C83.9484 74.8417 83.4151 75.0854 82.8535 75.268C83.6445 75.5227 84.4987 75.6667 85.3814 75.6667C86.8891 75.6667 88.2995 75.2569 89.509 74.5483C91.8192 73.1919 93.3727 70.7337 93.3727 67.9434V64.7489L88.3165 63.0991V67.9434Z" fill="#F7BEAF"/>
<path fill-rule="evenodd" clip-rule="evenodd" d="M88.8956 55.3535H83.8394C86.3044 55.3535 88.3166 57.2969 88.3166 59.6775V63.0992L93.3729 64.749V59.6773C93.3729 57.2967 91.3606 55.3535 88.8956 55.3535Z" fill="#F2CE7E"/>
<path fill-rule="evenodd" clip-rule="evenodd" d="M74.2715 35.0456H15.6152C11.2185 35.0456 7.12543 33.7003 3.76025 31.4138C6.38566 35.0124 10.2036 37.7419 14.6465 39.0597L15.6037 46.9714C15.7356 48.0952 16.8133 48.4054 17.6103 47.6634L25.9284 39.929H44.416L48.8015 47.265C49.3805 48.2394 50.5959 48.278 51.2034 47.265L55.5891 39.929H74.0769L82.3948 47.6634C83.3063 48.5161 84.2808 47.979 84.4014 46.9714L85.3529 39.0597C93.8085 36.5517 99.9997 28.9224 99.9997 19.9644C99.9997 13.232 96.5085 7.25273 91.1829 3.63184C93.5507 6.88183 94.9436 10.8293 94.9436 15.0812C94.9432 26.0599 85.6451 35.0456 74.2715 35.0456Z" fill="#87BCFF"/>
<path fill-rule="evenodd" clip-rule="evenodd" d="M54.1336 15.646C54.1336 21.1991 49.427 23.026 49.4328 27.6712H54.4891C54.4834 23.026 59.1898 21.1991 59.1898 15.646C59.1898 10.7462 55.0796 6.771 50.0003 6.771C49.1232 6.771 48.2748 6.89268 47.4722 7.11416C51.3189 8.17177 54.1336 11.5933 54.1336 15.646Z" fill="#F2CE7E"/>
</svg>
