<svg width="100" height="100" viewBox="0 0 100 100" fill="none" xmlns="http://www.w3.org/2000/svg">
<path d="M85.3516 53.125C78.8887 53.125 73.6328 47.8661 73.6328 41.4062C73.6328 34.9464 78.8887 29.6875 85.3516 29.6875C91.8144 29.6875 97.0703 34.9464 97.0703 41.4062C97.0703 47.8661 91.8144 53.125 85.3516 53.125Z" fill="#D5887A"/>
<path d="M85.3513 53.125H79.4919C68.1851 53.125 58.5935 43.924 58.5935 32.6172L47.7544 53.6575C53.1133 61.7142 61.3729 67.453 70.6853 69.6732L70.7028 97.0703C70.7028 98.6893 72.0159 100 73.6325 100H97.07C98.689 100 99.9997 98.6893 99.9997 97.0703V67.7734C99.9997 59.6939 93.4278 53.125 85.3513 53.125Z" fill="#24D1F8"/>
<path d="M52.9297 2.92969V8.78906C52.9297 10.4294 51.6411 11.7188 50 11.7188C48.3589 11.7188 47.0703 10.4294 47.0703 8.78906V2.92969C47.0703 1.2886 48.3589 0 50 0C51.6411 0 52.9297 1.2886 52.9297 2.92969Z" fill="#E3D0C8"/>
<path d="M61.7188 17.7734C60.9688 17.7734 60.2196 17.4873 59.6474 16.9151C58.503 15.7707 58.503 13.9168 59.6474 12.7724L65.5067 6.91299C66.6512 5.76859 68.5051 5.76859 69.6495 6.91299C70.7939 8.0574 70.7939 9.91135 69.6495 11.0558L63.7901 16.9151C63.2179 17.4873 62.4687 17.7734 61.7188 17.7734Z" fill="#CDBFBA"/>
<path d="M38.2812 17.7734C37.5313 17.7734 36.7821 17.4873 36.2099 16.9151L30.3505 11.0558C29.2061 9.91135 29.2061 8.0574 30.3505 6.91299C31.4949 5.76859 33.3488 5.76859 34.4933 6.91299L40.3526 12.7724C41.497 13.9168 41.497 15.7707 40.3526 16.9151C39.7804 17.4873 39.0312 17.7734 38.2812 17.7734Z" fill="#E3D0C8"/>
<path d="M14.6484 53.125C8.18558 53.125 2.92969 47.8661 2.92969 41.4062C2.92969 34.9464 8.18558 29.6875 14.6484 29.6875C21.1113 29.6875 26.3672 34.9464 26.3672 41.4062C26.3672 47.8661 21.1113 53.125 14.6484 53.125Z" fill="#A34F41"/>
<path d="M50 23.6328C45.1363 23.6328 41.2109 27.5581 41.2109 32.4219C41.2109 43.7302 31.8161 53.125 20.5078 53.125H14.6484C6.56281 53.125 0 59.6878 0 67.7734V97.0703C0 98.7106 1.2886 100 2.92969 100H26.3672C28.0083 100 29.2969 98.7106 29.2969 97.0703V69.7067C37.5587 67.7147 44.8441 63.0074 50 56.797C55.5077 50.1755 58.7891 41.6214 58.7891 32.4219C58.7891 27.5581 54.8637 23.6328 50 23.6328Z" fill="#FCA62F"/>
<path d="M58.7891 32.4219C58.7891 41.6214 55.5077 50.1755 50 56.797V23.6328C54.8637 23.6328 58.7891 27.5581 58.7891 32.4219Z" fill="#FCA62F"/>
<path d="M50 11.7188V0C51.6411 0 52.9297 1.2886 52.9297 2.92969V8.78906C52.9297 10.4294 51.6411 11.7188 50 11.7188Z" fill="#CDBFBA"/>
</svg>
