<svg width="100" height="100" viewBox="0 0 100 100" fill="none" xmlns="http://www.w3.org/2000/svg">
<g clip-path="url(#clip0)">
<path fill-rule="evenodd" clip-rule="evenodd" d="M43.4946 63.7554H56.505C60.7517 65.0288 64.4278 67.5146 64.4278 70.3769V87.3681H35.5718V70.3769C35.5718 67.5146 39.2479 65.0286 43.4946 63.7554Z" fill="#EBD2FF"/>
<path fill-rule="evenodd" clip-rule="evenodd" d="M59.5447 70.3769V87.3681H64.4279V70.3769C64.4279 67.5146 60.7518 65.0286 56.5051 63.7554H51.6221C55.8684 65.0286 59.5447 67.5146 59.5447 70.3769Z" fill="#D7BEF0"/>
<path fill-rule="evenodd" clip-rule="evenodd" d="M17.4619 86.5872H25.1467L31.4359 85.7126L37.6645 86.5872H62.3352L68.4695 85.3804L74.8529 86.5872H82.5432V98.3577H17.4619V86.5872Z" fill="#D09080"/>
<path fill-rule="evenodd" clip-rule="evenodd" d="M0 96.2152V71.1797C0 68.0959 2.5248 65.5713 5.60293 65.5713H14.8545C15.015 65.5713 15.1701 65.5824 15.3307 65.5934C16.7646 65.4549 18.2375 66.0418 19.173 67.2764L26.6973 77.2418C27.0793 77.7457 27.4891 78.0113 28.2365 78.0113H37.6648C40.0346 78.0113 41.9559 79.927 41.9559 82.2965C41.9559 84.666 40.0346 86.5871 37.6648 86.5871H25.1471C23.8514 86.5871 22.5723 85.9949 21.7309 84.882L20.4576 83.1934V98.3576H2.14277C1.05195 98.1641 0.19375 97.3059 0 96.2152H0Z" fill="#FF6978"/>
<path fill-rule="evenodd" clip-rule="evenodd" d="M99.9999 96.2152V71.1797C99.9999 68.0959 97.481 65.5713 94.3972 65.5713H85.1511C84.9905 65.5713 84.8302 65.5824 84.6749 65.5934C83.2355 65.4549 81.7628 66.0418 80.8271 67.2764L73.303 77.2418C72.9542 77.7016 72.5501 78.0113 71.7638 78.0113H62.3354C59.9657 78.0113 58.0444 79.927 58.0444 82.2965C58.0444 84.666 59.9657 86.5871 62.3354 86.5871H74.8532C76.1491 86.5871 77.428 85.9949 78.2694 84.882L79.5483 83.1934V98.3576H97.8575C98.948 98.1641 99.8062 97.3059 99.9999 96.2152Z" fill="#CCF49F"/>
<path fill-rule="evenodd" clip-rule="evenodd" d="M44.53 39.6328H69.1007L75.3185 45.8502C75.811 46.343 76.3759 46.0551 76.3759 45.4072V39.6328C79.5427 39.6328 82.1337 37.0418 82.1337 33.8752V19.342C82.1337 16.1752 79.5427 13.584 76.3759 13.584H44.53C41.363 13.584 38.772 16.1752 38.772 19.342V33.8752C38.772 37.0418 41.363 39.6328 44.53 39.6328Z" fill="#CBE2FF"/>
<path fill-rule="evenodd" clip-rule="evenodd" d="M15.7513 33.8253H41.6013C45.8036 33.8253 49.2415 30.3872 49.2415 26.1851V9.28232C49.2415 5.07998 45.8036 1.64209 41.6013 1.64209H8.471C4.26865 1.64209 0.830566 5.08018 0.830566 9.28232V26.1849C0.830566 30.3872 4.26885 33.8251 8.471 33.8251V39.6052C8.471 40.2253 9.07998 40.5023 9.53389 40.0425L15.7513 33.8253Z" fill="#CBE2FF"/>
<path d="M11.0675 11.2645C10.2591 11.2645 9.60596 10.6057 9.60596 9.79726C9.60596 8.98887 10.2593 8.33008 11.0675 8.33008H38.9989C39.8128 8.33008 40.4661 8.98887 40.4661 9.79726C40.4661 10.6057 39.8128 11.2645 38.9989 11.2645H11.0675ZM11.0675 27.1373C10.2591 27.1373 9.60596 26.484 9.60596 25.6758C9.60596 24.8674 10.2593 24.2086 11.0675 24.2086H25.036C25.8444 24.2086 26.5032 24.8674 26.5032 25.6758C26.5032 26.4842 25.8444 27.1373 25.036 27.1373H11.0675ZM11.0675 19.1982C10.2591 19.1982 9.60596 18.5447 9.60596 17.7365C9.60596 16.9283 10.2593 16.2693 11.0675 16.2693H38.9989C39.8128 16.2693 40.4661 16.9283 40.4661 17.7365C40.4661 18.5449 39.8128 19.1982 38.9989 19.1982H11.0675Z" fill="#477B9E"/>
<path fill-rule="evenodd" clip-rule="evenodd" d="M58.1439 59.4093C58.1439 63.8884 54.4788 67.5532 49.9999 67.5532C45.521 67.5532 41.856 63.8882 41.856 59.4093C41.856 56.5026 41.856 53.5905 41.856 50.6839C41.856 48.1759 43.9101 46.1274 46.4179 46.1274H56.9316C57.7675 46.1274 58.1439 46.6036 58.1439 47.3399V59.4093Z" fill="#FFCBBE"/>
<path fill-rule="evenodd" clip-rule="evenodd" d="M41.856 50.6839V53.3136H58.144V47.3399C58.144 46.6036 57.7677 46.1274 56.9317 46.1274H46.4181C43.9099 46.1274 41.856 48.1759 41.856 50.6839Z" fill="#FFE5A0"/>
<path fill-rule="evenodd" clip-rule="evenodd" d="M2.08691 59.4093C2.08691 63.8884 5.74648 67.5532 10.2258 67.5532C14.7047 67.5532 18.3697 63.8882 18.3697 59.4093V50.6839C18.3697 48.1759 16.3213 46.1274 13.8133 46.1274H6.64336C4.13535 46.1274 2.08691 48.1759 2.08691 50.6839V59.4093Z" fill="#FFCBBE"/>
<path fill-rule="evenodd" clip-rule="evenodd" d="M97.9187 59.4093C97.9187 63.8884 94.2534 67.5532 89.7743 67.5532C85.2954 67.5532 81.6304 63.8882 81.6304 59.4093V50.6839C81.6304 48.1759 83.6845 46.1274 86.1868 46.1274H93.3622C95.8646 46.1274 97.9187 48.1759 97.9187 50.6839V59.4093Z" fill="#D8A595"/>
<path fill-rule="evenodd" clip-rule="evenodd" d="M97.9183 59.409C97.9183 63.8881 94.253 67.5529 89.7739 67.5529C88.9269 67.5529 88.1019 67.4201 87.3325 67.1766C90.3829 66.2076 92.6751 63.4838 92.9964 60.2006C94.2698 60.4166 95.8753 60.3057 97.9073 59.6912L97.9185 50.6836V59.409H97.9183Z" fill="#D09080"/>
<path fill-rule="evenodd" clip-rule="evenodd" d="M18.3594 53.5021V58.6597C15.94 60.0458 13.953 58.9119 12.7901 57.8856C11.884 57.0933 11.7265 57.0933 11.6211 58.3625C11.3057 62.0889 10.2186 72.3508 1.17766 68.1468L1.17189 53.5018C1.16611 49.4242 3.33414 46.0938 5.98149 46.0938H13.5498C16.1969 46.0941 18.3594 49.4245 18.3594 53.5021Z" fill="#D09080"/>
<path fill-rule="evenodd" clip-rule="evenodd" d="M81.6299 50.6836V53.8559C83.9275 54.7084 85.8043 54.0109 86.9117 53.3797C87.7643 52.8924 87.9137 52.8924 88.0135 53.673C88.3123 55.965 89.3477 62.2767 97.9072 59.691L97.9184 50.6834C97.9184 48.1754 95.8643 46.127 93.3619 46.127H86.1865C83.684 46.1271 81.6299 48.1756 81.6299 50.6836Z" fill="#477B9E"/>
<path fill-rule="evenodd" clip-rule="evenodd" d="M93.5675 52.6858V65.3093C93.5675 65.6936 93.555 66.0785 93.5243 66.4549C94.947 66.7674 96.7407 66.6069 99.011 65.7179L99.0234 52.6861C99.0234 49.2096 96.9203 46.3424 94.2852 46.1099C94.1678 46.0938 94.0502 46.0938 93.9328 46.0938H88.4766C91.2723 46.0938 93.5675 49.0573 93.5675 52.6858Z" fill="#365E7D"/>
<path fill-rule="evenodd" clip-rule="evenodd" d="M13.4867 59.4089C13.4867 63.0353 11.084 66.1302 7.78418 67.1767C8.55957 67.4202 9.37891 67.553 10.226 67.553C14.7049 67.553 18.3699 63.888 18.3699 59.4091V53.856C16.3324 54.6089 14.6162 54.144 13.4867 53.5903V59.4089Z" fill="#F7BEAF"/>
<path fill-rule="evenodd" clip-rule="evenodd" d="M8.93066 46.1274C11.4387 46.1274 13.4869 48.1759 13.4869 50.6839V53.5905C14.6164 54.1442 16.3326 54.6093 18.3701 53.8562V50.6839C18.3701 48.1759 16.3217 46.1274 13.8137 46.1274H8.93066Z" fill="#BE694F"/>
<path fill-rule="evenodd" clip-rule="evenodd" d="M53.2611 59.409C53.2611 63.0353 50.8582 66.1303 47.5586 67.1768C48.3338 67.4203 49.1531 67.5531 50.0002 67.5531C54.4793 67.5531 58.1441 63.8881 58.1441 59.4092V53.3135H53.2611V59.409Z" fill="#F7BEAF"/>
<path fill-rule="evenodd" clip-rule="evenodd" d="M53.2613 47.3399V53.3136H58.1443V47.3399C58.1443 46.6036 57.768 46.1274 56.932 46.1274H52.0488C52.885 46.1274 53.2613 46.6034 53.2613 47.3399Z" fill="#F2CE7E"/>
<path fill-rule="evenodd" clip-rule="evenodd" d="M16.1666 77.513C15.9729 77.2527 15.5742 77.38 15.5742 77.7125V98.3576H17.4621H20.4572V92.4724V86.5871V83.1933L16.1666 77.513Z" fill="#CF4351"/>
<path fill-rule="evenodd" clip-rule="evenodd" d="M95.1169 71.1796V96.2153C94.9286 97.306 94.0649 98.1642 92.98 98.3579H97.8577C98.9483 98.1642 99.8065 97.306 100 96.2153V71.1796C100 68.3116 97.8188 65.931 95.0397 65.6099C94.4474 66.1136 93.7829 66.5343 93.0686 66.8501C94.3196 67.8798 95.1169 69.4411 95.1169 71.1796Z" fill="#B3E59F"/>
<path fill-rule="evenodd" clip-rule="evenodd" d="M38.8276 34.6944C39.2317 37.4735 41.6403 39.6327 44.5304 39.6327H69.1011L75.3188 45.8501C75.8114 46.3429 76.3763 46.055 76.3763 45.4071V39.6327C79.5431 39.6327 82.1341 37.0417 82.1341 33.8751V19.3419C82.1341 16.4519 79.9806 14.0437 77.1958 13.645C77.2345 13.9106 77.2511 14.1819 77.2511 14.4589V28.9919C77.2511 32.1587 74.6655 34.7497 71.4985 34.7497H39.647C39.3702 34.7497 39.0989 34.7276 38.8276 34.6944Z" fill="#87BCFF"/>
<path fill-rule="evenodd" clip-rule="evenodd" d="M44.3583 21.3019C44.3583 24.7954 41.9831 27.7573 38.7718 28.6651C38.1185 28.8479 37.4263 28.9476 36.7177 28.9476H3.5876C2.75713 28.9476 1.95986 28.8091 1.2124 28.5655C2.21455 31.6106 5.09893 33.8251 8.4708 33.8251V39.6052C8.4708 40.2253 9.07979 40.5022 9.53369 40.0425L15.7511 33.8251H38.7718H41.6009C45.8032 33.8251 49.2411 30.387 49.2411 26.1849V13.5841V9.28232C49.2411 5.91045 47.0267 3.02607 43.9761 2.02393C44.2251 2.77139 44.3581 3.57432 44.3581 4.39912V13.5896L44.3583 21.3019Z" fill="#87BCFF"/>
<path fill-rule="evenodd" clip-rule="evenodd" d="M74.665 86.5874H79.5482V98.3579H74.665V86.5874Z" fill="#BE694F"/>
</g>
<defs>
<clipPath id="clip0">
<rect width="100" height="100" fill="white"/>
</clipPath>
</defs>
</svg>
