<svg width="650" height="459" viewBox="0 0 650 459" fill="none" xmlns="http://www.w3.org/2000/svg">
<g clip-path="url(#clip0)">
<ellipse opacity="0.2" cx="321" cy="425.5" rx="290" ry="33.5" fill="#873FE2"/>
<path d="M287.529 32.5127H139.941C138.674 32.5127 137.647 33.5402 137.647 34.8077V146.88C137.647 148.148 138.674 149.175 139.941 149.175H287.529C288.796 149.175 289.823 148.148 289.823 146.88V34.8077C289.823 33.5402 288.796 32.5127 287.529 32.5127Z" fill="#F2F6FB"/>
<path d="M171.377 92.6669C178.838 92.6669 184.886 86.6529 184.886 79.2343C184.886 71.8157 178.838 65.8018 171.377 65.8018C163.916 65.8018 157.868 71.8157 157.868 79.2343C157.868 86.6529 163.916 92.6669 171.377 92.6669Z" fill="#D8DEED"/>
<path d="M171.37 79.0432C169.433 79.0432 167.863 77.5034 167.863 75.6039C167.863 73.7044 169.433 72.1646 171.37 72.1646C173.306 72.1646 174.876 73.7044 174.876 75.6039C174.876 77.5034 173.306 79.0432 171.37 79.0432ZM171.37 80.7629C174.88 80.7629 177.725 83.5539 177.725 86.9967H165.014C165.014 83.5539 167.86 80.7629 171.37 80.7629Z" fill="#F2F6FB"/>
<path d="M159.984 96.2017H182.77C184.331 96.2017 185.597 97.4678 185.597 99.0296C185.597 100.591 184.331 101.857 182.77 101.857H159.984C158.422 101.857 157.157 100.591 157.157 99.0296C157.157 97.4678 158.422 96.2017 159.984 96.2017ZM163.539 105.392H179.215C180.776 105.392 182.042 106.658 182.042 108.22C182.042 109.782 180.776 111.048 179.215 111.048H163.539C161.977 111.048 160.712 109.782 160.712 108.22C160.712 106.658 161.977 105.392 163.539 105.392Z" fill="#E1E5F0"/>
<path d="M162.104 120.416H180.65C183.382 120.416 185.597 122.632 185.597 125.365C185.597 128.098 183.382 130.314 180.65 130.314H162.104C159.372 130.314 157.157 128.098 157.157 125.365C157.157 122.632 159.372 120.416 162.104 120.416ZM204.425 120.416H222.971C225.704 120.416 227.918 122.632 227.918 125.365C227.918 128.098 225.704 130.314 222.971 130.314H204.425C201.693 130.314 199.478 128.098 199.478 125.365C199.478 122.632 201.693 120.416 204.425 120.416ZM247.046 120.416H265.593C268.325 120.416 270.54 122.632 270.54 125.365C270.54 128.098 268.325 130.314 265.593 130.314H247.046C244.314 130.314 242.1 128.098 242.1 125.365C242.1 122.632 244.314 120.416 247.046 120.416Z" fill="#474BFF"/>
<path d="M213.698 92.6669C221.159 92.6669 227.207 86.6529 227.207 79.2343C227.207 71.8157 221.159 65.8018 213.698 65.8018C206.237 65.8018 200.189 71.8157 200.189 79.2343C200.189 86.6529 206.237 92.6669 213.698 92.6669Z" fill="#D8DEED"/>
<path d="M213.691 79.0432C211.754 79.0432 210.184 77.5034 210.184 75.6039C210.184 73.7044 211.754 72.1646 213.691 72.1646C215.627 72.1646 217.197 73.7044 217.197 75.6039C217.197 77.5034 215.627 79.0432 213.691 79.0432ZM213.691 80.7629C217.201 80.7629 220.046 83.5539 220.046 86.9967H207.335C207.335 83.5539 210.181 80.7629 213.691 80.7629Z" fill="#F2F6FB"/>
<path d="M202.305 96.2017H225.091C226.653 96.2017 227.918 97.4678 227.918 99.0296C227.918 100.591 226.653 101.857 225.091 101.857H202.305C200.744 101.857 199.478 100.591 199.478 99.0296C199.478 97.4678 200.744 96.2017 202.305 96.2017ZM202.305 105.392H225.091C226.653 105.392 227.918 106.658 227.918 108.22C227.918 109.782 226.653 111.048 225.091 111.048H202.305C200.744 111.048 199.478 109.782 199.478 108.22C199.478 106.658 200.744 105.392 202.305 105.392Z" fill="#E1E5F0"/>
<path d="M256.32 92.6669C263.781 92.6669 269.829 86.6529 269.829 79.2343C269.829 71.8157 263.781 65.8018 256.32 65.8018C248.859 65.8018 242.811 71.8157 242.811 79.2343C242.811 86.6529 248.859 92.6669 256.32 92.6669Z" fill="#D8DEED"/>
<path d="M256.312 79.0432C254.376 79.0432 252.806 77.5034 252.806 75.6039C252.806 73.7044 254.376 72.1646 256.312 72.1646C258.249 72.1646 259.818 73.7044 259.818 75.6039C259.818 77.5034 258.249 79.0432 256.312 79.0432ZM256.312 80.7629C259.822 80.7629 262.667 83.5539 262.667 86.9967H249.957C249.957 83.5539 252.802 80.7629 256.312 80.7629Z" fill="#F2F6FB"/>
<path d="M248.481 96.2017H264.158C265.719 96.2017 266.985 97.4678 266.985 99.0296C266.985 100.591 265.719 101.857 264.158 101.857H248.481C246.92 101.857 245.654 100.591 245.654 99.0296C245.654 97.4678 246.92 96.2017 248.481 96.2017ZM244.926 105.392H267.713C269.274 105.392 270.54 106.658 270.54 108.22C270.54 109.782 269.274 111.048 267.713 111.048H244.926C243.365 111.048 242.099 109.782 242.099 108.22C242.099 106.658 243.365 105.392 244.926 105.392Z" fill="#E1E5F0"/>
<path d="M137.647 39.1106C137.647 35.4667 140.602 32.5127 144.241 32.5127H283.23C286.871 32.5127 289.823 35.4659 289.823 39.1106V45.7085H137.647V39.1106Z" fill="#D8DEED"/>
<path d="M146.501 42.1098C148.076 42.1098 149.353 40.8342 149.353 39.2607C149.353 37.6872 148.076 36.4116 146.501 36.4116C144.926 36.4116 143.65 37.6872 143.65 39.2607C143.65 40.8342 144.926 42.1098 146.501 42.1098Z" fill="#FF5645"/>
<path d="M155.806 42.1098C157.381 42.1098 158.658 40.8342 158.658 39.2607C158.658 37.6872 157.381 36.4116 155.806 36.4116C154.231 36.4116 152.955 37.6872 152.955 39.2607C152.955 40.8342 154.231 42.1098 155.806 42.1098Z" fill="#FFCB3D"/>
<path d="M165.411 42.1098C166.986 42.1098 168.262 40.8342 168.262 39.2607C168.262 37.6872 166.986 36.4116 165.411 36.4116C163.836 36.4116 162.559 37.6872 162.559 39.2607C162.559 40.8342 163.836 42.1098 165.411 42.1098Z" fill="#3ABF7C"/>
<path d="M377.765 107.1H284.088C279.865 107.1 276.441 110.525 276.441 114.75V217.643C276.441 221.868 279.865 225.293 284.088 225.293H377.765C381.988 225.293 385.412 221.868 385.412 217.643V114.75C385.412 110.525 381.988 107.1 377.765 107.1Z" fill="#E1E5F0"/>
<path d="M292.568 185.07H369.346C370.439 185.07 371.325 185.957 371.325 187.051C371.325 188.144 370.439 189.031 369.346 189.031H292.568C291.474 189.031 290.588 188.144 290.588 187.051C290.588 185.957 291.474 185.07 292.568 185.07ZM292.568 197.942H369.346C370.439 197.942 371.325 198.829 371.325 199.922C371.325 201.016 370.439 201.903 369.346 201.903H292.568C291.474 201.903 290.588 201.016 290.588 199.922C290.588 198.829 291.474 197.942 292.568 197.942ZM302.969 191.506H358.944C360.037 191.506 360.924 192.393 360.924 193.486C360.924 194.58 360.037 195.467 358.944 195.467H302.969C301.876 195.467 300.99 194.58 300.99 193.486C300.99 192.393 301.876 191.506 302.969 191.506ZM307.923 204.378H353.991C355.084 204.378 355.97 205.265 355.97 206.358C355.97 207.452 355.084 208.338 353.991 208.338H307.923C306.829 208.338 305.943 207.452 305.943 206.358C305.943 205.265 306.829 204.378 307.923 204.378Z" fill="#F2F6FB"/>
<path d="M330.709 148.369C338.095 148.369 344.083 142.384 344.083 135.002C344.083 127.62 338.095 121.635 330.709 121.635C323.323 121.635 317.335 127.62 317.335 135.002C317.335 142.384 323.323 148.369 330.709 148.369Z" fill="#474BFF"/>
<path d="M330.704 134.868C329.355 134.868 328.261 133.79 328.261 132.46C328.261 131.13 329.355 130.051 330.704 130.051C332.053 130.051 333.147 131.13 333.147 132.46C333.147 133.79 332.053 134.868 330.704 134.868ZM330.704 136.072C333.149 136.072 335.131 138.027 335.131 140.438H326.277C326.277 138.027 328.259 136.072 330.704 136.072Z" fill="#F2F6FB"/>
<path d="M345.171 159.755H316.248C315.154 159.755 314.268 160.642 314.268 161.736C314.268 162.829 315.154 163.716 316.248 163.716H345.171C346.264 163.716 347.15 162.829 347.15 161.736C347.15 160.642 346.264 159.755 345.171 159.755Z" fill="#F2F6FB"/>
<path d="M350.906 153.319H310.512C309.419 153.319 308.533 154.206 308.533 155.3C308.533 156.393 309.419 157.28 310.512 157.28H350.906C351.999 157.28 352.886 156.393 352.886 155.3C352.886 154.206 351.999 153.319 350.906 153.319Z" fill="#F2F6FB"/>
<path d="M274.95 425.663L274.797 425.74C273.994 426.161 272.962 425.931 272.58 425.204L227.806 342.929C227.386 342.164 227.73 341.207 228.533 340.787L228.686 340.71C229.488 340.289 230.521 340.519 230.903 341.246L241.991 361.595C249.218 374.906 256.444 388.178 263.709 401.489L275.677 423.445C276.097 424.21 275.753 425.204 274.95 425.663Z" fill="#D8DEED"/>
<path d="M165.177 339.372H193.203C210.18 339.372 227.156 339.372 244.094 339.372H270.094C271.012 339.372 271.815 340.137 271.815 341.055V341.246C271.815 342.164 271.05 342.929 270.094 342.929H165.1C164.183 342.929 163.38 342.164 163.38 341.246V341.055C163.38 340.137 164.183 339.372 165.177 339.372Z" fill="#D8DEED"/>
<path d="M150.112 423.445L162.079 401.49C169.306 388.179 176.532 374.906 183.797 361.595L194.885 341.246C195.268 340.519 196.3 340.252 197.103 340.711L197.256 340.787C198.059 341.208 198.403 342.202 197.982 342.929L153.209 425.205C152.827 425.932 151.794 426.199 150.991 425.74L150.838 425.664C150.035 425.205 149.691 424.21 150.112 423.445Z" fill="#D8DEED"/>
<path d="M153.286 230.588L156.918 259.964C159.136 277.751 161.315 295.537 163.533 313.285L166.897 340.519C167.012 341.475 166.362 342.431 165.444 342.546L165.253 342.584C164.336 342.699 163.494 342.011 163.341 340.978L149.691 230.971C149.577 230.015 150.227 229.058 151.144 228.944L151.336 228.905C152.291 228.791 153.171 229.556 153.286 230.588Z" fill="#D8DEED"/>
<path d="M387.629 425.51L387.782 425.587C388.585 426.007 389.617 425.778 390 425.051L434.773 342.775C435.194 342.01 434.85 341.054 434.047 340.633L433.894 340.557C433.091 340.136 432.059 340.366 431.676 341.092L420.588 361.441C413.362 374.752 406.135 388.025 398.87 401.336L386.903 423.292C386.482 424.057 386.826 425.051 387.629 425.51Z" fill="#D8DEED"/>
<path d="M498.78 339.218H470.753C453.777 339.218 436.8 339.218 419.862 339.218H393.862C392.944 339.218 392.141 339.983 392.141 340.901V341.093C392.141 342.011 392.906 342.776 393.862 342.776H498.856C499.774 342.776 500.577 342.011 500.577 341.093V340.901C500.577 339.983 499.774 339.218 498.78 339.218Z" fill="#D8DEED"/>
<path d="M500.462 331.759V304.258C500.462 287.581 500.462 270.942 500.462 254.303V228.79C500.462 227.872 484.594 227.107 465.515 227.107H461.538C442.497 227.107 426.591 227.872 426.591 228.79V331.836C426.591 332.754 442.459 333.519 461.538 333.519H465.515C484.556 333.519 500.462 332.716 500.462 331.759Z" fill="#D8DEED"/>
<path d="M512.468 423.292L500.5 401.336C493.274 388.025 486.047 374.752 478.782 361.441L467.694 341.092C467.312 340.366 466.28 340.098 465.477 340.557L465.324 340.633C464.521 341.054 464.177 342.049 464.597 342.775L509.371 425.051C509.753 425.778 510.785 426.046 511.588 425.587L511.741 425.51C512.544 425.051 512.888 424.057 512.468 423.292Z" fill="#D8DEED"/>
<path d="M355.704 425.722H416.46C417.415 425.722 418.18 424.957 418.18 424.001C418.18 423.045 417.415 422.28 416.46 422.28H355.704C354.748 422.28 353.983 423.045 353.983 424.001C353.983 424.957 354.748 425.722 355.704 425.722ZM467.542 425.722C468.498 425.722 469.262 425.06 469.262 424.266V423.736C469.262 422.942 468.46 422.28 467.542 422.28H428.351C427.395 422.28 426.63 422.942 426.63 423.736V424.266C426.63 425.06 427.433 425.722 428.351 425.722H467.542Z" fill="#A339FF"/>
<path d="M355.132 422.404C355.332 422.324 355.55 422.28 355.78 422.28H416.536C416.781 422.28 417.013 422.33 417.222 422.42C417.273 422.247 417.301 422.063 417.301 421.871L416.028 398.57L389.695 398.182C389.274 398.182 388.892 398.298 388.548 398.57C384.189 403.3 380.021 405.936 377.001 407.487C374.668 408.689 366.868 412.023 363.351 413.652C362.269 414.142 360.668 415.022 358.547 416.292C358.043 416.593 357.589 416.97 357.199 417.41C356.1 418.652 355.41 419.764 355.13 420.747C355.054 420.979 355.054 421.173 355.015 421.406C354.977 421.6 355.015 421.794 355.015 421.987V422.026C355.042 422.158 355.082 422.284 355.132 422.404ZM427.607 422.456C427.851 422.344 428.13 422.28 428.427 422.28H467.05L458.174 398.603L430.798 402.313L427.607 422.456Z" fill="#474961"/>
<path d="M418.564 331.641C419.667 332.189 420.696 332.702 421.653 333.178L421.851 336.204C422.08 340.177 422.348 343.666 422.653 346.741C422.883 349.16 425.827 376.557 426.898 386.61C427.127 388.891 428.771 390.825 431.027 391.447C434.43 392.415 436.609 392.967 445.442 393.278C446.015 393.313 446.589 393.278 447.124 393.244C455.689 392.553 459.971 391.309 460.927 390.895C462.151 390.376 462.801 390.134 463.451 389.547C465.745 387.543 465.592 384.365 465.63 383.19C465.823 375.704 466.343 355.547 466.501 338.204C466.732 338.205 466.964 338.206 467.198 338.206C469.373 338.206 471.466 337.288 473.396 335.682C475.858 333.616 484.518 326.786 485.055 312.414C485.428 302.415 483.688 294.82 479.834 289.629C479.834 289.591 475.036 282.017 472.122 282.017H429.194C426.211 282.119 412.892 282.464 389.236 283.053L389.25 283.145C389.118 283.142 388.986 283.139 388.853 283.136C379.18 282.958 371.342 290.674 371.571 300.096C371.571 300.167 371.571 300.203 371.571 300.274C372.183 329.501 379.333 371.137 379.83 385.217C379.868 385.751 380.021 386.924 380.824 388.168C383.309 391.973 389.121 391.12 402.695 391.44C414.242 391.724 418.906 392.577 421.277 389.448C422.577 387.742 422.539 385.786 422.501 384.897C421.555 367.058 420.179 349.052 418.564 331.641Z" fill="#474BFF"/>
<path opacity="0.176986" d="M418.647 331.567C419.75 332.116 420.779 332.628 421.735 333.104L419.982 306.305C419.944 304.751 419.752 295.353 427.361 289.376C432.905 285.058 439.635 284.781 444.108 284.609C450.991 284.332 456.344 286.129 457.376 286.474C458.676 286.923 459.326 287.165 459.976 287.476C467.394 291.069 466.82 308.344 466.744 311.488C466.667 315.461 466.629 321.645 466.629 328.831C466.629 331.754 466.612 334.873 466.583 338.09C466.787 338.09 466.992 338.091 467.198 338.092C469.373 338.092 471.466 337.174 473.396 335.567C475.858 333.502 484.518 326.671 485.055 312.299C485.428 302.301 483.688 294.706 479.834 289.514C479.834 289.476 475.036 281.902 472.122 281.902H429.194C426.288 282.002 413.247 282.394 390.072 283.078C392.897 283.141 395.7 283.203 398.532 283.266C407.135 283.48 414.285 289.844 415.202 298.164C416.417 308.895 417.584 320.102 418.647 331.567Z" fill="#444444"/>
<path d="M418.394 237.841C412.774 233.634 398.244 222.197 398.244 222.197C393.503 226.481 404.897 234.169 404.897 234.169" fill="#482D1F"/>
<path d="M392.453 220.571C395.305 215.805 394.487 209.535 390.206 205.679C385.341 201.297 377.846 201.69 373.466 206.556C369.086 211.423 369.479 218.921 374.343 223.303C378.524 227.068 384.647 227.308 389.067 224.212L402.647 236.444C402.961 236.727 403.444 236.701 403.727 236.387L406.029 233.829C406.312 233.515 406.287 233.031 405.973 232.749L392.453 220.571ZM388.242 219.865C385.274 223.162 380.197 223.428 376.902 220.46C373.606 217.492 373.34 212.413 376.307 209.116C379.275 205.819 384.352 205.553 387.647 208.521C390.943 211.49 391.209 216.569 388.242 219.865Z" fill="#474961"/>
<path d="M426.774 225.296C426.2 226.799 425.735 228.343 425.38 229.928C423.265 239.349 419.808 244.897 422.188 249.407C423.594 252.067 426.294 252.865 428.387 253.089L429.825 271.068C430.396 275.936 430.777 278.644 430.968 279.193C430.932 283.693 436.583 282.548 447.105 282.548C459.347 282.548 475.677 284.197 476.651 279.665C477.528 275.58 477.318 267.013 476.02 253.964C480.274 252.85 483.403 250.925 484.201 249.367C486.447 245.041 483.87 238.048 480.999 230.199C477.538 220.791 475.661 216.163 471.428 212.339C467.922 209.18 464.09 208.089 460.862 208.698C458.257 207.65 455.395 207.185 452.438 207.446L444.058 208.186C435.131 208.907 428.216 216.377 426.774 225.296Z" fill="#A339FF"/>
<path opacity="0.176986" d="M426.511 225.854C426.018 227.206 425.613 228.591 425.295 230.008C423.18 239.429 419.724 244.977 422.104 249.487C423.492 252.115 426.144 252.925 428.226 253.161L428.135 252.018L428.108 251.637L426.447 231.163L426.399 230.476C426.268 228.915 426.311 227.365 426.511 225.854Z" fill="#444444"/>
<path d="M456.121 207.494C455.459 205.272 454.508 201.6 453.266 196.477L453.156 194.321C453.233 193.901 453.304 193.887 453.686 193.772C454.68 193.504 455.215 192.859 455.903 192.094C457.165 190.64 457.509 188.498 456.897 186.548C456.132 184.673 454.144 183.258 452.309 183.411C451.621 183.488 450.971 183.755 450.359 184.138L450.321 184.176C450.13 184.367 449.862 184.406 449.594 184.444C448.944 184.444 448.409 183.985 448.371 183.335L448.027 173.351C448.027 172.701 447.53 172.242 446.88 172.242C445.465 172.242 444.088 172.166 442.674 171.86C442.482 171.86 442.33 171.821 442.177 171.821C440.8 171.668 433.421 171.209 429.444 176.679C429.1 177.215 428.756 177.75 428.488 178.286C427.8 179.663 427.494 181.193 427.609 182.799L428.03 189.761C428.106 190.449 428.182 191.138 428.335 191.864C430.171 200.471 434.071 206.438 437.359 206.629C439.041 206.667 440.724 206.476 442.368 205.979C442.572 205.876 442.443 205.956 444.741 205.027L445.209 207.558C440.644 208.302 438.104 209.755 437.826 209.897C438.639 210.795 438.752 211.098 439.455 211.666C447.309 218.015 460.057 209.655 461.665 208.584C459.705 208.079 457.855 207.726 456.121 207.494ZM422.58 260.2L421.967 264.595L391.607 270.327C390.71 270.172 389.844 270.087 389.008 270.063C386.133 269.943 383.658 270.501 381.981 270.94C377.789 270.741 373.637 270.501 369.484 270.302C366.091 269.505 358.505 268.309 358.265 273.093C358.265 273.093 361.539 273.97 365.971 275.126C367.008 275.396 368.109 275.683 369.247 275.979C375.124 278.009 382.813 282.195 387.242 283.615L432.602 282.031C431.917 281.19 431.407 280.236 431.102 279.162C430.911 278.613 430.53 275.904 429.96 271.036L429.411 264.179C437.696 268.892 445.389 272.834 452.491 276.007C456.795 277.931 462.056 279.439 466.277 280.881C476.114 282.884 477.971 279.341 479.094 278.179C480.402 276.826 484.756 272.986 482.795 250.936C479.231 253.615 470.716 256.224 462.219 253.914C460.023 253.316 458.06 252.752 456.332 252.221L456.47 253.552L411.052 234.481C410.943 234.397 410.824 234.322 410.697 234.258L397.582 228.023C396.588 227.564 395.364 227.985 394.867 228.979L394.408 229.859C393.943 230.827 394.316 231.93 395.184 232.473C394.26 232.279 393.345 232.715 392.955 233.592L392.497 234.472C392.106 235.284 392.306 236.19 392.892 236.782C392.392 236.933 391.944 237.273 391.669 237.775L391.165 238.63C390.614 239.635 391.01 240.843 391.977 241.392L398.824 245.098C407.188 250.712 415.107 255.746 422.58 260.2ZM389.582 391.116L389.236 398.684L416.027 400.754L415.911 391.586C412.98 391.778 408.822 391.474 402.776 391.325C397.15 391.192 392.857 391.261 389.582 391.116ZM431.545 391.456L430.812 403.045L458.357 399.772L457.07 391.829C454.804 392.284 451.558 392.778 447.205 393.129C446.67 393.164 446.097 393.198 445.523 393.164C437.074 392.866 434.713 392.347 431.545 391.456Z" fill="#BF865F"/>
<path d="M454.238 200.708C454.681 202.679 455.073 204.309 455.345 205.137C455.949 205.137 456.556 205.137 457.165 205.137C458.079 205.137 461.382 204.79 464.468 204.602C464.468 204.602 464.697 204.602 464.889 204.563C465.883 204.41 466.839 204.257 467.794 203.76C467.794 203.76 468.1 203.645 468.368 203.416C473.759 198.979 474.944 192.629 472.65 189.072C471.006 186.586 467.794 185.63 467.336 185.477C466.724 185.285 466.112 185.209 465.577 185.171C465.368 184.544 465.159 183.885 464.95 183.223C464.895 180.991 464.399 178.023 462.442 175.57C461.639 174.537 460.568 173.772 459.421 173.198C456.362 171.668 454.03 172.433 447.989 172.28C446.765 172.28 442.542 171.742 442.389 171.742C436.16 171.348 431.805 173.07 429.323 176.909C431.163 176.628 432.656 176.628 433.803 176.909C441.221 178.745 443.4 191.597 446.803 191.061C446.836 191.057 446.87 191.051 446.907 191.043L446.88 191.023L448.524 186.509C448.906 185.591 449.556 184.865 450.321 184.253C450.933 183.87 451.583 183.602 452.271 183.526C454.106 183.373 456.094 184.788 456.859 186.662C456.984 186.983 457.077 187.311 457.139 187.641C457.351 189.265 456.932 190.908 455.903 192.094C455.846 192.158 455.787 192.221 455.726 192.283C455.724 192.287 455.721 192.29 455.718 192.294C454.917 193.121 453.876 193.689 452.737 193.914C453.209 196.452 453.96 199.764 454.238 200.708ZM433.421 187.733C434.186 187.925 435.447 188.116 436.48 187.848C438.277 187.466 436.594 186.395 434.95 186.318C434.186 186.28 433.574 186.586 433.192 186.892C432.924 187.16 433.039 187.657 433.421 187.733ZM426.963 187.734C427.748 187.934 428.959 188.174 430.047 187.887C431.89 187.457 430.184 186.377 428.567 186.327C427.719 186.286 427.171 186.603 426.776 186.906C426.453 187.165 426.572 187.653 426.963 187.734Z" fill="#482D1F"/>
<path opacity="0.2" d="M423.169 260.436C422.982 260.327 422.794 260.217 422.607 260.107L421.965 264.632L391.61 270.328C390.713 270.172 389.845 270.087 389.008 270.063C386.134 269.943 383.658 270.501 381.981 270.94C377.789 270.74 373.637 270.501 369.485 270.302C366.091 269.505 358.505 268.309 358.266 273.093C358.266 273.093 361.539 273.97 365.971 275.126C367.008 275.396 368.109 275.683 369.247 275.979C375.124 278.009 382.814 282.195 387.242 283.614L432.603 282.031C431.918 281.19 431.407 280.236 431.103 279.162C430.911 278.613 430.53 275.904 429.96 271.036L429.446 264.609L429.41 264.463L429.434 264.458L429.411 264.18L423.169 260.436Z" fill="#8C2A00"/>
<path d="M341.036 259.083C340.689 260.257 341.335 261.466 342.509 261.813L395.049 277.963C396.222 278.31 397.431 277.663 397.778 276.489C398.125 275.315 397.479 274.105 396.305 273.758L343.766 257.609C342.63 257.263 341.383 257.908 341.036 259.083Z" fill="#474961"/>
<path d="M444.756 204.979L447.753 203.639L445.319 208.107L444.756 204.979Z" fill="#482D1F"/>
<path d="M429.75 192.4C430.094 191.941 429.979 190.908 429.865 190.219C429.826 189.722 429.368 189.416 428.947 189.416C428.679 189.454 428.335 189.607 428.259 190.143C427.991 191.405 429.291 193.164 429.75 192.4ZM436.059 192.438C436.441 191.979 436.288 190.908 436.173 190.258C436.135 189.76 435.676 189.454 435.256 189.454C434.988 189.493 434.644 189.646 434.568 190.181C434.3 191.443 435.562 193.203 436.059 192.438Z" fill="#482D1F"/>
<path d="M430.416 191.764L430.074 189.537C430.042 189.328 430.186 189.133 430.394 189.101C430.603 189.069 430.798 189.212 430.83 189.421L431.176 191.672L431.18 191.719L431.288 195.772C431.304 195.817 431.34 195.846 431.39 195.85C431.852 195.792 432.448 195.736 433.178 195.683C433.389 195.668 433.572 195.827 433.587 196.037C433.602 196.248 433.444 196.431 433.233 196.446C432.502 196.499 431.91 196.555 431.46 196.613L431.418 196.616C430.972 196.623 430.609 196.312 430.531 195.891L430.525 195.831L430.416 191.764Z" fill="#482D1F"/>
<path d="M433.497 199.552C433.765 199.514 434.453 199.361 434.606 198.94C434.606 198.864 434.682 198.749 434.644 198.673C434.529 198.481 433.344 198.481 433.344 198.481C431.776 198.52 431.394 198.443 431.279 198.634C431.241 198.749 431.241 198.902 431.509 199.246C431.853 199.897 433.115 199.667 433.497 199.552Z" fill="#482D1F"/>
<path d="M456.662 251.826L454.568 232.49C454.534 232.175 454.762 231.892 455.077 231.857C455.392 231.823 455.675 232.051 455.709 232.366L457.802 251.702C457.836 252.017 457.609 252.3 457.294 252.334C456.979 252.369 456.696 252.141 456.662 251.826Z" fill="#482D1F"/>
<path d="M285.186 422.28H232.148C231.18 422.28 230.406 423.045 230.406 424.001C230.406 424.957 231.18 425.722 232.148 425.722H293.664H337.465C338.421 425.722 339.185 424.957 339.185 424.001C339.185 423.045 338.421 422.28 337.465 422.28H285.186Z" fill="#DE3190"/>
<path d="M337.979 422.317C338.057 422.164 338.117 421.997 338.153 421.821V421.783C338.153 421.591 338.192 421.4 338.153 421.209C338.115 420.979 338.115 420.788 338.039 420.559C337.542 418.837 336.203 417.384 335.324 416.581C335.209 416.466 335.133 416.428 335.018 416.351C333.336 415.318 331.615 414.362 329.818 413.559C326.3 411.952 318.5 408.663 316.168 407.477C313.147 405.947 308.98 403.346 304.621 398.68C304.277 398.412 303.894 398.297 303.474 398.297L277.206 398.45C276.097 398.45 275.218 399.368 275.294 400.516L275.542 409.627C274.429 409.101 273.298 408.519 272.026 407.783C270.218 406.75 267.679 405.067 264.832 402.543C263.255 401.166 261.639 399.789 260.062 398.412L236.249 398.106L231.276 422.606C231.563 422.401 231.917 422.28 232.301 422.28H285.34H337.618C337.742 422.28 337.863 422.293 337.979 422.317Z" fill="#474961"/>
<path opacity="0.176986" d="M293.264 422.28H337.559C337.658 422.105 337.732 421.912 337.775 421.706V421.668C337.775 421.476 337.813 421.285 337.775 421.094C337.737 420.864 337.737 420.673 337.66 420.444C337.163 418.722 335.825 417.269 334.946 416.466C334.831 416.351 334.755 416.313 334.64 416.236C332.957 415.203 331.237 414.247 329.44 413.444C325.922 411.837 318.122 408.548 315.79 407.362C312.769 405.832 308.602 403.231 304.243 398.565C303.899 398.297 303.516 398.182 303.096 398.182L276.828 398.335C275.719 398.335 275.213 399.141 275.289 400.288L275.547 409.823C278.177 411.041 280.806 412.018 285.087 414.056C286.922 414.936 288.681 415.93 290.402 417.039C291.243 417.804 292.696 419.373 293.155 421.209C293.231 421.515 293.231 421.821 293.269 422.088C293.269 422.153 293.267 422.217 293.264 422.28Z" fill="#444444"/>
<path d="M280.585 403.624C280.716 403.639 280.849 403.646 280.983 403.646L305.812 403.38H307.819C309.792 403.38 311.458 401.858 311.56 399.604C311.798 395.056 312.105 389.07 312.479 382.152C313.499 364.699 314.043 359.141 314.656 345.692C314.758 343.438 314.86 341.417 314.928 339.512C315.2 330.456 315.914 321.982 317.308 310.904C318.091 304.763 318.465 300.954 318.499 297.728C318.533 294.735 317.751 291.781 316.254 289.332C315.506 288.127 314.656 287.078 313.635 286.184C311.016 283.89 307.513 281.947 304.724 282.141C297.495 282.175 290.266 282.18 283.037 282.206C281.523 281.846 279.834 281.669 277.97 281.673L274.345 281.711C274.366 281.668 259.102 281.587 228.555 281.469C219.093 274.038 208.637 270.922 197.189 272.121C192.62 272.6 188.479 273.904 184.768 276.035C180.672 278.355 177.095 281.675 174.037 285.995C172.152 287.967 166.493 296.968 167.617 310.676C167.834 313.201 168.306 318.824 171.351 324.179C174.541 329.763 178.456 333.856 185.017 336.189C190.817 338.255 197.596 338.981 204.629 338.178C214.537 336.291 225.997 334.723 239.008 333.473C235.495 343.093 233.218 349.139 232.179 351.612C230.62 355.284 226.389 371.138 224.799 383.283C224.022 389.223 224.293 394.475 225.614 399.039C226.419 401.822 228.968 403.737 231.864 403.734L264.406 403.7L279.015 403.624H280.585Z" fill="#FF8200"/>
<path opacity="0.176986" d="M282.51 282.208C285.735 282.896 288.196 284.379 289.892 286.655C293.555 291.57 292.5 296.294 292.5 299.201V299.393C292.464 302.567 292.065 306.316 291.267 312.359C289.781 323.261 289.02 331.561 288.73 340.511C288.657 342.347 288.549 344.375 288.44 346.593C287.824 359.789 287.207 365.259 286.12 382.472C285.685 389.28 285.359 395.132 285.141 399.646C285.032 401.864 283.256 403.624 281.154 403.624H280.574C280.708 403.643 280.845 403.652 280.983 403.652L305.812 403.38H307.819C309.792 403.38 311.56 401.746 311.56 399.234C311.798 394.701 312.105 388.734 312.479 381.837C313.499 364.44 314.043 358.899 314.656 345.493C314.758 343.245 314.86 341.23 314.928 339.332C315.2 330.304 315.914 321.857 317.308 310.814C318.091 304.692 318.465 300.895 318.499 297.679C318.533 294.695 317.751 291.751 316.254 289.309C315.506 288.108 314.656 287.062 313.635 286.171C311.016 283.885 307.513 281.948 304.724 282.141C297.319 282.176 289.915 282.18 282.51 282.208Z" fill="#444444"/>
<path d="M223.225 211.738C226.552 214.334 229.238 218.328 229.742 219.793C233.917 231.941 238.946 231.46 239.347 234.091C239.948 238.028 235.341 238.507 235.341 238.507C233.201 238.712 231.574 238.869 230.461 238.976L230.196 249.842L230.171 250.226L229.726 269.263L229.626 272.979C229.637 273.285 229.608 273.554 229.58 273.861C229.554 274.207 229.527 274.514 229.5 274.859C229.417 275.742 229.255 276.59 229.017 277.44C228.914 277.788 228.85 278.135 228.709 278.484C196.891 279.596 180.885 277.374 180.691 271.818L181.484 238.658L176.658 238.495C176.658 238.495 171.414 238.141 172.013 234.181C172.413 231.534 178.165 231.75 182.664 219.409C183.281 217.714 187.057 212.601 191.519 209.969C191.66 209.885 191.802 209.805 191.944 209.726C194.989 208.005 198.523 207.059 202.269 207.148L211.076 207.376C215.692 207.468 219.899 209.088 223.225 211.738Z" fill="#DE3190"/>
<path opacity="0.176986" d="M227.366 215.941C228.628 217.553 229.508 219.039 229.775 219.815C233.95 231.963 238.946 231.459 239.347 234.091C239.948 238.028 235.395 238.495 235.395 238.495L230.585 238.96L230.842 228.447L230.856 227.757C230.975 223.377 229.674 219.293 227.366 215.941Z" fill="#444444"/>
<mask id="mask0" mask-type="alpha" maskUnits="userSpaceOnUse" x="165" y="170" width="114" height="112">
<path d="M205.606 191.389C205.536 191.325 205.468 191.259 205.401 191.189C204.19 189.912 203.481 187.883 204.149 185.922C204.771 184.032 206.624 182.502 208.461 182.579C209.496 182.611 212.274 183.247 212.256 182.325L212.054 172.569C212.042 171.954 212.52 171.429 213.137 171.417C214.488 171.367 215.813 171.199 217.237 170.812C217.394 170.79 217.55 170.768 217.706 170.746C218.997 170.536 226.241 169.647 230.393 174.759C230.771 175.181 231.103 175.676 231.428 176.247C232.174 177.552 232.555 179.048 232.547 180.58L232.52 187.4C232.486 188.086 232.452 188.773 232.342 189.451C231.025 197.937 227.509 203.931 224.319 204.287C223.927 204.361 221.876 204.491 219.436 203.928C219.214 203.867 219.391 203.961 216.21 202.843L215.684 208.018C214.166 207.622 212.575 207.396 210.932 207.364L204.363 207.194L205.193 199.322L205.552 195.91L205.606 191.389ZM229.799 265.142L230.121 251.42L230.155 250.132L230.174 249.837L230.328 243.542L230.448 238.987L233.557 238.688L244.286 267.898C245.289 268.087 246.449 268.324 247.809 268.613C249.997 268.601 251.808 268.652 253.242 268.764C259.05 269.218 264.041 269.407 269.884 272.881C280.536 279.213 281.366 282.129 272.375 281.628L254.036 281.521C253.808 281.605 253.58 281.659 253.352 281.679C253.352 281.679 226.552 281.443 172.953 280.971C170.797 280.952 168.773 279.931 167.474 278.21C166.85 277.381 166.396 275.866 166.114 273.664C165.238 269.017 167.74 262.362 172.493 249.435C174.005 245.336 175.437 241.61 176.784 238.299L206.411 239.42C204.126 245.1 200.094 258.609 198.952 260.68C198.949 260.681 198.947 260.682 198.944 260.683C207.476 261.833 217.698 263.259 229.799 265.142Z" fill="white"/>
</mask>
<g mask="url(#mask0)">
<path d="M205.606 191.389C205.536 191.325 205.468 191.259 205.401 191.189C204.19 189.912 203.481 187.883 204.149 185.922C204.771 184.032 206.624 182.502 208.461 182.579C209.496 182.611 212.274 183.247 212.256 182.325L212.054 172.569C212.042 171.954 212.52 171.429 213.137 171.417C214.488 171.367 215.813 171.199 217.237 170.812C217.394 170.79 217.55 170.768 217.706 170.746C218.997 170.536 226.241 169.647 230.393 174.759C230.771 175.181 231.103 175.676 231.428 176.247C232.174 177.552 232.555 179.048 232.547 180.58L232.52 187.4C232.486 188.086 232.452 188.773 232.342 189.451C231.025 197.937 227.509 203.931 224.319 204.287C223.927 204.361 221.876 204.491 219.436 203.928C219.214 203.867 219.391 203.961 216.21 202.843L215.684 208.018C214.166 207.622 212.575 207.396 210.932 207.364L204.363 207.194L205.193 199.322L205.552 195.91L205.606 191.389ZM229.799 265.142L230.121 251.42L230.155 250.132L230.174 249.837L230.328 243.542L230.448 238.987L233.557 238.688L244.286 267.898C245.289 268.087 246.449 268.324 247.809 268.613C249.997 268.601 251.808 268.652 253.242 268.764C259.05 269.218 264.041 269.407 269.884 272.881C280.536 279.213 281.366 282.129 272.375 281.628L254.036 281.521C253.808 281.605 253.58 281.659 253.352 281.679C253.352 281.679 226.552 281.443 172.953 280.971C170.797 280.952 168.773 279.931 167.474 278.21C166.85 277.381 166.396 275.866 166.114 273.664C165.238 269.017 167.74 262.362 172.493 249.435C174.005 245.336 175.437 241.61 176.784 238.299L206.411 239.42C204.126 245.1 200.094 258.609 198.952 260.68C198.949 260.681 198.947 260.682 198.944 260.683C207.476 261.833 217.698 263.259 229.799 265.142Z" fill="#F2A98A"/>
<path d="M215.926 205.677L212.373 201.17L216.222 202.842L215.926 205.677Z" fill="#482D1F"/>
<path d="M212.864 185.385C212.708 185.101 212.108 184.109 211.014 183.341C210.908 183.253 210.078 182.743 209.043 182.711C207.206 182.633 205.353 184.169 204.731 186.065C204.062 188.033 204.733 190.065 205.944 191.346C206.879 192.335 208.015 192.727 208.709 192.895C208.703 194.194 208.729 195.606 208.79 197.129C205.825 196.935 203.212 195.643 200.951 193.251C200.017 192.268 197.535 189.546 196.761 185.195C196.673 184.642 196.496 183.585 196.481 182.276C190.597 182.373 185.839 179.744 184.089 176.014C182.459 172.501 183.591 168.296 183.752 167.7C185.366 161.708 190.8 161.777 191.265 161.765C191.265 161.765 199.099 159.043 205.292 171.578C205.296 171.587 205.3 171.595 205.304 171.603C207.079 171.464 209.233 171.589 212.514 171.39C213.712 171.324 215.461 171.031 217.608 170.718C217.761 170.734 219.596 170.548 219.753 170.526C220.528 170.526 223.127 170.281 226.488 171.786C229.849 173.292 231.09 175.556 231.04 175.651C230.944 175.833 229.228 176.609 228.203 176.848C225.327 177.507 222.829 177.129 221.294 176.737C220.89 177.656 220.318 178.711 219.556 179.746C217.349 182.822 214.567 184.414 212.832 185.193C212.843 185.257 212.853 185.321 212.864 185.385Z" fill="#482D1F"/>
<path d="M230.02 187.033C230.064 186.51 230.481 186.12 231.006 186.123C231.327 186.101 231.625 186.32 231.785 186.87C232.121 188.207 230.848 190.217 230.267 189.418C229.91 188.922 229.99 187.756 230.02 187.033ZM221.575 186.857C221.62 186.333 222.036 185.944 222.561 185.947C222.883 185.925 223.181 186.144 223.34 186.693C223.676 188.031 222.404 190.041 221.823 189.241C221.465 188.746 221.545 187.58 221.575 186.857Z" fill="#482D1F"/>
<path d="M228.058 187.442L228.66 191.118C228.694 191.585 228.369 192.04 227.923 192.072C227.661 192.111 227.492 192.123 226.812 192.158C226.508 192.173 226.3 192.185 226.054 192.202C225.844 192.217 225.661 192.058 225.646 191.848C225.632 191.637 225.79 191.454 226.001 191.439C226.252 191.422 226.465 191.409 226.773 191.394C227.426 191.36 227.584 191.349 227.842 191.312C227.859 191.309 227.904 191.246 227.901 191.206L227.303 187.566C227.269 187.357 227.411 187.161 227.619 187.126C227.827 187.092 228.024 187.234 228.058 187.442Z" fill="#482D1F"/>
<path d="M225.649 194.545C225.389 194.48 224.751 194.231 224.649 193.818C224.643 193.735 224.598 193.612 224.631 193.568C224.762 193.349 225.246 193.483 225.909 193.562C227.087 193.69 228.069 193.621 228.069 193.621C228.069 193.621 227.791 194.354 227.624 194.575C227.259 195.104 226.061 194.684 225.649 194.545Z" fill="#482D1F"/>
<path d="M215.842 185.261C216.525 183.299 218.323 181.832 220.526 181.678C223.475 181.472 226.033 183.696 226.239 186.646C226.242 186.689 226.245 186.731 226.247 186.774C226.295 186.765 226.345 186.761 226.396 186.765L227.473 186.84C227.709 184.273 229.776 182.181 232.43 181.995C235.379 181.789 237.937 184.014 238.143 186.964C238.35 189.914 236.126 192.473 233.177 192.679C230.322 192.879 227.834 190.801 227.491 187.992L226.316 187.91C226.27 187.906 226.226 187.898 226.183 187.884C225.793 190.281 223.799 192.185 221.273 192.362C218.324 192.568 215.766 190.344 215.56 187.393C215.535 187.049 215.545 186.71 215.584 186.379L212.8 185.695C212.492 185.62 212.304 185.309 212.38 185.001C212.455 184.694 212.766 184.505 213.074 184.581L215.842 185.261ZM228.601 187.514C228.603 187.553 228.605 187.592 228.608 187.631C228.77 189.949 230.78 191.697 233.097 191.535C235.414 191.372 237.161 189.362 236.999 187.044C236.837 184.726 234.827 182.978 232.51 183.14C230.282 183.296 228.581 185.161 228.598 187.365C228.604 187.407 228.606 187.45 228.603 187.494C228.603 187.501 228.602 187.507 228.601 187.514ZM221.193 191.217C223.51 191.055 225.257 189.044 225.095 186.726C224.933 184.408 222.923 182.66 220.606 182.823C218.289 182.985 216.542 184.995 216.704 187.313C216.866 189.631 218.876 191.379 221.193 191.217Z" fill="#482D1F"/>
<path d="M194.644 263.944C194.366 264.096 194.017 263.993 193.866 263.715C193.714 263.437 193.816 263.089 194.094 262.937L198.874 260.327C199.152 260.176 199.5 260.278 199.652 260.556C199.804 260.834 199.701 261.183 199.423 261.335L194.644 263.944ZM206.788 239.83C206.664 240.122 206.327 240.258 206.036 240.134C205.744 240.01 205.608 239.674 205.732 239.382L210.853 227.307C210.976 227.016 211.313 226.879 211.604 227.003C211.896 227.127 212.032 227.464 211.908 227.756L206.788 239.83Z" fill="#482D1F"/>
<path opacity="0.2" d="M229.794 265.252L230.145 250.261L230.169 249.877L230.435 238.981L233.546 238.68L244.254 267.969L229.794 265.252Z" fill="#8C2A00"/>
</g>
<path d="M239.575 333.783L250.666 322.14C250.884 321.911 250.875 321.547 250.646 321.329C250.417 321.11 250.054 321.119 249.835 321.348L238.744 332.991C238.526 333.221 238.535 333.584 238.764 333.802C238.993 334.021 239.356 334.012 239.575 333.783Z" fill="#482D1F"/>
<path d="M478.706 281.138H172.823C171.345 281.138 170.147 282.336 170.147 283.815C170.147 285.294 171.345 286.493 172.823 286.493H478.706C480.184 286.493 481.382 285.294 481.382 283.815C481.382 282.336 480.184 281.138 478.706 281.138Z" fill="#D8DEED"/>
<path d="M495.912 40.9277H370.118C365.894 40.9277 362.471 44.3528 362.471 48.5777V141.525C362.471 145.75 365.894 149.175 370.118 149.175H495.912C500.135 149.175 503.559 145.75 503.559 141.525V48.5777C503.559 44.3528 500.135 40.9277 495.912 40.9277Z" fill="#F2F6FB"/>
<path d="M372.731 77.3208H421.56C422.615 77.3208 423.471 78.1771 423.471 79.2333V80.6477C423.471 81.7039 422.615 82.5602 421.56 82.5602H372.731C371.675 82.5602 370.819 81.7039 370.819 80.6477V79.2333C370.819 78.1771 371.675 77.3208 372.731 77.3208ZM372.731 85.8348H428.141C429.197 85.8348 430.053 86.691 430.053 87.7473V89.1616C430.053 90.2179 429.197 91.0742 428.141 91.0742H372.731C371.675 91.0742 370.819 90.2179 370.819 89.1616V87.7473C370.819 86.691 371.675 85.8348 372.731 85.8348ZM372.731 102.863H434.723C435.779 102.863 436.635 103.719 436.635 104.775V106.19C436.635 107.246 435.779 108.102 434.723 108.102H372.731C371.675 108.102 370.819 107.246 370.819 106.19V104.775C370.819 103.719 371.675 102.863 372.731 102.863ZM372.731 111.377H414.978C416.034 111.377 416.89 112.233 416.89 113.289V114.704C416.89 115.76 416.034 116.616 414.978 116.616H372.731C371.675 116.616 370.819 115.76 370.819 114.704V113.289C370.819 112.233 371.675 111.377 372.731 111.377ZM372.731 119.891H428.141C429.197 119.891 430.053 120.747 430.053 121.803V123.218C430.053 124.274 429.197 125.13 428.141 125.13H372.731C371.675 125.13 370.819 124.274 370.819 123.218V121.803C370.819 120.747 371.675 119.891 372.731 119.891ZM372.731 128.405H434.723C435.779 128.405 436.635 129.261 436.635 130.317V131.732C436.635 132.788 435.779 133.644 434.723 133.644H372.731C371.675 133.644 370.819 132.788 370.819 131.732V130.317C370.819 129.261 371.675 128.405 372.731 128.405Z" fill="#E1E5F0"/>
<path d="M434.723 69.0332H372.731C371.675 69.0332 370.819 69.8895 370.819 70.9457V71.9957C370.819 73.0519 371.675 73.9082 372.731 73.9082H434.723C435.779 73.9082 436.635 73.0519 436.635 71.9957V70.9457C436.635 69.8895 435.779 69.0332 434.723 69.0332Z" fill="#D8DEED"/>
<path d="M454.147 77.3208H496.638C497.694 77.3208 498.55 78.1771 498.55 79.2333V80.7189C498.55 81.7752 497.694 82.6314 496.638 82.6314H454.147C453.091 82.6314 452.235 81.7752 452.235 80.7189V79.2333C452.235 78.1771 453.091 77.3208 454.147 77.3208ZM454.147 85.9506H483.405C484.461 85.9506 485.317 86.8068 485.317 87.8631V89.3487C485.317 90.4049 484.461 91.2612 483.405 91.2612H454.147C453.091 91.2612 452.235 90.4049 452.235 89.3487V87.8631C452.235 86.8068 453.091 85.9506 454.147 85.9506ZM454.147 94.5803H490.021C491.077 94.5803 491.933 95.4366 491.933 96.4928V97.9784C491.933 99.0347 491.077 99.8909 490.021 99.8909H454.147C453.091 99.8909 452.235 99.0347 452.235 97.9784V96.4928C452.235 95.4366 453.091 94.5803 454.147 94.5803ZM454.147 103.21H476.789C477.845 103.21 478.7 104.066 478.7 105.123V106.608C478.7 107.664 477.845 108.521 476.789 108.521H454.147C453.091 108.521 452.235 107.664 452.235 106.608V105.123C452.235 104.066 453.091 103.21 454.147 103.21Z" fill="#E1E5F0"/>
<path d="M362.471 47.0497C362.471 43.6686 365.21 40.9277 368.59 40.9277H497.44C500.819 40.9277 503.559 43.6679 503.559 47.0497V53.1717H362.471V47.0497Z" fill="#E1E5F0"/>
</g>
<defs>
<clipPath id="clip0">
<rect width="650" height="459" fill="white"/>
</clipPath>
</defs>
</svg>
