<svg width="74" height="71" viewBox="0 0 74 71" fill="none" xmlns="http://www.w3.org/2000/svg">
<path d="M59.3032 5.3291H72.8548V19.3335H59.3032V5.3291Z" fill="#E9785A"/>
<path d="M59.3032 5.3291H72.8548V19.3335H59.3032V5.3291Z" fill="#F68A5D"/>
<path d="M50.2822 2.56836H63.9904V16.573H50.2822V2.56836Z" fill="#FCE0C3"/>
<path d="M47.9385 0.0712891H52.6259V30.7214H47.9385V0.0712891Z" fill="#ECECEF"/>
<path d="M5.1123 52.1777H27.6165V68.6753H5.1123V52.1777Z" fill="#A9DBF5"/>
<path d="M16.3645 52.1777H27.6166V68.6753H16.3645V52.1777Z" fill="#43809F"/>
<path d="M24.4917 40.415H48.5582V68.6763H24.4917V40.415Z" fill="#BFFAC4"/>
<path d="M36.5249 40.415H48.5583V68.6763H36.5249V40.415Z" fill="#9ED2A7"/>
<path d="M45.4331 28.6514H67.9373V68.6753H45.4331V28.6514Z" fill="#FFD321"/>
<path d="M56.6855 28.6514H67.9377V68.6753H56.6855V28.6514Z" fill="#FFAF00"/>
<path d="M0 66.6035H73.0496V70.7444H0V66.6035Z" fill="#595959"/>
<path d="M36.5249 66.6035H73.0498V70.7444H36.5249V66.6035Z" fill="#454040"/>
<path d="M56.6855 2.56836H63.9908V16.573H56.6855V2.56836Z" fill="#E9785A"/>
</svg>
