<svg width="100" height="100" viewBox="0 0 100 100" fill="none" xmlns="http://www.w3.org/2000/svg">
<g clip-path="url(#clip0)">
<path d="M53.884 9.72412C60.5639 9.72412 65.9789 13.1485 65.9789 17.3726C65.9789 18.5868 65.5295 19.7343 64.7332 20.754V24.1028H59.6338C57.9237 24.6882 55.9653 25.021 53.8842 25.021C47.2043 25.021 41.7893 21.5966 41.7893 17.3726C41.7889 13.1485 47.2041 9.72412 53.884 9.72412Z" fill="#BEEBFA"/>
<path d="M54.8722 90.0065C52.9095 89.2292 51.9486 87.0079 52.7259 85.0452L61.4101 64.4854C61.9874 63.0276 63.3966 62.0874 64.9638 62.0874C64.9677 62.0874 64.9712 62.0874 64.9751 62.0874H82.3546C84.4655 62.0935 86.172 63.8437 86.1657 65.9548C86.1595 68.062 84.4493 69.7659 82.3437 69.7659C82.3398 69.7659 82.336 69.7659 82.3321 69.7659L67.5583 69.7661L59.8337 87.86C59.0562 89.8229 56.8347 90.7837 54.8722 90.0065Z" fill="#414B82"/>
<path d="M73.358 90.0069C75.3209 89.2302 76.2825 87.0091 75.5059 85.0462L68.9045 69.7661L80.643 69.7659C80.6467 69.7659 80.6506 69.7659 80.6545 69.7659C82.7604 69.7659 84.4705 68.062 84.4766 65.9548C84.4828 63.8436 82.7764 62.0937 80.6655 62.0874H63.286C63.2823 62.0874 63.2785 62.0874 63.2746 62.0874C60.5805 62.0874 58.7284 64.7917 59.7205 67.2993L68.3975 87.8591C69.1741 89.8218 71.3949 90.7837 73.358 90.0069Z" fill="#5F6E9B"/>
<path d="M72.1902 69.7658H81.9754C83.3943 69.7764 84.7592 69.3604 85.7676 68.3621C86.776 67.3639 87.3453 66.0049 87.3492 64.5858L87.3916 49.1211C87.4037 44.7164 83.8186 41.1326 79.3996 41.1643L77.1199 41.1805C75.6973 41.1906 74.3375 41.7686 73.3432 42.7861C72.3488 43.8037 72.1678 45.1762 72.1902 46.5986V69.7658Z" fill="#64AFFF"/>
<path d="M72.5096 58.4766L60.8582 57.1705C59.11 56.9746 57.8514 55.3984 58.0475 53.6502C58.2436 51.902 59.8213 50.6436 61.5678 50.8395L71.3537 51.9363L77.1926 43.7131C78.2112 42.2787 80.1996 41.9414 81.634 42.96C83.0684 43.9785 83.4055 45.967 82.3871 47.4014L75.4617 57.1551C74.7938 58.0953 73.6662 58.6059 72.5096 58.4766Z" fill="#FFB69E"/>
<path d="M81.6333 42.96C80.1989 41.9415 78.2104 42.2786 77.1918 43.713L72.9729 49.6548L78.3561 53.0774L82.3864 47.4012C83.4049 45.9671 83.0676 43.9786 81.6333 42.96Z" fill="#4699F2"/>
<path d="M76.7905 38.7959C80.6813 38.7959 83.8354 35.6418 83.8354 31.751C83.8354 27.8602 80.6813 24.7061 76.7905 24.7061C72.8997 24.7061 69.7456 27.8602 69.7456 31.751C69.7456 35.6418 72.8997 38.7959 76.7905 38.7959Z" fill="#FFB69E"/>
<path d="M86.4586 90.2758H90.3203C90.9307 90.2758 91.4254 89.7811 91.4254 89.1707V86.252H85.3535V89.1707C85.3535 89.7811 85.8482 90.2758 86.4586 90.2758Z" fill="#69280F"/>
<path d="M73.7909 90.2758H77.6526C78.2629 90.2758 78.7577 89.7811 78.7577 89.1707V86.252H72.6858V89.1707C72.6858 89.7811 73.1807 90.2758 73.7909 90.2758Z" fill="#69280F"/>
<path d="M68.873 84.6062C68.873 85.7782 69.8232 86.7282 70.9951 86.7282H92.4658C93.9492 86.7282 95.2021 85.6271 95.3926 84.156L99.9779 48.7458C100.181 47.1796 98.9607 45.7856 97.3765 45.7856H91.6838C90.3625 45.7856 89.2474 46.7685 89.0814 48.0792L86.3351 69.7655H70.9953C69.8232 69.7655 68.8732 70.7157 68.8732 71.8876L68.873 84.6062Z" fill="#823214"/>
<path d="M34.3275 53.0575L23.7642 46.3024C22.3049 45.3692 21.8785 43.4296 22.8115 41.9704C23.7447 40.511 25.684 40.0845 27.1437 41.0179L35.7773 46.5388L44.9185 38.9556C46.2517 37.8495 48.2291 38.0337 49.3351 39.3669C50.4412 40.7001 50.257 42.6774 48.9238 43.7835L38.0201 52.829C36.9681 53.7016 35.4754 53.7915 34.3275 53.0575Z" fill="#BA6746"/>
<path d="M34.3217 45.6082L27.1438 41.018C25.6842 40.0846 23.7448 40.5113 22.8116 41.9707C21.8784 43.4301 22.3049 45.3695 23.7643 46.3029L31.5005 51.25L34.3217 45.6082Z" fill="#EE2D3C"/>
<path d="M13.3447 90.2758H9.48276C8.87241 90.2758 8.37769 89.7811 8.37769 89.1707V86.252H14.4496V89.1707C14.4498 89.7811 13.9548 90.2758 13.3447 90.2758Z" fill="#69280F"/>
<path d="M26.0127 90.2758H22.151C21.5406 90.2758 21.0459 89.7811 21.0459 89.1707V86.252H27.1178V89.1707C27.1176 89.7811 26.6229 90.2758 26.0127 90.2758Z" fill="#69280F"/>
<path d="M33.9339 86.8792L32.1333 70.5029L16.5704 69.02C14.5011 68.8228 12.9835 66.9855 13.1805 64.9163C13.3778 62.847 15.2169 61.3294 17.2843 61.5265L35.8966 63.3001C37.6727 63.4693 39.0858 64.8622 39.2807 66.6355L41.4161 86.0568C41.6432 88.123 40.1526 89.9822 38.0862 90.2095C36.0192 90.4365 34.1608 88.9445 33.9339 86.8792Z" fill="#5F6E9B"/>
<path d="M18.5169 69.7854H27.7647L29.462 45.4024C29.6413 42.8284 27.7019 40.5956 25.128 40.413L17.2737 39.8556C16.3294 39.7886 15.3755 39.9737 14.5524 40.4415C13.0466 41.2972 12.164 42.8782 12.1766 44.5495L12.614 64.0136C12.6854 67.2218 15.3073 69.7854 18.5169 69.7854Z" fill="#FF3C3C"/>
<path d="M22.7803 37.4951C26.6037 37.4951 29.7031 34.3956 29.7031 30.5723C29.7031 26.7489 26.6037 23.6494 22.7803 23.6494C18.9569 23.6494 15.8574 26.7489 15.8574 30.5723C15.8574 34.3956 18.9569 37.4951 22.7803 37.4951Z" fill="#BA6746"/>
<path d="M31.1265 84.7129C31.1265 85.8849 30.1763 86.8349 29.0045 86.8349H7.53377C6.05037 86.8349 4.79744 85.7338 4.60701 84.2627L0.0216566 48.8539C-0.181664 47.2838 1.04099 45.8926 2.6242 45.8926H8.31502C9.63689 45.8926 10.7523 46.8758 10.9183 48.1871L13.6646 69.7857H29.0045C30.1765 69.7857 31.1265 70.8226 31.1265 71.9947V84.7129Z" fill="#823214"/>
<path d="M18.7203 51.8708L12.0312 47.2099L17.4414 46.0052C19.1176 45.5681 20.1219 43.855 19.685 42.1788C19.2477 40.5027 17.5344 39.4982 15.8584 39.9353C2.93164 43.0859 3.80332 42.8616 3.54082 42.9609C1.1955 43.8484 0.793746 47.0325 2.86113 48.4657L15.1342 57.0175C16.5498 58.0038 18.5062 57.6642 19.5008 56.2372C20.4908 54.8163 20.1416 52.8612 18.7203 51.8708Z" fill="#BA6746"/>
<path d="M19.6852 42.1788C19.2479 40.5027 17.5346 39.4982 15.8586 39.9353L5.34985 42.4952L12.1854 47.1755L17.4417 46.0052C19.1176 45.5681 20.1223 43.855 19.6852 42.1788Z" fill="#EE2D3C"/>
</g>
<defs>
<clipPath id="clip0">
<rect width="100" height="100" fill="white"/>
</clipPath>
</defs>
</svg>
