<svg width="123" height="92" viewBox="0 0 123 92" fill="none" xmlns="http://www.w3.org/2000/svg">
<path d="M5.06662 72.8106C4.69478 72.7944 4.39479 72.2752 4.19876 71.4638C4.07994 70.9527 3.78383 70.477 3.34409 70.0907C2.90435 69.7044 2.33862 69.4231 1.71121 69.2786C0.715233 69.0521 0.0959415 68.7546 0.112414 68.4586C0.128886 68.1626 0.778216 67.9202 1.79454 67.7811C2.43496 67.6916 3.0292 67.4606 3.50971 67.1143C3.99022 66.768 4.33772 66.3202 4.51271 65.822C4.78694 65.0309 5.15407 64.5407 5.52591 64.5568C5.89774 64.573 6.20867 65.0927 6.39376 65.9037C6.51138 66.4109 6.80313 66.8836 7.23654 67.2692C7.66994 67.6547 8.22798 67.938 8.84851 68.0874C9.85494 68.3231 10.4747 68.6118 10.4582 68.9079C10.4418 69.2039 9.79244 69.4462 8.76518 69.5849C8.12568 69.6739 7.53248 69.905 7.05363 70.2516C6.57479 70.5982 6.2297 71.0463 6.05795 71.5445C5.80559 72.3365 5.43846 72.8267 5.06662 72.8106ZM114.032 23.8423C113.431 23.8162 112.984 22.9851 112.629 21.6693C112.436 20.8448 111.956 20.0777 111.245 19.4557C110.533 18.8337 109.618 18.3819 108.604 18.1519C106.992 17.7764 105.998 17.3056 106.025 16.8268C106.052 16.3479 107.093 15.9568 108.739 15.7315C109.773 15.5883 110.732 15.2159 111.508 14.657C112.283 14.0981 112.844 13.3751 113.125 12.5706C113.58 11.29 114.171 10.504 114.773 10.5301C115.374 10.5563 115.822 11.3873 116.176 12.7031C116.367 13.5277 116.845 14.2952 117.555 14.9185C118.264 15.5418 119.177 15.9957 120.189 16.2288C121.802 16.5956 122.806 17.0755 122.78 17.5544C122.753 18.0332 121.703 18.3804 120.055 18.6492C119.022 18.7918 118.064 19.1629 117.289 19.7202C116.513 20.2775 115.952 20.9986 115.67 21.8014C115.215 23.082 114.634 23.8684 114.032 23.8423ZM73.2144 91.6715C72.8098 91.654 72.4789 91.0985 72.2758 90.2169C72.1468 89.6653 71.8268 89.1519 71.352 88.7349C70.8773 88.3179 70.2668 88.0139 69.5897 87.8573C68.5072 87.6096 67.8342 87.2923 67.8521 86.9702C67.87 86.648 68.575 86.3906 69.6798 86.2379C70.3749 86.1438 71.0207 85.8956 71.5436 85.5217C72.0665 85.1478 72.4453 84.6633 72.6368 84.1233C72.9368 83.2636 73.3277 82.7395 73.7324 82.7571C74.137 82.7746 74.4679 83.3301 74.671 84.2117C74.7884 84.7701 75.1018 85.2922 75.5749 85.7175C76.048 86.1427 76.6613 86.4537 77.3438 86.6144C78.4263 86.8621 79.0883 87.1789 79.0704 87.501C79.0525 87.8231 78.3584 88.081 77.2536 88.2338C76.56 88.3284 75.9158 88.577 75.3948 88.951C74.8737 89.3251 74.497 89.8095 74.3075 90.3488C74.01 91.165 73.6191 91.6891 73.2144 91.6715ZM49.64 44.2698C49.6527 44.0429 49.6094 43.8157 49.5128 43.601C49.4149 43.3832 49.2618 43.1835 49.0631 43.0142C48.673 42.6695 48.1287 42.4606 47.5496 42.4336C47.4086 42.4145 47.2655 42.4083 47.1231 42.415C46.9802 42.4316 46.8394 42.4576 46.7022 42.4928C46.5699 42.5337 46.4425 42.5836 46.3212 42.642C46.0787 42.7611 45.8659 42.9145 45.693 43.0948C45.6077 43.188 45.5326 43.287 45.4683 43.3905C45.406 43.4911 45.3596 43.5975 45.33 43.7074C45.2455 43.9848 45.2481 44.2753 45.3378 44.5532C45.4275 44.831 45.6015 45.0878 45.8443 45.3007C45.9359 45.3891 46.0422 45.4671 46.1603 45.5326C46.2718 45.6044 46.3935 45.6653 46.5229 45.7141C46.6537 45.7649 46.7914 45.8031 46.9332 45.828C47.0742 45.847 47.2173 45.8532 47.3597 45.8465C47.939 45.8697 48.5038 45.709 48.9303 45.3998C49.0404 45.3277 49.1373 45.2438 49.2183 45.1504C49.3073 45.0624 49.3825 44.966 49.4425 44.8635C49.5591 44.6542 49.6273 44.4295 49.6439 44.2002L49.64 44.2698ZM11.4658 41.7393C11.4784 41.5123 11.4352 41.2851 11.3385 41.0705C11.2385 40.8535 11.0856 40.6541 10.8888 40.4836C10.7007 40.31 10.4696 40.1692 10.2102 40.0702C9.94796 39.9712 9.66423 39.9144 9.37539 39.903C9.2339 39.8883 9.09131 39.8821 8.94887 39.8845C8.80552 39.9039 8.66457 39.9328 8.52747 39.9709C8.39562 40.0088 8.26828 40.0559 8.14691 40.1115C8.02451 40.1692 7.91044 40.2374 7.80671 40.3149C7.69664 40.3869 7.59974 40.4708 7.51877 40.5642C7.4335 40.6575 7.35832 40.7564 7.29402 40.8599C7.23664 40.9621 7.1904 41.0681 7.15579 41.1768C7.08733 41.3986 7.07449 41.6293 7.118 41.8559C7.14023 41.9699 7.17431 42.0823 7.21989 42.192C7.27263 42.2978 7.33664 42.3998 7.41121 42.497C7.48401 42.5982 7.57068 42.6927 7.6696 42.7788C7.7672 42.8626 7.87285 42.9401 7.98558 43.0107C8.10019 43.0766 8.22169 43.1344 8.3487 43.1836C8.47943 43.2344 8.61716 43.2726 8.75895 43.2974C8.89995 43.3164 9.04304 43.3226 9.18547 43.3159C9.47419 43.3296 9.76286 43.2977 10.0348 43.2219C10.4413 43.1067 10.7946 42.8977 11.05 42.6215C11.3053 42.3452 11.4514 42.0139 11.4696 41.6696L11.4658 41.7393ZM77.2093 1.95177C77.2266 1.60836 77.116 1.2675 76.8914 0.972049C76.6668 0.676595 76.3382 0.439731 75.947 0.291231C75.5557 0.142732 75.1193 0.0892252 74.6925 0.137438C74.2657 0.185651 73.8677 0.333432 73.5483 0.562202C73.4382 0.634232 73.3414 0.718132 73.2604 0.811523C73.1714 0.899587 73.0961 0.99594 73.0361 1.09852C72.9737 1.20213 72.9271 1.31145 72.8974 1.42414C72.8128 1.7016 72.8155 1.99208 72.9052 2.26995C72.9949 2.54781 73.1688 2.80452 73.4117 3.01742C73.7041 3.27276 74.0838 3.45432 74.5032 3.53928C74.9226 3.62424 75.3629 3.6088 75.7687 3.49492C76.1746 3.38104 76.5278 3.17378 76.7842 2.89921C77.0405 2.62465 77.1884 2.29502 77.2093 1.95177Z" fill="#FDD21B"/>
</svg>
