<svg width="108" height="91" viewBox="0 0 108 91" fill="none" xmlns="http://www.w3.org/2000/svg">
<path d="M101.897 6.404C102.264 6.34993 102.683 6.80091 103.069 7.55695C103.309 8.03398 103.712 8.44317 104.235 8.73801C104.758 9.03284 105.378 9.20149 106.026 9.22479C107.054 9.25902 107.731 9.43332 107.786 9.72566C107.841 10.018 107.265 10.3768 106.305 10.7037C105.701 10.9114 105.176 11.2487 104.79 11.6774C104.404 12.1061 104.172 12.6089 104.121 13.1286C104.043 13.9531 103.803 14.5011 103.435 14.5552C103.068 14.6093 102.639 14.1599 102.263 13.4022C102.026 12.9287 101.627 12.5216 101.111 12.2263C100.595 11.931 99.9812 11.759 99.3389 11.7296C98.2987 11.6884 97.6236 11.5227 97.5684 11.2303C97.5133 10.938 98.0894 10.5792 99.0598 10.2507C99.6632 10.0436 100.187 9.70637 100.572 9.27773C100.956 8.84911 101.185 8.34641 101.233 7.82735C101.289 7.00609 101.53 6.45808 101.897 6.404ZM7.21249 74.7235C7.80652 74.636 8.44345 75.3641 9.10642 76.5832C9.49361 77.3527 10.1471 78.0121 10.9923 78.4861C11.8374 78.9601 12.8402 79.2297 13.8861 79.264C15.5521 79.3279 16.6361 79.6013 16.7253 80.0742C16.8146 80.5471 15.8913 81.125 14.3371 81.6543C13.3614 81.9885 12.5136 82.5326 11.8904 83.2244C11.2672 83.9163 10.8938 84.728 10.8128 85.5668C10.6765 86.9037 10.2874 87.7828 9.69335 87.8703C9.09932 87.9578 8.46241 87.2297 7.79942 86.0106C7.41369 85.2409 6.7621 84.5807 5.91877 84.105C5.07545 83.6293 4.07423 83.3572 3.02896 83.3197C1.3645 83.2643 0.268116 82.9839 0.178876 82.511C0.0896362 82.0381 1.03188 81.5017 2.57789 80.9293C3.55233 80.596 4.39948 80.0534 5.02286 79.3632C5.64623 78.673 6.0208 77.863 6.10387 77.0254C6.24013 75.6886 6.61846 74.811 7.21249 74.7235ZM30.7678 0.777634C31.1674 0.718783 31.6245 1.19939 32.0351 2.02263C32.294 2.53737 32.7303 2.97887 33.2946 3.29717C33.8588 3.61546 34.5285 3.79784 35.2279 3.82362C36.3452 3.86232 37.0792 4.04586 37.1393 4.36399C37.1993 4.68213 36.5724 5.06608 35.5297 5.4229C34.8731 5.64542 34.3018 6.00925 33.8808 6.47284C33.4599 6.93643 33.2064 7.48109 33.1493 8.04461C33.0631 8.94103 32.8073 9.52661 32.4077 9.58546C32.0081 9.64431 31.5511 9.16371 31.1404 8.34046C30.8912 7.81688 30.4593 7.36559 29.8947 7.03895C29.3301 6.7123 28.6559 6.52367 27.9504 6.4949C26.833 6.4562 26.1098 6.27106 26.0498 5.95293C25.9897 5.63479 26.6058 5.25243 27.6486 4.89561C28.3036 4.6728 28.8732 4.3089 29.2923 3.84553C29.7113 3.38217 29.9629 2.83806 30.0181 2.27549C30.1124 1.42207 30.3682 0.836485 30.7678 0.777634ZM65.2141 42.6659C65.2564 42.89 65.3533 43.1039 65.4995 43.2955C65.6475 43.4899 65.8452 43.6563 66.0801 43.7844C66.5443 44.0479 67.1264 44.1497 67.6987 44.0674C67.8411 44.0595 67.9824 44.0387 68.12 44.0054C68.2556 43.9624 68.3869 43.9105 68.5125 43.8504C68.6319 43.7855 68.7445 43.7128 68.8489 43.6329C69.0572 43.471 69.2282 43.2811 69.3537 43.0725C69.4146 42.9654 69.4642 42.8546 69.5021 42.7414C69.5387 42.6314 69.5585 42.5186 69.5609 42.4057C69.5768 42.1187 69.5042 41.8354 69.3497 41.5807C69.1952 41.3261 68.9634 41.1079 68.6748 40.9455C68.5641 40.8763 68.4414 40.82 68.3102 40.7783C68.184 40.7291 68.0504 40.6924 67.9122 40.669C67.7722 40.6439 67.6285 40.6325 67.4839 40.6349C67.3416 40.6427 67.2003 40.6636 67.0627 40.6969C66.4911 40.783 65.9779 41.0461 65.6356 41.4284C65.5453 41.5195 65.4709 41.6197 65.4142 41.7262C65.3485 41.8289 65.2981 41.9372 65.2642 42.0487C65.2006 42.2751 65.1881 42.5075 65.2271 42.7347L65.2141 42.6659ZM103.124 37.9666C103.167 38.1908 103.264 38.4047 103.41 38.5962C103.56 38.7894 103.757 38.9556 103.99 39.0852C104.216 39.2195 104.476 39.3137 104.753 39.3617C105.033 39.4091 105.324 39.4113 105.609 39.3682C105.751 39.356 105.892 39.3353 106.03 39.3061C106.166 39.2602 106.296 39.2055 106.421 39.1425C106.541 39.0807 106.654 39.0108 106.759 38.9337C106.865 38.8542 106.96 38.7662 107.043 38.671C107.133 38.5799 107.207 38.4798 107.264 38.3733C107.325 38.2661 107.374 38.1553 107.412 38.0421C107.444 37.9315 107.463 37.8192 107.471 37.7065C107.485 37.477 107.442 37.2491 107.345 37.0358C107.295 36.9286 107.235 36.8252 107.164 36.7266C107.087 36.6332 107 36.5455 106.904 36.4645C106.808 36.3793 106.701 36.3032 106.583 36.2377C106.468 36.1742 106.346 36.1183 106.219 36.0704C106.091 36.0276 105.958 35.9939 105.822 35.9698C105.682 35.9447 105.539 35.9332 105.394 35.9356C105.252 35.9435 105.11 35.9643 104.973 35.9976C104.688 36.0385 104.413 36.124 104.166 36.2491C103.796 36.438 103.501 36.7086 103.318 37.0265C103.135 37.3445 103.072 37.6956 103.137 38.0354L103.124 37.9666ZM48.4628 89.1953C48.5286 89.5341 48.7187 89.8463 49.0093 90.0928C49.2999 90.3393 49.678 90.509 50.096 90.5806C50.5141 90.6522 50.9534 90.6225 51.3588 90.4952C51.7643 90.3679 52.1176 90.1488 52.3746 89.8652C52.4648 89.7742 52.5393 89.674 52.5959 89.5675C52.6617 89.4647 52.712 89.3565 52.746 89.2449C52.782 89.132 52.8012 89.0164 52.8031 88.9007C52.819 88.6137 52.7464 88.3304 52.5919 88.0757C52.4374 87.8211 52.2056 87.6029 51.917 87.4405C51.5699 87.2459 51.1551 87.1399 50.7249 87.1357C50.2946 87.1314 49.8681 87.2292 49.499 87.4168C49.1298 87.6043 48.8345 87.8732 48.6502 88.1896C48.4658 88.506 48.4006 88.8559 48.4628 89.1953Z" fill="#FDD21B"/>
</svg>
