<svg width="130" height="68" viewBox="0 0 130 68" fill="none" xmlns="http://www.w3.org/2000/svg">
<path d="M53.5643 67.6345H12.2573L15.5005 33.5388C15.7476 30.9394 17.7389 28.7261 20.5492 27.9261L32.9107 24.4082L45.2722 27.9261C48.0827 28.7259 50.0738 30.9394 50.3209 33.5388L53.5643 67.6345Z" fill="#FCB44D"/>
<path d="M13.7021 52.4541L12.6403 63.6239C21.8871 65.0783 36.6055 66.0777 53.4481 66.3923L52.1214 52.4541H13.7021Z" fill="#FCA62F"/>
<path d="M53.5646 67.6345H46.5021L43.2601 30.306C43.1404 29.0561 42.616 27.8944 41.7939 26.9375L45.2727 27.9266C48.083 28.7261 50.0738 30.9394 50.3202 33.5385L53.5646 67.6345Z" fill="#FCA62F"/>
<path d="M36.7789 19.0762V26.5832C36.7789 28.4704 35.0472 30.0002 32.9109 30.0002C30.7747 30.0002 29.043 28.4704 29.043 26.5832V19.0762H36.7789Z" fill="#873F30"/>
<path d="M32.9109 0.410156C27.2459 0.410156 22.6534 4.46727 22.6534 9.4719V13.409C22.6534 18.0457 27.2459 22.3545 32.9109 22.3545C38.576 22.3545 43.1685 18.0457 43.1685 13.409V9.4719C43.1682 4.46727 38.576 0.410156 32.9109 0.410156Z" fill="#A34F41"/>
<path d="M43.1687 9.47288V13.4088C43.1687 18.0462 38.5752 22.353 32.9117 22.353C31.7957 22.353 30.7229 22.1853 29.7162 21.8803C33.8178 20.6428 36.7774 17.1338 36.7774 13.4088V9.47288C36.7774 5.45304 33.8178 2.04313 29.7162 0.856389C30.7229 0.566829 31.7957 0.40918 32.9117 0.40918C38.5752 0.40918 43.1687 4.46716 43.1687 9.47288Z" fill="#873F30"/>
<path d="M86.7532 67.6345H45.4464L48.6895 33.5388C48.9367 30.9394 50.928 28.7261 53.7383 27.9261L66.0998 24.4082L78.4613 27.9261C81.2718 28.7259 83.2629 30.9394 83.51 33.5388L86.7532 67.6345Z" fill="#24D1F8"/>
<path d="M46.8908 52.4541L45.5852 66.1916C51.7219 66.3922 58.2425 66.5 64.9645 66.5C72.5205 66.5 79.8233 66.3656 86.6085 66.113L85.3091 52.4541H46.8908Z" fill="#21C1F8"/>
<path d="M86.7544 67.6345H79.692L76.4473 30.306C76.3276 29.0561 75.8058 27.8944 74.9835 26.9375L78.4623 27.9266C81.2726 28.7261 83.2634 30.9394 83.5097 33.5385L86.7544 67.6345Z" fill="#21C1F8"/>
<path d="M69.9678 19.0762V26.5832C69.9678 28.4704 68.236 30.0002 66.0998 30.0002C63.9635 30.0002 62.2318 28.4704 62.2318 26.5832V19.0762H69.9678Z" fill="#C86F5C"/>
<path d="M66.0998 0.410156C60.4348 0.410156 55.8423 4.46727 55.8423 9.4719V13.409C55.8423 18.0457 60.4348 22.3545 66.0998 22.3545C71.7648 22.3545 76.3573 18.0457 76.3573 13.409V9.4719C76.3573 4.46727 71.7648 0.410156 66.0998 0.410156Z" fill="#D5887A"/>
<path d="M76.3575 9.47288V13.4088C76.3575 18.0462 71.764 22.353 66.1006 22.353C64.9846 22.353 63.9118 22.1853 62.905 21.8803C67.0066 20.6428 69.9662 17.1338 69.9662 13.4088V9.47288C69.9662 5.45304 67.0066 2.04313 62.905 0.856389C63.9118 0.566829 64.9846 0.40918 66.1006 0.40918C71.764 0.40918 76.3575 4.46716 76.3575 9.47288Z" fill="#C86F5C"/>
<path d="M119.943 67.6345H78.6354L81.8785 33.5388C82.1257 30.9394 84.117 28.7261 86.9273 27.9261L99.2888 24.4082L111.65 27.9261C114.461 28.7259 116.452 30.9394 116.699 33.5388L119.943 67.6345Z" fill="#27D1B3"/>
<path d="M80.0787 52.4541L78.7577 66.345C96.0595 65.9538 110.902 64.8344 119.526 63.2435L118.499 52.4543H80.0787V52.4541Z" fill="#20B69F"/>
<path d="M119.942 67.6345H112.882L109.637 30.306C109.52 29.0561 108.996 27.8944 108.174 26.9375L111.65 27.9266C114.46 28.7261 116.451 30.9394 116.7 33.5385L119.942 67.6345Z" fill="#20B69F"/>
<path d="M103.157 19.0762V26.5832C103.157 28.4704 101.425 30.0002 99.2888 30.0002C97.1525 30.0002 95.4208 28.4704 95.4208 26.5832V19.0762H103.157Z" fill="#FDB0A0"/>
<path d="M99.2888 0.410156C93.6237 0.410156 89.0312 4.46727 89.0312 9.4719V13.409C89.0312 18.0457 93.6237 22.3545 99.2888 22.3545C104.954 22.3545 109.546 18.0457 109.546 13.409V9.4719C109.546 4.46727 104.954 0.410156 99.2888 0.410156Z" fill="#FFCEC0"/>
<path d="M109.547 9.47288V13.4088C109.547 18.0462 104.953 22.353 99.2895 22.353C98.1735 22.353 97.1007 22.1853 96.094 21.8803C100.196 20.6428 103.155 17.1338 103.155 13.4088V9.47288C103.155 5.45304 100.196 2.04313 96.094 0.856389C97.1007 0.566829 98.1735 0.40918 99.2895 0.40918C104.953 0.40918 109.547 4.46716 109.547 9.47288Z" fill="#FDB0A0"/>
<path d="M123.168 57.7343C123.168 58.6547 122.482 59.4687 121.48 59.7213C112.682 61.9406 90.6969 63.5134 64.9645 63.5134C39.2322 63.5134 17.2474 61.9404 8.44875 59.7213C7.44696 59.4685 6.76123 58.6547 6.76123 57.7343V34.9192C6.76123 33.5736 8.18965 32.5896 9.66854 32.9115C19.1633 34.9792 40.3492 36.4185 64.9645 36.4185C89.5799 36.4185 110.766 34.9792 120.261 32.9115C121.739 32.5896 123.168 33.5736 123.168 34.9192V57.7343Z" fill="#DFF6FD"/>
<path d="M67.7377 36.4103C66.8194 36.4149 65.8933 36.4172 64.9646 36.4172C62.3996 36.4172 59.8711 36.4011 57.392 36.3713C61.4215 39.2967 63.9969 43.7321 63.9969 48.6913C63.9969 50.7826 63.5338 52.7796 62.7014 54.6112L49.8376 45.7636V36.2311C47.1607 36.1644 44.5542 36.0794 42.0334 35.976V45.7636L29.1696 54.6112C28.3371 52.7796 27.8741 50.7826 27.8741 48.6913C27.8741 43.3184 30.8969 38.5614 35.517 35.6704C31.8516 35.4704 28.4178 35.2337 25.2701 34.9648C22.0054 38.7912 20.0699 43.5459 20.0699 48.6913C20.0699 53.6667 21.8805 58.279 24.9501 62.034C28.7976 62.365 33.0795 62.6499 37.6969 62.8775C36.1907 62.1972 34.8068 61.3285 33.5815 60.3128L42.0334 54.5009V63.0728C44.5542 63.1716 47.1581 63.2566 49.8376 63.3256V54.5009L58.2894 60.3128C56.7364 61.602 54.9259 62.6522 52.9306 63.3945C56.8197 63.4704 60.844 63.5117 64.9646 63.5117C65.1779 63.5117 65.3912 63.5117 65.6045 63.5094C69.4676 59.5176 71.801 54.34 71.801 48.6913C71.801 44.1754 70.3104 39.9586 67.7377 36.4103Z" fill="#FB3A82"/>
<path d="M123.168 34.9197V57.733C123.168 58.6539 122.481 59.469 121.481 59.7213C119.612 60.1931 117.148 60.6339 114.178 61.0393C114.188 61.0372 114.195 61.0352 114.204 61.0331C115.214 60.7787 115.907 59.9571 115.907 59.0282V36.0163C115.907 34.9797 115.064 34.1542 114 33.968C116.439 33.639 118.542 33.2853 120.261 32.9107C121.739 32.5899 123.168 33.5728 123.168 34.9197Z" fill="#9CE6FB"/>
<path d="M6.76135 36.5742V43.1707H0.320312V39.6222C0.320312 37.9379 1.86372 36.5745 3.76793 36.5745H6.76135V36.5742Z" fill="#873F30"/>
<path d="M4.05276 53.5159H9.06924C11.0611 53.5159 12.6758 52.0894 12.6758 50.3297V44.7496C12.6758 42.9899 11.0611 41.5635 9.06924 41.5635H0.320312V50.2183C0.320312 52.0395 1.99143 53.5159 4.05276 53.5159Z" fill="#A34F41"/>
<path d="M123.168 36.5742V43.1707H129.609V39.6222C129.609 37.9379 128.066 36.5745 126.161 36.5745H123.168V36.5742Z" fill="#FDB0A0"/>
<path d="M125.876 53.5161H120.86C118.868 53.5161 117.253 52.0897 117.253 50.33V44.75C117.253 42.9904 118.868 41.564 120.86 41.564H129.609V50.2186C129.609 52.0398 127.938 53.5161 125.876 53.5161Z" fill="#FFCEC0"/>
<path d="M81.4584 48.7168L108.009 47.1401C109.085 47.0762 109.897 46.2546 109.825 45.3048C109.753 44.355 108.822 43.6364 107.748 43.7008L81.1967 45.2775C80.1216 45.3414 79.3086 46.1629 79.3809 47.1127C79.4501 48.0232 80.3078 48.7209 81.3257 48.7209C81.3697 48.7209 81.4139 48.7196 81.4584 48.7168Z" fill="black"/>
<path d="M81.8187 55.0027C81.8626 55.0027 81.9068 55.0013 81.9513 54.9985L90.0307 54.5187C91.1059 54.4548 91.9188 53.6333 91.8465 52.6835C91.7742 51.7337 90.8434 51.0128 89.769 51.0795L81.6896 51.5593C80.6145 51.6232 79.8015 52.4447 79.8739 53.3945C79.9433 54.3052 80.8007 55.0027 81.8187 55.0027Z" fill="black"/>
</svg>
