<svg width="217" height="193" viewBox="0 0 217 193" fill="none" xmlns="http://www.w3.org/2000/svg">
<path fill-rule="evenodd" clip-rule="evenodd" d="M126.47 0.0363081C179.501 1.18904 190.172 42.7374 204.96 81.8567C218.326 117.214 227.31 143.348 189.024 165.513C148.173 189.164 81.8136 200.652 39.2461 178.86C-8.46159 154.436 -5.98664 114.102 11.6282 72.2047C29.338 30.0819 68.8437 -1.2163 126.47 0.0363081Z" fill="#ECF2FF"/>
<path d="M106.895 160.232L123.371 134.005C124.644 131.978 124.033 129.304 122.007 128.032C119.981 126.759 117.307 127.369 116.034 129.395L120.234 122.711C121.506 120.684 120.896 118.01 118.87 116.737C116.844 115.465 114.169 116.075 112.896 118.101L110.696 121.604C111.969 119.578 111.358 116.904 109.332 115.631C107.306 114.358 104.631 114.969 103.359 116.995L100.638 121.326C101.911 119.3 101.3 116.626 99.2739 115.353C97.2479 114.08 94.5734 114.691 93.3007 116.717L75.4295 145.165C73.6228 148.041 72.8033 151.427 73.0953 154.81L73.4713 159.17C73.4991 159.491 73.4212 159.813 73.2496 160.086L64.6114 173.835C63.7401 175.222 64.1582 177.053 65.5452 177.924L80.6357 187.404C82.0226 188.275 83.8536 187.857 84.7249 186.47L92.9963 173.304L106.895 160.232Z" fill="#FFCEC0"/>
<path d="M123.371 134.005L120.917 137.912L97.049 122.917C95.1482 121.721 93.4802 120.292 92.059 118.69L93.2996 116.716C93.9383 115.703 94.9253 115.042 96.0039 114.796C97.0852 114.549 98.261 114.716 99.2733 115.352C101.301 116.626 101.911 119.297 100.637 121.325L103.359 116.992C103.995 115.98 104.982 115.32 106.061 115.073C107.142 114.826 108.318 114.993 109.33 115.629C111.358 116.903 111.969 119.578 110.695 121.603L112.897 118.1C113.533 117.088 114.52 116.427 115.599 116.181C116.68 115.934 117.856 116.101 118.868 116.736C120.896 118.008 121.506 120.682 120.232 122.71L116.033 129.395C116.668 128.38 117.656 127.722 118.737 127.475C119.819 127.228 120.994 127.392 122.007 128.031C124.035 129.302 124.645 131.976 123.371 134.005Z" fill="#FDB0A0"/>
<path d="M123.371 134.005L106.896 160.231L92.9964 173.304L84.7257 186.469C83.8542 187.856 82.0229 188.274 80.6358 187.402L77.6559 185.529L87.5046 169.852L101.402 156.782L117.88 130.552C118.464 129.622 118.652 128.551 118.482 127.543C118.483 127.542 118.483 127.542 118.483 127.542C119.632 127.206 120.914 127.342 122.007 128.031C124.034 129.302 124.645 131.976 123.371 134.005Z" fill="#FDB0A0"/>
<path d="M120.603 121.966L105.232 146.434C104.904 146.953 104.4 147.293 103.845 147.42C103.29 147.547 102.686 147.46 102.164 147.134C101.123 146.481 100.81 145.107 101.464 144.066L118.698 116.635C118.755 116.668 118.811 116.701 118.868 116.737C120.654 117.856 121.341 120.07 120.603 121.966Z" fill="#FDB0A0"/>
<path d="M111.07 120.851L97.7969 141.98C97.471 142.499 96.9641 142.836 96.4088 142.963C95.8535 143.09 95.2502 143.005 94.7319 142.68C93.6911 142.026 93.3775 140.653 94.0314 139.612L109.162 115.528C109.218 115.56 109.274 115.593 109.331 115.629C111.117 116.751 111.803 118.955 111.07 120.851Z" fill="#FDB0A0"/>
<path d="M101.023 120.553L101.014 120.567L90.7776 136.866C90.4517 137.384 89.9448 137.722 89.3895 137.849C88.8342 137.976 88.231 137.891 87.7096 137.566C86.6688 136.912 86.3552 135.539 87.0091 134.498L99.103 115.251C99.1592 115.284 99.2152 115.316 99.2722 115.352C101.052 116.47 101.738 118.662 101.023 120.553Z" fill="#FDB0A0"/>
<path d="M120.603 121.966L113.51 133.26L109.742 130.892L118.698 116.636C118.757 116.668 118.811 116.704 118.867 116.737C120.653 117.857 121.341 120.07 120.603 121.966Z" fill="#F99F91"/>
<path d="M111.07 120.851L106.173 128.649L102.405 126.282L109.161 115.527C109.22 115.559 109.274 115.596 109.33 115.629C111.117 116.751 111.803 118.955 111.07 120.851Z" fill="#F99F91"/>
<path d="M101.023 120.553L98.8349 124.04L97.0483 122.918C96.3804 122.498 95.7423 122.048 95.1318 121.573L99.1034 115.251C99.1597 115.284 99.2156 115.316 99.2726 115.352C101.052 116.47 101.738 118.662 101.023 120.553Z" fill="#F99F91"/>
<path d="M119.774 139.731L116.717 144.597C115.432 145.003 114.314 145.608 114.003 146.102L108.088 155.517C107.435 156.558 106.064 156.871 105.023 156.217L104.257 155.738C101.685 154.12 98.5234 153.972 95.8061 155.341C94.7062 155.893 93.37 155.45 92.818 154.353C92.7344 154.186 92.6744 154.017 92.6354 153.847C92.4129 152.872 92.8723 151.834 93.8058 151.365C97.5307 149.492 101.803 149.496 105.47 151.324L110.238 143.737C111.621 141.531 115.971 139.531 119.774 139.731Z" fill="#F99F91"/>
<path d="M123.494 148.415L113.937 165.162C112.878 167.017 111.375 168.58 109.563 169.711L103.994 173.186C102.338 174.219 100.344 174.564 98.437 174.145L92.1164 172.758L84.807 168.166L90.3155 159.398C93.4971 154.333 100.182 152.806 105.247 155.988L105.509 156.153C106.202 156.588 107.117 156.379 107.553 155.686L112.679 147.526C114.808 144.138 119.28 143.117 122.668 145.245C123.739 145.917 124.101 147.307 123.494 148.415Z" fill="#FFCEC0"/>
<path d="M123.729 146.737C123.854 147.287 123.786 147.883 123.494 148.415L113.938 165.161C112.878 167.018 111.375 168.581 109.564 169.71L103.994 173.187C102.337 174.22 100.344 174.562 98.4356 174.146L92.1159 172.757L86.9411 169.506L93.2607 170.895C95.1689 171.311 97.1624 170.969 98.8184 169.933L104.389 166.459C106.201 165.33 107.702 163.767 108.763 161.91L118.319 145.164C118.497 144.838 118.591 144.488 118.608 144.137C119.995 144.094 121.409 144.453 122.67 145.245C123.227 145.596 123.592 146.139 123.729 146.737Z" fill="#FDB0A0"/>
<path d="M93.2466 173.071L92.9957 173.305L90.8076 176.792L84.219 172.653C83.1782 171.999 82.8646 170.626 83.5185 169.585C84.1693 168.545 85.5427 168.232 86.5835 168.885L93.2466 173.071Z" fill="#F99F91"/>
<path d="M137.9 50.2495L121.424 76.4769C120.151 78.5032 120.762 81.1774 122.788 82.4501C124.814 83.7229 127.488 83.1122 128.761 81.0862L124.561 87.7711C123.289 89.7973 123.899 92.4715 125.925 93.7442C127.951 95.017 130.626 94.4063 131.898 92.3803L134.099 88.8775C132.826 90.9035 133.437 93.578 135.463 94.8507C137.489 96.1237 140.163 95.5131 141.436 93.4868L144.157 89.1554C142.884 91.1814 143.495 93.8559 145.521 95.1286C147.547 96.4014 150.221 95.7907 151.494 93.7647L169.365 65.317C171.172 62.441 171.992 59.0547 171.7 55.6712L171.324 51.3121C171.296 50.9906 171.374 50.669 171.545 50.3958L180.182 36.6471C181.054 35.2601 180.636 33.4291 179.249 32.5578L164.159 23.0775C162.772 22.2062 160.941 22.6243 160.07 24.0113L151.799 37.1779L137.9 50.2495Z" fill="#D5887A"/>
<path d="M180.183 36.6459L171.545 50.3957C171.374 50.6689 171.296 50.9911 171.324 51.3125L171.702 55.6707C171.994 59.0538 171.173 62.4416 169.365 65.3158L151.495 93.7646C150.857 94.7776 149.87 95.4379 148.791 95.6842C147.71 95.9311 146.534 95.7646 145.522 95.1287C144.396 94.4214 143.706 93.2799 143.537 92.0589C144.473 91.7601 145.316 91.1382 145.884 90.2391L163.753 61.7903C165.561 58.9164 166.379 55.5291 166.09 52.1452L165.712 47.787C165.684 47.4655 165.762 47.1434 165.934 46.8702L176.149 30.609L179.25 32.5566C180.636 33.4283 181.054 35.259 180.183 36.6459Z" fill="#C86F5C"/>
<path d="M139.424 63.9599L128.241 81.7613C127.64 82.3972 126.876 82.8184 126.058 83.0052C124.976 83.2521 123.801 83.0884 122.788 82.4497C122.731 82.4139 122.677 82.3777 122.621 82.3418L135.655 61.5927C136.309 60.5519 137.683 60.2383 138.723 60.8921C139.764 61.5458 140.077 62.9192 139.424 63.9599Z" fill="#C86F5C"/>
<path d="M146.856 68.4139L131.382 93.0453C130.783 93.6843 130.017 94.1116 129.196 94.2991C128.114 94.546 126.938 94.3795 125.926 93.7435C125.869 93.7077 125.815 93.6715 125.759 93.6357L143.091 66.0457C143.742 65.0056 145.115 64.692 146.156 65.3458C147.197 65.9997 147.51 67.3734 146.856 68.4139Z" fill="#C86F5C"/>
<path d="M153.877 73.5282L140.92 94.1533C140.321 94.7923 139.555 95.2196 138.733 95.4071C137.652 95.654 136.476 95.4875 135.464 94.8515C135.407 94.8158 135.353 94.7796 135.296 94.741L150.109 71.1609C150.764 70.1232 152.137 69.8096 153.177 70.4604C154.218 71.1143 154.531 72.4877 153.877 73.5282Z" fill="#C86F5C"/>
<path d="M152.123 56.5334C152.346 57.508 151.886 58.5437 150.952 59.0124C147.227 60.8852 142.958 60.8834 139.289 59.0563L134.523 66.6429C133.151 68.8273 128.861 70.8138 125.082 70.6513L128.171 65.7386C129.402 65.3327 130.453 64.7551 130.754 64.2755L136.669 54.8598C137.323 53.819 138.697 53.5054 139.737 54.1593L140.501 54.6389C143.075 56.2565 146.234 56.4056 148.955 55.0388C150.052 54.4871 151.389 54.9303 151.94 56.0275C152.024 56.1911 152.084 56.3601 152.123 56.5334Z" fill="#C86F5C"/>
<path d="M138.272 60.6759L134.523 66.6427C133.832 67.7439 132.396 68.7957 130.659 69.5451L135.655 61.5926C136.217 60.6979 137.316 60.3404 138.272 60.6759Z" fill="#C16252"/>
<path d="M121.3 62.0671L130.857 45.3209C131.916 43.4657 133.419 41.9026 135.231 40.7718L140.8 37.2967C142.456 36.2634 144.45 35.9189 146.357 36.3376L152.678 37.725L159.987 42.3168L154.479 51.085C151.297 56.1496 144.612 57.6761 139.548 54.4944L139.286 54.33C138.592 53.8942 137.677 54.1032 137.241 54.7969L132.115 62.9565C129.987 66.3446 125.515 67.3659 122.126 65.2374C121.056 64.5654 120.694 63.1761 121.3 62.0671Z" fill="#D5887A"/>
<path d="M161.696 41.4087C161.37 41.9274 160.864 42.268 160.309 42.3948C159.754 42.5216 159.15 42.4372 158.631 42.1085L151.389 37.5591L151.798 37.1769L153.878 33.8694L160.996 38.3409C162.036 38.9945 162.35 40.3679 161.696 41.4087Z" fill="#C86F5C"/>
<path d="M67.4062 89.7376L93.6337 106.214C95.6599 107.487 98.3341 106.876 99.6069 104.85C100.88 102.824 100.269 100.15 98.2429 98.8768L104.928 103.076C106.954 104.349 109.628 103.738 110.901 101.712C112.174 99.6864 111.563 97.0119 109.537 95.7392L106.034 93.5387C108.06 94.8114 110.735 94.2008 112.007 92.1748C113.28 90.1487 112.67 87.4743 110.644 86.2016L106.312 83.4806C108.338 84.7533 111.013 84.1426 112.285 82.1166C113.558 80.0906 112.947 77.4162 110.921 76.1434L82.4737 58.2723C79.5978 56.4656 76.2114 55.6461 72.8279 55.9381L68.4688 56.314C68.1473 56.3419 67.8257 56.264 67.5525 56.0923L53.8032 47.4542C52.4163 46.5829 50.5853 47.001 49.714 48.3879L40.2343 63.4785C39.363 64.8654 39.7811 66.6964 41.168 67.5677L54.3346 75.8391L67.4062 89.7376Z" fill="#A34F41"/>
<path d="M112.841 78.8464C113.088 79.9278 112.922 81.1036 112.286 82.1159C111.433 83.4726 109.953 84.1969 108.458 84.1398C108.118 83.4875 107.6 82.9151 106.932 82.4924L78.4834 64.623C75.6095 62.815 72.2215 61.9944 68.8383 62.2863L64.4801 62.6641C64.1586 62.6919 63.8365 62.6141 63.5633 62.4425L47.3021 52.227L49.7138 48.3879C50.5851 47.001 52.4161 46.5829 53.803 47.4542L67.5528 56.0919C67.826 56.2636 68.1482 56.3416 68.4696 56.3135L72.8278 55.9357C76.2109 55.6438 79.5987 56.4645 82.4729 58.2724L110.922 76.1419C111.935 76.7808 112.595 77.7678 112.841 78.8464Z" fill="#873F30"/>
<path d="M100.163 101.58C100.409 102.662 100.246 103.837 99.607 104.85C99.5712 104.907 99.535 104.96 99.4992 105.017L79.4602 92.4285C78.4194 91.7746 78.1058 90.4013 78.7597 89.3607C79.4136 88.3199 80.7869 88.0063 81.8275 88.6602L98.9257 99.4015L98.9328 99.406C99.5564 100.006 99.9763 100.765 100.163 101.58Z" fill="#873F30"/>
<path d="M111.457 98.4415C111.703 99.5229 111.537 100.699 110.901 101.711C110.865 101.768 110.829 101.822 110.793 101.878L83.9134 84.9924C82.8733 84.3416 82.5597 82.9682 83.2136 81.9274C83.8674 80.8866 85.2408 80.573 86.2813 81.2269L110.188 96.2454L110.195 96.2499C110.841 96.8511 111.269 97.6204 111.457 98.4415Z" fill="#873F30"/>
<path d="M112.564 88.9034C112.811 89.9848 112.644 91.1606 112.008 92.1729C111.973 92.2299 111.936 92.2837 111.897 92.3383L89.0282 77.9743C87.9874 77.3204 87.6738 75.9471 88.3276 74.9063C88.9814 73.8655 90.3548 73.5519 91.3953 74.2058L111.314 86.7214C111.953 87.3209 112.377 88.0851 112.564 88.9034Z" fill="#873F30"/>
<path d="M87.8899 102.606L83.0524 99.5667C82.6484 98.2503 82.0281 97.093 81.5237 96.7761L72.1083 90.8613C71.0675 90.2074 70.7539 88.834 71.4078 87.7935L71.8875 87.03C73.5056 84.4579 73.6541 81.2965 72.2852 78.5792C71.7329 77.4792 72.1762 76.143 73.2733 75.5911C73.4397 75.5075 73.6087 75.4477 73.7793 75.4087C74.7538 75.1862 75.7927 75.6456 76.2613 76.5791C78.1341 80.304 78.1295 84.5735 76.3022 88.2429L83.8888 93.0089C86.1047 94.4009 88.1136 98.7885 87.8899 102.606Z" fill="#873F30"/>
<path d="M86.8869 97.094L79.4603 92.4285C78.5226 91.8394 78.1768 90.6711 78.5963 89.6838L83.8885 93.0084C85.0392 93.7315 86.1332 95.2583 86.8869 97.094Z" fill="#7F372B"/>
<path d="M79.2225 106.337L62.4763 96.7806C60.6211 95.7218 59.058 94.2188 57.9272 92.4068L54.4521 86.8378C53.4188 85.1816 53.0743 83.1871 53.493 81.2804L54.8804 74.9597L59.4722 67.6504L68.2407 73.1589C73.3053 76.3405 74.8318 83.0255 71.6501 88.0902L71.4857 88.3519C71.05 89.0455 71.259 89.9608 71.9526 90.3965L80.1122 95.5224C83.5004 97.6509 84.5216 102.123 82.3932 105.512C81.7207 106.582 80.3314 106.944 79.2225 106.337Z" fill="#A34F41"/>
<path d="M58.8192 69.7155L54.716 76.2471L54.3338 75.8384L51.0269 73.761L55.0513 67.3508C55.7051 66.31 57.0785 65.9964 58.119 66.6503C59.1599 67.3044 59.4728 68.6748 58.8192 69.7155Z" fill="#873F30"/>
<path d="M177.389 120.743L151.161 104.267C149.135 102.994 146.461 103.604 145.188 105.63C143.915 107.656 144.526 110.331 146.552 111.604L139.867 107.404C137.841 106.131 135.167 106.742 133.894 108.768C132.621 110.794 133.232 113.469 135.258 114.741L138.76 116.942C136.734 115.669 134.06 116.28 132.787 118.306C131.514 120.332 132.125 123.006 134.151 124.279L138.483 127C136.457 125.727 133.782 126.338 132.509 128.364C131.237 130.39 131.847 133.064 133.873 134.337L162.321 152.208C165.197 154.015 168.583 154.834 171.967 154.542L176.326 154.166C176.647 154.139 176.969 154.216 177.242 154.388L190.991 163.025C192.378 163.897 194.209 163.478 195.08 162.091L204.56 147.002C205.432 145.615 205.014 143.784 203.627 142.913L190.46 134.641L177.389 120.743Z" fill="#FFDFD0"/>
<path d="M154.763 106.529C154.262 107.769 153.645 108.984 152.911 110.156L136.629 136.07L133.873 134.338C132.86 133.7 132.199 132.713 131.953 131.634C131.706 130.553 131.873 129.377 132.509 128.364C133.783 126.336 136.454 125.726 138.482 127L134.15 124.278C133.137 123.642 132.477 122.655 132.231 121.577C131.984 120.495 132.15 119.32 132.786 118.307C134.06 116.279 136.735 115.669 138.76 116.943L135.257 114.74C134.245 114.104 133.584 113.118 133.338 112.039C133.091 110.958 133.258 109.782 133.894 108.769C135.165 106.742 137.839 106.131 139.868 107.405L146.552 111.605C145.537 110.969 144.879 109.982 144.632 108.9C144.385 107.819 144.549 106.644 145.188 105.631C146.459 103.604 149.134 102.993 151.162 104.267L154.763 106.529Z" fill="#FFCEC0"/>
<path d="M202.686 149.982L187.009 140.133L173.939 126.236L147.71 109.758C146.779 109.174 145.708 108.986 144.7 109.156C144.7 109.155 144.699 109.155 144.699 109.155C144.362 108.005 144.499 106.724 145.188 105.631C146.459 103.603 149.134 102.993 151.162 104.267L177.388 120.742L190.461 134.641L203.626 142.912C205.014 143.783 205.431 145.615 204.56 147.002L202.686 149.982Z" fill="#FFCEC0"/>
<path d="M165.002 125.919C164.676 126.438 164.169 126.775 163.614 126.902C163.059 127.029 162.455 126.945 161.934 126.62L133.79 108.939C133.826 108.882 133.859 108.826 133.894 108.769C135.013 106.984 137.226 106.296 139.123 107.034L164.301 122.851C165.342 123.505 165.656 124.878 165.002 125.919Z" fill="#FFCEC0"/>
<path d="M160.548 133.352C160.22 133.875 159.713 134.212 159.158 134.339C158.603 134.466 158.002 134.381 157.48 134.053L132.685 118.477C132.718 118.42 132.751 118.364 132.787 118.307C133.909 116.521 136.113 115.835 138.008 116.567L159.848 130.287C160.888 130.938 161.202 132.312 160.548 133.352Z" fill="#FFCEC0"/>
<path d="M155.433 140.374C155.105 140.893 154.598 141.231 154.043 141.357C153.487 141.484 152.884 141.4 152.365 141.074L132.407 128.534C132.44 128.478 132.473 128.422 132.509 128.365C133.624 126.589 135.816 125.9 137.706 126.612L137.713 126.613L154.733 137.305C155.774 137.96 156.087 139.333 155.433 140.374Z" fill="#FFCEC0"/>
<path d="M150.414 114.127L148.046 117.896L133.793 108.942C133.825 108.883 133.858 108.826 133.894 108.77C135.013 106.984 137.226 106.296 139.123 107.034L150.414 114.127Z" fill="#FDB0A0"/>
<path d="M145.804 121.465L143.44 125.233L132.685 118.477C132.717 118.418 132.753 118.364 132.786 118.307C133.908 116.521 136.113 115.835 138.008 116.567L145.804 121.465Z" fill="#FDB0A0"/>
<path d="M141.195 128.803L138.829 132.568L132.408 128.534C132.441 128.478 132.474 128.422 132.509 128.365C133.627 126.585 135.822 125.898 137.714 126.613L141.195 128.803Z" fill="#FDB0A0"/>
<path d="M173.328 122.758L172.848 123.522C171.23 126.094 171.082 129.255 172.451 131.973C173.003 133.073 172.56 134.409 171.463 134.961C171.296 135.044 171.127 135.104 170.957 135.143C169.982 135.366 168.943 134.906 168.475 133.973C166.602 130.248 166.606 125.978 168.434 122.309L160.847 117.543C158.61 116.137 156.585 111.68 156.852 107.841L161.647 110.853C162.045 112.225 162.689 113.447 163.212 113.775L172.627 119.69C173.668 120.344 173.981 121.718 173.328 122.758Z" fill="#FDB0A0"/>
<path d="M165.572 104.143L182.319 113.7C184.174 114.759 185.737 116.262 186.868 118.074L190.343 123.643C191.376 125.299 191.721 127.293 191.302 129.2L189.915 135.521L185.323 142.83L176.555 137.322C171.49 134.14 169.963 127.455 173.145 122.39L173.31 122.129C173.745 121.435 173.536 120.52 172.843 120.084L164.683 114.958C161.295 112.83 160.274 108.357 162.402 104.969C163.074 103.899 164.464 103.537 165.572 104.143Z" fill="#FFDFD0"/>
<path d="M191.303 129.202L189.914 135.521L186.464 141.012L187.85 134.693C188.27 132.788 187.927 130.791 186.892 129.135L183.418 123.567C182.286 121.754 180.723 120.252 178.869 119.193L162.122 109.634C161.862 109.493 161.586 109.404 161.31 109.367C161.197 107.874 161.545 106.332 162.401 104.968C162.752 104.41 163.295 104.046 163.894 103.909C164.443 103.784 165.04 103.851 165.572 104.143L182.317 113.7C184.175 114.76 185.738 116.262 186.866 118.073L190.344 123.644C191.376 125.3 191.719 127.293 191.303 129.202Z" fill="#FFCEC0"/>
<path d="M193.949 136.832L189.81 143.418C189.482 143.94 188.975 144.278 188.42 144.405C187.865 144.531 187.261 144.447 186.742 144.118C185.701 143.464 185.388 142.094 186.042 141.053L190.228 134.39L190.462 134.641L193.949 136.832Z" fill="#FDB0A0"/>
<path d="M147.882 107.006C152.947 98.9222 150.507 88.2614 142.427 83.1853C134.717 78.3417 124.656 80.3322 119.333 87.5368C118.904 88.117 118.11 88.2983 117.472 87.9617C109.549 83.7818 99.6208 86.356 94.7772 94.0658C89.7011 102.146 92.1309 112.809 100.202 117.894L126.676 134.525C128.228 135.5 130.276 135.033 131.251 133.481L147.882 107.006Z" fill="#FC78A8"/>
<path d="M147.884 107.005L131.252 133.48C130.277 135.032 128.23 135.499 126.678 134.524L123.424 132.48L139.654 106.642C144.72 98.558 142.279 87.8955 134.199 82.8194C132.817 81.9515 131.361 81.3042 129.871 80.8657C134.047 80.0369 138.538 80.7426 142.427 83.1857C150.507 88.2618 152.947 98.9215 147.884 107.005Z" fill="#FC5A95"/>
</svg>
