<svg width="125" height="138" viewBox="0 0 125 138" fill="none" xmlns="http://www.w3.org/2000/svg">
<path fill-rule="evenodd" clip-rule="evenodd" d="M65.3203 0.000997969C93.8053 0.175588 115.203 24.0564 123.004 51.4531C129.929 75.7756 118.157 99.9173 98.1853 115.43C75.5681 132.998 45.3457 146.402 21.8558 130.019C-2.62004 112.949 -4.04216 79.0334 5.41872 50.7324C14.5904 23.2966 36.3926 -0.176306 65.3203 0.000997969Z" fill="#F0EFFF"/>
<g style="mix-blend-mode:multiply" opacity="0.33">
<g style="mix-blend-mode:multiply" opacity="0.33">
<path d="M82.0125 60.8873H40.5115C39.1283 60.8873 38.0071 62.0086 38.0071 63.3917V66.5182C38.0071 67.9014 39.1283 69.0226 40.5115 69.0226H82.0125C83.3956 69.0226 84.5169 67.9014 84.5169 66.5182V63.3917C84.5169 62.0086 83.3956 60.8873 82.0125 60.8873Z" fill="#4E4E4E"/>
<path d="M82.0125 60.8873H40.5115C39.1283 60.8873 38.0071 62.0086 38.0071 63.3917V66.5182C38.0071 67.9014 39.1283 69.0226 40.5115 69.0226H82.0125C83.3956 69.0226 84.5169 67.9014 84.5169 66.5182V63.3917C84.5169 62.0086 83.3956 60.8873 82.0125 60.8873Z" stroke="black" stroke-linecap="round" stroke-linejoin="round"/>
</g>
<g style="mix-blend-mode:multiply" opacity="0.33">
<path d="M82.0125 60.8873H40.5115C39.1283 60.8873 38.0071 62.0086 38.0071 63.3917V66.5182C38.0071 67.9014 39.1283 69.0226 40.5115 69.0226H82.0125C83.3956 69.0226 84.5169 67.9014 84.5169 66.5182V63.3917C84.5169 62.0086 83.3956 60.8873 82.0125 60.8873Z" fill="#4E4E4E"/>
</g>
<g style="mix-blend-mode:multiply" opacity="0.17">
<path d="M40.5123 60.8873H82.0133C82.6775 60.8873 83.3145 61.1512 83.7842 61.6208C84.2538 62.0905 84.5177 62.7275 84.5177 63.3917V67.0477C84.5177 67.4533 84.3566 67.8423 84.0698 68.1291C83.783 68.4159 83.394 68.577 82.9884 68.577H39.5373C39.1317 68.577 38.7428 68.4159 38.456 68.1291C38.1692 67.8423 38.0081 67.4533 38.0081 67.0477V63.3917C38.0081 62.7275 38.2719 62.0905 38.7416 61.6208C39.2112 61.1512 39.8482 60.8873 40.5124 60.8873H40.5123Z" fill="#4E4E4E"/>
</g>
<g style="mix-blend-mode:multiply" opacity="0.33">
<path d="M82.0125 60.8873H40.5115C39.1283 60.8873 38.0071 62.0086 38.0071 63.3917V66.5182C38.0071 67.9014 39.1283 69.0226 40.5115 69.0226H82.0125C83.3956 69.0226 84.5169 67.9014 84.5169 66.5182V63.3917C84.5169 62.0086 83.3956 60.8873 82.0125 60.8873Z" fill="#4E4E4E"/>
<path d="M82.0125 60.8873H40.5115C39.1283 60.8873 38.0071 62.0086 38.0071 63.3917V66.5182C38.0071 67.9014 39.1283 69.0226 40.5115 69.0226H82.0125C83.3956 69.0226 84.5169 67.9014 84.5169 66.5182V63.3917C84.5169 62.0086 83.3956 60.8873 82.0125 60.8873Z" stroke="#46505C" stroke-width="4" stroke-linecap="round" stroke-linejoin="round"/>
</g>
<g style="mix-blend-mode:multiply" opacity="0.33">
<path d="M81.2971 68.0543V61.804H41.2271V68.0543H81.2971Z" fill="#4E4E4E"/>
</g>
<g style="mix-blend-mode:multiply" opacity="0.33">
<path d="M81.2971 68.0543V61.804H41.2271V68.0543H81.2971Z" fill="#4E4E4E"/>
<path d="M81.2971 68.0543V61.804H41.2271V68.0543H81.2971Z" stroke="#46505C" stroke-linecap="round" stroke-linejoin="round"/>
</g>
<g style="mix-blend-mode:multiply" opacity="0.33">
<path d="M82.0127 69.0227H40.5117C39.1286 69.0227 38.0073 70.144 38.0073 71.5271V97.2864C38.0073 98.6695 39.1286 99.7907 40.5117 99.7907H82.0127C83.3959 99.7907 84.5171 98.6695 84.5171 97.2864V71.5271C84.5171 70.144 83.3959 69.0227 82.0127 69.0227Z" fill="#4E4E4E"/>
</g>
<g style="mix-blend-mode:multiply" opacity="0.33">
<path d="M83.8015 97.2863V71.5271C83.8015 70.5391 83.0006 69.7382 82.0127 69.7382H40.5116C39.5237 69.7382 38.7228 70.5391 38.7228 71.5271V97.2863C38.7228 98.2743 39.5237 99.0752 40.5116 99.0752H82.0127C83.0006 99.0752 83.8015 98.2743 83.8015 97.2863Z" fill="#4E4E4E"/>
<path d="M83.8015 97.2863V71.5271C83.8015 70.5391 83.0006 69.7382 82.0127 69.7382H40.5116C39.5237 69.7382 38.7228 70.5391 38.7228 71.5271V97.2863C38.7228 98.2743 39.5237 99.0752 40.5116 99.0752H82.0127C83.0006 99.0752 83.8015 98.2743 83.8015 97.2863Z" stroke="#E6F3FF" stroke-width="2" stroke-miterlimit="10"/>
</g>
<g style="mix-blend-mode:multiply" opacity="0.33">
<path d="M58.3908 98.3913H64.133C64.3228 98.3913 64.5048 98.4667 64.639 98.6009C64.7732 98.7351 64.8485 98.9171 64.8485 99.1068V99.7902H57.6753V99.1068C57.6753 98.9171 57.7507 98.7351 57.8849 98.6009C58.0191 98.4667 58.2011 98.3913 58.3908 98.3913Z" fill="#4E4E4E"/>
</g>
<g style="mix-blend-mode:multiply" opacity="0.33">
<path d="M82.0127 69.0227H40.5117C39.1286 69.0227 38.0073 70.144 38.0073 71.5271V97.2864C38.0073 98.6695 39.1286 99.7907 40.5117 99.7907H82.0127C83.3959 99.7907 84.5171 98.6695 84.5171 97.2864V71.5271C84.5171 70.144 83.3959 69.0227 82.0127 69.0227Z" fill="#4E4E4E"/>
<path d="M82.0127 69.0227H40.5117C39.1286 69.0227 38.0073 70.144 38.0073 71.5271V97.2864C38.0073 98.6695 39.1286 99.7907 40.5117 99.7907H82.0127C83.3959 99.7907 84.5171 98.6695 84.5171 97.2864V71.5271C84.5171 70.144 83.3959 69.0227 82.0127 69.0227Z" stroke="#46505C" stroke-width="4" stroke-linecap="round" stroke-linejoin="round"/>
</g>
<g style="mix-blend-mode:multiply" opacity="0.33">
<path d="M81.2971 71.4232H41.2271C40.9307 71.4232 40.6904 71.6635 40.6904 71.9599V87.3439C40.6904 87.6403 40.9307 87.8805 41.2271 87.8805H81.2971C81.5935 87.8805 81.8337 87.6403 81.8337 87.3439V71.9599C81.8337 71.6635 81.5935 71.4232 81.2971 71.4232Z" fill="#4E4E4E"/>
</g>
<g style="mix-blend-mode:multiply" opacity="0.33">
<path d="M48.5765 83.8557H46.4299C46.3311 83.8557 46.251 83.9358 46.251 84.0346V86.1812C46.251 86.28 46.3311 86.3601 46.4299 86.3601H48.5765C48.6753 86.3601 48.7553 86.28 48.7553 86.1812V84.0346C48.7553 83.9358 48.6753 83.8557 48.5765 83.8557Z" fill="#4E4E4E"/>
<path d="M48.5765 83.8557H46.4299C46.3311 83.8557 46.251 83.9358 46.251 84.0346V86.1812C46.251 86.28 46.3311 86.3601 46.4299 86.3601H48.5765C48.6753 86.3601 48.7553 86.28 48.7553 86.1812V84.0346C48.7553 83.9358 48.6753 83.8557 48.5765 83.8557Z" stroke="#626C84" stroke-linecap="round" stroke-linejoin="round"/>
</g>
<g style="mix-blend-mode:multiply" opacity="0.33">
<path d="M44.7056 83.8557H42.559C42.4602 83.8557 42.3801 83.9358 42.3801 84.0346V86.1812C42.3801 86.28 42.4602 86.3601 42.559 86.3601H44.7056C44.8044 86.3601 44.8845 86.28 44.8845 86.1812V84.0346C44.8845 83.9358 44.8044 83.8557 44.7056 83.8557Z" fill="#4E4E4E"/>
<path d="M44.7056 83.8557H42.559C42.4602 83.8557 42.3801 83.9358 42.3801 84.0346V86.1812C42.3801 86.28 42.4602 86.3601 42.559 86.3601H44.7056C44.8044 86.3601 44.8845 86.28 44.8845 86.1812V84.0346C44.8845 83.9358 44.8044 83.8557 44.7056 83.8557Z" stroke="#626C84" stroke-linecap="round" stroke-linejoin="round"/>
</g>
<g style="mix-blend-mode:multiply" opacity="0.33">
<path d="M67.9304 83.8557H50.3007C50.2019 83.8557 50.1218 83.9358 50.1218 84.0346V86.1812C50.1218 86.28 50.2019 86.3601 50.3007 86.3601H67.9304C68.0292 86.3601 68.1093 86.28 68.1093 86.1812V84.0346C68.1093 83.9358 68.0292 83.8557 67.9304 83.8557Z" fill="#4E4E4E"/>
<path d="M67.9304 83.8557H50.3007C50.2019 83.8557 50.1218 83.9358 50.1218 84.0346V86.1812C50.1218 86.28 50.2019 86.3601 50.3007 86.3601H67.9304C68.0292 86.3601 68.1093 86.28 68.1093 86.1812V84.0346C68.1093 83.9358 68.0292 83.8557 67.9304 83.8557Z" stroke="#626C84" stroke-linecap="round" stroke-linejoin="round"/>
</g>
<g style="mix-blend-mode:multiply" opacity="0.33">
<path d="M71.8011 83.8557H69.6545C69.5557 83.8557 69.4756 83.9358 69.4756 84.0346V86.1812C69.4756 86.28 69.5557 86.3601 69.6545 86.3601H71.8011C71.8999 86.3601 71.98 86.28 71.98 86.1812V84.0346C71.98 83.9358 71.8999 83.8557 71.8011 83.8557Z" fill="#4E4E4E"/>
<path d="M71.8011 83.8557H69.6545C69.5557 83.8557 69.4756 83.9358 69.4756 84.0346V86.1812C69.4756 86.28 69.5557 86.3601 69.6545 86.3601H71.8011C71.8999 86.3601 71.98 86.28 71.98 86.1812V84.0346C71.98 83.9358 71.8999 83.8557 71.8011 83.8557Z" stroke="#626C84" stroke-linecap="round" stroke-linejoin="round"/>
</g>
<g style="mix-blend-mode:multiply" opacity="0.33">
<path d="M77.4608 85.2644H76.0297C75.9309 85.2644 75.8508 85.3445 75.8508 85.4433V86.1812C75.8508 86.28 75.9309 86.3601 76.0297 86.3601H77.4608C77.5596 86.3601 77.6397 86.28 77.6397 86.1812V85.4433C77.6397 85.3445 77.5596 85.2644 77.4608 85.2644Z" fill="#4E4E4E"/>
<path d="M77.4608 85.2644H76.0297C75.9309 85.2644 75.8508 85.3445 75.8508 85.4433V86.1812C75.8508 86.28 75.9309 86.3601 76.0297 86.3601H77.4608C77.5596 86.3601 77.6397 86.28 77.6397 86.1812V85.4433C77.6397 85.3445 77.5596 85.2644 77.4608 85.2644Z" stroke="#626C84" stroke-linecap="round" stroke-linejoin="round"/>
</g>
<g style="mix-blend-mode:multiply" opacity="0.33">
<path d="M77.4608 83.8557H76.0297C75.9309 83.8557 75.8508 83.9358 75.8508 84.0346V84.7725C75.8508 84.8713 75.9309 84.9514 76.0297 84.9514H77.4608C77.5596 84.9514 77.6397 84.8713 77.6397 84.7725V84.0346C77.6397 83.9358 77.5596 83.8557 77.4608 83.8557Z" fill="#4E4E4E"/>
<path d="M77.4608 83.8557H76.0297C75.9309 83.8557 75.8508 83.9358 75.8508 84.0346V84.7725C75.8508 84.8713 75.9309 84.9514 76.0297 84.9514H77.4608C77.5596 84.9514 77.6397 84.8713 77.6397 84.7725V84.0346C77.6397 83.9358 77.5596 83.8557 77.4608 83.8557Z" stroke="#626C84" stroke-linecap="round" stroke-linejoin="round"/>
</g>
<g style="mix-blend-mode:multiply" opacity="0.33">
<path d="M79.9652 85.2644H78.5341C78.4353 85.2644 78.3552 85.3445 78.3552 85.4433V86.1812C78.3552 86.28 78.4353 86.3601 78.5341 86.3601H79.9652C80.064 86.3601 80.1441 86.28 80.1441 86.1812V85.4433C80.1441 85.3445 80.064 85.2644 79.9652 85.2644Z" fill="#4E4E4E"/>
<path d="M79.9652 85.2644H78.5341C78.4353 85.2644 78.3552 85.3445 78.3552 85.4433V86.1812C78.3552 86.28 78.4353 86.3601 78.5341 86.3601H79.9652C80.064 86.3601 80.1441 86.28 80.1441 86.1812V85.4433C80.1441 85.3445 80.064 85.2644 79.9652 85.2644Z" stroke="#626C84" stroke-linecap="round" stroke-linejoin="round"/>
</g>
<g style="mix-blend-mode:multiply" opacity="0.33">
<path d="M74.9566 85.2644H73.5256C73.4268 85.2644 73.3467 85.3445 73.3467 85.4433V86.1812C73.3467 86.28 73.4268 86.3601 73.5256 86.3601H74.9566C75.0554 86.3601 75.1355 86.28 75.1355 86.1812V85.4433C75.1355 85.3445 75.0554 85.2644 74.9566 85.2644Z" fill="#4E4E4E"/>
<path d="M74.9566 85.2644H73.5256C73.4268 85.2644 73.3467 85.3445 73.3467 85.4433V86.1812C73.3467 86.28 73.4268 86.3601 73.5256 86.3601H74.9566C75.0554 86.3601 75.1355 86.28 75.1355 86.1812V85.4433C75.1355 85.3445 75.0554 85.2644 74.9566 85.2644Z" stroke="#626C84" stroke-linecap="round" stroke-linejoin="round"/>
</g>
<g style="mix-blend-mode:multiply" opacity="0.33">
<path d="M48.2187 80.2924H42.559C42.4602 80.2924 42.3801 80.3724 42.3801 80.4712V82.6178C42.3801 82.7166 42.4602 82.7967 42.559 82.7967H48.2187C48.3175 82.7967 48.3976 82.7166 48.3976 82.6178V80.4712C48.3976 80.3724 48.3175 80.2924 48.2187 80.2924Z" fill="#4E4E4E"/>
<path d="M48.2187 80.2924H42.559C42.4602 80.2924 42.3801 80.3724 42.3801 80.4712V82.6178C42.3801 82.7166 42.4602 82.7967 42.559 82.7967H48.2187C48.3175 82.7967 48.3976 82.7166 48.3976 82.6178V80.4712C48.3976 80.3724 48.3175 80.2924 48.2187 80.2924Z" stroke="#626C84" stroke-linecap="round" stroke-linejoin="round"/>
</g>
<g style="mix-blend-mode:multiply" opacity="0.33">
<path d="M52.1216 80.2924H49.975C49.8762 80.2924 49.7961 80.3724 49.7961 80.4712V82.6178C49.7961 82.7166 49.8762 82.7967 49.975 82.7967H52.1216C52.2204 82.7967 52.3005 82.7166 52.3005 82.6178V80.4712C52.3005 80.3724 52.2204 80.2924 52.1216 80.2924Z" fill="#4E4E4E"/>
<path d="M52.1216 80.2924H49.975C49.8762 80.2924 49.7961 80.3724 49.7961 80.4712V82.6178C49.7961 82.7166 49.8762 82.7967 49.975 82.7967H52.1216C52.2204 82.7967 52.3005 82.7166 52.3005 82.6178V80.4712C52.3005 80.3724 52.2204 80.2924 52.1216 80.2924Z" stroke="#626C84" stroke-linecap="round" stroke-linejoin="round"/>
</g>
<g style="mix-blend-mode:multiply" opacity="0.33">
<path d="M55.9925 80.2924H53.8459C53.7471 80.2924 53.667 80.3724 53.667 80.4712V82.6178C53.667 82.7166 53.7471 82.7967 53.8459 82.7967H55.9925C56.0913 82.7967 56.1714 82.7166 56.1714 82.6178V80.4712C56.1714 80.3724 56.0913 80.2924 55.9925 80.2924Z" fill="#4E4E4E"/>
<path d="M55.9925 80.2924H53.8459C53.7471 80.2924 53.667 80.3724 53.667 80.4712V82.6178C53.667 82.7166 53.7471 82.7967 53.8459 82.7967H55.9925C56.0913 82.7967 56.1714 82.7166 56.1714 82.6178V80.4712C56.1714 80.3724 56.0913 80.2924 55.9925 80.2924Z" stroke="#626C84" stroke-linecap="round" stroke-linejoin="round"/>
</g>
<g style="mix-blend-mode:multiply" opacity="0.33">
<path d="M59.8633 80.2924H57.7167C57.6179 80.2924 57.5378 80.3724 57.5378 80.4712V82.6178C57.5378 82.7166 57.6179 82.7967 57.7167 82.7967H59.8633C59.9621 82.7967 60.0422 82.7166 60.0422 82.6178V80.4712C60.0422 80.3724 59.9621 80.2924 59.8633 80.2924Z" fill="#4E4E4E"/>
<path d="M59.8633 80.2924H57.7167C57.6179 80.2924 57.5378 80.3724 57.5378 80.4712V82.6178C57.5378 82.7166 57.6179 82.7967 57.7167 82.7967H59.8633C59.9621 82.7967 60.0422 82.7166 60.0422 82.6178V80.4712C60.0422 80.3724 59.9621 80.2924 59.8633 80.2924Z" stroke="#626C84" stroke-linecap="round" stroke-linejoin="round"/>
</g>
<g style="mix-blend-mode:multiply" opacity="0.33">
<path d="M63.7342 80.2924H61.5876C61.4888 80.2924 61.4087 80.3724 61.4087 80.4712V82.6178C61.4087 82.7166 61.4888 82.7967 61.5876 82.7967H63.7342C63.833 82.7967 63.9131 82.7166 63.9131 82.6178V80.4712C63.9131 80.3724 63.833 80.2924 63.7342 80.2924Z" fill="#4E4E4E"/>
<path d="M63.7342 80.2924H61.5876C61.4888 80.2924 61.4087 80.3724 61.4087 80.4712V82.6178C61.4087 82.7166 61.4888 82.7967 61.5876 82.7967H63.7342C63.833 82.7967 63.9131 82.7166 63.9131 82.6178V80.4712C63.9131 80.3724 63.833 80.2924 63.7342 80.2924Z" stroke="#626C84" stroke-linecap="round" stroke-linejoin="round"/>
</g>
<g style="mix-blend-mode:multiply" opacity="0.33">
<path d="M67.6048 80.2924H65.4582C65.3594 80.2924 65.2793 80.3724 65.2793 80.4712V82.6178C65.2793 82.7166 65.3594 82.7967 65.4582 82.7967H67.6048C67.7036 82.7967 67.7837 82.7166 67.7837 82.6178V80.4712C67.7837 80.3724 67.7036 80.2924 67.6048 80.2924Z" fill="#4E4E4E"/>
<path d="M67.6048 80.2924H65.4582C65.3594 80.2924 65.2793 80.3724 65.2793 80.4712V82.6178C65.2793 82.7166 65.3594 82.7967 65.4582 82.7967H67.6048C67.7036 82.7967 67.7837 82.7166 67.7837 82.6178V80.4712C67.7837 80.3724 67.7036 80.2924 67.6048 80.2924Z" stroke="#626C84" stroke-linecap="round" stroke-linejoin="round"/>
</g>
<g style="mix-blend-mode:multiply" opacity="0.33">
<path d="M71.4759 80.2924H69.3293C69.2305 80.2924 69.1504 80.3724 69.1504 80.4712V82.6178C69.1504 82.7166 69.2305 82.7967 69.3293 82.7967H71.4759C71.5747 82.7967 71.6548 82.7166 71.6548 82.6178V80.4712C71.6548 80.3724 71.5747 80.2924 71.4759 80.2924Z" fill="#4E4E4E"/>
<path d="M71.4759 80.2924H69.3293C69.2305 80.2924 69.1504 80.3724 69.1504 80.4712V82.6178C69.1504 82.7166 69.2305 82.7967 69.3293 82.7967H71.4759C71.5747 82.7967 71.6548 82.7166 71.6548 82.6178V80.4712C71.6548 80.3724 71.5747 80.2924 71.4759 80.2924Z" stroke="#626C84" stroke-linecap="round" stroke-linejoin="round"/>
</g>
<g style="mix-blend-mode:multiply" opacity="0.33">
<path d="M79.9654 80.2924H73.5256C73.4268 80.2924 73.3467 80.3724 73.3467 80.4712V82.6178C73.3467 82.7166 73.4268 82.7967 73.5256 82.7967H79.9654C80.0642 82.7967 80.1443 82.7166 80.1443 82.6178V80.4712C80.1443 80.3724 80.0642 80.2924 79.9654 80.2924Z" fill="#4E4E4E"/>
<path d="M79.9654 80.2924H73.5256C73.4268 80.2924 73.3467 80.3724 73.3467 80.4712V82.6178C73.3467 82.7166 73.4268 82.7967 73.5256 82.7967H79.9654C80.0642 82.7967 80.1443 82.7166 80.1443 82.6178V80.4712C80.1443 80.3724 80.0642 80.2924 79.9654 80.2924Z" stroke="#626C84" stroke-linecap="round" stroke-linejoin="round"/>
</g>
<g style="mix-blend-mode:multiply" opacity="0.33">
<path d="M50.723 76.6288H48.5763C48.4776 76.6288 48.3975 76.7089 48.3975 76.8077V78.9543C48.3975 79.0531 48.4776 79.1332 48.5763 79.1332H50.723C50.8217 79.1332 50.9018 79.0531 50.9018 78.9543V76.8077C50.9018 76.7089 50.8217 76.6288 50.723 76.6288Z" fill="#4E4E4E"/>
<path d="M50.723 76.6288H48.5763C48.4776 76.6288 48.3975 76.7089 48.3975 76.8077V78.9543C48.3975 79.0531 48.4776 79.1332 48.5763 79.1332H50.723C50.8217 79.1332 50.9018 79.0531 50.9018 78.9543V76.8077C50.9018 76.7089 50.8217 76.6288 50.723 76.6288Z" stroke="#626C84" stroke-linecap="round" stroke-linejoin="round"/>
</g>
<g style="mix-blend-mode:multiply" opacity="0.33">
<path d="M46.8522 76.6288H42.559C42.4602 76.6288 42.3801 76.7089 42.3801 76.8077V78.9543C42.3801 79.0531 42.4602 79.1332 42.559 79.1332H46.8522C46.951 79.1332 47.0311 79.0531 47.0311 78.9543V76.8077C47.0311 76.7089 46.951 76.6288 46.8522 76.6288Z" fill="#4E4E4E"/>
<path d="M46.8522 76.6288H42.559C42.4602 76.6288 42.3801 76.7089 42.3801 76.8077V78.9543C42.3801 79.0531 42.4602 79.1332 42.559 79.1332H46.8522C46.951 79.1332 47.0311 79.0531 47.0311 78.9543V76.8077C47.0311 76.7089 46.951 76.6288 46.8522 76.6288Z" stroke="#626C84" stroke-linecap="round" stroke-linejoin="round"/>
</g>
<g style="mix-blend-mode:multiply" opacity="0.33">
<path d="M54.5938 76.6288H52.4472C52.3484 76.6288 52.2683 76.7089 52.2683 76.8077V78.9543C52.2683 79.0531 52.3484 79.1332 52.4472 79.1332H54.5938C54.6926 79.1332 54.7727 79.0531 54.7727 78.9543V76.8077C54.7727 76.7089 54.6926 76.6288 54.5938 76.6288Z" fill="#4E4E4E"/>
<path d="M54.5938 76.6288H52.4472C52.3484 76.6288 52.2683 76.7089 52.2683 76.8077V78.9543C52.2683 79.0531 52.3484 79.1332 52.4472 79.1332H54.5938C54.6926 79.1332 54.7727 79.0531 54.7727 78.9543V76.8077C54.7727 76.7089 54.6926 76.6288 54.5938 76.6288Z" stroke="#626C84" stroke-linecap="round" stroke-linejoin="round"/>
</g>
<g style="mix-blend-mode:multiply" opacity="0.33">
<path d="M58.4646 76.6288H56.318C56.2192 76.6288 56.1392 76.7089 56.1392 76.8077V78.9543C56.1392 79.0531 56.2192 79.1332 56.318 79.1332H58.4646C58.5634 79.1332 58.6435 79.0531 58.6435 78.9543V76.8077C58.6435 76.7089 58.5634 76.6288 58.4646 76.6288Z" fill="#4E4E4E"/>
<path d="M58.4646 76.6288H56.318C56.2192 76.6288 56.1392 76.7089 56.1392 76.8077V78.9543C56.1392 79.0531 56.2192 79.1332 56.318 79.1332H58.4646C58.5634 79.1332 58.6435 79.0531 58.6435 78.9543V76.8077C58.6435 76.7089 58.5634 76.6288 58.4646 76.6288Z" stroke="#626C84" stroke-linecap="round" stroke-linejoin="round"/>
</g>
<g style="mix-blend-mode:multiply" opacity="0.33">
<path d="M62.3353 76.6288H60.1886C60.0899 76.6288 60.0098 76.7089 60.0098 76.8077V78.9543C60.0098 79.0531 60.0899 79.1332 60.1886 79.1332H62.3353C62.4341 79.1332 62.5141 79.0531 62.5141 78.9543V76.8077C62.5141 76.7089 62.4341 76.6288 62.3353 76.6288Z" fill="#4E4E4E"/>
<path d="M62.3353 76.6288H60.1886C60.0899 76.6288 60.0098 76.7089 60.0098 76.8077V78.9543C60.0098 79.0531 60.0899 79.1332 60.1886 79.1332H62.3353C62.4341 79.1332 62.5141 79.0531 62.5141 78.9543V76.8077C62.5141 76.7089 62.4341 76.6288 62.3353 76.6288Z" stroke="#626C84" stroke-linecap="round" stroke-linejoin="round"/>
</g>
<g style="mix-blend-mode:multiply" opacity="0.33">
<path d="M66.2064 76.6288H64.0597C63.9609 76.6288 63.8809 76.7089 63.8809 76.8077V78.9543C63.8809 79.0531 63.9609 79.1332 64.0597 79.1332H66.2064C66.3052 79.1332 66.3852 79.0531 66.3852 78.9543V76.8077C66.3852 76.7089 66.3052 76.6288 66.2064 76.6288Z" fill="#4E4E4E"/>
<path d="M66.2064 76.6288H64.0597C63.9609 76.6288 63.8809 76.7089 63.8809 76.8077V78.9543C63.8809 79.0531 63.9609 79.1332 64.0597 79.1332H66.2064C66.3052 79.1332 66.3852 79.0531 66.3852 78.9543V76.8077C66.3852 76.7089 66.3052 76.6288 66.2064 76.6288Z" stroke="#626C84" stroke-linecap="round" stroke-linejoin="round"/>
</g>
<g style="mix-blend-mode:multiply" opacity="0.33">
<path d="M70.0769 76.6288H67.9303C67.8316 76.6288 67.7515 76.7089 67.7515 76.8077V78.9543C67.7515 79.0531 67.8316 79.1332 67.9303 79.1332H70.0769C70.1757 79.1332 70.2558 79.0531 70.2558 78.9543V76.8077C70.2558 76.7089 70.1757 76.6288 70.0769 76.6288Z" fill="#4E4E4E"/>
<path d="M70.0769 76.6288H67.9303C67.8316 76.6288 67.7515 76.7089 67.7515 76.8077V78.9543C67.7515 79.0531 67.8316 79.1332 67.9303 79.1332H70.0769C70.1757 79.1332 70.2558 79.0531 70.2558 78.9543V76.8077C70.2558 76.7089 70.1757 76.6288 70.0769 76.6288Z" stroke="#626C84" stroke-linecap="round" stroke-linejoin="round"/>
</g>
<g style="mix-blend-mode:multiply" opacity="0.33">
<path d="M73.9478 76.6288H71.8012C71.7024 76.6288 71.6223 76.7089 71.6223 76.8077V78.9543C71.6223 79.0531 71.7024 79.1332 71.8012 79.1332H73.9478C74.0466 79.1332 74.1267 79.0531 74.1267 78.9543V76.8077C74.1267 76.7089 74.0466 76.6288 73.9478 76.6288Z" fill="#4E4E4E"/>
<path d="M73.9478 76.6288H71.8012C71.7024 76.6288 71.6223 76.7089 71.6223 76.8077V78.9543C71.6223 79.0531 71.7024 79.1332 71.8012 79.1332H73.9478C74.0466 79.1332 74.1267 79.0531 74.1267 78.9543V76.8077C74.1267 76.7089 74.0466 76.6288 73.9478 76.6288Z" stroke="#626C84" stroke-linecap="round" stroke-linejoin="round"/>
</g>
<g style="mix-blend-mode:multiply" opacity="0.33">
<path d="M79.9653 76.6288H75.672C75.5733 76.6288 75.4932 76.7089 75.4932 76.8077V78.9543C75.4932 79.0531 75.5733 79.1332 75.672 79.1332H79.9653C80.064 79.1332 80.1441 79.0531 80.1441 78.9543V76.8077C80.1441 76.7089 80.064 76.6288 79.9653 76.6288Z" fill="#4E4E4E"/>
<path d="M79.9653 76.6288H75.672C75.5733 76.6288 75.4932 76.7089 75.4932 76.8077V78.9543C75.4932 79.0531 75.5733 79.1332 75.672 79.1332H79.9653C80.064 79.1332 80.1441 79.0531 80.1441 78.9543V76.8077C80.1441 76.7089 80.064 76.6288 79.9653 76.6288Z" stroke="#626C84" stroke-linecap="round" stroke-linejoin="round"/>
</g>
<g style="mix-blend-mode:multiply" opacity="0.33">
<path d="M48.6233 73.1227H46.4767C46.3779 73.1227 46.2979 73.2028 46.2979 73.3016V75.4482C46.2979 75.547 46.3779 75.6271 46.4767 75.6271H48.6233C48.7221 75.6271 48.8022 75.547 48.8022 75.4482V73.3016C48.8022 73.2028 48.7221 73.1227 48.6233 73.1227Z" fill="#4E4E4E"/>
<path d="M48.6233 73.1227H46.4767C46.3779 73.1227 46.2979 73.2028 46.2979 73.3016V75.4482C46.2979 75.547 46.3779 75.6271 46.4767 75.6271H48.6233C48.7221 75.6271 48.8022 75.547 48.8022 75.4482V73.3016C48.8022 73.2028 48.7221 73.1227 48.6233 73.1227Z" stroke="#626C84" stroke-linecap="round" stroke-linejoin="round"/>
</g>
<g style="mix-blend-mode:multiply" opacity="0.33">
<path d="M44.7056 73.1227H42.559C42.4602 73.1227 42.3801 73.2028 42.3801 73.3016V75.4482C42.3801 75.547 42.4602 75.6271 42.559 75.6271H44.7056C44.8044 75.6271 44.8845 75.547 44.8845 75.4482V73.3016C44.8845 73.2028 44.8044 73.1227 44.7056 73.1227Z" fill="#4E4E4E"/>
<path d="M44.7056 73.1227H42.559C42.4602 73.1227 42.3801 73.2028 42.3801 73.3016V75.4482C42.3801 75.547 42.4602 75.6271 42.559 75.6271H44.7056C44.8044 75.6271 44.8845 75.547 44.8845 75.4482V73.3016C44.8845 73.2028 44.8044 73.1227 44.7056 73.1227Z" stroke="#626C84" stroke-linecap="round" stroke-linejoin="round"/>
</g>
<g style="mix-blend-mode:multiply" opacity="0.33">
<path d="M52.5411 73.1227H50.3945C50.2957 73.1227 50.2156 73.2028 50.2156 73.3016V75.4482C50.2156 75.547 50.2957 75.6271 50.3945 75.6271H52.5411C52.6399 75.6271 52.7199 75.547 52.7199 75.4482V73.3016C52.7199 73.2028 52.6399 73.1227 52.5411 73.1227Z" fill="#4E4E4E"/>
<path d="M52.5411 73.1227H50.3945C50.2957 73.1227 50.2156 73.2028 50.2156 73.3016V75.4482C50.2156 75.547 50.2957 75.6271 50.3945 75.6271H52.5411C52.6399 75.6271 52.7199 75.547 52.7199 75.4482V73.3016C52.7199 73.2028 52.6399 73.1227 52.5411 73.1227Z" stroke="#626C84" stroke-linecap="round" stroke-linejoin="round"/>
</g>
<g style="mix-blend-mode:multiply" opacity="0.33">
<path d="M56.4588 73.1227H54.3122C54.2134 73.1227 54.1333 73.2028 54.1333 73.3016V75.4482C54.1333 75.547 54.2134 75.6271 54.3122 75.6271H56.4588C56.5576 75.6271 56.6377 75.547 56.6377 75.4482V73.3016C56.6377 73.2028 56.5576 73.1227 56.4588 73.1227Z" fill="#4E4E4E"/>
<path d="M56.4588 73.1227H54.3122C54.2134 73.1227 54.1333 73.2028 54.1333 73.3016V75.4482C54.1333 75.547 54.2134 75.6271 54.3122 75.6271H56.4588C56.5576 75.6271 56.6377 75.547 56.6377 75.4482V73.3016C56.6377 73.2028 56.5576 73.1227 56.4588 73.1227Z" stroke="#626C84" stroke-linecap="round" stroke-linejoin="round"/>
</g>
<g style="mix-blend-mode:multiply" opacity="0.33">
<path d="M60.3765 73.1227H58.2299C58.1311 73.1227 58.051 73.2028 58.051 73.3016V75.4482C58.051 75.547 58.1311 75.6271 58.2299 75.6271H60.3765C60.4753 75.6271 60.5554 75.547 60.5554 75.4482V73.3016C60.5554 73.2028 60.4753 73.1227 60.3765 73.1227Z" fill="#4E4E4E"/>
<path d="M60.3765 73.1227H58.2299C58.1311 73.1227 58.051 73.2028 58.051 73.3016V75.4482C58.051 75.547 58.1311 75.6271 58.2299 75.6271H60.3765C60.4753 75.6271 60.5554 75.547 60.5554 75.4482V73.3016C60.5554 73.2028 60.4753 73.1227 60.3765 73.1227Z" stroke="#626C84" stroke-linecap="round" stroke-linejoin="round"/>
</g>
<g style="mix-blend-mode:multiply" opacity="0.33">
<path d="M64.2942 73.1227H62.1476C62.0488 73.1227 61.9688 73.2028 61.9688 73.3016V75.4482C61.9688 75.547 62.0488 75.6271 62.1476 75.6271H64.2942C64.393 75.6271 64.4731 75.547 64.4731 75.4482V73.3016C64.4731 73.2028 64.393 73.1227 64.2942 73.1227Z" fill="#4E4E4E"/>
<path d="M64.2942 73.1227H62.1476C62.0488 73.1227 61.9688 73.2028 61.9688 73.3016V75.4482C61.9688 75.547 62.0488 75.6271 62.1476 75.6271H64.2942C64.393 75.6271 64.4731 75.547 64.4731 75.4482V73.3016C64.4731 73.2028 64.393 73.1227 64.2942 73.1227Z" stroke="#626C84" stroke-linecap="round" stroke-linejoin="round"/>
</g>
<g style="mix-blend-mode:multiply" opacity="0.33">
<path d="M68.212 73.1227H66.0654C65.9666 73.1227 65.8865 73.2028 65.8865 73.3016V75.4482C65.8865 75.547 65.9666 75.6271 66.0654 75.6271H68.212C68.3108 75.6271 68.3909 75.547 68.3909 75.4482V73.3016C68.3909 73.2028 68.3108 73.1227 68.212 73.1227Z" fill="#4E4E4E"/>
<path d="M68.212 73.1227H66.0654C65.9666 73.1227 65.8865 73.2028 65.8865 73.3016V75.4482C65.8865 75.547 65.9666 75.6271 66.0654 75.6271H68.212C68.3108 75.6271 68.3909 75.547 68.3909 75.4482V73.3016C68.3909 73.2028 68.3108 73.1227 68.212 73.1227Z" stroke="#626C84" stroke-linecap="round" stroke-linejoin="round"/>
</g>
<g style="mix-blend-mode:multiply" opacity="0.33">
<path d="M72.1297 73.1227H69.9831C69.8843 73.1227 69.8042 73.2028 69.8042 73.3016V75.4482C69.8042 75.547 69.8843 75.6271 69.9831 75.6271H72.1297C72.2285 75.6271 72.3086 75.547 72.3086 75.4482V73.3016C72.3086 73.2028 72.2285 73.1227 72.1297 73.1227Z" fill="#4E4E4E"/>
<path d="M72.1297 73.1227H69.9831C69.8843 73.1227 69.8042 73.2028 69.8042 73.3016V75.4482C69.8042 75.547 69.8843 75.6271 69.9831 75.6271H72.1297C72.2285 75.6271 72.3086 75.547 72.3086 75.4482V73.3016C72.3086 73.2028 72.2285 73.1227 72.1297 73.1227Z" stroke="#626C84" stroke-linecap="round" stroke-linejoin="round"/>
</g>
<g style="mix-blend-mode:multiply" opacity="0.33">
<path d="M76.0474 73.1227H73.9008C73.802 73.1227 73.7219 73.2028 73.7219 73.3016V75.4482C73.7219 75.547 73.802 75.6271 73.9008 75.6271H76.0474C76.1462 75.6271 76.2263 75.547 76.2263 75.4482V73.3016C76.2263 73.2028 76.1462 73.1227 76.0474 73.1227Z" fill="#4E4E4E"/>
<path d="M76.0474 73.1227H73.9008C73.802 73.1227 73.7219 73.2028 73.7219 73.3016V75.4482C73.7219 75.547 73.802 75.6271 73.9008 75.6271H76.0474C76.1462 75.6271 76.2263 75.547 76.2263 75.4482V73.3016C76.2263 73.2028 76.1462 73.1227 76.0474 73.1227Z" stroke="#626C84" stroke-linecap="round" stroke-linejoin="round"/>
</g>
<g style="mix-blend-mode:multiply" opacity="0.33">
<path d="M79.9654 73.1227H77.8188C77.72 73.1227 77.6399 73.2028 77.6399 73.3016V75.4482C77.6399 75.547 77.72 75.6271 77.8188 75.6271H79.9654C80.0642 75.6271 80.1443 75.547 80.1443 75.4482V73.3016C80.1443 73.2028 80.0642 73.1227 79.9654 73.1227Z" fill="#4E4E4E"/>
<path d="M79.9654 73.1227H77.8188C77.72 73.1227 77.6399 73.2028 77.6399 73.3016V75.4482C77.6399 75.547 77.72 75.6271 77.8188 75.6271H79.9654C80.0642 75.6271 80.1443 75.547 80.1443 75.4482V73.3016C80.1443 73.2028 80.0642 73.1227 79.9654 73.1227Z" stroke="#626C84" stroke-linecap="round" stroke-linejoin="round"/>
</g>
<g style="mix-blend-mode:multiply" opacity="0.33">
<path d="M48.5765 83.8557H46.4299C46.3311 83.8557 46.251 83.9358 46.251 84.0346V86.1812C46.251 86.28 46.3311 86.3601 46.4299 86.3601H48.5765C48.6753 86.3601 48.7553 86.28 48.7553 86.1812V84.0346C48.7553 83.9358 48.6753 83.8557 48.5765 83.8557Z" fill="#4E4E4E"/>
</g>
<g style="mix-blend-mode:multiply" opacity="0.33">
<path d="M44.7056 83.8557H42.559C42.4602 83.8557 42.3801 83.9358 42.3801 84.0346V86.1812C42.3801 86.28 42.4602 86.3601 42.559 86.3601H44.7056C44.8044 86.3601 44.8845 86.28 44.8845 86.1812V84.0346C44.8845 83.9358 44.8044 83.8557 44.7056 83.8557Z" fill="#4E4E4E"/>
</g>
<g style="mix-blend-mode:multiply" opacity="0.33">
<path d="M67.9304 83.8557H50.3007C50.2019 83.8557 50.1218 83.9358 50.1218 84.0346V86.1812C50.1218 86.28 50.2019 86.3601 50.3007 86.3601H67.9304C68.0292 86.3601 68.1093 86.28 68.1093 86.1812V84.0346C68.1093 83.9358 68.0292 83.8557 67.9304 83.8557Z" fill="#4E4E4E"/>
</g>
<g style="mix-blend-mode:multiply" opacity="0.33">
<path d="M71.8011 83.8557H69.6545C69.5557 83.8557 69.4756 83.9358 69.4756 84.0346V86.1812C69.4756 86.28 69.5557 86.3601 69.6545 86.3601H71.8011C71.8999 86.3601 71.98 86.28 71.98 86.1812V84.0346C71.98 83.9358 71.8999 83.8557 71.8011 83.8557Z" fill="#4E4E4E"/>
</g>
<g style="mix-blend-mode:multiply" opacity="0.33">
<path d="M77.4608 85.2644H76.0297C75.9309 85.2644 75.8508 85.3445 75.8508 85.4433V86.1812C75.8508 86.28 75.9309 86.3601 76.0297 86.3601H77.4608C77.5596 86.3601 77.6397 86.28 77.6397 86.1812V85.4433C77.6397 85.3445 77.5596 85.2644 77.4608 85.2644Z" fill="#4E4E4E"/>
</g>
<g style="mix-blend-mode:multiply" opacity="0.33">
<path d="M77.4608 83.8557H76.0297C75.9309 83.8557 75.8508 83.9358 75.8508 84.0346V84.7725C75.8508 84.8713 75.9309 84.9514 76.0297 84.9514H77.4608C77.5596 84.9514 77.6397 84.8713 77.6397 84.7725V84.0346C77.6397 83.9358 77.5596 83.8557 77.4608 83.8557Z" fill="#4E4E4E"/>
</g>
<g style="mix-blend-mode:multiply" opacity="0.33">
<path d="M79.9652 85.2644H78.5341C78.4353 85.2644 78.3552 85.3445 78.3552 85.4433V86.1812C78.3552 86.28 78.4353 86.3601 78.5341 86.3601H79.9652C80.064 86.3601 80.1441 86.28 80.1441 86.1812V85.4433C80.1441 85.3445 80.064 85.2644 79.9652 85.2644Z" fill="#4E4E4E"/>
</g>
<g style="mix-blend-mode:multiply" opacity="0.33">
<path d="M74.9566 85.2644H73.5256C73.4268 85.2644 73.3467 85.3445 73.3467 85.4433V86.1812C73.3467 86.28 73.4268 86.3601 73.5256 86.3601H74.9566C75.0554 86.3601 75.1355 86.28 75.1355 86.1812V85.4433C75.1355 85.3445 75.0554 85.2644 74.9566 85.2644Z" fill="#4E4E4E"/>
</g>
<g style="mix-blend-mode:multiply" opacity="0.33">
<path d="M48.2187 80.2924H42.559C42.4602 80.2924 42.3801 80.3724 42.3801 80.4712V82.6178C42.3801 82.7166 42.4602 82.7967 42.559 82.7967H48.2187C48.3175 82.7967 48.3976 82.7166 48.3976 82.6178V80.4712C48.3976 80.3724 48.3175 80.2924 48.2187 80.2924Z" fill="#4E4E4E"/>
</g>
<g style="mix-blend-mode:multiply" opacity="0.33">
<path d="M52.1216 80.2924H49.975C49.8762 80.2924 49.7961 80.3724 49.7961 80.4712V82.6178C49.7961 82.7166 49.8762 82.7967 49.975 82.7967H52.1216C52.2204 82.7967 52.3005 82.7166 52.3005 82.6178V80.4712C52.3005 80.3724 52.2204 80.2924 52.1216 80.2924Z" fill="#4E4E4E"/>
</g>
<g style="mix-blend-mode:multiply" opacity="0.33">
<path d="M55.9925 80.2924H53.8459C53.7471 80.2924 53.667 80.3724 53.667 80.4712V82.6178C53.667 82.7166 53.7471 82.7967 53.8459 82.7967H55.9925C56.0913 82.7967 56.1714 82.7166 56.1714 82.6178V80.4712C56.1714 80.3724 56.0913 80.2924 55.9925 80.2924Z" fill="#4E4E4E"/>
</g>
<g style="mix-blend-mode:multiply" opacity="0.33">
<path d="M59.8633 80.2924H57.7167C57.6179 80.2924 57.5378 80.3724 57.5378 80.4712V82.6178C57.5378 82.7166 57.6179 82.7967 57.7167 82.7967H59.8633C59.9621 82.7967 60.0422 82.7166 60.0422 82.6178V80.4712C60.0422 80.3724 59.9621 80.2924 59.8633 80.2924Z" fill="#4E4E4E"/>
</g>
<g style="mix-blend-mode:multiply" opacity="0.33">
<path d="M63.7342 80.2924H61.5876C61.4888 80.2924 61.4087 80.3724 61.4087 80.4712V82.6178C61.4087 82.7166 61.4888 82.7967 61.5876 82.7967H63.7342C63.833 82.7967 63.9131 82.7166 63.9131 82.6178V80.4712C63.9131 80.3724 63.833 80.2924 63.7342 80.2924Z" fill="#4E4E4E"/>
</g>
<g style="mix-blend-mode:multiply" opacity="0.33">
<path d="M67.6048 80.2924H65.4582C65.3594 80.2924 65.2793 80.3724 65.2793 80.4712V82.6178C65.2793 82.7166 65.3594 82.7967 65.4582 82.7967H67.6048C67.7036 82.7967 67.7837 82.7166 67.7837 82.6178V80.4712C67.7837 80.3724 67.7036 80.2924 67.6048 80.2924Z" fill="#4E4E4E"/>
</g>
<g style="mix-blend-mode:multiply" opacity="0.33">
<path d="M71.4759 80.2924H69.3293C69.2305 80.2924 69.1504 80.3724 69.1504 80.4712V82.6178C69.1504 82.7166 69.2305 82.7967 69.3293 82.7967H71.4759C71.5747 82.7967 71.6548 82.7166 71.6548 82.6178V80.4712C71.6548 80.3724 71.5747 80.2924 71.4759 80.2924Z" fill="#4E4E4E"/>
</g>
<g style="mix-blend-mode:multiply" opacity="0.33">
<path d="M79.9654 80.2924H73.5256C73.4268 80.2924 73.3467 80.3724 73.3467 80.4712V82.6178C73.3467 82.7166 73.4268 82.7967 73.5256 82.7967H79.9654C80.0642 82.7967 80.1443 82.7166 80.1443 82.6178V80.4712C80.1443 80.3724 80.0642 80.2924 79.9654 80.2924Z" fill="#4E4E4E"/>
</g>
<g style="mix-blend-mode:multiply" opacity="0.33">
<path d="M50.723 76.6288H48.5763C48.4776 76.6288 48.3975 76.7089 48.3975 76.8077V78.9543C48.3975 79.0531 48.4776 79.1332 48.5763 79.1332H50.723C50.8217 79.1332 50.9018 79.0531 50.9018 78.9543V76.8077C50.9018 76.7089 50.8217 76.6288 50.723 76.6288Z" fill="#4E4E4E"/>
</g>
<g style="mix-blend-mode:multiply" opacity="0.33">
<path d="M46.8522 76.6288H42.559C42.4602 76.6288 42.3801 76.7089 42.3801 76.8077V78.9543C42.3801 79.0531 42.4602 79.1332 42.559 79.1332H46.8522C46.951 79.1332 47.0311 79.0531 47.0311 78.9543V76.8077C47.0311 76.7089 46.951 76.6288 46.8522 76.6288Z" fill="#4E4E4E"/>
</g>
<g style="mix-blend-mode:multiply" opacity="0.33">
<path d="M54.5938 76.6288H52.4472C52.3484 76.6288 52.2683 76.7089 52.2683 76.8077V78.9543C52.2683 79.0531 52.3484 79.1332 52.4472 79.1332H54.5938C54.6926 79.1332 54.7727 79.0531 54.7727 78.9543V76.8077C54.7727 76.7089 54.6926 76.6288 54.5938 76.6288Z" fill="#4E4E4E"/>
</g>
<g style="mix-blend-mode:multiply" opacity="0.33">
<path d="M58.4646 76.6288H56.318C56.2192 76.6288 56.1392 76.7089 56.1392 76.8077V78.9543C56.1392 79.0531 56.2192 79.1332 56.318 79.1332H58.4646C58.5634 79.1332 58.6435 79.0531 58.6435 78.9543V76.8077C58.6435 76.7089 58.5634 76.6288 58.4646 76.6288Z" fill="#4E4E4E"/>
</g>
<g style="mix-blend-mode:multiply" opacity="0.33">
<path d="M62.3353 76.6288H60.1886C60.0899 76.6288 60.0098 76.7089 60.0098 76.8077V78.9543C60.0098 79.0531 60.0899 79.1332 60.1886 79.1332H62.3353C62.4341 79.1332 62.5141 79.0531 62.5141 78.9543V76.8077C62.5141 76.7089 62.4341 76.6288 62.3353 76.6288Z" fill="#4E4E4E"/>
</g>
<g style="mix-blend-mode:multiply" opacity="0.33">
<path d="M66.2064 76.6288H64.0597C63.9609 76.6288 63.8809 76.7089 63.8809 76.8077V78.9543C63.8809 79.0531 63.9609 79.1332 64.0597 79.1332H66.2064C66.3052 79.1332 66.3852 79.0531 66.3852 78.9543V76.8077C66.3852 76.7089 66.3052 76.6288 66.2064 76.6288Z" fill="#4E4E4E"/>
</g>
<g style="mix-blend-mode:multiply" opacity="0.33">
<path d="M70.0769 76.6288H67.9303C67.8316 76.6288 67.7515 76.7089 67.7515 76.8077V78.9543C67.7515 79.0531 67.8316 79.1332 67.9303 79.1332H70.0769C70.1757 79.1332 70.2558 79.0531 70.2558 78.9543V76.8077C70.2558 76.7089 70.1757 76.6288 70.0769 76.6288Z" fill="#4E4E4E"/>
</g>
<g style="mix-blend-mode:multiply" opacity="0.33">
<path d="M73.9478 76.6288H71.8012C71.7024 76.6288 71.6223 76.7089 71.6223 76.8077V78.9543C71.6223 79.0531 71.7024 79.1332 71.8012 79.1332H73.9478C74.0466 79.1332 74.1267 79.0531 74.1267 78.9543V76.8077C74.1267 76.7089 74.0466 76.6288 73.9478 76.6288Z" fill="#4E4E4E"/>
</g>
<g style="mix-blend-mode:multiply" opacity="0.33">
<path d="M79.9653 76.6288H75.672C75.5733 76.6288 75.4932 76.7089 75.4932 76.8077V78.9543C75.4932 79.0531 75.5733 79.1332 75.672 79.1332H79.9653C80.064 79.1332 80.1441 79.0531 80.1441 78.9543V76.8077C80.1441 76.7089 80.064 76.6288 79.9653 76.6288Z" fill="#4E4E4E"/>
</g>
<g style="mix-blend-mode:multiply" opacity="0.33">
<path d="M48.6233 73.1227H46.4767C46.3779 73.1227 46.2979 73.2028 46.2979 73.3016V75.4482C46.2979 75.547 46.3779 75.6271 46.4767 75.6271H48.6233C48.7221 75.6271 48.8022 75.547 48.8022 75.4482V73.3016C48.8022 73.2028 48.7221 73.1227 48.6233 73.1227Z" fill="#4E4E4E"/>
</g>
<g style="mix-blend-mode:multiply" opacity="0.33">
<path d="M44.7056 73.1227H42.559C42.4602 73.1227 42.3801 73.2028 42.3801 73.3016V75.4482C42.3801 75.547 42.4602 75.6271 42.559 75.6271H44.7056C44.8044 75.6271 44.8845 75.547 44.8845 75.4482V73.3016C44.8845 73.2028 44.8044 73.1227 44.7056 73.1227Z" fill="#4E4E4E"/>
</g>
<g style="mix-blend-mode:multiply" opacity="0.33">
<path d="M52.5411 73.1227H50.3945C50.2957 73.1227 50.2156 73.2028 50.2156 73.3016V75.4482C50.2156 75.547 50.2957 75.6271 50.3945 75.6271H52.5411C52.6399 75.6271 52.7199 75.547 52.7199 75.4482V73.3016C52.7199 73.2028 52.6399 73.1227 52.5411 73.1227Z" fill="#4E4E4E"/>
</g>
<g style="mix-blend-mode:multiply" opacity="0.33">
<path d="M56.4588 73.1227H54.3122C54.2134 73.1227 54.1333 73.2028 54.1333 73.3016V75.4482C54.1333 75.547 54.2134 75.6271 54.3122 75.6271H56.4588C56.5576 75.6271 56.6377 75.547 56.6377 75.4482V73.3016C56.6377 73.2028 56.5576 73.1227 56.4588 73.1227Z" fill="#4E4E4E"/>
</g>
<g style="mix-blend-mode:multiply" opacity="0.33">
<path d="M60.3765 73.1227H58.2299C58.1311 73.1227 58.051 73.2028 58.051 73.3016V75.4482C58.051 75.547 58.1311 75.6271 58.2299 75.6271H60.3765C60.4753 75.6271 60.5554 75.547 60.5554 75.4482V73.3016C60.5554 73.2028 60.4753 73.1227 60.3765 73.1227Z" fill="#4E4E4E"/>
</g>
<g style="mix-blend-mode:multiply" opacity="0.33">
<path d="M64.2942 73.1227H62.1476C62.0488 73.1227 61.9688 73.2028 61.9688 73.3016V75.4482C61.9688 75.547 62.0488 75.6271 62.1476 75.6271H64.2942C64.393 75.6271 64.4731 75.547 64.4731 75.4482V73.3016C64.4731 73.2028 64.393 73.1227 64.2942 73.1227Z" fill="#4E4E4E"/>
</g>
<g style="mix-blend-mode:multiply" opacity="0.33">
<path d="M68.212 73.1227H66.0654C65.9666 73.1227 65.8865 73.2028 65.8865 73.3016V75.4482C65.8865 75.547 65.9666 75.6271 66.0654 75.6271H68.212C68.3108 75.6271 68.3909 75.547 68.3909 75.4482V73.3016C68.3909 73.2028 68.3108 73.1227 68.212 73.1227Z" fill="#4E4E4E"/>
</g>
<g style="mix-blend-mode:multiply" opacity="0.33">
<path d="M72.1297 73.1227H69.9831C69.8843 73.1227 69.8042 73.2028 69.8042 73.3016V75.4482C69.8042 75.547 69.8843 75.6271 69.9831 75.6271H72.1297C72.2285 75.6271 72.3086 75.547 72.3086 75.4482V73.3016C72.3086 73.2028 72.2285 73.1227 72.1297 73.1227Z" fill="#4E4E4E"/>
</g>
<g style="mix-blend-mode:multiply" opacity="0.33">
<path d="M76.0474 73.1227H73.9008C73.802 73.1227 73.7219 73.2028 73.7219 73.3016V75.4482C73.7219 75.547 73.802 75.6271 73.9008 75.6271H76.0474C76.1462 75.6271 76.2263 75.547 76.2263 75.4482V73.3016C76.2263 73.2028 76.1462 73.1227 76.0474 73.1227Z" fill="#4E4E4E"/>
</g>
<g style="mix-blend-mode:multiply" opacity="0.33">
<path d="M79.9654 73.1227H77.8188C77.72 73.1227 77.6399 73.2028 77.6399 73.3016V75.4482C77.6399 75.547 77.72 75.6271 77.8188 75.6271H79.9654C80.0642 75.6271 80.1443 75.547 80.1443 75.4482V73.3016C80.1443 73.2028 80.0642 73.1227 79.9654 73.1227Z" fill="#4E4E4E"/>
</g>
<g style="mix-blend-mode:multiply" opacity="0.33">
<path d="M46.0569 67.4155H76.4671V69.8208C76.4671 70.0106 76.3918 70.1926 76.2576 70.3268C76.1234 70.461 75.9414 70.5363 75.7516 70.5363H46.7724C46.5826 70.5363 46.4006 70.461 46.2665 70.3268C46.1323 70.1926 46.0569 70.0106 46.0569 69.8208V67.4155Z" fill="#4E4E4E"/>
</g>
<g style="mix-blend-mode:multiply" opacity="0.25">
<path d="M75.7516 69.8206H46.7724C46.5826 69.8206 46.4006 69.7453 46.2665 69.6111C46.1323 69.4769 46.0569 69.2949 46.0569 69.1051V69.8206C46.0569 70.0104 46.1323 70.1924 46.2665 70.3266C46.4006 70.4608 46.5826 70.5362 46.7724 70.5362H75.7516C75.9414 70.5362 76.1234 70.4608 76.2576 70.3266C76.3918 70.1924 76.4671 70.0104 76.4671 69.8206V69.1051C76.4671 69.2949 76.3918 69.4769 76.2576 69.6111C76.1234 69.7453 75.9414 69.8206 75.7516 69.8206Z" fill="#4E4E4E"/>
</g>
<g style="mix-blend-mode:multiply" opacity="0.33">
<path d="M46.0569 67.4155H76.4671V69.8208C76.4671 70.0106 76.3918 70.1926 76.2576 70.3268C76.1234 70.461 75.9414 70.5363 75.7516 70.5363H46.7724C46.5826 70.5363 46.4006 70.461 46.2665 70.3268C46.1323 70.1926 46.0569 70.0106 46.0569 69.8208V67.4155Z" fill="#4E4E4E"/>
<path d="M46.0569 67.4155H76.4671V69.8208C76.4671 70.0106 76.3918 70.1926 76.2576 70.3268C76.1234 70.461 75.9414 70.5363 75.7516 70.5363H46.7724C46.5826 70.5363 46.4006 70.461 46.2665 70.3268C46.1323 70.1926 46.0569 70.0106 46.0569 69.8208V67.4155Z" stroke="#46505C" stroke-width="2" stroke-linecap="round" stroke-linejoin="round"/>
</g>
<g style="mix-blend-mode:multiply" opacity="0.33">
<path d="M67.523 88.775H55.0011C54.8035 88.775 54.6433 88.9352 54.6433 89.1328V97.5403C54.6433 97.7379 54.8035 97.8981 55.0011 97.8981H67.523C67.7205 97.8981 67.8807 97.7379 67.8807 97.5403V89.1328C67.8807 88.9352 67.7205 88.775 67.523 88.775Z" fill="#4E4E4E"/>
</g>
<g style="mix-blend-mode:multiply" opacity="0.33">
<path d="M67.523 88.775H55.0011C54.8035 88.775 54.6433 88.9352 54.6433 89.1328V97.5403C54.6433 97.7379 54.8035 97.8981 55.0011 97.8981H67.523C67.7205 97.8981 67.8807 97.7379 67.8807 97.5403V89.1328C67.8807 88.9352 67.7205 88.775 67.523 88.775Z" fill="#4E4E4E"/>
<path d="M67.523 88.775H55.0011C54.8035 88.775 54.6433 88.9352 54.6433 89.1328V97.5403C54.6433 97.7379 54.8035 97.8981 55.0011 97.8981H67.523C67.7205 97.8981 67.8807 97.7379 67.8807 97.5403V89.1328C67.8807 88.9352 67.7205 88.775 67.523 88.775Z" stroke="#626C84" stroke-linecap="round" stroke-linejoin="round"/>
</g>
</g>
<g style="mix-blend-mode:multiply" opacity="0.33">
<g style="mix-blend-mode:multiply" opacity="0.33">
<path d="M21.8189 86.9093L23.1992 84.9365C23.218 84.9096 23.2467 84.8913 23.279 84.8856C23.3113 84.8798 23.3446 84.8872 23.3715 84.906L24.7803 85.8917C24.8072 85.9105 24.8255 85.9392 24.8312 85.9715C24.8369 86.0038 24.8295 86.0371 24.8107 86.064L23.4305 88.0368C23.2945 88.2311 23.087 88.3634 22.8535 88.4047C22.62 88.446 22.3797 88.3928 22.1854 88.2568L22.0389 88.1543C21.8446 88.0184 21.7123 87.8109 21.6711 87.5774C21.6298 87.3439 21.683 87.1036 21.8189 86.9093Z" fill="#4E4E4E"/>
<path d="M21.8189 86.9093L23.1992 84.9365C23.218 84.9096 23.2467 84.8913 23.279 84.8856C23.3113 84.8798 23.3446 84.8872 23.3715 84.906L24.7803 85.8917C24.8072 85.9105 24.8255 85.9392 24.8312 85.9715C24.8369 86.0038 24.8295 86.0371 24.8107 86.064L23.4305 88.0368C23.2945 88.2311 23.087 88.3634 22.8535 88.4047C22.62 88.446 22.3797 88.3928 22.1854 88.2568L22.0389 88.1543C21.8446 88.0184 21.7123 87.8109 21.6711 87.5774C21.6298 87.3439 21.683 87.1036 21.8189 86.9093Z" stroke="#46505C" stroke-width="3.99818" stroke-linecap="round" stroke-linejoin="round"/>
</g>
<g style="mix-blend-mode:multiply" opacity="0.33">
<path d="M21.8189 86.9093L23.1992 84.9365C23.218 84.9096 23.2467 84.8913 23.279 84.8856C23.3113 84.8798 23.3446 84.8872 23.3715 84.906L24.7803 85.8917C24.8072 85.9105 24.8255 85.9392 24.8312 85.9715C24.8369 86.0038 24.8295 86.0371 24.8107 86.064L23.4305 88.0368C23.2945 88.2311 23.087 88.3634 22.8535 88.4047C22.62 88.446 22.3797 88.3928 22.1854 88.2568L22.0389 88.1543C21.8446 88.0184 21.7123 87.8109 21.6711 87.5774C21.6298 87.3439 21.683 87.1036 21.8189 86.9093Z" fill="#4E4E4E"/>
<path d="M21.8189 86.9093L23.1992 84.9365C23.218 84.9096 23.2467 84.8913 23.279 84.8856C23.3113 84.8798 23.3446 84.8872 23.3715 84.906L24.7803 85.8917C24.8072 85.9105 24.8255 85.9392 24.8312 85.9715C24.8369 86.0038 24.8295 86.0371 24.8107 86.064L23.4305 88.0368C23.2945 88.2311 23.087 88.3634 22.8535 88.4047C22.62 88.446 22.3797 88.3928 22.1854 88.2568L22.0389 88.1543C21.8446 88.0184 21.7123 87.8109 21.6711 87.5774C21.6298 87.3439 21.683 87.1036 21.8189 86.9093Z" stroke="#46505C" stroke-width="3.99818" stroke-linecap="round" stroke-linejoin="round"/>
</g>
<g style="mix-blend-mode:multiply" opacity="0.33">
<path d="M27.1191 86.9424C30.3374 86.9424 32.9464 84.3334 32.9464 81.115C32.9464 77.8967 30.3374 75.2877 27.1191 75.2877C23.9007 75.2877 21.2917 77.8967 21.2917 81.115C21.2917 84.3334 23.9007 86.9424 27.1191 86.9424Z" fill="#4E4E4E"/>
<path d="M27.1191 86.9424C30.3374 86.9424 32.9464 84.3334 32.9464 81.115C32.9464 77.8967 30.3374 75.2877 27.1191 75.2877C23.9007 75.2877 21.2917 77.8967 21.2917 81.115C21.2917 84.3334 23.9007 86.9424 27.1191 86.9424Z" stroke="#46505C" stroke-width="4" stroke-linecap="round" stroke-linejoin="round"/>
</g>
<g style="mix-blend-mode:multiply" opacity="0.33">
<path d="M27.1191 86.9424C30.3374 86.9424 32.9464 84.3334 32.9464 81.115C32.9464 77.8967 30.3374 75.2877 27.1191 75.2877C23.9007 75.2877 21.2917 77.8967 21.2917 81.115C21.2917 84.3334 23.9007 86.9424 27.1191 86.9424Z" fill="#4E4E4E"/>
<path d="M27.1191 86.9424C30.3374 86.9424 32.9464 84.3334 32.9464 81.115C32.9464 77.8967 30.3374 75.2877 27.1191 75.2877C23.9007 75.2877 21.2917 77.8967 21.2917 81.115C21.2917 84.3334 23.9007 86.9424 27.1191 86.9424Z" stroke="#46505C" stroke-width="4" stroke-linecap="round" stroke-linejoin="round"/>
</g>
<g style="mix-blend-mode:multiply" opacity="0.33">
<path d="M27.1191 85.6507C29.624 85.6507 31.6547 83.62 31.6547 81.1151C31.6547 78.6101 29.624 76.5795 27.1191 76.5795C24.6142 76.5795 22.5835 78.6101 22.5835 81.1151C22.5835 83.62 24.6142 85.6507 27.1191 85.6507Z" fill="#4E4E4E"/>
<path d="M27.1191 85.6507C29.624 85.6507 31.6547 83.62 31.6547 81.1151C31.6547 78.6101 29.624 76.5795 27.1191 76.5795C24.6142 76.5795 22.5835 78.6101 22.5835 81.1151C22.5835 83.62 24.6142 85.6507 27.1191 85.6507Z" stroke="#46505C" stroke-width="4" stroke-linecap="round" stroke-linejoin="round"/>
</g>
<g style="mix-blend-mode:multiply" opacity="0.33">
<path d="M27.1191 85.6507C29.624 85.6507 31.6547 83.62 31.6547 81.1151C31.6547 78.6101 29.624 76.5795 27.1191 76.5795C24.6142 76.5795 22.5835 78.6101 22.5835 81.1151C22.5835 83.62 24.6142 85.6507 27.1191 85.6507Z" fill="#4E4E4E"/>
<path d="M27.1191 85.6507C29.624 85.6507 31.6547 83.62 31.6547 81.1151C31.6547 78.6101 29.624 76.5795 27.1191 76.5795C24.6142 76.5795 22.5835 78.6101 22.5835 81.1151C22.5835 83.62 24.6142 85.6507 27.1191 85.6507Z" stroke="#46505C" stroke-width="4" stroke-linecap="round" stroke-linejoin="round"/>
</g>
<g style="mix-blend-mode:multiply" opacity="0.33">
<path d="M24.1539 80.1736C24.2145 80.0369 24.2802 79.9029 24.3471 79.7718C24.6512 79.1757 25.0149 78.5579 25.5953 78.1928C26.0882 77.8826 26.7774 77.7611 27.3116 78.0355C27.7749 78.2735 28.0541 78.7627 28.4768 79.0672C28.7617 79.2417 29.0577 79.3974 29.363 79.5332C29.6712 79.6719 29.915 79.9226 30.0451 80.2346C30.1882 80.6718 29.9522 81.1383 29.9499 81.5984C29.9491 81.8522 30.0196 82.1012 30.1533 82.3169C30.2378 82.4179 30.292 82.5406 30.3098 82.671C30.297 82.7545 30.2616 82.8329 30.2076 82.8978C30.1535 82.9627 30.0828 83.0117 30.003 83.0395C29.5333 83.2615 28.9847 83.1813 28.468 83.1255C27.9514 83.0697 27.3794 83.0579 26.971 83.3792C26.8038 83.5333 26.6489 83.7003 26.5078 83.8786C26.4482 83.968 26.3696 84.043 26.2776 84.0984C26.1856 84.1538 26.0825 84.1882 25.9757 84.1991C25.8688 84.21 25.7609 84.1971 25.6596 84.1614C25.5583 84.1257 25.4662 84.068 25.3898 83.9926C25.0196 83.6824 24.6983 83.3181 24.4371 82.9119C24.1625 82.5684 23.9685 82.1675 23.8695 81.739C23.7766 81.2068 23.9314 80.6743 24.1539 80.1736Z" fill="#4E4E4E"/>
<path d="M24.1539 80.1736C24.2145 80.0369 24.2802 79.9029 24.3471 79.7718C24.6512 79.1757 25.0149 78.5579 25.5953 78.1928C26.0882 77.8826 26.7774 77.7611 27.3116 78.0355C27.7749 78.2735 28.0541 78.7627 28.4768 79.0672C28.7617 79.2417 29.0577 79.3974 29.363 79.5332C29.6712 79.6719 29.915 79.9226 30.0451 80.2346C30.1882 80.6718 29.9522 81.1383 29.9499 81.5984C29.9491 81.8522 30.0196 82.1012 30.1533 82.3169C30.2378 82.4179 30.292 82.5406 30.3098 82.671C30.297 82.7545 30.2616 82.8329 30.2076 82.8978C30.1535 82.9627 30.0828 83.0117 30.003 83.0395C29.5333 83.2615 28.9847 83.1813 28.468 83.1255C27.9514 83.0697 27.3794 83.0579 26.971 83.3792C26.8038 83.5333 26.6489 83.7003 26.5078 83.8786C26.4482 83.968 26.3696 84.043 26.2776 84.0984C26.1856 84.1538 26.0825 84.1882 25.9757 84.1991C25.8688 84.21 25.7609 84.1971 25.6596 84.1614C25.5583 84.1257 25.4662 84.068 25.3898 83.9926C25.0196 83.6824 24.6983 83.3181 24.4371 82.9119C24.1625 82.5684 23.9685 82.1675 23.8695 81.739C23.7766 81.2068 23.9314 80.6743 24.1539 80.1736Z" stroke="#46505C" stroke-width="4" stroke-linecap="round" stroke-linejoin="round"/>
</g>
<g style="mix-blend-mode:multiply" opacity="0.33">
<path d="M28.0364 84.5488C28.1919 84.5488 28.318 84.4227 28.318 84.2672C28.318 84.1117 28.1919 83.9857 28.0364 83.9857C27.8809 83.9857 27.7549 84.1117 27.7549 84.2672C27.7549 84.4227 27.8809 84.5488 28.0364 84.5488Z" fill="#4E4E4E"/>
<path d="M28.0364 84.5488C28.1919 84.5488 28.318 84.4227 28.318 84.2672C28.318 84.1117 28.1919 83.9857 28.0364 83.9857C27.8809 83.9857 27.7549 84.1117 27.7549 84.2672C27.7549 84.4227 27.8809 84.5488 28.0364 84.5488Z" stroke="#46505C" stroke-width="4" stroke-linecap="round" stroke-linejoin="round"/>
</g>
<g style="mix-blend-mode:multiply" opacity="0.33">
<path d="M27.3036 84.5661C27.4113 84.5661 27.4986 84.4788 27.4986 84.3711C27.4986 84.2634 27.4113 84.1761 27.3036 84.1761C27.1959 84.1761 27.1086 84.2634 27.1086 84.3711C27.1086 84.4788 27.1959 84.5661 27.3036 84.5661Z" fill="#4E4E4E"/>
<path d="M27.3036 84.5661C27.4113 84.5661 27.4986 84.4788 27.4986 84.3711C27.4986 84.2634 27.4113 84.1761 27.3036 84.1761C27.1959 84.1761 27.1086 84.2634 27.1086 84.3711C27.1086 84.4788 27.1959 84.5661 27.3036 84.5661Z" stroke="#46505C" stroke-width="4" stroke-linecap="round" stroke-linejoin="round"/>
</g>
<g style="mix-blend-mode:multiply" opacity="0.33">
<path d="M28.7016 84.182C28.7992 84.182 28.8784 84.1029 28.8784 84.0053C28.8784 83.9077 28.7992 83.8286 28.7016 83.8286C28.604 83.8286 28.5249 83.9077 28.5249 84.0053C28.5249 84.1029 28.604 84.182 28.7016 84.182Z" fill="#4E4E4E"/>
<path d="M28.7016 84.182C28.7992 84.182 28.8784 84.1029 28.8784 84.0053C28.8784 83.9077 28.7992 83.8286 28.7016 83.8286C28.604 83.8286 28.5249 83.9077 28.5249 84.0053C28.5249 84.1029 28.604 84.182 28.7016 84.182Z" stroke="#46505C" stroke-width="4" stroke-linecap="round" stroke-linejoin="round"/>
</g>
<g style="mix-blend-mode:multiply" opacity="0.33">
<path d="M26.6867 84.5707C26.7567 84.5707 26.8134 84.514 26.8134 84.444C26.8134 84.3741 26.7567 84.3174 26.6867 84.3174C26.6168 84.3174 26.5601 84.3741 26.5601 84.444C26.5601 84.514 26.6168 84.5707 26.6867 84.5707Z" fill="#4E4E4E"/>
<path d="M26.6867 84.5707C26.7567 84.5707 26.8134 84.514 26.8134 84.444C26.8134 84.3741 26.7567 84.3174 26.6867 84.3174C26.6168 84.3174 26.5601 84.3741 26.5601 84.444C26.5601 84.514 26.6168 84.5707 26.6867 84.5707Z" stroke="#46505C" stroke-width="4" stroke-linecap="round" stroke-linejoin="round"/>
</g>
<g style="mix-blend-mode:multiply" opacity="0.33">
<path d="M29.2599 83.8959C29.3026 83.8959 29.3372 83.8613 29.3372 83.8186C29.3372 83.7759 29.3026 83.7413 29.2599 83.7413C29.2172 83.7413 29.1826 83.7759 29.1826 83.8186C29.1826 83.8613 29.2172 83.8959 29.2599 83.8959Z" fill="#4E4E4E"/>
<path d="M29.2599 83.8959C29.3026 83.8959 29.3372 83.8613 29.3372 83.8186C29.3372 83.7759 29.3026 83.7413 29.2599 83.7413C29.2172 83.7413 29.1826 83.7759 29.1826 83.8186C29.1826 83.8613 29.2172 83.8959 29.2599 83.8959Z" stroke="#46505C" stroke-width="4" stroke-linecap="round" stroke-linejoin="round"/>
</g>
<g style="mix-blend-mode:multiply" opacity="0.33">
<path d="M23.5996 80.2248C23.6998 80.2248 23.781 80.1436 23.781 80.0434C23.781 79.9432 23.6998 79.862 23.5996 79.862C23.4994 79.862 23.4182 79.9432 23.4182 80.0434C23.4182 80.1436 23.4994 80.2248 23.5996 80.2248Z" fill="#4E4E4E"/>
<path d="M23.5996 80.2248C23.6998 80.2248 23.781 80.1436 23.781 80.0434C23.781 79.9432 23.6998 79.862 23.5996 79.862C23.4994 79.862 23.4182 79.9432 23.4182 80.0434C23.4182 80.1436 23.4994 80.2248 23.5996 80.2248Z" stroke="#46505C" stroke-width="4" stroke-linecap="round" stroke-linejoin="round"/>
</g>
<g style="mix-blend-mode:multiply" opacity="0.33">
<path d="M28.5376 78.1036C28.6318 78.1036 28.7083 78.0272 28.7083 77.9329C28.7083 77.8387 28.6318 77.7623 28.5376 77.7623C28.4433 77.7623 28.3669 77.8387 28.3669 77.9329C28.3669 78.0272 28.4433 78.1036 28.5376 78.1036Z" fill="#4E4E4E"/>
<path d="M28.5376 78.1036C28.6318 78.1036 28.7083 78.0272 28.7083 77.9329C28.7083 77.8387 28.6318 77.7623 28.5376 77.7623C28.4433 77.7623 28.3669 77.8387 28.3669 77.9329C28.3669 78.0272 28.4433 78.1036 28.5376 78.1036Z" stroke="#46505C" stroke-width="4" stroke-linecap="round" stroke-linejoin="round"/>
</g>
<g style="mix-blend-mode:multiply" opacity="0.33">
<path d="M29.647 78.9282C29.7323 78.9282 29.8015 78.8591 29.8015 78.7737C29.8015 78.6883 29.7323 78.6191 29.647 78.6191C29.5616 78.6191 29.4924 78.6883 29.4924 78.7737C29.4924 78.8591 29.5616 78.9282 29.647 78.9282Z" fill="#4E4E4E"/>
<path d="M29.647 78.9282C29.7323 78.9282 29.8015 78.8591 29.8015 78.7737C29.8015 78.6883 29.7323 78.6191 29.647 78.6191C29.5616 78.6191 29.4924 78.6883 29.4924 78.7737C29.4924 78.8591 29.5616 78.9282 29.647 78.9282Z" stroke="#46505C" stroke-width="4" stroke-linecap="round" stroke-linejoin="round"/>
</g>
<g style="mix-blend-mode:multiply" opacity="0.33">
<path d="M29.7737 79.2791C29.811 79.2791 29.8413 79.2488 29.8413 79.2115C29.8413 79.1741 29.811 79.1439 29.7737 79.1439C29.7363 79.1439 29.7061 79.1741 29.7061 79.2115C29.7061 79.2488 29.7363 79.2791 29.7737 79.2791Z" fill="#4E4E4E"/>
<path d="M29.7737 79.2791C29.811 79.2791 29.8413 79.2488 29.8413 79.2115C29.8413 79.1741 29.811 79.1439 29.7737 79.1439C29.7363 79.1439 29.7061 79.1741 29.7061 79.2115C29.7061 79.2488 29.7363 79.2791 29.7737 79.2791Z" stroke="#46505C" stroke-width="4" stroke-linecap="round" stroke-linejoin="round"/>
</g>
</g>
<path d="M20.5527 85.4723L21.9339 83.499C21.9527 83.4721 21.9814 83.4538 22.0137 83.4481C22.0461 83.4424 22.0793 83.4497 22.1062 83.4685L23.5155 84.4549C23.5424 84.4737 23.5607 84.5025 23.5664 84.5348C23.5721 84.5671 23.5648 84.6004 23.5459 84.6273L22.1648 86.6006C22.0287 86.795 21.8211 86.9273 21.5875 86.9686C21.3539 87.0098 21.1135 86.9566 20.9191 86.8205L20.7726 86.718C20.5782 86.5819 20.4459 86.3743 20.4046 86.1407C20.3634 85.9071 20.4166 85.6667 20.5527 85.4723Z" fill="white" stroke="#E6F3FF" stroke-width="2" stroke-miterlimit="10"/>
<path opacity="0.18" d="M22.106 83.4689C22.0791 83.4501 22.0458 83.4428 22.0135 83.4486C21.9812 83.4543 21.9525 83.4726 21.9337 83.4995L21.3118 84.3878C21.5502 84.6151 21.8055 84.824 22.0754 85.0129C22.3453 85.2016 22.6288 85.3699 22.9237 85.5164L23.5457 84.6277C23.555 84.6144 23.5616 84.5994 23.5652 84.5836C23.5687 84.5677 23.5691 84.5513 23.5662 84.5353C23.5634 84.5193 23.5575 84.504 23.5487 84.4903C23.54 84.4766 23.5286 84.4648 23.5153 84.4555L22.106 83.4689Z" fill="#4E4E4E" stroke="#46505C" stroke-width="4" stroke-linecap="round" stroke-linejoin="round"/>
<path d="M20.5527 85.4723L21.9339 83.499C21.9527 83.4721 21.9814 83.4538 22.0137 83.4481C22.0461 83.4424 22.0793 83.4497 22.1062 83.4685L23.5155 84.4549C23.5424 84.4737 23.5607 84.5025 23.5664 84.5348C23.5721 84.5671 23.5648 84.6004 23.5459 84.6273L22.1648 86.6006C22.0287 86.795 21.8211 86.9273 21.5875 86.9686C21.3539 87.0098 21.1135 86.9566 20.9191 86.8205L20.7726 86.718C20.5782 86.5819 20.4459 86.3743 20.4046 86.1407C20.3634 85.9071 20.4166 85.6667 20.5527 85.4723V85.4723Z" stroke="#46505C" stroke-width="4" stroke-linecap="round" stroke-linejoin="round"/>
<path d="M25.8273 85.4798C29.0457 85.4798 31.6546 82.8708 31.6546 79.6525C31.6546 76.4341 29.0457 73.8251 25.8273 73.8251C22.609 73.8251 20 76.4341 20 79.6525C20 82.8708 22.609 85.4798 25.8273 85.4798Z" fill="white" stroke="#E6F3FF" stroke-width="2" stroke-miterlimit="10"/>
<path d="M25.8273 85.4798C29.0457 85.4798 31.6546 82.8708 31.6546 79.6525C31.6546 76.4341 29.0457 73.8251 25.8273 73.8251C22.609 73.8251 20 76.4341 20 79.6525C20 82.8708 22.609 85.4798 25.8273 85.4798Z" stroke="#46505C" stroke-width="4" stroke-linecap="round" stroke-linejoin="round"/>
<path d="M25.8271 84.1881C28.332 84.1881 30.3627 82.1574 30.3627 79.6525C30.3627 77.1475 28.332 75.1169 25.8271 75.1169C23.3222 75.1169 21.2915 77.1475 21.2915 79.6525C21.2915 82.1574 23.3222 84.1881 25.8271 84.1881Z" fill="#845B5B"/>
<path d="M25.8271 84.1881C28.332 84.1881 30.3627 82.1574 30.3627 79.6525C30.3627 77.1475 28.332 75.1169 25.8271 75.1169C23.3222 75.1169 21.2915 77.1475 21.2915 79.6525C21.2915 82.1574 23.3222 84.1881 25.8271 84.1881Z" stroke="#46505C" stroke-width="2" stroke-linecap="round" stroke-linejoin="round"/>
<g style="mix-blend-mode:multiply" opacity="0.33">
<path d="M22.8622 78.7108C22.9229 78.5743 22.9885 78.4401 23.0554 78.309C23.3595 77.7131 23.7234 77.0953 24.3037 76.73C24.7967 76.4198 25.4857 76.2985 26.0199 76.5728C26.4832 76.8107 26.7624 77.3001 27.1851 77.6044C27.4701 77.7786 27.7662 77.934 28.0715 78.0695C28.3795 78.2082 28.6233 78.4587 28.7536 78.7703C28.8967 79.2077 28.6607 79.6742 28.6582 80.1342C28.6574 80.388 28.7279 80.637 28.8616 80.8527C28.9461 80.9536 29.0004 81.0763 29.0183 81.2067C29.0055 81.2903 28.9702 81.3687 28.9161 81.4337C28.8621 81.4986 28.7913 81.5476 28.7115 81.5754C28.2416 81.7972 27.693 81.7173 27.1764 81.6613C26.6597 81.6053 26.0878 81.5938 25.6793 81.9149C25.5121 82.0691 25.3573 82.2361 25.2161 82.4144C25.1566 82.5037 25.0779 82.5788 24.986 82.6342C24.894 82.6896 24.7909 82.724 24.684 82.7349C24.5772 82.7458 24.4693 82.7329 24.368 82.6973C24.2667 82.6616 24.1745 82.604 24.0981 82.5285C23.7279 82.2183 23.4067 81.8539 23.1454 81.4477C22.871 81.1044 22.6772 80.7039 22.5783 80.2757C22.4841 79.744 22.6399 79.2115 22.8622 78.7108Z" fill="#845B5B"/>
</g>
<g style="mix-blend-mode:multiply" opacity="0.33">
<path d="M26.7445 83.086C26.9 83.086 27.026 82.9599 27.026 82.8044C27.026 82.6489 26.9 82.5228 26.7445 82.5228C26.589 82.5228 26.4629 82.6489 26.4629 82.8044C26.4629 82.9599 26.589 83.086 26.7445 83.086Z" fill="#845B5B"/>
</g>
<g style="mix-blend-mode:multiply" opacity="0.33">
<path d="M26.0116 83.1033C26.1193 83.1033 26.2066 83.016 26.2066 82.9083C26.2066 82.8006 26.1193 82.7133 26.0116 82.7133C25.9039 82.7133 25.8167 82.8006 25.8167 82.9083C25.8167 83.016 25.9039 83.1033 26.0116 83.1033Z" fill="#845B5B"/>
</g>
<g style="mix-blend-mode:multiply" opacity="0.33">
<path d="M27.4096 82.7194C27.5073 82.7194 27.5864 82.6403 27.5864 82.5427C27.5864 82.4451 27.5073 82.366 27.4096 82.366C27.312 82.366 27.2329 82.4451 27.2329 82.5427C27.2329 82.6403 27.312 82.7194 27.4096 82.7194Z" fill="#845B5B"/>
</g>
<g style="mix-blend-mode:multiply" opacity="0.33">
<path d="M25.395 83.1081C25.4649 83.1081 25.5216 83.0514 25.5216 82.9814C25.5216 82.9115 25.4649 82.8548 25.395 82.8548C25.325 82.8548 25.2683 82.9115 25.2683 82.9814C25.2683 83.0514 25.325 83.1081 25.395 83.1081Z" fill="#845B5B"/>
</g>
<g style="mix-blend-mode:multiply" opacity="0.33">
<path d="M27.9681 82.4332C28.0108 82.4332 28.0454 82.3986 28.0454 82.3559C28.0454 82.3132 28.0108 82.2786 27.9681 82.2786C27.9255 82.2786 27.8909 82.3132 27.8909 82.3559C27.8909 82.3986 27.9255 82.4332 27.9681 82.4332Z" fill="#845B5B"/>
</g>
<g style="mix-blend-mode:multiply" opacity="0.33">
<path d="M22.3076 78.7622C22.4078 78.7622 22.489 78.681 22.489 78.5808C22.489 78.4806 22.4078 78.3994 22.3076 78.3994C22.2074 78.3994 22.1262 78.4806 22.1262 78.5808C22.1262 78.681 22.2074 78.7622 22.3076 78.7622Z" fill="#845B5B"/>
</g>
<g style="mix-blend-mode:multiply" opacity="0.33">
<path d="M27.2459 76.6407C27.3401 76.6407 27.4165 76.5643 27.4165 76.4701C27.4165 76.3758 27.3401 76.2994 27.2459 76.2994C27.1516 76.2994 27.0752 76.3758 27.0752 76.4701C27.0752 76.5643 27.1516 76.6407 27.2459 76.6407Z" fill="#845B5B"/>
</g>
<g style="mix-blend-mode:multiply" opacity="0.33">
<path d="M28.355 77.4654C28.4404 77.4654 28.5096 77.3962 28.5096 77.3109C28.5096 77.2255 28.4404 77.1563 28.355 77.1563C28.2696 77.1563 28.2004 77.2255 28.2004 77.3109C28.2004 77.3962 28.2696 77.4654 28.355 77.4654Z" fill="#845B5B"/>
</g>
<g style="mix-blend-mode:multiply" opacity="0.33">
<path d="M28.4819 77.8164C28.5193 77.8164 28.5495 77.7861 28.5495 77.7488C28.5495 77.7114 28.5193 77.6812 28.4819 77.6812C28.4446 77.6812 28.4143 77.7114 28.4143 77.7488C28.4143 77.7861 28.4446 77.8164 28.4819 77.8164Z" fill="#845B5B"/>
</g>
<path d="M26.2247 80.3848C26.4223 80.3848 26.5825 80.2246 26.5825 80.027C26.5825 79.8294 26.4223 79.6693 26.2247 79.6693C26.0271 79.6693 25.8669 79.8294 25.8669 80.027C25.8669 80.2246 26.0271 80.3848 26.2247 80.3848Z" fill="#845B5B"/>
<path d="M25.0594 79.2791C25.4052 79.2791 25.6855 78.9988 25.6855 78.653C25.6855 78.3072 25.4052 78.0269 25.0594 78.0269C24.7137 78.0269 24.4333 78.3072 24.4333 78.653C24.4333 78.9988 24.7137 79.2791 25.0594 79.2791Z" fill="#845B5B"/>
<path d="M80.5904 38.0008H39.0893C37.7062 38.0008 36.585 39.122 36.585 40.5052V64.8334C36.585 66.2165 37.7062 67.3377 39.0893 67.3377H80.5904C81.9735 67.3377 83.0948 66.2165 83.0948 64.8334V40.5052C83.0948 39.122 81.9735 38.0008 80.5904 38.0008Z" stroke="black" stroke-linecap="round" stroke-linejoin="round"/>
<path d="M80.5904 38.0008H39.0893C37.7062 38.0008 36.585 39.122 36.585 40.5052V64.8334C36.585 66.2165 37.7062 67.3377 39.0893 67.3377H80.5904C81.9735 67.3377 83.0948 66.2165 83.0948 64.8334V40.5052C83.0948 39.122 81.9735 38.0008 80.5904 38.0008Z" fill="#626C84"/>
<path d="M80.5904 38.0008H39.0893C37.7062 38.0008 36.585 39.122 36.585 40.5052V64.8334C36.585 66.2165 37.7062 67.3377 39.0893 67.3377H80.5904C81.9735 67.3377 83.0948 66.2165 83.0948 64.8334V40.5052C83.0948 39.122 81.9735 38.0008 80.5904 38.0008Z" fill="#626C84"/>
<g style="mix-blend-mode:multiply" opacity="0.17">
<path d="M80.5904 38.0008H39.0893C37.7062 38.0008 36.585 39.122 36.585 40.5052V63.2263C36.585 64.6094 37.7062 65.7307 39.0893 65.7307H80.5904C81.9735 65.7307 83.0948 64.6094 83.0948 63.2263V40.5052C83.0948 39.122 81.9735 38.0008 80.5904 38.0008Z" fill="#626C84"/>
</g>
<path opacity="0.1" d="M39.0893 38.7155H80.5904C81.2546 38.7155 81.8916 38.9794 82.3612 39.4491C82.8309 39.9187 83.0948 40.5557 83.0948 41.2199V64.8326V40.5044C83.0948 39.8402 82.8309 39.2032 82.3612 38.7335C81.8916 38.2639 81.2546 38 80.5904 38H39.0893C38.4251 38 37.7881 38.2639 37.3185 38.7335C36.8488 39.2032 36.585 39.8402 36.585 40.5044V41.2199C36.585 40.5557 36.8488 39.9187 37.3185 39.4491C37.7881 38.9794 38.4251 38.7155 39.0893 38.7155Z" fill="white"/>
<g opacity="0.1">
<path opacity="0.1" d="M50.7573 67.3377H53.6318L74.9464 38.0008H72.0719L50.7573 67.3377Z" fill="white"/>
<path opacity="0.1" d="M55.2903 67.3379H56.1747L77.4894 38.001H76.6048L55.2903 67.3379Z" fill="white"/>
</g>
<path d="M80.5904 38.0008H39.0893C37.7062 38.0008 36.585 39.122 36.585 40.5052V64.8334C36.585 66.2165 37.7062 67.3377 39.0893 67.3377H80.5904C81.9735 67.3377 83.0948 66.2165 83.0948 64.8334V40.5052C83.0948 39.122 81.9735 38.0008 80.5904 38.0008Z" stroke="#46505C" stroke-width="4" stroke-linecap="round" stroke-linejoin="round"/>
<path d="M79.875 63.8459V41.3065H39.805V63.8459H79.875Z" fill="#FD848E"/>
<g opacity="0.06">
<path opacity="0.06" d="M53.4731 63.8459H56.3476L72.7234 41.3065H69.8489L53.4731 63.8459Z" fill="white"/>
<path opacity="0.06" d="M58.0056 63.8456H58.8902L75.2659 41.3063H74.3815L58.0056 63.8456Z" fill="white"/>
</g>
<path d="M79.875 63.8459V41.3065H39.805V63.8459H79.875Z" stroke="#46505C" stroke-linecap="round" stroke-linejoin="round"/>
<path d="M80.5904 67.3376H39.0893C37.7062 67.3376 36.585 68.4589 36.585 69.842V95.6013C36.585 96.9844 37.7062 98.1057 39.0893 98.1057H80.5904C81.9735 98.1057 83.0948 96.9844 83.0948 95.6013V69.842C83.0948 68.4589 81.9735 67.3376 80.5904 67.3376Z" fill="#E6F3FF"/>
<path d="M82.3792 95.6014V69.8421C82.3792 68.8542 81.5783 68.0533 80.5903 68.0533H39.0893C38.1013 68.0533 37.3004 68.8542 37.3004 69.8421V95.6014C37.3004 96.5893 38.1013 97.3902 39.0893 97.3902H80.5903C81.5783 97.3902 82.3792 96.5893 82.3792 95.6014Z" fill="white" stroke="#E6F3FF" stroke-width="2" stroke-miterlimit="10"/>
<path d="M56.9687 96.7068H62.7109C62.9007 96.7068 63.0827 96.7822 63.2168 96.9164C63.351 97.0506 63.4264 97.2326 63.4264 97.4224V98.1057H56.2532V97.4224C56.2532 97.2326 56.3286 97.0506 56.4627 96.9164C56.5969 96.7822 56.7789 96.7068 56.9687 96.7068Z" fill="#E6F3FF"/>
<path d="M80.5904 67.3376H39.0893C37.7062 67.3376 36.585 68.4589 36.585 69.842V95.6013C36.585 96.9844 37.7062 98.1057 39.0893 98.1057H80.5904C81.9735 98.1057 83.0948 96.9844 83.0948 95.6013V69.842C83.0948 68.4589 81.9735 67.3376 80.5904 67.3376Z" stroke="#46505C" stroke-width="4" stroke-linecap="round" stroke-linejoin="round"/>
<path d="M79.8749 69.7382H39.805C39.5086 69.7382 39.2683 69.9784 39.2683 70.2748V85.6588C39.2683 85.9552 39.5086 86.1955 39.805 86.1955H79.8749C80.1713 86.1955 80.4116 85.9552 80.4116 85.6588V70.2748C80.4116 69.9784 80.1713 69.7382 79.8749 69.7382Z" fill="#E6F3FF"/>
<path d="M47.1541 82.1707H45.0075C44.9087 82.1707 44.8286 82.2507 44.8286 82.3495V84.4961C44.8286 84.5949 44.9087 84.675 45.0075 84.675H47.1541C47.2529 84.675 47.333 84.5949 47.333 84.4961V82.3495C47.333 82.2507 47.2529 82.1707 47.1541 82.1707Z" stroke="#626C84" stroke-linecap="round" stroke-linejoin="round"/>
<path d="M43.2835 82.1707H41.1369C41.0381 82.1707 40.958 82.2507 40.958 82.3495V84.4961C40.958 84.5949 41.0381 84.675 41.1369 84.675H43.2835C43.3823 84.675 43.4624 84.5949 43.4624 84.4961V82.3495C43.4624 82.2507 43.3823 82.1707 43.2835 82.1707Z" stroke="#626C84" stroke-linecap="round" stroke-linejoin="round"/>
<path d="M66.5081 82.1707H48.8783C48.7796 82.1707 48.6995 82.2507 48.6995 82.3495V84.4961C48.6995 84.5949 48.7796 84.675 48.8783 84.675H66.5081C66.6069 84.675 66.687 84.5949 66.687 84.4961V82.3495C66.687 82.2507 66.6069 82.1707 66.5081 82.1707Z" stroke="#626C84" stroke-linecap="round" stroke-linejoin="round"/>
<path d="M70.379 82.1707H68.2324C68.1336 82.1707 68.0535 82.2507 68.0535 82.3495V84.4961C68.0535 84.5949 68.1336 84.675 68.2324 84.675H70.379C70.4778 84.675 70.5578 84.5949 70.5578 84.4961V82.3495C70.5578 82.2507 70.4778 82.1707 70.379 82.1707Z" stroke="#626C84" stroke-linecap="round" stroke-linejoin="round"/>
<path d="M76.0384 83.5793H74.6074C74.5086 83.5793 74.4285 83.6594 74.4285 83.7582V84.4961C74.4285 84.5949 74.5086 84.675 74.6074 84.675H76.0384C76.1372 84.675 76.2173 84.5949 76.2173 84.4961V83.7582C76.2173 83.6594 76.1372 83.5793 76.0384 83.5793Z" stroke="#626C84" stroke-linecap="round" stroke-linejoin="round"/>
<path d="M76.0384 82.1707H74.6074C74.5086 82.1707 74.4285 82.2507 74.4285 82.3495V83.0874C74.4285 83.1862 74.5086 83.2663 74.6074 83.2663H76.0384C76.1372 83.2663 76.2173 83.1862 76.2173 83.0874V82.3495C76.2173 82.2507 76.1372 82.1707 76.0384 82.1707Z" stroke="#626C84" stroke-linecap="round" stroke-linejoin="round"/>
<path d="M78.5428 83.5793H77.1117C77.013 83.5793 76.9329 83.6594 76.9329 83.7582V84.4961C76.9329 84.5949 77.013 84.675 77.1117 84.675H78.5428C78.6416 84.675 78.7217 84.5949 78.7217 84.4961V83.7582C78.7217 83.6594 78.6416 83.5793 78.5428 83.5793Z" stroke="#626C84" stroke-linecap="round" stroke-linejoin="round"/>
<path d="M73.534 83.5793H72.103C72.0042 83.5793 71.9241 83.6594 71.9241 83.7582V84.4961C71.9241 84.5949 72.0042 84.675 72.103 84.675H73.534C73.6328 84.675 73.7129 84.5949 73.7129 84.4961V83.7582C73.7129 83.6594 73.6328 83.5793 73.534 83.5793Z" stroke="#626C84" stroke-linecap="round" stroke-linejoin="round"/>
<path d="M46.7966 78.6073H41.1369C41.0381 78.6073 40.958 78.6874 40.958 78.7862V80.9328C40.958 81.0316 41.0381 81.1117 41.1369 81.1117H46.7966C46.8954 81.1117 46.9755 81.0316 46.9755 80.9328V78.7862C46.9755 78.6874 46.8954 78.6073 46.7966 78.6073Z" stroke="#626C84" stroke-linecap="round" stroke-linejoin="round"/>
<path d="M50.6995 78.6073H48.5529C48.4541 78.6073 48.374 78.6874 48.374 78.7862V80.9328C48.374 81.0316 48.4541 81.1117 48.5529 81.1117H50.6995C50.7983 81.1117 50.8784 81.0316 50.8784 80.9328V78.7862C50.8784 78.6874 50.7983 78.6073 50.6995 78.6073Z" stroke="#626C84" stroke-linecap="round" stroke-linejoin="round"/>
<path d="M54.5704 78.6073H52.4238C52.325 78.6073 52.2449 78.6874 52.2449 78.7862V80.9328C52.2449 81.0316 52.325 81.1117 52.4238 81.1117H54.5704C54.6692 81.1117 54.7492 81.0316 54.7492 80.9328V78.7862C54.7492 78.6874 54.6692 78.6073 54.5704 78.6073Z" stroke="#626C84" stroke-linecap="round" stroke-linejoin="round"/>
<path d="M58.4412 78.6073H56.2946C56.1958 78.6073 56.1157 78.6874 56.1157 78.7862V80.9328C56.1157 81.0316 56.1958 81.1117 56.2946 81.1117H58.4412C58.54 81.1117 58.6201 81.0316 58.6201 80.9328V78.7862C58.6201 78.6874 58.54 78.6073 58.4412 78.6073Z" stroke="#626C84" stroke-linecap="round" stroke-linejoin="round"/>
<path d="M62.3118 78.6073H60.1652C60.0664 78.6073 59.9863 78.6874 59.9863 78.7862V80.9328C59.9863 81.0316 60.0664 81.1117 60.1652 81.1117H62.3118C62.4106 81.1117 62.4907 81.0316 62.4907 80.9328V78.7862C62.4907 78.6874 62.4106 78.6073 62.3118 78.6073Z" stroke="#626C84" stroke-linecap="round" stroke-linejoin="round"/>
<path d="M66.1827 78.6073H64.0361C63.9373 78.6073 63.8572 78.6874 63.8572 78.7862V80.9328C63.8572 81.0316 63.9373 81.1117 64.0361 81.1117H66.1827C66.2815 81.1117 66.3616 81.0316 66.3616 80.9328V78.7862C66.3616 78.6874 66.2815 78.6073 66.1827 78.6073Z" stroke="#626C84" stroke-linecap="round" stroke-linejoin="round"/>
<path d="M70.0535 78.6073H67.9069C67.8081 78.6073 67.728 78.6874 67.728 78.7862V80.9328C67.728 81.0316 67.8081 81.1117 67.9069 81.1117H70.0535C70.1523 81.1117 70.2324 81.0316 70.2324 80.9328V78.7862C70.2324 78.6874 70.1523 78.6073 70.0535 78.6073Z" stroke="#626C84" stroke-linecap="round" stroke-linejoin="round"/>
<path d="M78.5428 78.6073H72.103C72.0042 78.6073 71.9241 78.6874 71.9241 78.7862V80.9328C71.9241 81.0316 72.0042 81.1117 72.103 81.1117H78.5428C78.6416 81.1117 78.7217 81.0316 78.7217 80.9328V78.7862C78.7217 78.6874 78.6416 78.6073 78.5428 78.6073Z" stroke="#626C84" stroke-linecap="round" stroke-linejoin="round"/>
<path d="M49.3008 74.9438H47.1542C47.0554 74.9438 46.9753 75.0239 46.9753 75.1227V77.2693C46.9753 77.3681 47.0554 77.4482 47.1542 77.4482H49.3008C49.3996 77.4482 49.4797 77.3681 49.4797 77.2693V75.1227C49.4797 75.0239 49.3996 74.9438 49.3008 74.9438Z" stroke="#626C84" stroke-linecap="round" stroke-linejoin="round"/>
<path d="M45.4301 74.9438H41.1369C41.0381 74.9438 40.958 75.0239 40.958 75.1227V77.2693C40.958 77.3681 41.0381 77.4482 41.1369 77.4482H45.4301C45.5289 77.4482 45.609 77.3681 45.609 77.2693V75.1227C45.609 75.0239 45.5289 74.9438 45.4301 74.9438Z" stroke="#626C84" stroke-linecap="round" stroke-linejoin="round"/>
<path d="M53.1714 74.9438H51.0248C50.926 74.9438 50.8459 75.0239 50.8459 75.1227V77.2693C50.8459 77.3681 50.926 77.4482 51.0248 77.4482H53.1714C53.2702 77.4482 53.3503 77.3681 53.3503 77.2693V75.1227C53.3503 75.0239 53.2702 74.9438 53.1714 74.9438Z" stroke="#626C84" stroke-linecap="round" stroke-linejoin="round"/>
<path d="M57.0423 74.9438H54.8957C54.7969 74.9438 54.7168 75.0239 54.7168 75.1227V77.2693C54.7168 77.3681 54.7969 77.4482 54.8957 77.4482H57.0423C57.1411 77.4482 57.2212 77.3681 57.2212 77.2693V75.1227C57.2212 75.0239 57.1411 74.9438 57.0423 74.9438Z" stroke="#626C84" stroke-linecap="round" stroke-linejoin="round"/>
<path d="M60.9131 74.9438H58.7665C58.6677 74.9438 58.5876 75.0239 58.5876 75.1227V77.2693C58.5876 77.3681 58.6677 77.4482 58.7665 77.4482H60.9131C61.0119 77.4482 61.092 77.3681 61.092 77.2693V75.1227C61.092 75.0239 61.0119 74.9438 60.9131 74.9438Z" stroke="#626C84" stroke-linecap="round" stroke-linejoin="round"/>
<path d="M64.784 74.9438H62.6374C62.5386 74.9438 62.4585 75.0239 62.4585 75.1227V77.2693C62.4585 77.3681 62.5386 77.4482 62.6374 77.4482H64.784C64.8828 77.4482 64.9629 77.3681 64.9629 77.2693V75.1227C64.9629 75.0239 64.8828 74.9438 64.784 74.9438Z" stroke="#626C84" stroke-linecap="round" stroke-linejoin="round"/>
<path d="M68.6548 74.9438H66.5082C66.4094 74.9438 66.3293 75.0239 66.3293 75.1227V77.2693C66.3293 77.3681 66.4094 77.4482 66.5082 77.4482H68.6548C68.7536 77.4482 68.8337 77.3681 68.8337 77.2693V75.1227C68.8337 75.0239 68.7536 74.9438 68.6548 74.9438Z" stroke="#626C84" stroke-linecap="round" stroke-linejoin="round"/>
<path d="M72.5257 74.9438H70.3791C70.2803 74.9438 70.2002 75.0239 70.2002 75.1227V77.2693C70.2002 77.3681 70.2803 77.4482 70.3791 77.4482H72.5257C72.6245 77.4482 72.7046 77.3681 72.7046 77.2693V75.1227C72.7046 75.0239 72.6245 74.9438 72.5257 74.9438Z" stroke="#626C84" stroke-linecap="round" stroke-linejoin="round"/>
<path d="M78.5429 74.9438H74.2497C74.1509 74.9438 74.0708 75.0239 74.0708 75.1227V77.2693C74.0708 77.3681 74.1509 77.4482 74.2497 77.4482H78.5429C78.6417 77.4482 78.7218 77.3681 78.7218 77.2693V75.1227C78.7218 75.0239 78.6417 74.9438 78.5429 74.9438Z" stroke="#626C84" stroke-linecap="round" stroke-linejoin="round"/>
<path d="M47.2012 71.4376H45.0546C44.9558 71.4376 44.8757 71.5177 44.8757 71.6165V73.7631C44.8757 73.8619 44.9558 73.942 45.0546 73.942H47.2012C47.3 73.942 47.3801 73.8619 47.3801 73.7631V71.6165C47.3801 71.5177 47.3 71.4376 47.2012 71.4376Z" stroke="#626C84" stroke-linecap="round" stroke-linejoin="round"/>
<path d="M43.2835 71.4376H41.1369C41.0381 71.4376 40.958 71.5177 40.958 71.6165V73.7631C40.958 73.8619 41.0381 73.942 41.1369 73.942H43.2835C43.3823 73.942 43.4624 73.8619 43.4624 73.7631V71.6165C43.4624 71.5177 43.3823 71.4376 43.2835 71.4376Z" stroke="#626C84" stroke-linecap="round" stroke-linejoin="round"/>
<path d="M51.1189 71.4376H48.9723C48.8735 71.4376 48.7935 71.5177 48.7935 71.6165V73.7631C48.7935 73.8619 48.8735 73.942 48.9723 73.942H51.1189C51.2177 73.942 51.2978 73.8619 51.2978 73.7631V71.6165C51.2978 71.5177 51.2177 71.4376 51.1189 71.4376Z" stroke="#626C84" stroke-linecap="round" stroke-linejoin="round"/>
<path d="M55.0367 71.4376H52.8901C52.7913 71.4376 52.7112 71.5177 52.7112 71.6165V73.7631C52.7112 73.8619 52.7913 73.942 52.8901 73.942H55.0367C55.1355 73.942 55.2156 73.8619 55.2156 73.7631V71.6165C55.2156 71.5177 55.1355 71.4376 55.0367 71.4376Z" stroke="#626C84" stroke-linecap="round" stroke-linejoin="round"/>
<path d="M58.9544 71.4376H56.8078C56.709 71.4376 56.6289 71.5177 56.6289 71.6165V73.7631C56.6289 73.8619 56.709 73.942 56.8078 73.942H58.9544C59.0532 73.942 59.1333 73.8619 59.1333 73.7631V71.6165C59.1333 71.5177 59.0532 71.4376 58.9544 71.4376Z" stroke="#626C84" stroke-linecap="round" stroke-linejoin="round"/>
<path d="M62.8721 71.4376H60.7255C60.6267 71.4376 60.5466 71.5177 60.5466 71.6165V73.7631C60.5466 73.8619 60.6267 73.942 60.7255 73.942H62.8721C62.9709 73.942 63.051 73.8619 63.051 73.7631V71.6165C63.051 71.5177 62.9709 71.4376 62.8721 71.4376Z" stroke="#626C84" stroke-linecap="round" stroke-linejoin="round"/>
<path d="M66.7896 71.4376H64.643C64.5442 71.4376 64.4641 71.5177 64.4641 71.6165V73.7631C64.4641 73.8619 64.5442 73.942 64.643 73.942H66.7896C66.8884 73.942 66.9685 73.8619 66.9685 73.7631V71.6165C66.9685 71.5177 66.8884 71.4376 66.7896 71.4376Z" stroke="#626C84" stroke-linecap="round" stroke-linejoin="round"/>
<path d="M70.7076 71.4376H68.561C68.4622 71.4376 68.3821 71.5177 68.3821 71.6165V73.7631C68.3821 73.8619 68.4622 73.942 68.561 73.942H70.7076C70.8064 73.942 70.8865 73.8619 70.8865 73.7631V71.6165C70.8865 71.5177 70.8064 71.4376 70.7076 71.4376Z" stroke="#626C84" stroke-linecap="round" stroke-linejoin="round"/>
<path d="M74.6253 71.4376H72.4787C72.3799 71.4376 72.2998 71.5177 72.2998 71.6165V73.7631C72.2998 73.8619 72.3799 73.942 72.4787 73.942H74.6253C74.7241 73.942 74.8042 73.8619 74.8042 73.7631V71.6165C74.8042 71.5177 74.7241 71.4376 74.6253 71.4376Z" stroke="#626C84" stroke-linecap="round" stroke-linejoin="round"/>
<path d="M78.5428 71.4376H76.3962C76.2974 71.4376 76.2173 71.5177 76.2173 71.6165V73.7631C76.2173 73.8619 76.2974 73.942 76.3962 73.942H78.5428C78.6416 73.942 78.7217 73.8619 78.7217 73.7631V71.6165C78.7217 71.5177 78.6416 71.4376 78.5428 71.4376Z" stroke="#626C84" stroke-linecap="round" stroke-linejoin="round"/>
<path d="M47.1541 82.1707H45.0075C44.9087 82.1707 44.8286 82.2507 44.8286 82.3495V84.4961C44.8286 84.5949 44.9087 84.675 45.0075 84.675H47.1541C47.2529 84.675 47.333 84.5949 47.333 84.4961V82.3495C47.333 82.2507 47.2529 82.1707 47.1541 82.1707Z" fill="#626C84"/>
<path d="M43.2835 82.1707H41.1369C41.0381 82.1707 40.958 82.2507 40.958 82.3495V84.4961C40.958 84.5949 41.0381 84.675 41.1369 84.675H43.2835C43.3823 84.675 43.4624 84.5949 43.4624 84.4961V82.3495C43.4624 82.2507 43.3823 82.1707 43.2835 82.1707Z" fill="#626C84"/>
<path d="M66.5081 82.1707H48.8783C48.7796 82.1707 48.6995 82.2507 48.6995 82.3495V84.4961C48.6995 84.5949 48.7796 84.675 48.8783 84.675H66.5081C66.6069 84.675 66.687 84.5949 66.687 84.4961V82.3495C66.687 82.2507 66.6069 82.1707 66.5081 82.1707Z" fill="#626C84"/>
<path d="M70.379 82.1707H68.2324C68.1336 82.1707 68.0535 82.2507 68.0535 82.3495V84.4961C68.0535 84.5949 68.1336 84.675 68.2324 84.675H70.379C70.4778 84.675 70.5578 84.5949 70.5578 84.4961V82.3495C70.5578 82.2507 70.4778 82.1707 70.379 82.1707Z" fill="#626C84"/>
<path d="M76.0384 83.5793H74.6074C74.5086 83.5793 74.4285 83.6594 74.4285 83.7582V84.4961C74.4285 84.5949 74.5086 84.675 74.6074 84.675H76.0384C76.1372 84.675 76.2173 84.5949 76.2173 84.4961V83.7582C76.2173 83.6594 76.1372 83.5793 76.0384 83.5793Z" fill="#626C84"/>
<path d="M76.0384 82.1707H74.6074C74.5086 82.1707 74.4285 82.2507 74.4285 82.3495V83.0874C74.4285 83.1862 74.5086 83.2663 74.6074 83.2663H76.0384C76.1372 83.2663 76.2173 83.1862 76.2173 83.0874V82.3495C76.2173 82.2507 76.1372 82.1707 76.0384 82.1707Z" fill="#626C84"/>
<path d="M78.5428 83.5793H77.1117C77.013 83.5793 76.9329 83.6594 76.9329 83.7582V84.4961C76.9329 84.5949 77.013 84.675 77.1117 84.675H78.5428C78.6416 84.675 78.7217 84.5949 78.7217 84.4961V83.7582C78.7217 83.6594 78.6416 83.5793 78.5428 83.5793Z" fill="#626C84"/>
<path d="M73.534 83.5793H72.103C72.0042 83.5793 71.9241 83.6594 71.9241 83.7582V84.4961C71.9241 84.5949 72.0042 84.675 72.103 84.675H73.534C73.6328 84.675 73.7129 84.5949 73.7129 84.4961V83.7582C73.7129 83.6594 73.6328 83.5793 73.534 83.5793Z" fill="#626C84"/>
<path d="M46.7966 78.6073H41.1369C41.0381 78.6073 40.958 78.6874 40.958 78.7862V80.9328C40.958 81.0316 41.0381 81.1117 41.1369 81.1117H46.7966C46.8954 81.1117 46.9755 81.0316 46.9755 80.9328V78.7862C46.9755 78.6874 46.8954 78.6073 46.7966 78.6073Z" fill="#626C84"/>
<path d="M50.6995 78.6073H48.5529C48.4541 78.6073 48.374 78.6874 48.374 78.7862V80.9328C48.374 81.0316 48.4541 81.1117 48.5529 81.1117H50.6995C50.7983 81.1117 50.8784 81.0316 50.8784 80.9328V78.7862C50.8784 78.6874 50.7983 78.6073 50.6995 78.6073Z" fill="#626C84"/>
<path d="M54.5704 78.6073H52.4238C52.325 78.6073 52.2449 78.6874 52.2449 78.7862V80.9328C52.2449 81.0316 52.325 81.1117 52.4238 81.1117H54.5704C54.6692 81.1117 54.7492 81.0316 54.7492 80.9328V78.7862C54.7492 78.6874 54.6692 78.6073 54.5704 78.6073Z" fill="#626C84"/>
<path d="M58.4412 78.6073H56.2946C56.1958 78.6073 56.1157 78.6874 56.1157 78.7862V80.9328C56.1157 81.0316 56.1958 81.1117 56.2946 81.1117H58.4412C58.54 81.1117 58.6201 81.0316 58.6201 80.9328V78.7862C58.6201 78.6874 58.54 78.6073 58.4412 78.6073Z" fill="#626C84"/>
<path d="M62.3118 78.6073H60.1652C60.0664 78.6073 59.9863 78.6874 59.9863 78.7862V80.9328C59.9863 81.0316 60.0664 81.1117 60.1652 81.1117H62.3118C62.4106 81.1117 62.4907 81.0316 62.4907 80.9328V78.7862C62.4907 78.6874 62.4106 78.6073 62.3118 78.6073Z" fill="#626C84"/>
<path d="M66.1827 78.6073H64.0361C63.9373 78.6073 63.8572 78.6874 63.8572 78.7862V80.9328C63.8572 81.0316 63.9373 81.1117 64.0361 81.1117H66.1827C66.2815 81.1117 66.3616 81.0316 66.3616 80.9328V78.7862C66.3616 78.6874 66.2815 78.6073 66.1827 78.6073Z" fill="#626C84"/>
<path d="M70.0535 78.6073H67.9069C67.8081 78.6073 67.728 78.6874 67.728 78.7862V80.9328C67.728 81.0316 67.8081 81.1117 67.9069 81.1117H70.0535C70.1523 81.1117 70.2324 81.0316 70.2324 80.9328V78.7862C70.2324 78.6874 70.1523 78.6073 70.0535 78.6073Z" fill="#626C84"/>
<path d="M78.5428 78.6073H72.103C72.0042 78.6073 71.9241 78.6874 71.9241 78.7862V80.9328C71.9241 81.0316 72.0042 81.1117 72.103 81.1117H78.5428C78.6416 81.1117 78.7217 81.0316 78.7217 80.9328V78.7862C78.7217 78.6874 78.6416 78.6073 78.5428 78.6073Z" fill="#626C84"/>
<path d="M49.3008 74.9438H47.1542C47.0554 74.9438 46.9753 75.0239 46.9753 75.1227V77.2693C46.9753 77.3681 47.0554 77.4482 47.1542 77.4482H49.3008C49.3996 77.4482 49.4797 77.3681 49.4797 77.2693V75.1227C49.4797 75.0239 49.3996 74.9438 49.3008 74.9438Z" fill="#626C84"/>
<path d="M45.4301 74.9438H41.1369C41.0381 74.9438 40.958 75.0239 40.958 75.1227V77.2693C40.958 77.3681 41.0381 77.4482 41.1369 77.4482H45.4301C45.5289 77.4482 45.609 77.3681 45.609 77.2693V75.1227C45.609 75.0239 45.5289 74.9438 45.4301 74.9438Z" fill="#626C84"/>
<path d="M53.1714 74.9438H51.0248C50.926 74.9438 50.8459 75.0239 50.8459 75.1227V77.2693C50.8459 77.3681 50.926 77.4482 51.0248 77.4482H53.1714C53.2702 77.4482 53.3503 77.3681 53.3503 77.2693V75.1227C53.3503 75.0239 53.2702 74.9438 53.1714 74.9438Z" fill="#626C84"/>
<path d="M57.0423 74.9438H54.8957C54.7969 74.9438 54.7168 75.0239 54.7168 75.1227V77.2693C54.7168 77.3681 54.7969 77.4482 54.8957 77.4482H57.0423C57.1411 77.4482 57.2212 77.3681 57.2212 77.2693V75.1227C57.2212 75.0239 57.1411 74.9438 57.0423 74.9438Z" fill="#626C84"/>
<path d="M60.9131 74.9438H58.7665C58.6677 74.9438 58.5876 75.0239 58.5876 75.1227V77.2693C58.5876 77.3681 58.6677 77.4482 58.7665 77.4482H60.9131C61.0119 77.4482 61.092 77.3681 61.092 77.2693V75.1227C61.092 75.0239 61.0119 74.9438 60.9131 74.9438Z" fill="#626C84"/>
<path d="M64.784 74.9438H62.6374C62.5386 74.9438 62.4585 75.0239 62.4585 75.1227V77.2693C62.4585 77.3681 62.5386 77.4482 62.6374 77.4482H64.784C64.8828 77.4482 64.9629 77.3681 64.9629 77.2693V75.1227C64.9629 75.0239 64.8828 74.9438 64.784 74.9438Z" fill="#626C84"/>
<path d="M68.6548 74.9438H66.5082C66.4094 74.9438 66.3293 75.0239 66.3293 75.1227V77.2693C66.3293 77.3681 66.4094 77.4482 66.5082 77.4482H68.6548C68.7536 77.4482 68.8337 77.3681 68.8337 77.2693V75.1227C68.8337 75.0239 68.7536 74.9438 68.6548 74.9438Z" fill="#626C84"/>
<path d="M72.5257 74.9438H70.3791C70.2803 74.9438 70.2002 75.0239 70.2002 75.1227V77.2693C70.2002 77.3681 70.2803 77.4482 70.3791 77.4482H72.5257C72.6245 77.4482 72.7046 77.3681 72.7046 77.2693V75.1227C72.7046 75.0239 72.6245 74.9438 72.5257 74.9438Z" fill="#626C84"/>
<path d="M78.5429 74.9438H74.2497C74.1509 74.9438 74.0708 75.0239 74.0708 75.1227V77.2693C74.0708 77.3681 74.1509 77.4482 74.2497 77.4482H78.5429C78.6417 77.4482 78.7218 77.3681 78.7218 77.2693V75.1227C78.7218 75.0239 78.6417 74.9438 78.5429 74.9438Z" fill="#626C84"/>
<path d="M47.2012 71.4376H45.0546C44.9558 71.4376 44.8757 71.5177 44.8757 71.6165V73.7631C44.8757 73.8619 44.9558 73.942 45.0546 73.942H47.2012C47.3 73.942 47.3801 73.8619 47.3801 73.7631V71.6165C47.3801 71.5177 47.3 71.4376 47.2012 71.4376Z" fill="#626C84"/>
<path d="M43.2835 71.4376H41.1369C41.0381 71.4376 40.958 71.5177 40.958 71.6165V73.7631C40.958 73.8619 41.0381 73.942 41.1369 73.942H43.2835C43.3823 73.942 43.4624 73.8619 43.4624 73.7631V71.6165C43.4624 71.5177 43.3823 71.4376 43.2835 71.4376Z" fill="#626C84"/>
<path d="M51.1189 71.4376H48.9723C48.8735 71.4376 48.7935 71.5177 48.7935 71.6165V73.7631C48.7935 73.8619 48.8735 73.942 48.9723 73.942H51.1189C51.2177 73.942 51.2978 73.8619 51.2978 73.7631V71.6165C51.2978 71.5177 51.2177 71.4376 51.1189 71.4376Z" fill="#626C84"/>
<path d="M55.0367 71.4376H52.8901C52.7913 71.4376 52.7112 71.5177 52.7112 71.6165V73.7631C52.7112 73.8619 52.7913 73.942 52.8901 73.942H55.0367C55.1355 73.942 55.2156 73.8619 55.2156 73.7631V71.6165C55.2156 71.5177 55.1355 71.4376 55.0367 71.4376Z" fill="#626C84"/>
<path d="M58.9544 71.4376H56.8078C56.709 71.4376 56.6289 71.5177 56.6289 71.6165V73.7631C56.6289 73.8619 56.709 73.942 56.8078 73.942H58.9544C59.0532 73.942 59.1333 73.8619 59.1333 73.7631V71.6165C59.1333 71.5177 59.0532 71.4376 58.9544 71.4376Z" fill="#626C84"/>
<path d="M62.8721 71.4376H60.7255C60.6267 71.4376 60.5466 71.5177 60.5466 71.6165V73.7631C60.5466 73.8619 60.6267 73.942 60.7255 73.942H62.8721C62.9709 73.942 63.051 73.8619 63.051 73.7631V71.6165C63.051 71.5177 62.9709 71.4376 62.8721 71.4376Z" fill="#626C84"/>
<path d="M66.7896 71.4376H64.643C64.5442 71.4376 64.4641 71.5177 64.4641 71.6165V73.7631C64.4641 73.8619 64.5442 73.942 64.643 73.942H66.7896C66.8884 73.942 66.9685 73.8619 66.9685 73.7631V71.6165C66.9685 71.5177 66.8884 71.4376 66.7896 71.4376Z" fill="#626C84"/>
<path d="M70.7076 71.4376H68.561C68.4622 71.4376 68.3821 71.5177 68.3821 71.6165V73.7631C68.3821 73.8619 68.4622 73.942 68.561 73.942H70.7076C70.8064 73.942 70.8865 73.8619 70.8865 73.7631V71.6165C70.8865 71.5177 70.8064 71.4376 70.7076 71.4376Z" fill="#626C84"/>
<path d="M74.6253 71.4376H72.4787C72.3799 71.4376 72.2998 71.5177 72.2998 71.6165V73.7631C72.2998 73.8619 72.3799 73.942 72.4787 73.942H74.6253C74.7241 73.942 74.8042 73.8619 74.8042 73.7631V71.6165C74.8042 71.5177 74.7241 71.4376 74.6253 71.4376Z" fill="#626C84"/>
<path d="M78.5428 71.4376H76.3962C76.2974 71.4376 76.2173 71.5177 76.2173 71.6165V73.7631C76.2173 73.8619 76.2974 73.942 76.3962 73.942H78.5428C78.6416 73.942 78.7217 73.8619 78.7217 73.7631V71.6165C78.7217 71.5177 78.6416 71.4376 78.5428 71.4376Z" fill="#626C84"/>
<path d="M44.6348 65.7306H75.045V68.1359C75.045 68.3256 74.9696 68.5076 74.8354 68.6418C74.7013 68.776 74.5193 68.8514 74.3295 68.8514H45.3503C45.1605 68.8514 44.9785 68.776 44.8443 68.6418C44.7102 68.5076 44.6348 68.3256 44.6348 68.1359V65.7306Z" fill="#626C84"/>
<path opacity="0.12" d="M75.045 65.7306H44.6348V66.0884H75.045V65.7306Z" fill="white"/>
<g style="mix-blend-mode:multiply" opacity="0.25">
<path d="M74.3295 68.1357H45.3503C45.1605 68.1357 44.9785 68.0603 44.8443 67.9261C44.7102 67.7919 44.6348 67.6099 44.6348 67.4202V68.1357C44.6348 68.3255 44.7102 68.5075 44.8443 68.6417C44.9785 68.7758 45.1605 68.8512 45.3503 68.8512H74.3295C74.5193 68.8512 74.7013 68.7758 74.8354 68.6417C74.9696 68.5075 75.045 68.3255 75.045 68.1357V67.4202C75.045 67.6099 74.9696 67.7919 74.8354 67.9261C74.7013 68.0603 74.5193 68.1357 74.3295 68.1357Z" fill="#626C84"/>
</g>
<path d="M44.6348 65.7306H75.045V68.1359C75.045 68.3256 74.9696 68.5076 74.8354 68.6418C74.7013 68.776 74.5193 68.8514 74.3295 68.8514H45.3503C45.1605 68.8514 44.9785 68.776 44.8443 68.6418C44.7102 68.5076 44.6348 68.3256 44.6348 68.1359V65.7306Z" stroke="#46505C" stroke-width="2" stroke-linecap="round" stroke-linejoin="round"/>
<path d="M66.1008 87.09H53.579C53.3814 87.09 53.2212 87.2501 53.2212 87.4477V95.8553C53.2212 96.0529 53.3814 96.213 53.579 96.213H66.1008C66.2984 96.213 66.4586 96.0529 66.4586 95.8553V87.4477C66.4586 87.2501 66.2984 87.09 66.1008 87.09Z" fill="#E6F3FF"/>
<path d="M66.1008 87.09H53.579C53.3814 87.09 53.2212 87.2501 53.2212 87.4477V95.8553C53.2212 96.0529 53.3814 96.213 53.579 96.213H66.1008C66.2984 96.213 66.4586 96.0529 66.4586 95.8553V87.4477C66.4586 87.2501 66.2984 87.09 66.1008 87.09Z" stroke="#626C84" stroke-linecap="round" stroke-linejoin="round"/>
<path opacity="0.52" d="M59.8399 40.3527C60.1363 40.3527 60.3765 40.1125 60.3765 39.8161C60.3765 39.5197 60.1363 39.2794 59.8399 39.2794C59.5435 39.2794 59.3032 39.5197 59.3032 39.8161C59.3032 40.1125 59.5435 40.3527 59.8399 40.3527Z" fill="white"/>
<path d="M59.8399 40.3527C60.1363 40.3527 60.3765 40.1125 60.3765 39.8161C60.3765 39.5197 60.1363 39.2794 59.8399 39.2794C59.5435 39.2794 59.3032 39.5197 59.3032 39.8161C59.3032 40.1125 59.5435 40.3527 59.8399 40.3527Z" stroke="#46505C" stroke-linecap="round" stroke-linejoin="round"/>
<path d="M70.9952 43.5864H68.8486C68.7498 43.5864 68.6697 43.6665 68.6697 43.7652C68.6697 43.864 68.7498 43.9441 68.8486 43.9441H70.9952C71.094 43.9441 71.1741 43.864 71.1741 43.7652C71.1741 43.6665 71.094 43.5864 70.9952 43.5864Z" fill="white"/>
<path d="M75.6414 43.5864H73.4948C73.396 43.5864 73.3159 43.6665 73.3159 43.7652C73.3159 43.864 73.396 43.9441 73.4948 43.9441H75.6414C75.7402 43.9441 75.8203 43.864 75.8203 43.7652C75.8203 43.6665 75.7402 43.5864 75.6414 43.5864Z" fill="white"/>
<path d="M66.3489 43.5864H64.2023C64.1035 43.5864 64.0234 43.6665 64.0234 43.7652C64.0234 43.864 64.1035 43.9441 64.2023 43.9441H66.3489C66.4477 43.9441 66.5278 43.864 66.5278 43.7652C66.5278 43.6665 66.4477 43.5864 66.3489 43.5864Z" fill="white"/>
<path d="M43.2454 44.7237C43.7233 44.7237 44.1107 44.3364 44.1107 43.8585C44.1107 43.3806 43.7233 42.9932 43.2454 42.9932C42.7675 42.9932 42.3801 43.3806 42.3801 43.8585C42.3801 44.3364 42.7675 44.7237 43.2454 44.7237Z" fill="white"/>
<g opacity="0.72">
<path opacity="0.72" d="M68.884 53.3326H50.7749V53.9847H68.884V53.3326Z" fill="white"/>
<path opacity="0.72" d="M66.594 51.1685H53.0652V51.83H66.594V51.1685Z" fill="white"/>
</g>
<path d="M62.9534 58.4009H57.7996C57.2581 58.4009 56.8191 58.8398 56.8191 59.3813C56.8191 59.9228 57.2581 60.3618 57.7996 60.3618H62.9534C63.4949 60.3618 63.9338 59.9228 63.9338 59.3813C63.9338 58.8398 63.4949 58.4009 62.9534 58.4009Z" stroke="white" stroke-miterlimit="10"/>
</svg>
