<svg width="120" height="120" viewBox="0 0 120 120" fill="none" xmlns="http://www.w3.org/2000/svg">
<circle cx="60" cy="60" r="60" fill="white"/>
<path d="M85.8872 54.281H80.7701C80.4691 54.281 80.1681 54.582 80.0176 54.883L77.9105 68.1274C77.9105 68.4284 78.061 68.5789 78.362 68.5789H81.0711C81.3721 68.5789 81.5226 68.4284 81.5226 68.1274L82.1246 64.3648C82.1246 64.0638 82.4256 63.7628 82.8771 63.7628H84.5327C87.9943 63.7628 89.9508 62.1072 90.4024 58.7961C90.7034 57.4416 90.4024 56.2376 89.8003 55.485C88.8973 54.7325 87.5428 54.281 85.8872 54.281ZM86.4892 59.2477C86.1882 61.0537 84.8337 61.0537 83.4792 61.0537H82.5761L83.1781 57.5921C83.1781 57.4416 83.3287 57.2911 83.6297 57.2911H83.9307C84.8337 57.2911 85.7367 57.2911 86.1882 57.8931C86.4892 58.0436 86.4892 58.4951 86.4892 59.2477Z" fill="#139AD6"/>
<path d="M49.0136 54.281H43.8965C43.5955 54.281 43.2945 54.582 43.144 54.883L41.0369 68.1274C41.0369 68.4284 41.1874 68.5789 41.4884 68.5789H43.8965C44.1975 68.5789 44.4985 68.2779 44.649 67.9769L45.251 64.3648C45.251 64.0638 45.552 63.7628 46.0035 63.7628H47.6591C51.1207 63.7628 53.0773 62.1072 53.5288 58.7961C53.8298 57.4416 53.5288 56.2376 52.9267 55.485C52.0237 54.7325 50.8197 54.281 49.0136 54.281ZM49.6156 59.2477C49.3146 61.0537 47.9601 61.0537 46.6056 61.0537H45.853L46.4551 57.5921C46.4551 57.4416 46.6056 57.2911 46.9066 57.2911H47.2076C48.1106 57.2911 49.0136 57.2911 49.4651 57.8931C49.6156 58.0436 49.7662 58.4951 49.6156 59.2477Z" fill="#263B80"/>
<path d="M64.5151 59.097H62.107C61.9565 59.097 61.6555 59.2475 61.6555 59.398L61.505 60.1506L61.3545 59.8496C60.7525 59.097 59.6989 58.796 58.4949 58.796C55.7858 58.796 53.3777 60.9031 52.9262 63.7627C52.6252 65.2677 53.0767 66.6223 53.8293 67.5253C54.5818 68.4283 55.6353 68.7293 56.9898 68.7293C59.2474 68.7293 60.4515 67.3748 60.4515 67.3748L60.301 68.1273C60.301 68.4283 60.4515 68.5788 60.7525 68.5788H63.01C63.311 68.5788 63.612 68.2778 63.7626 67.9768L65.1171 59.5485C64.9666 59.398 64.6656 59.097 64.5151 59.097ZM61.0535 63.9132C60.7525 65.2677 59.6989 66.3212 58.1939 66.3212C57.4414 66.3212 56.8393 66.0202 56.5383 65.7192C56.2373 65.2677 56.0868 64.6657 56.0868 63.9132C56.2373 62.5586 57.4414 61.5051 58.7959 61.5051C59.5484 61.5051 59.9999 61.8061 60.4515 62.1071C60.903 62.5586 61.0535 63.3112 61.0535 63.9132Z" fill="#263B80"/>
<path d="M101.239 59.097H98.8305C98.68 59.097 98.379 59.2475 98.379 59.398L98.2285 60.1506L98.078 59.8496C97.476 59.097 96.4224 58.796 95.2184 58.796C92.5093 58.796 90.1012 60.9031 89.6497 63.7627C89.3487 65.2677 89.8002 66.6223 90.5528 67.5253C91.3053 68.4283 92.3588 68.7293 93.7134 68.7293C95.9709 68.7293 97.175 67.3748 97.175 67.3748L97.0244 68.1273C97.0244 68.4283 97.175 68.5788 97.476 68.5788H99.7335C100.035 68.5788 100.336 68.2778 100.486 67.9768L101.841 59.5485C101.69 59.398 101.54 59.097 101.239 59.097ZM97.777 63.9132C97.476 65.2677 96.4224 66.3212 94.9174 66.3212C94.1649 66.3212 93.5628 66.0202 93.2618 65.7192C92.9608 65.2677 92.8103 64.6657 92.8103 63.9132C92.9608 62.5586 94.1649 61.5051 95.5194 61.5051C96.2719 61.5051 96.7234 61.8061 97.175 62.1071C97.777 62.5586 97.9275 63.3112 97.777 63.9132Z" fill="#139AD6"/>
<path d="M77.609 59.097H75.0505C74.7495 59.097 74.599 59.2476 74.4484 59.3981L71.1374 64.5152L69.6323 59.6991C69.4818 59.3981 69.3313 59.2476 68.8798 59.2476H66.4717C66.1707 59.2476 66.0202 59.5486 66.0202 59.8496L68.7293 67.8263L66.1707 71.4384C66.0202 71.7394 66.1707 72.1909 66.4717 72.1909H68.8798C69.1808 72.1909 69.3313 72.0404 69.4818 71.8899L77.7595 60.0001C78.2111 59.5486 77.9101 59.097 77.609 59.097Z" fill="#263B80"/>
<path d="M104.098 54.7324L101.991 68.2778C101.991 68.5788 102.142 68.7293 102.443 68.7293H104.55C104.851 68.7293 105.152 68.4283 105.302 68.1273L107.409 54.8829C107.409 54.5819 107.259 54.4314 106.958 54.4314H104.55C104.399 54.2809 104.249 54.4314 104.098 54.7324Z" fill="#139AD6"/>
<path d="M29.8991 49.7658C28.8456 48.5617 26.889 47.9597 24.1799 47.9597H16.6547C16.2032 47.9597 15.7517 48.4112 15.6012 48.8627L12.5911 68.5788C12.5911 69.0304 12.8921 69.3314 13.1931 69.3314H17.8588L19.0628 61.9566V62.2577C19.2133 61.8061 19.6648 61.3546 20.1163 61.3546H22.3739C26.7385 61.3546 30.0496 59.5486 31.1031 54.5819V54.1304C30.9526 54.1304 30.9526 54.1304 31.1031 54.1304C31.2537 52.1738 30.9526 50.9698 29.8991 49.7658Z" fill="#263B80"/>
<path d="M30.9528 54.1304V54.5819C29.8992 59.699 26.5881 61.3546 22.2235 61.3546H19.9659C19.5144 61.3546 19.0629 61.8061 18.9124 62.2576L17.4073 71.4384C17.4073 71.7394 17.5579 72.0404 18.0094 72.0404H21.9225C22.374 72.0404 22.8255 71.7394 22.8255 71.2879V71.1374L23.578 66.4717V66.1707C23.578 65.7192 24.0295 65.4182 24.4811 65.4182H25.0831C28.8457 65.4182 31.8558 63.9132 32.6083 59.398C32.9093 57.592 32.7588 55.9364 31.8558 54.8829C31.7053 54.5819 31.4043 54.2809 30.9528 54.1304Z" fill="#139AD6"/>
<path d="M29.8991 53.6788C29.7486 53.6788 29.5981 53.5283 29.4476 53.5283C29.297 53.5283 29.1465 53.5283 28.996 53.3778C28.394 53.2273 27.792 53.2273 27.0395 53.2273H21.1698C21.0193 53.2273 20.8688 53.2273 20.7183 53.3778C20.4173 53.5283 20.2668 53.8293 20.2668 54.1303L19.0627 61.9566V62.2576C19.2132 61.8061 19.6648 61.3546 20.1163 61.3546H22.3738C26.7385 61.3546 30.0496 59.5485 31.1031 54.5818C31.1031 54.4313 31.1031 54.2808 31.2536 54.1303C30.9526 53.9798 30.8021 53.8293 30.5011 53.8293C30.0496 53.6788 30.0496 53.6788 29.8991 53.6788Z" fill="#232C65"/>
</svg>
