<svg viewBox="0 0 150 151" fill="none" xmlns="http://www.w3.org/2000/svg">
<path fill-rule="evenodd" clip-rule="evenodd" d="M82.696 27.024C116.016 27.7867 137.441 48.8889 146.733 74.7698C155.131 98.1618 146.733 132 118.5 137C89.2328 137 54.6378 159.749 27.8918 145.332C10.5391 125 -0.528776 102.488 10.539 74.7698C21.6664 46.9018 46.4886 26.1953 82.696 27.024Z" fill="#F0EFFF"/>
<path opacity="0.34" d="M123.975 122.685H31.0951C29.9101 122.685 28.9501 121.725 28.9501 120.54C28.9501 119.355 29.9101 118.395 31.0951 118.395H123.975C125.16 118.395 126.12 119.355 126.12 120.54C126.12 121.725 125.16 122.685 123.975 122.685Z" fill="black"/>
<path d="M95.7611 120.544H98.4611V79.9237H95.7611V120.544Z" fill="#2F262D"/>
<path d="M69.436 120.544H72.136V79.9237H69.436V120.544Z" fill="#2F262D"/>
<path d="M81.93 82.575C72.645 82.575 65.13 75.495 65.13 66.78C65.13 64.53 65.64 62.385 66.54 60.435C60.63 62.88 56.505 68.445 56.505 74.895C56.505 83.625 64.02 90.69 73.305 90.69C80.19 90.69 86.1 86.805 88.695 81.24C86.61 82.095 84.33 82.575 81.93 82.575Z" fill="#81A6FF"/>
<path d="M56.0701 79.9202H35.5051C34.7251 79.9202 34.0801 79.2752 34.0801 78.4952V77.1452C34.0801 76.3652 34.7251 75.7202 35.5051 75.7202H56.0701C56.8501 75.7202 57.4951 76.3652 57.4951 77.1452V78.4952C57.4951 79.2752 56.8501 79.9202 56.0701 79.9202Z" fill="#FD848E"/>
<path d="M39.5377 120.544H42.2377L42.2377 79.9237H39.5377L39.5377 120.544Z" fill="#2F262D"/>
<path d="M56.1441 120.544H58.8441L58.8441 79.9237H56.1441L56.1441 120.544Z" fill="#494149"/>
<path d="M112.013 120.544H114.713V79.9237H112.013V120.544Z" fill="#494149"/>
<path d="M81.5098 75.7199C81.2098 74.3399 79.5448 73.2899 77.5198 73.2899C75.5098 73.2899 73.8298 74.3399 73.5298 75.7199H81.5098Z" fill="#F4EFF0"/>
<path d="M98.7151 75.72H81.9151C81.7051 75.72 81.5251 75.54 81.5251 75.33C81.5251 75.12 81.7051 74.94 81.9151 74.94H98.7301C98.9401 74.94 99.1201 75.12 99.1201 75.33C99.1201 75.54 98.9401 75.72 98.7151 75.72Z" fill="white"/>
<path d="M98.715 75.3301H81.915C81.765 75.3301 81.645 75.2551 81.57 75.1351C81.54 75.1951 81.51 75.2551 81.51 75.3301C81.51 75.5401 81.69 75.7201 81.9 75.7201H98.715C98.925 75.7201 99.105 75.5401 99.105 75.3301C99.105 75.2551 99.09 75.1951 99.045 75.1351C98.985 75.2401 98.865 75.3301 98.715 75.3301Z" fill="#F4EFF0"/>
<path d="M85.1701 75.72H81.9151C81.7051 75.72 81.5251 75.54 81.5251 75.33C81.5251 75.12 81.7051 74.94 81.9151 74.94H85.1701C85.3801 74.94 85.5601 75.12 85.5601 75.33C85.5601 75.54 85.3951 75.72 85.1701 75.72Z" fill="#F4EFF0"/>
<path d="M97.5299 74.94H96.2999V74.655C96.2999 74.505 96.4199 74.37 96.5849 74.37H97.2449C97.3949 74.37 97.5299 74.49 97.5299 74.655V74.94Z" fill="#F4EFF0"/>
<path d="M96.0299 74.94H94.7999V74.655C94.7999 74.505 94.9199 74.37 95.0849 74.37H95.7449C95.8949 74.37 96.0299 74.49 96.0299 74.655V74.94Z" fill="#F4EFF0"/>
<path d="M94.5299 74.94H93.2999V74.655C93.2999 74.505 93.4199 74.37 93.5849 74.37H94.2449C94.3949 74.37 94.5299 74.49 94.5299 74.655V74.94Z" fill="#F4EFF0"/>
<path d="M93.0299 74.94H91.7999V74.655C91.7999 74.505 91.9199 74.37 92.0849 74.37H92.7449C92.8949 74.37 93.0299 74.49 93.0299 74.655V74.94Z" fill="#F4EFF0"/>
<path d="M91.5299 74.94H90.2999V74.655C90.2999 74.505 90.4199 74.37 90.5849 74.37H91.2449C91.3949 74.37 91.5299 74.49 91.5299 74.655V74.94Z" fill="#F4EFF0"/>
<path d="M90.0299 74.94H88.7999V74.655C88.7999 74.505 88.9199 74.37 89.0849 74.37H89.7449C89.8949 74.37 90.0299 74.49 90.0299 74.655V74.94Z" fill="#F4EFF0"/>
<path d="M88.5299 74.94H87.2999V74.655C87.2999 74.505 87.4199 74.37 87.5849 74.37H88.2449C88.3949 74.37 88.5299 74.49 88.5299 74.655V74.94Z" fill="#F4EFF0"/>
<path d="M87.0299 74.94H85.7999V74.655C85.7999 74.505 85.9199 74.37 86.0849 74.37H86.7449C86.8949 74.37 87.0299 74.49 87.0299 74.655V74.94Z" fill="#F4EFF0"/>
<path d="M85.5299 74.94H84.2999V74.655C84.2999 74.505 84.4199 74.37 84.5849 74.37H85.2449C85.3949 74.37 85.5299 74.49 85.5299 74.655V74.94Z" fill="#F4EFF0"/>
<path d="M84.0299 74.94H82.7999V74.655C82.7999 74.505 82.9199 74.37 83.0849 74.37H83.7449C83.8949 74.37 84.0299 74.49 84.0299 74.655V74.94Z" fill="#F4EFF0"/>
<path d="M81.915 75.72H85.17C85.38 75.72 85.56 75.54 85.56 75.33H81.51C81.51 75.54 81.69 75.72 81.915 75.72Z" fill="#E2E2E2"/>
<path d="M67.9999 84.0001C63.9999 82.0001 60.6497 76.3836 60.6497 69.4704C60.6497 67.6855 60.9032 65.984 61.3506 64.4371C58.413 66.3766 56.3627 70.7911 56.3627 75.9076C56.3627 82.8328 65.2476 89.9371 69.8627 89.9371C79.4999 92.5001 87.9999 86.0001 76.3627 86.4371C75.3263 87.1154 68.9999 84.5001 67.9999 84.0001Z" fill="#81A6FF"/>
<path d="M109.905 68.43H84.7049C84.2099 68.43 83.8049 68.025 83.8049 67.53L86.9249 49.53C86.9249 49.035 87.3299 48.63 87.8249 48.63H113.025C113.52 48.63 113.925 49.035 113.925 49.53L110.805 67.53C110.805 68.025 110.415 68.43 109.905 68.43Z" fill="#CECECE"/>
<path d="M111.405 68.43H86.2049C85.7099 68.43 85.3049 68.025 85.3049 67.53L88.4249 49.53C88.4249 49.035 88.8299 48.63 89.3249 48.63H114.525C115.02 48.63 115.425 49.035 115.425 49.53L112.305 67.53C112.305 68.025 111.915 68.43 111.405 68.43Z" fill="#F4EFF0"/>
<path d="M103.71 74.745L101.64 64.26H97.9498C97.4998 64.26 97.1548 64.68 97.2448 65.115L99.0748 74.37C99.1498 74.715 98.8798 75.03 98.5348 75.03H96.2848C95.8798 75.03 95.5648 75.36 95.5648 75.75H99.3448H102.855C103.41 75.765 103.815 75.27 103.71 74.745Z" fill="#CECECE"/>
<path d="M103.905 75.7651H100.08L97.8598 64.5151C97.8298 64.3801 97.9348 64.2751 98.0698 64.2751H102.375L104.505 75.0601C104.565 75.4201 104.28 75.7651 103.905 75.7651Z" fill="#F4EFF0"/>
<path d="M99.3601 75.7649H100.08L99.8851 74.7449H99.1501L99.3601 75.7649Z" fill="#F4EFF0"/>
<path d="M99.3601 75.7649C99.7351 75.7649 100.02 75.4199 99.9451 75.0449L99.8851 74.7449H99.0751L99.3601 75.7649Z" fill="#CECECE"/>
<path d="M102.66 58.8901C101.85 58.8901 101.19 58.2301 101.19 57.4201C101.19 57.1501 101.265 56.9101 101.385 56.7001C101.175 56.6401 100.95 56.5951 100.71 56.5951C99.4348 56.5951 98.4148 57.6301 98.4148 58.8901C98.4148 60.1501 99.4498 61.1851 100.71 61.1851C101.985 61.1851 103.005 60.1501 103.005 58.8901C103.005 58.8751 103.005 58.8601 103.005 58.8451C102.885 58.8751 102.78 58.8901 102.66 58.8901Z" fill="#CECECE"/>
<path d="M54.8251 79.9202H119.055C119.835 79.9202 120.48 79.2752 120.48 78.4952V77.1452C120.48 76.3652 119.835 75.7202 119.055 75.7202H54.8251C54.0451 75.7202 53.4001 76.3652 53.4001 77.1452V78.4952C53.4001 79.2752 54.0301 79.9202 54.8251 79.9202Z" fill="#FFA4AB"/>
<path d="M51.1499 75.72H48.7199C47.4899 75.72 46.4849 74.715 46.4849 73.485V66.87H53.3849V73.485C53.3999 74.715 52.3949 75.72 51.1499 75.72Z" fill="#FF6161"/>
<path d="M47.265 67.7701C45.66 67.7701 44.37 69.0751 44.37 70.6651C44.37 72.2551 45.675 73.5601 47.265 73.5601C48.855 73.5601 50.16 72.2551 50.16 70.6651C50.16 69.0751 48.855 67.7701 47.265 67.7701ZM47.265 72.9301C46.02 72.9301 45 71.9101 45 70.6651C45 69.4201 46.02 68.4001 47.265 68.4001C48.51 68.4001 49.53 69.4201 49.53 70.6651C49.515 71.9251 48.51 72.9301 47.265 72.9301Z" fill="#F4A36C"/>
<path d="M51.1499 75.72H48.7199C47.4899 75.72 46.4849 74.715 46.4849 73.485V66.87H53.3849V73.485C53.3999 74.715 52.3949 75.72 51.1499 75.72Z" fill="#F7BC8B"/>
<path d="M49.7549 73.62C49.0649 73.62 48.5099 73.065 48.5099 72.375V66.87H46.4849V73.485C46.4849 74.715 47.4899 75.72 48.7199 75.72H51.1499C52.3349 75.72 53.3099 74.79 53.3849 73.62H49.7549Z" fill="#EFA573"/>
<path opacity="0.77" d="M49.1847 65.6702C49.7232 65.6702 50.1597 65.2336 50.1597 64.6952C50.1597 64.1567 49.7232 63.7202 49.1847 63.7202C48.6462 63.7202 48.2097 64.1567 48.2097 64.6952C48.2097 65.2336 48.6462 65.6702 49.1847 65.6702Z" fill="#F2F2F2"/>
<path opacity="0.77" d="M50.9848 62.7451C51.7884 62.7451 52.4398 62.0937 52.4398 61.2901C52.4398 60.4865 51.7884 59.8351 50.9848 59.8351C50.1812 59.8351 49.5298 60.4865 49.5298 61.2901C49.5298 62.0937 50.1812 62.7451 50.9848 62.7451Z" fill="#F2F2F2"/>
</svg>
