<svg viewBox="0 0 136 127" fill="none" xmlns="http://www.w3.org/2000/svg">
<path fill-rule="evenodd" clip-rule="evenodd" d="M79.4633 0.524021C112.784 1.28665 119.489 28.7746 128.78 54.6555C137.178 78.0475 142.823 95.3374 118.767 110.002C93.1001 125.649 51.405 133.249 24.6591 118.832C-5.31658 102.673 -3.76152 75.9885 7.30623 48.2698C18.4336 20.4018 43.2558 -0.304691 79.4633 0.524021Z" fill="#F0EFFF"/>
<g clip-path="url(#clip0)">
<path opacity="0.26" d="M67.09 90.5602C87.6896 90.5602 104.389 89.5543 104.389 88.3135C104.389 87.0726 87.6896 86.0667 67.09 86.0667C46.4903 86.0667 29.791 87.0726 29.791 88.3135C29.791 89.5543 46.4903 90.5602 67.09 90.5602Z" fill="#162126"/>
<path d="M126.688 89.0981H9.49734C7.23775 89.0981 5.40649 88.7107 5.40649 86.4511H130.779C130.779 88.7099 128.948 89.0981 126.688 89.0981Z" fill="#E7A56B"/>
<path opacity="0.7" d="M5.40649 86.7718H130.779C130.779 87.176 130.618 87.5636 130.333 87.8495C130.047 88.1353 129.659 88.2958 129.255 88.2958H6.93054C6.52634 88.2958 6.13869 88.1353 5.85288 87.8495C5.56706 87.5636 5.40649 87.176 5.40649 86.7718Z" fill="#C8935F"/>
<path d="M132.223 85.3271H3.72191C3.32321 85.3271 3 85.6503 3 86.049C3 86.4477 3.32321 86.7709 3.72191 86.7709H132.223C132.621 86.7709 132.945 86.4477 132.945 86.049C132.945 85.6503 132.621 85.3271 132.223 85.3271Z" fill="#E7A56B"/>
<path d="M133 86.3756C132.901 86.6018 132.519 86.771 132.062 86.771H3.88245C3.35305 86.771 3.08032 86.5416 3.08032 86.2617V85.8373C3.08032 85.5967 3.40117 85.393 3.8271 85.3408C3.81103 85.3767 3.80256 85.4154 3.80224 85.4547V85.879C3.80224 86.159 4.23539 86.3884 4.76479 86.3884H132.784C132.856 86.3885 132.929 86.3842 133 86.3756Z" fill="#C8935F"/>
<path d="M10.8152 85.7803C12.087 85.9063 13.3642 85.9681 14.6422 85.9656C15.1331 85.9656 15.5309 85.9584 15.8053 85.9552C16.0796 85.952 16.2328 85.9552 16.2336 85.9688C16.2344 85.9825 16.0836 86.0065 15.8093 86.0346C15.535 86.0627 15.1371 86.0916 14.6446 86.11C13.3598 86.1555 12.0734 86.1135 10.7944 85.9841L9.7059 85.871C9.35376 85.8301 9.01607 85.8044 8.69281 85.7908C8.04629 85.7555 7.46315 85.7547 6.97305 85.7683C5.99285 85.7972 5.38804 85.8694 5.38403 85.8373C5.38403 85.8244 5.53082 85.7883 5.80355 85.7466C6.07627 85.7049 6.47252 85.6552 6.96583 85.6239C7.5434 85.5867 8.12251 85.5795 8.70083 85.6022C9.0273 85.6151 9.37061 85.6367 9.72274 85.6752L10.8152 85.7803Z" fill="#C8935F"/>
<path d="M22.7669 85.7803C24.0386 85.9063 25.3159 85.9681 26.5938 85.9656C27.0847 85.9656 27.4826 85.9584 27.7569 85.9552C28.0313 85.952 28.1845 85.9552 28.1853 85.9688C28.1861 85.9825 28.0353 86.0065 27.7609 86.0346C27.4866 86.0627 27.0888 86.0916 26.5963 86.11C25.3115 86.1555 24.0251 86.1135 22.746 85.9841L21.6576 85.8702C21.3054 85.8293 20.9677 85.8036 20.6445 85.79C19.998 85.7547 19.4148 85.7539 18.9247 85.7675C17.9445 85.7964 17.3397 85.8686 17.3357 85.8365C17.3357 85.8236 17.4825 85.7876 17.7552 85.7458C18.0279 85.7041 18.4242 85.6544 18.9175 85.6231C19.4951 85.5859 20.0742 85.5787 20.6525 85.6014C20.979 85.6143 21.3223 85.6359 21.6744 85.6744L22.7669 85.7803Z" fill="#C8935F"/>
<path d="M50.3602 85.7803C51.6319 85.9063 52.9092 85.9681 54.1871 85.9656C54.678 85.9656 55.0759 85.9584 55.3502 85.9552C55.6245 85.952 55.7777 85.9552 55.7785 85.9688C55.7794 85.9825 55.6286 86.0065 55.3542 86.0346C55.0799 86.0627 54.682 86.0916 54.1895 86.11C52.9048 86.1555 51.6184 86.1135 50.3393 85.9841L49.2508 85.8702C48.8987 85.8293 48.561 85.8036 48.2377 85.79C47.5912 85.7547 47.0081 85.7539 46.518 85.7675C45.5378 85.7964 44.933 85.8686 44.929 85.8365C44.929 85.8236 45.0757 85.7876 45.3485 85.7458C45.6212 85.7041 46.0174 85.6544 46.5108 85.6231C47.0883 85.5859 47.6674 85.5787 48.2458 85.6014C48.5722 85.6143 48.9155 85.6359 49.2677 85.6744L50.3602 85.7803Z" fill="#C8935F"/>
<path d="M77.5519 85.7803C78.8237 85.9063 80.1009 85.9681 81.3789 85.9656C81.8698 85.9656 82.2676 85.9584 82.542 85.9552C82.8163 85.952 82.9695 85.9552 82.9703 85.9688C82.9711 85.9825 82.8203 86.0065 82.546 86.0346C82.2717 86.0627 81.8738 86.0916 81.3813 86.11C80.0965 86.1555 78.8101 86.1135 77.5311 85.9841L76.4426 85.8702C76.0905 85.8293 75.7528 85.8036 75.4295 85.79C74.783 85.7547 74.1998 85.7539 73.7097 85.7675C72.7295 85.7964 72.1247 85.8686 72.1207 85.8365C72.1207 85.8236 72.2675 85.7876 72.5402 85.7458C72.813 85.7041 73.2092 85.6544 73.7025 85.6231C74.2801 85.5859 74.8592 85.5787 75.4375 85.6014C75.764 85.6143 76.1073 85.6359 76.4594 85.6744L77.5519 85.7803Z" fill="#C8935F"/>
<path d="M85.3349 86.0417C86.0885 86.1895 86.8491 86.2993 87.6137 86.3706C87.9073 86.3987 88.1455 86.4171 88.31 86.4308C88.3963 86.4314 88.4822 86.4424 88.5658 86.4636C88.481 86.4797 88.3945 86.4848 88.3084 86.4789C88.1423 86.4789 87.9033 86.4741 87.6073 86.4572C86.8363 86.4111 86.0692 86.3125 85.3116 86.162L84.6699 86.0321C84.4621 85.9872 84.2616 85.9519 84.0691 85.9238C83.6849 85.8661 83.336 85.8316 83.0416 85.8123C82.4536 85.7738 82.0878 85.7826 82.087 85.7626C82.1708 85.7409 82.2572 85.7307 82.3437 85.7321C82.509 85.7225 82.7496 85.7153 83.0456 85.7249C83.3944 85.7354 83.7425 85.764 84.0884 85.8107C84.2825 85.8372 84.4894 85.8693 84.6956 85.9126L85.3349 86.0417Z" fill="#C8935F"/>
<path d="M57.9827 86.0417C58.7363 86.1895 59.4969 86.2993 60.2615 86.3706C60.5551 86.3987 60.7933 86.4171 60.9578 86.4308C61.0441 86.4314 61.13 86.4424 61.2137 86.4636C61.1288 86.4797 61.0423 86.4848 60.9562 86.4789C60.7901 86.4789 60.5511 86.4741 60.2551 86.4572C59.4841 86.4111 58.7171 86.3125 57.9594 86.162L57.3177 86.0321C57.11 85.9872 56.9094 85.9519 56.7169 85.9238C56.3327 85.8661 55.9838 85.8316 55.6894 85.8123C55.1014 85.7738 54.7357 85.7826 54.7349 85.7626C54.8187 85.7409 54.905 85.7307 54.9915 85.7321C55.1568 85.7225 55.3974 85.7153 55.6934 85.7249C56.0422 85.7354 56.3903 85.764 56.7362 85.8107C56.9303 85.8372 57.1372 85.8693 57.3434 85.9126L57.9827 86.0417Z" fill="#C8935F"/>
<path d="M30.6301 86.0417C31.3838 86.1895 32.1443 86.2993 32.909 86.3706C33.2026 86.3987 33.4408 86.4171 33.6052 86.4308C33.6915 86.4314 33.7774 86.4424 33.8611 86.4636C33.7763 86.4797 33.6898 86.4848 33.6036 86.4789C33.4376 86.4789 33.1986 86.4741 32.9026 86.4572C32.1315 86.4111 31.3645 86.3125 30.6069 86.162L29.9652 86.0321C29.7574 85.9872 29.5569 85.9519 29.3644 85.9238C28.9802 85.8661 28.6312 85.8316 28.3369 85.8123C27.7489 85.7738 27.3831 85.7826 27.3823 85.7626C27.4661 85.7409 27.5525 85.7307 27.639 85.7321C27.8042 85.7225 28.0449 85.7153 28.3409 85.7249C28.6897 85.7354 29.0378 85.764 29.3836 85.8107C29.5777 85.8372 29.7847 85.8693 29.9908 85.9126L30.6301 86.0417Z" fill="#C8935F"/>
<path d="M100.656 86.0417C101.409 86.1895 102.17 86.2993 102.934 86.3706C103.228 86.3987 103.466 86.4171 103.631 86.4308C103.717 86.4314 103.803 86.4424 103.886 86.4636C103.802 86.4797 103.715 86.4848 103.629 86.4789C103.463 86.4789 103.224 86.4741 102.928 86.4572C102.157 86.4111 101.39 86.3125 100.632 86.162L99.9906 86.0321C99.7828 85.9872 99.5823 85.9519 99.3898 85.9238C99.0056 85.8661 98.6566 85.8316 98.3622 85.8123C97.7743 85.7738 97.4085 85.7826 97.4077 85.7626C97.4915 85.7409 97.5779 85.7307 97.6644 85.7321C97.8296 85.7225 98.0703 85.7153 98.3663 85.7249C98.7151 85.7354 99.0632 85.764 99.409 85.8107C99.6031 85.8372 99.8101 85.8693 100.016 85.9126L100.656 86.0417Z" fill="#C8935F"/>
<path d="M117.019 86.0417C117.773 86.1895 118.533 86.2993 119.298 86.3706C119.591 86.3987 119.83 86.4171 119.994 86.4308C120.08 86.4314 120.166 86.4424 120.25 86.4636C120.165 86.4797 120.079 86.4848 119.993 86.4789C119.826 86.4789 119.587 86.4741 119.291 86.4572C118.52 86.4111 117.753 86.3125 116.996 86.162L116.354 86.0321C116.146 85.9872 115.946 85.9519 115.753 85.9238C115.369 85.8661 115.02 85.8316 114.726 85.8123C114.138 85.7738 113.772 85.7826 113.771 85.7626C113.855 85.7409 113.941 85.7307 114.028 85.7321C114.193 85.7225 114.434 85.7153 114.73 85.7249C115.079 85.7354 115.427 85.764 115.773 85.8107C115.967 85.8372 116.174 85.8693 116.38 85.9126L117.019 86.0417Z" fill="#C8935F"/>
<path d="M106.348 85.7803C107.62 85.9063 108.897 85.9681 110.175 85.9656C110.666 85.9656 111.064 85.9584 111.338 85.9552C111.613 85.952 111.766 85.9552 111.767 85.9688C111.767 85.9825 111.617 86.0065 111.342 86.0346C111.068 86.0627 110.67 86.0916 110.178 86.11C108.893 86.1555 107.606 86.1135 106.327 85.9841L105.239 85.8702C104.887 85.8293 104.549 85.8036 104.226 85.79C103.579 85.7547 102.996 85.7539 102.506 85.7675C101.526 85.7964 100.921 85.8686 100.917 85.8365C100.917 85.8236 101.064 85.7876 101.337 85.7458C101.609 85.7041 102.005 85.6544 102.499 85.6231C103.076 85.5859 103.655 85.5787 104.234 85.6014C104.56 85.6143 104.904 85.6359 105.256 85.6744L106.348 85.7803Z" fill="#C8935F"/>
<path d="M91.8299 85.7803C93.1016 85.9063 94.3789 85.9681 95.6569 85.9656C96.1478 85.9656 96.5456 85.9584 96.8199 85.9552C97.0943 85.952 97.2475 85.9552 97.2483 85.9688C97.2491 85.9825 97.0983 86.0065 96.8239 86.0346C96.5496 86.0627 96.1518 86.0916 95.6593 86.11C94.3745 86.1555 93.0881 86.1135 91.809 85.9841L90.7206 85.8702C90.3684 85.8293 90.0307 85.8036 89.7075 85.79C89.0609 85.7547 88.4778 85.7539 87.9877 85.7675C87.0075 85.7964 86.4027 85.8686 86.3987 85.8365C86.3987 85.8236 86.5455 85.7876 86.8182 85.7458C87.0909 85.7041 87.4872 85.6544 87.9805 85.6231C88.558 85.5859 89.1372 85.5787 89.7155 85.6014C90.0419 85.6143 90.3853 85.6359 90.7374 85.6744L91.8299 85.7803Z" fill="#C8935F"/>
<path d="M125.92 85.7803C127.192 85.9063 128.469 85.9681 129.747 85.9656C130.238 85.9656 130.636 85.9584 130.91 85.9552C131.185 85.952 131.338 85.9552 131.339 85.9688C131.339 85.9825 131.189 86.0065 130.914 86.0346C130.64 86.0627 130.242 86.0916 129.75 86.11C128.465 86.1555 127.178 86.1135 125.899 85.9841L124.811 85.8702C124.459 85.8293 124.121 85.8036 123.798 85.79C123.151 85.7547 122.568 85.7539 122.078 85.7675C121.098 85.7964 120.493 85.8686 120.489 85.8365C120.489 85.8236 120.636 85.7876 120.909 85.7458C121.181 85.7041 121.577 85.6544 122.071 85.6231C122.648 85.5859 123.227 85.5787 123.806 85.6014C124.132 85.6143 124.476 85.6359 124.828 85.6744L125.92 85.7803Z" fill="#C8935F"/>
<path d="M63.7555 85.7803C65.0273 85.9063 66.3045 85.9681 67.5825 85.9656C68.0734 85.9656 68.4712 85.9584 68.7456 85.9552C69.0199 85.952 69.1731 85.9552 69.1739 85.9688C69.1747 85.9825 69.0239 86.0065 68.7496 86.0346C68.4753 86.0627 68.0774 86.0916 67.5849 86.11C66.3001 86.1555 65.0137 86.1135 63.7347 85.9841L62.6462 85.8702C62.2941 85.8293 61.9564 85.8036 61.6331 85.79C60.9866 85.7547 60.4035 85.7539 59.9134 85.7675C58.9332 85.7964 58.3284 85.8686 58.3243 85.8365C58.3243 85.8236 58.4711 85.7876 58.7439 85.7458C59.0166 85.7041 59.4128 85.6544 59.9061 85.6231C60.4837 85.5859 61.0628 85.5787 61.6411 85.6014C61.9676 85.6143 62.3109 85.6359 62.663 85.6744L63.7555 85.7803Z" fill="#C8935F"/>
<path d="M37.2054 85.7803C38.4771 85.9063 39.7544 85.9681 41.0323 85.9656C41.5232 85.9656 41.9211 85.9584 42.1954 85.9552C42.4697 85.952 42.623 85.9552 42.6238 85.9688C42.6246 85.9825 42.4738 86.0065 42.1994 86.0346C41.9251 86.0627 41.5272 86.0916 41.0347 86.11C39.75 86.1555 38.4636 86.1135 37.1845 85.9841L36.096 85.8702C35.7439 85.8293 35.4062 85.8036 35.0829 85.79C34.4364 85.7547 33.8533 85.7539 33.3632 85.7675C32.383 85.7964 31.7782 85.8686 31.7742 85.8365C31.7742 85.8236 31.921 85.7876 32.1937 85.7458C32.4664 85.7041 32.8627 85.6544 33.356 85.6231C33.9335 85.5859 34.5127 85.5787 35.091 85.6014C35.4174 85.6143 35.7607 85.6359 36.1129 85.6744L37.2054 85.7803Z" fill="#C8935F"/>
<g opacity="0.2">
<path opacity="0.2" d="M128.326 76.4309H120.947V83.8105H128.326V76.4309Z" fill="#98E2CA"/>
<path opacity="0.2" d="M126.762 80.1208C126.762 78.9469 125.81 77.9952 124.637 77.9952C123.463 77.9952 122.511 78.9469 122.511 80.1208C122.511 81.2948 123.463 82.2465 124.637 82.2465C125.81 82.2465 126.762 81.2948 126.762 80.1208Z" fill="white"/>
<path opacity="0.2" d="M124.396 79.7926C124.396 79.6154 124.252 79.4717 124.075 79.4717C123.898 79.4717 123.754 79.6154 123.754 79.7926V80.4479C123.754 80.6251 123.898 80.7688 124.075 80.7688C124.252 80.7688 124.396 80.6251 124.396 80.4479V79.7926Z" fill="#9EBAB7"/>
<path opacity="0.2" d="M125.519 79.7926C125.519 79.6154 125.375 79.4717 125.198 79.4717C125.021 79.4717 124.877 79.6154 124.877 79.7926V80.4479C124.877 80.6251 125.021 80.7688 125.198 80.7688C125.375 80.7688 125.519 80.6251 125.519 80.4479V79.7926Z" fill="#9EBAB7"/>
</g>
<path opacity="0.1" d="M86.983 58.0477V84.3847C86.983 85.2935 86.46 86.0692 85.7196 86.39C85.4833 86.4929 85.2282 86.5459 84.9704 86.5457H53.4613C53.2794 86.5454 53.0986 86.5184 52.9246 86.4654C52.0976 86.2248 51.4808 85.4227 51.4503 84.4698C51.4503 84.4425 51.4503 84.4144 51.4503 84.3895V58.0477C51.4487 56.8525 52.3495 55.89 53.4613 55.89H84.9696C86.0822 55.89 86.983 56.8525 86.983 58.0477Z" fill="black"/>
<path d="M88.6672 55.5345V83.1189C88.6674 83.5598 88.5354 83.9906 88.2883 84.3558C88.0413 84.7209 87.6905 85.0037 87.2811 85.1675C87.1238 85.2311 86.9596 85.2761 86.7919 85.3015C86.6817 85.3179 86.5704 85.3262 86.459 85.3264H51.8921C51.8096 85.3263 51.7271 85.3217 51.645 85.3127C51.5295 85.3001 51.4152 85.2778 51.3033 85.2462C50.8516 85.122 50.4511 84.8572 50.1599 84.4901C49.8688 84.1231 49.702 83.6729 49.6838 83.2047C49.6838 83.1767 49.6838 83.1478 49.6838 83.1189V55.5345C49.6838 55.3283 49.7245 55.1241 49.8034 54.9336C49.8823 54.7431 49.998 54.57 50.1439 54.4243C50.2897 54.2785 50.4629 54.1629 50.6534 54.084C50.844 54.0052 51.0482 53.9647 51.2544 53.9648H87.0967C87.3029 53.9647 87.5071 54.0052 87.6976 54.084C87.8882 54.1629 88.0613 54.2785 88.2072 54.4243C88.353 54.57 88.4687 54.7431 88.5477 54.9336C88.6266 55.1241 88.6672 55.3283 88.6672 55.5345Z" fill="#F68A5D"/>
<path d="M87.1135 84.4458H86.8568V84.125H87.1135C87.1954 84.126 87.2749 84.098 87.3382 84.0461C87.4014 83.9941 87.4443 83.9215 87.4592 83.841L87.7753 83.8972C87.7471 84.0519 87.6654 84.1917 87.5443 84.292C87.4233 84.3924 87.2707 84.4469 87.1135 84.4458ZM86.5344 84.4458H85.5678V84.125H86.5344V84.4458ZM85.2453 84.4458H84.2788V84.125H85.2453V84.4458ZM83.9563 84.4458H82.9898V84.125H83.9563V84.4458ZM82.6673 84.4458H81.7007V84.125H82.6673V84.4458ZM81.3783 84.4458H80.4117V84.125H81.3783V84.4458ZM80.0893 84.4458H79.1219V84.125H80.0885L80.0893 84.4458ZM78.8011 84.4458H77.8337V84.125H78.8011V84.4458ZM77.512 84.4458H76.5447V84.125H77.5112L77.512 84.4458ZM76.223 84.4458H75.2556V84.125H76.2222L76.223 84.4458ZM74.934 84.4458H73.9666V84.125H74.9332L74.934 84.4458ZM73.645 84.4458H72.6776V84.125H73.6442L73.645 84.4458ZM72.356 84.4458H71.3886V84.125H72.3552L72.356 84.4458ZM71.0669 84.4458H70.0996V84.125H71.0661L71.0669 84.4458ZM69.7779 84.4458H68.8106V84.125H69.7771L69.7779 84.4458ZM68.4889 84.4458H67.5215V84.125H68.4881L68.4889 84.4458ZM67.1999 84.4458H66.2325V84.125H67.1991L67.1999 84.4458ZM65.9109 84.4458H64.9435V84.125H65.9109V84.4458ZM64.6218 84.4458H63.6545V84.125H64.621L64.6218 84.4458ZM63.3328 84.4458H62.3655V84.125H63.332L63.3328 84.4458ZM62.0438 84.4458H61.074V84.125H62.0406L62.0438 84.4458ZM60.7532 84.4458H59.7906V84.125H60.7532V84.4458ZM59.4642 84.4458H58.4992V84.125H59.4658L59.4642 84.4458ZM58.1751 84.4458H57.2102V84.125H58.1767L58.1751 84.4458ZM56.8861 84.4458H55.9212V84.125H56.8877L56.8861 84.4458ZM55.5971 84.4458H54.6321V84.125H55.5987L55.5971 84.4458ZM54.3081 84.4458H53.3431V84.125H54.3097L54.3081 84.4458ZM53.0191 84.4458H52.0541V84.125H53.0207L53.0191 84.4458ZM51.7301 84.4458H51.2359H51.1846H51.1621C51.1421 84.4458 51.1212 84.4402 51.1012 84.4362C51.083 84.433 51.0651 84.4288 51.0474 84.4234L51.0322 84.4186C51.0129 84.4126 50.9939 84.4056 50.9752 84.3977C50.9615 84.3924 50.9481 84.3863 50.9351 84.3793C50.9219 84.373 50.9091 84.3661 50.8966 84.3584L50.875 84.3448C50.8641 84.3384 50.8537 84.3315 50.8437 84.3239C50.8336 84.3173 50.824 84.3101 50.8148 84.3023C50.7991 84.2903 50.7841 84.2774 50.7699 84.2637C50.7523 84.2468 50.7357 84.2289 50.7202 84.21L50.7001 84.1859L50.9552 83.991L50.9672 84.0055C50.9759 84.0159 50.9853 84.0259 50.9953 84.0351L51.0138 84.0504L51.0683 84.0873L51.0771 84.0913L51.1004 84.1025L51.1285 84.1121L51.1405 84.1162L51.1613 84.121L51.1926 84.1266H51.2095H51.7317L51.7301 84.4458ZM50.6239 83.7833H50.5662V82.8207H50.887V83.7833H50.6239ZM87.7849 83.5466H87.464V82.5793H87.7849V83.5466ZM50.887 82.4943H50.5662V81.5277H50.887V82.4943ZM87.7849 82.2536H87.464V81.2911H87.7849V82.2536ZM50.887 81.2052H50.5662V80.2387H50.887V81.2052ZM87.7849 80.9646H87.464V80.002H87.7849V80.9646ZM50.887 79.9162H50.5662V78.9496H50.887V79.9162ZM87.7849 79.6756H87.464V78.713H87.7849V79.6756ZM50.887 78.6272H50.5662V77.6606H50.887V78.6272ZM87.7849 78.3866H87.464V77.424H87.7849V78.3866ZM50.887 77.3382H50.5662V76.3716H50.887V77.3382ZM87.7849 77.0975H87.464V76.135H87.7849V77.0975ZM50.887 76.0492H50.5662V75.0826H50.887V76.0492ZM87.7849 75.8085H87.464V74.846H87.7849V75.8085ZM50.887 74.7601H50.5662V73.7936H50.887V74.7601ZM87.7849 74.5195H87.464V73.5569H87.7849V74.5195ZM50.887 73.4711H50.5662V72.5046H50.887V73.4711ZM87.7849 73.2305H87.464V72.2679H87.7849V73.2305ZM50.887 72.1821H50.5662V71.2155H50.887V72.1821ZM87.7849 71.9415H87.464V70.9789H87.7849V71.9415ZM50.887 70.8899H50.5662V69.9273H50.887V70.8899ZM87.7849 70.6492H87.464V69.6867H87.7849V70.6492ZM50.887 69.6065H50.5662V68.6375H50.887V69.6065ZM87.7849 69.3658H87.464V68.4033H87.7849V69.3658ZM50.887 68.315H50.5662V67.3485H50.887V68.315ZM87.7849 68.0744H87.464V67.1118H87.7849V68.0744ZM50.887 67.026H50.5662V66.0595H50.887V67.026ZM87.7849 66.7854H87.464V65.8228H87.7849V66.7854ZM50.887 65.737H50.5662V64.7704H50.887V65.737ZM87.7849 65.4964H87.464V64.5338H87.7849V65.4964ZM50.887 64.4488H50.5662V63.4814H50.887V64.4488ZM87.7849 64.2081H87.464V63.2448H87.7849V64.2081ZM50.887 63.1598H50.5662V62.1924H50.887V63.1598ZM87.7849 62.9191H87.464V61.9558H87.7849V62.9191ZM50.887 61.8707H50.5662V60.9034H50.887V61.8707ZM87.7849 61.6301H87.464V60.6667H87.7849V61.6301ZM50.887 60.5817H50.5662V59.6144H50.887V60.5817ZM87.7849 60.3411H87.464V59.3777H87.7849V60.3411ZM50.887 59.2927H50.5662V58.3253H50.887V59.2927ZM87.7849 59.0521H87.464V58.0887H87.7849V59.0521ZM50.887 58.0037H50.5662V57.0371H50.887V58.0037ZM87.7849 57.763H87.464V56.7997H87.7849V57.763ZM50.887 56.7147H50.5662V55.7481H50.887V56.7147ZM87.7849 56.474H87.464V55.5107L87.7849 55.5042V56.478V56.474ZM50.8918 55.4529L50.5758 55.3984C50.6031 55.243 50.6845 55.1023 50.8057 55.0013C50.9268 54.9003 51.0798 54.8455 51.2375 54.8465H51.4926V55.1674H51.2375C51.1555 55.1664 51.0757 55.1946 51.0124 55.2469C50.9491 55.2991 50.9064 55.3721 50.8918 55.4529ZM87.3999 55.3109L87.3846 55.2933C87.38 55.287 87.3749 55.2811 87.3694 55.2756L87.363 55.2684C87.3571 55.2623 87.3506 55.2566 87.3437 55.2516C87.2799 55.1967 87.1985 55.1666 87.1143 55.1666H86.6178V54.8457H87.1143C87.2717 54.8456 87.4241 54.9007 87.545 55.0013C87.5643 55.0161 87.5823 55.0325 87.5988 55.0502C87.6116 55.0632 87.6236 55.0769 87.6349 55.0912L87.6517 55.1112L87.3934 55.3013L87.3999 55.3109ZM86.2945 55.1682H85.328V54.8473H86.2945V55.1682ZM85.0055 55.1682H84.0389V54.8473H85.0055V55.1682ZM83.7165 55.1682H82.7499V54.8473H83.7165V55.1682ZM82.4275 55.1682H81.4609V54.8473H82.4275V55.1682ZM81.1385 55.1682H80.1719V54.8473H81.1385V55.1682ZM79.8494 55.1682H78.8813V54.8473H79.8478L79.8494 55.1682ZM78.5604 55.1682H77.5979V54.8473H78.5604V55.1682ZM77.2714 55.1682H76.3048V54.8473H77.2714V55.1682ZM75.9824 55.1682H75.0158V54.8473H75.9824V55.1682ZM74.6934 55.1682H73.7268V54.8473H74.6942L74.6934 55.1682ZM73.4043 55.1682H72.4386V54.8473H73.4051L73.4043 55.1682ZM72.1153 55.1682H71.1496V54.8473H72.1161L72.1153 55.1682ZM70.8263 55.1682H69.8605V54.8473H70.8271L70.8263 55.1682ZM69.5373 55.1682H68.5715V54.8473H69.5381L69.5373 55.1682ZM68.2483 55.1682H67.2825V54.8473H68.2491L68.2483 55.1682ZM66.9592 55.1682H65.9935V54.8473H66.96L66.9592 55.1682ZM65.6702 55.1682H64.7045V54.8473H65.671L65.6702 55.1682ZM64.3812 55.1682H63.4154V54.8473H64.382L64.3812 55.1682ZM63.0922 55.1682H62.1264V54.8473H63.093L63.0922 55.1682ZM61.8032 55.1682H60.8334V54.8473H61.804L61.8032 55.1682ZM60.5125 55.1682H59.55V54.8473H60.5125V55.1682ZM59.2291 55.1682H58.2594V54.8473H59.2291V55.1682ZM57.9401 55.1682H56.9704V54.8473H57.9369L57.9401 55.1682ZM56.6511 55.1682H55.6813V54.8473H56.6479L56.6511 55.1682ZM55.3621 55.1682H54.3923V54.8473H55.3589L55.3621 55.1682ZM54.0731 55.1682H53.1033V54.8473H54.0699L54.0731 55.1682ZM52.784 55.1682H51.8143V54.8473H52.7808L52.784 55.1682Z" fill="#CC6E4E"/>
<path opacity="0.3" d="M88.6672 74.0372V83.317C88.6677 83.7339 88.5328 84.1398 88.2829 84.4735C88.0329 84.8072 87.6814 85.0508 87.2811 85.1675C87.1086 85.2188 86.9257 85.3279 86.7372 85.3279H51.3835C50.4763 85.0785 49.7231 84.1841 49.6862 83.2055C49.691 83.1716 49.7082 83.1406 49.7343 83.1184C49.7605 83.0963 49.7939 83.0844 49.8281 83.0852C49.9942 83.0852 50.2998 83.0932 50.7265 83.0956C51.2992 83.0956 52.0901 83.0956 53.0527 83.0788L53.4842 83.0707C53.488 83.0711 53.4917 83.0711 53.4955 83.0707C53.7767 83.0643 54.0709 83.0568 54.3778 83.0483L54.8527 83.0338C55.0933 83.0258 55.3436 83.0178 55.5986 83.0074L56.027 82.9905H56.1168L56.6518 82.9665H56.7064L57.1379 82.9448L57.5181 82.9256L57.9304 82.9023L58.3411 82.8782L58.6379 82.8598L58.9355 82.8405L59.0478 82.8333L59.3317 82.8141C60.0063 82.7683 60.7034 82.7146 61.4173 82.6536L61.7381 82.6256L62.3429 82.5702C71.0011 81.7464 81.898 79.713 87.6244 74.6933C87.9035 74.4489 88.1709 74.1971 88.4265 73.9377C88.4463 73.9181 88.4714 73.9048 88.4987 73.8994C88.5259 73.894 88.5542 73.8968 88.5799 73.9074C88.6056 73.9181 88.6276 73.936 88.6432 73.9591C88.6587 73.9822 88.667 74.0094 88.6672 74.0372Z" fill="#CB4E53"/>
<path opacity="0.1" d="M73.7476 54.366V68.5532C73.7476 69.5326 73.1861 70.3275 72.4995 70.3275H65.8515C65.1649 70.3283 64.6034 69.5326 64.6034 68.5532V54.366H73.7476Z" fill="black"/>
<path opacity="0.1" d="M61.4751 78.108H53.8549C53.3233 78.108 52.8923 78.5389 52.8923 79.0705V82.8405C52.8923 83.3721 53.3233 83.8031 53.8549 83.8031H61.4751C62.0067 83.8031 62.4377 83.3721 62.4377 82.8405V79.0705C62.4377 78.5389 62.0067 78.108 61.4751 78.108Z" fill="black"/>
<path d="M73.7478 53.8846V68.0718C73.7478 69.0512 73.1864 69.8461 72.4997 69.8461H65.8517C65.3913 69.8461 64.9886 69.4908 64.772 68.9638C64.6587 68.6807 64.6015 68.3783 64.6036 68.0734V53.8846H73.7478Z" fill="#FCE0C3"/>
<path opacity="0.4" d="M73.7478 65.8925V68.0718C73.7478 69.0512 73.1863 69.8461 72.4997 69.8461H65.8516C65.3912 69.8461 64.9885 69.4908 64.772 68.9638C66.5367 69.125 71.4465 69.251 73.7478 65.8925Z" fill="#DBBB9E"/>
<path d="M70.4991 59.8202H69.4563V58.1445L71.2843 55.9836C71.3035 55.961 71.3158 55.9334 71.3198 55.9041C71.3238 55.8747 71.3192 55.8449 71.3067 55.818C71.2942 55.7912 71.2743 55.7684 71.2493 55.7526C71.2243 55.7367 71.1952 55.7284 71.1656 55.7285H67.1839C67.1543 55.7284 67.1252 55.7367 67.1002 55.7526C67.0752 55.7684 67.0553 55.7912 67.0428 55.818C67.0303 55.8449 67.0257 55.8747 67.0297 55.9041C67.0337 55.9334 67.046 55.961 67.0652 55.9836L68.8932 58.1445V59.8202H67.8505C67.7762 59.8187 67.7042 59.8454 67.649 59.895C67.5937 59.9446 67.5594 60.0133 67.5529 60.0873C67.5509 60.1255 67.5567 60.1637 67.57 60.1996C67.5833 60.2355 67.6037 60.2683 67.63 60.296C67.6563 60.3238 67.688 60.3459 67.7232 60.361C67.7583 60.3762 67.7962 60.384 67.8344 60.3841H70.5151C70.5534 60.384 70.5912 60.3762 70.6263 60.361C70.6615 60.3459 70.6932 60.3238 70.7195 60.296C70.7458 60.2683 70.7663 60.2355 70.7795 60.1996C70.7928 60.1637 70.7986 60.1255 70.7966 60.0873C70.7902 60.0133 70.7558 59.9446 70.7006 59.895C70.6453 59.8454 70.5733 59.8187 70.4991 59.8202Z" fill="#DBBB9E"/>
<path d="M71.8228 63.7581L71.3648 62.964L70.8089 62.0014C70.7909 61.9704 70.7651 61.9447 70.7341 61.9269C70.703 61.909 70.6679 61.8996 70.632 61.8996C70.5962 61.8996 70.561 61.909 70.53 61.9269C70.499 61.9447 70.4732 61.9704 70.4552 62.0014L69.8993 62.964L69.4413 63.7581C69.4148 63.8064 69.4012 63.8607 69.4019 63.9158C69.4025 63.9709 69.4173 64.0249 69.4449 64.0727C69.4725 64.1204 69.5118 64.1602 69.5593 64.1882C69.6067 64.2163 69.6605 64.2317 69.7156 64.2329H70.1696V67.1206C70.1679 67.2349 70.2075 67.346 70.2812 67.4334C70.3549 67.5208 70.4577 67.5787 70.5707 67.5962C70.636 67.6049 70.7024 67.5996 70.7655 67.5805C70.8286 67.5615 70.8869 67.5292 70.9366 67.4859C70.9862 67.4425 71.026 67.3891 71.0534 67.3292C71.0808 67.2692 71.095 67.2041 71.0953 67.1382V64.2321H71.5493C71.6042 64.2307 71.6578 64.2152 71.705 64.1871C71.7522 64.159 71.7914 64.1193 71.8189 64.0717C71.8463 64.0242 71.8611 63.9703 71.8618 63.9154C71.8625 63.8605 71.849 63.8063 71.8228 63.7581Z" fill="#DBBB9E"/>
<path d="M68.935 63.7581L68.477 62.964L67.9211 62.0014C67.9031 61.9704 67.8773 61.9447 67.8463 61.9269C67.8152 61.909 67.78 61.8996 67.7442 61.8996C67.7084 61.8996 67.6732 61.909 67.6422 61.9269C67.6112 61.9447 67.5853 61.9704 67.5674 62.0014L67.0115 62.964L66.5535 63.7581C66.527 63.8064 66.5134 63.8607 66.5141 63.9158C66.5147 63.9709 66.5295 64.0249 66.5571 64.0727C66.5846 64.1204 66.624 64.1602 66.6714 64.1882C66.7189 64.2163 66.7727 64.2317 66.8278 64.2329H67.2818V67.1206C67.2801 67.2349 67.3197 67.346 67.3934 67.4334C67.4671 67.5208 67.5699 67.5787 67.6829 67.5962C67.7482 67.6049 67.8146 67.5996 67.8777 67.5805C67.9408 67.5615 67.9991 67.5292 68.0488 67.4859C68.0984 67.4425 68.1382 67.3891 68.1656 67.3292C68.193 67.2692 68.2072 67.2041 68.2075 67.1382V64.2321H68.6615C68.7164 64.2307 68.77 64.2152 68.8172 64.1871C68.8644 64.159 68.9036 64.1193 68.9311 64.0717C68.9585 64.0242 68.9733 63.9703 68.974 63.9154C68.9747 63.8605 68.9612 63.8063 68.935 63.7581Z" fill="#DBBB9E"/>
<path d="M61.3948 77.7068H53.7746C53.243 77.7068 52.812 78.1378 52.812 78.6694V82.4394C52.812 82.971 53.243 83.402 53.7746 83.402H61.3948C61.9264 83.402 62.3573 82.971 62.3573 82.4394V78.6694C62.3573 78.1378 61.9264 77.7068 61.3948 77.7068Z" fill="white"/>
<path d="M60.5125 79.0303H53.8549V79.4314H60.5125V79.0303Z" fill="#DBBB9E"/>
<path d="M58.1061 80.1734H53.8549V80.5745H58.1061V80.1734Z" fill="#DBBB9E"/>
<path d="M58.1061 81.3165H53.8549V81.7175H58.1061V81.3165Z" fill="#DBBB9E"/>
<path opacity="0.4" d="M62.3494 82.5623C62.3197 82.7945 62.2065 83.008 62.0308 83.1627C61.8551 83.3174 61.629 83.4028 61.3949 83.4029H53.7746C53.6385 83.4035 53.5037 83.3752 53.3793 83.3199C53.2548 83.2646 53.1435 83.1835 53.0527 83.082C55.3548 83.0379 58.6468 82.912 62.3494 82.5623Z" fill="#DBBB9E"/>
<path d="M52.9726 59.9376C52.9526 59.7475 52.9158 59.5596 52.8627 59.3761C52.8184 59.2224 52.7627 59.0722 52.6958 58.9269C52.4367 58.3603 52.0212 57.8794 51.4982 57.5408C50.9703 57.1971 50.354 57.0137 49.7239 57.013H49.6838V57.5745H49.7239C50.359 57.574 50.9737 57.7978 51.4597 58.2066C51.5692 58.2985 51.6714 58.3988 51.7654 58.5066C52.1932 58.9977 52.4286 59.6272 52.4279 60.2785C52.4279 60.3274 52.4279 60.3771 52.4239 60.4253C52.4135 60.6229 52.3812 60.8187 52.3277 61.0092C52.2011 61.4579 51.9607 61.8663 51.6298 62.1947C51.5753 62.2493 51.5183 62.3022 51.4589 62.3552C50.9729 62.7639 50.3582 62.9878 49.7231 62.9873H49.6838V63.5536H49.7239C50.3383 63.555 50.9404 63.3814 51.4597 63.053C51.8796 62.788 52.2342 62.4315 52.4969 62.0103C52.6138 61.8239 52.7113 61.6261 52.7881 61.4199C52.8444 61.2698 52.8892 61.1156 52.922 60.9587C52.9614 60.772 52.9848 60.5822 52.9918 60.3916C52.9918 60.3547 52.9918 60.317 52.9918 60.2793C52.9914 60.1651 52.985 60.051 52.9726 59.9376Z" fill="#FCE0C3"/>
<path d="M54.8255 59.9598C54.2744 59.9595 53.7333 59.8131 53.2573 59.5354C52.9446 59.3532 52.5987 59.2349 52.2399 59.1874C51.8811 59.1399 51.5164 59.1641 51.167 59.2587L49.7833 59.6269L49.6838 59.2587L51.0675 58.8905C51.4652 58.7839 51.8801 58.7573 52.2881 58.8124C52.6961 58.8675 53.0891 59.0031 53.4442 59.2114C54.0586 59.57 54.7884 59.6756 55.4792 59.5057L57.0522 59.1223L57.1412 59.4873L55.5682 59.8707C55.3251 59.9298 55.0757 59.9597 54.8255 59.9598Z" fill="#CC6E4E"/>
<path d="M54.8255 60.6401C54.2744 60.6399 53.7333 60.4934 53.2573 60.2158C52.9447 60.0329 52.5988 59.914 52.2398 59.8659C51.8808 59.8179 51.5159 59.8416 51.1662 59.9358L49.7825 60.3016L49.6838 59.9414L51.0675 59.5733C51.4652 59.4666 51.8801 59.4401 52.2881 59.4952C52.6961 59.5502 53.0891 59.6858 53.4442 59.8941C54.0586 60.2528 54.7884 60.3583 55.4792 60.1885L57.0522 59.8051L57.1412 60.17L55.5682 60.5535C55.325 60.6118 55.0756 60.6409 54.8255 60.6401Z" fill="#CC6E4E"/>
<path d="M54.8255 61.3203C54.2744 61.3201 53.7333 61.1737 53.2573 60.896C52.9447 60.7131 52.5988 60.5942 52.2398 60.5462C51.8809 60.4981 51.5159 60.5219 51.1662 60.616L49.7825 60.9842L49.6838 60.6225L51.0675 60.2543C51.4652 60.1477 51.8801 60.1211 52.2881 60.1762C52.6961 60.2313 53.0891 60.3669 53.4442 60.5751C54.0601 60.9322 54.7909 61.0355 55.4816 60.8631L57.0546 60.4797L57.1436 60.8447L55.5707 61.2281C55.3268 61.2885 55.0767 61.3194 54.8255 61.3203Z" fill="#CC6E4E"/>
<path d="M54.8255 62.0006C54.2744 62.0004 53.7333 61.854 53.2573 61.5763C52.9447 61.3934 52.5988 61.2745 52.2398 61.2265C51.8808 61.1784 51.5159 61.2022 51.1662 61.2964L49.7825 61.6653L49.6838 61.3012L51.0675 60.933C51.4652 60.8264 51.8801 60.7998 52.2881 60.8549C52.6961 60.91 53.0891 61.0456 53.4442 61.2538C54.0586 61.6125 54.7884 61.7181 55.4792 61.5482L57.0522 61.1648L57.1412 61.5298L55.5682 61.9132C55.325 61.9718 55.0757 62.0011 54.8255 62.0006Z" fill="#CC6E4E"/>
<path d="M70.954 78.5307L68.5557 73.718L81.644 67.191L84.0423 72.0038L70.954 78.5307ZM68.8781 73.8294L71.0615 78.2083L83.7191 71.8963L81.5357 67.5207L68.8781 73.8294Z" fill="#EF473F"/>
</g>
<path opacity="0.5" d="M24.3568 78.2019C24.3325 78.1649 21.8772 74.4274 20.9241 69.1445C20.3645 66.0407 20.4237 63.0184 21.1018 60.1611C21.9481 56.5897 23.7697 53.2691 26.5128 50.2902L26.5911 50.3621C23.8597 53.3241 22.0486 56.6321 21.2055 60.1854C20.5316 63.0279 20.4724 66.0365 21.0299 69.1254C21.9819 74.3872 24.4224 78.1067 24.4468 78.1437L24.3568 78.2019Z" fill="#9FA1D1"/>
<path opacity="0.5" d="M23.4047 78.2019C23.3804 78.1649 20.9251 74.4274 19.9719 69.1445C19.4123 66.0407 19.4716 63.0184 20.1497 60.1611C20.9959 56.5897 22.8176 53.2691 25.5606 50.2902L25.6389 50.3621C22.9075 53.3241 21.0964 56.6321 20.2533 60.1854C19.5795 63.0279 19.5202 66.0365 20.0777 69.1254C21.0298 74.3872 23.4703 78.1067 23.4946 78.1437L23.4047 78.2019Z" fill="#9FA1D1"/>
<path opacity="0.5" d="M25.2033 46.5389L25.0975 46.5146C25.1081 46.4712 26.1617 42.1255 29.3692 37.821C31.2532 35.2928 33.5023 33.2722 36.0517 31.8156C39.239 29.995 42.9077 29.0567 46.9572 29.027V29.1328C42.9278 29.1624 39.2761 30.0965 36.1057 31.9065C33.5668 33.3548 31.3315 35.3657 29.4559 37.8813C26.2612 42.1678 25.2107 46.4955 25.2033 46.5389Z" fill="#9FA1D1"/>
<path opacity="0.5" d="M26.2609 47.5967L26.1552 47.5724C26.1657 47.529 27.2194 43.1833 30.4268 38.8789C32.3109 36.3506 34.5599 34.3301 37.1093 32.8734C40.2967 31.0528 43.9653 30.1145 48.0148 30.0849V30.1907C43.9854 30.2203 40.3337 31.1544 37.1633 32.9644C34.6244 34.4126 32.3891 36.4236 30.5135 38.9392C27.3188 43.2257 26.2683 47.5534 26.2609 47.5967Z" fill="#9FA1D1"/>
<path d="M26.4177 48.7733H24.6711V80.4954H26.4177V48.7733Z" fill="#ECF3F2"/>
<path d="M28.165 48.7733H26.4185V80.4954H28.165V48.7733Z" fill="#0033C7"/>
<path d="M50.6163 31.0478L49.4873 29.5131L23.9347 48.3109L25.0637 49.8455L50.6163 31.0478Z" fill="#ECF3F2"/>
<path d="M51.626 32.6553L50.502 31.1121L24.807 49.8282L25.9311 51.3714L51.626 32.6553Z" fill="#0033C7"/>
<path d="M43.1636 25.0147L45.1483 22.0151C46.2038 20.4198 47.8498 19.3091 49.7242 18.9274C51.5986 18.5457 53.5479 18.9243 55.1432 19.9798L64.5399 26.197C64.9272 26.4532 65.1968 26.8527 65.2894 27.3077C65.3821 27.7627 65.2902 28.2359 65.034 28.6231L57.0218 40.7327C56.7656 41.12 56.3661 41.3896 55.9111 41.4822C55.4561 41.5749 54.9829 41.483 54.5957 41.2268L45.1989 35.0096C43.6036 33.9541 42.493 32.3081 42.1113 30.4337C41.7296 28.5593 42.1081 26.61 43.1636 25.0147Z" fill="url(#paint0_linear)"/>
<path d="M26.6841 77.6402C27.7502 77.6402 28.7727 78.0637 29.5265 78.8176C30.2804 79.5715 30.7039 80.5939 30.7039 81.6601V81.9774H22.6642V81.6601C22.6642 80.5939 23.0877 79.5715 23.8416 78.8176C24.5955 78.0637 25.6179 77.6402 26.6841 77.6402Z" fill="url(#paint1_linear)"/>
<path d="M20.1257 82H33.2432C34.3374 82 35.3867 82.4347 36.1604 83.2084C36.9342 83.9821 37.3688 85.0315 37.3688 86.1257H16C16 85.0315 16.4347 83.9821 17.2084 83.2084C17.9821 82.4347 19.0315 82 20.1257 82Z" fill="url(#paint2_linear)"/>
<path opacity="0.25" d="M31.669 83.0353H17.2535C18.0225 82.2877 19.0532 81.8701 20.1256 81.8716H32.5481V81.8822C32.5854 82.0175 32.591 82.1596 32.5643 82.2975C32.5377 82.4353 32.4795 82.5651 32.3944 82.6767C32.3093 82.7883 32.1996 82.8788 32.0737 82.941C31.9479 83.0032 31.8094 83.0354 31.669 83.0353Z" fill="white"/>
<defs>
<linearGradient id="paint0_linear" x1="4521.27" y1="3418.93" x2="8501.01" y2="3418.93" gradientUnits="userSpaceOnUse">
<stop stop-color="#81A6FF"/>
<stop offset="0.38" stop-color="#C6EBFD"/>
</linearGradient>
<linearGradient id="paint1_linear" x1="553.288" y1="2842.59" x2="1164.31" y2="2842.59" gradientUnits="userSpaceOnUse">
<stop stop-color="#81A6FF"/>
<stop offset="0.38" stop-color="#C6EBFD"/>
</linearGradient>
<linearGradient id="paint2_linear" x1="80.1065" y1="2872.97" x2="4396.61" y2="2872.97" gradientUnits="userSpaceOnUse">
<stop stop-color="#81A6FF"/>
<stop offset="0.38" stop-color="#C6EBFD"/>
</linearGradient>
<clipPath id="clip0">
<rect width="130" height="66.3351" fill="white" transform="translate(3 29.5)"/>
</clipPath>
</defs>
</svg>
