<svg viewBox="0 0 185 121" fill="none" xmlns="http://www.w3.org/2000/svg">
<path fill-rule="evenodd" clip-rule="evenodd" d="M97.8871 0.0516373C125.919 0.811237 149.313 11.917 166.029 25.7059C181.922 38.8168 187.708 54.8064 183.842 70.9578C179.474 89.2129 171.058 109.398 144.039 117.59C116.807 125.846 85.4482 117.589 58.5375 108.948C33.1035 100.781 9.97571 89.2501 2.78969 72.2345C-4.63153 54.6619 3.11515 35.9263 21.7315 21.7957C40.2278 7.75629 68.4434 -0.746233 97.8871 0.0516373Z" fill="#F0EFFF"/>
<path opacity="0.5" d="M58.7442 49.7661H54.218C51.8217 49.7661 49.8914 47.8358 49.8914 45.4395C49.8914 43.0432 51.8217 41.1129 54.218 41.1129H58.7442C61.1405 41.1129 63.0709 43.0432 63.0709 45.4395C63.0709 47.8191 61.1405 49.7661 58.7442 49.7661Z" fill="#825D7E"/>
<path d="M78.4471 40.6803H59.8593C57.463 40.6803 55.5327 38.75 55.5327 36.3537C55.5327 33.9574 57.463 32.0271 59.8593 32.0271H78.4471C80.8433 32.0271 82.7737 33.9574 82.7737 36.3537C82.7737 38.75 80.8433 40.6803 78.4471 40.6803Z" fill="#684463"/>
<path opacity="0.56" d="M162.317 84.2459H33.1175C31.9194 84.2459 30.9542 83.2807 30.9542 82.0826C30.9542 80.8844 31.9194 79.9193 33.1175 79.9193H162.3C163.498 79.9193 164.463 80.8844 164.463 82.0826C164.48 83.2807 163.498 84.2459 162.317 84.2459Z" fill="#2D4659"/>
<path d="M90.3452 65.2753H87.0171V81.9161H90.3452V65.2753Z" fill="#253228"/>
<path d="M92.3421 65.2753H90.3452V81.9161H92.3421V65.2753Z" fill="#496D52"/>
<path d="M108.983 65.2753H105.655V81.9161H108.983V65.2753Z" fill="#253228"/>
<path d="M110.98 65.2753H108.983V81.9161H110.98V65.2753Z" fill="#496D52"/>
<path d="M122.961 65.2753H119.633V81.9161H122.961V65.2753Z" fill="#253228"/>
<path d="M124.958 65.2753H122.961V81.9161H124.958V65.2753Z" fill="#496D52"/>
<path d="M135.675 68.6035H133.678V81.9161H135.675V68.6035Z" fill="#253228"/>
<path d="M137.006 68.6035H135.675V81.9161H137.006V68.6035Z" fill="#496D52"/>
<path d="M148.305 68.6035H146.308V81.9161H148.305V68.6035Z" fill="#253228"/>
<path d="M149.636 68.6035H148.305V81.9161H149.636V68.6035Z" fill="#496D52"/>
<path d="M149.636 68.6035H148.305V69.2691H149.636V68.6035Z" fill="#55845F"/>
<path d="M148.305 68.6035H146.308V69.2691H148.305V68.6035Z" fill="#496D52"/>
<path d="M143.213 49.9658H141.216V81.9161H143.213V49.9658Z" fill="#253228"/>
<path d="M144.544 49.9658H143.213V81.9161H144.544V49.9658Z" fill="#496D52"/>
<path d="M155.86 49.9658H153.863V81.9161H155.86V49.9658Z" fill="#253228"/>
<path d="M157.191 49.9658H155.86V81.9161H157.191V49.9658Z" fill="#496D52"/>
<path d="M86.2516 56.6221H82.3243V28H86.2516C86.8007 28 87.25 28.4493 87.25 28.9984V55.6237C87.25 56.1728 86.8174 56.6221 86.2516 56.6221Z" fill="#EF6562"/>
<path d="M85.0034 56.6221H44.3999C43.8508 56.6221 43.4015 56.1728 43.4015 55.6237V28.9984C43.4015 28.4493 43.8508 28 44.3999 28H85.0034C85.5526 28 86.0019 28.4493 86.0019 28.9984V55.6237C86.0019 56.1728 85.5526 56.6221 85.0034 56.6221Z" fill="#EC958B"/>
<path d="M83.9949 54.6149V29.9865L45.3883 29.9865L45.3883 54.6149L83.9949 54.6149Z" fill="#34515B"/>
<path d="M45.8876 54.6149L45.8876 29.9865H45.3883L45.3883 54.6149H45.8876Z" fill="#D84E4E"/>
<path d="M84.005 29.9802H83.3727V54.6086H84.005V29.9802Z" fill="#284249"/>
<path d="M68.163 56.6221H65.1344V81.9161H68.163V56.6221Z" fill="#D84E4E"/>
<path d="M66.8982 56.6221H63.8696V81.9161H66.8982V56.6221Z" fill="#EF6562"/>
<path d="M66.8982 56.6221H63.8696V57.8536H66.8982V56.6221Z" fill="#D84E4E"/>
<path d="M77.1824 81.9162H56.7642V79.9193C56.7642 78.821 57.6628 77.9224 58.7611 77.9224H75.1855C76.2838 77.9224 77.1824 78.821 77.1824 79.9193V81.9162Z" fill="#EF6562"/>
<path d="M75.3352 81.9162H54.917V79.9193C54.917 78.821 55.8156 77.9224 56.9139 77.9224H73.3383C74.4366 77.9224 75.3352 78.821 75.3352 79.9193V81.9162Z" fill="#EC958B"/>
<path d="M108.983 62.0969H87.0171V65.2753H108.983V62.0969Z" fill="#253228"/>
<path d="M124.958 62.0969H108.983V65.2753H124.958V62.0969Z" fill="#496D52"/>
<path d="M107.319 59.8837H85.8522V62.097H107.319V59.8837Z" fill="#9FD6A3"/>
<path d="M108.983 62.0969H87.0171V62.7626H108.983V62.0969Z" fill="#496D52"/>
<path d="M126.556 59.8837H107.319V62.097H126.556V59.8837Z" fill="#83B78D"/>
<path d="M148.705 65.941H132.729V68.6035H148.705V65.941Z" fill="#81B58C"/>
<path d="M158.023 65.941H148.704V68.6035H158.023V65.941Z" fill="#496D52"/>
<path d="M153.863 51.5966H143.213V57.5873H153.863V51.5966Z" fill="#81B58C"/>
<path d="M157.191 68.6035H155.86V69.2691H157.191V68.6035Z" fill="#55845F"/>
<path d="M155.86 68.6035H153.863V69.2691H155.86V68.6035Z" fill="#496D52"/>
<path d="M143.213 68.6035H141.216V69.2691H143.213V68.6035Z" fill="#496D52"/>
<path d="M135.675 68.6035H133.678V69.2691H135.675V68.6035Z" fill="#496D52"/>
<path d="M137.006 68.6035H135.675V69.2691H137.006V68.6035Z" fill="#55845F"/>
<path d="M144.544 68.6035H143.213V69.2691H144.544V68.6035Z" fill="#55845F"/>
<path d="M124.958 62.0969H108.983V62.7626H124.958V62.0969Z" fill="#577F5D"/>
<path d="M115.143 40.9582L113.593 41.1669L115.476 55.1527L117.026 54.944L115.143 40.9582Z" fill="#DD5858"/>
<path d="M115.289 41.3316L113.541 41.5669L114.036 45.2448L115.785 45.0095L115.289 41.3316Z" fill="#EF6562"/>
<path d="M113.579 41.8777L113.249 41.9221L113.28 42.153L113.61 42.1086L113.579 41.8777Z" fill="#E8E8E8"/>
<path d="M113.726 44.774L113.626 44.7907L113.277 42.1781L113.51 42.1448L113.842 44.6243C113.859 44.6742 113.809 44.7574 113.726 44.774Z" fill="#E8E8E8"/>
<path d="M115.69 45.0061L114.14 45.2148L114.164 45.3962L115.715 45.1875L115.69 45.0061Z" fill="#D35050"/>
<path d="M111.645 45.3231L110.298 45.7391L109.682 43.7588C109.599 43.4926 109.748 43.2097 110.015 43.1265L110.414 43.01C110.68 42.9268 110.963 43.0766 111.046 43.3428L111.645 45.3231Z" fill="#E8E8E8"/>
<path d="M111.979 45.2206L109.977 45.8467L111.061 49.309L113.062 48.6829L111.979 45.2206Z" fill="#35393D"/>
<path d="M110.863 48.8345L112.494 46.7877L112.144 45.6894L110.514 47.7362L110.863 48.8345Z" fill="#808284"/>
<path d="M112.961 48.6965L111.15 49.2629L113.332 56.2351L115.142 55.6687L112.961 48.6965Z" fill="#3B4044"/>
<path opacity="0.66" d="M112.06 48.9844L111.456 49.1732L113.637 56.1454L114.241 55.9566L112.06 48.9844Z" fill="#6D6F70"/>
<path d="M119.999 42.7101L119.35 42.6103L118.535 44.0747L120.365 44.3409L119.999 42.7101Z" fill="#C5E1DF"/>
<path d="M117.919 56.2558L117.436 56.1893C117.07 56.1393 116.821 55.7899 116.87 55.4238L118.551 44.0748L120.365 44.341L118.684 55.69C118.634 56.0561 118.285 56.3224 117.919 56.2558Z" fill="#B3DBAD"/>
<path d="M117.237 56.156L117.103 56.1393C116.92 56.106 116.787 55.9396 116.804 55.7399L118.535 44.0581L119 44.1247L117.237 56.156Z" fill="#68A575"/>
<path d="M118.235 56.3057L118.102 56.2891L119.882 44.2744L120.348 44.341L118.618 56.0228C118.601 56.2059 118.435 56.339 118.235 56.3057Z" fill="#68A575"/>
<path d="M119.999 42.7102L119.849 42.0446C119.832 41.9447 119.716 41.9281 119.666 42.0113L119.333 42.6103L119.999 42.7102Z" fill="#6F5A66"/>
<path d="M119.999 42.7102L119.683 42.6603L119.882 44.2744L120.365 44.341L119.999 42.7102Z" fill="#A5CECA"/>
<path d="M119.999 59.8837H110.68V50.2986C110.68 50.1156 110.83 49.9658 111.013 49.9658H119.666C119.849 49.9658 119.999 50.1156 119.999 50.2986V59.8837Z" fill="#F2E07C"/>
<path d="M118.668 49.9658V59.8837H119.999V50.2986C119.999 50.1156 119.849 49.9658 119.666 49.9658H118.668Z" fill="#DFBB4D"/>
<path d="M113.592 54.9247H108.417V59.8837H113.592V54.9247Z" fill="#6E7EE0"/>
<path d="M108.983 54.9247H108.417V59.8837H108.983V54.9247Z" fill="#7A8CE2"/>
<path d="M112.836 59.8708H113.585V54.9119H112.836V59.8708Z" fill="#6373C1"/>
<path d="M113.589 59.8708H114.055V54.9119H113.589V59.8708Z" fill="#DFBB4D"/>
<path d="M96.8684 55.9731H92.9745V59.8671H96.8684V55.9731Z" fill="#EC958B"/>
<path d="M96.8684 55.9731H92.9745V56.1562H96.8684V55.9731Z" fill="#EF6562"/>
<path d="M98.9319 55.9731H96.8684V59.8671H98.9319V55.9731Z" fill="#EF6562"/>
<path d="M95.3373 58.4859H94.6883L94.5885 58.8021H94.239L94.8214 57.1713H95.2042L95.7866 58.8021H95.4371L95.3373 58.4859ZM95.0045 57.554L94.7715 58.2363H95.2375L95.0045 57.554Z" fill="white"/>
<path d="M102.393 55.9731H98.4993V59.8671H102.393V55.9731Z" fill="#E8B58B"/>
<path d="M104.457 55.9731H102.393V59.8671H104.457V55.9731Z" fill="#E09D6C"/>
<path d="M100.463 57.1713C100.862 57.1713 101.045 57.4042 101.045 57.6705C101.045 57.8702 100.929 58.0699 100.679 58.1364L101.062 58.8021H100.679L100.313 58.1697H100.163V58.8021H99.8304V57.1713H100.463ZM100.463 57.4375H100.197V57.9201H100.463C100.646 57.9201 100.729 57.8203 100.729 57.6705C100.712 57.5374 100.629 57.4375 100.463 57.4375Z" fill="white"/>
<path d="M95.8366 52.0792H91.9426V55.9732H95.8366V52.0792Z" fill="#1BB1B2"/>
<path d="M97.9001 52.0792H95.8367V55.9732H97.9001V52.0792Z" fill="#19A5A1"/>
<path d="M94.4223 53.2773H94.7717L94.1726 54.9081H93.7733L93.1742 53.2773H93.5236L93.9729 54.5753L94.4223 53.2773Z" fill="white"/>
<path d="M45.6647 80.8844C43.5846 82.3987 40.6725 81.9494 39.1582 79.8693C37.6438 77.7892 38.0931 74.8771 40.1732 73.3628L45.6647 80.8844Z" fill="#EF6562"/>
<path d="M40.1733 73.3627C42.2534 71.8484 45.1656 72.2977 46.6799 74.3778C48.1942 76.4579 47.7449 79.3701 45.6648 80.8844L40.1733 73.3627Z" fill="#F2E07C"/>
<path opacity="0.25" d="M43.6178 72.5141C45.3818 73.1797 46.6298 74.8771 46.6298 76.874C46.6298 79.4533 44.5497 81.5334 41.9704 81.5334C41.7374 81.5334 41.5045 81.5168 41.2715 81.4835C41.7873 81.6832 42.3365 81.783 42.9189 81.783C45.4982 81.783 47.5783 79.7029 47.5783 77.1236C47.5783 74.7772 45.8643 72.8469 43.6178 72.5141Z" fill="#A59A63"/>
<path d="M60.9243 44.125C61.0241 43.9419 61.1073 43.7589 61.1905 43.5758C61.2737 43.3928 61.357 43.1931 61.4235 42.9934C61.5733 42.6107 61.7064 42.2113 61.8229 41.8119C61.8562 41.712 61.8895 41.6122 61.9061 41.5124L61.9893 41.2128C62.0392 41.0131 62.0891 40.8134 62.1224 40.5971C62.1724 40.3974 62.2056 40.1811 62.2389 39.9814C62.2722 39.7817 62.2888 39.5654 62.3221 39.3657L62.3388 39.2326L62.422 39.166C62.5052 39.0828 62.6383 38.9996 62.7881 38.9996C62.9378 38.983 63.0543 39.0329 63.1375 39.0828C63.3039 39.1827 63.4204 39.2825 63.5036 39.399C63.6867 39.6153 63.8198 39.8316 63.9529 40.0646C64.2025 40.5139 64.4022 40.9632 64.6019 41.4292C64.785 41.8951 64.968 42.361 65.1178 42.827C65.2675 43.2929 65.4173 43.7755 65.5171 44.2747C65.5338 44.3579 65.4839 44.4411 65.4007 44.4578C65.3175 44.4744 65.2343 44.4245 65.2176 44.3413C65.0845 43.8754 64.9181 43.426 64.735 42.9601C64.552 42.5108 64.3523 42.0615 64.1526 41.6288C63.9363 41.1962 63.7199 40.7635 63.4537 40.3641C63.3206 40.1645 63.1874 39.9814 63.0377 39.8316C62.9711 39.7651 62.8879 39.6985 62.838 39.6819C62.8213 39.6652 62.8047 39.6819 62.838 39.6819C62.8546 39.6819 62.8879 39.6652 62.8713 39.6652L62.9711 39.4655C62.9378 39.6819 62.9212 39.8982 62.8879 40.1145C62.8546 40.3309 62.8213 40.5472 62.7714 40.7635C62.7381 40.9799 62.6716 41.1962 62.6217 41.3959L62.5384 41.712C62.5052 41.8119 62.4885 41.9284 62.4552 42.0282C62.3388 42.4442 62.189 42.8603 62.0392 43.2596C61.956 43.4593 61.8728 43.659 61.7896 43.8587C61.7064 44.0584 61.6066 44.2581 61.5067 44.4578C61.4235 44.6242 61.2238 44.6908 61.0574 44.5909C60.891 44.4911 60.8411 44.2914 60.9243 44.125Z" fill="#D1D1D1"/>
<path d="M61.174 41.9617L65.3342 41.529C65.4839 41.5123 65.6171 41.6288 65.6337 41.7786C65.6504 41.9284 65.5505 42.0615 65.4007 42.0781L61.2405 42.6273C61.0575 42.6439 60.8911 42.5274 60.8745 42.3444C60.8578 42.1613 60.9909 41.9949 61.174 41.9617Z" fill="#D1D1D1"/>
<path d="M153.264 53.4105H151.433C151.151 53.4105 150.934 53.1942 150.934 52.9113C150.934 52.6284 151.151 52.412 151.433 52.412H153.264C153.547 52.412 153.763 52.6284 153.763 52.9113C153.763 53.1775 153.547 53.4105 153.264 53.4105Z" fill="#253228"/>
<path d="M151.949 54.958H149.953C149.67 54.958 149.453 54.7417 149.453 54.4588C149.453 54.1759 149.67 53.9596 149.953 53.9596H151.949C152.232 53.9596 152.449 54.1759 152.449 54.4588C152.449 54.7251 152.232 54.958 151.949 54.958Z" fill="#253228"/>
<path opacity="0.74" d="M150.369 56.7885H144.378C144.095 56.7885 143.879 56.5722 143.879 56.2893C143.879 56.0064 144.095 55.7901 144.378 55.7901H150.369C150.651 55.7901 150.868 56.0064 150.868 56.2893C150.868 56.5722 150.651 56.7885 150.369 56.7885Z" fill="#253228"/>
<path opacity="0.23" d="M61.357 79.9192H57.5296C57.2467 79.9192 57.0304 79.7029 57.0304 79.42C57.0304 79.1371 57.2467 78.9208 57.5296 78.9208H61.357C61.6399 78.9208 61.8562 79.1371 61.8562 79.42C61.8562 79.6863 61.6399 79.9192 61.357 79.9192Z" fill="#EF6562"/>
<path opacity="0.23" d="M65.1344 79.9192H64.0195C63.7366 79.9192 63.5203 79.7029 63.5203 79.42C63.5203 79.1371 63.7366 78.9208 64.0195 78.9208H65.1344C65.4173 78.9208 65.6336 79.1371 65.6336 79.42C65.6336 79.6863 65.4173 79.9192 65.1344 79.9192Z" fill="#EF6562"/>
<path opacity="0.23" d="M73.4216 81.1673H68.9619C68.679 81.1673 68.4626 80.9509 68.4626 80.668C68.4626 80.3852 68.679 80.1688 68.9619 80.1688H73.4216C73.7045 80.1688 73.9208 80.3852 73.9208 80.668C73.9208 80.9343 73.7045 81.1673 73.4216 81.1673Z" fill="#EF6562"/>
<path opacity="0.23" d="M71.6243 81.1673H70.759C70.4761 81.1673 70.2598 80.9509 70.2598 80.668C70.2598 80.3852 70.4761 80.1688 70.759 80.1688H71.6243C71.9072 80.1688 72.1235 80.3852 72.1235 80.668C72.1235 80.9343 71.9072 81.1673 71.6243 81.1673Z" fill="#EF6562"/>
<path d="M147.207 54.958H146.342C146.059 54.958 145.842 54.7417 145.842 54.4588C145.842 54.1759 146.059 53.9596 146.342 53.9596H147.207C147.49 53.9596 147.706 54.1759 147.706 54.4588C147.706 54.7251 147.49 54.958 147.207 54.958Z" fill="#253228"/>
<path d="M148.721 53.4105H144.561C144.278 53.4105 144.062 53.1942 144.062 52.9113C144.062 52.6284 144.278 52.412 144.561 52.412H148.721C149.004 52.412 149.22 52.6284 149.22 52.9113C149.22 53.1775 149.004 53.4105 148.721 53.4105Z" fill="#253228"/>
<path opacity="0.18" d="M93.0743 63.6779H89.613C89.4632 63.6779 89.3301 63.5614 89.3301 63.395C89.3301 63.2452 89.4466 63.1121 89.613 63.1121H93.0743C93.224 63.1121 93.3571 63.2285 93.3571 63.395C93.3405 63.5614 93.224 63.6779 93.0743 63.6779Z" fill="#496D52"/>
<path opacity="0.18" d="M95.7201 63.6779H94.1392C93.9895 63.6779 93.8563 63.5614 93.8563 63.395C93.8563 63.2452 93.9728 63.1121 94.1392 63.1121H95.7201C95.8699 63.1121 96.003 63.2285 96.003 63.395C95.9863 63.5614 95.8699 63.6779 95.7201 63.6779Z" fill="#496D52"/>
<path opacity="0.18" d="M97.8669 64.6429H94.4555C94.3057 64.6429 94.1726 64.5265 94.1726 64.36C94.1726 64.2103 94.2891 64.0771 94.4555 64.0771H97.8669C98.0166 64.0771 98.1498 64.1936 98.1498 64.36C98.1331 64.5098 98.0166 64.6429 97.8669 64.6429Z" fill="#496D52"/>
<path opacity="0.18" d="M103.941 64.6429H102.926C102.776 64.6429 102.643 64.5265 102.643 64.36C102.643 64.2103 102.759 64.0771 102.926 64.0771H103.941C104.09 64.0771 104.224 64.1936 104.224 64.36C104.207 64.5098 104.09 64.6429 103.941 64.6429Z" fill="#496D52"/>
<path opacity="0.18" d="M104.956 63.8442H103.941C103.791 63.8442 103.658 63.7277 103.658 63.5613C103.658 63.4116 103.774 63.2784 103.941 63.2784H104.956C105.106 63.2784 105.239 63.3949 105.239 63.5613C105.239 63.7111 105.122 63.8442 104.956 63.8442Z" fill="#496D52"/>
<path opacity="0.26" d="M115.623 64.6429H111.712C111.562 64.6429 111.429 64.5265 111.429 64.36C111.429 64.2103 111.546 64.0771 111.712 64.0771H115.623C115.772 64.0771 115.906 64.1936 115.906 64.36C115.889 64.5098 115.772 64.6429 115.623 64.6429Z" fill="#253228"/>
<path opacity="0.26" d="M121.197 64.6429H120.182C120.032 64.6429 119.899 64.5265 119.899 64.36C119.899 64.2103 120.016 64.0771 120.182 64.0771H121.197C121.347 64.0771 121.48 64.1936 121.48 64.36C121.463 64.5098 121.347 64.6429 121.197 64.6429Z" fill="#253228"/>
<path opacity="0.26" d="M116.687 63.6945H114.491C114.341 63.6945 114.208 63.578 114.208 63.4116C114.208 63.2619 114.324 63.1287 114.491 63.1287H116.687C116.837 63.1287 116.97 63.2452 116.97 63.4116C116.97 63.578 116.854 63.6945 116.687 63.6945Z" fill="#253228"/>
</svg>
