<svg width="2692" height="473" viewBox="0 0 2692 473" fill="none" xmlns="http://www.w3.org/2000/svg">
<path d="M2691.96 303.755C2691.63 303.795 2690.97 303.88 2690.65 303.92C2690.4 304.291 2690.19 304.666 2690.01 305.044C2689.66 305.115 2688.97 305.249 2688.62 305.317C2687.98 304.764 2687.73 303.771 2686.36 303.809C2683.36 303.758 2680.43 304.45 2677.43 304.106C2677.88 301.57 2678.63 298.944 2674.13 299.077C2669.54 299.088 2664.94 298.987 2660.39 299.331C2658.04 299.56 2655.68 298.895 2653.38 299.371C2650.47 299.911 2647.41 299.726 2644.44 299.763C2642.36 299.709 2640.72 300.796 2638.62 300.587C2637.17 300.435 2636.14 301.15 2634.98 301.518C2634.96 302.267 2634.86 303.023 2635.08 303.776C2635.6 304.447 2636.41 305.058 2636.66 305.814C2633.75 305.848 2630.82 305.706 2628.01 306.179C2628.18 306.948 2628.65 307.68 2629.22 308.383C2628.08 309.57 2627.14 309.3 2629.96 310.755C2628.82 310.829 2627.69 310.85 2626.6 310.786C2627.85 311.43 2629.04 312.135 2630.46 312.679C2629.69 312.992 2628.91 313.29 2628.18 313.597C2628.88 314.043 2629.63 314.491 2630.37 314.951C2629.8 315.136 2629.28 315.328 2628.78 315.528C2630 316.5 2628.53 317.684 2629.59 318.683C2629.21 319.004 2628.82 319.321 2628.48 319.642C2629.09 320.02 2629.72 320.401 2630.38 320.783C2629.83 321.106 2629.28 321.427 2628.8 321.755C2629.34 322.122 2629.93 322.48 2630.55 322.848C2629.96 323.098 2629.31 323.334 2628.8 323.584C2629.21 324.148 2630.04 324.499 2630.98 324.755C2630.19 325.038 2629.43 325.332 2628.71 325.629C2629.15 326.112 2629.61 326.602 2630.06 327.108C2629.26 327.03 2628.53 326.949 2627.8 326.864C2628.39 327.37 2628.94 327.897 2629.53 328.427C2631.13 328.612 2632.74 328.838 2634.34 329.105C2634.13 329.408 2633.96 329.719 2633.83 330.036C2632.76 329.5 2631.45 329.344 2630.13 329.422C2629.94 329.851 2629.78 330.283 2629.65 330.718C2629.65 330.718 2597.78 330.488 2591.46 330.772C2592.19 329.739 2591.46 328.801 2590.14 328.116C2589.65 328.111 2574.78 328.073 2574.09 328.163C2574.36 328.997 2574.69 329.824 2575.01 330.661C2573.89 330.131 2573.09 328.927 2571.41 329.233C2568.93 329.587 2566.46 328.93 2563.97 329.118C2551.18 329.851 2549.98 328.81 2546.94 330.664C2546.94 330.664 2534.08 330.72 2528.73 330.58C2525.88 330.708 2523.05 331.255 2520.19 330.931C2517.63 330.671 2514.97 331.032 2512.51 330.499C2510.08 330.011 2510.45 330.702 2496.92 330.81C2477.64 330.796 2482.87 331.109 2477.75 329.73C2477.82 329.085 2477.87 328.44 2477.96 327.803C2476.06 327.215 2473.92 327.549 2471.92 327.421C2471.04 326.78 2471.32 325.882 2471.15 325.126C2467.72 324.202 2464.12 325.251 2460.59 325.096C2458.06 325.234 2455.67 324.758 2453.26 324.454C2451.01 324.61 2448.84 325.092 2446.58 325.17C2444.71 325.17 2443.44 326.139 2441.67 326.337C2441.69 326.675 2442.38 341.366 2442.18 341.774C2442.51 342.105 2443.17 342.412 2443.01 342.864C2441.81 349.292 2441.86 347.643 2434.81 346.763C2435.53 346.982 2436.27 347.188 2437.05 347.401C2436.15 348.268 2434.87 349.922 2432.9 348.899C2432.22 349.055 2431.53 349.21 2430.91 349.375C2430.21 349.146 2429.53 348.926 2428.88 348.707C2429.85 345.541 2428.94 345.175 2428.7 334.59C2427.62 334.465 2426.58 334.152 2425.51 334.28C2422.14 334.685 2418.69 334.496 2415.31 334.523C2413.01 334.621 2411.53 333.44 2410.03 332.61C2407.91 332.424 2405.05 332.079 2403.87 333.474C2401.43 333.558 2398.97 333.433 2396.55 333.561C2395.9 333.885 2395.84 334.415 2395.59 334.861C2392.66 334.871 2389.73 334.81 2386.83 334.932C2387.18 335.962 2387.99 342.501 2387.45 344.024C2378.75 342.151 2385.32 344.489 2375.62 344.672C2374.66 344.615 2373.44 344.814 2372.92 344.206C2372.2 340.193 2370.75 294.304 2370.05 292.334C2350.46 292.185 2360.79 292.023 2353.24 291.45C2350.18 291.807 2347.12 292.236 2344 292.29C2343.19 292.081 2343.25 291.44 2342.93 291.042C2341.48 290.934 2340.04 290.708 2338.6 290.883C2334.98 291.188 2317.1 291.067 2316.54 291.096C2316.56 291.527 2316.59 291.956 2316.66 292.398C2315.81 292.314 2314.93 292.24 2314.28 291.909C2312.03 290.748 2309.26 292.125 2306.85 292.29C2306.29 292.288 2294.96 293.852 2289.57 293.711C2287.5 296.562 2292.39 324.831 2291.75 341.89C2290.55 342.036 2289.37 342.191 2288.19 342.289C2283.93 336.441 2286 290.141 2282.64 285.722C2276.73 285.527 2270.81 285.601 2264.9 285.577C2262.81 285.466 2261.12 286.475 2259.02 286.282C2259.05 285.688 2259.08 285.095 2259 284.507C2260.76 284.19 2262.67 284.278 2264.43 283.883C2263.13 278.833 2264.78 277.68 2262.47 276.134C2260.5 276.404 2258.48 276.522 2256.48 276.462C2256.46 276.09 2256.47 275.723 2256.52 275.358C2257.07 275.345 2257.65 275.335 2258.25 275.328C2256 273.715 2256.3 274.664 2256.55 271.859C2255.46 271.245 2254.9 270.438 2254.4 269.625C2253.18 268.919 2252.06 269.854 2251.26 270.337C2248.93 270.566 2247.14 269.21 2244.83 269.334C2243.34 269.186 2242.18 269.824 2240.89 270.094C2239.76 269.908 2238.86 269.23 2237.64 269.409C2234.56 269.75 2231.55 270.499 2228.38 270.276C2226.21 270.087 2224.78 271.353 2223.01 271.866C2222.96 273.54 2222.83 275.214 2222.69 276.888C2220.37 277.026 2218.14 277.448 2215.86 277.63C2215.4 279.5 2216.02 281.376 2216 283.253C2216.11 283.789 2215.75 284.704 2217.04 284.802C2218.51 284.933 2220.03 284.95 2221.48 285.248C2221.19 285.474 2220.93 285.703 2220.69 285.933C2221.05 286.148 2221.45 286.368 2221.88 286.594C2221.29 286.938 2220.8 287.333 2220.14 287.597C2218.89 287.556 2217.78 287.165 2216.59 287.06C2214.23 286.801 2211.78 286.807 2209.55 286.264C2208.46 285.889 2207.32 286.355 2206.24 286.426C2204.9 286.456 2203.6 286.379 2202.31 286.406C2203.59 286.595 2205.36 286.267 2206.29 287.01C2200.35 286.693 2194.47 287.432 2188.54 287.476C2186.47 287.453 2184.53 287.837 2182.69 288.33C2182.85 287.726 2183.36 287.206 2184.15 286.814C2182.21 287.294 2180.09 287.395 2178.07 287.641C2178 287.952 2177.96 288.265 2177.95 288.579C2176.93 288.428 2175.92 288.256 2174.96 288.084C2173.22 289.521 2170.14 289.103 2167.71 289.687C2167.79 290.81 2168.39 291.972 2167.84 293.082C2166.8 293.685 2165.44 294.016 2164.21 294.411C2164.24 295.501 2165.43 296.854 2163.74 297.705C2162.25 298.431 2160.32 298.862 2158.4 298.747C2158.38 297.434 2158.68 295.98 2157.09 294.93C2157.43 294.499 2157.79 294.073 2158.18 293.648C2157.42 293.202 2156.63 292.784 2155.85 292.379C2156.14 292.092 2156.47 291.812 2156.81 291.535C2156.4 291.137 2156.02 290.742 2155.66 290.347C2156.93 289.186 2155.47 287.83 2156.41 286.601C2154.24 285.19 2151 285.673 2148.21 285.852C2148.18 285.201 2148.19 284.552 2148.25 283.912C2145.4 282.424 2141.38 283.21 2138.16 283.726C2137.8 283.241 2137.48 282.754 2137.19 282.275C2134.69 282.352 2132.18 282.518 2129.72 282.204C2128.14 241.254 2126.81 243.661 2128.6 241.763C2125.77 241.16 2096.93 237.445 2093.93 237.656C2089.6 243.177 2086.56 256.1 2085.33 257.642C2078.63 301.425 2092.46 287.844 2070.98 292.031C2070.98 293.341 2070.96 294.654 2070.93 295.966C2068.95 296.236 2066.94 296.415 2065.06 296.857C2065.16 297.365 2065.87 321.31 2065.89 321.392C2064.36 321.375 2062.87 321.284 2061.44 321.025C2061.79 320.596 2062.2 320.181 2062.61 319.766C2062.04 319.404 2061.48 319.067 2061.04 318.668C2061.21 318.202 2062.07 317.99 2062.6 317.66C2061.97 317.214 2061.35 316.769 2060.78 316.316C2061.16 315.949 2061.59 315.587 2062.04 315.229C2061.42 314.787 2060.83 314.345 2060.27 313.9C2060.83 313.576 2061.42 313.265 2062.04 312.958C2061.41 312.519 2060.82 312.078 2060.26 311.632C2060.66 311.271 2061.12 310.916 2061.58 310.562C2061.11 310.201 2060.65 309.847 2060.24 309.495C2060.59 309.054 2061 308.625 2061.42 308.2C2061.03 307.856 2060.61 307.528 2060.37 307.153C2060.46 306.617 2061.15 306.232 2061.61 305.797C2060.94 305.435 2060.28 305.081 2059.66 304.727C2060.23 304.376 2060.83 304.035 2061.47 303.701C2060.89 303.272 2060.32 302.854 2059.77 302.435C2060.24 302.034 2060.75 301.642 2061.26 301.244C2060.71 300.856 2060.16 300.468 2059.66 300.083C2060.16 299.702 2060.7 299.334 2061.26 298.966C2060.69 298.582 2060.12 298.204 2059.6 297.825C2060.05 297.454 2060.53 297.09 2061.03 296.725C2060.4 296.276 2059.77 295.831 2059.18 295.386C2059.77 295.038 2060.38 294.697 2061.02 294.356C2060.36 294.012 2059.71 293.674 2059.1 293.334C2059.47 292.871 2059.89 292.422 2060.32 291.977C2060.08 291.548 2059.85 291.123 2059.66 290.701C2059.93 290.378 2060.25 290.063 2060.57 289.746C2060.07 289.301 2059.61 288.849 2059.2 288.39C2059.68 288.066 2060.22 287.752 2060.74 287.428C2060.17 287.02 2059.6 286.611 2059.08 286.202C2059.77 286.023 2060.5 285.854 2061.25 285.689C2060.67 284.917 2059.72 284.299 2058.6 283.823C2059.2 283.505 2059.83 283.202 2060.49 282.902C2059.84 282.443 2059.2 281.994 2058.59 281.542C2059.17 281.218 2059.78 280.904 2060.41 280.59C2058.62 278.438 2059.34 280.648 2060.27 276.8C2059.67 276.898 2059.09 277 2058.53 277.104C2059.79 276.223 2060.88 275.123 2062.98 274.971C2063.13 274.758 2063.31 274.549 2063.52 274.343C2061.64 274.188 2060.41 273.351 2059.38 272.484C2059.74 272.139 2060.27 271.832 2060.46 271.421C2060.14 270.867 2059.06 270.614 2058.82 270.064C2059.27 269.686 2059.84 269.372 2060.42 269.045C2059.88 268.701 2059.29 268.383 2058.9 267.996C2058.81 267.382 2060.08 267.287 2060.7 266.939C2059.96 266.328 2058.97 265.869 2058.04 265.397C2058.81 265.066 2059.62 264.742 2060.42 264.401C2059.74 264.03 2059.08 263.662 2058.46 263.291C2058.97 262.862 2059.76 262.508 2059.94 261.951C2059.5 261.485 2058.8 261.151 2058.22 260.78C2058.72 260.324 2059.31 259.906 2059.96 259.511C2059.35 259.045 2058.71 258.606 2058.06 258.184C2058.58 257.766 2059.14 257.358 2059.71 256.95C2059.16 256.575 2058.49 256.254 2058.18 255.805C2058.06 255.174 2058.8 254.644 2059.18 254.084C2057.76 253.902 2056.32 253.797 2054.91 253.713C2055.18 251.931 2054.16 249.95 2055.88 248.354C2049.3 247.463 2051.14 246.758 2046.71 247.176C2045.36 248.128 2043.19 247.733 2041.4 247.79C2040.92 246.841 2040.85 245.846 2040.51 244.891C2038.81 244.088 2036.58 244.904 2034.72 244.999C2032.97 244.699 2031.69 243.838 2030.05 243.416C2028.93 243.382 2027.86 243.578 2026.8 243.709C2025.35 243.706 2025.27 244.833 2024.07 245.097C2023.51 245.248 2016.92 248.317 2010.54 247.172C2003.64 247.091 1996.53 246.744 1989.9 248.131C1989.91 249.126 1989.93 250.126 1989.93 251.124C1990.97 251.178 1992.18 251.02 1993.1 251.468C1986.39 251.835 1985.08 250.116 1982.76 252.582C1983.07 254.452 1983.42 256.581 1981.41 258.174C1980.77 258.677 1980.42 259.429 1979.28 259.565C1978.04 259.804 1976.7 260.168 1976.2 260.948C1976.42 262.98 1976.67 265.042 1976.21 267.07C1975.55 267.63 1974.68 268.093 1974.03 268.653C1974.41 269.014 1974.85 269.379 1975.3 269.743C1973.94 270.959 1974.1 272.426 1974.1 273.827C1974.95 274.036 1975.8 274.249 1976.67 274.489C1975.93 274.765 1975.19 275.035 1974.48 275.319C1974.43 276.706 1974.18 278.107 1974.68 279.483C1970.67 279.645 1966.62 279.784 1962.62 279.537C1962.78 277.664 1963.08 270.57 1960.79 268.822C1959.84 266.733 1960.6 264.516 1960.22 262.383C1959.53 261.519 1957.85 261.293 1956.45 261.178C1955.9 260.304 1956 259.366 1956.21 258.461C1956.58 256.932 1955.82 255.427 1955.74 253.905C1954.48 253.703 1953.22 253.534 1951.97 253.409C1951.88 250.986 1952.14 248.553 1951.25 246.17C1950.1 245.971 1948.97 245.779 1947.85 245.593C1947.87 245.097 1947.91 244.601 1947.98 244.108C1945.95 243.649 1943.85 243.123 1941.66 243.288C1937.33 243.543 1928.4 243.004 1924.8 244.553C1924.24 245.137 1923.88 245.785 1923.25 246.342C1921.14 247.199 1918.9 246.055 1916.8 245.772C1916.94 245.302 1917.09 244.837 1917.27 244.374C1914.29 243.608 1910.9 243.946 1907.75 243.713C1905.88 243.497 1904.1 243.959 1902.28 244.01C1900.24 243.159 1897.77 242.775 1895.86 241.806C1896.12 241.641 1896.64 241.306 1896.9 241.141C1896.32 240.77 1895.74 240.402 1895.18 240.041C1895.51 238.579 1894.83 237.122 1894.89 235.657C1894.97 235.023 1894.19 234.371 1893.12 234.358C1891.74 234.257 1890.54 233.869 1889.35 233.491C1889.27 231.949 1889.36 230.403 1889.3 228.864C1888.88 225.276 1885.64 226.513 1884.87 226.555C1883.58 226.848 1882.24 226.701 1880.95 226.538C1877.35 226.056 1873.6 226.113 1869.96 226.335C1867.97 227.159 1865.51 226.683 1863.32 226.994C1862.57 227.953 1862.23 229.049 1860.43 229.498C1860.11 229.252 1859.83 229.005 1859.58 228.756C1858.83 224.318 1859.21 219.849 1859.16 215.395C1854.18 214.245 1841.29 214.557 1836.43 213.262C1831.19 211.895 1824.83 212.338 1820.04 214.109C1812.2 219.175 1813.84 220.282 1813.22 223.768C1812.58 224.696 1811.65 225.54 1810.89 226.431C1812.42 226.444 1814.01 226.569 1815.05 227.335C1811.07 228.648 1806.89 229.9 1802.42 230.406C1800.96 232.556 1797.76 233.967 1794.68 235.216C1795.47 235.891 1794.79 236.616 1794.35 237.288C1793.64 236.822 1793.06 236.313 1792.57 235.776C1790 235.969 1787.43 236.212 1784.84 236.114C1783.09 236.006 1782.37 237.305 1780.75 237.468C1779.27 237.647 1777.98 238.132 1776.69 238.568C1774.69 238.686 1772.96 237.863 1771.07 237.623C1770.91 238.231 1770.78 238.842 1770.66 239.456C1767.23 238.632 1764.92 236.749 1761.74 235.672C1760.89 235.497 1760.01 235.682 1759.19 235.696C1758.5 242.064 1760.11 251.528 1759.41 255.817C1759.03 256.148 1758.3 256.094 1757.76 256.174C1757.45 255.725 1757.17 255.287 1756.89 254.848C1754.67 255.466 1752.43 256.036 1750.23 256.667C1749.84 258.189 1750.16 259.718 1750.49 261.23C1749.16 262.712 1749.78 264.419 1750.14 266.002C1747.18 266.842 1743.81 266.839 1740.7 267.385C1740.02 266.279 1739.21 265.195 1738.81 264.038C1740.41 263.997 1742.02 263.987 1743.64 263.943C1743.19 262.937 1741.03 263.123 1739.72 262.87C1739.31 262.465 1738.91 262.074 1738.52 261.685C1739.18 261.301 1739.85 260.916 1740.54 260.531C1740.02 260.123 1739.5 259.718 1739 259.316C1739.98 258.644 1740.02 257.784 1739.67 256.957C1741.24 256.936 1742.84 256.892 1744.37 256.589C1743.36 255.597 1741.09 255.779 1739.49 255.408C1741.07 253.119 1741.1 253.929 1739.46 252.111C1740.17 251.783 1740.89 251.46 1741.61 251.132C1741.69 250.272 1741.79 249.367 1741.04 248.598C1739.23 247.73 1737.85 246.478 1735.47 246.171C1733.95 241.761 1734.01 248.519 1734.96 237.477C1733.13 237.116 1731.35 236.694 1729.58 236.252C1724.81 238.155 1724.28 236.604 1718.31 237.247C1713 236.593 1714.35 237.392 1699.19 237.22C1698.98 237.051 1698.77 236.896 1698.58 236.748C1696.22 236.907 1693.84 236.953 1691.48 236.92C1691.76 234.328 1690.67 231.605 1692.3 229.124C1693.26 227.666 1691.29 226.32 1691.44 224.861C1691.66 217.609 1690.78 219.248 1690.32 208.649C1686.83 208.621 1683.34 208.652 1679.85 208.645C1679.93 208.477 1680.06 208.136 1680.13 207.967C1678.9 207.957 1677.67 207.95 1676.47 207.947C1676.13 207.539 1675.82 207.134 1675.53 206.729C1675.25 206.695 1674.7 206.628 1674.43 206.593C1675.37 206.026 1675.44 205.26 1674.25 204.795C1673.52 205.237 1673.02 205.983 1671.83 205.952C1669.77 206.334 1667.59 205.476 1665.73 206.33C1665.41 205.931 1664.29 184.665 1664.54 182.088C1664.14 181.849 1663.76 181.612 1663.41 181.376C1662.67 181.582 1661.93 181.787 1661.22 181.99C1660.65 180.053 1661.43 178.058 1660.64 176.151C1656.7 176.013 1659.75 179.029 1658.81 183.181C1658.45 184.754 1659.38 186.289 1659.29 187.862C1659.9 194.716 1659.26 193.118 1659.6 204.513C1658.87 204.564 1658.17 204.618 1657.49 204.672C1657.27 205.216 1657.12 205.772 1656.75 206.285C1655.36 206.427 1655.76 205.371 1655.42 204.872C1649.11 205.548 1652.84 206.758 1645.55 204.8C1644.4 205.688 1643.72 206.724 1643.47 207.838C1640.05 209.942 1637.38 206.586 1629.75 208.644C1630.36 208.87 1631.01 209.096 1631.68 209.322C1630.89 209.913 1630.16 210.53 1629.65 211.215C1629.08 211.287 1628.53 211.361 1628.01 211.435C1626.94 214.516 1630.27 212.626 1627.77 215.161C1628.13 216.418 1628.21 224.527 1628.44 225.471C1629.86 230.18 1627.22 234.966 1630.39 235.919C1628.95 237.448 1629.52 239.382 1630.29 241.002C1624.46 241.675 1629.83 240.37 1622.24 243.134C1622.13 243.553 1622.04 243.975 1621.97 244.396C1593.78 244.752 1609.03 244.104 1597.24 243.968C1596.71 243.502 1596.19 243.026 1595.69 242.56C1594.82 243.137 1593.94 243.762 1592.61 243.927C1591.65 247.252 1593.22 250.579 1592.73 253.91C1592.57 255.223 1591.62 256.499 1592.13 257.832C1591.64 258.153 1591.16 258.483 1590.72 258.821C1591.3 259.32 1591.88 259.843 1592.37 260.393C1591.69 260.636 1591.04 260.889 1590.41 261.156C1591.16 261.523 1591.95 261.892 1592.71 262.28C1592.11 262.698 1591.52 263.113 1590.95 263.532C1591.47 263.926 1592 264.335 1592.51 264.753C1591.09 264.902 1589.59 265.01 1588.44 265.559C1585.47 266.594 1589.04 275.187 1586.39 282.022C1584.8 282.173 1583.19 282.255 1581.62 282.376C1581.65 283.888 1582.95 310.471 1582.44 313.188C1581.8 313.394 1581.19 313.6 1580.58 313.806C1580.49 314.366 1580.37 314.926 1580.22 315.483C1578.34 315.301 1576.45 315.274 1574.57 315.237C1573.86 312.57 1573.75 296.054 1573.71 295.717C1572.09 295.417 1570.41 295.322 1568.74 295.302C1568.18 294.826 1567.56 294.391 1566.9 293.986C1568.2 293.054 1567.35 291.995 1566.99 290.972C1566.99 290.969 1565.94 283.462 1566.97 280.189C1565.69 279.565 1564.35 278.65 1562.55 278.934C1560.93 279.13 1559.43 278.614 1557.88 278.513C1556.88 278.631 1556.02 278.985 1555.03 279.043C1532.3 279.351 1548.11 280.431 1536.58 278.864C1536.97 278.654 1537.38 278.448 1537.82 278.246C1536.23 277.213 1536.81 275.729 1536.64 274.452L1535.94 235.47C1535.91 234.154 1535.03 232.891 1535.31 231.565C1534.73 230.33 1535.69 229.112 1535.11 227.873C1535.34 227.05 1535.46 226.219 1534.51 225.538C1534.85 225.511 1535.51 225.464 1535.84 225.437C1534.63 222.923 1535.75 220.304 1534.96 217.766C1534.56 216.22 1535.94 214.429 1534 213.133C1534.49 212.961 1534.99 212.789 1535.51 212.62C1535.03 212.276 1534.57 211.938 1534.11 211.604C1536.11 209.859 1533.75 207.797 1534.89 205.961C1533.05 204.184 1534.14 204.578 1535.03 203.504C1534.51 203.244 1534.02 202.991 1533.53 202.745C1533.76 202.282 1533.99 201.82 1534.23 201.361C1533.57 201.28 1532.93 201.202 1532.31 201.132C1531.8 200.491 1531.3 199.853 1530.85 199.205C1532.4 198.739 1533.96 198.277 1535.49 197.777C1535.5 197.561 1535.5 197.129 1535.51 196.913C1531.17 196.333 1526.71 196.502 1522.31 196.41C1521.31 196.043 1520.17 195.54 1519.03 196.008C1516.72 196.805 1514.01 196.346 1511.52 196.555C1508.73 196.957 1505.94 196.281 1503.13 196.514C1503.45 196.869 1503.8 197.217 1504.18 197.567C1502.06 197.363 1501.26 196.61 1496.99 198.09C1496.34 198.529 1495.8 199.025 1495.24 199.501C1497.57 200.075 1500.06 200.095 1502.51 199.842C1502.5 200.254 1502.49 200.665 1502.51 201.084C1500.39 201.074 1499.42 202.241 1498.18 203.065C1499.08 203.159 1500 203.22 1500.94 203.274C1500.14 203.622 1499.37 203.976 1498.62 204.344C1498.47 205.721 1498.69 207.118 1498.24 208.482C1498.67 208.681 1499.13 208.887 1499.6 209.096C1499.12 209.814 1498.57 210.513 1497.99 211.201C1498.68 211.327 1499.38 211.461 1500.11 211.607C1499.49 211.86 1498.89 212.116 1498.3 212.376C1498.7 212.525 1499.13 212.673 1499.58 212.825C1498.95 213.092 1498.65 213.493 1498.43 213.912C1498.93 213.976 1499.94 214.111 1500.44 214.178C1499.82 214.678 1499.19 215.167 1498.58 215.667C1499.17 216.166 1499.79 216.655 1500.44 217.142C1499.83 217.594 1499.21 218.036 1498.57 218.465C1499.1 218.853 1499.66 219.244 1500.22 219.639C1499.61 220.014 1499 220.375 1498.52 220.804C1498.78 221.651 1500.57 221.283 1501.6 221.496C1501 222.43 1498.59 222.322 1498.42 223.423C1499.66 223.473 1500.92 223.507 1502.19 223.578C1501.09 224.104 1499.88 224.523 1498.75 225.016C1498.07 225.768 1499.93 226.153 1500.6 226.605C1500.3 227.145 1499.71 227.574 1498.98 227.921C1499.27 228.04 1499.83 228.276 1500.12 228.394C1499.73 228.917 1499.31 229.43 1498.79 229.909C1500.02 230.959 1498.61 232.309 1499.9 233.338C1499.68 233.716 1499.24 234.084 1499.35 234.503C1499.71 234.895 1500.56 235.147 1500.68 235.616C1500.37 236.025 1499.91 236.379 1499.51 236.747C1499.77 237.145 1500.04 237.54 1500.32 237.945C1499.95 238.306 1499.61 238.674 1499.29 239.042C1499.66 239.393 1500.07 239.748 1500.48 240.102C1500.12 240.52 1499.78 240.943 1499.47 241.374C1500.3 242.205 1500.08 243.146 1499.69 244.04C1500.04 244.297 1500.42 244.556 1500.82 244.82C1500.32 245.181 1499.84 245.542 1499.38 245.91C1499.76 246.396 1500.18 246.879 1500.61 247.365C1500.18 247.614 1499.78 247.867 1499.4 248.124C1499.99 248.978 1500.02 249.896 1499.68 250.797C1500.46 250.969 1501.23 251.138 1502.05 251.323C1501.29 251.88 1500.44 252.383 1499.61 252.886C1500.39 253.233 1501.18 253.581 1501.98 253.942C1501.3 254.29 1500.61 254.624 1499.94 254.965C1499.98 255.137 1500.06 255.485 1500.09 255.657C1500.88 255.775 1501.68 255.886 1502.5 256.008C1501.73 256.541 1499.66 256.892 1500.35 257.753C1501.03 257.989 1502.28 257.884 1502.47 258.485C1501.73 258.88 1500.92 259.224 1500.15 259.585C1500.71 259.919 1501.3 260.26 1501.89 260.601C1500.65 261.458 1501.49 262.541 1501.17 263.533C1500.75 264.482 1501.69 265.403 1501.28 266.361C1501.5 267.613 1500.41 268.994 1501.89 270.074C1501.4 270.448 1500.92 270.823 1500.46 271.204C1501.79 272.012 1502.7 271.496 1500.52 273.671C1500.97 274.009 1501.44 274.353 1501.92 274.701C1501.54 275.035 1500.72 275.335 1500.99 275.804C1501.28 277.471 1501.86 279.182 1501.21 280.839C1501.58 288.07 1501.24 291.335 1501.24 291.335C1500 291.304 1498.66 291.406 1497.67 290.893C1496.34 290.245 1494.57 289.955 1493.59 289.081C1494.18 288.767 1494.8 288.463 1495.42 288.157C1494.7 287.667 1493.66 287.377 1493.05 286.857C1492.64 286.057 1492.71 285.217 1492.75 284.397C1491.97 284.164 1491.19 283.948 1490.42 283.749C1490.5 282.982 1490.35 282.217 1490.24 281.46C1490.95 281.359 1491.73 281.271 1492.48 281.167C1491.75 281.096 1491.03 281.029 1490.34 280.968C1490.31 279.965 1490.33 277.457 1488.84 277.34C1485.78 276.904 1482.79 276.283 1479.63 276.203C1479.35 274.318 1477.85 228.128 1477.85 228.128C1478.01 226.765 1478.11 225.323 1477 224.085C1475.6 223.633 1473.77 223.906 1472.28 223.531C1472.74 222.981 1473.19 222.425 1473.61 221.857C1475.52 221.533 1477.53 221.344 1479.27 220.723C1477.09 219.212 1467.59 220.444 1462.07 218.891C1458.99 218.439 1447.82 219.428 1442.68 220.899C1442.69 221.098 1442.71 221.496 1442.72 221.695C1444.4 221.988 1446.36 222.282 1447.08 223.376C1445.65 223.689 1443.93 223.906 1443.04 224.709C1443.56 224.776 1444.59 224.908 1445.1 224.972C1444.25 225.428 1443.35 225.843 1442.45 226.255C1442.89 226.798 1443.65 227.193 1444.48 227.541C1443.67 227.541 1442.89 227.548 1442.12 227.554C1443.18 228.915 1443.46 233.63 1443.39 234.114C1443.86 234.31 1444.35 234.509 1444.85 234.712C1444.1 235.06 1443.35 235.41 1442.64 235.764C1443.07 236.571 1444.04 237.162 1445.32 237.503C1444.56 237.874 1443.79 238.249 1443.08 238.64C1443.59 239.058 1444.16 239.473 1444.73 239.885C1444.38 240.246 1444.05 240.611 1443.76 240.985C1444.16 241.447 1444.56 241.92 1444.98 242.396C1444.51 242.753 1444.08 243.115 1443.65 243.479C1444.46 243.718 1445.28 243.979 1446.09 244.245C1445.24 244.677 1444.39 245.109 1443.65 245.602C1444.05 245.673 1444.85 245.818 1445.25 245.892C1444.68 247.06 1444.53 248.271 1444.6 249.486C1444.26 250.296 1443.94 251.136 1444.85 251.869C1444.47 252.274 1444.09 252.679 1443.75 253.098C1444.67 253.435 1445.63 253.766 1446.66 254.019C1445.92 254.191 1445.18 254.363 1444.47 254.559C1445.04 255.608 1445.17 256.783 1443.8 257.637C1444.29 258.038 1444.82 258.44 1445.37 258.842C1444.61 259.314 1443.86 259.796 1443.13 260.276C1443.6 260.687 1444.1 261.102 1444.65 261.494C1444.45 261.619 1444.04 261.872 1443.83 261.997C1445.05 265.717 1444.22 283.052 1444.27 284.44C1441.17 284.403 1438.07 284.437 1435.02 284.727C1434.87 285.894 1434.88 287.072 1435.16 288.233C1434.5 288.267 1433.86 288.305 1433.23 288.345C1433.53 289.171 1433.73 290.012 1433.78 290.866C1432.81 290.927 1431.86 290.987 1430.94 291.051C1431.28 292.962 1429.92 294.787 1430.25 296.697C1430.97 298.044 1429.82 299.465 1431.02 300.768C1429.8 300.994 1428 301.47 1427.13 300.663C1426.34 297.071 1427.42 289.964 1426.98 280.285C1426.12 279.769 1424.81 279.695 1423.75 279.408C1423.7 278.267 1423.71 277.123 1423.62 275.986C1420.98 277.691 1422.49 278.162 1423.04 279.546C1418.73 280.181 1403.57 279.541 1381.25 279.88C1375.92 279.684 1379.45 288.391 1378.15 297.254C1375.96 297.713 1373.65 297.878 1371.43 298.239C1371.91 298.729 1372.42 299.222 1372.91 299.728C1371.81 299.846 1370.74 300.058 1369.63 299.997C1367.09 299.721 1364.77 300.682 1362.23 300.618C1358.78 300.544 1355.33 300.456 1351.89 300.375C1352.46 293.727 1351.02 277.245 1351.54 273.889C1351.28 273.741 1350.75 273.44 1350.49 273.292C1350.45 274.112 1350.44 274.936 1350.42 275.759C1350.16 275.766 1349.64 275.776 1349.39 275.783C1349.01 266.24 1350.28 269.75 1347.74 266.289C1349 266.599 1350.28 266.9 1351.61 267.112C1350.63 266.067 1349.08 266.241 1350.47 261.655C1349.74 261.598 1349.04 261.547 1348.34 261.507C1347.74 259.833 1347.63 258.129 1347.58 256.424C1343 255.512 1346.4 255.15 1335.94 254.862V255.537C1338.14 255.604 1340.74 255.226 1342.44 256.317C1337.9 256.698 1333.25 256.303 1328.76 256.86C1328.15 256.631 1327.71 256.121 1326.93 256.185C1321.3 256.262 1322.89 256.599 1322.67 261.264C1322.03 261.808 1320.71 261.855 1319.8 262.152C1319.42 263.647 1318.68 265.304 1320.17 266.674C1319.51 266.695 1318.86 266.718 1318.24 266.745C1316.3 268.112 1316.85 269.985 1316.96 271.639C1317.53 271.882 1318.13 272.129 1318.73 272.375C1317.71 272.868 1317.27 273.6 1316.86 274.319C1317.49 274.583 1318.14 274.849 1318.8 275.119C1318.18 275.494 1317.57 275.865 1316.97 276.24C1316.81 281.405 1317.57 299.104 1317.47 306.499C1309.3 306.563 1301.12 306.438 1292.96 306.553C1292.84 315.311 1293.38 324.058 1293.38 332.819C1291.72 332.826 1290.08 332.66 1288.43 332.617C1286.43 332.718 1284.43 332.836 1282.42 332.812C1280.94 331.806 1281.51 330.537 1281.75 329.349C1281.67 329.012 1278.98 272.154 1280.74 269.112C1281.78 267.408 1279.77 265.737 1280.04 264.002C1279.86 262.922 1280.57 261.65 1279.3 260.745C1278.34 260.036 1277.32 259.362 1276.47 258.609C1276.15 258.602 1275.52 258.585 1275.2 258.578C1274.97 260.178 1274.49 261.767 1273.88 263.333C1272.45 263.313 1271.03 263.306 1269.62 263.303C1269.15 262.915 1268.7 262.526 1268.26 262.146C1267.91 262.189 1267.19 262.281 1266.84 262.328C1266.73 262.581 1266.52 263.087 1266.41 263.344C1264.3 263.067 1262.15 263.087 1260.04 263.347C1259.7 262.932 1259.39 262.52 1259.1 262.105C1258.07 262.166 1257.05 262.233 1256.06 262.311C1254.98 261.511 1255.16 260.499 1255.69 259.597C1255.15 259.59 1254.63 259.587 1254.12 259.587C1254.32 260.272 1254.7 261.031 1253.8 261.608C1250.7 263.812 1251.84 263.002 1244.43 263.35C1243.7 262.813 1242.89 262.304 1241.72 262.196C1241.6 262.496 1241.37 263.1 1241.25 263.404C1239.99 263.259 1238.85 262.911 1237.64 262.719C1236.6 262.986 1235.67 263.37 1234.71 263.721C1234.5 264.596 1234.9 280.257 1234.92 280.599C1233.16 280.66 1231.49 279.755 1229.81 280.245C1227.31 280.849 1224.37 280.913 1221.92 280.211C1219.13 281.085 1213.94 281.208 1211.64 280.204C1210.73 280.599 1209.66 280.858 1208.53 280.771C1206.33 280.66 1203.82 280.991 1201.98 280.096C1201.39 280.37 1200.85 280.751 1200.05 280.71C1197.9 280.757 1195.73 280.858 1193.6 280.707C1192.92 280.471 1192.4 280.126 1191.84 279.829C1191.71 280.052 1191.45 280.501 1191.33 280.724C1187.43 280.862 1183.52 280.839 1179.63 280.832C1179.31 280.258 1179.47 279.414 1178.34 279.178C1174.73 281.53 1177.68 291.238 1177.07 300.693C1175.65 300.716 1174.24 300.729 1172.84 300.686C1172.37 300.942 1171.91 301.206 1171.47 301.469C1170.04 301.441 1168.62 301.428 1167.21 301.408C1166.56 298.535 1166.88 255.814 1165.67 251.162C1165.97 249.607 1165.77 248.041 1165.97 246.481C1153.21 246.238 1138.53 246.808 1135.34 246.056C1133.31 245.732 1131.35 245.222 1129.27 245.097C1128.51 245.421 1128.82 245.975 1128.85 246.444C1125.79 246.441 1122.72 246.406 1119.66 246.471C1119.59 247.342 1119.58 248.216 1119.57 249.093C1119.81 249.229 1120.29 249.495 1120.53 249.63C1117.16 250.789 1119.54 253.93 1117.51 257.595C1117.84 258.626 1119.1 323.583 1118.29 325.071C1118.57 327.302 1118.67 329.543 1118.41 331.78C1078.03 332.118 1094.04 330.749 1080.57 333.937C1080.49 334.467 1080.42 335 1080.37 335.54C1077.94 335.797 1075.37 335.463 1073.06 336.077C1070.95 336.343 1068.77 336.256 1066.63 336.293C1066.43 335.672 1066.75 334.933 1066.12 334.406C1065.22 334.157 1064.22 334.14 1063.28 334.025C1062.72 327.258 1064.14 316.505 1062.01 306.26C1061.6 305.847 1053.87 298.366 1052.71 298.805C1049.73 300.796 1047.79 303.287 1044.84 305.278C1042.05 291.204 1032.28 161.775 1033.1 153.038C1037.44 152.933 1041.96 152.761 1045.89 151.543C1049.1 149.286 1048.05 147.5 1044.44 145.512C1045.75 144.516 1047.41 143.716 1048.9 142.816C1048.06 140.308 1049.76 137.882 1050.11 135.408C1049.54 135.134 1048.82 131.557 1046.83 130.777C1045.63 130.234 1044.28 129.833 1043.03 129.346C1042.13 128.391 1043.04 126.997 1041.3 126.326C1039.84 125.283 1037.42 125.736 1035.47 125.485C1031.39 123.899 1033.11 121.021 1032.8 116.363C1028.55 116.26 1029.65 115.417 1029.63 90.8562C1029.42 72.9121 1028.18 79.7525 1032.33 72.8671C1032.45 72.6696 1029.3 70.2323 1028.91 70.0266C1026.27 68.3758 1028.05 70.0443 1027.75 62.1494C1028.18 60.1717 1027.46 58.2042 1027.32 56.2309C1027.19 54.318 1027.47 52.3904 1027.47 50.4724L1026.12 33.6711C1025.04 28.1323 1024.14 36.7053 1023.93 17.5879C1023.78 2.9034 1024.73 -0.316155 1020.8 0.0235148C1020.15 3.11736 1021.08 27.6828 1021.11 28.0224C1019.12 31.6744 1018.44 30.3601 1018.65 37.205C1018.67 37.8227 1016.14 54.5891 1017.84 59.2092C1018.18 60.2726 1017.79 68.1879 1017.67 69.2628C1017.08 70.7103 1013.67 71.2976 1014.17 72.9687C1013.87 74.5953 1016.59 75.726 1016.36 77.3456C1016.34 81.6217 1015.42 113.528 1016.61 116.173C1008.52 117.568 1015.32 120.352 1013.81 125.498C1011.03 125.859 1008.19 126.109 1005.49 126.625C1003.18 127.61 1004.4 129.588 1003.29 130.935C1001.88 131.873 999.77 132.21 998.183 132.994C997.295 135.012 997.261 137.158 997.937 139.207C998.423 140.658 997.657 142.355 999.306 143.604C999.898 144.208 1001.25 144.697 1000.87 145.5C999.476 148.086 997.059 150.345 1006.99 153.027C1009.18 153.209 1011.41 153.128 1013.62 153.266C1013.98 155.607 1013.74 169.62 1013.85 191.425C1013.95 193.136 1012.73 194.756 1012.98 196.474C1013.64 209.115 1010.45 222.019 1011.89 233.27C1012.22 236.19 1010.51 235.727 1010.46 240.698C1010.65 264.449 1009.11 241.743 1009.36 265.335C1009.29 273.03 1008.03 262.775 1008.26 282.547C1008.41 284.491 1006.8 286.33 1007.26 288.28C1007.72 290.417 1006.8 292.556 1007.27 294.693C1007.54 295.814 1007.36 296.961 1006.7 298.024C1005.3 300.138 1006.36 305.845 1005.9 309.565C1003.82 315.858 1005.59 313.927 1005.14 320.368C1005.05 321.86 1003.58 323.2 1003.74 324.715C1003.45 328.398 1005.62 331.036 996.31 330.067C995.218 323.423 996.926 301.902 995.852 299.197C995.293 298.222 993.476 297.699 992.967 296.724C992.783 295.563 992.9 294.399 992.917 293.238C991.771 293.042 990.636 292.843 989.518 292.634C989.206 287.579 991.185 284.008 983.235 284.312C979.648 284.44 973.664 283.458 973.246 287.72C968.211 287.757 963.146 287.559 958.138 287.805C955.572 288.547 955.953 290.309 955.958 291.74C953.75 291.74 951.542 291.753 949.346 291.781C949.011 300.879 949.973 301.234 949.563 305.438C948.098 305.378 946.645 305.263 945.192 305.331C944.139 297.235 945.904 303.564 944.241 295.28C940.244 293.667 935.253 295.068 931.005 293.961C929.301 294.022 927.646 294.68 925.857 294.376C925.223 292.073 926.27 278.338 925.444 275.652C917.894 274.926 929.348 274.077 903.454 274.205C902.955 287.821 903.745 283.693 899.29 285.234C897.077 285.554 896.585 287.099 896.731 288.281C896.775 288.891 897.126 299.435 896.211 301.551C888.192 303.017 888.026 299.133 882.818 307.049C879.878 307.582 876.368 306.674 873.875 307.967C870.957 309.151 867.223 308.436 863.97 308.372C863.842 306.873 864.652 305.196 863.205 303.863C862.098 304.048 861.013 304.254 859.918 304.443C859.823 303.37 859.633 302.307 859.493 301.244C846.892 299.194 838.196 301.023 834.955 301.301C834.943 302.023 834.921 302.748 834.892 303.478C833.411 303.336 831.935 303.245 830.448 303.225C830.477 307.18 830.56 311.135 830.42 315.091C769.169 314.898 767.285 315.375 765.932 314.848C764.835 313.775 764.468 313.477 764.865 301.092C764.898 299.712 767.324 298.507 766.111 297.126C765.485 296.195 766.195 295.186 765.652 294.244C762.707 294.285 759.76 294.247 756.82 294.254C754.344 294.207 752.08 294.996 749.61 294.949C745.479 294.949 741.349 294.895 737.223 294.97C740.317 295.306 751.25 294.961 754.674 294.824C751.019 295.483 747.173 295.007 743.439 295.152C740.465 295.162 737.358 295.419 734.529 294.744C735.222 294.626 735.937 294.534 736.653 294.44C733.076 294.177 729.47 294.265 725.882 294.271C725.564 294.558 725.262 294.852 724.96 295.149C725.838 298.179 725.262 301.291 725.346 304.355C723.026 303.573 720.366 303.953 717.935 304.271C716.247 304.602 714.927 305.371 713.63 306.07C711.763 307.042 712.54 308.766 710.992 309.869C709.757 310.862 709.404 312.198 707.901 313.069C703.218 313.356 691.337 313.407 688.935 313.156C687.824 309.822 687.518 310.272 681.104 309.083C677.743 304.801 677.93 304.53 676.285 304.044C661.272 302.452 661.787 302.118 658.941 304.054C658.069 305.772 659.612 307.466 659.455 309.198C659.399 313.666 659.499 318.135 659.405 322.606C658.42 322.599 657.442 322.593 656.481 322.586C656.409 321.918 656.363 321.259 656.314 320.601C621.974 320.539 640.943 321.049 618.355 320.584C618.444 318.603 618.628 316.608 618.103 314.644C617.717 313.166 618.26 311.678 618.009 310.203C617.232 308.928 616.092 307.736 615.6 306.404C611.072 306.373 606.538 306.501 602.022 306.363C599.338 305.772 597.617 304.156 596.627 302.607C588.442 301.376 586.848 303.237 584.145 303.359C582.335 302.941 582.574 301.537 582.2 300.595C581.232 300.484 580.277 300.373 579.321 300.268C577.711 297.693 578.198 294.939 578.119 292.252C575.833 292.216 573.535 292.313 571.266 292.171C569.74 291.587 568.835 290.598 567.454 289.92C563.43 289.113 559.186 289.977 555.068 289.677C551.652 289.413 548.237 289.7 544.827 289.761C544.246 290.713 543.268 291.543 542.524 292.444C541.686 295.205 542.592 297.999 542.105 300.77C541.611 306.429 545.519 310.986 534.178 309.723C534.412 301.244 536.667 304.593 503.284 303.686C502.9 300.65 504.546 293.302 500.009 291.918C497.376 291.671 494.698 291.817 492.066 291.584C491.866 290.683 491.664 289.788 491.468 288.891C488.774 288.445 486.314 287.71 484.195 286.616C459.939 281.314 467.738 287.399 465.676 290.574C464.726 291.644 462.552 291.624 460.836 291.823C459.271 294.587 459.042 297.544 459.59 300.432C460.076 302.305 458.086 303.966 458.187 305.815C458.369 328.916 458.799 328.841 456.343 329.247C453.967 329.652 451.396 329.827 448.992 329.405C447.343 329.038 446.064 330.107 444.425 330.029C432.482 330.167 428.532 329.214 428.087 332.459C427.696 337.089 428.942 341.747 427.969 346.363C425.493 345.86 423.671 344.224 423.883 342.648C423.784 319.713 425.72 276.947 425.057 274.078C424.95 272.944 424.045 271.891 424.123 270.75C424.134 269.448 423.681 268.172 423.324 266.896C419.891 266.09 416.125 266.93 412.58 266.495C410.383 265.779 410.272 264.173 409.874 262.867C407.632 262.465 405.302 262.533 402.999 262.536C400.249 262.603 397.806 261.132 395.057 261.868C394.733 262.735 394.497 263.64 393.794 264.436C392.787 265.074 391.312 265.311 390.049 265.702C387.12 266.458 384.878 267.98 381.714 268.428C378.052 269.494 378.486 267.707 377.986 273.703C377.051 281.876 379.024 279.897 378.248 289.056C378.12 289.512 378.791 289.808 379.199 290.143C378 291.201 378.096 291.522 378.165 297.472C378.12 297.949 378.674 298.33 378.987 298.745C378.651 299.083 378.321 299.42 377.992 299.764C378.333 300.091 378.685 300.425 379.037 300.763C377.506 304.687 377.651 308.748 377.695 312.75C378.316 312.922 378.941 313.097 379.573 313.276C378.981 313.607 378.176 313.843 377.824 314.299C378.014 314.701 378.4 315.058 378.746 315.426C376.403 317.594 377.896 324.498 377.5 325.77C376.94 328.085 377.332 330.42 377.355 332.749C371.81 332.972 366.248 332.702 360.703 332.877C360.546 332.972 360.233 333.164 360.077 333.259C359.776 334.559 360.541 336.043 358.898 337.11C355.486 336.295 356.071 335.544 349.77 333.917C349.709 330.859 349.876 327.801 349.714 324.748C349.244 322.409 349.244 320.043 349.507 317.698C349.568 317.48 350.202 292.81 349.669 288.603C349.502 287.392 347.919 286.456 347.696 285.255C347.226 283.342 347.897 281.425 347.836 279.508C347.836 278.199 347.546 276.899 347.484 275.593C338.368 273.587 322.11 275.937 317.489 274.031C317.361 273.035 317.299 272.033 317.478 271.04C317.874 269.414 317.108 267.801 317.326 266.171C307.485 265.452 310.423 263.85 298.578 265.074C298.634 265.934 298.751 266.792 299.02 267.642C297.02 268.717 298.904 268.647 286.912 268.573C286.677 270.197 286.777 271.826 286.738 273.457C283.351 273.67 279.891 273.292 276.549 273.686C275.112 274.371 275.414 275.762 275.006 276.764C273.939 276.859 272.877 276.953 271.82 277.061C271.596 277.784 272.3 278.29 273.285 278.637C272.787 278.954 272.206 279.234 271.831 279.619C271.82 281.347 272.368 283.078 271.966 284.806C270.335 286.142 266.895 285.521 258.455 285.704C258.394 287.24 258.411 288.775 258.383 290.311C257.287 290.395 256.191 290.493 255.107 290.611C255.09 290.837 255.046 291.289 255.029 291.512C256.181 291.62 257.338 291.741 258.495 291.859C258.434 292.49 258.401 293.125 258.384 293.763C255.555 293.786 252.728 293.742 249.904 293.817C251.045 306.501 249.463 303.593 248.277 305.581C248.857 309.266 247.291 322.967 248.037 328.449C246.701 328.665 245.309 328.713 244.046 328.328C243.811 327.427 243.034 326.681 241.731 326.222C242.456 306.157 241.253 307.889 242.402 306.86C241.654 305.777 242.101 304.602 242.173 303.475C242.352 300.053 241.676 296.631 242.408 293.216C237.718 292.423 232.827 292.392 227.997 292.382C227.947 291.494 227.919 290.607 227.896 289.722C201.233 289.722 192.187 289.314 196.94 290.856C194.49 293.17 197.301 292.539 195.767 297.98C196.331 298.355 196.901 298.73 197.466 299.114C196.672 299.165 195.224 299.043 195.353 299.776C195.918 303.546 194.994 319.08 195.66 322.704C196.052 324.459 194.9 326.147 194.772 327.888L194.688 345.549C196.169 345.559 197.656 345.579 199.132 345.694C195.834 346.541 192.267 345.758 188.829 345.84C188.539 345.458 188.254 345.077 187.968 344.702C177.649 347.359 177.131 344.976 172.697 345.124C171.322 345.063 169.802 345.35 168.561 344.884C164.005 343.026 163.209 346.559 153.061 345.04C153.061 345.04 153.426 338.488 153.497 330.345C142.13 329.042 130.03 329.829 123.654 329.38C121.843 323.286 123.553 304.36 123.536 304.302C123.964 297.415 122.538 295.631 124.067 293.813C120.859 293.874 117.728 293.441 114.592 293.118C111.093 293.087 107.572 293.182 104.157 292.622C100.736 292.723 97.3036 292.642 93.8828 292.74C88.4105 293.361 82.8204 293 77.2871 293.084C78.4585 295.581 77.6046 308.807 77.5605 309.145C77.3134 310.716 79.6173 313.854 74.838 314.38C71.2385 314.265 67.6222 314.42 64.0384 314.133C61.2045 313.918 58.3926 314.265 55.5649 314.282C54.9466 309.741 56.9677 287.098 56.851 284.583C56.9856 283.844 55.8667 283.328 54.7437 283.288C47.1808 282.481 39.4172 283.48 31.8711 282.579C26.9246 282.991 21.916 282.576 16.9695 282.95L14.8905 348.935C14.8506 348.941 14.8106 348.948 14.7706 348.954V349.589H0.0424575C-0.0174815 390.583 -0.00801684 431.577 0.0340457 472.572H2691.97C2691.99 465.029 2692.03 329.401 2691.96 303.755ZM76.8654 342.41C75.0988 342.805 73.3269 342.249 71.555 342.191C66.1331 341.937 60.6945 342.022 55.2663 342.076C54.5744 340.553 55.5323 322.125 55.7584 321.56C56.5986 320.84 57.3 321.348 73.819 321.199C74.8306 321.158 75.8201 321.29 76.7592 321.506C77.368 326.882 76.491 333.025 76.8654 342.41ZM2446.17 325.894C2449.05 325.951 2452 325.644 2454.85 325.876L2455.24 326.174C2452.21 326.032 2449.16 326.012 2446.17 325.894Z" fill="#81A6FF" fill-opacity="0.15"/>
</svg>
