<svg width="270" height="191" viewBox="0 0 270 191" fill="none" xmlns="http://www.w3.org/2000/svg">
<path d="M210.106 13.5293H162.637C160.878 13.5293 159.451 14.9545 159.451 16.7126V51.7293C159.451 53.4874 160.878 54.9126 162.637 54.9126H210.106C211.866 54.9126 213.292 53.4874 213.292 51.7293V16.7126C213.292 14.9545 211.866 13.5293 210.106 13.5293Z" fill="#F2F6FB"/>
<path d="M167.798 46.4048L175.835 34.1856C176.598 33.0255 178.27 32.906 179.187 33.9457L182.43 37.612C183.909 39.282 186.592 39.026 187.723 37.1094L195.456 23.9888C196.23 22.6744 198.079 22.5839 198.99 23.8114L207.193 34.9892C207.384 35.2496 207.75 35.3055 208.01 35.1141C208.27 34.9227 208.325 34.5565 208.134 34.2961L199.93 23.1156C198.519 21.2163 195.65 21.3567 194.45 23.394L186.717 36.5141C185.99 37.7469 184.258 37.9123 183.304 36.8356L180.062 33.1702C178.635 31.5532 176.045 31.7384 174.859 33.5418L166.822 45.7609C166.645 46.0307 166.719 46.3936 166.988 46.5714C167.258 46.7492 167.62 46.6746 167.798 46.4048Z" fill="#E1E5F0"/>
<path d="M171.08 42.1469C172.047 42.1469 172.832 41.361 172.832 40.3916C172.832 39.4221 172.047 38.6362 171.08 38.6362C170.112 38.6362 169.327 39.4221 169.327 40.3916C169.327 41.361 170.112 42.1469 171.08 42.1469Z" fill="#3ABF7C"/>
<path d="M190.62 32.6782C191.587 32.6782 192.372 31.8923 192.372 30.9228C192.372 29.9534 191.587 29.1675 190.62 29.1675C189.652 29.1675 188.867 29.9534 188.867 30.9228C188.867 31.8923 189.652 32.6782 190.62 32.6782Z" fill="#FFCB3D"/>
<path d="M109.752 13.5293H57.6638C57.1359 13.5293 56.708 13.9569 56.708 14.4843V53.9576C56.708 54.4851 57.1359 54.9126 57.6638 54.9126H109.752C110.28 54.9126 110.708 54.4851 110.708 53.9576V14.4843C110.708 13.9569 110.28 13.5293 109.752 13.5293Z" fill="#F2F6FB"/>
<path d="M99.756 35.7637H101.636C102.347 35.7637 102.604 35.8375 102.864 35.9763C103.123 36.115 103.327 36.3185 103.466 36.5779C103.605 36.8373 103.678 37.0946 103.678 37.8041V54.9128H97.714V37.8041C97.714 37.0946 97.7879 36.8373 97.9268 36.5779C98.0656 36.3185 98.2693 36.115 98.5289 35.9763C98.7885 35.8375 99.046 35.7637 99.756 35.7637Z" fill="#D8DEED"/>
<path d="M92.9395 40.3379H94.9264C95.6365 40.3379 95.894 40.4118 96.1536 40.5505C96.4131 40.6892 96.6169 40.8928 96.7557 41.1522C96.8945 41.4115 96.9685 41.6688 96.9685 42.3783V54.9125H90.8975V42.3783C90.8975 41.6688 90.9714 41.4115 91.1102 41.1522C91.249 40.8928 91.4528 40.6892 91.7124 40.5505C91.9719 40.4118 92.2294 40.3379 92.9395 40.3379Z" fill="#D8DEED"/>
<path d="M86.2294 26.0825H88.1099C88.8199 26.0825 89.0774 26.1564 89.337 26.2951C89.5966 26.4338 89.8003 26.6374 89.9391 26.8968C90.078 27.1562 90.1519 27.4134 90.1519 28.1229V54.9125H84.1874V28.1229C84.1874 27.4134 84.2613 27.1562 84.4001 26.8968C84.539 26.6374 84.7427 26.4338 85.0023 26.2951C85.2619 26.1564 85.5194 26.0825 86.2294 26.0825Z" fill="#E1E5F0"/>
<path d="M79.4128 29.8062H81.2932C82.0032 29.8062 82.2607 29.88 82.5203 30.0187C82.7799 30.1575 82.9836 30.361 83.1225 30.6204C83.2613 30.8798 83.3352 31.1371 83.3352 31.8466V54.9127H77.3707V31.8466C77.3707 31.1371 77.4447 30.8798 77.5835 30.6204C77.7223 30.361 77.926 30.1575 78.1856 30.0187C78.4452 29.88 78.7027 29.8062 79.4128 29.8062Z" fill="#D8DEED"/>
<path d="M72.7027 38.5293H74.5831C75.2932 38.5293 75.5507 38.6032 75.8103 38.7419C76.0699 38.8806 76.2736 39.0842 76.4124 39.3436C76.5512 39.6029 76.6252 39.8602 76.6252 40.5697V54.9124H70.6606V40.5697C70.6606 39.8602 70.7346 39.6029 70.8734 39.3436C71.0122 39.0842 71.216 38.8806 71.4755 38.7419C71.7351 38.6032 71.9926 38.5293 72.7027 38.5293Z" fill="#D8DEED"/>
<path d="M65.8862 34.1675H67.7666C68.4766 34.1675 68.7341 34.2414 68.9937 34.3801C69.2533 34.5188 69.457 34.7224 69.5959 34.9817C69.7347 35.2411 69.8086 35.4984 69.8086 36.2079V54.9123H63.8441V36.2079C63.8441 35.4984 63.918 35.2411 64.0569 34.9817C64.1957 34.7224 64.3994 34.5188 64.659 34.3801C64.9186 34.2414 65.1761 34.1675 65.8862 34.1675Z" fill="#D8DEED"/>
<path d="M246.377 139.05V139.08C246.377 139.462 246.042 139.78 245.66 139.78H233.633L237.871 147.548C240.897 153.087 243.908 158.61 246.919 164.149L251.904 173.285C252.08 173.603 251.936 174.017 251.602 174.208L251.538 174.24C251.204 174.431 250.773 174.32 250.614 174.017L231.961 139.78H219.536L200.883 174.017C200.724 174.32 200.294 174.415 199.959 174.24L199.896 174.208C199.561 174.017 199.418 173.603 199.593 173.285L204.579 164.149C207.605 158.61 210.616 153.087 213.627 147.548L217.864 139.78H201.919C201.52 139.78 201.202 139.462 201.202 139.08V139.001C201.202 138.619 201.536 138.3 201.919 138.3H212.75C219.807 138.3 226.88 138.3 233.952 138.3H244.971L246.313 127.445C247.237 120.06 248.145 112.658 249.069 105.257L250.582 93.0332C250.63 92.6035 250.996 92.2851 251.395 92.3329L251.474 92.3488C251.857 92.3965 252.127 92.7945 252.08 93.1924L246.393 138.969C246.389 138.997 246.383 139.024 246.377 139.05Z" fill="#D8DEED"/>
<path d="M92.1427 112.612C91.984 112.892 91.6829 113.082 91.338 113.082H68.4478C67.938 113.082 67.5398 112.668 67.5398 112.158C67.5398 111.649 67.954 111.235 68.4478 111.235H90.7128L98.4743 90.3685C98.6495 89.891 99.1752 89.6523 99.6531 89.8274C100.131 90.0024 100.37 90.5277 100.195 91.0052L92.2141 112.461C92.1945 112.514 92.1706 112.565 92.1427 112.612Z" fill="#474961"/>
<path d="M27.6053 138.891V138.921C27.6053 139.303 27.9399 139.621 28.3222 139.621H40.3489L36.1115 147.389C33.085 152.928 30.0744 158.451 27.0638 163.99L22.0779 173.126C21.9027 173.444 22.0461 173.858 22.3806 174.049L22.4443 174.081C22.7788 174.272 23.2089 174.16 23.3682 173.858L42.0213 139.621H54.4461L73.0992 173.858C73.2585 174.16 73.6885 174.256 74.0231 174.081L74.0868 174.049C74.4213 173.858 74.5646 173.444 74.3894 173.126L69.4036 163.99C66.377 158.451 63.3664 152.928 60.3558 147.389L56.1184 139.621H72.0638C72.462 139.621 72.7806 139.303 72.7806 138.921V138.841C72.7806 138.459 72.4461 138.141 72.0638 138.141H61.2319C54.1753 138.141 47.1027 138.141 40.0301 138.141H29.0118L27.6691 127.286C26.7452 119.901 25.8372 112.499 24.9133 105.098L23.4 92.874C23.3522 92.4443 22.9859 92.1259 22.5876 92.1737L22.508 92.1896C22.1257 92.2374 21.8549 92.6353 21.9027 93.0332L27.5894 138.81C27.5936 138.837 27.5989 138.865 27.6053 138.891Z" fill="#D8DEED"/>
<path d="M124.152 139.716H111.552C111.17 139.716 110.835 139.398 110.835 139.016V138.936C110.835 138.554 111.17 138.236 111.584 138.236H123.26C130.333 138.236 137.405 138.236 144.462 138.236H155.294C155.676 138.236 156.011 138.554 156.011 138.936V139.016C156.011 139.398 155.692 139.716 155.294 139.716H139.922L144.159 147.484C147.17 153.023 150.18 158.546 153.207 164.085L158.193 173.221C158.368 173.539 158.225 173.953 157.89 174.144L157.826 174.176C157.492 174.351 157.062 174.255 156.903 173.953L138.249 139.716H125.825L107.172 173.953C107.012 174.255 106.582 174.367 106.248 174.176L106.184 174.144C105.849 173.953 105.706 173.539 105.881 173.221L110.867 164.085C113.878 158.546 116.888 153.023 119.915 147.484L124.152 139.716ZM110.883 133.479V124.224C110.883 117.166 110.883 110.124 110.883 103.082V94.6722C110.883 93.3536 111.953 92.2847 113.272 92.2847H139.269C140.589 92.2847 141.658 93.3536 141.658 94.6722V133.506C141.658 134.825 140.589 135.894 139.269 135.894C139.268 135.894 139.267 135.894 139.266 135.894L113.27 135.866C111.951 135.865 110.883 134.797 110.883 133.479Z" fill="#D8DEED"/>
<path d="M162.111 174.288H136.8C136.402 174.288 136.083 173.969 136.083 173.571C136.083 173.173 136.402 172.855 136.8 172.855H162.111C162.51 172.855 162.828 173.173 162.828 173.571C162.828 173.969 162.51 174.288 162.111 174.288ZM115.726 174.288C115.327 174.288 115.009 174.012 115.009 173.681V173.461C115.009 173.13 115.343 172.855 115.726 172.855H132.053C132.451 172.855 132.77 173.13 132.77 173.461V173.681C132.77 174.012 132.435 174.288 132.053 174.288H115.726Z" fill="#A339FF"/>
<path d="M162.362 172.9C162.284 172.871 162.2 172.855 162.111 172.855H136.8C136.685 172.855 136.576 172.882 136.48 172.929C136.46 172.861 136.45 172.788 136.45 172.712L137.007 163.91C136.975 163.432 137.342 163.066 137.803 163.05L147.95 162.987C148.126 162.987 148.285 163.035 148.428 163.146C150.244 165.088 151.98 166.17 153.239 166.807C154.211 167.3 157.46 168.669 158.926 169.338C159.674 169.672 160.391 170.07 161.092 170.499C161.14 170.531 161.172 170.547 161.219 170.595C161.586 170.929 162.143 171.534 162.35 172.25C162.382 172.346 162.382 172.425 162.398 172.521C162.414 172.6 162.398 172.68 162.398 172.76V172.776C162.389 172.818 162.377 172.86 162.362 172.9ZM132.145 172.86C132.115 172.857 132.084 172.855 132.053 172.855H115.726C115.725 172.855 115.724 172.855 115.724 172.855L119.421 163.003L130.827 164.547L132.145 172.86Z" fill="#474961"/>
<path d="M136.2 135.534C135.649 135.933 135.169 136.281 134.759 136.576L134.554 139.956C134.458 141.743 134.347 143.312 134.219 144.696C134.124 145.783 132.897 158.107 132.451 162.63C132.356 163.655 131.671 164.526 130.731 164.805C129.313 165.241 118.672 164.743 118.274 164.557C117.765 164.324 117.494 164.215 117.223 163.951C116.267 163.049 116.331 161.62 116.315 161.091C116.219 157.097 115.933 145.084 115.933 136.677C115.933 136.649 115.933 136.621 115.933 136.594C114.882 135.693 113.954 134.338 113.227 132.656C112.122 130.114 111.448 126.809 111.429 123.221C111.429 123.177 111.429 121.017 111.429 116.743C111.429 116.726 111.429 116.726 111.429 116.71C111.448 115.53 112.571 114.6 113.901 114.6H128.606C130.648 114.667 132.671 114.733 134.713 114.799C137.891 114.883 142.412 115.007 148.277 115.169C150.57 115.233 152.642 116.554 153.665 118.606C154.152 119.583 154.449 120.387 154.554 121.016C155.184 122.129 155.533 123.43 155.501 124.815C155.501 124.846 155.501 124.861 155.501 124.892C155.246 137.654 152.267 155.834 152.06 161.982C152.044 162.215 151.98 162.727 151.646 163.27C150.611 164.931 148.189 164.559 142.534 164.699C137.724 164.823 135.78 165.195 134.793 163.829C134.251 163.084 134.267 162.23 134.283 161.842C134.73 153.005 135.408 144.073 136.2 135.534Z" fill="#474BFF"/>
<path opacity="0.176986" d="M136.195 135.592C135.643 135.993 135.163 136.34 134.756 136.633L135.367 126.544C135.383 125.845 135.463 121.618 132.293 118.929C129.983 116.986 127.18 116.862 125.316 116.784C122.449 116.66 120.219 117.468 119.789 117.624C119.247 117.826 118.976 117.934 118.705 118.074C115.615 119.69 115.854 127.461 115.886 128.875C115.917 130.635 115.933 133.359 115.934 136.528C114.915 135.628 114.013 134.298 113.304 132.656C112.199 130.114 111.524 126.809 111.505 123.221C111.505 123.177 111.505 121.017 111.505 116.743C111.505 116.726 111.505 116.726 111.505 116.71C111.524 115.53 112.648 114.6 113.978 114.6H128.683C130.725 114.667 132.748 114.733 134.79 114.799C137.967 114.883 142.489 115.007 148.354 115.169C150.647 115.233 152.718 116.554 153.742 118.606C154.278 119.682 154.583 120.547 154.656 121.202C153.442 118.906 151.05 117.356 148.302 117.409C146.964 117.44 145.642 117.471 144.304 117.502C140.72 117.596 137.741 120.375 137.359 124.007C136.954 127.752 136.562 131.63 136.195 135.592Z" fill="#444444"/>
<path d="M132.16 81.6478C133.407 81.6706 135.368 81.9066 137.305 83.0315C137.639 83.2221 138.132 83.5396 138.673 84.0001C139.134 84.3971 140.486 85.7149 141.774 89.4304C142.235 90.7324 143.587 93.2729 144.366 94.6702C144.62 95.1307 144.318 95.7023 143.778 95.7499C142.073 95.8723 139.971 96.5712 137.984 96.575C138.148 99.5452 138.263 103.088 138.307 107.039C138.307 107.039 138.561 111.742 137.098 113.266C136.845 113.535 132.094 113.255 127.048 113.416C121.636 113.587 115.871 114.145 114.53 112.74C112.361 110.467 113.601 109.852 115.592 96.9088C115.28 96.9408 114.99 96.9692 114.731 96.9928C112.72 97.1838 108.509 97.0565 106.482 96.9769C105.944 96.961 105.596 96.3562 105.817 95.847C106.482 94.3033 107.654 91.5182 108.002 90.1018C109 86.0596 110.25 84.5795 110.678 84.1339C111.169 83.6246 111.661 83.2782 111.96 83.0358C112.963 82.2235 116.124 81.6374 121.444 81.2776C123.737 80.4972 126.355 80.7212 128.05 80.8721C129.235 80.9797 130.729 81.1125 132.16 81.6478Z" fill="#A339FF"/>
<path opacity="0.176986" d="M132.212 81.6527C133.465 81.6937 135.343 81.957 137.199 83.0356C137.534 83.2266 138.027 83.545 138.569 84.0065C139.031 84.4045 140.385 85.7255 141.675 89.45C142.137 90.7552 143.587 93.2673 144.367 94.6679C144.622 95.1295 144.319 95.7025 143.778 95.7503C143.28 95.786 142.719 95.8898 142.187 95.9777C141.976 96.0126 141.393 96.0803 141.133 96.135C139.878 96.3996 139.146 96.5753 137.976 96.5753C137.97 96.5753 137.964 96.5753 137.958 96.5753C137.706 91.9952 137.339 88.7743 136.944 87.5109C136.673 86.6514 136.28 85.6646 136.28 85.6646C136.089 85.1075 135.781 84.5345 135.159 83.7546C134.322 82.7154 133.287 82.0681 132.212 81.6527ZM128.463 83.3499C128.176 85.037 127.651 85.5352 127.651 85.5352C126.44 84.8349 122.123 82.6495 122.521 81.4558C122.553 81.3762 122.617 81.217 123.031 80.9624C124.592 80.0074 126.504 80.4689 127.173 80.6599C127.173 80.6599 130.247 80.3098 130.837 82.1084C131.426 83.9069 130.725 85.1803 130.725 85.1803C130.215 84.8726 129.461 84.2624 128.463 83.3499Z" fill="#444444"/>
<path d="M138.287 109.404L137.976 96.5755L142.196 95.9779L143.486 111.709C143.597 111.766 143.704 111.823 143.808 111.878C144.721 112.367 145.478 113.257 146.078 114.548C146.108 114.613 146.123 114.684 146.122 114.756C146.119 115.02 145.901 115.231 145.638 115.227L112.093 114.742C104.085 113.155 106.263 102.302 107.831 97.0279C110.032 97.0967 113.141 97.1519 114.786 96.9966C116.34 96.8554 119.039 96.5441 120.627 96.3066L117.78 104.828C125.424 105.207 132.93 107.334 138.287 109.404ZM129.353 79.6242L129.281 82.5602C126.234 83.6831 124.073 81.9553 124.073 81.9553C124.073 81.9553 124.187 79.7671 124.416 75.3907C124.379 75.3115 124.343 75.2279 124.308 75.1391C124.021 74.4228 122.989 72.0712 123.212 71.2594C123.253 71.088 122.402 68.537 123.648 67.2502C124.832 66.0282 128.114 66.0627 128.246 66.0705C128.803 66.0864 129.361 66.0705 129.966 65.9432C130.03 65.9432 130.094 65.9272 130.157 65.9272C130.699 65.8795 133.742 65.7362 135.303 67.9964C135.446 68.1874 135.573 68.3943 135.685 68.649C135.924 69.2379 136.035 69.8746 135.988 70.5112L135.765 73.3444C135.733 73.6309 135.685 73.9174 135.621 74.188C135.159 76.1935 134.411 77.8329 133.614 78.8675C133.025 79.6474 132.388 80.0931 131.83 80.109C131.671 80.1249 130.811 80.109 129.807 79.8066C129.742 79.7848 129.758 79.8002 129.353 79.6242Z" fill="#F2A98A"/>
<path d="M121.026 96.2797C120.973 96.4006 120.833 96.456 120.712 96.4035C120.591 96.3509 120.535 96.2102 120.588 96.0893C120.896 95.3806 121.02 94.9846 121.259 93.9503C121.289 93.8218 121.417 93.7417 121.546 93.7713C121.674 93.801 121.754 93.9291 121.725 94.0576C121.48 95.1186 121.347 95.5417 121.026 96.2797ZM117.949 104.494C118.081 104.482 118.197 104.578 118.209 104.709C118.222 104.841 118.125 104.957 117.994 104.969C117.963 104.972 117.902 104.979 117.816 104.991C117.671 105.01 117.509 105.036 117.335 105.068C116.837 105.161 116.339 105.29 115.877 105.461C115.604 105.562 115.352 105.675 115.124 105.8C115.008 105.864 114.863 105.822 114.799 105.706C114.736 105.591 114.778 105.446 114.894 105.382C115.143 105.245 115.417 105.122 115.711 105.014C116.201 104.832 116.724 104.696 117.247 104.599C117.43 104.565 117.6 104.538 117.753 104.517C117.807 104.51 117.854 104.504 117.896 104.5C117.921 104.497 117.939 104.495 117.949 104.494Z" fill="#482D1F"/>
<path opacity="0.2" d="M143.459 111.725C142.144 111.038 140.369 110.23 138.258 109.413L137.947 96.5751L142.167 95.9775L143.459 111.725Z" fill="#8C2A00"/>
<path d="M129.358 79.6284L129.313 81.2547L127.114 78.6177C127.145 78.6331 127.178 78.6488 127.211 78.6648C127.529 78.824 127.927 78.9991 128.437 79.2219C128.884 79.4208 129.17 79.5471 129.358 79.6284Z" fill="#482D1F"/>
<path d="M127.591 72.0585L127.577 71.7525C127.577 71.7525 127.513 71.1795 127.115 70.6065C127.083 70.5747 126.812 70.2245 126.398 70.0494C125.65 69.7629 124.662 70.0972 124.12 70.7816C123.547 71.4819 123.547 72.421 123.85 73.1372C124.152 73.8535 124.742 74.1877 124.949 74.2832L125.873 74.5697L125.877 74.568C125.069 75.7509 124.366 76.7821 124.366 76.7821C124.366 76.7821 123.037 75.5566 122.448 74.5857C122.161 74.1082 121.142 72.9462 120.966 71.1158C120.919 70.511 120.727 68.4577 122.097 66.9457C122.575 66.4204 123.117 66.1657 123.34 66.0543C124.598 65.4972 125.522 65.8315 127.943 65.8792C128.134 65.8792 128.453 65.8952 128.867 65.8792C129.616 65.8633 130.142 65.8315 130.285 65.8315C131.48 65.7837 134.076 66.1498 135.223 67.9166C135.287 68.0439 135.366 68.1553 135.43 68.2508C135.096 68.3622 134.729 68.5692 134.283 68.6487C133.073 68.8397 132.037 68.601 131.416 68.3782C130.205 69.5242 128.979 70.6542 127.768 71.8002C127.713 71.881 127.654 71.9674 127.591 72.0585Z" fill="#DE6903"/>
<path d="M134.845 73.8421C134.893 73.6511 135.084 73.5079 135.275 73.5397C135.402 73.5556 135.498 73.6511 135.546 73.874C135.593 74.431 134.988 75.1314 134.813 74.7971C134.701 74.5743 134.797 74.1127 134.845 73.8421ZM131.48 73.4079C131.527 73.2169 131.718 73.0737 131.91 73.1055C132.037 73.1214 132.133 73.2169 132.18 73.4398C132.228 73.9968 131.623 74.6972 131.448 74.3629C131.32 74.1401 131.416 73.6785 131.48 73.4079Z" fill="#482D1F"/>
<path d="M133.757 73.9508L133.773 75.5425C133.773 75.5485 133.749 75.5727 133.741 75.5727C133.654 75.5727 133.565 75.567 133.426 75.5535C133.399 75.5509 133.371 75.5481 133.33 75.544C133.279 75.5388 133.251 75.5359 133.224 75.5332C133.132 75.524 133.056 75.5167 132.975 75.5096C132.887 75.502 132.81 75.5668 132.802 75.6544C132.795 75.742 132.859 75.8191 132.947 75.8268C133.027 75.8337 133.102 75.8408 133.192 75.8499C133.219 75.8526 133.247 75.8554 133.298 75.8607C133.339 75.8648 133.368 75.8677 133.396 75.8704C133.544 75.8847 133.642 75.891 133.741 75.891C133.925 75.891 134.092 75.7243 134.092 75.5409L134.076 73.9476C134.075 73.8597 134.003 73.7892 133.915 73.79C133.827 73.7909 133.757 73.8629 133.757 73.9508Z" fill="#482D1F"/>
<path d="M132.642 76.7342C132.531 76.6864 132.26 76.5591 132.244 76.3999C132.244 76.3681 132.228 76.3204 132.26 76.3044C132.34 76.2249 132.531 76.3044 132.818 76.384C133.327 76.5114 133.742 76.5432 133.742 76.5432C133.742 76.5432 133.582 76.7979 133.487 76.8615C133.296 77.0366 132.802 76.8138 132.642 76.7342Z" fill="#482D1F"/>
<path d="M133.349 74.125C133.095 75.0954 132.212 75.8113 131.161 75.8113C129.912 75.8113 128.899 74.7994 128.899 73.5512C128.899 73.2744 128.949 73.0093 129.04 72.7643L127.777 72.2208C127.651 72.1817 127.581 72.0479 127.62 71.922C127.659 71.7961 127.793 71.7257 127.919 71.7648L129.252 72.3385C129.653 71.7087 130.358 71.291 131.161 71.291C132.41 71.291 133.423 72.3029 133.423 73.5512C133.423 73.5851 133.422 73.6188 133.421 73.6523L133.917 73.7037C134.133 72.6801 135.042 71.9118 136.131 71.9118C137.38 71.9118 138.393 72.9237 138.393 74.1719C138.393 75.4202 137.38 76.4321 136.131 76.4321C134.884 76.4321 133.873 75.4238 133.869 74.1787L133.349 74.125ZM129.543 72.7982C129.436 73.027 129.377 73.2821 129.377 73.5512C129.377 74.5357 130.176 75.3338 131.161 75.3338C132.146 75.3338 132.945 74.5357 132.945 73.5512C132.945 72.5666 132.146 71.7685 131.161 71.7685C130.484 71.7685 129.896 72.1448 129.593 72.6993C129.592 72.7045 129.591 72.7096 129.589 72.7148C129.579 72.7464 129.563 72.7745 129.543 72.7982ZM134.352 74.0363C134.348 74.081 134.347 74.1263 134.347 74.1719C134.347 75.1565 135.145 75.9546 136.131 75.9546C137.116 75.9546 137.915 75.1565 137.915 74.1719C137.915 73.1874 137.116 72.3893 136.131 72.3893C135.224 72.3893 134.475 73.0657 134.362 73.9413C134.363 73.9571 134.363 73.9732 134.361 73.9896C134.36 74.0057 134.356 74.0213 134.352 74.0363Z" fill="#482D1F"/>
<path d="M53.5209 174.144C53.5051 174.134 53.4896 174.124 53.4744 174.112L37.4815 162.207C37.1629 161.968 37.0992 161.506 37.3382 161.188C37.5771 160.87 38.0391 160.806 38.3576 161.045L54.1795 172.823H62.793C63.1913 172.823 63.5258 173.157 63.5258 173.555C63.5258 173.953 63.1913 174.288 62.793 174.288H53.9523C53.7903 174.288 53.6415 174.235 53.5209 174.144ZM104.448 174.288H79.1364C78.7382 174.288 78.4196 173.969 78.4196 173.571C78.4196 173.173 78.7382 172.855 79.1364 172.855H104.448C104.846 172.855 105.165 173.173 105.165 173.571C105.165 173.969 104.846 174.288 104.448 174.288Z" fill="#DE3190"/>
<path d="M104.609 172.913C104.534 172.887 104.454 172.872 104.37 172.872H79.0581C78.9913 172.872 78.9267 172.881 78.8655 172.898C78.8146 172.794 78.7861 172.677 78.7861 172.553L78.5471 163.751C78.5153 163.274 78.8817 162.907 79.3436 162.892L90.287 162.828C90.4622 162.828 90.6215 162.876 90.7648 162.987C92.5808 164.929 94.3171 166.011 95.5755 166.648C96.5471 167.141 99.7967 168.51 101.262 169.179C102.011 169.513 102.728 169.911 103.429 170.341C103.476 170.372 103.508 170.388 103.556 170.436C103.922 170.77 104.48 171.375 104.687 172.091C104.719 172.187 104.719 172.266 104.735 172.362C104.751 172.442 104.735 172.521 104.735 172.601V172.617C104.712 172.726 104.669 172.826 104.609 172.913ZM63.037 172.918C62.9392 172.868 62.8296 172.841 62.7147 172.841H54.1012L38.3394 161.107L44.2834 152.689L53.8728 159.645C54.3985 161.427 54.9401 163.21 55.4817 165.008C55.7684 165.948 56.0551 166.871 56.3418 167.794C57.2339 168.144 57.9985 168.462 58.5401 168.701C59.5755 169.147 60.4516 169.561 61.4073 170.181C61.4073 170.181 62.2356 170.691 62.6976 171.423C62.841 171.662 62.9684 171.932 63.048 172.219C63.0799 172.346 63.0799 172.473 63.0958 172.585C63.0908 172.689 63.0672 172.806 63.037 172.918Z" fill="#474961"/>
<path d="M83.206 115.14L87.5565 115.083C88.8627 115.004 90.5034 115.815 91.73 116.738C91.9848 116.929 92.2079 117.136 92.4149 117.359C92.6061 117.566 92.7972 117.789 92.9565 118.028C93.6574 119.03 94.0238 120.224 94.0079 121.45C93.976 124.108 93.6574 126.177 93.4503 126.861C92.0963 131.048 88.6238 146.757 92.1123 153.554C92.1123 153.554 93.8804 156.976 93.4981 159.538C93.3509 160.568 92.7845 161.773 92.6073 162.132C92.6114 162.137 92.6155 162.142 92.6195 162.148C91.2883 164.067 74.7504 166.886 62.0444 162.716C60.3089 162.147 57.7754 161.491 54.8763 160.201C54.7488 160.154 54.6214 160.09 54.5099 160.01C52.5506 158.753 50.5913 157.512 48.632 156.254L43.7099 153.103C42.7701 152.498 42.4993 151.288 43.1046 150.413L47.1028 144.587L49.4922 141.101C50.1612 140.115 50.8621 139.096 51.5789 138.061C51.92 138.072 51.3041 138.046 49.7311 137.982C44.2475 137.759 37.0993 136.708 34.3913 132.363C33.0214 130.151 32.7825 127.827 32.671 126.761C32.0497 120.537 35.1571 117.331 36.1754 116.319C36.8542 115.644 38.5634 114.562 41.3029 113.071L59.1379 114.123L76.3488 114.759C76.378 114.745 79.9515 114.482 83.206 115.14Z" fill="#FFCB3D"/>
<path opacity="0.2" d="M83.1506 115.141L87.5566 115.083C88.8628 115.003 90.5035 115.815 91.73 116.738C91.9849 116.929 92.2079 117.136 92.415 117.359C92.6061 117.566 92.7973 117.789 92.9566 118.028C93.6574 119.03 94.0238 120.224 94.0079 121.45C93.976 124.108 93.6575 126.177 93.4504 126.861C92.0964 131.047 88.6238 146.757 92.1123 153.554C92.1123 153.554 93.8805 156.976 93.4982 159.538C93.3486 160.584 92.7668 161.811 92.5994 162.148C91.1637 160.229 85.4822 151.473 87.7335 136.502C87.7972 136.12 89.1945 127.868 89.1945 125.592C89.1945 117.372 87.2021 116.203 83.7465 115.285C83.5502 115.233 83.3513 115.185 83.1506 115.141Z" fill="#8C2A00"/>
<path d="M58.8954 127.428C58.1095 128.616 57.2818 129.77 55.2721 132.517C53.2557 135.274 52.4254 136.431 51.6317 137.631C51.5347 137.778 51.575 137.975 51.7218 138.072C51.8686 138.169 52.0662 138.129 52.1632 137.982C52.9492 136.794 53.7769 135.64 55.7865 132.893C57.803 130.137 58.6332 128.979 59.427 127.78C59.524 127.633 59.4837 127.435 59.3369 127.338C59.1901 127.242 58.9925 127.282 58.8954 127.428Z" fill="#482D1F"/>
<path d="M50.8393 84.0558C52.082 83.9717 53.6773 84.2017 55.0514 85.5232C56.3895 86.7965 55.7523 87.9107 57.7594 91.3168C58.7629 93.004 59.7187 94.1182 59.3682 95.1687C59.2408 95.5613 58.8638 95.9274 58.2372 96.2669C56.8461 96.4473 55.9912 96.5534 55.6726 96.5852C55.5868 96.593 55.4886 96.6027 55.3876 96.6129L55.131 101.103L55.1151 101.262L54.6691 109.173L54.5735 110.717C54.5735 110.844 54.5576 110.956 54.5417 111.083C54.5257 111.226 54.5098 111.353 54.4939 111.497C54.4461 111.863 54.3664 112.213 54.2709 112.563C54.2231 112.706 54.1912 112.85 54.1275 112.993L37.8479 112.866L36.1041 96.6131C34.8133 96.5688 33.4406 96.5216 31.9859 96.4714C31.2107 96.1849 30.7434 95.8506 30.5841 95.4686C30.1541 94.434 31.3647 93.2244 32.6231 91.4099C35.1558 87.7809 34.3753 86.7144 36.0319 85.2979C38.2275 83.4195 40.4667 83.1393 41.9838 83.2419C42.0175 83.232 42.0512 83.2223 42.085 83.2128C42.8815 82.9899 43.7417 82.8944 44.6178 82.9422L48.1222 83.165C49.0884 83.2165 50.0026 83.5387 50.8393 84.0558Z" fill="#DE3190"/>
<path opacity="0.176986" d="M50.7816 84.0596C52.0323 83.9645 53.6559 84.1808 55.0514 85.5228C56.3895 86.7961 55.7523 87.9103 57.7594 91.3164C58.7629 93.0036 59.7187 94.1178 59.3683 95.1683C59.2408 95.5609 58.8638 95.927 58.2373 96.2665C56.8461 96.4469 55.9913 96.553 55.6727 96.5849C55.5668 96.5945 55.4419 96.607 55.3162 96.6198L55.5541 92.4561C55.2833 89.4478 53.6745 86.2167 51.3488 84.45C51.1641 84.3101 50.9749 84.1796 50.7816 84.0596Z" fill="#444444"/>
<path d="M54.7839 105.877L55.0443 101.258L55.0602 101.099L55.3177 96.5932L57.9622 96.2696L58.7851 106.219C60.5404 106.363 62.3066 106.498 64.0832 106.626C66.0106 106.769 67.9381 106.897 69.8336 107.008C70.0953 106.855 72.2783 106.655 74.7935 107.008C75.5666 107.117 76.7009 107.434 78.1965 107.959C81.0319 108.789 82.9345 109.378 83.9043 109.726C85.3589 110.249 83.9043 111.226 81.8761 111.226C81.4683 111.226 75.6553 111.44 73.9661 111.677C73.9947 111.673 74.0246 111.669 74.0555 111.665L75.0511 111.935C75.5637 112.061 76.0531 112.251 76.5327 112.521C76.9603 112.761 77.388 113.001 77.8156 113.24C77.9326 113.316 78.0386 113.44 78.0949 113.597C78.2765 114.068 78.2222 114.92 77.8156 114.919L53.1186 114.16C53.533 114.13 53.9467 114.098 54.3603 114.064C50.565 114.343 46.7614 114.516 42.4513 114.489C39.9345 114.473 39.2974 114.393 38.5328 113.995C35.2513 112.292 34.6142 107.358 34.0885 103.045C33.8718 101.373 33.7098 99.174 33.8153 96.5577C38.8795 96.7321 42.8427 96.8666 45.7049 96.9613C45.7039 97.0901 45.7026 97.2133 45.7009 97.3307C45.685 98.986 45.6372 100.514 45.7805 102.774C45.8443 103.713 45.8602 104.493 45.8921 105.002C48.8216 105.317 51.7862 105.609 54.7839 105.877ZM49.5409 82.2954L49.3241 83.1349C50.0695 83.4147 50.7162 83.9373 51.4195 84.47C51.3239 84.8838 51.1487 85.1703 50.9416 85.3773C49.6832 86.6347 45.6584 85.5683 41.7557 83.1808C42.0772 83.0908 42.9443 82.7376 44.4903 82.6953C44.6149 82.6919 44.7608 82.6918 44.928 82.695C45.3002 81.926 45.6575 81.2309 46.0479 80.371C46.042 80.3676 46.0378 80.3651 46.0354 80.3635L46.4336 77.4667C46.4177 77.2916 46.4655 77.4348 46.3062 77.3712C45.908 77.2279 45.5575 76.9573 45.2867 76.6072C44.8248 75.9705 44.7292 75.0792 45.0478 74.2833C45.4142 73.5353 46.2903 72.9941 47.0549 73.1214C47.3416 73.1692 47.5965 73.2965 47.8354 73.4875L47.8513 73.5034C47.931 73.583 48.0425 73.6148 48.1381 73.6308C48.4089 73.6467 48.6478 73.4716 48.6797 73.201L49.1257 69.0627C49.1416 68.7921 48.9822 68.6755 49.253 68.6914C49.6459 68.7232 50.2956 68.7232 51.2019 68.6914C51.2816 68.6914 51.896 68.6914 51.9597 68.6914C52.3404 68.755 55.2584 68.6011 56.7398 70.9886C56.8673 71.2273 56.9947 71.4502 57.0903 71.6889C57.3292 72.2778 57.4089 72.9304 57.3292 73.583L56.9469 76.4639C56.8991 76.7504 56.8354 77.0369 56.7558 77.3234C55.7363 80.841 53.9363 83.1967 52.5664 83.1808C51.8655 83.1489 51.1646 83.0216 50.5115 82.7669C50.4258 82.7241 50.481 82.7581 49.5409 82.2954Z" fill="#DB9E75"/>
<path opacity="0.2" d="M54.7064 105.961L54.97 101.285L54.986 101.125L55.2438 96.6122L57.9622 96.2695L58.7243 106.304C57.3786 106.194 56.0392 106.08 54.7064 105.961ZM74.0503 111.683L74.9542 111.927C75.4668 112.052 75.9733 112.218 76.4529 112.488C76.8805 112.728 77.388 113 77.8157 113.24C77.9327 113.316 78.0386 113.44 78.0949 113.597C78.2766 114.068 78.2223 114.92 77.8157 114.919L53.0574 114.186C56.3801 113.94 59.656 113.605 63.2161 113.267C64.3152 113.171 73.3575 111.914 73.8673 111.707C73.9235 111.699 73.9847 111.691 74.0503 111.683Z" fill="#8C2A00"/>
<path d="M43.8774 105.399C43.7461 105.413 43.6288 105.317 43.6155 105.186C43.6022 105.055 43.6978 104.938 43.8291 104.924L45.868 104.717C45.9993 104.704 46.1165 104.8 46.1299 104.931C46.1432 105.062 46.0476 105.179 45.9163 105.192L43.8774 105.399ZM45.6446 97.0567C45.5146 97.0344 45.4273 96.911 45.4496 96.781C45.4719 96.651 45.5955 96.5638 45.7255 96.5861C45.7308 96.587 45.7454 96.589 45.7682 96.5912C45.9742 96.6111 46.2129 96.5905 46.4327 96.5001C46.8328 96.3354 47.0833 95.9736 47.1191 95.3123C47.1652 94.4596 47.1302 93.7813 47.0445 93.2659C47.0243 93.144 47.0028 93.0421 46.9816 92.9597C46.9696 92.9131 46.961 92.8848 46.9572 92.8742C46.9131 92.7499 46.9783 92.6134 47.1027 92.5694C47.2271 92.5254 47.3636 92.5905 47.4077 92.7148C47.4368 92.797 47.477 92.9532 47.516 93.1877C47.6074 93.7381 47.6442 94.4512 47.5962 95.3381C47.5506 96.1811 47.1872 96.706 46.6146 96.9416C46.3117 97.0662 45.9991 97.0933 45.7221 97.0665C45.6873 97.0631 45.6611 97.0595 45.6446 97.0567Z" fill="#482D1F"/>
<path d="M49.6036 82.2255L47.9629 81.5093L49.1257 83.8809L49.6036 82.2255Z" fill="#482D1F"/>
<path d="M48.9918 76.0854L48.5522 74.5221C48.4089 74.1401 48.1699 73.8059 47.8673 73.5353C47.6283 73.3443 47.3735 73.2169 47.0868 73.1692C46.3222 73.0419 45.446 73.583 45.0797 74.3311C44.7292 75.0792 44.8089 75.9705 45.3186 76.6072C45.6313 77.0291 46.0669 77.3282 46.58 77.4595C46.3582 78.6929 46.0354 80.3954 46.0354 80.3954C46.0354 80.3954 45.644 80.2138 44.8612 79.8507C42.9655 78.7918 41.9354 76.8162 41.771 73.924C38.6854 75.1119 35.7363 74.2827 34.5823 72.5166C33.7062 71.1637 33.899 69.361 33.9611 69.1104C34.5823 66.6058 36.7168 66.2295 36.7168 66.2295C36.7168 66.2295 39.7912 64.6538 43.0726 69.4606C43.085 69.4788 43.0974 69.4972 43.1098 69.5158C43.4672 69.1469 43.9086 68.8777 44.3788 68.6807C45.7009 68.1395 46.6407 68.5215 49.1575 68.6329C49.6673 68.6648 50.4319 68.6807 51.3876 68.6489C51.4673 68.6489 51.531 68.6489 51.5947 68.6489C52.1682 68.6329 55.2689 68.6169 56.7503 71.0044C56.7344 71.0521 56.712 71.0965 56.6761 71.1637C56.6761 71.1637 53.6001 76.4712 48.9918 76.0854ZM55.0832 75.6045C54.7646 75.6363 54.239 75.6522 53.8248 75.4771C53.108 75.2065 53.8726 74.8723 54.5416 74.9359C54.8602 74.9519 55.0832 75.127 55.2266 75.2702C55.3221 75.3975 55.2425 75.5885 55.0832 75.6045ZM57.7752 75.9387C57.4407 76.0024 56.9469 76.066 56.5009 75.9228C55.7522 75.7159 56.4691 75.302 57.154 75.318C57.5044 75.3339 57.7275 75.4612 57.8867 75.6045C57.9983 75.7159 57.9345 75.9069 57.7752 75.9387Z" fill="#482D1F"/>
<path d="M56.3417 77.5938C56.2302 77.3868 56.3417 76.9571 56.4214 76.6865C56.4692 76.4955 56.6763 76.3841 56.8515 76.4159C56.963 76.4477 57.0904 76.5273 57.0904 76.7502C57.1223 77.2913 56.4851 77.9439 56.3417 77.5938ZM53.7294 77.2277C53.6019 77.0208 53.7294 76.591 53.809 76.3204C53.8568 76.1294 54.0639 76.018 54.2391 76.0498C54.3506 76.0817 54.478 76.1612 54.478 76.3841C54.5099 76.9253 53.8886 77.5778 53.7294 77.2277Z" fill="#482D1F"/>
<path d="M56.351 76.3663C56.3762 76.2821 56.3282 76.1934 56.2439 76.1683C56.1596 76.1432 56.0709 76.1911 56.0457 76.2753L55.7749 77.1826L55.7703 77.2029L55.4995 78.89C55.4985 78.8961 55.4848 78.905 55.4563 78.9009C55.2909 78.8614 55.0989 78.8139 54.8942 78.7611C54.809 78.7392 54.7221 78.7904 54.7002 78.8755C54.6782 78.9606 54.7294 79.0474 54.8146 79.0694C55.0214 79.1227 55.2156 79.1707 55.3973 79.2134C55.6038 79.2435 55.7829 79.1272 55.8139 78.9414L56.0832 77.2636L56.351 76.3663Z" fill="#482D1F"/>
<path d="M49.6036 82.3053L48.3611 81.6846L48.9027 84.6132L49.6036 82.3053Z" fill="#482D1F"/>
<path d="M54.3506 80.3157C54.2391 80.2839 53.9683 80.1884 53.9364 79.9974C53.9364 79.9655 53.9205 79.9178 53.9364 79.886C53.9842 79.8064 54.4939 79.886 54.4939 79.886C55.1311 79.9974 55.3063 79.9815 55.3382 80.077C55.3541 80.1247 55.3382 80.1884 55.1948 80.3157C55.0196 80.5545 54.5099 80.3794 54.3506 80.3157Z" fill="#482D1F"/>
<path d="M195.682 173.014H217.657C218.055 173.014 218.373 173.332 218.373 173.73C218.373 174.128 218.055 174.447 217.657 174.447H192.345H173.708C173.31 174.447 172.991 174.128 172.991 173.73C172.991 173.332 173.31 173.014 173.708 173.014H195.682Z" fill="#FF5645"/>
<path d="M173.867 173.014H173.708C173.662 173.014 173.617 173.019 173.573 173.027C173.528 172.951 173.495 172.866 173.476 172.776V172.76C173.476 172.68 173.46 172.6 173.476 172.521C173.492 172.425 173.492 172.346 173.524 172.25C173.631 171.881 173.906 171.448 174.349 170.952C174.601 170.671 174.896 170.432 175.224 170.244C175.956 169.827 176.531 169.524 176.949 169.338C178.414 168.669 181.664 167.3 182.635 166.807C183.894 166.17 185.63 165.088 187.446 163.146C187.589 163.035 187.749 162.987 187.924 162.987L197.06 163.05C197.522 163.05 197.889 163.432 197.857 163.91L198.625 168.221C199.433 167.872 200.161 167.535 201.058 167.014C201.807 166.584 202.858 165.884 204.037 164.833C204.69 164.26 205.359 163.687 206.012 163.114L215.873 162.987L217.901 173.03C217.936 173.037 217.97 173.047 218.003 173.059L218.013 173.108C217.911 173.05 217.794 173.016 217.669 173.014C217.665 173.014 217.661 173.014 217.657 173.014H195.682H192.028H173.867Z" fill="#474961"/>
<path opacity="0.176986" d="M195.73 173.014H195.682H173.708C173.662 173.014 173.617 173.019 173.573 173.027C173.528 172.951 173.495 172.866 173.476 172.776V172.76C173.476 172.68 173.46 172.6 173.476 172.521C173.492 172.425 173.492 172.346 173.524 172.25C173.631 171.881 173.906 171.448 174.349 170.952C174.601 170.671 174.896 170.432 175.224 170.244C175.956 169.827 176.531 169.524 176.949 169.338C178.414 168.669 181.664 167.3 182.635 166.807C183.894 166.17 185.63 165.088 187.446 163.146C187.589 163.035 187.749 162.987 187.924 162.987L197.06 163.05C197.522 163.05 197.889 163.432 197.857 163.91L198.632 168.259C197.784 168.624 196.839 169.01 195.515 169.64C194.751 170.006 194.018 170.42 193.301 170.881C192.951 171.2 192.345 171.852 192.154 172.616C192.122 172.744 192.122 172.871 192.106 172.982C192.106 172.993 192.112 173.004 192.124 173.014H195.778H195.73ZM218.013 173.108C217.911 173.05 217.794 173.016 217.669 173.014L217.752 173.014C217.841 173.014 217.925 173.03 218.003 173.059L218.013 173.108Z" fill="#444444"/>
<path d="M195.071 115.263C195.345 115.22 195.605 115.206 195.85 115.221L224.984 115.109L238.333 115.078C238.874 115.109 241.159 115.808 241.685 116.406C242.195 116.676 245.453 120.044 244.912 126.299C244.816 127.349 244.609 129.689 243.271 131.917C241.869 134.241 239.512 135.944 236.628 136.915C234.08 137.775 231.101 138.077 228.011 137.743C221.48 136.565 214.965 135.403 208.434 134.225V134.464L208.466 134.576C208.466 134.576 209.262 136.072 209.947 137.616C210.632 139.144 211.588 146.37 211.588 146.418C213.149 148.901 214.726 152.259 215.936 156.493C216.414 158.196 216.669 159.533 216.765 160.042C216.957 161.135 217.11 162.454 217.223 163.999C217.225 164.023 217.226 164.046 217.226 164.069C217.226 164.597 216.798 165.024 216.27 165.024C216.115 165.024 215.993 165.024 215.905 165.024L201.743 165.008L197.388 164.987C197.243 165.025 197.09 165.046 196.933 165.046L185.305 164.998H184.365C183.441 164.998 182.661 164.266 182.613 163.342C182.501 161.48 182.358 159.029 182.183 156.196C181.705 149.049 181.45 146.773 181.163 141.266C181.116 140.343 181.068 139.515 181.036 138.735C180.909 135.027 180.574 131.557 179.921 127.021C179.555 124.506 179.379 122.946 179.363 121.625C179.347 120.399 179.714 119.19 180.415 118.187C180.765 117.693 181.163 117.264 181.641 116.898C182.868 115.959 183.746 115.32 186.824 115.274C189.259 115.238 192.075 115.249 195.071 115.263Z" fill="#3ABF7C"/>
<path opacity="0.176986" d="M195.156 115.251C195.117 115.256 195.077 115.262 195.037 115.269C193.922 115.46 192.664 116.112 191.692 116.86C191.214 117.226 190.8 117.656 190.466 118.15C189.765 119.136 189.398 120.314 189.398 121.524V121.603C189.414 122.925 189.589 124.484 189.94 126.999C190.593 131.535 190.928 134.989 191.055 138.714C191.087 139.478 191.135 140.321 191.182 141.245C191.453 146.736 191.724 149.012 192.202 156.174C192.393 159.008 192.536 161.443 192.632 163.321C192.68 164.244 193.46 164.976 194.384 164.976H195.324L197.337 164.986C197.207 165.017 197.072 165.033 196.933 165.033L185.305 164.985H184.365C183.441 164.985 182.661 164.253 182.613 163.329C182.501 161.467 182.358 159.016 182.183 156.183C181.705 149.036 181.45 146.76 181.163 141.253C181.116 140.33 181.068 139.502 181.036 138.722C180.909 135.014 180.574 131.544 179.921 127.008C179.555 124.493 179.379 122.933 179.363 121.612C179.347 120.386 179.714 119.177 180.415 118.174C180.765 117.68 181.163 117.251 181.641 116.885C182.868 115.945 183.746 115.307 186.824 115.261C189.282 115.225 192.129 115.236 195.156 115.251L195.156 115.251Z" fill="#444444"/>
<path d="M208.354 133.871C208.157 133.677 207.951 133.474 207.736 133.261C207.678 133.203 207.678 133.203 207.619 133.146C207.012 132.545 206.516 132.05 205.553 131.087C205.428 130.963 205.227 130.963 205.102 131.087C204.978 131.212 204.978 131.413 205.102 131.538C206.066 132.5 206.563 132.996 207.171 133.598C207.229 133.656 207.229 133.656 207.288 133.713C207.503 133.927 207.71 134.13 207.908 134.325C208.033 134.448 208.235 134.446 208.358 134.321C208.482 134.196 208.48 133.994 208.354 133.871Z" fill="#482D1F"/>
<path d="M229.266 82.2352C230.204 81.917 231.226 81.7674 232.288 81.8236C236.509 82.0306 239.758 85.389 239.551 89.3204C239.45 91.2424 238.534 92.9459 237.131 94.1558L240.659 107.04C241.2 109.077 241.009 111.146 240.213 112.929C240.101 113.184 239.974 113.438 239.846 113.677C239.703 113.932 239.544 114.187 239.384 114.425C239.209 114.68 239.018 114.935 238.811 115.173H221.464C221.321 114.935 221.177 114.696 221.05 114.425C220.922 114.187 220.811 113.932 220.715 113.677C220.62 113.438 220.54 113.184 220.46 112.929C220.444 112.881 220.428 112.834 220.413 112.786L215.903 97.0788L212.612 97.441C212.325 97.4728 212.054 97.2818 212.023 97.0112L211.879 95.897C211.873 95.8472 211.876 95.7984 211.885 95.7518C211.344 95.4235 210.849 95.0294 210.43 94.576C209.824 93.9234 209.362 93.1594 209.092 92.284C208.008 88.8141 210.414 85.1055 214.46 84.0232C216.088 83.5876 217.737 83.6393 219.197 84.0829C219.816 83.6531 220.495 83.3224 221.225 83.1172L224.713 82.0826C226.32 81.8446 227.865 81.8998 229.266 82.2352Z" fill="#FF5645"/>
<path opacity="0.176986" d="M215.879 97.0811L212.612 97.4406C212.325 97.4724 212.054 97.2814 212.023 97.0108L211.879 95.8967C211.873 95.8468 211.876 95.7981 211.885 95.7515C211.344 95.4231 210.849 95.0291 210.43 94.5756C209.824 93.923 209.362 93.159 209.092 92.2836C208.008 88.8138 210.414 85.1052 214.46 84.0229C216.097 83.5848 217.756 83.6395 219.222 84.0899C215.926 86.3469 214.291 91.4065 215.38 95.3433L215.879 97.0811Z" fill="#444444"/>
<path d="M213.117 84.7245C213.117 84.7245 212.814 85.9342 214.423 85.6C216.032 85.2657 216.494 85.1065 216.494 85.1065L216.08 84.0083L213.117 84.7245Z" fill="#482D1F"/>
<path d="M218.664 81.5645C218.611 81.5785 218.559 81.5917 218.507 81.6042L218.671 81.5806L218.664 81.5645ZM222.927 78.9966L223.327 78.8353L225.255 82.1619L222.077 83.1564L225.191 97.9353C225.191 97.9353 225.456 96.8687 225.795 94.9453C225.811 94.9506 225.827 94.9551 225.844 94.9589L234.653 96.9166C234.69 96.9249 234.727 96.9291 234.764 96.9296C234.456 98.1589 234.127 99.6372 233.777 101.166C232.869 105.114 232.726 106.944 231.276 109.554C229.619 112.531 228.09 112.61 227.485 112.833C226.131 113.359 224.777 113.279 223.933 113.072C222.92 112.827 221.064 112.432 219.49 109.572L220.412 112.786C220.428 112.833 220.444 112.881 220.46 112.929C220.54 113.183 220.619 113.438 220.715 113.677C220.811 113.932 220.922 114.186 221.05 114.425C221.177 114.696 221.32 114.934 221.464 115.173H223.504L197.066 115.206C196.992 115.206 196.924 115.181 196.87 115.139C192.485 112.492 190.314 110.471 190.355 109.076C191.681 108.874 193.574 108.598 196.034 108.246C197.562 108.027 199.114 108.031 200.641 108.259L205.442 108.974C209.034 107.824 213.828 106.313 215.025 106.052L212.969 97.4013L215.903 97.0785L217.282 101.882C216.476 96.1942 216.685 90.267 215.956 84.5605L214.28 84.5971C213.292 84.995 211.221 85.6635 210.998 84.247C210.998 84.247 213.738 83.1169 215.666 82.2892L215.809 82.1619C215.936 82.0505 216.048 81.9868 216.207 81.939C216.239 81.9231 216.271 81.9231 216.303 81.9231L217.067 81.8117L217.174 81.7963C216.92 81.8086 216.743 81.8022 216.68 81.7958C215.349 81.7003 213.797 79.265 213.1 75.7475C213.036 75.461 213.02 75.1745 212.989 74.888L212.862 72.0389C212.83 71.4022 212.957 70.7655 213.258 70.2085C213.385 69.9697 213.511 69.7469 213.654 69.5718C215.286 67.3753 218.295 67.614 218.834 67.6777C218.897 67.6777 218.961 67.6936 219.024 67.6936C219.626 67.8369 220.165 67.8846 220.735 67.8687C220.988 67.8687 221.194 68.0756 221.21 68.3303L221.289 72.405C221.305 72.787 223.238 72.0548 223.238 72.0389C224.165 71.3385 225.329 75.1108 224.853 75.6679C224.505 76.0499 223.523 76.591 223.238 76.6865C223.063 76.7502 222.937 76.8935 222.905 77.0526C223.014 77.8587 223.021 78.5067 222.927 78.9966Z" fill="#DB9E75"/>
<path opacity="0.2" d="M212.969 97.4146L215.903 97.0918L220.412 112.799C220.428 112.847 220.444 112.894 220.46 112.942C220.54 113.197 220.619 113.451 220.715 113.69C220.81 113.945 220.922 114.199 221.049 114.438C221.177 114.709 221.32 114.948 221.464 115.186H223.504L197.066 115.22C196.992 115.22 196.924 115.195 196.87 115.152C192.485 112.505 190.313 110.484 190.355 109.089C191.681 108.888 193.574 108.611 196.033 108.259C197.562 108.04 199.114 108.045 200.641 108.272L205.442 108.987C209.034 107.837 213.827 106.326 215.024 106.065L212.969 97.4146Z" fill="#8C2A00"/>
<path d="M189.634 111.251C191.344 109.148 194.862 107.446 200.752 111.367C201.65 111.945 201.346 113.839 200.358 113.861L190.175 114.032C189.41 114.058 189.064 111.958 189.634 111.251Z" fill="#474961"/>
<path d="M227.821 71.5028C229.864 72.8433 231.814 74.8129 231.467 76.1135C231.197 77.164 230.177 77.7211 229.142 78.2941C228.305 78.7523 226.761 79.4615 224.538 79.6102C224.538 79.6119 224.538 79.6135 224.538 79.6151C224.012 79.6947 223.503 79.7743 222.977 79.8539C222.706 79.8857 222.451 79.6947 222.435 79.4241C222.515 78.8511 222.595 78.2781 222.674 77.7051C222.746 77.4193 222.821 77.0581 222.867 76.6712C223.122 76.6098 223.689 76.4457 224.124 75.9384C224.602 75.3813 224.857 74.5377 224.538 73.726C224.251 72.9461 223.455 72.3412 222.69 72.4049C222.26 72.4367 221.926 72.6755 221.878 72.7073C221.532 72.9688 221.245 73.3266 221.088 73.5412C220.338 73.2505 219.175 72.6298 218.214 71.4021C217.991 71.1263 217.731 70.7177 217.434 70.1766C215.847 70.5361 214.514 70.446 213.435 69.906C213.671 69.4577 214.038 69.0523 214.537 68.6897C215.286 68.1459 215.368 68.0801 216.313 67.8152C216.904 67.6493 218.022 67.5964 218.822 67.6776H218.851C219.759 67.7731 220.508 67.805 221.002 67.805C223.423 67.8527 224.363 67.5344 225.589 68.1392C225.812 68.2506 226.338 68.5371 226.8 69.0783C227.455 69.8428 227.723 70.7283 227.821 71.5028ZM213.392 76.9761C213.994 79.126 214.636 79.9175 214.554 79.9175C214.472 79.9175 214.26 80.029 212.619 79.5674C211.807 79.3446 211.042 79.1217 210.692 78.4691C210.198 77.546 211.67 75.6387 212.976 74.3654C212.976 75.3079 213.132 76.0187 213.392 76.9761ZM212.432 73.8215C212.273 73.7896 212.209 73.5986 212.32 73.4872C212.464 73.3599 212.703 73.2007 213.021 73.1848C213.674 73.153 214.391 73.535 213.69 73.7578C213.244 73.917 212.735 73.8692 212.432 73.8215ZM215.522 73.8215C215.363 73.7896 215.299 73.5986 215.427 73.4872C215.57 73.3599 215.809 73.2007 216.143 73.1848C216.797 73.153 217.513 73.5509 216.812 73.7578C216.335 73.917 215.841 73.8692 215.522 73.8215Z" fill="#482D1F"/>
<path d="M213.627 75.0469C213.658 75.3175 213.69 75.7632 213.547 75.9542C213.34 76.2407 212.846 75.5085 212.958 74.9992C213.005 74.7764 213.117 74.7127 213.244 74.7127C213.435 74.7127 213.595 74.8559 213.627 75.0469ZM216.462 74.9514C216.51 75.222 216.542 75.6677 216.382 75.8587C216.175 76.1452 215.681 75.413 215.793 74.9037C215.841 74.6809 215.952 74.6172 216.08 74.6172C216.271 74.6172 216.43 74.7604 216.462 74.9514Z" fill="#482D1F"/>
<path d="M225.01 98.0191C224.972 97.8927 225.045 97.7599 225.171 97.7225C225.298 97.6852 225.431 97.7574 225.468 97.8838L227.045 103.216C227.082 103.342 227.01 103.475 226.884 103.513C226.757 103.55 226.624 103.478 226.587 103.351L225.01 98.0191ZM235.798 95.2754C235.802 95.3035 235.801 95.3328 235.794 95.3621L235.524 96.5549C235.431 96.9697 235.017 97.2264 234.601 97.134C234.472 97.1054 234.391 96.9779 234.42 96.8492C234.449 96.7205 234.576 96.6393 234.705 96.6679C234.866 96.7036 235.023 96.6063 235.057 96.4503L235.29 95.4248C235.247 95.4023 235.211 95.3668 235.188 95.3206C235.129 95.2027 235.177 95.0592 235.295 95.0003C235.975 94.6604 236.608 94.2128 237.147 93.6896C237.241 93.5978 237.393 93.6 237.485 93.6945C237.577 93.7891 237.574 93.9403 237.48 94.0322C236.983 94.5146 236.412 94.9362 235.798 95.2754ZM225.955 93.1494C225.954 93.1601 225.952 93.1708 225.95 93.1815L225.679 94.3743C225.644 94.5348 225.741 94.6916 225.896 94.7261C226.025 94.7547 226.106 94.8822 226.078 95.0109C226.049 95.1397 225.921 95.2208 225.792 95.1922C225.377 95.1 225.12 94.6864 225.213 94.2697L225.484 93.076C225.494 93.0297 225.518 92.9896 225.549 92.9587C225.361 92.7318 225.22 92.5326 225.102 92.3305C224.996 92.1491 224.907 91.9631 224.813 91.7306C224.749 91.5722 224.71 91.4658 224.568 91.0775C224.523 90.9536 224.587 90.8166 224.711 90.7715C224.835 90.7265 224.972 90.7904 225.017 90.9143C225.157 91.2964 225.195 91.4007 225.256 91.5518C225.342 91.7644 225.421 91.9301 225.515 92.0899C225.639 92.3036 225.797 92.5175 226.025 92.7817C226.111 92.8815 226.1 93.0322 226 93.1184C225.986 93.1307 225.971 93.141 225.955 93.1494ZM219.773 81.2891C219.184 81.5596 218.783 82.0383 217.864 82.1303C217.131 82.3054 216.51 82.0985 216.191 81.9393C216.223 81.9234 216.255 81.9234 216.287 81.9234L217.051 81.812C217.418 81.812 218.006 81.7483 218.691 81.5573L219.773 81.2891Z" fill="#482D1F"/>
<path d="M215.65 78.1665C215.761 78.1347 216.032 78.0392 216.08 77.8641C216.08 77.8323 216.096 77.7845 216.08 77.7527C216.016 77.6572 215.809 77.705 215.522 77.7368C215.012 77.7845 214.598 77.7368 214.598 77.7368C214.598 77.7368 214.726 78.0551 214.805 78.1347C214.981 78.3894 215.49 78.2302 215.65 78.1665Z" fill="#482D1F"/>
<path d="M214.455 75.1798L214.456 75.1567L214.455 75.1682L214.455 75.1798ZM214.265 76.8598L214.264 76.8775C214.264 77.0512 214.383 77.2125 214.556 77.2414C214.588 77.2445 214.606 77.2458 214.624 77.2469C214.792 77.2579 214.913 77.2595 215.347 77.2595C215.435 77.2595 215.506 77.1882 215.506 77.1003C215.506 77.0124 215.435 76.9412 215.347 76.9412C214.921 76.9412 214.803 76.9396 214.644 76.9292C214.628 76.9282 214.611 76.927 214.595 76.9257C214.598 76.9257 214.585 76.9073 214.583 76.8838L214.773 75.1922L214.773 75.169L214.742 74.2299C214.739 74.1421 214.665 74.0733 214.577 74.0763C214.489 74.0792 214.42 74.1529 214.423 74.2407L214.455 75.1682L214.265 76.8598Z" fill="#482D1F"/>
<path d="M240.531 113.008H37.115C36.4992 113.008 36 113.507 36 114.122C36 114.738 36.4992 115.237 37.115 115.237H240.531C241.147 115.237 241.646 114.738 241.646 114.122C241.646 113.507 241.147 113.008 240.531 113.008Z" fill="#D8DEED"/>
<path d="M163.636 110.621L165.168 104.445H153.669C152.474 104.445 151.487 103.538 151.487 102.44V84.9472C151.471 83.833 152.443 82.9258 153.653 82.9258H188.65C189.844 82.9258 190.832 83.833 190.832 84.9313V102.44C190.832 103.538 189.844 104.445 188.65 104.445H174.636L174.003 110.621H178.152C178.79 110.621 179.283 111.13 179.283 111.751C179.283 112.388 178.774 112.881 178.152 112.881H160.391C159.754 112.881 159.26 112.372 159.26 111.751C159.229 111.13 159.754 110.621 160.391 110.621H163.636Z" fill="#474961"/>
<path fill-rule="evenodd" clip-rule="evenodd" d="M175.111 99.9438L175.158 110.637H174.016L175.111 99.9438Z" fill="white"/>
<path d="M159.292 16.2354H106.885C105.125 16.2354 103.699 17.6606 103.699 19.4187V58.0962C103.699 59.8543 105.125 61.2795 106.885 61.2795H159.292C161.052 61.2795 162.478 59.8543 162.478 58.0962V19.4187C162.478 17.6606 161.052 16.2354 159.292 16.2354Z" fill="#F2F6FB"/>
<path d="M138.628 50.181C144.32 46.8974 146.277 39.6373 142.999 33.965C139.721 28.2926 132.45 26.3561 126.757 29.6396C121.065 32.9231 119.108 40.1833 122.386 45.8556C125.663 51.528 132.935 53.4645 138.628 50.181ZM136.725 46.8892C132.853 49.1231 127.909 47.8067 125.683 43.9537C123.456 40.1008 124.787 35.1653 128.66 32.9314C132.532 30.6975 137.476 32.0139 139.702 35.8669C141.929 39.7198 140.598 44.6553 136.725 46.8892Z" fill="#E1E5F0"/>
<path d="M125.806 27.9938C119.204 31.8022 116.934 40.2247 120.737 46.8067C124.541 53.3887 132.977 55.6353 139.579 51.8269C146.181 48.0186 148.451 39.5961 144.648 33.0141L141.351 34.916C144.103 39.6787 142.459 45.7765 137.676 48.5352C132.894 51.2939 126.786 49.6674 124.034 44.9048C121.282 40.1421 122.926 34.0443 127.709 31.2856L125.806 27.9938Z" fill="#474BFF"/>
<path d="M125.707 27.4581C118.925 31.3705 116.592 40.0233 120.499 46.7855C124.407 53.5478 133.073 55.8557 139.855 51.9433L137.576 47.9986C132.974 50.6531 127.098 49.0883 124.45 44.5063C121.803 39.9244 123.384 34.0574 127.986 31.4029L125.707 27.4581Z" fill="#D8DEED"/>
<path d="M103.699 18.7828C103.699 17.3759 104.84 16.2354 106.248 16.2354H159.929C161.337 16.2354 162.478 17.3756 162.478 18.7828V21.3303H103.699V18.7828Z" fill="#E1E5F0"/>
<path d="M107.119 19.9408C107.727 19.9408 108.22 19.4483 108.22 18.8408C108.22 18.2332 107.727 17.7407 107.119 17.7407C106.511 17.7407 106.018 18.2332 106.018 18.8408C106.018 19.4483 106.511 19.9408 107.119 19.9408Z" fill="#FF5645"/>
<path d="M110.713 19.9408C111.321 19.9408 111.815 19.4483 111.815 18.8408C111.815 18.2332 111.321 17.7407 110.713 17.7407C110.105 17.7407 109.612 18.2332 109.612 18.8408C109.612 19.4483 110.105 19.9408 110.713 19.9408Z" fill="#FFCB3D"/>
<path d="M114.423 19.9408C115.031 19.9408 115.524 19.4483 115.524 18.8408C115.524 18.2332 115.031 17.7407 114.423 17.7407C113.815 17.7407 113.322 18.2332 113.322 18.8408C113.322 19.4483 113.815 19.9408 114.423 19.9408Z" fill="#3ABF7C"/>
</svg>
