<svg width="217" height="128" viewBox="0 0 217 128" fill="none" xmlns="http://www.w3.org/2000/svg">
<path d="M89.3657 127.723H20.0353L25.4786 62.944C25.8934 58.0054 29.2357 53.8003 33.9525 52.2805L54.7003 45.5967L75.448 52.2805C80.1652 53.7999 83.5071 58.0054 83.9219 62.944L89.3657 127.723Z" fill="#FCB44D"/>
<path d="M22.4603 98.8818L20.678 120.104C36.1981 122.867 60.9016 124.766 89.1705 125.364L86.9437 98.8818H22.4603Z" fill="#FCA62F"/>
<path d="M89.3662 127.723H77.5124L72.0708 56.8013C71.8699 54.4266 70.9897 52.2195 69.61 50.4014L75.4489 52.2806C80.1657 53.7996 83.5072 58.0047 83.9206 62.9428L89.3662 127.723Z" fill="#FCA62F"/>
<path d="M61.1927 35.4658V49.7284C61.1927 53.314 58.2861 56.2205 54.7006 56.2205C51.1151 56.2205 48.2085 53.314 48.2085 49.7284V35.4658H61.1927Z" fill="#873F30"/>
<path d="M54.7006 0.00195312C45.1923 0.00195312 37.4843 7.71004 37.4843 17.2183V24.6985C37.4843 33.5077 45.1923 41.6939 54.7006 41.6939C64.2089 41.6939 71.917 33.5077 71.917 24.6985V17.2183C71.9165 7.71004 64.2089 0.00195312 54.7006 0.00195312Z" fill="#A34F41"/>
<path d="M71.9174 17.2203V24.6983C71.9174 33.5088 64.2076 41.6915 54.7019 41.6915C52.8288 41.6915 51.0282 41.3728 49.3385 40.7934C56.2227 38.4422 61.1901 31.7754 61.1901 24.6983V17.2203C61.1901 9.58293 56.2227 3.10437 49.3385 0.849662C51.0282 0.299521 52.8288 0 54.7019 0C64.2076 0 71.9174 7.70983 71.9174 17.2203Z" fill="#873F30"/>
<path d="M145.07 127.723H75.7404L81.1837 62.944C81.5985 58.0054 84.9408 53.8003 89.6576 52.2805L110.405 45.5967L131.153 52.2805C135.87 53.7999 139.212 58.0054 139.627 62.944L145.07 127.723Z" fill="#24D1F8"/>
<path d="M78.1649 98.8818L75.9735 124.982C86.2734 125.363 97.2177 125.568 108.5 125.568C121.182 125.568 133.439 125.313 144.828 124.833L142.647 98.8818H78.1649Z" fill="#21C1F8"/>
<path d="M145.073 127.723H133.219L127.773 56.8013C127.572 54.4266 126.696 52.2195 125.316 50.4014L131.155 52.2806C135.872 53.7996 139.213 58.0047 139.627 62.9428L145.073 127.723Z" fill="#21C1F8"/>
<path d="M116.897 35.4658V49.7284C116.897 53.314 113.991 56.2205 110.405 56.2205C106.82 56.2205 103.913 53.314 103.913 49.7284V35.4658H116.897Z" fill="#C86F5C"/>
<path d="M110.405 0.00195312C100.897 0.00195312 93.189 7.71004 93.189 17.2183V24.6985C93.189 33.5077 100.897 41.6939 110.405 41.6939C119.914 41.6939 127.622 33.5077 127.622 24.6985V17.2183C127.622 7.71004 119.914 0.00195312 110.405 0.00195312Z" fill="#D5887A"/>
<path d="M127.622 17.2203V24.6983C127.622 33.5088 119.912 41.6915 110.407 41.6915C108.533 41.6915 106.733 41.3728 105.043 40.7934C111.927 38.4422 116.895 31.7754 116.895 24.6983V17.2203C116.895 9.58293 111.927 3.10437 105.043 0.849662C106.733 0.299521 108.533 0 110.407 0C119.912 0 127.622 7.70983 127.622 17.2203Z" fill="#C86F5C"/>
<path d="M200.776 127.723H131.445L136.889 62.944C137.303 58.0054 140.646 53.8003 145.362 52.2805L166.11 45.5967L186.858 52.2805C191.575 53.7999 194.917 58.0054 195.332 62.944L200.776 127.723Z" fill="#27D1B3"/>
<path d="M133.868 98.8818L131.651 125.273C160.69 124.53 185.602 122.403 200.076 119.381L198.353 98.8823H133.868V98.8818Z" fill="#20B69F"/>
<path d="M200.775 127.723H188.925L183.479 56.8013C183.283 54.4266 182.403 52.2195 181.023 50.4014L186.857 52.2806C191.574 53.7996 194.915 58.0047 195.333 62.9428L200.775 127.723Z" fill="#20B69F"/>
<path d="M172.602 35.4658V49.7284C172.602 53.314 169.696 56.2205 166.11 56.2205C162.525 56.2205 159.618 53.314 159.618 49.7284V35.4658H172.602Z" fill="#FDB0A0"/>
<path d="M166.11 0.00195312C156.602 0.00195312 148.894 7.71004 148.894 17.2183V24.6985C148.894 33.5077 156.602 41.6939 166.11 41.6939C175.618 41.6939 183.327 33.5077 183.327 24.6985V17.2183C183.327 7.71004 175.618 0.00195312 166.11 0.00195312Z" fill="#FFCEC0"/>
<path d="M183.327 17.2203V24.6983C183.327 33.5088 175.617 41.6915 166.111 41.6915C164.238 41.6915 162.438 41.3728 160.748 40.7934C167.632 38.4422 172.6 31.7754 172.6 24.6983V17.2203C172.6 9.58293 167.632 3.10437 160.748 0.849662C162.438 0.299521 164.238 0 166.111 0C175.617 0 183.327 7.70983 183.327 17.2203Z" fill="#FDB0A0"/>
<path d="M206.189 108.912C206.189 110.661 205.038 112.207 203.357 112.687C188.589 116.904 151.689 119.892 108.5 119.892C65.3103 119.892 28.4107 116.903 13.6429 112.687C11.9615 112.207 10.8105 110.661 10.8105 108.912V65.5658C10.8105 63.0094 13.208 61.1398 15.6902 61.7515C31.6264 65.6797 67.1851 68.4143 108.5 68.4143C149.815 68.4143 185.374 65.6797 201.309 61.7515C203.792 61.1398 206.189 63.0094 206.189 65.5658V108.912Z" fill="#DFF6FD"/>
<path d="M113.154 68.3987C111.613 68.4074 110.059 68.4118 108.5 68.4118C104.195 68.4118 99.9509 68.3812 95.7899 68.3245C102.553 73.8826 106.876 82.3094 106.876 91.7316C106.876 95.7049 106.098 99.4991 104.701 102.979L83.1105 86.1691V68.0581C78.6176 67.9315 74.2427 67.7699 70.0119 67.5735V86.1691L48.421 102.979C47.0238 99.4991 46.2467 95.7049 46.2467 91.7316C46.2467 81.5235 51.3202 72.4854 59.0746 66.9928C52.9226 66.6129 47.1592 66.1632 41.8761 65.6523C36.3965 72.9221 33.1481 81.9557 33.1481 91.7316C33.1481 101.184 36.1869 109.947 41.3391 117.082C47.7967 117.711 54.9834 118.252 62.7334 118.684C60.2054 117.392 57.8826 115.741 55.8261 113.812L70.0119 102.769V119.055C74.2427 119.243 78.6133 119.405 83.1105 119.536V102.769L97.2962 113.812C94.6896 116.261 91.6507 118.256 88.3019 119.667C94.8293 119.811 101.584 119.889 108.5 119.889C108.858 119.889 109.216 119.889 109.574 119.885C116.058 112.301 119.974 102.464 119.974 91.7316C119.974 83.1516 117.472 75.1401 113.154 68.3987Z" fill="#FB3A82"/>
<path d="M206.189 65.5668V108.91C206.189 110.66 205.037 112.209 203.358 112.688C200.221 113.584 196.086 114.422 191.101 115.192C191.117 115.188 191.129 115.184 191.144 115.18C192.839 114.697 194.002 113.136 194.002 111.371V67.6503C194.002 65.6807 192.587 64.1124 190.802 63.7587C194.895 63.1335 198.425 62.4615 201.311 61.7499C203.791 61.1403 206.189 63.0077 206.189 65.5668Z" fill="#9CE6FB"/>
<path d="M10.8107 68.7109V81.2437H0V74.5018C0 71.3018 2.59046 68.7114 5.78652 68.7114H10.8107V68.7109Z" fill="#873F30"/>
<path d="M6.26462 100.899H14.6844C18.0276 100.899 20.7377 98.1885 20.7377 94.8453V84.2437C20.7377 80.9005 18.0276 78.1904 14.6844 78.1904H0V94.6335C0 98.0937 2.80485 100.899 6.26462 100.899Z" fill="#A34F41"/>
<path d="M206.189 68.7109V81.2437H217V74.5018C217 71.3018 214.41 68.7114 211.214 68.7114H206.189V68.7109Z" fill="#FDB0A0"/>
<path d="M210.735 100.9H202.316C198.972 100.9 196.262 98.1895 196.262 94.8463V84.2447C196.262 80.9015 198.972 78.1914 202.316 78.1914H217V94.6345C217 98.0947 214.195 100.9 210.735 100.9Z" fill="#FFCEC0"/>
</svg>
