<svg width="196" height="182" viewBox="0 0 196 182" fill="none" xmlns="http://www.w3.org/2000/svg">
<path d="M78.3382 0H1.19905C0.536834 0 0 0.475294 0 1.0616V52.903C0 53.4893 0.536834 53.9646 1.19905 53.9646H78.3382C79.0004 53.9646 79.5372 53.4893 79.5372 52.903V1.0616C79.5372 0.475294 79.0004 0 78.3382 0Z" fill="#F2F6FB"/>
<path d="M17.6297 27.8254C21.5293 27.8254 24.6905 25.0436 24.6905 21.6119C24.6905 18.1803 21.5293 15.3984 17.6297 15.3984C13.7302 15.3984 10.569 18.1803 10.569 21.6119C10.569 25.0436 13.7302 27.8254 17.6297 27.8254Z" fill="#D8DEED"/>
<path d="M17.6257 21.5237C16.6136 21.5237 15.7931 20.8114 15.7931 19.9327C15.7931 19.0541 16.6136 18.3418 17.6257 18.3418C18.6379 18.3418 19.4583 19.0541 19.4583 19.9327C19.4583 20.8114 18.6379 21.5237 17.6257 21.5237ZM17.6257 22.3191C19.4602 22.3191 20.9474 23.6102 20.9474 25.2027H14.3041C14.3041 23.6102 15.7912 22.3191 17.6257 22.3191Z" fill="#F2F6FB"/>
<path d="M11.6745 29.4604H23.5842C24.4002 29.4604 25.0617 30.0461 25.0617 30.7686C25.0617 31.491 24.4002 32.0767 23.5842 32.0767H11.6745C10.8585 32.0767 10.197 31.491 10.197 30.7686C10.197 30.0461 10.8585 29.4604 11.6745 29.4604ZM13.5326 33.7118H21.7262C22.5421 33.7118 23.2036 34.2974 23.2036 35.0199C23.2036 35.7423 22.5421 36.328 21.7262 36.328H13.5326C12.7166 36.328 12.0551 35.7423 12.0551 35.0199C12.0551 34.2974 12.7166 33.7118 13.5326 33.7118Z" fill="#E1E5F0"/>
<path d="M12.7826 40.6616H22.4761C23.9041 40.6616 25.0617 41.6865 25.0617 42.9508C25.0617 44.2151 23.9041 45.24 22.4761 45.24H12.7826C11.3546 45.24 10.197 44.2151 10.197 42.9508C10.197 41.6865 11.3546 40.6616 12.7826 40.6616ZM34.9024 40.6616H44.596C46.0239 40.6616 47.1815 41.6865 47.1815 42.9508C47.1815 44.2151 46.0239 45.24 44.596 45.24H34.9024C33.4744 45.24 32.3168 44.2151 32.3168 42.9508C32.3168 41.6865 33.4744 40.6616 34.9024 40.6616ZM57.1791 40.6616H66.8727C68.3006 40.6616 69.4582 41.6865 69.4582 42.9508C69.4582 44.2151 68.3006 45.24 66.8727 45.24H57.1791C55.7511 45.24 54.5935 44.2151 54.5935 42.9508C54.5935 41.6865 55.7511 40.6616 57.1791 40.6616Z" fill="#474BFF"/>
<path d="M39.7491 27.8254C43.6486 27.8254 46.8098 25.0436 46.8098 21.6119C46.8098 18.1803 43.6486 15.3984 39.7491 15.3984C35.8496 15.3984 32.6884 18.1803 32.6884 21.6119C32.6884 25.0436 35.8496 27.8254 39.7491 27.8254Z" fill="#D8DEED"/>
<path d="M39.7455 21.5237C38.7334 21.5237 37.9129 20.8114 37.9129 19.9327C37.9129 19.0541 38.7334 18.3418 39.7455 18.3418C40.7576 18.3418 41.5781 19.0541 41.5781 19.9327C41.5781 20.8114 40.7576 21.5237 39.7455 21.5237ZM39.7455 22.3191C41.58 22.3191 43.0672 23.6102 43.0672 25.2027H36.4238C36.4238 23.6102 37.911 22.3191 39.7455 22.3191Z" fill="#F2F6FB"/>
<path d="M33.7942 29.4604H45.704C46.52 29.4604 47.1815 30.0461 47.1815 30.7686C47.1815 31.491 46.52 32.0767 45.704 32.0767H33.7942C32.9783 32.0767 32.3168 31.491 32.3168 30.7686C32.3168 30.0461 32.9783 29.4604 33.7942 29.4604ZM33.7942 33.7118H45.704C46.52 33.7118 47.1815 34.2974 47.1815 35.0199C47.1815 35.7423 46.52 36.328 45.704 36.328H33.7942C32.9783 36.328 32.3168 35.7423 32.3168 35.0199C32.3168 34.2974 32.9783 33.7118 33.7942 33.7118Z" fill="#E1E5F0"/>
<path d="M62.0259 27.8254C65.9255 27.8254 69.0867 25.0436 69.0867 21.6119C69.0867 18.1803 65.9255 15.3984 62.0259 15.3984C58.1264 15.3984 54.9652 18.1803 54.9652 21.6119C54.9652 25.0436 58.1264 27.8254 62.0259 27.8254Z" fill="#D8DEED"/>
<path d="M62.022 21.5237C61.0098 21.5237 60.1893 20.8114 60.1893 19.9327C60.1893 19.0541 61.0098 18.3418 62.022 18.3418C63.0341 18.3418 63.8546 19.0541 63.8546 19.9327C63.8546 20.8114 63.0341 21.5237 62.022 21.5237ZM62.022 22.3191C63.8565 22.3191 65.3436 23.6102 65.3436 25.2027H58.7003C58.7003 23.6102 60.1875 22.3191 62.022 22.3191Z" fill="#F2F6FB"/>
<path d="M57.9293 29.4604H66.1229C66.9389 29.4604 67.6004 30.0461 67.6004 30.7686C67.6004 31.491 66.9389 32.0767 66.1229 32.0767H57.9293C57.1133 32.0767 56.4518 31.491 56.4518 30.7686C56.4518 30.0461 57.1133 29.4604 57.9293 29.4604ZM56.0712 33.7118H67.981C68.797 33.7118 69.4585 34.2974 69.4585 35.0199C69.4585 35.7423 68.797 36.328 67.981 36.328H56.0712C55.2552 36.328 54.5938 35.7423 54.5938 35.0199C54.5938 34.2974 55.2552 33.7118 56.0712 33.7118Z" fill="#E1E5F0"/>
<path d="M0 3.05198C0 1.36642 1.54427 0 3.44634 0H76.0909C77.9942 0 79.5372 1.36605 79.5372 3.05198V6.10396H0V3.05198Z" fill="#D8DEED"/>
<path d="M4.62779 4.43902C5.45088 4.43902 6.11813 3.84898 6.11813 3.12112C6.11813 2.39327 5.45088 1.80322 4.62779 1.80322C3.8047 1.80322 3.13745 2.39327 3.13745 3.12112C3.13745 3.84898 3.8047 4.43902 4.62779 4.43902Z" fill="#FF5645"/>
<path d="M9.49119 4.43902C10.3143 4.43902 10.9815 3.84898 10.9815 3.12112C10.9815 2.39327 10.3143 1.80322 9.49119 1.80322C8.6681 1.80322 8.00085 2.39327 8.00085 3.12112C8.00085 3.84898 8.6681 4.43902 9.49119 4.43902Z" fill="#FFCB3D"/>
<path d="M14.5112 4.43902C15.3343 4.43902 16.0016 3.84898 16.0016 3.12112C16.0016 2.39327 15.3343 1.80322 14.5112 1.80322C13.6881 1.80322 13.0209 2.39327 13.0209 3.12112C13.0209 3.84898 13.6881 4.43902 14.5112 4.43902Z" fill="#3ABF7C"/>
<path d="M125.501 34.502H76.5396C74.3322 34.502 72.5427 36.0863 72.5427 38.0406V85.6356C72.5427 87.5899 74.3322 89.1743 76.5396 89.1743H125.501C127.708 89.1743 129.498 87.5899 129.498 85.6356V38.0406C129.498 36.0863 127.708 34.502 125.501 34.502Z" fill="#E1E5F0"/>
<path d="M80.9715 70.5688H121.101C121.672 70.5688 122.135 70.979 122.135 71.4849C122.135 71.9908 121.672 72.4009 121.101 72.4009H80.9715C80.4001 72.4009 79.9369 71.9908 79.9369 71.4849C79.9369 70.979 80.4001 70.5688 80.9715 70.5688ZM80.9715 76.5229H121.101C121.672 76.5229 122.135 76.9331 122.135 77.439C122.135 77.9449 121.672 78.355 121.101 78.355H80.9715C80.4001 78.355 79.9369 77.9449 79.9369 77.439C79.9369 76.9331 80.4001 76.5229 80.9715 76.5229ZM86.4081 73.5459H115.664C116.236 73.5459 116.699 73.956 116.699 74.4619C116.699 74.9678 116.236 75.3779 115.664 75.3779H86.4081C85.8367 75.3779 85.3735 74.9678 85.3735 74.4619C85.3735 73.956 85.8367 73.5459 86.4081 73.5459ZM88.997 79.5H113.075C113.647 79.5 114.11 79.9101 114.11 80.416C114.11 80.9219 113.647 81.332 113.075 81.332H88.997C88.4256 81.332 87.9624 80.9219 87.9624 80.416C87.9624 79.9101 88.4256 79.5 88.997 79.5Z" fill="#F2F6FB"/>
<path d="M100.907 53.5918C104.767 53.5918 107.896 50.8235 107.896 47.4087C107.896 43.9938 104.767 41.2256 100.907 41.2256C97.0461 41.2256 93.9166 43.9938 93.9166 47.4087C93.9166 50.8235 97.0461 53.5918 100.907 53.5918Z" fill="#474BFF"/>
<path d="M100.904 47.3468C100.199 47.3468 99.6273 46.848 99.6273 46.2327C99.6273 45.6174 100.199 45.1187 100.904 45.1187C101.609 45.1187 102.181 45.6174 102.181 46.2327C102.181 46.848 101.609 47.3468 100.904 47.3468ZM100.904 47.9038C102.182 47.9038 103.218 48.8079 103.218 49.9231H98.59C98.59 48.8079 99.626 47.9038 100.904 47.9038Z" fill="#F2F6FB"/>
<path d="M108.465 58.8589H93.3481C92.7767 58.8589 92.3135 59.269 92.3135 59.7749C92.3135 60.2808 92.7767 60.6909 93.3481 60.6909H108.465C109.037 60.6909 109.5 60.2808 109.5 59.7749C109.5 59.269 109.037 58.8589 108.465 58.8589Z" fill="#F2F6FB"/>
<path d="M111.463 55.8818H90.3504C89.779 55.8818 89.3158 56.292 89.3158 56.7979C89.3158 57.3038 89.779 57.7139 90.3504 57.7139H111.463C112.034 57.7139 112.497 57.3038 112.497 56.7979C112.497 56.292 112.034 55.8818 111.463 55.8818Z" fill="#F2F6FB"/>
<path d="M71.7637 181.86L71.6837 181.895C71.2641 182.09 70.7245 181.984 70.5246 181.648L47.1231 143.59C46.9033 143.236 47.0832 142.793 47.5028 142.599L47.5828 142.563C48.0024 142.369 48.542 142.475 48.7418 142.811L54.5373 152.224C58.3143 158.381 62.0913 164.521 65.8883 170.678L72.1434 180.834C72.3632 181.188 72.1833 181.648 71.7637 181.86Z" fill="#D8DEED"/>
<path d="M14.3889 141.944H29.0373C37.9103 141.944 46.7833 141.944 55.6363 141.944H69.2256C69.7052 141.944 70.1249 142.298 70.1249 142.722V142.811C70.1249 143.235 69.7252 143.589 69.2256 143.589H14.3489C13.8693 143.589 13.4496 143.235 13.4496 142.811V142.722C13.4496 142.298 13.8693 141.944 14.3889 141.944Z" fill="#D8DEED"/>
<path d="M6.51482 180.834L12.7699 170.678C16.5469 164.521 20.3239 158.381 24.1209 152.224L29.9164 142.811C30.1162 142.475 30.6558 142.351 31.0754 142.563L31.1554 142.599C31.5751 142.793 31.7549 143.253 31.5351 143.59L8.13354 181.648C7.9337 181.984 7.39413 182.108 6.97446 181.896L6.89452 181.86C6.47485 181.648 6.29499 181.188 6.51482 180.834Z" fill="#D8DEED"/>
<path d="M8.17356 91.6241L10.0721 105.213C11.2311 113.44 12.3702 121.667 13.5293 129.877L15.2879 142.475C15.3479 142.917 15.0082 143.359 14.5285 143.412L14.4286 143.43C13.949 143.483 13.5093 143.165 13.4294 142.687L6.29504 91.801C6.23509 91.3587 6.57482 90.9164 7.05444 90.8633L7.15436 90.8456C7.65397 90.7925 8.11361 91.1464 8.17356 91.6241Z" fill="#D8DEED"/>
<path d="M130.657 181.789L130.737 181.824C131.157 182.019 131.696 181.913 131.896 181.577L155.298 143.518C155.517 143.164 155.338 142.722 154.918 142.527L154.838 142.492C154.418 142.297 153.879 142.404 153.679 142.74L147.883 152.153C144.106 158.31 140.329 164.449 136.532 170.607L130.277 180.763C130.057 181.116 130.237 181.577 130.657 181.789Z" fill="#D8DEED"/>
<path d="M188.751 141.873H174.103C165.23 141.873 156.357 141.873 147.504 141.873H133.915C133.435 141.873 133.015 142.226 133.015 142.651V142.74C133.015 143.164 133.415 143.518 133.915 143.518H188.791C189.271 143.518 189.691 143.164 189.691 142.74V142.651C189.691 142.226 189.271 141.873 188.751 141.873Z" fill="#D8DEED"/>
<path d="M189.631 138.423V125.701C189.631 117.987 189.631 110.29 189.631 102.594V90.7922C189.631 90.3675 181.337 90.0137 171.365 90.0137H169.287C159.335 90.0137 151.021 90.3675 151.021 90.7922V138.458C151.021 138.883 159.315 139.236 169.287 139.236H171.365C181.317 139.236 189.631 138.865 189.631 138.423Z" fill="#D8DEED"/>
<path d="M195.906 180.763L189.651 170.607C185.873 164.449 182.096 158.31 178.299 152.153L172.504 142.74C172.304 142.404 171.765 142.28 171.345 142.492L171.265 142.527C170.845 142.722 170.666 143.182 170.885 143.518L194.287 181.577C194.487 181.913 195.026 182.037 195.446 181.824L195.526 181.789C195.946 181.577 196.125 181.117 195.906 180.763Z" fill="#D8DEED"/>
<path d="M113.971 181.887H145.726C146.225 181.887 146.625 181.533 146.625 181.091C146.625 180.648 146.225 180.294 145.726 180.294H113.971C113.471 180.294 113.071 180.648 113.071 181.091C113.071 181.533 113.471 181.887 113.971 181.887ZM172.424 181.887C172.924 181.887 173.324 181.581 173.324 181.213V180.968C173.324 180.601 172.904 180.294 172.424 180.294H151.941C151.441 180.294 151.041 180.601 151.041 180.968V181.213C151.041 181.581 151.461 181.887 151.941 181.887H172.424Z" fill="#A339FF"/>
<path d="M113.672 180.352C113.776 180.315 113.89 180.294 114.011 180.294H145.765C145.893 180.294 146.015 180.317 146.124 180.359C146.151 180.279 146.165 180.194 146.165 180.105L145.5 169.327L131.737 169.147C131.517 169.147 131.317 169.201 131.137 169.327C128.859 171.515 126.681 172.734 125.102 173.452C123.883 174.008 119.806 175.55 117.967 176.303C117.402 176.53 116.565 176.937 115.457 177.524C115.193 177.664 114.956 177.838 114.752 178.042C114.178 178.616 113.817 179.13 113.671 179.585C113.631 179.693 113.631 179.782 113.611 179.89C113.591 179.98 113.611 180.069 113.611 180.159V180.177C113.625 180.238 113.646 180.296 113.672 180.352ZM151.552 180.376C151.679 180.324 151.825 180.294 151.981 180.294H172.167L167.528 169.342L153.22 171.058L151.552 180.376Z" fill="#474961"/>
<path d="M146.826 138.367C147.402 138.621 147.94 138.858 148.44 139.078L148.543 140.478C148.663 142.316 148.803 143.93 148.963 145.352C149.083 146.471 150.622 159.144 151.181 163.794C151.301 164.849 152.16 165.744 153.339 166.032C155.118 166.479 156.257 166.735 160.873 166.879C161.173 166.895 161.473 166.879 161.753 166.863C166.229 166.543 168.467 165.968 168.967 165.776C169.607 165.536 169.946 165.424 170.286 165.153C171.485 164.226 171.405 162.756 171.425 162.212C171.526 158.749 171.798 149.425 171.88 141.403C172.001 141.403 172.123 141.404 172.244 141.404C173.382 141.404 174.476 140.979 175.484 140.236C176.771 139.281 181.297 136.121 181.578 129.473C181.773 124.848 180.863 121.335 178.849 118.934C178.849 118.916 176.341 115.413 174.818 115.413H152.381C150.822 115.46 143.861 115.619 131.497 115.892L131.504 115.934C131.435 115.933 131.366 115.931 131.297 115.93C126.241 115.848 122.144 119.417 122.264 123.775C122.264 123.808 122.264 123.825 122.264 123.858C122.584 137.377 126.321 156.637 126.581 163.15C126.6 163.397 126.68 163.939 127.1 164.515C128.399 166.275 131.437 165.88 138.531 166.028C144.566 166.16 147.004 166.554 148.243 165.107C148.923 164.318 148.903 163.413 148.883 163.002C148.389 154.75 147.669 146.421 146.826 138.367Z" fill="#474BFF"/>
<path opacity="0.176986" d="M146.869 138.333C147.445 138.587 147.983 138.824 148.483 139.044L147.567 126.648C147.547 125.929 147.447 121.582 151.423 118.817C154.321 116.819 157.838 116.692 160.177 116.612C163.774 116.484 166.572 117.315 167.111 117.475C167.791 117.682 168.13 117.794 168.47 117.938C172.347 119.6 172.047 127.591 172.007 129.045C171.967 130.883 171.947 133.744 171.947 137.068C171.947 138.42 171.938 139.863 171.923 141.35C172.03 141.351 172.137 141.351 172.244 141.351C173.382 141.351 174.476 140.927 175.484 140.184C176.771 139.228 181.297 136.068 181.578 129.42C181.773 124.795 180.863 121.282 178.849 118.881C178.849 118.863 176.341 115.36 174.818 115.36H152.381C150.862 115.406 144.046 115.587 131.934 115.904C133.41 115.933 134.875 115.962 136.355 115.991C140.852 116.089 144.589 119.033 145.068 122.882C145.703 127.846 146.313 133.03 146.869 138.333Z" fill="#444444"/>
<path d="M146.737 94.9787C143.799 93.0325 136.205 87.7422 136.205 87.7422C133.727 89.7238 139.682 93.2802 139.682 93.2802" fill="#482D1F"/>
<path d="M133.178 86.9899C134.669 84.7854 134.241 81.8852 132.004 80.1013C129.461 78.0743 125.544 78.2561 123.254 80.5072C120.965 82.7584 121.17 86.2265 123.713 88.2534C125.898 89.9954 129.098 90.1061 131.408 88.6739L138.506 94.3323C138.67 94.463 138.923 94.4513 139.071 94.3061L140.274 93.1227C140.422 92.9775 140.409 92.7537 140.245 92.6229L133.178 86.9899ZM130.977 86.6636C129.426 88.1886 126.773 88.3117 125.05 86.9386C123.328 85.5655 123.189 83.2161 124.74 81.6911C126.29 80.1662 128.944 80.043 130.666 81.4161C132.389 82.7892 132.528 85.1386 130.977 86.6636Z" fill="#474961"/>
<path d="M151.116 89.1759C150.817 89.8714 150.574 90.5856 150.388 91.3184C149.282 95.6764 147.476 98.2426 148.72 100.329C149.454 101.559 150.866 101.928 151.96 102.032L152.711 110.349C153.009 112.6 153.209 113.853 153.309 114.107C153.29 116.189 156.244 115.659 161.743 115.659C168.141 115.659 176.677 116.422 177.185 114.325C177.644 112.436 177.534 108.473 176.856 102.437C179.079 101.922 180.715 101.031 181.132 100.311C182.305 98.3092 180.959 95.0744 179.458 91.444C177.649 87.0922 176.668 84.9512 174.455 83.1825C172.623 81.721 170.62 81.2164 168.933 81.4984C167.572 81.0134 166.076 80.7985 164.53 80.9191L160.15 81.2613C155.485 81.5948 151.871 85.0501 151.116 89.1759Z" fill="#A339FF"/>
<path opacity="0.176986" d="M150.979 89.4341C150.722 90.0596 150.51 90.7002 150.344 91.3556C149.238 95.7136 147.431 98.2798 148.676 100.366C149.401 101.581 150.787 101.957 151.875 102.065L151.828 101.537L151.814 101.36L150.945 91.8897L150.92 91.572C150.852 90.8498 150.874 90.1332 150.979 89.4341Z" fill="#444444"/>
<path d="M166.455 80.9409C166.109 79.9131 165.612 78.2144 164.963 75.8449L164.906 74.8478C164.946 74.6531 164.983 74.6468 165.183 74.5938C165.702 74.4699 165.982 74.1713 166.341 73.8174C167.001 73.145 167.181 72.1542 166.861 71.2519C166.461 70.3849 165.422 69.7302 164.463 69.801C164.103 69.8364 163.763 69.9602 163.444 70.1372L163.424 70.1549C163.324 70.2433 163.184 70.261 163.044 70.2787C162.704 70.2787 162.424 70.0664 162.404 69.7656L162.225 65.1477C162.225 64.8469 161.965 64.6346 161.625 64.6346C160.886 64.6346 160.166 64.5992 159.427 64.4576C159.327 64.4576 159.247 64.4399 159.167 64.4399C158.448 64.3692 154.591 64.1568 152.512 66.687C152.332 66.9347 152.153 67.1824 152.013 67.4301C151.653 68.0671 151.493 68.7748 151.553 69.5179L151.773 72.7381C151.813 73.0566 151.853 73.3751 151.933 73.7112C152.892 77.6922 154.93 80.4524 156.649 80.5408C157.528 80.5585 158.408 80.4701 159.267 80.2401C159.374 80.1927 159.306 80.2298 160.507 79.7998L160.752 80.9707C158.366 81.3147 157.039 81.9868 156.893 82.0528C157.318 82.468 157.377 82.6082 157.744 82.8707C161.849 85.8075 168.512 81.9405 169.353 81.4452C168.328 81.2117 167.362 81.0483 166.455 80.9409ZM148.925 105.321L148.604 107.354L132.736 110.006C132.267 109.934 131.815 109.895 131.378 109.883C129.875 109.828 128.581 110.086 127.705 110.289C125.514 110.197 123.344 110.086 121.173 109.994C119.4 109.625 115.435 109.072 115.31 111.285C115.31 111.285 117.021 111.691 119.337 112.226C119.879 112.351 120.454 112.483 121.049 112.62C124.121 113.559 128.14 115.495 130.454 116.152L154.163 115.42C153.805 115.031 153.538 114.589 153.379 114.092C153.279 113.838 153.08 112.586 152.782 110.334L152.495 107.162C156.825 109.342 160.846 111.165 164.558 112.633C166.808 113.523 169.557 114.22 171.764 114.888C176.905 115.814 177.876 114.175 178.463 113.638C179.146 113.012 181.422 111.236 180.397 101.036C178.534 102.275 174.084 103.482 169.643 102.413C168.495 102.137 167.469 101.876 166.565 101.631L166.638 102.246L142.899 93.4245C142.842 93.3854 142.78 93.3507 142.714 93.3212L135.859 90.4372C135.339 90.2248 134.7 90.4195 134.44 90.8795L134.2 91.2864C133.957 91.7342 134.152 92.2442 134.606 92.4957C134.123 92.4058 133.645 92.6073 133.441 93.0134L133.201 93.4203C132.997 93.7958 133.101 94.2149 133.408 94.4888C133.146 94.5587 132.912 94.7161 132.768 94.9483L132.505 95.3436C132.217 95.8086 132.424 96.3675 132.93 96.6213L136.508 98.3356C140.88 100.933 145.019 103.261 148.925 105.321ZM131.678 165.879L131.497 169.38L145.5 170.337L145.439 166.096C143.907 166.185 141.734 166.044 138.574 165.976C135.633 165.914 133.389 165.946 131.678 165.879ZM153.61 166.036L153.227 171.397L167.624 169.883L166.951 166.209C165.767 166.419 164.07 166.648 161.795 166.81C161.516 166.826 161.216 166.842 160.916 166.826C156.5 166.689 155.266 166.449 153.61 166.036Z" fill="#BF865F"/>
<path d="M165.471 77.802C165.703 78.7137 165.908 79.4681 166.05 79.8509C166.366 79.8509 166.683 79.8509 167.001 79.8509C167.478 79.8509 169.205 79.6903 170.818 79.6032C170.818 79.6032 170.938 79.6032 171.038 79.5855C171.557 79.5148 172.057 79.444 172.556 79.214C172.556 79.214 172.716 79.1609 172.856 79.0547C175.674 77.0023 176.294 74.0652 175.094 72.4197C174.235 71.2697 172.556 70.8273 172.317 70.7566C171.997 70.6681 171.677 70.6327 171.397 70.615C171.288 70.325 171.179 70.0203 171.07 69.7142C171.041 68.6814 170.782 67.3089 169.759 66.174C169.339 65.6963 168.779 65.3424 168.18 65.077C166.581 64.3693 165.362 64.7231 162.205 64.6524C161.565 64.6524 159.358 64.4034 159.278 64.4034C156.022 64.221 153.746 65.0176 152.449 66.7933C153.41 66.6635 154.191 66.6635 154.79 66.7933C158.667 67.6425 159.807 73.5875 161.585 73.3398C161.602 73.3379 161.62 73.3353 161.639 73.3316L161.625 73.3221L162.484 71.2343C162.684 70.8096 163.024 70.4735 163.424 70.1904C163.743 70.0134 164.083 69.8896 164.443 69.8542C165.402 69.7834 166.441 70.4381 166.841 71.3051C166.906 71.4536 166.955 71.6052 166.987 71.7578C167.098 72.5091 166.879 73.2692 166.341 73.8175C166.311 73.8471 166.28 73.8763 166.249 73.9049C166.247 73.9066 166.246 73.9084 166.245 73.9102C165.826 74.2925 165.282 74.5555 164.686 74.6595C164.933 75.8336 165.325 77.3657 165.471 77.802ZM154.591 71.8005C154.99 71.8889 155.65 71.9774 156.189 71.8535C157.129 71.6766 156.249 71.1812 155.39 71.1458C154.99 71.1281 154.671 71.2697 154.471 71.4112C154.331 71.5351 154.391 71.7651 154.591 71.8005ZM151.215 71.8009C151.626 71.8935 152.259 72.0043 152.827 71.8715C153.791 71.6725 152.899 71.1732 152.054 71.1499C151.611 71.1309 151.324 71.2774 151.117 71.4178C150.949 71.5374 151.011 71.7635 151.215 71.8009Z" fill="#482D1F"/>
<path opacity="0.2" d="M149.232 105.431C149.134 105.38 149.037 105.329 148.938 105.278L148.603 107.372L132.738 110.006C132.269 109.934 131.815 109.895 131.378 109.884C129.875 109.828 128.581 110.086 127.705 110.289C125.514 110.197 123.344 110.086 121.173 109.994C119.4 109.625 115.435 109.072 115.31 111.285C115.31 111.285 117.021 111.691 119.337 112.226C119.879 112.351 120.454 112.483 121.049 112.62C124.121 113.559 128.14 115.495 130.455 116.152L154.163 115.42C153.805 115.031 153.538 114.589 153.379 114.092C153.279 113.838 153.08 112.586 152.782 110.334L152.513 107.361L152.494 107.294L152.507 107.291L152.495 107.162L149.232 105.431Z" fill="#8C2A00"/>
<path d="M106.304 104.804C106.123 105.348 106.461 105.907 107.074 106.067L134.535 113.538C135.148 113.698 135.78 113.399 135.961 112.856C136.143 112.313 135.805 111.754 135.191 111.593L107.731 104.123C107.137 103.963 106.486 104.261 106.304 104.804Z" fill="#474961"/>
<path d="M160.515 79.7779L162.081 79.1577L160.809 81.2246L160.515 79.7779Z" fill="#482D1F"/>
<path d="M152.672 73.9592C152.852 73.7469 152.792 73.2691 152.732 72.9507C152.712 72.7206 152.472 72.5791 152.252 72.5791C152.112 72.5968 151.933 72.6676 151.893 72.9153C151.753 73.4991 152.432 74.313 152.672 73.9592ZM155.969 73.9769C156.169 73.7645 156.089 73.2691 156.029 72.9684C156.009 72.7383 155.77 72.5968 155.55 72.5968C155.41 72.6145 155.23 72.6853 155.19 72.933C155.05 73.5168 155.71 74.3307 155.969 73.9769Z" fill="#482D1F"/>
<path d="M153.02 73.6652L152.842 72.6349C152.825 72.5383 152.9 72.448 153.009 72.4332C153.118 72.4184 153.22 72.4846 153.237 72.5812L153.417 73.6225L153.419 73.6446L153.476 75.519C153.484 75.5399 153.503 75.5535 153.529 75.5554C153.771 75.5282 154.082 75.5025 154.464 75.4781C154.574 75.4711 154.67 75.5444 154.678 75.6419C154.686 75.7394 154.603 75.8241 154.493 75.8311C154.11 75.8555 153.801 75.8812 153.566 75.908L153.544 75.9094C153.311 75.913 153.121 75.769 153.08 75.574L153.077 75.5467L153.02 73.6652Z" fill="#482D1F"/>
<path d="M154.63 77.2679C154.77 77.2502 155.13 77.1794 155.21 76.9848C155.21 76.9494 155.25 76.8963 155.23 76.8609C155.17 76.7725 154.55 76.7725 154.55 76.7725C153.731 76.7902 153.531 76.7548 153.471 76.8432C153.451 76.8963 153.451 76.9671 153.591 77.1263C153.771 77.4271 154.431 77.3209 154.63 77.2679Z" fill="#482D1F"/>
<path d="M166.738 101.448L165.644 92.5035C165.626 92.3577 165.745 92.2268 165.909 92.211C166.074 92.1953 166.222 92.3006 166.24 92.4463L167.334 101.391C167.352 101.536 167.233 101.667 167.068 101.683C166.903 101.699 166.756 101.594 166.738 101.448Z" fill="#482D1F"/>
<path d="M77.1134 180.295H49.3922C48.8864 180.295 48.4817 180.649 48.4817 181.091C48.4817 181.533 48.8864 181.887 49.3922 181.887H81.5443H104.438C104.937 181.887 105.337 181.533 105.337 181.091C105.337 180.649 104.937 180.295 104.438 180.295H77.1134Z" fill="#DE3190"/>
<path d="M104.706 180.312C104.747 180.241 104.778 180.164 104.797 180.083V180.065C104.797 179.976 104.817 179.888 104.797 179.8C104.777 179.693 104.777 179.605 104.737 179.499C104.478 178.703 103.778 178.03 103.319 177.659C103.259 177.606 103.219 177.588 103.159 177.553C102.279 177.075 101.38 176.632 100.441 176.261C98.6023 175.518 94.5255 173.996 93.3065 173.448C91.7277 172.74 89.5494 171.537 87.2712 169.378C87.0914 169.254 86.8915 169.201 86.6717 169.201L72.9425 169.272C72.363 169.272 71.9034 169.697 71.9433 170.227L72.0725 174.442C71.4912 174.199 70.9 173.929 70.235 173.589C69.29 173.111 67.9629 172.333 66.475 171.165C65.6506 170.528 64.8061 169.891 63.9818 169.254L51.5356 169.113L48.9362 180.446C49.0862 180.351 49.2713 180.295 49.4723 180.295H77.1936H104.518C104.582 180.295 104.646 180.301 104.706 180.312Z" fill="#474961"/>
<path opacity="0.176986" d="M81.3354 180.295H104.487C104.539 180.214 104.577 180.125 104.6 180.029V180.012C104.6 179.923 104.62 179.835 104.6 179.746C104.58 179.64 104.58 179.552 104.54 179.445C104.28 178.649 103.581 177.977 103.121 177.605C103.061 177.552 103.021 177.535 102.961 177.499C102.082 177.021 101.182 176.579 100.243 176.208C98.4047 175.464 94.3279 173.943 93.1088 173.394C91.5301 172.687 89.3518 171.483 87.0736 169.325C86.8937 169.201 86.6939 169.148 86.4741 169.148L72.7449 169.219C72.1654 169.219 71.9007 169.591 71.9407 170.122L72.0755 174.533C73.4502 175.096 74.824 175.548 77.0615 176.491C78.0208 176.898 78.94 177.358 79.8393 177.871C80.279 178.225 81.0384 178.95 81.2782 179.799C81.3181 179.941 81.3181 180.082 81.3381 180.206C81.3381 180.236 81.3372 180.266 81.3354 180.295H81.3354Z" fill="#444444"/>
<path d="M74.7086 171.665C74.7771 171.672 74.8466 171.676 74.9168 171.676L87.8941 171.553H88.9429C89.974 171.553 90.8451 170.848 90.8984 169.806C91.0229 167.702 91.1829 164.933 91.3784 161.733C91.9117 153.66 92.1962 151.089 92.5161 144.868C92.5695 143.825 92.6228 142.89 92.6584 142.009C92.8006 137.82 93.1739 133.9 93.9028 128.776C94.3116 125.935 94.5072 124.173 94.525 122.681C94.5427 121.296 94.1339 119.93 93.3517 118.797C92.9606 118.24 92.5161 117.754 91.9828 117.341C90.614 116.28 88.783 115.381 87.3252 115.471C83.547 115.487 79.7687 115.489 75.9904 115.501C75.199 115.335 74.3162 115.252 73.342 115.254L71.4473 115.272C71.4581 115.252 63.4805 115.214 47.5147 115.16C42.5689 111.722 37.1042 110.281 31.1206 110.836C28.7324 111.057 26.5684 111.661 24.6288 112.646C22.4876 113.719 20.618 115.255 19.0201 117.254C18.0348 118.166 15.0769 122.329 15.6643 128.67C15.778 129.838 16.0243 132.439 17.6159 134.916C19.2832 137.499 21.3294 139.393 24.7588 140.472C27.7903 141.427 31.3334 141.763 35.0091 141.392C40.1879 140.519 46.1775 139.794 52.9779 139.216C51.1416 143.665 49.9518 146.462 49.4087 147.606C48.594 149.305 46.3822 156.638 45.5515 162.256C45.1452 165.004 45.2871 167.433 45.9771 169.544C46.3979 170.832 47.7302 171.717 49.244 171.716L66.2524 171.701L73.888 171.665H74.7086Z" fill="#3ABF7C"/>
<path opacity="0.176986" d="M75.7148 115.502C77.4003 115.82 78.6865 116.506 79.5733 117.559C81.4878 119.832 80.9362 122.018 80.9362 123.363V123.451C80.9173 124.92 80.7089 126.653 80.2921 129.449C79.5152 134.492 79.1173 138.331 78.9658 142.471C78.9279 143.321 78.871 144.258 78.8142 145.285C78.4921 151.389 78.17 153.919 77.6016 161.881C77.3742 165.03 77.2037 167.737 77.09 169.825C77.0332 170.851 76.1048 171.665 75.0059 171.665H74.7029C74.7732 171.674 74.8446 171.678 74.9168 171.678L87.8941 171.553H88.943C89.974 171.553 90.8984 170.797 90.8984 169.635C91.0229 167.538 91.1829 164.778 91.3784 161.587C91.9117 153.54 92.1962 150.977 92.5161 144.775C92.5695 143.736 92.6228 142.804 92.6584 141.926C92.8006 137.75 93.1739 133.842 93.9028 128.734C94.3116 125.902 94.5072 124.146 94.525 122.658C94.5427 121.278 94.1339 119.916 93.3517 118.787C92.9606 118.231 92.5161 117.747 91.9828 117.335C90.614 116.278 88.783 115.381 87.3252 115.471C83.4551 115.487 79.585 115.489 75.7148 115.502Z" fill="#444444"/>
<path d="M44.7286 82.9044C46.4672 84.1053 47.8715 85.9529 48.1347 86.6306C50.3169 92.2499 52.9452 92.0273 53.155 93.2446C53.4689 95.0657 51.0609 95.2872 51.0609 95.2872C49.9426 95.3821 49.0924 95.4545 48.5103 95.5043L48.3719 100.531L48.3589 100.708L48.1263 109.514L48.0741 111.233C48.0797 111.374 48.0646 111.499 48.0502 111.641C48.0365 111.801 48.0222 111.943 48.0085 112.103C47.9646 112.511 47.8801 112.903 47.7556 113.297C47.702 113.458 47.6683 113.618 47.5947 113.78C30.9646 114.294 22.5989 113.266 22.4976 110.696L22.9119 95.357L20.3898 95.2815C20.3898 95.2815 17.6486 95.1179 17.9616 93.2862C18.1708 92.0618 21.1771 92.1614 23.5285 86.4529C23.8513 85.6692 25.8248 83.3036 28.1567 82.0862C28.2305 82.0476 28.3047 82.0103 28.3791 81.9741C29.9708 81.1781 31.8178 80.7401 33.7754 80.7815L38.3788 80.887C40.7914 80.9294 42.9899 81.6787 44.7286 82.9044Z" fill="#DE3190"/>
<path opacity="0.176986" d="M46.8927 84.8486C47.5527 85.5942 48.0123 86.2816 48.1518 86.6406C50.334 92.26 52.9451 92.0268 53.1549 93.2441C53.4688 95.0652 51.0895 95.2811 51.0895 95.2811L48.5755 95.4965L48.7094 90.6332L48.7169 90.3143C48.7793 88.2883 48.0993 86.3988 46.8927 84.8486Z" fill="#444444"/>
<mask id="mask0" mask-type="alpha" maskUnits="userSpaceOnUse" x="14" y="63" width="60" height="53">
<path d="M35.5195 73.4917C35.4834 73.4621 35.4477 73.4313 35.4125 73.3991C34.7795 72.8085 34.409 71.8699 34.7583 70.9626C35.0834 70.0886 36.0519 69.3806 37.0122 69.4164C37.553 69.4311 39.0049 69.7253 38.9954 69.2989L38.89 64.7858C38.8837 64.5016 39.1336 64.2588 39.4558 64.2532C40.1619 64.2301 40.8543 64.1524 41.599 63.9733C41.6806 63.9631 41.7622 63.953 41.8438 63.9428C42.5185 63.8458 46.305 63.4346 48.4749 65.7988C48.6726 65.9944 48.8463 66.2233 49.0158 66.4872C49.4061 67.0908 49.6049 67.7829 49.6009 68.4917L49.5868 71.6463C49.5691 71.9638 49.5513 72.2813 49.4939 72.5951C48.8052 76.5204 46.9679 79.2931 45.3005 79.4576C45.0955 79.4918 44.0234 79.552 42.7482 79.2919C42.632 79.2635 42.7247 79.3069 41.0619 78.7898L40.7872 81.1836C39.9938 81.0004 39.1621 80.8961 38.3033 80.8811L34.87 80.8026L35.3037 77.1613L35.4917 75.583L35.5195 73.4917ZM48.1646 107.607L48.3328 101.26L48.3505 100.665L48.3605 100.528L48.4409 97.6161L48.5035 95.5089L50.1285 95.3706L55.7366 108.882C56.2605 108.97 56.8671 109.079 57.5776 109.213C58.7211 109.208 59.6677 109.231 60.4173 109.283C63.4532 109.493 66.0616 109.581 69.1155 111.187C74.6828 114.117 75.1169 115.465 70.4177 115.233L60.8326 115.184C60.7133 115.223 60.5938 115.248 60.4749 115.257C60.4749 115.257 46.4677 115.148 18.4532 114.929C17.3264 114.921 16.2682 114.449 15.5896 113.652C15.2632 113.269 15.0262 112.568 14.8786 111.549C14.421 109.4 15.7286 106.322 18.2129 100.342C19.003 98.4459 19.7513 96.7223 20.4555 95.1906L35.9407 95.7094C34.7462 98.3365 32.6391 104.586 32.042 105.543C32.0406 105.544 32.0392 105.545 32.0378 105.545C36.497 106.077 41.8399 106.736 48.1646 107.607Z" fill="white"/>
</mask>
<g mask="url(#mask0)">
<path d="M35.5195 73.4917C35.4834 73.4621 35.4477 73.4313 35.4125 73.3991C34.7795 72.8085 34.409 71.8699 34.7583 70.9626C35.0834 70.0886 36.0519 69.3806 37.0122 69.4164C37.553 69.4311 39.0049 69.7253 38.9954 69.2989L38.89 64.7858C38.8837 64.5016 39.1336 64.2588 39.4558 64.2532C40.1619 64.2301 40.8543 64.1524 41.599 63.9733C41.6806 63.9631 41.7622 63.953 41.8438 63.9428C42.5185 63.8458 46.305 63.4346 48.4749 65.7988C48.6726 65.9944 48.8463 66.2233 49.0158 66.4872C49.4061 67.0908 49.6049 67.7829 49.6009 68.4917L49.5868 71.6463C49.5691 71.9638 49.5513 72.2813 49.4939 72.5951C48.8052 76.5204 46.9679 79.2931 45.3005 79.4576C45.0955 79.4918 44.0234 79.552 42.7482 79.2919C42.632 79.2635 42.7247 79.3069 41.0619 78.7898L40.7872 81.1836C39.9938 81.0004 39.1621 80.8961 38.3033 80.8811L34.87 80.8026L35.3037 77.1613L35.4917 75.583L35.5195 73.4917ZM48.1646 107.607L48.3328 101.26L48.3505 100.665L48.3605 100.528L48.4409 97.6161L48.5035 95.5089L50.1285 95.3706L55.7366 108.882C56.2605 108.97 56.8671 109.079 57.5776 109.213C58.7211 109.208 59.6677 109.231 60.4173 109.283C63.4532 109.493 66.0616 109.581 69.1155 111.187C74.6828 114.117 75.1169 115.465 70.4177 115.233L60.8326 115.184C60.7133 115.223 60.5938 115.248 60.4749 115.257C60.4749 115.257 46.4677 115.148 18.4532 114.929C17.3264 114.921 16.2682 114.449 15.5896 113.652C15.2632 113.269 15.0262 112.568 14.8786 111.549C14.421 109.4 15.7286 106.322 18.2129 100.342C19.003 98.4459 19.7513 96.7223 20.4555 95.1906L35.9407 95.7094C34.7462 98.3365 32.6391 104.586 32.042 105.543C32.0406 105.544 32.0392 105.545 32.0378 105.545C36.497 106.077 41.8399 106.736 48.1646 107.607Z" fill="#F2A98A"/>
<path d="M40.9135 80.1008L39.0566 78.0161L41.0683 78.7891L40.9135 80.1008Z" fill="#482D1F"/>
<path d="M39.3134 70.7139C39.2317 70.5829 38.9183 70.1237 38.3466 69.7686C38.2912 69.7279 37.857 69.4918 37.3162 69.477C36.356 69.441 35.3875 70.1515 35.0623 71.0286C34.7131 71.939 35.0637 72.8789 35.6966 73.4716C36.1854 73.9291 36.7788 74.1101 37.1419 74.188C37.1383 74.789 37.1524 75.4419 37.1841 76.1467C35.6342 76.0569 34.2686 75.4589 33.0871 74.3527C32.5985 73.8981 31.3012 72.6387 30.8971 70.6263C30.8507 70.3704 30.7585 69.8815 30.7504 69.276C27.6754 69.3207 25.1885 68.1046 24.2739 66.3792C23.4219 64.7545 24.0132 62.8091 24.0973 62.5337C24.9409 59.762 27.7813 59.7938 28.0243 59.7883C28.0243 59.7883 32.1191 58.529 35.3558 64.3276C35.3579 64.3313 35.3599 64.335 35.362 64.3388C36.2899 64.2745 37.4154 64.3325 39.1302 64.2406C39.7568 64.21 40.6707 64.0744 41.7931 63.9298C41.8726 63.9372 42.8321 63.8508 42.9137 63.8406C43.3191 63.8406 44.6776 63.7272 46.4342 64.4237C48.1909 65.1202 48.8392 66.1675 48.8131 66.2114C48.7629 66.2957 47.866 66.6547 47.3305 66.765C45.8274 67.0699 44.5219 66.895 43.7196 66.7136C43.5084 67.1387 43.2093 67.6268 42.8108 68.1057C41.6573 69.5283 40.2035 70.2648 39.2966 70.6252C39.3022 70.6547 39.3078 70.6843 39.3134 70.7139Z" fill="#482D1F"/>
<path d="M48.2802 71.4766C48.3033 71.2344 48.5212 71.0543 48.7956 71.0558C48.9636 71.0454 49.1193 71.1469 49.2026 71.401C49.3781 72.0196 48.713 72.9496 48.4095 72.5795C48.2226 72.3504 48.2644 71.8108 48.2802 71.4766ZM43.8665 71.3951C43.8896 71.153 44.1075 70.9728 44.3819 70.9744C44.5499 70.964 44.7056 71.0654 44.7889 71.3195C44.9644 71.9382 44.2993 72.8681 43.9958 72.4981C43.8089 72.2689 43.8507 71.7294 43.8665 71.3951Z" fill="#482D1F"/>
<path d="M47.2547 71.6659L47.5693 73.3663C47.5873 73.5824 47.4174 73.793 47.1843 73.8074C47.0472 73.8255 46.9589 73.831 46.6036 73.8472C46.4447 73.8544 46.3359 73.8599 46.2075 73.8679C46.0974 73.8747 46.0019 73.8012 45.9942 73.7037C45.9865 73.6063 46.0695 73.5217 46.1796 73.5149C46.3109 73.5068 46.4219 73.5011 46.5831 73.4938C46.9241 73.4783 47.0071 73.4731 47.1417 73.4558C47.1506 73.4548 47.1742 73.4255 47.1728 73.4072L46.8603 71.7231C46.8425 71.6267 46.9163 71.5357 47.0252 71.5199C47.1341 71.5041 47.2369 71.5695 47.2547 71.6659Z" fill="#482D1F"/>
<path d="M45.9957 74.9517C45.8597 74.9213 45.5261 74.8062 45.4728 74.6155C45.4698 74.5768 45.4462 74.5201 45.4637 74.4996C45.532 74.3984 45.7851 74.4603 46.1317 74.4971C46.7472 74.556 47.2601 74.5242 47.2601 74.5242C47.2601 74.5242 47.1151 74.863 47.0277 74.9654C46.837 75.21 46.2108 75.016 45.9957 74.9517Z" fill="#482D1F"/>
<path d="M40.8699 70.6568C41.2268 69.7491 42.1666 69.0706 43.3181 68.9993C44.8595 68.9039 46.1964 69.9328 46.3042 71.2975C46.3058 71.3173 46.3071 71.337 46.3081 71.3566C46.3333 71.3523 46.3595 71.3508 46.3863 71.3525L46.949 71.3873C47.0723 70.1996 48.1525 69.2321 49.5399 69.1462C51.0813 69.0508 52.4183 70.0797 52.5261 71.4444C52.6339 72.8091 51.4717 73.9928 49.9303 74.0882C48.4382 74.1806 47.1377 73.2194 46.9582 71.92L46.3444 71.882C46.3203 71.8805 46.2971 71.8765 46.275 71.8703C46.0712 72.9791 45.029 73.8596 43.7084 73.9413C42.167 74.0368 40.8301 73.0078 40.7223 71.6431C40.7097 71.4838 40.7144 71.327 40.735 71.174L39.28 70.8577C39.1192 70.8227 39.0209 70.679 39.0604 70.5367C39.0998 70.3943 39.2622 70.3073 39.423 70.3422L40.8699 70.6568ZM47.5387 71.6989C47.5396 71.7169 47.5408 71.7349 47.5422 71.753C47.6269 72.8253 48.6773 73.6337 49.8884 73.5587C51.0995 73.4838 52.0127 72.5537 51.928 71.4815C51.8433 70.4092 50.7929 69.6007 49.5817 69.6757C48.4171 69.7478 47.528 70.6106 47.5368 71.6302C47.5402 71.6496 47.5412 71.6696 47.5396 71.6899C47.5394 71.6929 47.5391 71.6959 47.5387 71.6989ZM43.6666 73.4118C44.8777 73.3369 45.7909 72.4068 45.7062 71.3346C45.6215 70.2623 44.571 69.4538 43.3599 69.5288C42.1488 69.6038 41.2357 70.5338 41.3203 71.6061C41.405 72.6784 42.4555 73.4868 43.6666 73.4118Z" fill="#482D1F"/>
<path d="M29.7903 107.053C29.645 107.123 29.4629 107.076 29.3836 106.947C29.3043 106.819 29.3578 106.657 29.5031 106.587L32.0012 105.38C32.1465 105.31 32.3286 105.357 32.4079 105.486C32.4872 105.615 32.4337 105.776 32.2884 105.846L29.7903 107.053ZM36.1375 95.8988C36.0728 96.0337 35.8969 96.0967 35.7444 96.0394C35.592 95.9822 35.5209 95.8264 35.5856 95.6915L38.262 90.1061C38.3267 89.9712 38.5026 89.9082 38.655 89.9655C38.8074 90.0227 38.8786 90.1785 38.8139 90.3135L36.1375 95.8988Z" fill="#482D1F"/>
<path opacity="0.2" d="M48.1621 107.659L48.3453 100.724L48.3582 100.546L48.497 95.5065L50.1232 95.3672L55.7196 108.915L48.1621 107.659Z" fill="#8C2A00"/>
</g>
<path d="M53.274 139.359L59.0707 133.973C59.1849 133.867 59.1804 133.699 59.0605 133.598C58.9407 133.497 58.7509 133.501 58.6367 133.607L52.84 138.992C52.7257 139.098 52.7303 139.266 52.8502 139.368C52.97 139.469 53.1598 139.465 53.274 139.359Z" fill="#482D1F"/>
<path d="M178.259 115.006H18.3856C17.613 115.006 16.9867 115.561 16.9867 116.245C16.9867 116.929 17.613 117.483 18.3856 117.483H178.259C179.032 117.483 179.658 116.929 179.658 116.245C179.658 115.561 179.032 115.006 178.259 115.006Z" fill="#D8DEED"/>
<path d="M187.252 3.89258H121.504C119.297 3.89258 117.507 5.47689 117.507 7.43124V50.4259C117.507 52.3803 119.297 53.9646 121.504 53.9646H187.252C189.46 53.9646 191.249 52.3803 191.249 50.4259V7.43124C191.249 5.47689 189.46 3.89258 187.252 3.89258Z" fill="#F2F6FB"/>
<path d="M122.87 20.7266H148.391C148.943 20.7266 149.39 21.1226 149.39 21.6112V22.2655C149.39 22.7541 148.943 23.1501 148.391 23.1501H122.87C122.318 23.1501 121.871 22.7541 121.871 22.2655V21.6112C121.871 21.1226 122.318 20.7266 122.87 20.7266ZM122.87 24.6649H151.831C152.383 24.6649 152.83 25.061 152.83 25.5495V26.2038C152.83 26.6924 152.383 27.0884 151.831 27.0884H122.87C122.318 27.0884 121.871 26.6924 121.871 26.2038V25.5495C121.871 25.061 122.318 24.6649 122.87 24.6649ZM122.87 32.5415H155.271C155.823 32.5415 156.27 32.9376 156.27 33.4262V34.0804C156.27 34.569 155.823 34.9651 155.271 34.9651H122.87C122.318 34.9651 121.871 34.569 121.871 34.0804V33.4262C121.871 32.9376 122.318 32.5415 122.87 32.5415ZM122.87 36.4798H144.951C145.503 36.4798 145.95 36.8759 145.95 37.3645V38.0187C145.95 38.5073 145.503 38.9034 144.951 38.9034H122.87C122.318 38.9034 121.871 38.5073 121.871 38.0187V37.3645C121.871 36.8759 122.318 36.4798 122.87 36.4798ZM122.87 40.4181H151.831C152.383 40.4181 152.83 40.8142 152.83 41.3028V41.957C152.83 42.4456 152.383 42.8417 151.831 42.8417H122.87C122.318 42.8417 121.871 42.4456 121.871 41.957V41.3028C121.871 40.8142 122.318 40.4181 122.87 40.4181ZM122.87 44.3564H155.271C155.823 44.3564 156.27 44.7525 156.27 45.2411V45.8953C156.27 46.3839 155.823 46.78 155.271 46.78H122.87C122.318 46.78 121.871 46.3839 121.871 45.8953V45.2411C121.871 44.7525 122.318 44.3564 122.87 44.3564Z" fill="#E1E5F0"/>
<path d="M155.271 16.8931H122.87C122.318 16.8931 121.871 17.2891 121.871 17.7777V18.2634C121.871 18.752 122.318 19.1481 122.87 19.1481H155.271C155.823 19.1481 156.27 18.752 156.27 18.2634V17.7777C156.27 17.2891 155.823 16.8931 155.271 16.8931Z" fill="#D8DEED"/>
<path d="M165.423 20.7266H187.632C188.184 20.7266 188.631 21.1226 188.631 21.6112V22.2984C188.631 22.787 188.184 23.1831 187.632 23.1831H165.423C164.871 23.1831 164.424 22.787 164.424 22.2984V21.6112C164.424 21.1226 164.871 20.7266 165.423 20.7266ZM165.423 24.7184H180.716C181.267 24.7184 181.715 25.1145 181.715 25.6031V26.2903C181.715 26.7789 181.267 27.175 180.716 27.175H165.423C164.871 27.175 164.424 26.7789 164.424 26.2903V25.6031C164.424 25.1145 164.871 24.7184 165.423 24.7184ZM165.423 28.7103H184.174C184.726 28.7103 185.173 29.1064 185.173 29.595V30.2822C185.173 30.7707 184.726 31.1668 184.174 31.1668H165.423C164.871 31.1668 164.424 30.7707 164.424 30.2822V29.595C164.424 29.1064 164.871 28.7103 165.423 28.7103ZM165.423 32.7021H177.257C177.809 32.7021 178.257 33.0982 178.257 33.5868V34.274C178.257 34.7626 177.809 35.1587 177.257 35.1587H165.423C164.871 35.1587 164.424 34.7626 164.424 34.274V33.5868C164.424 33.0982 164.871 32.7021 165.423 32.7021Z" fill="#E1E5F0"/>
<path d="M117.507 6.72441C117.507 5.16043 118.939 3.89258 120.706 3.89258H188.051C189.817 3.89258 191.249 5.16009 191.249 6.72441V9.55625H117.507V6.72441Z" fill="#E1E5F0"/>
</svg>
