<svg width="93" height="164" viewBox="0 0 93 164" fill="none" xmlns="http://www.w3.org/2000/svg">
<path d="M0.86689 163.114H20.6098C21.0721 163.114 21.4766 162.797 21.4766 162.418V162.165C21.4766 161.785 21.0913 161.469 20.6098 161.469H0.86689C0.40461 161.469 0.00012207 161.785 0.00012207 162.165V162.418C0.00012207 162.797 0.385353 163.114 0.86689 163.114ZM49.6945 161.469C49.2158 161.469 48.8277 161.837 48.8277 162.291C48.8277 162.746 49.2158 163.114 49.6945 163.114H81.0905C81.5692 163.114 81.9573 162.746 81.9573 162.291C81.9573 161.837 81.5692 161.469 81.0905 161.469H49.6945Z" fill="#DE3190"/>
<path d="M49.5984 161.474C49.6291 161.471 49.6603 161.469 49.6919 161.469H80.9537C80.9744 161.369 80.9849 161.243 80.9819 161.08C80.9603 160.952 80.9576 160.806 80.9164 160.661C80.6692 159.788 80.3695 159.208 79.4932 158.692C78.6168 158.177 77.7222 157.717 76.79 157.312C73.352 155.779 72.1773 155.798 69.9167 154.392C68.9812 153.805 68.1211 153.124 67.3177 152.389C66.7821 151.898 65.6886 151.101 64.0373 149.997L49.5984 150.313V161.474ZM0.79364 161.472C0.817017 161.47 0.840591 161.469 0.864319 161.469H20.5415L18.7975 151.125L5.85339 149.72L0.79364 161.472Z" fill="#474961"/>
<path d="M43.7188 49.2138C43.0599 48.5088 42.3234 47.8573 41.5135 47.2715C39.1594 46.4324 34.6671 45.5452 31.4618 46.5138C27.7132 47.6465 25.3995 50.744 25.3995 50.744C25.3995 50.744 24.8501 50.2011 19.1165 65.3915C15.2941 75.5184 11.5852 89.2412 7.98956 106.56C7.64535 108.499 5.65869 119.437 2.02957 139.374C2.0266 139.39 2.02386 139.407 2.02136 139.423C1.86894 140.422 2.59884 141.348 3.65163 141.493L23.7281 144.25C24.6944 144.383 25.6126 143.809 25.8648 142.914C28.3687 134.032 29.7227 129.177 29.9265 128.348C30.3651 126.694 30.7964 124.821 31.2429 122.676L34.756 106.566C34.7904 106.41 34.857 105.903 34.9558 105.046C36.5947 99.3446 37.996 94.4697 39.1599 90.4211C40.0954 93.8283 41.1078 97.4816 42.1971 101.381C42.7259 123.247 43.1212 135.681 43.3827 138.684C43.4232 139.149 43.5516 140.858 43.768 143.814C43.8406 144.806 44.7365 145.561 45.7837 145.512L66.4807 144.551C67.4659 144.505 68.2554 143.761 68.3097 142.827C69.2248 127.071 68.619 112.251 66.4923 98.3647C63.1915 76.8126 58.2033 68.0057 55.2281 59.7155C55.195 59.6167 52.8346 56.0711 48.147 49.0788C46.5178 49.0878 45.0417 49.1328 43.7188 49.2138Z" fill="#FFCB3D"/>
<path opacity="0.2" d="M46.5928 53.9038C47.6848 56.7166 47.8713 59.8402 47.0045 62.8609C45.7902 67.0926 44.576 71.3243 43.3617 75.556C43.3617 75.556 41.9524 80.4583 39.1339 90.2631C40.0762 93.7155 41.0973 97.4217 42.197 101.381C42.7398 123.178 43.142 135.579 43.4035 138.582C43.5815 140.625 43.7148 142.361 43.8033 143.79C43.8653 144.792 44.767 145.559 45.8233 145.508L66.5389 144.515C67.5245 144.468 68.313 143.722 68.3652 142.787C69.2431 127.057 68.6189 112.25 66.4923 98.3649C63.1915 76.8129 58.2625 67.967 55.2873 59.6768C55.2606 59.5972 51.0089 56.5423 46.5928 53.9038Z" fill="#8C2A00"/>
<path d="M48.2774 19.3747C47.8612 19.2294 47.4479 19.1063 47.0461 19.002L47.1259 17.6317C47.1375 17.4323 46.9781 17.2609 46.768 17.247L37.7318 16.6503C37.5196 16.6365 37.3356 16.7882 37.3205 16.9894L37.2632 17.7633C32.3341 17.192 29.4566 17.0615 28.6307 17.3719C20.97 20.2508 19.7033 32.7499 19.7438 36.5523C19.7547 37.572 21.4725 38.4872 24.8972 39.298C24.524 42.7543 24.3041 44.7069 24.1775 45.7211C24.1775 45.7211 24.1793 45.9007 24.1365 46.1664C24.0278 46.947 50.0532 54.5887 50.0532 54.5887C50.0729 54.5724 50.091 54.5739 50.091 54.5739C50.091 54.5739 50.4607 54.5147 50.9175 54.3012C51.1443 54.2123 51.3743 54.0877 51.6093 53.9097C53.3498 52.6179 53.6303 49.3929 53.6668 48.6063C53.6899 48.357 53.708 48.1611 53.708 48.1611C53.7797 46.9876 53.9544 44.6117 54.3 40.1794C55.5341 40.6841 56.8795 41.1972 58.3362 41.7189L58.2823 23.4847C58.2784 22.1809 57.463 21.0024 56.2035 20.4803C53.3999 19.3182 50.7579 18.9497 48.2774 19.3747Z" fill="#DE3190"/>
<path d="M49.6489 150.394L53.078 150.319L64.0375 149.997L63.4756 144.643L49.5038 145.288L49.6489 150.394ZM20.6004 143.782L6.97414 141.915L5.85358 149.72L18.7976 151.125L20.6004 143.782ZM38.0127 9.93683V16.6908L45.4731 17.1738L45.3687 15.7012C46.4345 15.9589 46.3729 15.9287 46.4755 15.95C47.7145 16.119 48.7449 15.9807 48.9325 15.9257C49.616 15.8034 50.2835 15.1906 50.8322 14.2069C51.5764 12.8941 52.1484 10.9057 52.3141 8.57483C52.3545 8.2428 52.3374 7.91645 52.3203 7.5901L52.0366 4.356C51.9752 3.6331 51.7223 2.92914 51.2667 2.31812C51.0812 2.04487 50.9018 1.8257 50.6881 1.64637C48.3837 -0.604244 44.7844 0.116222 44.1432 0.270762C44.0686 0.296366 43.9919 0.303944 43.9173 0.329547C43.2287 0.579897 42.5643 0.700282 41.8958 0.784615C41.5893 0.814928 41.3685 1.09191 41.4007 1.38031L41.9353 5.99288C41.7508 5.90178 38.846 4.8039 38.0363 5.35781C37.3682 5.82146 37.0844 8.71706 38.0127 9.93683ZM53.5535 50.7274L53.3562 50.5626C53.2671 50.5626 53.2159 50.5671 53.1993 50.5758L37.2293 43.7387L36.9006 40.9831C29.8306 40.2572 24.9407 39.4006 22.2308 38.4134C22.1835 45.5002 22.7345 49.577 23.8837 50.6436C26.4893 53.0619 40.0572 59.0381 53.6397 60.6513C56.6759 61.9279 61.6978 62.8574 68.7054 63.4401C70.7045 62.2272 71.7784 60.1088 71.9269 57.0848L67.0607 55.4972C67.2578 55.433 67.3588 55.3852 67.3588 55.3852C68.4117 53.1036 55.0728 51.0845 53.3709 50.6492L53.5535 50.7274ZM57.5388 41.2796C64.097 44.1433 74.6558 46.3207 77.4781 43.201C81.1737 39.116 81.6602 27.9931 78.9377 9.83238C84.8803 8.58377 88.9967 7.22653 91.2869 5.76064C91.9068 5.36388 92.2708 4.69656 92.2533 3.98918C92.2249 2.84037 91.2164 1.93087 90.001 1.95776C84.1812 2.08651 80.4935 2.07591 78.9377 1.92597C78.8987 1.92221 78.8597 1.91871 78.8207 1.91546C74.1006 1.5222 69.9369 4.81992 69.5208 9.28112L67.7361 28.4166L58.2869 24.1051L58.2967 41.5535C58.0406 41.4619 57.7879 41.3706 57.5388 41.2796Z" fill="#DB9E75"/>
<path opacity="0.176986" d="M48.4232 19.3404C50.1531 19.9629 51.9172 20.9744 53.0963 22.6178C53.4346 23.0944 53.8599 23.8114 54.1486 24.8223C54.1897 24.9693 54.2323 25.0984 54.2733 25.2454C54.3718 25.5586 54.5835 26.2221 54.7541 26.9361C54.9345 27.7406 55.0128 29.2545 54.9824 31.3516L54.9775 31.4051L54.9328 32.2807C54.6806 35.4516 54.4756 38.0511 54.3101 40.1747C55.5359 40.6767 56.8729 41.1871 58.321 41.7057L58.2806 23.478C58.2777 22.1775 57.4671 21.0007 56.2126 20.4758C53.4627 19.3254 50.8662 18.9469 48.4232 19.3404V19.3404Z" fill="#444444"/>
<path d="M45.3657 15.7437L42.4109 15.0445L45.4729 17.2359L45.3657 15.7437Z" fill="#482D1F"/>
<path d="M39.6459 10.6899L39.6278 10.6882C39.3667 10.6043 38.6025 10.3509 38.0925 9.59678C37.5825 8.84261 37.4062 7.78095 37.9457 6.88603C38.4681 6.01109 39.5671 5.44474 40.5188 5.64292C41.0542 5.7544 41.4412 6.10008 41.4836 6.13246C42.0692 6.69621 42.2567 7.33607 42.2567 7.33607L42.3539 7.77557C42.4597 7.62638 42.5571 7.47878 42.6438 7.33423C43.8529 5.84241 45.0599 4.3325 46.267 2.8226C47.0553 2.94554 48.3035 3.02285 49.6888 2.59269C50.1748 2.43471 50.5872 2.1377 50.9521 1.93686C50.8423 1.81973 50.7344 1.72069 50.6437 1.60166C48.9533 -0.187654 45.841 -0.134796 44.4396 0.150636C44.2692 0.18584 43.6642 0.319049 42.7891 0.460787C42.3142 0.544504 41.9311 0.582533 41.7033 0.623441C38.8611 1.0153 37.6947 0.801847 36.3386 1.66809C36.0845 1.82134 35.5077 2.20783 35.0418 2.89425C33.7278 4.83545 34.3495 7.11496 34.5218 7.7929C35.0961 9.82104 36.4424 10.844 36.8839 11.3306C37.7689 12.3219 38.9183 11.3306 38.9183 11.3306C38.9183 11.3306 39.2132 11.084 39.6459 10.6899Z" fill="#482D1F"/>
<path d="M64.4282 57.8011C64.2733 57.7648 64.1166 57.8544 64.0784 58.0014C64.0401 58.1483 64.1346 58.2969 64.2895 58.3332C65.2618 58.5612 66.0234 58.7156 67.7236 59.0418C69.4157 59.3664 70.1718 59.5197 71.1335 59.7452C71.2884 59.7815 71.445 59.6918 71.4833 59.5449C71.5216 59.3979 71.4271 59.2494 71.2722 59.2131C70.2998 58.9851 69.5383 58.8307 67.8381 58.5045C66.1459 58.1798 65.3899 58.0266 64.4282 57.8011ZM62.2063 60.5264C62.0493 60.4992 61.8988 60.5979 61.8702 60.7468C61.8415 60.8957 61.9455 61.0384 62.1025 61.0656C63.1774 61.2517 64.0069 61.4138 65.8517 61.7885C67.702 62.1643 68.5356 62.3271 69.618 62.5146C69.775 62.5417 69.9255 62.4431 69.9541 62.2942C69.9828 62.1453 69.8788 62.0025 69.7218 61.9753C68.647 61.7892 67.8174 61.6272 65.9726 61.2525C64.1223 60.8767 63.2887 60.7138 62.2063 60.5264Z" fill="#482D1F"/>
<path d="M51.1662 7.73858C51.1662 8.05259 51.1494 8.59106 51.329 8.81974C51.6079 9.16119 52.1815 8.25294 52.0076 7.63542C51.9038 7.3941 51.7699 7.30556 51.6148 7.31292C51.3805 7.315 51.183 7.51413 51.1662 7.73858ZM47.0244 7.94523C47.0054 8.2624 46.9886 8.80087 47.1872 9.02639C47.4661 9.36785 48.0397 8.45959 47.8657 7.84207C47.762 7.60075 47.6281 7.51221 47.473 7.51957C47.2387 7.52165 47.0412 7.72078 47.0244 7.94523Z" fill="#482D1F"/>
<path d="M49.4659 8.1046L49.8193 9.89285C49.8205 9.8989 49.797 9.93059 49.7879 9.9321C49.6841 9.94938 49.5768 9.96062 49.4084 9.97305C49.3757 9.97547 49.3415 9.97789 49.2923 9.9813C49.2302 9.98559 49.1962 9.98794 49.1636 9.99022C49.0522 9.99805 48.9599 10.005 48.8615 10.0132C48.7555 10.022 48.6772 10.1106 48.6865 10.2111C48.6957 10.3117 48.7892 10.386 48.8951 10.3772C48.9916 10.3692 49.0822 10.3624 49.1921 10.3546C49.2244 10.3524 49.2581 10.35 49.3203 10.3458C49.3702 10.3423 49.4049 10.3398 49.4383 10.3374C49.618 10.3241 49.736 10.3117 49.8545 10.292C50.073 10.2556 50.237 10.0344 50.1983 9.82732L49.8445 8.03726C49.8249 7.93808 49.7243 7.87275 49.6197 7.89134C49.5152 7.90994 49.4463 8.00542 49.4659 8.1046Z" fill="#482D1F"/>
<path d="M43.5614 7.98182C43.5455 8.19003 43.5563 8.40343 43.5964 8.61838C43.8588 10.024 45.2775 10.9621 46.7647 10.7145C48.0155 10.5062 48.9172 9.5253 49.0164 8.38249L49.6467 8.33989C49.9132 9.74087 51.3291 10.6747 52.8134 10.4276C54.3009 10.1799 55.2947 8.83954 55.0322 7.43359C54.7697 6.02795 53.3511 5.08985 51.8639 5.3375C50.5681 5.55328 49.647 6.59812 49.6046 7.79321L49.002 7.83395C48.9967 7.79618 48.9905 7.75834 48.9835 7.72046C48.721 6.31483 47.3024 5.37673 45.8152 5.62438C44.757 5.8006 43.9487 6.52976 43.6647 7.44213L42.3733 7.26712C42.2153 7.24571 42.0689 7.34983 42.0464 7.49967C42.0238 7.64951 42.1336 7.78834 42.2915 7.80974L43.5614 7.98182ZM50.1833 7.97343C50.1343 6.96649 50.8836 6.05726 51.9638 5.87738C53.1376 5.68193 54.2564 6.42181 54.4632 7.52918C54.6699 8.63622 53.8869 9.6923 52.7135 9.8877C51.5397 10.0832 50.4208 9.34328 50.2141 8.23591C50.2045 8.18469 50.1971 8.13358 50.1917 8.08266C50.1941 8.06492 50.1947 8.0467 50.1933 8.02818C50.1919 8.00929 50.1885 7.99098 50.1833 7.97343ZM44.1654 8.52279C43.9587 7.41574 44.7417 6.35966 45.9151 6.16426C47.0888 5.9688 48.2077 6.70869 48.4145 7.81605C48.6212 8.9231 47.8382 9.97918 46.6647 10.1746C45.491 10.37 44.3721 9.63015 44.1654 8.52279Z" fill="#482D1F"/>
<path d="M48.7231 11.4585C48.5803 11.4269 48.231 11.3373 48.1786 11.1613C48.1719 11.1255 48.1429 11.0749 48.1775 11.0506C48.2556 10.9453 48.5 10.9969 48.8582 11.0297C49.4919 11.0719 49.9918 11.0256 49.9918 11.0256C49.9918 11.0256 49.8556 11.3438 49.7552 11.4344C49.5644 11.6694 48.9295 11.5165 48.7231 11.4585Z" fill="#482D1F"/>
<path d="M36.4913 40.959C36.5319 39.3501 36.5634 37.9427 36.5859 36.7368C36.6083 35.5308 36.6399 33.5498 36.6805 30.7942C36.6827 30.6428 36.8139 30.5219 36.9734 30.524C37.133 30.5261 37.2605 30.6505 37.2583 30.8019C37.2176 33.5581 37.1861 35.5396 37.1636 36.7465C37.1411 37.9537 37.1096 39.3622 37.0689 40.9722C37.0651 41.1235 36.9327 41.2432 36.7732 41.2397C36.6137 41.236 36.4874 41.1104 36.4913 40.959Z" fill="#482D1F"/>
</svg>
