<svg width="108" height="164" viewBox="0 0 108 164" fill="none" xmlns="http://www.w3.org/2000/svg">
<path d="M0.0020752 162.957L2.28882e-05 163.074C0.0127945 163.524 0.398293 163.882 0.87236 163.89L33.7387 163.839C34.2132 163.827 34.5907 163.463 34.5985 163.013L34.6005 162.896C34.5878 162.446 34.2023 162.088 33.7282 162.079L0.882446 162.131C0.387756 162.123 0.0102615 162.488 0.0020752 162.957ZM87.4538 163.695L87.5017 163.705L106.728 148.678C107.08 148.405 107.158 147.877 106.865 147.545L106.807 147.447C106.631 147.232 106.357 147.115 106.083 147.134C105.927 147.134 105.79 147.193 105.653 147.291L86.5164 162.084L76.0437 162.108C75.5943 162.1 75.2361 162.465 75.2087 162.914L75.2067 163.031C75.2183 163.481 75.5835 163.839 76.0329 163.847L87.4878 163.812C87.4765 163.774 87.4651 163.734 87.4538 163.695Z" fill="#FF5645"/>
<path d="M0.257156 162.367C0.414597 162.217 0.633781 162.127 0.882614 162.131L33.7284 162.079C33.7806 162.08 33.8317 162.085 33.8814 162.094L32.5629 149.937L17.5521 149.894C15.7462 151.075 14.5716 151.927 14.0281 152.452C13.213 153.239 12.3402 153.967 11.391 154.595C9.09736 156.1 7.90539 156.079 4.41703 157.718C3.47124 158.151 2.56349 158.644 1.67427 159.195C0.785049 159.746 0.481033 160.367 0.230171 161.3C0.188362 161.456 0.185638 161.612 0.163712 161.749C0.158333 162.057 0.19561 162.241 0.257156 162.367ZM105.655 147.289L98.8304 137.937L87.0651 146.868L86.7133 148.041C85.3453 152.835 84.6026 155.363 84.4854 155.623C84.3443 155.928 84.1981 156.21 84.0444 156.485C82.9818 156.917 81.7751 157.34 79.9317 158.262C78.9936 158.711 78.0946 159.219 77.2152 159.786C76.3357 160.353 76.0425 160.978 75.808 161.916C75.7883 161.995 75.7786 162.074 75.7712 162.15C75.8564 162.121 75.9481 162.106 76.0439 162.107L86.5165 162.084L105.654 147.29C105.654 147.29 105.655 147.29 105.655 147.289Z" fill="#474961"/>
<path d="M48.069 52.8301C48.0107 52.838 47.9522 52.8474 47.8937 52.8585C47.3281 52.9654 46.8 53.2174 46.3611 53.5899C29.445 67.9447 19.4402 79.8178 16.3466 89.2092C14.5923 94.5349 13.0436 108.238 11.7007 130.319C11.4517 134.413 14.5687 137.933 18.6627 138.182C18.7489 138.188 18.8352 138.191 18.9215 138.194L31.2395 138.512C35.2768 138.617 38.6575 135.476 38.8497 131.442L40.4918 96.9717C43.1918 94.1173 45.5445 91.6029 47.5498 89.4285C48.0309 92.0518 48.7733 94.8212 49.9733 98.5265C51.9728 104.701 60.119 116.904 74.4118 135.135L74.961 135.867C77.289 138.969 81.6117 139.757 84.8846 137.677L94.0763 131.834C97.5378 129.634 98.5602 125.044 96.36 121.583C96.2685 121.439 96.172 121.298 96.0708 121.161L75.6006 93.3844C75.1127 82.3724 74.1467 72.7385 72.7026 64.4828C70.5366 52.0991 54.3222 52.3666 48.1855 52.5704C48.1461 52.6553 48.1073 52.7418 48.069 52.8301Z" fill="#3ABF7C"/>
<path opacity="0.176986" d="M48.0814 52.8271C48.0189 52.8354 47.9562 52.8454 47.8934 52.8572C47.3279 52.9641 46.7998 53.2162 46.3609 53.5886C29.4448 67.9434 19.44 79.8165 16.3464 89.2079C14.592 94.5337 13.0434 108.237 11.7004 130.317C11.4514 134.411 14.5684 137.932 18.6624 138.181C18.7486 138.186 18.8349 138.19 18.9213 138.192L31.2393 138.511C35.2766 138.615 38.6573 135.474 38.8494 131.44L40.4916 96.9704C43.1899 94.1178 45.5414 91.6047 47.5458 89.4313C46.6597 84.5865 46.6634 80.2331 46.3195 71.3922C45.9735 62.4995 46.5609 56.3111 48.0814 52.8271Z" fill="#444444"/>
<path opacity="0.176986" d="M58.3188 18.909C54.5134 19.5838 51.4396 21.8385 49.9579 24.7607C49.4735 25.7073 49.2257 26.7749 49.1579 27.8346L48.6901 33.6023L46.2405 33.1253C46.2042 33.1182 46.1683 33.1091 46.133 33.098C45.6184 32.9355 45.3329 32.3866 45.4954 31.872C45.9401 30.4633 46.28 29.4575 46.5152 28.8546C48.5422 23.7745 50.0952 22.2821 50.0952 22.2821C50.8865 21.5087 51.6042 21.0399 51.9404 20.8214C54.0937 19.4019 56.4208 18.9709 58.3188 18.909Z" fill="#444444"/>
<path d="M31.8493 138.526C31.6314 138.539 31.411 138.544 31.1887 138.538L18.8707 138.219C18.7843 138.217 18.6981 138.213 18.6118 138.208C17.8819 138.164 17.1829 138.015 16.5286 137.778L17.7708 149.995H32.5629L31.8493 138.526ZM82.4006 138.699L87.0651 146.868L98.8303 137.937L94.6326 131.43C94.4395 131.582 94.237 131.725 94.0255 131.86L84.8338 137.702C84.0672 138.19 83.2431 138.519 82.4006 138.699ZM38.9561 47.9251L36.116 48.2403C34.9059 47.6029 23.8839 41.8843 23.1652 44.6578C23.1652 44.6578 23.213 44.7588 23.3248 44.9322L18.1927 43.1752C15.3626 47.1367 17.7584 53.3291 17.7964 53.3506C24.3453 56.2239 29.2617 57.7505 32.5457 57.9304C32.9249 57.9512 33.2638 57.927 33.5625 57.858C33.5675 57.8939 33.5726 57.9301 33.5778 57.9664C43.9386 59.2093 54.8006 58.7492 66.1636 56.5862C68.8975 56.0657 71.9219 49.7026 75.2369 37.4967C75.2048 37.4935 75.1728 37.4889 75.1411 37.483L62.3861 35.1254C62.272 35.1043 62.1649 35.0674 62.0666 35.0173L58.9241 45.7089L49.2659 46.7808C48.9494 46.3548 48.7194 45.944 48.5156 45.5684C47.8678 44.4024 47.8733 43.1332 48.0306 42.129C48.0679 41.9173 48.0826 41.7215 48.1007 41.5063L48.7639 33.328L46.3 32.8936C46.2479 32.8844 46.1966 32.871 46.1467 32.8535C46.0795 32.83 46.0165 32.7998 45.9581 32.7641L43.3227 38.2097C41.1351 36.9987 34.7623 29.0813 34.7623 29.0813C34.7623 29.0813 34.4236 33.5758 33.7462 42.5649L38.9561 47.9251ZM59.7995 16.7584L59.5757 18.6163C55.6097 18.7784 53.8072 20.3202 53.1998 20.9924C53.1998 20.9924 57.3842 21.7565 65.7529 23.2846C68.0098 21.4752 71.3689 21.0649 73.4557 22.6388C72.297 21.5164 70.2957 20.5505 67.4518 19.741C66.7078 19.5292 65.9995 19.3513 65.3253 19.2038L66.0541 12.2738C66.0965 12.2498 66.1389 12.2244 66.1812 12.1974C66.9435 11.6935 67.5187 10.755 67.4092 9.65336C67.3173 8.63731 66.5564 7.23924 65.63 7.07196C65.1102 6.97314 63.6591 7.4143 63.7616 6.95618C63.8299 6.65076 64.2301 5.03144 64.9621 2.0982C65.0242 1.7911 64.8445 1.47994 64.5425 1.399C63.8578 1.23579 63.1806 1.19595 62.5087 0.833836C62.4332 0.813603 62.3628 0.774492 62.2873 0.754259C61.6657 0.506768 58.2054 -0.926242 55.5629 1.15787C55.3374 1.32 55.1155 1.54383 54.8887 1.78653C54.3529 2.35114 53.9996 3.06578 53.835 3.831L53.0806 7.25057C53.0273 7.60048 52.9551 7.94534 52.9396 8.30537C52.6524 12.6999 53.7284 16.0839 55.2838 16.622C55.4675 16.6915 56.4819 16.9835 57.7572 16.9813C57.8805 16.9739 57.771 17.0052 59.5287 16.7883C59.6215 16.7783 59.7117 16.7683 59.7995 16.7584Z" fill="#F2A98A"/>
<path opacity="0.2" d="M39.105 48.0311L33.7462 42.5922C34.4235 33.5848 34.7621 29.0811 34.7621 29.0811C34.7621 29.0811 41.1349 36.9985 43.3225 38.2095L45.9062 32.9408C45.9762 32.989 46.0538 33.0288 46.1378 33.0582C46.1878 33.0757 46.239 33.0891 46.2911 33.0983L48.7551 33.5328L48.0918 41.711C48.0737 41.9262 48.059 42.122 48.0217 42.3337C47.8645 43.3379 47.859 44.6071 48.5067 45.7731C48.6985 46.1266 48.9135 46.5112 49.202 46.9104L39.105 48.0311Z" fill="#8C2A00"/>
<path d="M24.029 48.0875C23.0623 47.8097 22.3153 47.5691 20.6531 47.0134C18.9831 46.4551 18.2306 46.2127 17.2532 45.9319C17.0976 45.8872 16.9352 45.9771 16.8905 46.1327C16.8458 46.2883 16.9357 46.4507 17.0913 46.4954C18.058 46.7731 18.805 47.0138 20.4672 47.5695C22.1372 48.1278 22.8897 48.3702 23.8671 48.651C24.0227 48.6957 24.1851 48.6058 24.2298 48.4502C24.2745 48.2946 24.1846 48.1322 24.029 48.0875ZM24.5402 52.1113C23.4879 51.737 22.6675 51.4659 20.8388 50.8776C19.0156 50.2911 18.1992 50.0214 17.1542 49.6497C17.0017 49.5955 16.834 49.6751 16.7798 49.8277C16.7255 49.9802 16.8052 50.1479 16.9577 50.2021C18.0101 50.5764 18.8305 50.8475 20.6592 51.4358C22.4824 52.0223 23.2988 52.292 24.3438 52.6637C24.4963 52.7179 24.6639 52.6382 24.7182 52.4857C24.7725 52.3332 24.6928 52.1655 24.5402 52.1113Z" fill="#482D1F"/>
<path d="M71.7826 7.15506C71.7982 6.40016 71.6766 5.57605 71.2887 4.76472C70.9183 3.95731 70.3813 3.46947 70.1524 3.26651C68.8911 2.15967 67.6761 2.23879 64.8219 1.4133C64.2228 1.23256 63.3407 0.975944 62.3139 0.579417C62.2333 0.578061 62.1628 0.538951 62.0873 0.518718C61.4657 0.271227 58.0566 -0.824332 55.5528 1.19574C55.5426 1.2335 55.1647 1.43573 55.1684 1.49742C55.1684 1.49742 57.7728 7.11161 63.2156 8.25643C63.3612 8.09942 63.7472 7.72761 64.3261 7.492C64.3929 7.46942 64.8652 7.29248 65.385 7.3913C66.3114 7.55858 67.063 8.52884 67.155 9.5449C67.2746 10.6088 66.7044 11.5284 65.9611 12.0374C65.2177 12.5463 64.4171 12.5139 64.1565 12.5048L63.8507 12.4165C63.5867 12.9222 63.4028 13.467 63.616 13.8826C64.028 14.6855 64.7949 15.149 65.9166 15.2732C66.9542 16.5863 68.6509 17.5027 70.6194 17.6404C74.0111 17.8776 76.9254 15.7131 77.1287 12.8059C77.3233 10.022 74.9615 7.56659 71.7826 7.15506ZM52.8294 6.2175C53.1729 6.37024 53.7618 6.58874 54.3409 6.54159C55.2424 6.49987 54.5143 5.81918 53.7302 5.64955C53.3476 5.56726 53.0138 5.68017 52.8035 5.78566C52.6359 5.8824 52.6507 6.12916 52.8294 6.2175ZM56.4916 7.1988C56.854 7.3566 57.4429 7.5751 58.041 7.53301C58.9373 7.51016 58.2143 6.8106 57.4302 6.64097C57.0287 6.55362 56.695 6.66653 56.4846 6.77202C56.2982 6.8637 56.313 7.11046 56.4916 7.1988Z" fill="#482D1F"/>
<path d="M53.8558 8.05003C53.8787 7.81339 53.7355 7.5929 53.509 7.53221C53.3579 7.49174 53.2056 7.53184 53.0781 7.78095C52.7841 8.34963 53.1366 9.37481 53.4731 9.10077C53.7226 8.92482 53.8076 8.38107 53.8558 8.05003ZM57.2464 8.83714C57.2693 8.60049 57.1261 8.38001 56.8995 8.31931C56.7485 8.27884 56.5961 8.31894 56.4687 8.56806C56.1747 9.13673 56.5272 10.1619 56.8637 9.88787C57.1131 9.71192 57.217 9.17323 57.2464 8.83714Z" fill="#482D1F"/>
<path d="M55.2807 12.3979C55.4229 12.3956 55.7742 12.3683 55.8865 12.1758C55.8966 12.1381 55.9307 12.0865 55.9219 12.0437C55.8767 11.9102 55.6162 11.9011 55.2662 11.8478C54.647 11.7425 54.1713 11.5544 54.1713 11.5544C54.1713 11.5544 54.2212 11.9724 54.2903 12.0921C54.3981 12.4447 55.0579 12.3989 55.2807 12.3979Z" fill="#482D1F"/>
<path d="M54.7984 8.45688L54.0359 10.4028L54.0291 10.4235C53.9739 10.6296 54.0636 10.8587 54.2599 10.948C54.2967 10.9618 54.3173 10.9689 54.3381 10.9759C54.5342 11.0424 54.677 11.0828 55.1913 11.2206C55.2956 11.2485 55.4028 11.1866 55.4307 11.0824C55.4586 10.9781 55.3968 10.871 55.2925 10.843C54.7873 10.7076 54.6485 10.6684 54.4635 10.6057C54.4442 10.5992 54.425 10.5926 54.4058 10.5858C54.41 10.5869 54.4001 10.5608 54.405 10.5322L55.1676 8.58622L55.176 8.55908L55.4367 7.43518C55.4611 7.33003 55.3956 7.22502 55.2904 7.20064C55.1853 7.17625 55.0803 7.24171 55.0559 7.34686L54.7984 8.45688Z" fill="#482D1F"/>
<path d="M61.811 34.9389C62.2862 33.1097 62.7935 31.2083 63.3331 29.2345C63.3757 29.0783 63.537 28.9863 63.6931 29.029C63.8493 29.0717 63.9413 29.2329 63.8986 29.3891C63.3597 31.3605 62.853 33.2596 62.3785 35.0864C62.3378 35.2431 62.1777 35.3371 62.021 35.2964C61.8643 35.2557 61.7703 35.0956 61.811 34.9389Z" fill="#482D1F"/>
</svg>
