<svg width="467" height="421" viewBox="0 0 467 421" fill="none" xmlns="http://www.w3.org/2000/svg">
<g filter="url(#filter0_d)">
<ellipse cx="228.5" cy="358.5" rx="228.5" ry="54.5" fill="#F2E9FF"/>
</g>
<path d="M184.3 0.289062H59.9332C58.8655 0.289062 58 1.238 58 2.40856V105.911C58 107.081 58.8655 108.03 59.9332 108.03H184.3C185.368 108.03 186.234 107.081 186.234 105.911V2.40856C186.234 1.238 185.368 0.289062 184.3 0.289062Z" fill="#F2F6FB"/>
<path d="M86.423 55.843C92.71 55.843 97.8066 50.2889 97.8066 43.4376C97.8066 36.5863 92.71 31.0322 86.423 31.0322C80.1359 31.0322 75.0393 36.5863 75.0393 43.4376C75.0393 50.2889 80.1359 55.843 86.423 55.843Z" fill="#D8DEED"/>
<path d="M86.4168 43.2608C84.785 43.2608 83.4622 41.8388 83.4622 40.0845C83.4622 38.3303 84.785 36.9082 86.4168 36.9082C88.0487 36.9082 89.3715 38.3303 89.3715 40.0845C89.3715 41.8388 88.0487 43.2608 86.4168 43.2608ZM86.4168 44.849C89.3745 44.849 91.7722 47.4265 91.7722 50.6061H81.0615C81.0615 47.4265 83.4592 44.849 86.4168 44.849Z" fill="#F2F6FB"/>
<path d="M76.8222 59.1074H96.0237C97.3393 59.1074 98.4058 60.2767 98.4058 61.7191C98.4058 63.1615 97.3393 64.3307 96.0237 64.3307H76.8222C75.5067 64.3307 74.4402 63.1615 74.4402 61.7191C74.4402 60.2767 75.5067 59.1074 76.8222 59.1074ZM79.8179 67.5953H93.028C94.3436 67.5953 95.4101 68.7646 95.4101 70.207C95.4101 71.6493 94.3436 72.8186 93.028 72.8186H79.8179C78.5024 72.8186 77.4359 71.6493 77.4359 70.207C77.4359 68.7646 78.5024 67.5953 79.8179 67.5953Z" fill="#E1E5F0"/>
<path d="M78.6088 81.4707H94.2372C96.5394 81.4707 98.4058 83.5169 98.4058 86.0411C98.4058 88.5652 96.5394 90.6115 94.2372 90.6115H78.6088C76.3065 90.6115 74.4402 88.5652 74.4402 86.0411C74.4402 83.5169 76.3065 81.4707 78.6088 81.4707ZM114.271 81.4707H129.9C132.202 81.4707 134.068 83.5169 134.068 86.0411C134.068 88.5652 132.202 90.6115 129.9 90.6115H114.271C111.969 90.6115 110.103 88.5652 110.103 86.0411C110.103 83.5169 111.969 81.4707 114.271 81.4707ZM150.187 81.4707H165.815C168.118 81.4707 169.984 83.5169 169.984 86.0411C169.984 88.5652 168.118 90.6115 165.815 90.6115H150.187C147.885 90.6115 146.018 88.5652 146.018 86.0411C146.018 83.5169 147.885 81.4707 150.187 81.4707Z" fill="#474BFF"/>
<path d="M122.086 55.843C128.373 55.843 133.469 50.2889 133.469 43.4376C133.469 36.5863 128.373 31.0322 122.086 31.0322C115.799 31.0322 110.702 36.5863 110.702 43.4376C110.702 50.2889 115.799 55.843 122.086 55.843Z" fill="#D8DEED"/>
<path d="M122.079 43.2608C120.448 43.2608 119.125 41.8388 119.125 40.0845C119.125 38.3303 120.448 36.9082 122.079 36.9082C123.711 36.9082 125.034 38.3303 125.034 40.0845C125.034 41.8388 123.711 43.2608 122.079 43.2608ZM122.079 44.849C125.037 44.849 127.435 47.4265 127.435 50.6061H116.724C116.724 47.4265 119.122 44.849 122.079 44.849Z" fill="#F2F6FB"/>
<path d="M112.485 59.1074H131.686C133.002 59.1074 134.068 60.2767 134.068 61.7191C134.068 63.1615 133.002 64.3307 131.686 64.3307H112.485C111.169 64.3307 110.103 63.1615 110.103 61.7191C110.103 60.2767 111.169 59.1074 112.485 59.1074ZM112.485 67.5953H131.686C133.002 67.5953 134.068 68.7646 134.068 70.207C134.068 71.6493 133.002 72.8186 131.686 72.8186H112.485C111.169 72.8186 110.103 71.6493 110.103 70.207C110.103 68.7646 111.169 67.5953 112.485 67.5953Z" fill="#E1E5F0"/>
<path d="M158.001 55.843C164.288 55.843 169.385 50.2889 169.385 43.4376C169.385 36.5863 164.288 31.0322 158.001 31.0322C151.714 31.0322 146.617 36.5863 146.617 43.4376C146.617 50.2889 151.714 55.843 158.001 55.843Z" fill="#D8DEED"/>
<path d="M157.995 43.2608C156.363 43.2608 155.04 41.8388 155.04 40.0845C155.04 38.3303 156.363 36.9082 157.995 36.9082C159.627 36.9082 160.95 38.3303 160.95 40.0845C160.95 41.8388 159.627 43.2608 157.995 43.2608ZM157.995 44.849C160.953 44.849 163.35 47.4265 163.35 50.6061H152.64C152.64 47.4265 155.037 44.849 157.995 44.849Z" fill="#F2F6FB"/>
<path d="M151.396 59.1074H164.606C165.922 59.1074 166.988 60.2767 166.988 61.7191C166.988 63.1615 165.922 64.3307 164.606 64.3307H151.396C150.08 64.3307 149.014 63.1615 149.014 61.7191C149.014 60.2767 150.08 59.1074 151.396 59.1074ZM148.4 67.5953H167.602C168.917 67.5953 169.984 68.7646 169.984 70.207C169.984 71.6493 168.917 72.8186 167.602 72.8186H148.4C147.085 72.8186 146.018 71.6493 146.018 70.207C146.018 68.7646 147.085 67.5953 148.4 67.5953Z" fill="#E1E5F0"/>
<path d="M58 6.38242C58 3.01715 60.4897 0.289062 63.5564 0.289062H180.677C183.746 0.289062 186.234 3.01641 186.234 6.38242V12.4758H58V6.38242Z" fill="#D8DEED"/>
<path d="M65.4609 9.1521C66.7879 9.1521 67.8637 7.97406 67.8637 6.52087C67.8637 5.06769 66.7879 3.88965 65.4609 3.88965C64.1339 3.88965 63.0581 5.06769 63.0581 6.52087C63.0581 7.97406 64.1339 9.1521 65.4609 9.1521Z" fill="#FF5645"/>
<path d="M73.3021 9.1521C74.6291 9.1521 75.7049 7.97406 75.7049 6.52087C75.7049 5.06769 74.6291 3.88965 73.3021 3.88965C71.9751 3.88965 70.8993 5.06769 70.8993 6.52087C70.8993 7.97406 71.9751 9.1521 73.3021 9.1521Z" fill="#FFCB3D"/>
<path d="M81.3955 9.1521C82.7225 9.1521 83.7983 7.97406 83.7983 6.52087C83.7983 5.06769 82.7225 3.88965 81.3955 3.88965C80.0684 3.88965 78.9927 5.06769 78.9927 6.52087C78.9927 7.97406 80.0684 9.1521 81.3955 9.1521Z" fill="#3ABF7C"/>
<path d="M260.339 69.1729H181.401C177.842 69.1729 174.957 72.336 174.957 76.2379V171.262C174.957 175.164 177.842 178.327 181.401 178.327H260.339C263.897 178.327 266.782 175.164 266.782 171.262V76.2379C266.782 72.336 263.897 69.1729 260.339 69.1729Z" fill="#E1E5F0"/>
<path d="M188.546 141.181H253.244C254.166 141.181 254.912 141.999 254.912 143.009C254.912 144.02 254.166 144.838 253.244 144.838H188.546C187.625 144.838 186.878 144.02 186.878 143.009C186.878 141.999 187.625 141.181 188.546 141.181ZM188.546 153.068H253.244C254.166 153.068 254.912 153.887 254.912 154.897C254.912 155.907 254.166 156.726 253.244 156.726H188.546C187.625 156.726 186.878 155.907 186.878 154.897C186.878 153.887 187.625 153.068 188.546 153.068ZM197.311 147.124H244.479C245.4 147.124 246.147 147.943 246.147 148.953C246.147 149.963 245.4 150.782 244.479 150.782H197.311C196.39 150.782 195.643 149.963 195.643 148.953C195.643 147.943 196.39 147.124 197.311 147.124ZM201.485 159.012H240.305C241.227 159.012 241.973 159.831 241.973 160.841C241.973 161.851 241.227 162.669 240.305 162.669H201.485C200.564 162.669 199.817 161.851 199.817 160.841C199.817 159.831 200.564 159.012 201.485 159.012Z" fill="#F2F6FB"/>
<path d="M220.687 107.286C226.911 107.286 231.956 101.759 231.956 94.9413C231.956 88.1235 226.911 82.5967 220.687 82.5967C214.463 82.5967 209.417 88.1235 209.417 94.9413C209.417 101.759 214.463 107.286 220.687 107.286Z" fill="#474BFF"/>
<path d="M220.682 94.8177C219.546 94.8177 218.624 93.8219 218.624 92.5934C218.624 91.365 219.546 90.3691 220.682 90.3691C221.819 90.3691 222.741 91.365 222.741 92.5934C222.741 93.8219 221.819 94.8177 220.682 94.8177ZM220.682 95.9299C222.743 95.9299 224.413 97.7349 224.413 99.9614H216.952C216.952 97.7349 218.622 95.9299 220.682 95.9299Z" fill="#F2F6FB"/>
<path d="M232.873 117.802H208.5C207.579 117.802 206.832 118.621 206.832 119.631C206.832 120.641 207.579 121.459 208.5 121.459H232.873C233.794 121.459 234.541 120.641 234.541 119.631C234.541 118.621 233.794 117.802 232.873 117.802Z" fill="#F2F6FB"/>
<path d="M237.706 111.857H203.668C202.746 111.857 202 112.676 202 113.686C202 114.696 202.746 115.515 203.668 115.515H237.706C238.627 115.515 239.374 114.696 239.374 113.686C239.374 112.676 238.627 111.857 237.706 111.857Z" fill="#F2F6FB"/>
<path d="M173.7 363.376L173.572 363.447C172.895 363.835 172.025 363.623 171.703 362.952L133.974 286.968C133.619 286.262 133.909 285.378 134.586 284.99L134.715 284.919C135.391 284.531 136.261 284.743 136.584 285.414L145.927 304.207C152.017 316.5 158.106 328.758 164.228 341.051L174.313 361.327C174.667 362.034 174.377 362.952 173.7 363.376Z" fill="#D8DEED"/>
<path d="M81.1982 283.683H104.815C119.121 283.683 133.426 283.683 147.699 283.683H169.609C170.382 283.683 171.058 284.389 171.058 285.237V285.414C171.058 286.261 170.414 286.968 169.609 286.968H81.1338C80.3605 286.968 79.6839 286.261 79.6839 285.414V285.237C79.6839 284.389 80.3605 283.683 81.1982 283.683Z" fill="#D8DEED"/>
<path d="M68.5035 361.327L78.5882 341.051C84.6777 328.758 90.7672 316.5 96.8889 304.207L106.233 285.414C106.555 284.743 107.425 284.495 108.101 284.919L108.23 284.99C108.907 285.379 109.197 286.297 108.842 286.968L71.1133 362.952C70.7911 363.623 69.9212 363.871 69.2445 363.447L69.1157 363.376C68.4391 362.952 68.1491 362.034 68.5035 361.327Z" fill="#D8DEED"/>
<path d="M71.178 183.218L74.2388 210.348C76.1076 226.774 77.9441 243.2 79.8128 259.591L82.6481 284.742C82.7448 285.625 82.197 286.509 81.4238 286.615L81.2627 286.65C80.4894 286.756 79.7806 286.12 79.6517 285.166L68.1494 183.571C68.0527 182.688 68.6004 181.805 69.3737 181.699L69.5348 181.664C70.3403 181.558 71.0813 182.264 71.178 183.218Z" fill="#D8DEED"/>
<path d="M268.651 363.233L268.78 363.304C269.457 363.693 270.326 363.481 270.649 362.81L308.378 286.826C308.732 286.119 308.442 285.236 307.766 284.847L307.637 284.777C306.96 284.388 306.09 284.6 305.768 285.271L296.424 304.064C290.335 316.357 284.245 328.615 278.124 340.908L268.039 361.185C267.684 361.891 267.974 362.81 268.651 363.233Z" fill="#D8DEED"/>
<path d="M362.313 283.541H338.697C324.391 283.541 310.086 283.541 295.812 283.541H273.903C273.13 283.541 272.453 284.247 272.453 285.095V285.272C272.453 286.12 273.098 286.826 273.903 286.826H362.378C363.151 286.826 363.828 286.12 363.828 285.272V285.095C363.828 284.247 363.151 283.541 362.313 283.541Z" fill="#D8DEED"/>
<path d="M363.731 276.652V251.253C363.731 235.852 363.731 220.485 363.731 205.119V181.557C363.731 180.709 350.36 180.003 334.282 180.003H330.931C314.886 180.003 301.483 180.709 301.483 181.557V276.723C301.483 277.571 314.854 278.277 330.931 278.277H334.282C350.328 278.277 363.731 277.535 363.731 276.652Z" fill="#D8DEED"/>
<path d="M373.848 361.185L363.763 340.908C357.674 328.615 351.584 316.357 345.463 304.064L336.119 285.271C335.797 284.6 334.927 284.353 334.25 284.777L334.122 284.847C333.445 285.236 333.155 286.154 333.509 286.826L371.238 362.81C371.56 363.481 372.43 363.728 373.107 363.304L373.236 363.234C373.913 362.81 374.202 361.891 373.848 361.185Z" fill="#D8DEED"/>
<path d="M241.749 363.429H292.946C293.751 363.429 294.395 362.723 294.395 361.84C294.395 360.956 293.751 360.25 292.946 360.25H241.749C240.943 360.25 240.299 360.956 240.299 361.84C240.299 362.723 240.943 363.429 241.749 363.429ZM335.991 363.429C336.796 363.429 337.441 362.818 337.441 362.084V361.595C337.441 360.861 336.764 360.25 335.991 360.25H302.966C302.16 360.25 301.516 360.861 301.516 361.595V362.084C301.516 362.818 302.193 363.429 302.966 363.429H335.991Z" fill="#A339FF"/>
<path d="M241.267 360.365C241.435 360.291 241.619 360.25 241.813 360.25H293.01C293.216 360.25 293.411 360.296 293.588 360.38C293.631 360.22 293.654 360.049 293.654 359.873L292.581 338.353L270.392 337.995C270.037 337.995 269.715 338.103 269.425 338.353C265.752 342.722 262.24 345.156 259.695 346.589C257.729 347.699 251.157 350.778 248.192 352.282C247.281 352.734 245.932 353.547 244.144 354.72C243.72 354.998 243.337 355.347 243.009 355.753C242.082 356.899 241.501 357.926 241.265 358.834C241.201 359.049 241.201 359.228 241.169 359.443C241.136 359.622 241.169 359.801 241.169 359.98V360.016C241.191 360.138 241.225 360.254 241.267 360.365ZM302.339 360.413C302.544 360.309 302.779 360.25 303.03 360.25H335.576L328.097 338.384L305.028 341.81L302.339 360.413Z" fill="#474961"/>
<path d="M294.719 276.542C295.648 277.048 296.516 277.522 297.322 277.961L297.488 280.756C297.682 284.425 297.907 287.648 298.165 290.487C298.358 292.721 300.839 318.023 301.741 327.308C301.935 329.414 303.32 331.201 305.221 331.775C308.088 332.668 309.925 333.179 317.368 333.466C317.851 333.498 318.334 333.466 318.785 333.434C326.003 332.796 329.611 331.647 330.417 331.264C331.448 330.786 331.995 330.563 332.543 330.02C334.476 328.169 334.347 325.234 334.38 324.149C334.543 317.236 334.98 298.62 335.114 282.603C335.308 282.604 335.504 282.605 335.701 282.605C337.534 282.605 339.298 281.758 340.924 280.274C342.999 278.366 350.296 272.058 350.748 258.785C351.063 249.551 349.596 242.537 346.349 237.743C346.349 237.707 342.306 230.713 339.85 230.713H303.676C301.163 230.807 289.939 231.126 270.005 231.67L270.017 231.754C269.906 231.751 269.794 231.749 269.683 231.746C261.531 231.582 254.926 238.707 255.12 247.409C255.12 247.475 255.12 247.508 255.12 247.573C255.635 274.566 261.66 313.018 262.079 326.021C262.111 326.514 262.24 327.597 262.917 328.747C265.011 332.26 269.908 331.472 281.346 331.768C291.077 332.03 295.007 332.819 297.005 329.929C298.1 328.353 298.068 326.547 298.036 325.726C297.239 309.251 296.08 292.621 294.719 276.542Z" fill="#474BFF"/>
<path opacity="0.176986" d="M294.788 276.474C295.717 276.981 296.585 277.454 297.39 277.894L295.913 253.144C295.881 251.708 295.72 243.03 302.132 237.51C306.803 233.522 312.474 233.266 316.244 233.107C322.043 232.852 326.554 234.511 327.424 234.83C328.519 235.245 329.067 235.468 329.615 235.755C335.865 239.073 335.382 255.027 335.318 257.93C335.253 261.6 335.221 267.311 335.221 273.948C335.221 276.647 335.207 279.528 335.182 282.498C335.354 282.499 335.527 282.499 335.7 282.5C337.533 282.5 339.297 281.652 340.923 280.168C342.998 278.261 350.295 271.952 350.748 258.68C351.062 249.446 349.596 242.432 346.348 237.637C346.348 237.602 342.305 230.607 339.849 230.607H303.676C301.227 230.699 290.238 231.061 270.709 231.693C273.09 231.751 275.451 231.809 277.838 231.867C285.087 232.064 291.112 237.942 291.886 245.626C292.909 255.536 293.892 265.886 294.788 276.474Z" fill="#444444"/>
<path d="M294.576 189.916C289.839 186.03 277.596 175.468 277.596 175.468C273.601 179.424 283.202 186.524 283.202 186.524" fill="#482D1F"/>
<path d="M272.716 173.965C275.119 169.564 274.43 163.774 270.822 160.212C266.722 156.165 260.407 156.528 256.716 161.023C253.025 165.517 253.356 172.441 257.455 176.488C260.978 179.966 266.138 180.187 269.862 177.328L281.306 188.625C281.57 188.886 281.977 188.862 282.216 188.572L284.156 186.21C284.394 185.92 284.373 185.473 284.108 185.212L272.716 173.965ZM269.167 173.314C266.666 176.359 262.388 176.604 259.611 173.863C256.834 171.122 256.61 166.431 259.11 163.386C261.611 160.342 265.889 160.096 268.666 162.837C271.443 165.579 271.667 170.269 269.167 173.314Z" fill="#474961"/>
<path d="M301.636 178.33C301.153 179.718 300.761 181.144 300.462 182.607C298.68 191.308 295.767 196.432 297.773 200.597C298.957 203.053 301.232 203.79 302.996 203.997L304.208 220.601C304.688 225.097 305.009 227.598 305.171 228.105C305.141 232.261 309.903 231.204 318.769 231.204C329.085 231.204 342.846 232.726 343.666 228.541C344.405 224.769 344.228 216.857 343.134 204.805C346.719 203.777 349.356 201.999 350.029 200.56C351.921 196.565 349.749 190.106 347.33 182.858C344.414 174.17 342.832 169.895 339.265 166.364C336.31 163.446 333.082 162.439 330.362 163.002C328.166 162.033 325.754 161.604 323.263 161.845L316.201 162.528C308.679 163.194 302.852 170.093 301.636 178.33Z" fill="#A339FF"/>
<path opacity="0.176986" d="M301.415 178.845C301 180.094 300.658 181.372 300.39 182.681C298.608 191.382 295.695 196.505 297.701 200.67C298.871 203.097 301.106 203.846 302.86 204.063L302.783 203.008L302.761 202.656L301.361 183.747L301.32 183.113C301.21 181.671 301.246 180.241 301.415 178.845Z" fill="#444444"/>
<path d="M326.367 161.888C325.809 159.836 325.007 156.444 323.961 151.713L323.868 149.723C323.933 149.334 323.993 149.321 324.315 149.216C325.152 148.968 325.603 148.372 326.183 147.665C327.246 146.323 327.536 144.345 327.021 142.543C326.376 140.812 324.701 139.505 323.154 139.647C322.574 139.717 322.027 139.965 321.511 140.318L321.479 140.353C321.318 140.53 321.092 140.565 320.867 140.6C320.319 140.6 319.868 140.177 319.836 139.576L319.546 130.356C319.546 129.756 319.127 129.332 318.579 129.332C317.387 129.332 316.227 129.261 315.035 128.979C314.874 128.979 314.745 128.943 314.616 128.943C313.456 128.802 307.238 128.378 303.887 133.43C303.597 133.924 303.307 134.419 303.081 134.913C302.502 136.185 302.244 137.598 302.34 139.082L302.695 145.511C302.759 146.147 302.824 146.782 302.953 147.454C304.499 155.402 307.786 160.912 310.556 161.089C311.974 161.124 313.392 160.948 314.777 160.488C314.949 160.394 314.84 160.468 316.777 159.61L317.172 161.947C313.325 162.634 311.185 163.976 310.95 164.108C311.635 164.937 311.731 165.216 312.322 165.741C318.941 171.604 329.683 163.883 331.038 162.894C329.386 162.428 327.828 162.102 326.367 161.888ZM298.103 210.563L297.586 214.623L272.003 219.916C271.247 219.773 270.517 219.695 269.813 219.672C267.39 219.562 265.304 220.077 263.891 220.482C260.359 220.298 256.86 220.077 253.361 219.893C250.501 219.157 244.109 218.052 243.907 222.47C243.907 222.47 246.666 223.28 250.4 224.348C251.274 224.598 252.202 224.863 253.161 225.136C258.113 227.01 264.593 230.876 268.324 232.188L306.548 230.725C305.971 229.948 305.541 229.068 305.284 228.075C305.123 227.568 304.802 225.067 304.321 220.571L303.859 214.239C310.84 218.59 317.323 222.232 323.308 225.162C326.935 226.938 331.368 228.331 334.925 229.663C343.214 231.513 344.779 228.24 345.725 227.167C346.827 225.918 350.496 222.372 348.843 202.008C345.841 204.482 338.665 206.891 331.505 204.758C329.654 204.206 328.001 203.685 326.544 203.195L326.661 204.424L288.388 186.811C288.296 186.733 288.196 186.664 288.089 186.605L277.038 180.847C276.2 180.423 275.169 180.812 274.75 181.73L274.364 182.543C273.971 183.437 274.286 184.455 275.017 184.957C274.239 184.778 273.468 185.18 273.139 185.991L272.753 186.803C272.423 187.553 272.592 188.39 273.085 188.936C272.664 189.076 272.287 189.39 272.055 189.854L271.63 190.643C271.166 191.571 271.5 192.687 272.315 193.194L278.084 196.617C285.133 201.802 291.806 206.45 298.103 210.563ZM270.296 331.469L270.005 338.458L292.581 340.369L292.483 331.903C290.014 332.08 286.509 331.799 281.415 331.661C276.673 331.539 273.056 331.602 270.296 331.469ZM305.657 331.782L305.039 342.486L328.25 339.463L327.166 332.127C325.257 332.547 322.521 333.003 318.854 333.327C318.403 333.359 317.919 333.391 317.436 333.359C310.316 333.085 308.327 332.606 305.657 331.782Z" fill="#BF865F"/>
<path d="M324.78 155.622C325.153 157.442 325.483 158.948 325.713 159.712C326.222 159.712 326.733 159.712 327.246 159.712C328.016 159.712 330.8 159.392 333.4 159.218C333.4 159.218 333.593 159.218 333.754 159.183C334.592 159.041 335.398 158.9 336.203 158.441C336.203 158.441 336.461 158.335 336.686 158.123C341.229 154.025 342.228 148.161 340.295 144.876C338.909 142.58 336.203 141.697 335.816 141.555C335.301 141.379 334.785 141.308 334.334 141.273C334.158 140.694 333.982 140.085 333.806 139.474C333.76 137.412 333.341 134.672 331.692 132.406C331.016 131.452 330.114 130.746 329.147 130.216C326.569 128.803 324.604 129.51 319.513 129.368C318.482 129.368 314.924 128.871 314.795 128.871C309.546 128.507 305.876 130.097 303.784 133.643C305.335 133.384 306.593 133.384 307.56 133.643C313.81 135.338 315.647 147.207 318.514 146.713C318.542 146.709 318.571 146.704 318.601 146.696L318.579 146.677L319.964 142.509C320.287 141.661 320.834 140.99 321.479 140.425C321.994 140.072 322.542 139.824 323.122 139.754C324.668 139.612 326.344 140.92 326.988 142.65C327.093 142.947 327.171 143.25 327.224 143.554C327.403 145.054 327.05 146.572 326.183 147.667C326.134 147.726 326.084 147.784 326.034 147.841C326.031 147.845 326.029 147.848 326.027 147.852C325.352 148.615 324.474 149.14 323.514 149.348C323.913 151.692 324.545 154.751 324.78 155.622ZM307.238 143.64C307.882 143.816 308.945 143.993 309.815 143.746C311.33 143.392 309.912 142.403 308.526 142.333C307.882 142.297 307.367 142.58 307.044 142.862C306.819 143.11 306.915 143.569 307.238 143.64ZM301.796 143.64C302.458 143.825 303.478 144.046 304.395 143.781C305.948 143.384 304.51 142.387 303.148 142.341C302.433 142.303 301.971 142.595 301.638 142.876C301.366 143.114 301.467 143.566 301.796 143.64Z" fill="#482D1F"/>
<path opacity="0.2" d="M298.599 210.783C298.441 210.682 298.283 210.58 298.125 210.479L297.584 214.658L272.006 219.918C271.249 219.774 270.518 219.696 269.813 219.673C267.39 219.562 265.304 220.078 263.891 220.483C260.359 220.299 256.86 220.078 253.361 219.894C250.501 219.157 244.109 218.053 243.907 222.471C243.907 222.471 246.666 223.281 250.4 224.349C251.274 224.599 252.202 224.863 253.161 225.137C258.113 227.011 264.593 230.877 268.324 232.188L306.548 230.726C305.971 229.949 305.541 229.068 305.284 228.076C305.123 227.569 304.802 225.068 304.321 220.572L303.888 214.636L303.858 214.502L303.878 214.497L303.859 214.24L298.599 210.783Z" fill="#8C2A00"/>
<path d="M229.388 209.533C229.096 210.618 229.641 211.734 230.63 212.055L274.903 226.97C275.892 227.29 276.91 226.693 277.203 225.608C277.495 224.524 276.95 223.407 275.961 223.087L231.688 208.172C230.731 207.853 229.681 208.449 229.388 209.533Z" fill="#474961"/>
<path d="M316.789 159.566L319.315 158.328L317.264 162.455L316.789 159.566Z" fill="#482D1F"/>
<path d="M304.144 147.949C304.434 147.525 304.338 146.571 304.241 145.935C304.209 145.476 303.822 145.193 303.468 145.193C303.242 145.229 302.952 145.37 302.888 145.865C302.662 147.03 303.758 148.655 304.144 147.949ZM309.461 147.984C309.783 147.56 309.654 146.571 309.557 145.97C309.525 145.511 309.138 145.229 308.784 145.229C308.558 145.264 308.269 145.405 308.204 145.9C307.979 147.066 309.042 148.69 309.461 147.984Z" fill="#482D1F"/>
<path d="M304.706 147.362L304.418 145.305C304.391 145.112 304.512 144.932 304.688 144.902C304.864 144.873 305.028 145.005 305.055 145.198L305.346 147.277L305.349 147.321L305.441 151.063C305.454 151.105 305.485 151.132 305.527 151.136C305.916 151.082 306.418 151.03 307.033 150.982C307.211 150.968 307.365 151.114 307.378 151.309C307.391 151.503 307.257 151.672 307.08 151.686C306.463 151.735 305.965 151.786 305.586 151.84L305.55 151.843C305.174 151.85 304.869 151.562 304.803 151.173L304.798 151.119L304.706 147.362Z" fill="#482D1F"/>
<path d="M307.302 154.555C307.528 154.52 308.107 154.379 308.236 153.99C308.236 153.92 308.301 153.814 308.269 153.743C308.172 153.566 307.173 153.566 307.173 153.566C305.852 153.602 305.53 153.531 305.433 153.708C305.401 153.814 305.401 153.955 305.627 154.273C305.917 154.873 306.98 154.661 307.302 154.555Z" fill="#482D1F"/>
<path d="M326.822 202.831L325.058 184.974C325.029 184.683 325.221 184.421 325.486 184.39C325.752 184.358 325.99 184.569 326.019 184.86L327.783 202.717C327.812 203.008 327.62 203.269 327.354 203.301C327.089 203.332 326.851 203.122 326.822 202.831Z" fill="#482D1F"/>
<path d="M182.326 360.251H137.632C136.817 360.251 136.164 360.957 136.164 361.841C136.164 362.724 136.817 363.43 137.632 363.43H189.469H226.379C227.184 363.43 227.829 362.724 227.829 361.841C227.829 360.957 227.184 360.251 226.379 360.251H182.326Z" fill="#DE3190"/>
<path d="M226.812 360.286C226.878 360.144 226.928 359.99 226.959 359.827V359.792C226.959 359.615 226.991 359.439 226.959 359.262C226.927 359.05 226.927 358.874 226.862 358.662C226.443 357.072 225.316 355.73 224.575 354.988C224.478 354.882 224.414 354.846 224.317 354.776C222.899 353.822 221.449 352.939 219.935 352.197C216.971 350.713 210.398 347.675 208.433 346.58C205.887 345.167 202.375 342.765 198.702 338.456C198.412 338.208 198.09 338.102 197.736 338.102L175.601 338.244C174.667 338.244 173.926 339.092 173.99 340.151L174.198 348.565C173.261 348.08 172.308 347.542 171.236 346.863C169.712 345.909 167.573 344.355 165.174 342.023C163.845 340.752 162.483 339.48 161.154 338.208L141.088 337.926L136.897 360.553C137.139 360.363 137.437 360.251 137.761 360.251H182.455H226.508C226.612 360.251 226.714 360.263 226.812 360.286Z" fill="#474961"/>
<path opacity="0.176986" d="M189.132 360.251H226.458C226.542 360.089 226.604 359.911 226.64 359.721V359.686C226.64 359.509 226.673 359.332 226.64 359.156C226.608 358.944 226.608 358.767 226.544 358.555C226.125 356.966 224.997 355.623 224.256 354.881C224.159 354.775 224.095 354.74 223.998 354.67C222.581 353.716 221.131 352.833 219.616 352.091C216.652 350.607 210.08 347.569 208.114 346.474C205.569 345.061 202.057 342.659 198.384 338.349C198.094 338.102 197.772 337.996 197.417 337.996L175.282 338.137C174.348 338.137 173.921 338.882 173.986 339.941L174.203 348.747C176.42 349.872 178.634 350.774 182.242 352.656C183.788 353.468 185.27 354.387 186.72 355.411C187.429 356.118 188.654 357.566 189.04 359.262C189.105 359.544 189.105 359.827 189.137 360.074C189.137 360.134 189.135 360.193 189.132 360.251Z" fill="#444444"/>
<path d="M178.448 343.021C178.559 343.035 178.67 343.042 178.784 343.042L199.706 342.796H201.397C203.06 342.796 204.464 341.391 204.55 339.309C204.751 335.109 205.009 329.581 205.324 323.191C206.184 307.073 206.642 301.94 207.158 289.52C207.244 287.438 207.33 285.571 207.388 283.812C207.617 275.448 208.219 267.623 209.394 257.392C210.053 251.721 210.368 248.203 210.397 245.223C210.426 242.459 209.766 239.731 208.505 237.469C207.875 236.357 207.158 235.387 206.298 234.562C204.091 232.444 201.139 230.649 198.789 230.829C192.698 230.86 186.606 230.864 180.515 230.888C179.239 230.556 177.815 230.392 176.245 230.396L173.19 230.431C173.207 230.391 160.346 230.316 134.605 230.207C126.631 223.345 117.82 220.467 108.173 221.575C104.323 222.017 100.834 223.221 97.7071 225.189C94.2549 227.332 91.2407 230.398 88.6644 234.388C87.0759 236.209 82.307 244.521 83.2541 257.182C83.4374 259.513 83.8345 264.706 86.4005 269.651C89.0886 274.809 92.3877 278.588 97.9167 280.743C102.804 282.651 108.516 283.322 114.443 282.58C122.792 280.838 132.449 279.389 143.413 278.235C140.452 287.119 138.534 292.703 137.658 294.987C136.345 298.378 132.779 313.02 131.44 324.236C130.785 329.722 131.013 334.572 132.126 338.787C132.804 341.358 134.952 343.126 137.393 343.123L164.815 343.092L177.125 343.021H178.448Z" fill="#3ABF7C"/>
<path opacity="0.176986" d="M180.07 230.89C182.788 231.526 184.861 232.895 186.291 234.998C189.378 239.536 188.489 243.9 188.489 246.584V246.761C188.458 249.693 188.122 253.155 187.45 258.736C186.198 268.804 185.556 276.469 185.312 284.735C185.251 286.431 185.159 288.303 185.067 290.352C184.548 302.539 184.029 307.591 183.112 323.487C182.746 329.775 182.471 335.179 182.288 339.348C182.196 341.397 180.699 343.022 178.927 343.022H178.439C178.552 343.039 178.667 343.048 178.784 343.048L199.706 342.797H201.397C203.06 342.797 204.55 341.287 204.55 338.968C204.751 334.781 205.009 329.27 205.324 322.901C206.184 306.834 206.642 301.717 207.158 289.335C207.244 287.26 207.33 285.399 207.388 283.646C207.617 275.308 208.219 267.507 209.394 257.309C210.053 251.655 210.368 248.148 210.397 245.178C210.426 242.423 209.766 239.703 208.505 237.449C207.875 236.339 207.158 235.373 206.298 234.55C204.092 232.439 201.139 230.65 198.789 230.829C192.55 230.861 186.31 230.864 180.07 230.89Z" fill="#444444"/>
<path d="M130.113 165.808C132.917 168.206 135.181 171.895 135.605 173.248C139.123 184.467 143.361 184.022 143.699 186.453C144.205 190.089 140.323 190.531 140.323 190.531C138.52 190.72 137.149 190.865 136.21 190.964L135.987 200.999L135.966 201.354L135.591 218.935L135.507 222.367C135.516 222.649 135.492 222.898 135.469 223.181C135.447 223.5 135.423 223.784 135.401 224.103C135.331 224.919 135.194 225.702 134.994 226.487C134.907 226.808 134.853 227.128 134.734 227.451C107.922 228.478 94.4349 226.426 94.2715 221.295L94.9396 190.67L90.8733 190.519C90.8733 190.519 86.4538 190.193 86.9584 186.536C87.2957 184.091 92.1425 184.29 95.9336 172.893C96.4541 171.328 99.6358 166.605 103.395 164.175C103.514 164.098 103.634 164.023 103.754 163.951C106.32 162.362 109.298 161.487 112.454 161.57L119.876 161.781C123.766 161.865 127.31 163.361 130.113 165.808Z" fill="#DE3190"/>
<path opacity="0.176986" d="M133.603 169.691C134.667 171.18 135.408 172.552 135.632 173.269C139.151 184.488 143.361 184.023 143.699 186.453C144.205 190.089 140.369 190.52 140.369 190.52L136.316 190.95L136.532 181.24L136.544 180.604C136.644 176.559 135.548 172.786 133.603 169.691Z" fill="#444444"/>
<mask id="mask0" mask-type="alpha" maskUnits="userSpaceOnUse" x="81" y="127" width="96" height="104">
<path d="M115.266 147.016C115.208 146.957 115.15 146.896 115.093 146.831C114.073 145.652 113.476 143.778 114.039 141.967C114.563 140.222 116.124 138.808 117.673 138.88C118.545 138.909 120.885 139.497 120.87 138.645L120.7 129.635C120.69 129.067 121.093 128.583 121.612 128.571C122.751 128.525 123.867 128.37 125.068 128.013C125.199 127.992 125.331 127.972 125.462 127.952C126.55 127.758 132.655 126.937 136.153 131.657C136.472 132.048 136.752 132.505 137.025 133.032C137.655 134.237 137.975 135.619 137.969 137.034L137.946 143.332C137.917 143.966 137.889 144.6 137.796 145.226C136.686 153.063 133.724 158.599 131.036 158.927C130.705 158.996 128.976 159.116 126.921 158.596C126.733 158.54 126.883 158.626 124.202 157.594L123.759 162.373C122.48 162.008 121.139 161.799 119.754 161.769L114.219 161.613L114.918 154.343L115.221 151.192L115.266 147.016ZM135.653 215.129L135.924 202.457L135.953 201.267L135.969 200.995L136.099 195.181L136.2 190.974L138.819 190.698L147.861 217.674C148.706 217.849 149.684 218.068 150.829 218.335C152.673 218.324 154.199 218.37 155.408 218.474C160.302 218.894 164.507 219.068 169.431 222.277C178.407 228.125 179.107 230.817 171.531 230.354L156.077 230.256C155.885 230.333 155.692 230.383 155.5 230.401C155.5 230.401 132.917 230.183 87.751 229.747C85.9343 229.73 84.2282 228.788 83.1342 227.197C82.6079 226.433 82.2258 225.033 81.9879 222.999C81.2501 218.708 83.3582 212.562 87.3636 200.623C88.6374 196.838 89.8438 193.397 90.9792 190.339L115.945 191.374C114.019 196.619 110.622 209.096 109.66 211.008C109.657 211.009 109.655 211.01 109.653 211.012C116.842 212.074 125.456 213.39 135.653 215.129Z" fill="white"/>
</mask>
<g mask="url(#mask0)">
<path d="M115.266 147.016C115.208 146.957 115.15 146.896 115.093 146.831C114.073 145.652 113.476 143.778 114.039 141.967C114.563 140.222 116.124 138.808 117.673 138.88C118.545 138.909 120.885 139.497 120.87 138.645L120.7 129.635C120.69 129.067 121.093 128.583 121.612 128.571C122.751 128.525 123.867 128.37 125.068 128.013C125.199 127.992 125.331 127.972 125.462 127.952C126.55 127.758 132.655 126.937 136.153 131.657C136.472 132.048 136.752 132.505 137.025 133.032C137.655 134.237 137.975 135.619 137.969 137.034L137.946 143.332C137.917 143.966 137.889 144.6 137.796 145.226C136.686 153.063 133.724 158.599 131.036 158.927C130.705 158.996 128.976 159.116 126.921 158.596C126.733 158.54 126.883 158.626 124.202 157.594L123.759 162.373C122.48 162.008 121.139 161.799 119.754 161.769L114.219 161.613L114.918 154.343L115.221 151.192L115.266 147.016ZM135.653 215.129L135.924 202.457L135.953 201.267L135.969 200.995L136.099 195.181L136.2 190.974L138.819 190.698L147.861 217.674C148.706 217.849 149.684 218.068 150.829 218.335C152.673 218.324 154.199 218.37 155.408 218.474C160.302 218.894 164.507 219.068 169.431 222.277C178.407 228.125 179.107 230.817 171.531 230.354L156.077 230.256C155.885 230.333 155.692 230.383 155.5 230.401C155.5 230.401 132.917 230.183 87.751 229.747C85.9343 229.73 84.2282 228.788 83.1342 227.197C82.6079 226.433 82.2258 225.033 81.9879 222.999C81.2501 218.708 83.3582 212.562 87.3636 200.623C88.6374 196.838 89.8438 193.397 90.9792 190.339L115.945 191.374C114.019 196.619 110.622 209.096 109.66 211.008C109.657 211.009 109.655 211.01 109.653 211.012C116.842 212.074 125.456 213.39 135.653 215.129Z" fill="#F2A98A"/>
<path d="M123.962 160.211L120.969 156.049L124.212 157.592L123.962 160.211Z" fill="#482D1F"/>
<path d="M121.383 141.47C121.251 141.209 120.746 140.292 119.824 139.583C119.734 139.502 119.035 139.03 118.163 139.001C116.614 138.929 115.053 140.348 114.529 142.099C113.966 143.916 114.531 145.793 115.551 146.976C116.339 147.89 117.296 148.251 117.882 148.406C117.876 149.606 117.898 150.91 117.95 152.317C115.451 152.138 113.249 150.944 111.344 148.735C110.557 147.828 108.465 145.313 107.813 141.296C107.739 140.785 107.59 139.808 107.577 138.6C102.619 138.689 98.6097 136.261 97.1352 132.816C95.7615 129.572 96.7149 125.688 96.8505 125.138C98.2105 119.605 102.79 119.668 103.182 119.657C103.182 119.657 109.784 117.143 115.002 128.72C115.005 128.727 115.009 128.735 115.012 128.742C116.508 128.614 118.323 128.73 121.087 128.546C122.097 128.485 123.571 128.215 125.381 127.926C125.509 127.941 127.056 127.768 127.187 127.748C127.841 127.748 130.031 127.521 132.863 128.912C135.695 130.302 136.741 132.393 136.698 132.481C136.618 132.649 135.172 133.366 134.308 133.586C131.885 134.195 129.78 133.846 128.486 133.484C128.146 134.332 127.664 135.307 127.021 136.263C125.162 139.103 122.818 140.574 121.356 141.293C121.365 141.352 121.374 141.411 121.383 141.47Z" fill="#482D1F"/>
<path d="M135.839 142.993C135.877 142.51 136.228 142.15 136.67 142.153C136.941 142.133 137.192 142.335 137.327 142.842C137.609 144.078 136.537 145.934 136.048 145.196C135.747 144.738 135.814 143.661 135.839 142.993ZM128.723 142.831C128.761 142.347 129.112 141.988 129.554 141.991C129.825 141.97 130.076 142.172 130.211 142.68C130.493 143.915 129.421 145.772 128.932 145.033C128.631 144.575 128.698 143.498 128.723 142.831Z" fill="#482D1F"/>
<path d="M134.186 143.371L134.693 146.766C134.722 147.197 134.448 147.618 134.072 147.647C133.851 147.683 133.709 147.694 133.136 147.726C132.88 147.74 132.704 147.752 132.497 147.767C132.32 147.781 132.166 147.634 132.154 147.44C132.141 147.245 132.275 147.076 132.453 147.063C132.664 147.046 132.843 147.035 133.103 147.02C133.653 146.99 133.787 146.979 134.004 146.945C134.018 146.943 134.056 146.884 134.054 146.848L133.55 143.486C133.521 143.293 133.64 143.111 133.816 143.08C133.991 143.048 134.157 143.179 134.186 143.371Z" fill="#482D1F"/>
<path d="M132.156 149.931C131.937 149.87 131.399 149.64 131.313 149.259C131.308 149.182 131.27 149.069 131.298 149.028C131.409 148.826 131.817 148.95 132.375 149.023C133.368 149.14 134.195 149.077 134.195 149.077C134.195 149.077 133.961 149.754 133.82 149.958C133.513 150.446 132.503 150.059 132.156 149.931Z" fill="#482D1F"/>
<path d="M123.892 141.357C124.467 139.544 125.983 138.19 127.839 138.047C130.324 137.857 132.48 139.911 132.653 142.636C132.656 142.675 132.658 142.715 132.66 142.754C132.7 142.745 132.743 142.742 132.786 142.746L133.693 142.815C133.892 140.444 135.633 138.512 137.87 138.341C140.355 138.15 142.511 140.204 142.685 142.929C142.858 145.654 140.985 148.017 138.499 148.208C136.094 148.392 133.997 146.473 133.708 143.879L132.718 143.803C132.679 143.8 132.642 143.792 132.606 143.779C132.278 145.993 130.597 147.751 128.468 147.914C125.983 148.105 123.828 146.051 123.654 143.326C123.634 143.008 123.641 142.695 123.674 142.389L121.329 141.758C121.069 141.688 120.911 141.401 120.975 141.117C121.038 140.833 121.3 140.659 121.559 140.729L123.892 141.357ZM134.644 143.437C134.645 143.473 134.647 143.509 134.649 143.545C134.786 145.686 136.479 147.3 138.432 147.15C140.385 147.001 141.857 145.144 141.72 143.003C141.584 140.862 139.89 139.248 137.938 139.398C136.06 139.542 134.626 141.264 134.641 143.3C134.646 143.339 134.648 143.379 134.645 143.419C134.645 143.425 134.644 143.431 134.644 143.437ZM128.401 146.857C130.354 146.707 131.826 144.851 131.689 142.71C131.553 140.569 129.859 138.955 127.906 139.105C125.954 139.254 124.482 141.111 124.618 143.252C124.755 145.393 126.448 147.007 128.401 146.857Z" fill="#482D1F"/>
<path d="M106.029 214.022C105.795 214.163 105.501 214.068 105.373 213.811C105.245 213.554 105.332 213.232 105.566 213.092L109.593 210.682C109.828 210.542 110.121 210.637 110.249 210.894C110.377 211.15 110.291 211.472 110.056 211.613L106.029 214.022ZM116.262 191.752C116.158 192.022 115.874 192.148 115.628 192.033C115.383 191.919 115.268 191.608 115.372 191.339L119.687 180.187C119.792 179.918 120.075 179.792 120.321 179.906C120.567 180.021 120.681 180.332 120.577 180.601L116.262 191.752Z" fill="#482D1F"/>
<path opacity="0.2" d="M135.649 215.231L135.944 201.385L135.965 201.031L136.189 190.969L138.811 190.69L147.833 217.739L135.649 215.231Z" fill="#8C2A00"/>
</g>
<path d="M143.891 278.521L153.236 267.768C153.421 267.557 153.413 267.221 153.22 267.019C153.027 266.817 152.721 266.826 152.537 267.037L143.191 277.79C143.007 278.002 143.014 278.337 143.208 278.539C143.401 278.741 143.707 278.733 143.891 278.521Z" fill="#482D1F"/>
<path d="M345.398 229.901H87.6421C86.3965 229.901 85.3867 231.008 85.3867 232.374C85.3867 233.74 86.3965 234.847 87.6421 234.847H345.398C346.644 234.847 347.654 233.74 347.654 232.374C347.654 231.008 346.644 229.901 345.398 229.901Z" fill="#D8DEED"/>
<path d="M359.897 8.06055H253.895C250.336 8.06055 247.451 11.2237 247.451 15.1255V100.965C247.451 104.867 250.336 108.03 253.895 108.03H359.897C363.456 108.03 366.341 104.867 366.341 100.965V15.1255C366.341 11.2237 363.456 8.06055 359.897 8.06055Z" fill="#F2F6FB"/>
<path d="M256.097 41.6709H297.243C298.133 41.6709 298.854 42.4617 298.854 43.4371V44.7434C298.854 45.7188 298.133 46.5096 297.243 46.5096H256.097C255.207 46.5096 254.486 45.7188 254.486 44.7434V43.4371C254.486 42.4617 255.207 41.6709 256.097 41.6709ZM256.097 49.5338H302.789C303.679 49.5338 304.4 50.3246 304.4 51.3V52.6063C304.4 53.5817 303.679 54.3725 302.789 54.3725H256.097C255.207 54.3725 254.486 53.5817 254.486 52.6063V51.3C254.486 50.3246 255.207 49.5338 256.097 49.5338ZM256.097 65.2596H308.335C309.225 65.2596 309.946 66.0504 309.946 67.0258V68.3321C309.946 69.3075 309.225 70.0983 308.335 70.0983H256.097C255.207 70.0983 254.486 69.3075 254.486 68.3321V67.0258C254.486 66.0504 255.207 65.2596 256.097 65.2596ZM256.097 73.1225H291.697C292.587 73.1225 293.308 73.9133 293.308 74.8887V76.195C293.308 77.1704 292.587 77.9612 291.697 77.9612H256.097C255.207 77.9612 254.486 77.1704 254.486 76.195V74.8887C254.486 73.9133 255.207 73.1225 256.097 73.1225ZM256.097 80.9854H302.789C303.679 80.9854 304.4 81.7762 304.4 82.7516V84.0579C304.4 85.0333 303.679 85.8241 302.789 85.8241H256.097C255.207 85.8241 254.486 85.0333 254.486 84.0579V82.7516C254.486 81.7762 255.207 80.9854 256.097 80.9854ZM256.097 88.8483H308.335C309.225 88.8483 309.946 89.6391 309.946 90.6145V91.9208C309.946 92.8962 309.225 93.687 308.335 93.687H256.097C255.207 93.687 254.486 92.8962 254.486 91.9208V90.6145C254.486 89.6391 255.207 88.8483 256.097 88.8483Z" fill="#E1E5F0"/>
<path d="M308.336 34.0166H256.097C255.207 34.0166 254.486 34.8074 254.486 35.7829V36.7525C254.486 37.728 255.207 38.5188 256.097 38.5188H308.336C309.225 38.5188 309.947 37.728 309.947 36.7525V35.7829C309.947 34.8074 309.225 34.0166 308.336 34.0166Z" fill="#D8DEED"/>
<path d="M324.703 41.6709H360.509C361.398 41.6709 362.12 42.4617 362.12 43.4371V44.8092C362.12 45.7846 361.398 46.5754 360.509 46.5754H324.703C323.813 46.5754 323.092 45.7846 323.092 44.8092V43.4371C323.092 42.4617 323.813 41.6709 324.703 41.6709ZM324.703 49.6407H349.358C350.248 49.6407 350.969 50.4315 350.969 51.407V52.779C350.969 53.7544 350.248 54.5452 349.358 54.5452H324.703C323.813 54.5452 323.092 53.7544 323.092 52.779V51.407C323.092 50.4315 323.813 49.6407 324.703 49.6407ZM324.703 57.6105H354.933C355.823 57.6105 356.544 58.4013 356.544 59.3768V60.7488C356.544 61.7243 355.823 62.515 354.933 62.515H324.703C323.813 62.515 323.092 61.7243 323.092 60.7488V59.3768C323.092 58.4013 323.813 57.6105 324.703 57.6105ZM324.703 65.5804H343.782C344.672 65.5804 345.393 66.3711 345.393 67.3466V68.7186C345.393 69.6941 344.672 70.4849 343.782 70.4849H324.703C323.813 70.4849 323.092 69.6941 323.092 68.7186V67.3466C323.092 66.3711 323.813 65.5804 324.703 65.5804Z" fill="#E1E5F0"/>
<path d="M247.451 13.7144C247.451 10.5918 249.759 8.06055 252.607 8.06055H361.185C364.032 8.06055 366.341 10.5912 366.341 13.7144V19.3682H247.451V13.7144Z" fill="#E1E5F0"/>
<defs>
<filter id="filter0_d" x="0" y="304" width="467" height="117" filterUnits="userSpaceOnUse" color-interpolation-filters="sRGB">
<feFlood flood-opacity="0" result="BackgroundImageFix"/>
<feColorMatrix in="SourceAlpha" type="matrix" values="0 0 0 0 0 0 0 0 0 0 0 0 0 0 0 0 0 0 127 0"/>
<feOffset dx="6" dy="4"/>
<feGaussianBlur stdDeviation="2"/>
<feColorMatrix type="matrix" values="0 0 0 0 0 0 0 0 0 0 0 0 0 0 0 0 0 0 0.25 0"/>
<feBlend mode="normal" in2="BackgroundImageFix" result="effect1_dropShadow"/>
<feBlend mode="normal" in="SourceGraphic" in2="effect1_dropShadow" result="shape"/>
</filter>
</defs>
</svg>
