<svg width="29" height="26" viewBox="0 0 29 26" fill="none" xmlns="http://www.w3.org/2000/svg">
<path d="M24.2007 0.545898L23.5623 7.63955L24.2007 15.6705L26.7641 13.098C28.2546 11.6021 28.9998 9.63726 28.9998 7.67246C28.9998 5.7076 28.2546 3.74279 26.7642 2.24701C26.02 1.50019 25.1493 0.926809 24.2007 0.545898Z" fill="#7F66FF"/>
<path d="M15.9525 2.24697L14.5209 3.68364L13.8962 8.24593L14.5209 25.3856L19.3611 20.528L19.9379 8.24587L19.3612 0.263184C18.0839 0.607771 16.9129 1.28313 15.9525 2.24697Z" fill="#0DCA71"/>
<path d="M14.4999 3.70472V25.3927L14.5072 25.3997L14.5212 25.386V3.68408L14.4999 3.70472Z" fill="#FDD902"/>
<path d="M4.84006 0.534322L4.22908 8.24615L4.84012 15.7121L9.68029 20.5696L10.2708 8.2462L9.68029 0.279548C8.09021 -0.159172 6.38573 -0.074134 4.84006 0.534322Z" fill="#FDB902"/>
<path d="M4.84017 15.7124V0.534668C3.89093 0.908359 3.0015 1.47896 2.23561 2.2476C0.745277 3.74333 5.66406e-05 5.70802 0 7.67277V7.67334C0.000113281 9.63809 0.745277 11.6028 2.23566 13.0986L4.84017 15.7124Z" fill="#FF5645"/>
<path d="M19.3606 0.263585V20.5284L24.2007 15.6709V0.546269C23.3086 0.188039 22.3478 0 21.358 0C20.674 0 20.0038 0.0899838 19.3606 0.263585Z" fill="#7FC0FD"/>
<path d="M13.0478 2.24743C12.0797 1.27597 10.9145 0.620336 9.68028 0.279785V20.5698L13.0834 23.9851L14.4999 25.3928V3.70485L13.0478 2.24743Z" fill="#FDD902"/>
<path d="M27.1883 14.1442C26.6044 13.5581 25.8278 13.2354 25.002 13.2354C24.1761 13.2354 23.3996 13.5581 22.8156 14.1442L22.281 14.6807L21.7464 14.1442C21.1624 13.5581 20.3859 13.2354 19.56 13.2354C18.7342 13.2354 17.9577 13.5581 17.3737 14.1442C16.7897 14.7302 16.4681 15.5095 16.4681 16.3384C16.4681 17.1673 16.7897 17.9465 17.3737 18.5326L22.2808 23.4577L22.2838 23.4547L22.284 23.4549L27.1883 18.5326C27.7724 17.9465 28.094 17.1672 28.094 16.3384C28.094 15.5095 27.7724 14.7303 27.1883 14.1442Z" fill="#FF3A3B"/>
</svg>
