<svg width="2692" height="350" viewBox="0 0 2692 350" fill="none"  xmlns="http://www.w3.org/2000/svg">
<path d="M2691.96 224.861C2691.63 224.891 2690.97 224.954 2690.65 224.983C2690.4 225.258 2690.19 225.536 2690.01 225.815C2689.66 225.868 2688.97 225.968 2688.62 226.018C2687.98 225.608 2687.73 224.873 2686.36 224.901C2683.36 224.864 2680.43 225.376 2677.43 225.121C2677.88 223.244 2678.63 221.3 2674.13 221.399C2669.54 221.406 2664.94 221.332 2660.39 221.586C2658.04 221.756 2655.68 221.264 2653.38 221.616C2650.47 222.016 2647.41 221.879 2644.44 221.906C2642.36 221.866 2640.72 222.671 2638.62 222.516C2637.17 222.404 2636.14 222.933 2634.98 223.205C2634.96 223.76 2634.86 224.32 2635.08 224.877C2635.6 225.374 2636.41 225.826 2636.66 226.386C2633.75 226.411 2630.82 226.306 2628.01 226.656C2628.18 227.225 2628.65 227.767 2629.22 228.287C2628.08 229.166 2627.14 228.966 2629.96 230.043C2628.82 230.098 2627.69 230.113 2626.6 230.066C2627.85 230.543 2629.04 231.065 2630.46 231.467C2629.69 231.7 2628.91 231.92 2628.18 232.147C2628.88 232.477 2629.63 232.809 2630.37 233.149C2629.8 233.286 2629.28 233.429 2628.78 233.576C2630 234.296 2628.53 235.173 2629.59 235.912C2629.21 236.15 2628.82 236.385 2628.48 236.622C2629.09 236.902 2629.72 237.184 2630.38 237.466C2629.83 237.706 2629.28 237.944 2628.8 238.186C2629.34 238.458 2629.92 238.723 2630.55 238.995C2629.96 239.18 2629.31 239.355 2628.8 239.54C2629.21 239.957 2630.04 240.217 2630.98 240.407C2630.19 240.617 2629.43 240.834 2628.71 241.054C2629.15 241.412 2629.61 241.774 2630.06 242.149C2629.26 242.091 2628.53 242.031 2627.8 241.969C2628.39 242.343 2628.94 242.733 2629.53 243.125C2631.13 243.262 2632.74 243.43 2634.34 243.627C2634.13 243.852 2633.96 244.082 2633.83 244.317C2632.76 243.92 2631.45 243.804 2630.13 243.862C2629.94 244.179 2629.78 244.499 2629.65 244.821C2629.65 244.821 2597.78 244.651 2591.46 244.861C2592.19 244.097 2591.46 243.403 2590.14 242.895C2589.65 242.891 2574.78 242.863 2574.09 242.93C2574.36 243.547 2574.69 244.159 2575.01 244.779C2573.89 244.387 2573.09 243.495 2571.41 243.722C2568.93 243.984 2566.46 243.497 2563.97 243.637C2551.18 244.179 2549.98 243.409 2546.94 244.781C2546.94 244.781 2534.08 244.823 2528.73 244.719C2525.88 244.814 2523.05 245.219 2520.19 244.979C2517.63 244.787 2514.97 245.054 2512.51 244.659C2510.08 244.298 2510.45 244.809 2496.92 244.889C2477.64 244.879 2482.87 245.11 2477.75 244.09C2477.82 243.613 2477.87 243.135 2477.96 242.663C2476.06 242.228 2473.92 242.476 2471.92 242.381C2471.04 241.906 2471.32 241.242 2471.15 240.682C2467.72 239.997 2464.12 240.774 2460.59 240.659C2458.06 240.762 2455.67 240.409 2453.26 240.184C2451.01 240.3 2448.84 240.657 2446.58 240.714C2444.71 240.714 2443.44 241.431 2441.67 241.578C2441.69 241.828 2442.38 252.704 2442.18 253.006C2442.51 253.251 2443.17 253.478 2443.01 253.813C2441.81 258.571 2441.86 257.351 2434.81 256.699C2435.53 256.861 2436.27 257.014 2437.05 257.171C2436.15 257.813 2434.87 259.037 2432.9 258.28C2432.22 258.395 2431.53 258.51 2430.91 258.633C2430.21 258.463 2429.53 258.3 2428.88 258.138C2429.85 255.794 2428.94 255.524 2428.7 247.688C2427.62 247.595 2426.58 247.363 2425.51 247.458C2422.14 247.758 2418.69 247.618 2415.31 247.638C2413.01 247.711 2411.53 246.836 2410.03 246.222C2407.91 246.084 2405.05 245.829 2403.87 246.861C2401.43 246.924 2398.97 246.831 2396.55 246.926C2395.9 247.166 2395.84 247.558 2395.59 247.888C2392.66 247.896 2389.73 247.851 2386.83 247.941C2387.18 248.704 2387.99 253.544 2387.45 254.671C2378.75 253.285 2385.32 255.016 2375.62 255.151C2374.66 255.109 2373.44 255.256 2372.92 254.806C2372.2 251.835 2370.75 217.865 2370.05 216.407C2350.46 216.296 2360.79 216.176 2353.24 215.752C2350.18 216.017 2347.12 216.335 2344 216.374C2343.19 216.219 2343.25 215.745 2342.93 215.45C2341.48 215.37 2340.04 215.203 2338.6 215.332C2334.98 215.559 2317.1 215.469 2316.54 215.49C2316.56 215.81 2316.59 216.127 2316.66 216.454C2315.81 216.392 2314.93 216.337 2314.28 216.092C2312.03 215.232 2309.26 216.252 2306.85 216.374C2306.29 216.373 2294.96 217.53 2289.57 217.426C2287.5 219.537 2292.39 240.463 2291.75 253.092C2290.55 253.2 2289.37 253.314 2288.19 253.387C2283.93 249.058 2286 214.783 2282.64 211.512C2276.73 211.368 2270.81 211.423 2264.9 211.405C2262.81 211.322 2261.12 212.069 2259.02 211.927C2259.05 211.487 2259.08 211.047 2259 210.613C2260.76 210.378 2262.67 210.443 2264.43 210.151C2263.13 206.412 2264.78 205.559 2262.47 204.414C2260.5 204.614 2258.48 204.702 2256.48 204.657C2256.46 204.382 2256.47 204.11 2256.52 203.84C2257.07 203.83 2257.65 203.823 2258.25 203.818C2256 202.623 2256.3 203.326 2256.55 201.249C2255.46 200.795 2254.9 200.198 2254.4 199.596C2253.18 199.073 2252.06 199.765 2251.26 200.123C2248.93 200.293 2247.14 199.289 2244.83 199.381C2243.34 199.271 2242.18 199.743 2240.89 199.943C2239.76 199.806 2238.86 199.303 2237.64 199.436C2234.56 199.688 2231.55 200.243 2228.38 200.078C2226.21 199.938 2224.78 200.875 2223.01 201.255C2222.96 202.494 2222.83 203.733 2222.69 204.972C2220.37 205.075 2218.14 205.387 2215.86 205.522C2215.4 206.906 2216.02 208.295 2216 209.684C2216.11 210.081 2215.75 210.758 2217.04 210.831C2218.51 210.928 2220.03 210.941 2221.48 211.161C2221.19 211.328 2220.93 211.498 2220.69 211.668C2221.05 211.828 2221.45 211.99 2221.88 212.158C2221.29 212.412 2220.8 212.705 2220.14 212.9C2218.89 212.87 2217.78 212.58 2216.59 212.503C2214.23 212.31 2211.78 212.315 2209.55 211.913C2208.46 211.636 2207.32 211.981 2206.24 212.033C2204.9 212.056 2203.6 211.998 2202.31 212.018C2203.59 212.158 2205.36 211.916 2206.29 212.465C2200.35 212.23 2194.47 212.778 2188.54 212.81C2186.47 212.793 2184.53 213.078 2182.69 213.443C2182.85 212.996 2183.36 212.611 2184.15 212.321C2182.21 212.676 2180.09 212.75 2178.07 212.933C2178 213.162 2177.96 213.395 2177.95 213.627C2176.93 213.515 2175.92 213.388 2174.96 213.26C2173.22 214.324 2170.14 214.015 2167.71 214.447C2167.79 215.279 2168.39 216.139 2167.84 216.96C2166.8 217.407 2165.44 217.652 2164.21 217.944C2164.24 218.751 2165.43 219.753 2163.74 220.383C2162.25 220.92 2160.32 221.239 2158.4 221.154C2158.38 220.182 2158.68 219.106 2157.09 218.329C2157.43 218.009 2157.79 217.694 2158.18 217.379C2157.42 217.049 2156.63 216.74 2155.85 216.44C2156.14 216.227 2156.47 216.02 2156.81 215.815C2156.4 215.52 2156.02 215.228 2155.66 214.936C2156.93 214.076 2155.47 213.072 2156.41 212.163C2154.24 211.118 2151 211.476 2148.21 211.608C2148.18 211.126 2148.19 210.646 2148.25 210.172C2145.4 209.07 2141.38 209.652 2138.16 210.035C2137.8 209.675 2137.48 209.315 2137.19 208.96C2134.69 209.018 2132.18 209.14 2129.72 208.908C2128.14 178.593 2126.81 180.376 2128.6 178.97C2125.77 178.524 2096.93 175.774 2093.93 175.93C2089.6 180.017 2086.56 189.584 2085.33 190.725C2078.63 223.137 2092.46 213.083 2070.98 216.183C2070.98 217.152 2070.96 218.124 2070.93 219.096C2068.95 219.295 2066.94 219.428 2065.06 219.755C2065.16 220.131 2065.87 237.857 2065.89 237.918C2064.36 237.905 2062.87 237.838 2061.44 237.646C2061.79 237.328 2062.2 237.021 2062.61 236.714C2062.04 236.446 2061.48 236.197 2061.04 235.901C2061.21 235.556 2062.07 235.399 2062.6 235.155C2061.97 234.825 2061.35 234.495 2060.78 234.16C2061.16 233.888 2061.59 233.62 2062.04 233.355C2061.42 233.028 2060.83 232.701 2060.27 232.371C2060.83 232.132 2061.42 231.902 2062.04 231.674C2061.41 231.349 2060.82 231.022 2060.26 230.692C2060.66 230.425 2061.12 230.163 2061.58 229.9C2061.11 229.633 2060.65 229.371 2060.24 229.111C2060.59 228.784 2061 228.466 2061.42 228.152C2061.03 227.897 2060.61 227.654 2060.37 227.377C2060.46 226.98 2061.15 226.695 2061.61 226.373C2060.94 226.105 2060.28 225.843 2059.66 225.581C2060.23 225.321 2060.83 225.068 2061.47 224.821C2060.89 224.504 2060.32 224.194 2059.77 223.885C2060.24 223.587 2060.75 223.297 2061.26 223.003C2060.71 222.716 2060.16 222.428 2059.66 222.143C2060.16 221.861 2060.7 221.589 2061.26 221.316C2060.69 221.032 2060.12 220.752 2059.6 220.472C2060.05 220.197 2060.53 219.927 2061.03 219.657C2060.39 219.325 2059.77 218.995 2059.18 218.666C2059.77 218.408 2060.38 218.156 2061.02 217.904C2060.36 217.649 2059.71 217.399 2059.1 217.147C2059.47 216.804 2059.89 216.472 2060.32 216.142C2060.08 215.825 2059.85 215.51 2059.66 215.198C2059.93 214.958 2060.25 214.726 2060.57 214.491C2060.07 214.161 2059.61 213.827 2059.2 213.487C2059.68 213.247 2060.22 213.014 2060.74 212.775C2060.17 212.473 2059.6 212.17 2059.08 211.868C2059.77 211.735 2060.5 211.61 2061.25 211.488C2060.67 210.916 2059.72 210.459 2058.6 210.106C2059.2 209.871 2059.83 209.646 2060.49 209.424C2059.84 209.084 2059.2 208.752 2058.59 208.417C2059.17 208.178 2059.78 207.945 2060.41 207.713C2058.62 206.12 2059.34 207.756 2060.27 204.907C2059.67 204.98 2059.09 205.055 2058.53 205.132C2059.79 204.48 2060.88 203.666 2062.98 203.553C2063.13 203.396 2063.31 203.241 2063.52 203.089C2061.64 202.973 2060.41 202.354 2059.38 201.712C2059.74 201.457 2060.27 201.23 2060.46 200.925C2060.14 200.515 2059.06 200.328 2058.82 199.921C2059.27 199.641 2059.84 199.409 2060.42 199.166C2059.88 198.912 2059.29 198.677 2058.9 198.39C2058.81 197.935 2060.08 197.865 2060.7 197.608C2059.96 197.155 2058.97 196.816 2058.04 196.466C2058.81 196.221 2059.62 195.981 2060.42 195.729C2059.74 195.454 2059.08 195.182 2058.46 194.907C2058.97 194.59 2059.76 194.327 2059.94 193.915C2059.5 193.57 2058.8 193.323 2058.22 193.048C2058.72 192.711 2059.31 192.401 2059.96 192.109C2059.35 191.764 2058.71 191.439 2058.06 191.127C2058.58 190.817 2059.14 190.515 2059.71 190.213C2059.16 189.935 2058.49 189.698 2058.18 189.366C2058.06 188.898 2058.8 188.506 2059.18 188.091C2057.76 187.957 2056.32 187.879 2054.91 187.817C2055.18 186.497 2054.16 185.031 2055.88 183.849C2049.3 183.19 2051.14 182.668 2046.71 182.977C2045.36 183.682 2043.19 183.39 2041.4 183.432C2040.92 182.73 2040.85 181.993 2040.51 181.286C2038.81 180.691 2036.58 181.296 2034.72 181.366C2032.97 181.144 2031.69 180.506 2030.05 180.194C2028.93 180.169 2027.86 180.314 2026.8 180.411C2025.35 180.409 2025.27 181.243 2024.07 181.438C2023.51 181.55 2016.92 183.822 2010.54 182.975C2003.64 182.914 1996.53 182.657 1989.9 183.684C1989.91 184.421 1989.93 185.161 1989.93 185.9C1990.97 185.94 1992.18 185.823 1993.1 186.155C1986.39 186.426 1985.08 185.154 1982.76 186.979C1983.07 188.364 1983.42 189.94 1981.41 191.119C1980.77 191.491 1980.42 192.048 1979.28 192.148C1978.04 192.326 1976.7 192.595 1976.2 193.173C1976.42 194.677 1976.67 196.203 1976.21 197.705C1975.55 198.119 1974.68 198.462 1974.03 198.876C1974.41 199.144 1974.85 199.414 1975.3 199.684C1973.94 200.583 1974.1 201.67 1974.1 202.706C1974.95 202.862 1975.8 203.019 1976.67 203.196C1975.93 203.401 1975.19 203.601 1974.48 203.811C1974.43 204.838 1974.18 205.875 1974.68 206.894C1970.67 207.014 1966.62 207.116 1962.62 206.934C1962.78 205.547 1963.08 200.295 1960.79 199.002C1959.84 197.455 1960.6 195.814 1960.22 194.235C1959.53 193.595 1957.85 193.428 1956.45 193.343C1955.9 192.696 1956 192.001 1956.21 191.332C1956.58 190.2 1955.82 189.086 1955.74 187.959C1954.48 187.809 1953.22 187.684 1951.97 187.592C1951.88 185.798 1952.14 183.997 1951.25 182.233C1950.1 182.085 1948.97 181.943 1947.85 181.806C1947.87 181.439 1947.91 181.071 1947.98 180.706C1945.95 180.367 1943.85 179.977 1941.66 180.099C1937.33 180.288 1928.4 179.889 1924.8 181.036C1924.24 181.468 1923.88 181.948 1923.25 182.36C1921.14 182.994 1918.9 182.147 1916.8 181.938C1916.94 181.591 1917.09 181.246 1917.27 180.903C1914.29 180.336 1910.9 180.586 1907.75 180.414C1905.88 180.254 1904.1 180.596 1902.28 180.634C1900.24 180.004 1897.77 179.719 1895.86 179.002C1896.12 178.88 1896.64 178.632 1896.9 178.51C1896.32 178.235 1895.74 177.963 1895.18 177.696C1895.51 176.614 1894.83 175.535 1894.89 174.45C1894.97 173.981 1894.19 173.499 1893.12 173.489C1891.74 173.414 1890.54 173.126 1889.35 172.847C1889.27 171.705 1889.36 170.561 1889.3 169.421C1888.88 166.765 1885.64 167.681 1884.87 167.712C1883.58 167.93 1882.24 167.82 1880.95 167.7C1877.35 167.343 1873.6 167.385 1869.96 167.55C1867.97 168.159 1865.51 167.807 1863.32 168.037C1862.57 168.747 1862.23 169.559 1860.43 169.891C1860.11 169.709 1859.83 169.526 1859.58 169.341C1858.83 166.056 1859.21 162.748 1859.16 159.451C1854.18 158.6 1841.29 158.83 1836.43 157.872C1831.19 156.86 1824.83 157.188 1820.04 158.499C1812.2 162.249 1813.84 163.068 1813.22 165.649C1812.58 166.336 1811.65 166.961 1810.89 167.62C1812.42 167.63 1814.01 167.723 1815.05 168.29C1811.07 169.262 1806.89 170.189 1802.42 170.563C1800.96 172.155 1797.76 173.199 1794.68 174.124C1795.47 174.623 1794.79 175.161 1794.35 175.658C1793.64 175.313 1793.06 174.936 1792.57 174.539C1790 174.681 1787.43 174.861 1784.84 174.789C1783.09 174.709 1782.37 175.67 1780.75 175.791C1779.27 175.923 1777.98 176.283 1776.69 176.605C1774.69 176.693 1772.96 176.083 1771.07 175.906C1770.91 176.356 1770.78 176.808 1770.66 177.262C1767.23 176.653 1764.92 175.259 1761.74 174.462C1760.89 174.332 1760.01 174.469 1759.19 174.479C1758.5 179.193 1760.11 186.199 1759.41 189.374C1759.03 189.619 1758.3 189.579 1757.76 189.639C1757.45 189.306 1757.17 188.982 1756.89 188.657C1754.67 189.114 1752.43 189.536 1750.23 190.003C1749.84 191.13 1750.16 192.262 1750.49 193.381C1749.16 194.478 1749.78 195.742 1750.14 196.914C1747.18 197.536 1743.81 197.533 1740.7 197.938C1740.02 197.119 1739.21 196.316 1738.81 195.46C1740.41 195.43 1742.02 195.422 1743.64 195.39C1743.19 194.645 1741.03 194.782 1739.72 194.595C1739.31 194.295 1738.91 194.006 1738.52 193.718C1739.18 193.433 1739.85 193.149 1740.54 192.864C1740.02 192.562 1739.5 192.262 1739 191.964C1739.98 191.467 1740.02 190.83 1739.67 190.218C1741.24 190.203 1742.84 190.17 1744.37 189.946C1743.36 189.211 1741.09 189.346 1739.49 189.071C1741.07 187.377 1741.1 187.976 1739.46 186.631C1740.17 186.388 1740.89 186.149 1741.61 185.906C1741.69 185.269 1741.79 184.599 1741.04 184.03C1739.23 183.388 1737.85 182.461 1735.47 182.233C1733.95 178.969 1734.01 183.972 1734.96 175.798C1733.13 175.53 1731.35 175.218 1729.58 174.891C1724.81 176.3 1724.28 175.152 1718.31 175.628C1713 175.143 1714.35 175.735 1699.19 175.607C1698.98 175.482 1698.77 175.368 1698.58 175.258C1696.22 175.375 1693.84 175.41 1691.48 175.385C1691.76 173.467 1690.67 171.45 1692.3 169.614C1693.26 168.535 1691.29 167.538 1691.44 166.459C1691.66 161.09 1690.78 162.303 1690.32 154.457C1686.83 154.436 1683.34 154.459 1679.85 154.454C1679.93 154.329 1680.06 154.077 1680.13 153.952C1678.9 153.945 1677.67 153.94 1676.47 153.937C1676.13 153.635 1675.82 153.335 1675.53 153.035C1675.25 153.011 1674.7 152.961 1674.43 152.935C1675.37 152.516 1675.44 151.948 1674.25 151.604C1673.52 151.931 1673.02 152.483 1671.83 152.461C1669.77 152.743 1667.59 152.108 1665.73 152.74C1665.41 152.445 1664.29 136.703 1664.54 134.795C1664.14 134.618 1663.76 134.442 1663.41 134.268C1662.67 134.42 1661.93 134.572 1661.22 134.722C1660.65 133.288 1661.43 131.811 1660.64 130.4C1656.7 130.298 1659.75 132.53 1658.81 135.604C1658.45 136.768 1659.38 137.905 1659.29 139.069C1659.9 144.143 1659.26 142.96 1659.6 151.396C1658.87 151.433 1658.17 151.473 1657.49 151.513C1657.27 151.915 1657.12 152.328 1656.75 152.707C1655.36 152.812 1655.76 152.03 1655.42 151.661C1649.11 152.161 1652.84 153.057 1645.55 151.608C1644.4 152.265 1643.72 153.032 1643.47 153.857C1640.05 155.414 1637.38 152.93 1629.75 154.453C1630.36 154.621 1631.01 154.788 1631.68 154.955C1630.89 155.392 1630.16 155.85 1629.65 156.357C1629.08 156.41 1628.53 156.465 1628.01 156.52C1626.94 158.8 1630.27 157.401 1627.77 159.277C1628.13 160.208 1628.21 166.211 1628.44 166.91C1629.86 170.396 1627.22 173.939 1630.39 174.644C1628.95 175.776 1629.52 177.208 1630.29 178.407C1624.46 178.905 1629.83 177.939 1622.24 179.985C1622.13 180.295 1622.04 180.608 1621.97 180.92C1593.78 181.183 1609.03 180.704 1597.24 180.603C1596.71 180.258 1596.19 179.906 1595.69 179.561C1594.82 179.988 1593.94 180.45 1592.61 180.573C1591.65 183.033 1593.22 185.497 1592.73 187.963C1592.57 188.935 1591.63 189.879 1592.13 190.866C1591.64 191.103 1591.16 191.348 1590.72 191.598C1591.3 191.968 1591.88 192.355 1592.37 192.762C1591.69 192.942 1591.04 193.129 1590.41 193.326C1591.16 193.598 1591.95 193.871 1592.71 194.158C1592.11 194.468 1591.52 194.775 1590.95 195.085C1591.47 195.377 1592 195.68 1592.51 195.989C1591.09 196.099 1589.59 196.179 1588.44 196.586C1585.47 197.352 1589.04 203.713 1586.39 208.773C1584.8 208.885 1583.19 208.945 1581.62 209.035C1581.65 210.154 1582.95 229.833 1582.44 231.844C1581.8 231.997 1581.19 232.149 1580.58 232.302C1580.49 232.716 1580.37 233.131 1580.22 233.543C1578.34 233.409 1576.45 233.388 1574.57 233.361C1573.86 231.387 1573.75 219.161 1573.71 218.911C1572.09 218.689 1570.41 218.619 1568.74 218.604C1568.18 218.252 1567.56 217.929 1566.9 217.629C1568.2 216.94 1567.35 216.155 1566.99 215.398C1566.99 215.396 1565.94 209.839 1566.97 207.416C1565.69 206.954 1564.35 206.277 1562.55 206.487C1560.93 206.632 1559.43 206.25 1557.88 206.175C1556.88 206.263 1556.02 206.525 1555.03 206.568C1532.3 206.796 1548.11 207.595 1536.58 206.435C1536.97 206.28 1537.38 206.128 1537.82 205.978C1536.23 205.213 1536.81 204.114 1536.64 203.169L1535.94 174.312C1535.91 173.337 1535.03 172.403 1535.31 171.421C1534.73 170.507 1535.69 169.605 1535.11 168.688C1535.34 168.079 1535.46 167.464 1534.51 166.96C1534.85 166.939 1535.51 166.905 1535.84 166.885C1534.63 165.024 1535.75 163.085 1534.96 161.206C1534.56 160.062 1535.94 158.736 1534 157.776C1534.49 157.649 1534.99 157.522 1535.51 157.397C1535.03 157.142 1534.57 156.892 1534.11 156.645C1536.11 155.353 1533.75 153.826 1534.89 152.467C1533.05 151.152 1534.14 151.444 1535.03 150.648C1534.51 150.456 1534.02 150.269 1533.53 150.086C1533.76 149.744 1533.99 149.401 1534.23 149.062C1533.57 149.002 1532.93 148.945 1532.31 148.892C1531.8 148.418 1531.3 147.945 1530.85 147.466C1532.4 147.121 1533.96 146.779 1535.49 146.409C1535.5 146.249 1535.5 145.929 1535.51 145.769C1531.17 145.34 1526.71 145.465 1522.31 145.397C1521.31 145.125 1520.17 144.753 1519.03 145.1C1516.72 145.689 1514.01 145.35 1511.52 145.504C1508.73 145.802 1505.94 145.302 1503.13 145.474C1503.45 145.736 1503.8 145.994 1504.18 146.253C1502.06 146.103 1501.26 145.545 1496.99 146.641C1496.34 146.965 1495.8 147.333 1495.24 147.685C1497.57 148.11 1500.06 148.125 1502.51 147.937C1502.5 148.242 1502.49 148.547 1502.51 148.857C1500.39 148.849 1499.42 149.713 1498.18 150.323C1499.08 150.393 1500 150.438 1500.94 150.478C1500.14 150.736 1499.37 150.998 1498.62 151.27C1498.47 152.29 1498.69 153.324 1498.24 154.333C1498.67 154.481 1499.13 154.633 1499.6 154.788C1499.12 155.32 1498.57 155.837 1497.99 156.347C1498.68 156.439 1499.38 156.539 1500.11 156.646C1499.49 156.834 1498.89 157.024 1498.3 157.216C1498.7 157.326 1499.13 157.436 1499.58 157.548C1498.95 157.746 1498.65 158.043 1498.43 158.353C1498.93 158.4 1499.94 158.501 1500.44 158.55C1499.82 158.92 1499.19 159.282 1498.58 159.652C1499.17 160.022 1499.79 160.384 1500.44 160.744C1499.83 161.078 1499.21 161.406 1498.57 161.723C1499.1 162.01 1499.66 162.3 1500.22 162.593C1499.61 162.87 1499 163.138 1498.52 163.455C1498.78 164.082 1500.57 163.81 1501.6 163.967C1501 164.659 1498.59 164.579 1498.42 165.394C1499.66 165.431 1500.92 165.456 1502.19 165.509C1501.09 165.898 1499.88 166.208 1498.75 166.573C1498.07 167.13 1499.93 167.414 1500.6 167.75C1500.3 168.149 1499.71 168.467 1498.98 168.724C1499.27 168.811 1499.83 168.986 1500.12 169.074C1499.73 169.461 1499.31 169.841 1498.79 170.195C1500.02 170.972 1498.61 171.972 1499.9 172.734C1499.68 173.014 1499.24 173.286 1499.35 173.596C1499.71 173.886 1500.56 174.073 1500.68 174.42C1500.37 174.722 1499.91 174.985 1499.51 175.257C1499.77 175.552 1500.04 175.844 1500.32 176.144C1499.95 176.412 1499.61 176.684 1499.29 176.956C1499.66 177.216 1500.07 177.478 1500.48 177.741C1500.12 178.05 1499.78 178.363 1499.47 178.683C1500.3 179.297 1500.08 179.994 1499.69 180.656C1500.04 180.846 1500.42 181.038 1500.82 181.233C1500.32 181.501 1499.84 181.768 1499.38 182.04C1499.76 182.4 1500.18 182.758 1500.61 183.117C1500.18 183.302 1499.78 183.489 1499.4 183.679C1499.99 184.311 1500.02 184.991 1499.68 185.658C1500.46 185.785 1501.23 185.91 1502.05 186.047C1501.29 186.46 1500.44 186.832 1499.61 187.204C1500.39 187.462 1501.18 187.719 1501.98 187.986C1501.3 188.244 1500.61 188.491 1499.94 188.743C1499.98 188.871 1500.06 189.128 1500.09 189.256C1500.88 189.343 1501.68 189.425 1502.5 189.516C1501.73 189.91 1499.66 190.17 1500.35 190.807C1501.03 190.982 1502.28 190.904 1502.47 191.349C1501.73 191.641 1500.92 191.896 1500.15 192.164C1500.71 192.411 1501.3 192.663 1501.89 192.916C1500.65 193.55 1501.49 194.352 1501.17 195.086C1500.75 195.789 1501.69 196.471 1501.28 197.18C1501.5 198.107 1500.41 199.128 1501.89 199.928C1501.4 200.205 1500.92 200.482 1500.46 200.765C1501.79 201.363 1502.7 200.981 1500.52 202.591C1500.97 202.841 1501.44 203.096 1501.92 203.353C1501.54 203.6 1500.73 203.823 1500.99 204.17C1501.28 205.404 1501.86 206.671 1501.21 207.898C1501.58 213.25 1501.24 215.667 1501.24 215.667C1500 215.645 1498.66 215.72 1497.67 215.34C1496.34 214.86 1494.57 214.645 1493.59 213.999C1494.18 213.766 1494.8 213.541 1495.42 213.314C1494.7 212.952 1493.66 212.737 1493.05 212.352C1492.64 211.76 1492.71 211.138 1492.75 210.531C1491.97 210.358 1491.19 210.199 1490.42 210.051C1490.5 209.484 1490.35 208.917 1490.24 208.357C1490.95 208.283 1491.73 208.217 1492.48 208.14C1491.75 208.087 1491.03 208.038 1490.34 207.993C1490.31 207.25 1490.33 205.393 1488.84 205.307C1485.78 204.985 1482.79 204.525 1479.63 204.465C1479.35 203.07 1477.85 168.877 1477.85 168.877C1478.01 167.868 1478.11 166.801 1477 165.884C1475.6 165.549 1473.77 165.751 1472.28 165.474C1472.74 165.067 1473.19 164.655 1473.61 164.234C1475.52 163.995 1477.53 163.855 1479.27 163.395C1477.09 162.277 1467.59 163.189 1462.07 162.039C1458.99 161.704 1447.82 162.437 1442.68 163.525C1442.69 163.673 1442.71 163.968 1442.72 164.115C1444.4 164.332 1446.36 164.549 1447.08 165.359C1445.65 165.591 1443.93 165.751 1443.04 166.346C1443.56 166.396 1444.59 166.493 1445.1 166.541C1444.25 166.878 1443.35 167.185 1442.45 167.49C1442.89 167.892 1443.65 168.185 1444.48 168.442C1443.67 168.442 1442.89 168.447 1442.12 168.452C1443.18 169.459 1443.46 172.95 1443.39 173.308C1443.86 173.453 1444.35 173.601 1444.85 173.751C1444.1 174.008 1443.35 174.267 1442.64 174.53C1443.07 175.127 1444.04 175.564 1445.32 175.817C1444.56 176.092 1443.79 176.369 1443.08 176.658C1443.59 176.968 1444.16 177.275 1444.73 177.58C1444.38 177.847 1444.05 178.117 1443.76 178.395C1444.16 178.737 1444.56 179.086 1444.98 179.439C1444.51 179.703 1444.08 179.971 1443.65 180.241C1444.46 180.418 1445.28 180.611 1446.09 180.808C1445.24 181.128 1444.39 181.448 1443.65 181.812C1444.05 181.865 1444.85 181.972 1445.25 182.027C1444.68 182.891 1444.53 183.788 1444.6 184.688C1444.25 185.287 1443.94 185.909 1444.85 186.452C1444.47 186.752 1444.09 187.051 1443.75 187.361C1444.67 187.611 1445.63 187.856 1446.66 188.043C1445.92 188.17 1445.18 188.298 1444.47 188.443C1445.04 189.219 1445.17 190.089 1443.8 190.721C1444.29 191.019 1444.82 191.316 1445.37 191.613C1444.61 191.963 1443.86 192.32 1443.13 192.675C1443.6 192.979 1444.1 193.287 1444.65 193.577C1444.45 193.669 1444.04 193.856 1443.83 193.949C1445.05 196.703 1444.22 209.536 1444.27 210.563C1441.17 210.536 1438.07 210.561 1435.02 210.775C1434.87 211.64 1434.88 212.512 1435.16 213.371C1434.5 213.396 1433.86 213.424 1433.23 213.453C1433.53 214.065 1433.73 214.688 1433.78 215.32C1432.81 215.365 1431.86 215.41 1430.94 215.457C1431.28 216.871 1429.92 218.222 1430.25 219.637C1430.97 220.634 1429.82 221.685 1431.02 222.65C1429.8 222.817 1428 223.17 1427.13 222.572C1426.34 219.914 1427.42 214.652 1426.98 207.487C1426.12 207.105 1424.81 207.05 1423.75 206.838C1423.7 205.993 1423.71 205.146 1423.62 204.304C1420.98 205.567 1422.49 205.916 1423.04 206.94C1418.73 207.41 1403.57 206.936 1381.25 207.187C1375.92 207.042 1379.45 213.488 1378.15 220.049C1375.96 220.389 1373.65 220.511 1371.43 220.778C1371.91 221.141 1372.42 221.505 1372.91 221.88C1371.81 221.967 1370.74 222.125 1369.63 222.08C1367.09 221.875 1364.77 222.587 1362.23 222.539C1358.78 222.484 1355.33 222.42 1351.89 222.359C1352.46 217.438 1351.02 205.236 1351.54 202.753C1351.28 202.643 1350.75 202.42 1350.49 202.31C1350.45 202.917 1350.44 203.527 1350.42 204.137C1350.16 204.142 1349.64 204.149 1349.39 204.154C1349.01 197.09 1350.28 199.689 1347.74 197.126C1349 197.356 1350.28 197.578 1351.61 197.736C1350.63 196.962 1349.08 197.09 1350.47 193.696C1349.74 193.654 1349.04 193.616 1348.34 193.586C1347.74 192.347 1347.63 191.085 1347.58 189.824C1343 189.148 1346.4 188.88 1335.94 188.667V189.167C1338.14 189.217 1340.74 188.937 1342.44 189.744C1337.9 190.026 1333.25 189.734 1328.76 190.146C1328.15 189.977 1327.71 189.599 1326.93 189.647C1321.3 189.704 1322.89 189.953 1322.67 193.407C1322.03 193.809 1320.71 193.844 1319.8 194.064C1319.42 195.171 1318.68 196.397 1320.17 197.412C1319.51 197.427 1318.86 197.444 1318.24 197.464C1316.3 198.476 1316.85 199.863 1316.96 201.087C1317.53 201.267 1318.13 201.449 1318.73 201.632C1317.71 201.996 1317.27 202.539 1316.86 203.071C1317.49 203.266 1318.14 203.463 1318.8 203.663C1318.18 203.94 1317.57 204.215 1316.97 204.492C1316.81 208.316 1317.57 221.418 1317.47 226.892C1309.3 226.94 1301.12 226.847 1292.96 226.932C1292.84 233.416 1293.38 239.891 1293.38 246.377C1291.72 246.382 1290.08 246.259 1288.43 246.227C1286.43 246.302 1284.43 246.389 1282.42 246.371C1280.94 245.627 1281.51 244.687 1281.75 243.808C1281.67 243.558 1278.98 201.468 1280.74 199.216C1281.78 197.954 1279.77 196.717 1280.04 195.433C1279.86 194.634 1280.57 193.692 1279.3 193.022C1278.34 192.498 1277.32 191.998 1276.47 191.441C1276.15 191.436 1275.52 191.423 1275.2 191.418C1274.97 192.602 1274.49 193.779 1273.88 194.938C1272.45 194.923 1271.03 194.918 1269.62 194.916C1269.15 194.629 1268.7 194.341 1268.26 194.059C1267.91 194.091 1267.19 194.159 1266.84 194.194C1266.73 194.381 1266.52 194.756 1266.41 194.946C1264.3 194.741 1262.15 194.756 1260.04 194.948C1259.7 194.641 1259.39 194.336 1259.1 194.029C1258.07 194.074 1257.05 194.124 1256.06 194.181C1254.98 193.589 1255.16 192.84 1255.69 192.173C1255.15 192.167 1254.63 192.165 1254.12 192.165C1254.32 192.672 1254.7 193.234 1253.8 193.661C1250.7 195.293 1251.84 194.693 1244.43 194.951C1243.7 194.553 1242.89 194.176 1241.72 194.096C1241.6 194.318 1241.37 194.766 1241.25 194.991C1239.99 194.883 1238.85 194.626 1237.64 194.483C1236.6 194.681 1235.67 194.966 1234.71 195.226C1234.5 195.873 1234.9 207.467 1234.92 207.719C1233.16 207.765 1231.49 207.095 1229.81 207.457C1227.31 207.905 1224.37 207.952 1221.92 207.432C1219.13 208.079 1213.94 208.171 1211.64 207.427C1210.73 207.719 1209.66 207.912 1208.53 207.847C1206.33 207.765 1203.82 208.009 1201.98 207.347C1201.39 207.55 1200.85 207.832 1200.05 207.802C1197.9 207.837 1195.73 207.912 1193.6 207.799C1192.92 207.625 1192.4 207.37 1191.84 207.15C1191.71 207.315 1191.45 207.647 1191.33 207.812C1187.43 207.915 1183.52 207.897 1179.63 207.892C1179.31 207.467 1179.47 206.842 1178.34 206.668C1174.73 208.408 1177.68 215.595 1177.07 222.594C1175.65 222.612 1174.24 222.622 1172.84 222.589C1172.37 222.779 1171.91 222.974 1171.47 223.169C1170.04 223.149 1168.62 223.139 1167.21 223.124C1166.56 220.997 1166.88 189.372 1165.67 185.929C1165.97 184.777 1165.77 183.618 1165.97 182.463C1153.21 182.283 1138.53 182.705 1135.34 182.148C1133.31 181.909 1131.35 181.531 1129.27 181.439C1128.51 181.678 1128.82 182.088 1128.85 182.436C1125.79 182.433 1122.72 182.408 1119.66 182.456C1119.59 183.1 1119.58 183.747 1119.57 184.397C1119.81 184.497 1120.29 184.694 1120.53 184.794C1117.16 185.652 1119.54 187.977 1117.51 190.69C1117.84 191.454 1119.1 239.539 1118.29 240.641C1118.57 242.293 1118.67 243.951 1118.41 245.608C1078.03 245.858 1094.04 244.844 1080.57 247.204C1080.49 247.597 1080.42 247.991 1080.37 248.391C1077.94 248.581 1075.37 248.334 1073.06 248.788C1070.95 248.986 1068.77 248.921 1066.63 248.948C1066.43 248.488 1066.75 247.941 1066.12 247.552C1065.22 247.367 1064.22 247.354 1063.28 247.269C1062.72 242.26 1064.14 234.3 1062.01 226.716C1061.6 226.41 1053.87 220.872 1052.71 221.197C1049.73 222.671 1047.79 224.515 1044.84 225.989C1042.05 215.57 1032.28 119.757 1033.1 113.29C1037.44 113.212 1041.96 113.085 1045.89 112.183C1049.1 110.513 1048.05 109.19 1044.44 107.718C1045.75 106.981 1047.41 106.389 1048.9 105.722C1048.06 103.866 1049.76 102.07 1050.11 100.238C1049.54 100.036 1048.82 97.3879 1046.83 96.8107C1045.63 96.4084 1044.28 96.1114 1043.03 95.7514C1042.13 95.0445 1043.04 94.0124 1041.3 93.5156C1039.84 92.7434 1037.42 93.0785 1035.47 92.8933C1031.39 91.7188 1033.11 89.5883 1032.8 86.1404C1028.55 86.0638 1029.65 85.4396 1029.63 67.2583C1029.42 53.9748 1028.18 59.0386 1032.33 53.9415C1032.45 53.7953 1029.3 51.991 1028.91 51.8387C1026.27 50.6167 1028.05 51.8519 1027.75 46.0075C1028.18 44.5434 1027.46 43.0869 1027.32 41.6262C1027.19 40.2101 1027.47 38.7832 1027.47 37.3633L1026.12 24.9258C1025.04 20.8255 1024.14 27.1719 1023.93 13.0198C1023.78 2.14931 1024.73 -0.234041 1020.8 0.0174073C1020.15 2.3077 1021.08 20.4928 1021.11 20.7442C1019.12 23.4477 1018.44 22.4748 1018.65 27.5418C1018.67 27.9991 1016.14 40.4108 1017.84 43.8309C1018.18 44.6182 1017.79 50.4776 1017.67 51.2733C1017.08 52.3449 1013.67 52.7796 1014.17 54.0167C1013.87 55.2208 1016.59 56.0579 1016.36 57.2568C1016.34 60.4222 1015.42 84.0414 1016.61 85.9999C1008.52 87.032 1015.32 89.0929 1013.81 92.9027C1011.03 93.1702 1008.19 93.3549 1005.49 93.737C1003.18 94.4664 1004.4 95.9304 1003.29 96.9273C1001.88 97.622 999.77 97.8715 998.183 98.4515C997.295 99.9456 997.261 101.534 997.937 103.051C998.423 104.125 997.657 105.382 999.306 106.306C999.898 106.754 1001.25 107.115 1000.87 107.71C999.476 109.624 997.059 111.296 1006.99 113.281C1009.18 113.416 1011.41 113.356 1013.62 113.458C1013.98 115.192 1013.74 125.565 1013.85 141.707C1013.95 142.973 1012.73 144.172 1012.98 145.444C1013.64 154.802 1010.45 164.354 1011.89 172.683C1012.22 174.845 1010.51 174.502 1010.46 178.182C1010.65 195.764 1009.11 178.955 1009.36 196.42C1009.3 202.116 1008.03 194.525 1008.26 209.161C1008.41 210.601 1006.8 211.962 1007.26 213.406C1007.72 214.987 1006.8 216.571 1007.27 218.153C1007.54 218.982 1007.36 219.832 1006.7 220.619C1005.3 222.184 1006.36 226.409 1005.9 229.163C1003.82 233.821 1005.59 232.391 1005.14 237.16C1005.05 238.264 1003.58 239.256 1003.74 240.377C1003.45 243.104 1005.62 245.057 996.31 244.34C995.218 239.421 996.926 223.49 995.852 221.488C995.293 220.766 993.476 220.378 992.967 219.656C992.783 218.797 992.9 217.935 992.917 217.076C991.771 216.931 990.636 216.783 989.518 216.629C989.206 212.887 991.185 210.243 983.235 210.468C979.648 210.563 973.664 209.836 973.246 212.991C968.211 213.019 963.146 212.872 958.138 213.054C955.572 213.603 955.953 214.908 955.958 215.967C953.75 215.967 951.542 215.977 949.346 215.997C949.011 222.732 949.973 222.995 949.563 226.108C948.098 226.062 946.645 225.978 945.192 226.028C944.139 220.035 945.904 224.72 944.241 218.588C940.244 217.393 935.253 218.43 931.005 217.611C929.301 217.656 927.646 218.143 925.857 217.918C925.223 216.213 926.27 206.046 925.444 204.058C917.894 203.52 929.348 202.892 903.454 202.986C902.955 213.066 903.745 210.01 899.29 211.15C897.077 211.388 896.585 212.532 896.731 213.406C896.775 213.858 897.126 221.663 896.211 223.23C888.192 224.315 888.026 221.44 882.818 227.299C879.878 227.694 876.368 227.022 873.875 227.979C870.957 228.856 867.223 228.326 863.97 228.279C863.842 227.17 864.652 225.928 863.205 224.941C862.098 225.078 861.013 225.231 859.918 225.371C859.823 224.576 859.633 223.789 859.493 223.002C846.892 221.485 838.196 222.839 834.955 223.045C834.943 223.579 834.921 224.116 834.892 224.656C833.411 224.551 831.935 224.484 830.448 224.469C830.477 227.397 830.56 230.325 830.42 233.253C769.169 233.111 767.285 233.463 765.932 233.073C764.835 232.279 764.468 232.058 764.865 222.89C764.898 221.868 767.324 220.976 766.111 219.954C765.485 219.265 766.195 218.518 765.652 217.821C762.707 217.851 759.76 217.823 756.82 217.828C754.344 217.793 752.08 218.378 749.61 218.343C745.479 218.343 741.349 218.303 737.223 218.358C740.317 218.607 751.25 218.352 754.674 218.25C751.019 218.738 747.173 218.385 743.439 218.493C740.465 218.5 737.358 218.69 734.529 218.191C735.222 218.103 735.937 218.035 736.653 217.966C733.076 217.771 729.47 217.836 725.882 217.841C725.564 218.053 725.262 218.27 724.96 218.49C725.838 220.734 725.262 223.037 725.346 225.306C723.026 224.726 720.366 225.008 717.935 225.243C716.247 225.488 714.927 226.058 713.63 226.575C711.763 227.294 712.54 228.571 710.992 229.388C709.757 230.122 709.404 231.112 707.901 231.756C703.218 231.968 691.337 232.006 688.935 231.821C687.824 229.353 687.518 229.686 681.104 228.805C677.743 225.636 677.93 225.435 676.285 225.075C661.272 223.897 661.787 223.65 658.941 225.083C658.069 226.355 659.612 227.609 659.455 228.89C659.399 232.198 659.499 235.506 659.405 238.816C658.42 238.811 657.442 238.806 656.481 238.801C656.409 238.307 656.363 237.819 656.314 237.332C621.974 237.286 640.943 237.663 618.355 237.319C618.444 235.853 618.628 234.376 618.103 232.923C617.717 231.828 618.26 230.727 618.009 229.635C617.232 228.691 616.092 227.809 615.6 226.822C611.072 226.799 606.538 226.894 602.022 226.792C599.338 226.355 597.617 225.158 596.627 224.011C588.442 223.101 586.848 224.478 584.145 224.568C582.335 224.259 582.574 223.219 582.2 222.522C581.232 222.44 580.277 222.357 579.321 222.28C577.711 220.374 578.198 218.335 578.119 216.346C575.833 216.319 573.535 216.391 571.266 216.286C569.74 215.854 568.835 215.122 567.454 214.619C563.43 214.023 559.186 214.662 555.068 214.439C551.652 214.244 548.237 214.457 544.827 214.502C544.246 215.207 543.268 215.821 542.524 216.488C541.686 218.532 542.592 220.6 542.105 222.652C541.611 226.841 545.519 230.214 534.178 229.28C534.412 223.003 536.667 225.482 503.284 224.81C502.9 222.563 504.546 217.123 500.009 216.099C497.376 215.916 494.698 216.024 492.066 215.851C491.866 215.184 491.664 214.522 491.468 213.858C488.774 213.528 486.314 212.983 484.195 212.174C459.939 208.249 467.738 212.753 465.676 215.104C464.726 215.896 462.552 215.881 460.836 216.029C459.271 218.074 459.042 220.263 459.59 222.402C460.076 223.788 458.086 225.017 458.187 226.386C458.369 243.488 458.799 243.432 456.343 243.732C453.967 244.032 451.396 244.162 448.992 243.85C447.343 243.577 446.064 244.369 444.425 244.312C432.482 244.413 428.532 243.708 428.087 246.11C427.696 249.538 428.942 252.986 427.969 256.403C425.493 256.031 423.671 254.819 423.883 253.653C423.784 236.675 425.72 205.016 425.057 202.892C424.95 202.053 424.045 201.273 424.123 200.429C424.134 199.464 423.681 198.52 423.324 197.576C419.891 196.979 416.125 197.601 412.58 197.278C410.383 196.749 410.272 195.56 409.874 194.593C407.632 194.295 405.302 194.346 402.999 194.348C400.249 194.398 397.806 193.309 395.057 193.854C394.733 194.496 394.497 195.165 393.794 195.755C392.787 196.227 391.312 196.402 390.049 196.691C387.12 197.251 384.878 198.378 381.714 198.71C378.052 199.499 378.486 198.176 377.986 202.615C377.051 208.665 379.024 207.2 378.248 213.98C378.12 214.317 378.791 214.537 379.199 214.784C378 215.568 378.096 215.806 378.165 220.211C378.12 220.563 378.674 220.845 378.987 221.152C378.651 221.402 378.321 221.652 377.992 221.907C378.333 222.149 378.685 222.397 379.037 222.646C377.506 225.552 377.651 228.557 377.695 231.52C378.316 231.647 378.941 231.777 379.573 231.91C378.981 232.155 378.176 232.329 377.824 232.667C378.014 232.964 378.4 233.229 378.746 233.501C376.403 235.106 377.896 240.217 377.5 241.158C376.94 242.872 377.332 244.601 377.355 246.325C371.81 246.49 366.248 246.29 360.703 246.42C360.546 246.49 360.233 246.632 360.077 246.702C359.776 247.664 360.541 248.763 358.898 249.553C355.486 248.95 356.071 248.394 349.77 247.189C349.709 244.926 349.876 242.662 349.714 240.402C349.244 238.67 349.244 236.919 349.507 235.183C349.568 235.022 350.202 216.759 349.669 213.645C349.502 212.748 347.919 212.056 347.696 211.166C347.226 209.75 347.897 208.331 347.836 206.912C347.836 205.943 347.546 204.981 347.484 204.014C338.368 202.529 322.11 204.269 317.489 202.857C317.361 202.12 317.299 201.378 317.478 200.644C317.874 199.44 317.108 198.245 317.326 197.039C307.485 196.507 310.423 195.321 298.578 196.227C298.634 196.864 298.751 197.498 299.02 198.128C297.02 198.924 298.904 198.872 286.912 198.817C286.677 200.019 286.777 201.226 286.738 202.432C283.351 202.59 279.891 202.31 276.549 202.602C275.112 203.109 275.414 204.139 275.006 204.881C273.939 204.951 272.877 205.021 271.82 205.101C271.596 205.636 272.3 206.01 273.285 206.267C272.787 206.502 272.206 206.709 271.831 206.994C271.82 208.274 272.368 209.555 271.966 210.834C270.335 211.823 266.895 211.363 258.455 211.499C258.394 212.636 258.411 213.772 258.383 214.909C257.287 214.971 256.191 215.044 255.107 215.131C255.09 215.299 255.046 215.633 255.029 215.798C256.181 215.878 257.338 215.968 258.495 216.055C258.434 216.523 258.401 216.992 258.384 217.464C255.555 217.482 252.728 217.449 249.904 217.504C251.045 226.894 249.463 224.742 248.277 226.213C248.857 228.941 247.291 239.083 248.037 243.142C246.701 243.301 245.309 243.337 244.046 243.052C243.811 242.385 243.034 241.833 241.731 241.493C242.456 226.64 241.253 227.921 242.402 227.16C241.654 226.358 242.101 225.489 242.173 224.654C242.352 222.121 241.676 219.587 242.408 217.059C237.718 216.472 232.827 216.45 227.997 216.442C227.947 215.785 227.919 215.128 227.896 214.473C201.233 214.473 192.187 214.171 196.94 215.313C194.49 217.025 197.301 216.558 195.767 220.587C196.331 220.864 196.901 221.141 197.466 221.426C196.672 221.464 195.224 221.373 195.353 221.916C195.918 224.707 194.994 236.206 195.66 238.889C196.052 240.188 194.9 241.437 194.772 242.727L194.688 255.8C196.169 255.808 197.656 255.823 199.132 255.908C195.834 256.535 192.267 255.955 188.829 256.015C188.539 255.733 188.254 255.451 187.968 255.174C177.649 257.141 177.131 255.376 172.697 255.486C171.322 255.441 169.802 255.653 168.561 255.308C164.005 253.932 163.209 256.548 153.061 255.423C153.061 255.423 153.426 250.573 153.497 244.546C142.13 243.581 130.03 244.163 123.654 243.831C121.843 239.32 123.553 225.309 123.536 225.266C123.964 220.168 122.538 218.847 124.067 217.501C120.859 217.547 117.728 217.227 114.592 216.987C111.093 216.964 107.572 217.034 104.157 216.62C100.736 216.695 97.3036 216.635 93.8828 216.707C88.4105 217.167 82.8204 216.899 77.2871 216.962C78.4585 218.81 77.6046 228.601 77.5605 228.851C77.3134 230.014 79.6173 232.337 74.838 232.727C71.2385 232.641 67.6222 232.757 64.0384 232.544C61.2045 232.384 58.3926 232.641 55.5649 232.654C54.9466 229.293 56.9677 212.53 56.851 210.669C56.9856 210.122 55.8667 209.74 54.7437 209.71C47.1808 209.113 39.4172 209.852 31.8711 209.185C26.9246 209.49 21.916 209.183 16.9695 209.46L14.8905 258.307C14.8506 258.311 14.8106 258.316 14.7706 258.321V258.791H0.0424575C-0.0174815 289.138 -0.00801684 319.485 0.0340457 349.832H2691.97C2691.99 344.248 2692.03 243.846 2691.96 224.861ZM76.8654 253.477C75.0988 253.769 73.3269 253.357 71.555 253.314C66.1331 253.127 60.6945 253.189 55.2663 253.229C54.5744 252.102 55.5323 238.46 55.7584 238.042C56.5986 237.509 57.3 237.885 73.819 237.774C74.8306 237.744 75.8201 237.842 76.7592 238.002C77.368 241.982 76.491 246.529 76.8654 253.477ZM2446.17 241.25C2449.05 241.292 2452 241.065 2454.85 241.237L2455.24 241.457C2452.21 241.352 2449.16 241.337 2446.17 241.25Z" fill="#81A6FF" fill-opacity="0.15"/>
</svg>
