<svg width="1440" height="473" viewBox="0 0 1440 473" fill="none" xmlns="http://www.w3.org/2000/svg">
<path d="M1586.96 303.755C1586.63 303.795 1585.97 303.88 1585.65 303.92C1585.4 304.291 1585.19 304.666 1585.01 305.044C1584.66 305.115 1583.97 305.249 1583.62 305.317C1582.98 304.764 1582.73 303.771 1581.36 303.809C1578.36 303.758 1575.43 304.45 1572.43 304.106C1572.88 301.57 1573.63 298.944 1569.13 299.077C1564.54 299.088 1559.94 298.987 1555.39 299.331C1553.04 299.56 1550.68 298.895 1548.38 299.371C1545.47 299.911 1542.41 299.726 1539.44 299.763C1537.36 299.709 1535.72 300.796 1533.62 300.587C1532.17 300.435 1531.14 301.15 1529.98 301.518C1529.96 302.267 1529.86 303.023 1530.08 303.776C1530.6 304.447 1531.41 305.058 1531.66 305.814C1528.75 305.848 1525.82 305.706 1523.01 306.179C1523.18 306.948 1523.65 307.68 1524.22 308.383C1523.08 309.57 1522.14 309.3 1524.96 310.755C1523.82 310.829 1522.69 310.85 1521.6 310.786C1522.85 311.43 1524.04 312.135 1525.46 312.679C1524.69 312.992 1523.91 313.29 1523.18 313.597C1523.88 314.043 1524.63 314.491 1525.37 314.951C1524.8 315.136 1524.28 315.328 1523.78 315.528C1525 316.5 1523.53 317.684 1524.59 318.683C1524.21 319.004 1523.82 319.321 1523.48 319.642C1524.09 320.02 1524.72 320.401 1525.38 320.783C1524.83 321.106 1524.28 321.427 1523.8 321.755C1524.34 322.122 1524.93 322.48 1525.55 322.848C1524.96 323.098 1524.31 323.334 1523.8 323.584C1524.21 324.148 1525.04 324.499 1525.98 324.755C1525.19 325.038 1524.43 325.332 1523.71 325.629C1524.15 326.112 1524.61 326.602 1525.06 327.108C1524.26 327.03 1523.53 326.949 1522.8 326.864C1523.39 327.37 1523.94 327.897 1524.53 328.427C1526.13 328.612 1527.74 328.838 1529.34 329.105C1529.13 329.408 1528.96 329.719 1528.83 330.036C1527.76 329.5 1526.45 329.344 1525.13 329.422C1524.94 329.851 1524.78 330.283 1524.65 330.718C1524.65 330.718 1492.78 330.488 1486.46 330.772C1487.19 329.739 1486.46 328.801 1485.14 328.116C1484.65 328.111 1469.78 328.073 1469.09 328.163C1469.36 328.997 1469.69 329.824 1470.01 330.661C1468.89 330.131 1468.09 328.927 1466.41 329.233C1463.93 329.587 1461.46 328.93 1458.97 329.118C1446.18 329.851 1444.98 328.81 1441.94 330.664C1441.94 330.664 1429.08 330.72 1423.73 330.58C1420.88 330.708 1418.05 331.255 1415.19 330.931C1412.63 330.671 1409.97 331.032 1407.51 330.499C1405.08 330.011 1405.45 330.702 1391.92 330.81C1372.64 330.796 1377.87 331.109 1372.75 329.73C1372.82 329.085 1372.87 328.44 1372.96 327.803C1371.06 327.215 1368.92 327.549 1366.92 327.421C1366.04 326.78 1366.32 325.882 1366.15 325.126C1362.72 324.202 1359.12 325.251 1355.59 325.096C1353.06 325.234 1350.67 324.758 1348.26 324.454C1346.01 324.61 1343.84 325.092 1341.58 325.17C1339.71 325.17 1338.44 326.139 1336.67 326.337C1336.69 326.675 1337.38 341.366 1337.18 341.774C1337.51 342.105 1338.17 342.412 1338.01 342.864C1336.81 349.292 1336.86 347.643 1329.81 346.763C1330.53 346.982 1331.27 347.188 1332.05 347.401C1331.15 348.268 1329.87 349.922 1327.9 348.899C1327.22 349.055 1326.53 349.21 1325.91 349.375C1325.21 349.146 1324.53 348.926 1323.88 348.707C1324.85 345.541 1323.94 345.175 1323.7 334.59C1322.62 334.465 1321.58 334.152 1320.51 334.28C1317.14 334.685 1313.69 334.496 1310.31 334.523C1308.01 334.621 1306.53 333.44 1305.03 332.61C1302.91 332.424 1300.05 332.079 1298.87 333.474C1296.43 333.558 1293.97 333.433 1291.55 333.561C1290.9 333.885 1290.84 334.415 1290.59 334.861C1287.66 334.871 1284.73 334.81 1281.83 334.932C1282.18 335.962 1282.99 342.501 1282.45 344.024C1273.75 342.151 1280.32 344.489 1270.62 344.672C1269.66 344.615 1268.44 344.814 1267.92 344.206C1267.2 340.193 1265.75 294.304 1265.05 292.334C1245.46 292.185 1255.79 292.023 1248.24 291.45C1245.18 291.807 1242.12 292.236 1239 292.29C1238.19 292.081 1238.25 291.44 1237.93 291.042C1236.48 290.934 1235.04 290.708 1233.6 290.883C1229.98 291.188 1212.1 291.067 1211.54 291.096C1211.56 291.527 1211.59 291.956 1211.66 292.398C1210.81 292.314 1209.93 292.24 1209.28 291.909C1207.03 290.748 1204.26 292.125 1201.85 292.29C1201.29 292.288 1189.96 293.852 1184.57 293.711C1182.5 296.562 1187.39 324.831 1186.75 341.89C1185.55 342.036 1184.37 342.191 1183.19 342.289C1178.93 336.441 1181 290.141 1177.64 285.722C1171.73 285.527 1165.81 285.601 1159.9 285.577C1157.81 285.466 1156.12 286.475 1154.02 286.282C1154.05 285.688 1154.08 285.095 1154 284.507C1155.76 284.19 1157.67 284.278 1159.43 283.883C1158.13 278.833 1159.78 277.68 1157.47 276.134C1155.5 276.404 1153.48 276.522 1151.48 276.462C1151.46 276.09 1151.47 275.723 1151.52 275.358C1152.07 275.345 1152.65 275.335 1153.25 275.328C1151 273.715 1151.3 274.664 1151.55 271.859C1150.46 271.245 1149.9 270.438 1149.4 269.625C1148.18 268.919 1147.06 269.854 1146.26 270.337C1143.93 270.566 1142.14 269.21 1139.83 269.334C1138.34 269.186 1137.18 269.824 1135.89 270.094C1134.76 269.908 1133.86 269.23 1132.64 269.409C1129.56 269.75 1126.55 270.499 1123.38 270.276C1121.21 270.087 1119.78 271.353 1118.01 271.866C1117.96 273.54 1117.83 275.214 1117.69 276.888C1115.37 277.026 1113.14 277.448 1110.86 277.63C1110.4 279.5 1111.02 281.376 1111 283.253C1111.11 283.789 1110.75 284.704 1112.04 284.802C1113.51 284.933 1115.03 284.95 1116.48 285.248C1116.19 285.474 1115.93 285.703 1115.69 285.933C1116.05 286.148 1116.45 286.368 1116.88 286.594C1116.29 286.938 1115.8 287.333 1115.14 287.597C1113.89 287.556 1112.78 287.165 1111.59 287.06C1109.23 286.801 1106.78 286.807 1104.55 286.264C1103.46 285.889 1102.32 286.355 1101.24 286.426C1099.9 286.456 1098.6 286.379 1097.31 286.406C1098.59 286.595 1100.36 286.267 1101.29 287.01C1095.35 286.693 1089.47 287.432 1083.54 287.476C1081.47 287.453 1079.53 287.837 1077.69 288.33C1077.85 287.726 1078.36 287.206 1079.15 286.814C1077.21 287.294 1075.09 287.395 1073.07 287.641C1073 287.952 1072.96 288.265 1072.95 288.579C1071.93 288.428 1070.92 288.256 1069.96 288.084C1068.22 289.521 1065.14 289.103 1062.71 289.687C1062.79 290.81 1063.39 291.972 1062.84 293.082C1061.8 293.685 1060.44 294.016 1059.21 294.411C1059.24 295.501 1060.43 296.854 1058.74 297.705C1057.25 298.431 1055.32 298.862 1053.4 298.747C1053.38 297.434 1053.68 295.98 1052.09 294.93C1052.43 294.499 1052.79 294.073 1053.18 293.648C1052.42 293.202 1051.63 292.784 1050.85 292.379C1051.14 292.092 1051.47 291.812 1051.81 291.535C1051.4 291.137 1051.02 290.742 1050.66 290.347C1051.93 289.186 1050.47 287.83 1051.41 286.601C1049.24 285.19 1046 285.673 1043.21 285.852C1043.18 285.201 1043.19 284.552 1043.25 283.912C1040.4 282.424 1036.38 283.21 1033.16 283.726C1032.8 283.241 1032.48 282.754 1032.19 282.275C1029.69 282.352 1027.18 282.518 1024.72 282.204C1023.14 241.254 1021.81 243.661 1023.6 241.763C1020.77 241.16 991.931 237.445 988.934 237.656C984.605 243.177 981.558 256.1 980.332 257.642C973.631 301.425 987.46 287.844 965.983 292.031C965.983 293.341 965.961 294.654 965.927 295.966C963.948 296.236 961.942 296.415 960.064 296.857C960.159 297.365 960.868 321.31 960.885 321.392C959.365 321.375 957.867 321.284 956.436 321.025C956.788 320.596 957.201 320.181 957.609 319.766C957.045 319.404 956.48 319.067 956.045 318.668C956.212 318.202 957.068 317.99 957.599 317.66C956.967 317.214 956.353 316.769 955.776 316.316C956.162 315.949 956.587 315.587 957.04 315.229C956.424 314.787 955.827 314.345 955.268 313.9C955.827 313.576 956.424 313.265 957.04 312.958C956.407 312.519 955.815 312.078 955.256 311.632C955.664 311.271 956.117 310.916 956.581 310.562C956.112 310.201 955.653 309.847 955.239 309.495C955.591 309.054 956 308.625 956.424 308.2C956.033 307.856 955.608 307.528 955.374 307.153C955.463 306.617 956.151 306.232 956.609 305.797C955.944 305.435 955.279 305.081 954.659 304.727C955.229 304.376 955.832 304.035 956.469 303.701C955.894 303.272 955.318 302.854 954.77 302.435C955.24 302.034 955.755 301.642 956.262 301.244C955.709 300.856 955.161 300.468 954.658 300.083C955.16 299.702 955.703 299.334 956.256 298.966C955.691 298.582 955.122 298.204 954.596 297.825C955.049 297.454 955.535 297.09 956.032 296.725C955.395 296.276 954.774 295.831 954.182 295.386C954.769 295.038 955.384 294.697 956.016 294.356C955.357 294.012 954.713 293.674 954.099 293.334C954.469 292.871 954.887 292.422 955.323 291.977C955.077 291.548 954.854 291.123 954.664 290.701C954.932 290.378 955.251 290.063 955.569 289.746C955.072 289.301 954.608 288.849 954.2 288.39C954.681 288.066 955.223 287.752 955.743 287.428C955.168 287.02 954.596 286.611 954.082 286.202C954.77 286.023 955.497 285.854 956.246 285.689C955.669 284.917 954.725 284.299 953.602 283.823C954.2 283.505 954.831 283.202 955.485 282.902C954.836 282.443 954.199 281.994 953.59 281.542C954.166 281.218 954.781 280.904 955.407 280.59C953.625 278.438 954.338 280.648 955.273 276.8C954.669 276.898 954.088 277 953.528 277.104C954.786 276.223 955.876 275.123 957.984 274.971C958.134 274.758 958.314 274.549 958.52 274.343C956.636 274.188 955.413 273.351 954.378 272.484C954.741 272.139 955.266 271.832 955.457 271.421C955.143 270.867 954.06 270.614 953.825 270.064C954.272 269.686 954.843 269.372 955.418 269.045C954.875 268.701 954.295 268.383 953.897 267.996C953.808 267.382 955.083 267.287 955.698 266.939C954.959 266.328 953.97 265.869 953.042 265.397C953.814 265.066 954.624 264.742 955.418 264.401C954.742 264.03 954.081 263.662 953.456 263.291C953.97 262.862 954.764 262.508 954.938 261.951C954.496 261.485 953.797 261.151 953.221 260.78C953.725 260.324 954.305 259.906 954.959 259.511C954.351 259.045 953.707 258.606 953.064 258.184C953.584 257.766 954.138 257.358 954.708 256.95C954.16 256.575 953.495 256.254 953.176 255.805C953.058 255.174 953.796 254.644 954.176 254.084C952.756 253.902 951.32 253.797 949.906 253.713C950.179 251.931 949.157 249.95 950.884 248.354C944.303 247.463 946.142 246.758 941.705 247.176C940.358 248.128 938.189 247.733 936.401 247.79C935.921 246.841 935.854 245.846 935.507 244.891C933.807 244.088 931.582 244.904 929.721 244.999C927.966 244.699 926.691 243.838 925.054 243.416C923.931 243.382 922.857 243.578 921.801 243.709C920.347 243.706 920.268 244.833 919.067 245.097C918.508 245.248 911.922 248.317 905.54 247.172C898.637 247.091 891.532 246.744 884.903 248.131C884.915 249.126 884.925 250.126 884.932 251.124C885.972 251.178 887.179 251.02 888.096 251.468C881.392 251.835 880.084 250.116 877.761 252.582C878.075 254.452 878.421 256.581 876.414 258.174C875.772 258.677 875.424 259.429 874.285 259.565C873.038 259.804 871.697 260.168 871.199 260.948C871.423 262.98 871.675 265.042 871.211 267.07C870.545 267.63 869.679 268.093 869.031 268.653C869.411 269.014 869.847 269.379 870.3 269.743C868.942 270.959 869.103 272.426 869.103 273.827C869.948 274.036 870.803 274.249 871.675 274.489C870.926 274.765 870.193 275.035 869.483 275.319C869.427 276.706 869.176 278.107 869.679 279.483C865.665 279.645 861.624 279.784 857.621 279.537C857.781 277.664 858.079 270.57 855.794 268.822C854.838 266.733 855.598 264.516 855.219 262.383C854.526 261.519 852.849 261.293 851.446 261.178C850.898 260.304 850.999 259.366 851.205 258.461C851.579 256.932 850.819 255.427 850.741 253.905C849.483 253.703 848.221 253.534 846.968 253.409C846.884 250.986 847.135 248.553 846.247 246.17C845.101 245.971 843.966 245.779 842.848 245.593C842.87 245.097 842.91 244.601 842.983 244.108C840.954 243.649 838.852 243.123 836.656 243.288C832.328 243.543 823.397 243.004 819.797 244.553C819.239 245.137 818.88 245.785 818.249 246.342C816.142 247.199 813.901 246.055 811.804 245.772C811.938 245.302 812.094 244.837 812.268 244.374C809.289 243.608 805.895 243.946 802.749 243.713C800.882 243.497 799.099 243.959 797.282 244.01C795.235 243.159 792.766 242.775 790.859 241.806C791.122 241.641 791.641 241.306 791.904 241.141C791.317 240.77 790.736 240.402 790.177 240.041C790.508 238.579 789.825 237.122 789.887 235.657C789.965 235.023 789.194 234.371 788.121 234.358C786.74 234.257 785.538 233.869 784.353 233.491C784.269 231.949 784.365 230.403 784.297 228.864C783.877 225.276 780.64 226.513 779.87 226.555C778.579 226.848 777.237 226.701 775.952 226.538C772.353 226.056 768.602 226.113 764.963 226.335C762.967 227.159 760.514 226.683 758.323 226.994C757.568 227.953 757.227 229.049 755.433 229.498C755.114 229.252 754.829 229.005 754.578 228.756C753.829 224.318 754.214 219.849 754.158 215.395C749.183 214.245 736.288 214.557 731.431 213.262C726.193 211.895 719.827 212.338 715.042 214.109C707.197 219.175 708.841 220.282 708.223 223.768C707.58 224.696 706.652 225.54 705.886 226.431C707.418 226.444 709.005 226.569 710.045 227.335C706.071 228.648 701.891 229.9 697.418 230.406C695.96 232.556 692.762 233.967 689.677 235.216C690.47 235.891 689.794 236.616 689.353 237.288C688.643 236.822 688.056 236.313 687.569 235.776C684.998 235.969 682.432 236.212 679.844 236.114C678.095 236.006 677.368 237.305 675.748 237.468C674.266 237.647 672.981 238.132 671.69 238.568C669.694 238.686 667.962 237.863 666.066 237.623C665.914 238.231 665.781 238.842 665.658 239.456C662.226 238.632 659.917 236.749 656.743 235.672C655.893 235.497 655.01 235.682 654.188 235.696C653.503 242.064 655.114 251.528 654.412 255.817C654.027 256.148 653.3 256.094 652.763 256.174C652.45 255.725 652.172 255.287 651.886 254.848C649.673 255.466 647.426 256.036 645.234 256.667C644.843 258.189 645.157 259.718 645.492 261.23C644.157 262.712 644.777 264.419 645.145 266.002C642.176 266.842 638.812 266.839 635.704 267.385C635.022 266.279 634.212 265.195 633.815 264.038C635.408 263.997 637.017 263.987 638.638 263.943C638.191 262.937 636.033 263.123 634.72 262.87C634.307 262.465 633.909 262.074 633.518 261.685C634.177 261.301 634.854 260.916 635.541 260.531C635.015 260.123 634.496 259.718 633.998 259.316C634.976 258.644 635.015 257.784 634.669 256.957C636.24 256.936 637.839 256.892 639.37 256.589C638.358 255.597 636.094 255.779 634.49 255.408C636.07 253.119 636.101 253.929 634.461 252.111C635.166 251.783 635.886 251.46 636.614 251.132C636.686 250.272 636.787 249.367 636.044 248.598C634.233 247.73 632.846 246.478 630.465 246.171C628.949 241.761 629.008 248.519 629.963 237.477C628.129 237.116 626.351 236.694 624.585 236.252C619.813 238.155 619.276 236.604 613.311 237.247C608 236.593 609.347 237.392 594.195 237.22C593.977 237.051 593.77 236.896 593.579 236.748C591.216 236.907 588.839 236.953 586.475 236.92C586.76 234.328 585.671 231.605 587.296 229.124C588.264 227.666 586.29 226.32 586.441 224.861C586.664 217.609 585.784 219.248 585.318 208.649C581.825 208.621 578.337 208.652 574.854 208.645C574.927 208.477 575.061 208.136 575.134 207.967C573.898 207.957 572.674 207.95 571.472 207.947C571.126 207.539 570.818 207.134 570.528 206.729C570.255 206.695 569.701 206.628 569.427 206.593C570.366 206.026 570.439 205.26 569.249 204.795C568.517 205.237 568.019 205.983 566.828 205.952C564.771 206.334 562.586 205.476 560.73 206.33C560.409 205.931 559.291 184.665 559.545 182.088C559.142 181.849 558.762 181.612 558.41 181.376C557.667 181.582 556.935 181.787 556.225 181.99C555.65 180.053 556.432 178.058 555.638 176.151C551.704 176.013 554.747 179.029 553.81 183.181C553.453 184.754 554.38 186.289 554.286 187.862C554.903 194.716 554.26 193.118 554.599 204.513C553.872 204.564 553.174 204.618 552.492 204.672C552.268 205.216 552.123 205.772 551.748 206.285C550.357 206.427 550.759 205.371 550.418 204.872C544.107 205.548 547.841 206.758 540.547 204.8C539.396 205.688 538.72 206.724 538.474 207.838C535.047 209.942 532.379 206.586 524.745 208.644C525.36 208.87 526.013 209.096 526.679 209.322C525.89 209.913 525.165 210.53 524.65 211.215C524.08 211.287 523.532 211.361 523.006 211.435C521.944 214.516 525.266 212.626 522.772 215.161C523.129 216.418 523.209 224.527 523.437 225.471C524.859 230.18 522.222 234.966 525.388 235.919C523.951 237.448 524.521 239.382 525.287 241.002C519.463 241.675 524.83 240.37 517.243 243.134C517.132 243.553 517.042 243.975 516.97 244.396C488.782 244.752 504.032 244.104 492.241 243.968C491.705 243.502 491.191 243.026 490.694 242.56C489.817 243.137 488.939 243.762 487.614 243.927C486.652 247.252 488.222 250.579 487.731 253.91C487.569 255.223 486.625 256.499 487.133 257.832C486.635 258.153 486.16 258.483 485.719 258.821C486.3 259.32 486.875 259.843 487.373 260.393C486.691 260.636 486.037 260.889 485.411 261.156C486.159 261.523 486.948 261.892 487.714 262.28C487.11 262.698 486.523 263.113 485.947 263.532C486.466 263.926 486.997 264.335 487.506 264.753C486.087 264.902 484.588 265.01 483.437 265.559C480.47 266.594 484.039 275.187 481.391 282.022C479.798 282.173 478.194 282.255 476.617 282.376C476.654 283.888 477.95 310.471 477.445 313.188C476.802 313.394 476.187 313.6 475.584 313.806C475.494 314.366 475.371 314.926 475.221 315.483C473.343 315.301 471.448 315.274 469.57 315.237C468.859 312.57 468.752 296.054 468.715 295.717C467.094 295.417 465.411 295.322 463.74 295.302C463.175 294.826 462.561 294.391 461.901 293.986C463.204 293.054 462.348 291.995 461.99 290.972C461.991 290.969 460.942 283.462 461.973 280.189C460.694 279.565 459.352 278.65 457.546 278.934C455.926 279.13 454.432 278.614 452.879 278.513C451.885 278.631 451.018 278.985 450.034 279.043C427.301 279.351 443.106 280.431 431.582 278.864C431.973 278.654 432.381 278.448 432.818 278.246C431.23 277.213 431.811 275.729 431.638 274.452L430.945 235.47C430.906 234.154 430.028 232.891 430.313 231.565C429.726 230.33 430.692 229.112 430.112 227.873C430.341 227.05 430.464 226.219 429.514 225.538C429.849 225.511 430.515 225.464 430.844 225.437C429.63 222.923 430.755 220.304 429.961 217.766C429.558 216.22 430.945 214.429 429.005 213.133C429.49 212.961 429.994 212.789 430.514 212.62C430.033 212.276 429.57 211.938 429.111 211.604C431.107 209.859 428.754 207.797 429.893 205.961C428.046 204.184 429.143 204.578 430.028 203.504C429.514 203.244 429.016 202.991 428.53 202.745C428.759 202.282 428.993 201.82 429.234 201.361C428.575 201.28 427.931 201.202 427.311 201.132C426.802 200.491 426.304 199.853 425.852 199.205C427.401 198.739 428.96 198.277 430.492 197.777C430.497 197.561 430.503 197.129 430.509 196.913C426.166 196.333 421.71 196.502 417.311 196.41C416.311 196.043 415.165 195.54 414.025 196.008C411.717 196.805 409.011 196.346 406.523 196.555C403.728 196.957 400.94 196.281 398.128 196.514C398.452 196.869 398.804 197.217 399.178 197.567C397.055 197.363 396.262 196.61 391.99 198.09C391.336 198.529 390.805 199.025 390.24 199.501C392.571 200.075 395.058 200.095 397.512 199.842C397.496 200.254 397.49 200.665 397.507 201.084C395.388 201.074 394.422 202.241 393.181 203.065C394.076 203.159 394.998 203.22 395.943 203.274C395.143 203.622 394.371 203.976 393.623 204.344C393.471 205.721 393.69 207.118 393.237 208.482C393.673 208.681 394.131 208.887 394.596 209.096C394.12 209.814 393.572 210.513 392.986 211.201C393.679 211.327 394.383 211.461 395.11 211.607C394.49 211.86 393.886 212.116 393.299 212.376C393.702 212.525 394.132 212.673 394.579 212.825C393.953 213.092 393.651 213.493 393.427 213.912C393.931 213.976 394.936 214.111 395.44 214.178C394.82 214.678 394.188 215.167 393.584 215.667C394.171 216.166 394.786 216.655 395.44 217.142C394.831 217.594 394.211 218.036 393.567 218.465C394.103 218.853 394.663 219.244 395.221 219.639C394.612 220.014 393.997 220.375 393.522 220.804C393.785 221.651 395.567 221.283 396.597 221.496C395.998 222.43 393.589 222.322 393.422 223.423C394.663 223.473 395.92 223.507 397.195 223.578C396.094 224.104 394.875 224.523 393.752 225.016C393.07 225.768 394.926 226.153 395.603 226.605C395.296 227.145 394.708 227.574 393.981 227.921C394.266 228.04 394.831 228.276 395.116 228.394C394.73 228.917 394.311 229.43 393.791 229.909C395.015 230.959 393.612 232.309 394.904 233.338C394.68 233.716 394.238 234.084 394.351 234.503C394.713 234.895 395.558 235.147 395.681 235.616C395.368 236.025 394.909 236.379 394.507 236.747C394.77 237.145 395.038 237.54 395.323 237.945C394.954 238.306 394.613 238.674 394.29 239.042C394.664 239.393 395.067 239.748 395.48 240.102C395.116 240.52 394.781 240.943 394.474 241.374C395.301 242.205 395.082 243.146 394.691 244.04C395.043 244.297 395.423 244.556 395.821 244.82C395.323 245.181 394.843 245.542 394.379 245.91C394.765 246.396 395.178 246.879 395.609 247.365C395.184 247.614 394.782 247.867 394.396 248.124C394.988 248.978 395.021 249.896 394.675 250.797C395.458 250.969 396.23 251.138 397.046 251.323C396.291 251.88 395.441 252.383 394.608 252.886C395.385 253.233 396.185 253.581 396.984 253.942C396.302 254.29 395.615 254.624 394.937 254.965C394.976 255.137 395.055 255.485 395.094 255.657C395.876 255.775 396.676 255.886 397.503 256.008C396.731 256.541 394.664 256.892 395.351 257.753C396.027 257.989 397.279 257.884 397.469 258.485C396.726 258.88 395.922 259.224 395.15 259.585C395.709 259.919 396.296 260.26 396.888 260.601C395.652 261.458 396.491 262.541 396.173 263.533C395.753 264.482 396.692 265.403 396.284 266.361C396.502 267.613 395.413 268.994 396.893 270.074C396.396 270.448 395.921 270.823 395.457 271.204C396.794 272.012 397.7 271.496 395.518 273.671C395.971 274.009 396.44 274.353 396.915 274.701C396.536 275.035 395.725 275.335 395.993 275.804C396.278 277.471 396.86 279.182 396.206 280.839C396.583 288.07 396.239 291.335 396.239 291.335C395.004 291.304 393.663 291.406 392.673 290.893C391.343 290.245 389.571 289.955 388.593 289.081C389.18 288.767 389.795 288.463 390.421 288.157C389.699 287.667 388.66 287.377 388.051 286.857C387.638 286.057 387.71 285.217 387.749 284.397C386.966 284.164 386.189 283.948 385.418 283.749C385.502 282.982 385.35 282.217 385.239 281.46C385.954 281.359 386.731 281.271 387.481 281.167C386.749 281.096 386.033 281.029 385.34 280.968C385.312 279.965 385.333 277.457 383.841 277.34C380.783 276.904 377.794 276.283 374.63 276.203C374.346 274.318 372.846 228.128 372.846 228.128C373.008 226.765 373.109 225.323 371.996 224.085C370.599 223.633 368.771 223.906 367.278 223.531C367.737 222.981 368.19 222.425 368.608 221.857C370.52 221.533 372.526 221.344 374.271 220.723C372.093 219.212 362.588 220.444 357.072 218.891C353.987 218.439 342.821 219.428 337.681 220.899C337.692 221.098 337.709 221.496 337.72 221.695C339.402 221.988 341.358 222.282 342.085 223.376C340.654 223.689 338.932 223.906 338.044 224.709C338.558 224.776 339.586 224.908 340.1 224.972C339.245 225.428 338.345 225.843 337.451 226.255C337.892 226.798 338.652 227.193 339.479 227.541C338.674 227.541 337.886 227.548 337.115 227.554C338.179 228.915 338.464 233.63 338.395 234.114C338.865 234.31 339.351 234.509 339.853 234.712C339.105 235.06 338.355 235.41 337.64 235.764C338.07 236.571 339.037 237.162 340.323 237.503C339.558 237.874 338.791 238.249 338.076 238.64C338.59 239.058 339.155 239.473 339.73 239.885C339.378 240.246 339.054 240.611 338.763 240.985C339.159 241.447 339.562 241.92 339.976 242.396C339.513 242.753 339.076 243.115 338.651 243.479C339.462 243.718 340.278 243.979 341.089 244.245C340.239 244.677 339.39 245.109 338.651 245.602C339.048 245.673 339.853 245.818 340.25 245.892C339.68 247.06 339.535 248.271 339.601 249.486C339.255 250.296 338.936 251.136 339.852 251.869C339.466 252.274 339.087 252.679 338.746 253.098C339.673 253.435 340.629 253.766 341.664 254.019C340.915 254.191 340.177 254.363 339.473 254.559C340.037 255.608 340.166 256.783 338.797 257.637C339.294 258.038 339.82 258.44 340.367 258.842C339.607 259.314 338.864 259.796 338.132 260.276C338.596 260.687 339.099 261.102 339.652 261.494C339.452 261.619 339.037 261.872 338.831 261.997C340.054 265.717 339.217 283.052 339.268 284.44C336.171 284.403 333.069 284.437 330.017 284.727C329.872 285.894 329.877 287.072 330.162 288.233C329.503 288.267 328.859 288.305 328.234 288.345C328.53 289.171 328.731 290.012 328.781 290.866C327.814 290.927 326.865 290.987 325.936 291.051C326.283 292.962 324.919 294.787 325.248 296.697C325.969 298.044 324.818 299.465 326.02 300.768C324.796 300.994 322.996 301.47 322.129 300.663C321.34 297.071 322.418 289.964 321.984 280.285C321.118 279.769 319.809 279.695 318.754 279.408C318.703 278.267 318.708 277.123 318.619 275.986C315.975 277.691 317.485 278.162 318.044 279.546C313.734 280.181 298.566 279.541 276.25 279.88C270.92 279.684 274.45 288.391 273.147 297.254C270.956 297.713 268.653 297.878 266.434 298.239C266.91 298.729 267.424 299.222 267.91 299.728C266.814 299.846 265.74 300.058 264.634 299.997C262.09 299.721 259.765 300.682 257.233 300.618C253.779 300.544 250.33 300.456 246.887 300.375C247.458 293.727 246.017 277.245 246.54 273.889C246.277 273.741 245.751 273.44 245.489 273.292C245.45 274.112 245.444 274.936 245.422 275.759C245.164 275.766 244.645 275.776 244.388 275.783C244.009 266.24 245.283 269.75 242.745 266.289C243.997 266.599 245.277 266.9 246.607 267.112C245.634 266.067 244.08 266.241 245.467 261.655C244.74 261.598 244.036 261.547 243.343 261.507C242.739 259.833 242.628 258.129 242.583 256.424C238.004 255.512 241.4 255.15 230.94 254.862V255.537C233.137 255.604 235.741 255.226 237.441 256.317C232.896 256.698 228.251 256.303 223.763 256.86C223.148 256.631 222.706 256.121 221.93 256.185C216.296 256.262 217.894 256.599 217.67 261.264C217.028 261.808 215.714 261.855 214.797 262.152C214.423 263.647 213.68 265.304 215.172 266.674C214.506 266.695 213.864 266.718 213.238 266.745C211.299 268.112 211.846 269.985 211.963 271.639C212.528 271.882 213.126 272.129 213.73 272.375C212.712 272.868 212.265 273.6 211.863 274.319C212.489 274.583 213.143 274.849 213.802 275.119C213.182 275.494 212.572 275.865 211.975 276.24C211.806 281.405 212.569 299.104 212.472 306.499C204.301 306.563 196.123 306.438 187.956 306.553C187.845 315.311 188.381 324.058 188.381 332.819C186.715 332.826 185.077 332.66 183.428 332.617C181.427 332.718 179.426 332.836 177.425 332.812C175.943 331.806 176.508 330.537 176.749 329.349C176.67 329.012 173.976 272.154 175.742 269.112C176.776 267.408 174.775 265.737 175.043 264.002C174.859 262.922 175.569 261.65 174.305 260.745C173.344 260.036 172.32 259.362 171.471 258.609C171.152 258.602 170.52 258.585 170.202 258.578C169.972 260.178 169.487 261.767 168.877 263.333C167.446 263.313 166.031 263.306 164.623 263.303C164.153 262.915 163.701 262.526 163.259 262.146C162.907 262.189 162.192 262.281 161.84 262.328C161.733 262.581 161.521 263.087 161.415 263.344C159.296 263.067 157.15 263.087 155.042 263.347C154.696 262.932 154.388 262.52 154.103 262.105C153.075 262.166 152.052 262.233 151.057 262.311C149.983 261.511 150.162 260.499 150.688 259.597C150.145 259.59 149.626 259.587 149.117 259.587C149.318 260.272 149.698 261.031 148.803 261.608C145.696 263.812 146.844 263.002 139.435 263.35C138.703 262.813 137.887 262.304 136.719 262.196C136.601 262.496 136.366 263.1 136.25 263.404C134.992 263.259 133.852 262.911 132.639 262.719C131.599 262.986 130.666 263.37 129.71 263.721C129.501 264.596 129.901 280.257 129.922 280.599C128.162 280.66 126.49 279.755 124.808 280.245C122.309 280.849 119.369 280.913 116.921 280.211C114.13 281.085 108.939 281.208 106.642 280.204C105.725 280.599 104.658 280.858 103.528 280.771C101.332 280.66 98.8163 280.991 96.9771 280.096C96.3903 280.37 95.8478 280.751 95.0486 280.71C92.8971 280.757 90.7329 280.858 88.5983 280.707C87.9221 280.471 87.3962 280.126 86.8368 279.829C86.7085 280.052 86.4509 280.501 86.3279 280.724C82.4266 280.862 78.5243 280.839 74.6293 280.832C74.3107 280.258 74.4727 279.414 73.3433 279.178C69.728 281.53 72.6776 291.238 72.074 300.693C70.6544 300.716 69.2401 300.729 67.8373 300.686C67.3683 300.942 66.9149 301.206 66.4733 301.469C65.0421 301.441 63.6174 301.428 62.2084 301.408C61.5585 298.535 61.876 255.814 60.6709 251.162C60.9674 249.607 60.7719 248.041 60.9727 246.481C48.2087 246.238 33.527 246.808 30.3354 246.056C28.3123 245.732 26.3501 245.222 24.2711 245.097C23.5109 245.421 23.8241 245.975 23.8514 246.444C20.7882 246.441 17.7198 246.406 14.6619 246.471C14.5946 247.342 14.5841 248.216 14.5725 249.093C14.8134 249.229 15.2938 249.495 15.5336 249.63C12.1633 250.789 14.5367 253.93 12.5093 257.595C12.8395 258.626 14.1025 323.583 13.2865 325.071C13.5715 327.302 13.6725 329.543 13.4148 331.78C-26.9694 332.118 -10.9636 330.749 -24.4279 333.937C-24.512 334.467 -24.5793 335 -24.6288 335.54C-27.0599 335.797 -29.6259 335.463 -31.9351 336.077C-34.0476 336.343 -36.2339 336.256 -38.3685 336.293C-38.5693 335.672 -38.2507 334.933 -38.8827 334.406C-39.7776 334.157 -40.7828 334.14 -41.7167 334.025C-42.2834 327.258 -40.8649 316.505 -42.9911 306.26C-43.4012 305.847 -51.1324 298.366 -52.2871 298.805C-55.2725 300.796 -57.2114 303.287 -60.1632 305.278C-62.9478 291.204 -72.723 161.775 -71.8954 153.038C-67.563 152.933 -63.036 152.761 -59.1116 151.543C-55.9001 149.286 -56.9506 147.5 -60.5648 145.512C-59.2515 144.516 -57.5911 143.716 -56.1041 142.816C-56.937 140.308 -55.2429 137.882 -54.8854 135.408C-55.4553 135.134 -56.1819 131.557 -58.1714 130.777C-59.3733 130.234 -60.7205 129.833 -61.9666 129.346C-62.8719 128.391 -61.9551 126.997 -63.6996 126.326C-65.1644 125.283 -67.5841 125.736 -69.5295 125.485C-73.6138 123.899 -71.889 121.021 -72.196 116.363C-76.4454 116.26 -75.353 115.417 -75.3708 90.8562C-75.578 72.9121 -76.8209 79.7525 -72.6693 72.8671C-72.5494 72.6696 -75.6979 70.2323 -76.0912 70.0266C-78.7253 68.3758 -76.9471 70.0443 -77.2479 62.1494C-76.8157 60.1717 -77.5422 58.2042 -77.6769 56.2309C-77.8073 54.318 -77.5287 52.3904 -77.5319 50.4724L-78.8757 33.6711C-79.9641 28.1323 -80.8589 36.7053 -81.065 17.5879C-81.2238 2.9034 -80.2743 -0.316155 -84.1966 0.0235148C-84.8486 3.11736 -83.9169 27.6828 -83.8885 28.0224C-85.8792 31.6744 -86.5553 30.3601 -86.3481 37.205C-86.3292 37.8227 -88.8582 54.5891 -87.1578 59.2092C-86.8203 60.2726 -87.2051 68.1879 -87.3312 69.2628C-87.918 70.7103 -91.3282 71.2976 -90.8309 72.9687C-91.1274 74.5953 -88.4102 75.726 -88.6395 77.3456C-88.6626 81.6217 -89.5753 113.528 -88.3934 116.173C-96.4757 117.568 -89.6826 120.352 -91.1884 125.498C-93.9666 125.859 -96.8058 126.109 -99.5115 126.625C-101.82 127.61 -100.596 129.588 -101.714 130.935C-103.116 131.873 -105.23 132.21 -106.817 132.994C-107.705 135.012 -107.739 137.158 -107.063 139.207C-106.577 140.658 -107.343 142.355 -105.694 143.604C-105.102 144.208 -103.748 144.697 -104.129 145.5C-105.524 148.086 -107.941 150.345 -98.0078 153.027C-95.8227 153.209 -93.5923 153.128 -91.3788 153.266C-91.016 155.607 -91.2558 169.62 -91.1548 191.425C-91.0539 193.136 -92.2726 194.756 -92.0212 196.474C-91.3577 209.115 -94.545 222.019 -93.1107 233.27C-92.7816 236.19 -94.4903 235.727 -94.5366 240.698C-94.3473 264.449 -95.8932 241.743 -95.6377 265.335C-95.705 273.03 -96.9711 262.775 -96.744 282.547C-96.5873 284.491 -98.2025 286.33 -97.745 288.28C-97.2812 290.417 -98.2034 292.556 -97.7281 294.693C-97.46 295.814 -97.6387 296.961 -98.3043 298.024C-99.6987 300.138 -98.6367 305.845 -99.0983 309.565C-101.175 315.858 -99.4095 313.927 -99.8586 320.368C-99.9532 321.86 -101.418 323.2 -101.261 324.715C-101.546 328.398 -99.3832 331.036 -108.69 330.067C-109.782 323.423 -108.074 301.902 -109.148 299.197C-109.707 298.222 -111.524 297.699 -112.033 296.724C-112.217 295.563 -112.1 294.399 -112.083 293.238C-113.229 293.042 -114.364 292.843 -115.482 292.634C-115.794 287.579 -113.815 284.008 -121.765 284.312C-125.352 284.44 -131.336 283.458 -131.754 287.72C-136.789 287.757 -141.854 287.559 -146.862 287.805C-149.428 288.547 -149.047 290.309 -149.042 291.74C-151.25 291.74 -153.458 291.753 -155.654 291.781C-155.989 300.879 -155.027 301.234 -155.437 305.438C-156.902 305.378 -158.355 305.263 -159.808 305.331C-160.861 297.235 -159.096 303.564 -160.759 295.28C-164.756 293.667 -169.747 295.068 -173.995 293.961C-175.699 294.022 -177.354 294.68 -179.143 294.376C-179.777 292.073 -178.73 278.338 -179.556 275.652C-187.106 274.926 -175.652 274.077 -201.546 274.205C-202.045 287.821 -201.255 283.693 -205.71 285.234C-207.923 285.554 -208.415 287.099 -208.269 288.281C-208.225 288.891 -207.874 299.435 -208.789 301.551C-216.808 303.017 -216.974 299.133 -222.182 307.049C-225.122 307.582 -228.632 306.674 -231.125 307.967C-234.043 309.151 -237.777 308.436 -241.03 308.372C-241.158 306.873 -240.348 305.196 -241.795 303.863C-242.902 304.048 -243.987 304.254 -245.082 304.443C-245.177 303.37 -245.367 302.307 -245.507 301.244C-258.108 299.194 -266.804 301.023 -270.045 301.301C-270.057 302.023 -270.079 302.748 -270.108 303.478C-271.589 303.336 -273.065 303.245 -274.552 303.225C-274.523 307.18 -274.44 311.135 -274.58 315.091C-335.831 314.898 -337.715 315.375 -339.068 314.848C-340.165 313.775 -340.532 313.477 -340.135 301.092C-340.102 299.712 -337.676 298.507 -338.889 297.126C-339.515 296.195 -338.805 295.186 -339.348 294.244C-342.293 294.285 -345.24 294.247 -348.18 294.254C-350.656 294.207 -352.92 294.996 -355.39 294.949C-359.521 294.949 -363.651 294.895 -367.777 294.97C-364.683 295.306 -353.75 294.961 -350.326 294.824C-353.981 295.483 -357.827 295.007 -361.561 295.152C-364.535 295.162 -367.642 295.419 -370.471 294.744C-369.778 294.626 -369.063 294.534 -368.347 294.44C-371.924 294.177 -375.53 294.265 -379.118 294.271C-379.436 294.558 -379.738 294.852 -380.04 295.149C-379.162 298.179 -379.738 301.291 -379.654 304.355C-381.974 303.573 -384.634 303.953 -387.065 304.271C-388.753 304.602 -390.073 305.371 -391.37 306.07C-393.237 307.042 -392.46 308.766 -394.008 309.869C-395.243 310.862 -395.596 312.198 -397.099 313.069C-401.782 313.356 -413.663 313.407 -416.065 313.156C-417.176 309.822 -417.482 310.272 -423.896 309.083C-427.257 304.801 -427.07 304.53 -428.715 304.044C-443.728 302.452 -443.213 302.118 -446.059 304.054C-446.931 305.772 -445.388 307.466 -445.545 309.198C-445.601 313.666 -445.501 318.135 -445.595 322.606C-446.58 322.599 -447.558 322.593 -448.519 322.586C-448.591 321.918 -448.637 321.259 -448.686 320.601C-483.026 320.539 -464.057 321.049 -486.645 320.584C-486.556 318.603 -486.372 316.608 -486.897 314.644C-487.283 313.166 -486.74 311.678 -486.991 310.203C-487.768 308.928 -488.908 307.736 -489.4 306.404C-493.928 306.373 -498.462 306.501 -502.978 306.363C-505.662 305.772 -507.383 304.156 -508.373 302.607C-516.558 301.376 -518.152 303.237 -520.855 303.359C-522.665 302.941 -522.426 301.537 -522.8 300.595C-523.768 300.484 -524.723 300.373 -525.679 300.268C-527.289 297.693 -526.802 294.939 -526.881 292.252C-529.167 292.216 -531.465 292.313 -533.734 292.171C-535.26 291.587 -536.165 290.598 -537.546 289.92C-541.57 289.113 -545.814 289.977 -549.932 289.677C-553.348 289.413 -556.763 289.7 -560.173 289.761C-560.754 290.713 -561.732 291.543 -562.476 292.444C-563.314 295.205 -562.408 297.999 -562.895 300.77C-563.389 306.429 -559.481 310.986 -570.822 309.723C-570.588 301.244 -568.333 304.593 -601.716 303.686C-602.1 300.65 -600.454 293.302 -604.991 291.918C-607.624 291.671 -610.302 291.817 -612.934 291.584C-613.134 290.683 -613.336 289.788 -613.532 288.891C-616.226 288.445 -618.686 287.71 -620.805 286.616C-645.061 281.314 -637.262 287.399 -639.324 290.574C-640.274 291.644 -642.448 291.624 -644.164 291.823C-645.729 294.587 -645.958 297.544 -645.41 300.432C-644.924 302.305 -646.914 303.966 -646.813 305.815C-646.631 328.916 -646.201 328.841 -648.657 329.247C-651.033 329.652 -653.604 329.827 -656.008 329.405C-657.657 329.038 -658.936 330.107 -660.575 330.029C-672.518 330.167 -676.468 329.214 -676.913 332.459C-677.304 337.089 -676.058 341.747 -677.031 346.363C-679.507 345.86 -681.329 344.224 -681.117 342.648C-681.216 319.713 -679.28 276.947 -679.943 274.078C-680.05 272.944 -680.955 271.891 -680.877 270.75C-680.866 269.448 -681.319 268.172 -681.676 266.896C-685.109 266.09 -688.875 266.93 -692.42 266.495C-694.617 265.779 -694.728 264.173 -695.126 262.867C-697.368 262.465 -699.698 262.533 -702.001 262.536C-704.751 262.603 -707.194 261.132 -709.943 261.868C-710.267 262.735 -710.503 263.64 -711.206 264.436C-712.213 265.074 -713.688 265.311 -714.951 265.702C-717.88 266.458 -720.122 267.98 -723.286 268.428C-726.948 269.494 -726.514 267.707 -727.014 273.703C-727.949 281.876 -725.976 279.897 -726.752 289.056C-726.88 289.512 -726.209 289.808 -725.801 290.143C-727 291.201 -726.904 291.522 -726.835 297.472C-726.88 297.949 -726.326 298.33 -726.013 298.745C-726.349 299.083 -726.679 299.42 -727.008 299.764C-726.667 300.091 -726.315 300.425 -725.963 300.763C-727.494 304.687 -727.349 308.748 -727.305 312.75C-726.684 312.922 -726.059 313.097 -725.427 313.276C-726.019 313.607 -726.824 313.843 -727.176 314.299C-726.986 314.701 -726.6 315.058 -726.254 315.426C-728.597 317.594 -727.104 324.498 -727.5 325.77C-728.06 328.085 -727.668 330.42 -727.645 332.749C-733.19 332.972 -738.752 332.702 -744.297 332.877C-744.454 332.972 -744.767 333.164 -744.923 333.259C-745.224 334.559 -744.459 336.043 -746.102 337.11C-749.514 336.295 -748.929 335.544 -755.23 333.917C-755.291 330.859 -755.124 327.801 -755.286 324.748C-755.756 322.409 -755.756 320.043 -755.493 317.698C-755.432 317.48 -754.798 292.81 -755.331 288.603C-755.498 287.392 -757.081 286.456 -757.304 285.255C-757.774 283.342 -757.103 281.425 -757.164 279.508C-757.164 278.199 -757.454 276.899 -757.516 275.593C-766.632 273.587 -782.89 275.937 -787.511 274.031C-787.639 273.035 -787.701 272.033 -787.522 271.04C-787.126 269.414 -787.892 267.801 -787.674 266.171C-797.515 265.452 -794.577 263.85 -806.422 265.074C-806.366 265.934 -806.249 266.792 -805.98 267.642C-807.98 268.717 -806.096 268.647 -818.088 268.573C-818.323 270.197 -818.223 271.826 -818.262 273.457C-821.649 273.67 -825.109 273.292 -828.451 273.686C-829.888 274.371 -829.586 275.762 -829.994 276.764C-831.061 276.859 -832.123 276.953 -833.18 277.061C-833.404 277.784 -832.7 278.29 -831.715 278.637C-832.213 278.954 -832.794 279.234 -833.169 279.619C-833.18 281.347 -832.632 283.078 -833.034 284.806C-834.665 286.142 -838.105 285.521 -846.545 285.704C-846.606 287.24 -846.589 288.775 -846.617 290.311C-847.713 290.395 -848.809 290.493 -849.893 290.611C-849.91 290.837 -849.954 291.289 -849.971 291.512C-848.819 291.62 -847.662 291.741 -846.505 291.859C-846.566 292.49 -846.599 293.125 -846.616 293.763C-849.445 293.786 -852.272 293.742 -855.096 293.817C-853.955 306.501 -855.537 303.593 -856.723 305.581C-856.143 309.266 -857.709 322.967 -856.963 328.449C-858.299 328.665 -859.691 328.713 -860.954 328.328C-861.189 327.427 -861.966 326.681 -863.269 326.222C-862.544 306.157 -863.747 307.889 -862.598 306.86C-863.346 305.777 -862.899 304.602 -862.827 303.475C-862.648 300.053 -863.324 296.631 -862.592 293.216C-867.282 292.423 -872.173 292.392 -877.003 292.382C-877.053 291.494 -877.081 290.607 -877.104 289.722C-903.767 289.722 -912.813 289.314 -908.06 290.856C-910.51 293.17 -907.699 292.539 -909.233 297.98C-908.669 298.355 -908.099 298.73 -907.534 299.114C-908.328 299.165 -909.776 299.043 -909.647 299.776C-909.082 303.546 -910.006 319.08 -909.34 322.704C-908.948 324.459 -910.1 326.147 -910.228 327.888L-910.312 345.549C-908.831 345.559 -907.344 345.579 -905.868 345.694C-909.166 346.541 -912.733 345.758 -916.171 345.84C-916.461 345.458 -916.746 345.077 -917.032 344.702C-927.351 347.359 -927.869 344.976 -932.303 345.124C-933.678 345.063 -935.198 345.35 -936.439 344.884C-940.995 343.026 -941.791 346.559 -951.939 345.04C-951.939 345.04 -951.574 338.488 -951.503 330.345C-962.87 329.042 -974.97 329.829 -981.346 329.38C-983.157 323.286 -981.447 304.36 -981.464 304.302C-981.036 297.415 -982.462 295.631 -980.933 293.813C-984.141 293.874 -987.272 293.441 -990.408 293.118C-993.907 293.087 -997.428 293.182 -1000.84 292.622C-1004.26 292.723 -1007.7 292.642 -1011.12 292.74C-1016.59 293.361 -1022.18 293 -1027.71 293.084C-1026.54 295.581 -1027.4 308.807 -1027.44 309.145C-1027.69 310.716 -1025.38 313.854 -1030.16 314.38C-1033.76 314.265 -1037.38 314.42 -1040.96 314.133C-1043.8 313.918 -1046.61 314.265 -1049.44 314.282C-1050.05 309.741 -1048.03 287.098 -1048.15 284.583C-1048.01 283.844 -1049.13 283.328 -1050.26 283.288C-1057.82 282.481 -1065.58 283.48 -1073.13 282.579C-1078.08 282.991 -1083.08 282.576 -1088.03 282.95L-1090.11 348.935C-1090.15 348.941 -1090.19 348.948 -1090.23 348.954V349.589H-1104.96C-1105.02 390.583 -1105.01 431.577 -1104.97 472.572H1586.97C1586.99 465.029 1587.03 329.401 1586.96 303.755ZM-1028.13 342.41C-1029.9 342.805 -1031.67 342.249 -1033.44 342.191C-1038.87 341.937 -1044.31 342.022 -1049.73 342.076C-1050.43 340.553 -1049.47 322.125 -1049.24 321.56C-1048.4 320.84 -1047.7 321.348 -1031.18 321.199C-1030.17 321.158 -1029.18 321.29 -1028.24 321.506C-1027.63 326.882 -1028.51 333.025 -1028.13 342.41ZM1341.17 325.894C1344.05 325.951 1347 325.644 1349.85 325.876L1350.24 326.174C1347.21 326.032 1344.16 326.012 1341.17 325.894Z" fill="#81A6FF" fill-opacity="0.15"/>
</svg>
