<svg width="100%" height="473" viewBox="0 0 1440 473" fill="none" xmlns="http://www.w3.org/2000/svg">
<path d="M1439.96 303.755C1439.63 303.795 1438.97 303.88 1438.65 303.92C1438.4 304.291 1438.19 304.666 1438.01 305.044C1437.66 305.115 1436.97 305.249 1436.62 305.317C1435.98 304.764 1435.73 303.771 1434.36 303.809C1431.36 303.758 1428.43 304.45 1425.43 304.106C1425.88 301.57 1426.63 298.944 1422.13 299.077C1417.54 299.088 1412.94 298.987 1408.39 299.331C1406.04 299.56 1403.68 298.895 1401.38 299.371C1398.47 299.911 1395.41 299.726 1392.44 299.763C1390.36 299.709 1388.72 300.796 1386.62 300.587C1385.17 300.435 1384.14 301.15 1382.98 301.518C1382.96 302.267 1382.86 303.023 1383.08 303.776C1383.6 304.447 1384.41 305.058 1384.66 305.814C1381.75 305.848 1378.82 305.706 1376.01 306.179C1376.18 306.948 1376.65 307.68 1377.22 308.383C1376.08 309.57 1375.14 309.3 1377.96 310.755C1376.82 310.829 1375.69 310.85 1374.6 310.786C1375.85 311.43 1377.04 312.135 1378.46 312.679C1377.69 312.992 1376.91 313.29 1376.18 313.597C1376.88 314.043 1377.63 314.492 1378.37 314.951C1377.8 315.136 1377.28 315.328 1376.78 315.528C1378 316.5 1376.53 317.684 1377.59 318.683C1377.21 319.004 1376.82 319.321 1376.48 319.642C1377.09 320.02 1377.72 320.401 1378.38 320.783C1377.83 321.106 1377.28 321.427 1376.8 321.755C1377.34 322.122 1377.93 322.48 1378.55 322.848C1377.96 323.098 1377.31 323.334 1376.8 323.584C1377.21 324.148 1378.04 324.499 1378.98 324.755C1378.19 325.038 1377.43 325.332 1376.71 325.629C1377.15 326.112 1377.61 326.602 1378.06 327.108C1377.26 327.03 1376.53 326.949 1375.8 326.864C1376.39 327.37 1376.94 327.897 1377.53 328.427C1379.13 328.612 1380.74 328.838 1382.34 329.105C1382.13 329.408 1381.96 329.719 1381.83 330.036C1380.76 329.5 1379.45 329.344 1378.13 329.422C1377.94 329.851 1377.78 330.283 1377.65 330.718C1377.65 330.718 1345.78 330.488 1339.46 330.772C1340.19 329.739 1339.46 328.801 1338.14 328.116C1337.65 328.111 1322.78 328.073 1322.09 328.163C1322.36 328.997 1322.69 329.824 1323.01 330.661C1321.89 330.131 1321.09 328.927 1319.41 329.233C1316.93 329.587 1314.46 328.93 1311.97 329.118C1299.18 329.851 1297.98 328.81 1294.94 330.664C1294.94 330.664 1282.08 330.72 1276.73 330.58C1273.88 330.708 1271.05 331.255 1268.19 330.931C1265.63 330.671 1262.97 331.032 1260.51 330.499C1258.08 330.011 1258.45 330.702 1244.92 330.81C1225.64 330.796 1230.87 331.109 1225.75 329.73C1225.82 329.085 1225.87 328.44 1225.96 327.803C1224.06 327.215 1221.92 327.549 1219.92 327.421C1219.04 326.78 1219.32 325.882 1219.15 325.126C1215.72 324.202 1212.12 325.251 1208.59 325.096C1206.06 325.234 1203.67 324.758 1201.26 324.454C1199.01 324.61 1196.84 325.092 1194.58 325.17C1192.71 325.17 1191.44 326.139 1189.67 326.337C1189.69 326.675 1190.38 341.366 1190.18 341.774C1190.51 342.105 1191.17 342.412 1191.01 342.864C1189.81 349.292 1189.86 347.643 1182.81 346.763C1183.53 346.982 1184.27 347.188 1185.05 347.401C1184.15 348.268 1182.87 349.922 1180.9 348.899C1180.22 349.055 1179.53 349.21 1178.91 349.375C1178.21 349.146 1177.53 348.926 1176.88 348.707C1177.85 345.541 1176.94 345.175 1176.7 334.59C1175.62 334.465 1174.58 334.152 1173.51 334.28C1170.14 334.685 1166.69 334.496 1163.31 334.523C1161.01 334.621 1159.53 333.44 1158.03 332.61C1155.91 332.424 1153.05 332.079 1151.87 333.474C1149.43 333.558 1146.97 333.433 1144.55 333.561C1143.9 333.885 1143.84 334.415 1143.59 334.861C1140.66 334.871 1137.73 334.81 1134.83 334.932C1135.18 335.962 1135.99 342.501 1135.45 344.024C1126.75 342.151 1133.32 344.489 1123.62 344.672C1122.66 344.615 1121.44 344.814 1120.92 344.206C1120.2 340.193 1118.75 294.304 1118.05 292.334C1098.46 292.185 1108.79 292.022 1101.24 291.45C1098.18 291.807 1095.12 292.236 1092 292.29C1091.19 292.081 1091.25 291.44 1090.93 291.042C1089.48 290.934 1088.04 290.708 1086.6 290.883C1082.98 291.188 1065.1 291.067 1064.54 291.096C1064.56 291.527 1064.59 291.956 1064.66 292.398C1063.81 292.314 1062.93 292.24 1062.28 291.909C1060.03 290.748 1057.26 292.125 1054.85 292.29C1054.29 292.288 1042.96 293.852 1037.57 293.711C1035.5 296.562 1040.39 324.831 1039.75 341.89C1038.55 342.036 1037.37 342.191 1036.19 342.289C1031.93 336.441 1034 290.141 1030.64 285.722C1024.73 285.527 1018.81 285.601 1012.9 285.577C1010.81 285.466 1009.12 286.475 1007.02 286.282C1007.05 285.688 1007.08 285.095 1007 284.507C1008.76 284.19 1010.67 284.278 1012.43 283.883C1011.13 278.833 1012.78 277.68 1010.47 276.134C1008.5 276.404 1006.48 276.522 1004.48 276.462C1004.46 276.09 1004.47 275.723 1004.52 275.358C1005.07 275.345 1005.65 275.335 1006.25 275.328C1004 273.715 1004.3 274.664 1004.55 271.859C1003.46 271.245 1002.9 270.438 1002.4 269.625C1001.18 268.919 1000.06 269.854 999.262 270.337C996.93 270.566 995.136 269.21 992.828 269.334C991.341 269.186 990.185 269.824 988.887 270.094C987.758 269.908 986.858 269.23 985.64 269.409C982.565 269.75 979.547 270.499 976.377 270.276C974.214 270.087 972.783 271.353 971.011 271.866C970.961 273.54 970.826 275.214 970.688 276.888C968.368 277.026 966.143 277.448 963.857 277.63C963.405 279.5 964.019 281.376 964.002 283.253C964.108 283.789 963.75 284.704 965.035 284.802C966.505 284.933 968.031 284.95 969.485 285.248C969.194 285.474 968.926 285.703 968.69 285.933C969.053 286.148 969.451 286.368 969.876 286.594C969.289 286.938 968.802 287.333 968.138 287.597C966.885 287.556 965.784 287.165 964.589 287.06C962.23 286.801 959.781 286.807 957.552 286.264C956.456 285.889 955.316 286.355 954.237 286.426C952.901 286.456 951.604 286.379 950.307 286.406C951.593 286.595 953.364 286.267 954.287 287.01C948.346 286.693 942.466 287.432 936.54 287.476C934.472 287.453 932.533 287.837 930.688 288.33C930.85 287.726 931.364 287.206 932.153 286.814C930.208 287.294 928.089 287.395 926.066 287.641C925.998 287.952 925.965 288.265 925.948 288.579C924.93 288.428 923.924 288.256 922.962 288.084C921.224 289.521 918.139 289.103 915.713 289.687C915.791 290.81 916.389 291.972 915.836 293.082C914.802 293.685 913.444 294.016 912.208 294.411C912.242 295.501 913.427 296.854 911.738 297.705C910.251 298.431 908.322 298.862 906.4 298.747C906.378 297.434 906.68 295.98 905.092 294.93C905.427 294.499 905.79 294.073 906.181 293.648C905.416 293.202 904.627 292.784 903.85 292.379C904.141 292.092 904.465 291.812 904.811 291.535C904.403 291.137 904.017 290.742 903.66 290.347C904.934 289.186 903.475 287.83 904.409 286.601C902.239 285.19 899.003 285.673 896.214 285.852C896.18 285.201 896.192 284.552 896.248 283.912C893.397 282.424 889.383 283.209 886.164 283.726C885.801 283.241 885.483 282.754 885.186 282.275C882.688 282.352 880.184 282.518 877.724 282.204C876.138 241.254 874.815 243.661 876.601 241.763C873.767 241.16 844.931 237.445 841.934 237.656C837.605 243.177 834.558 256.1 833.332 257.642C826.631 301.425 840.46 287.844 818.983 292.031C818.983 293.341 818.961 294.654 818.927 295.966C816.948 296.236 814.942 296.415 813.064 296.857C813.159 297.365 813.868 321.31 813.885 321.392C812.365 321.375 810.867 321.284 809.436 321.025C809.788 320.596 810.201 320.181 810.609 319.766C810.045 319.404 809.48 319.067 809.045 318.668C809.212 318.202 810.068 317.99 810.599 317.66C809.967 317.214 809.353 316.769 808.776 316.316C809.162 315.949 809.587 315.587 810.04 315.229C809.424 314.787 808.827 314.345 808.268 313.9C808.827 313.576 809.424 313.265 810.04 312.958C809.407 312.519 808.815 312.078 808.256 311.632C808.664 311.271 809.117 310.916 809.581 310.562C809.112 310.201 808.653 309.847 808.239 309.495C808.591 309.054 809 308.625 809.424 308.2C809.033 307.856 808.608 307.528 808.374 307.153C808.463 306.617 809.151 306.232 809.609 305.797C808.944 305.435 808.279 305.081 807.659 304.727C808.229 304.376 808.832 304.035 809.469 303.701C808.894 303.272 808.318 302.854 807.77 302.435C808.24 302.034 808.755 301.642 809.262 301.244C808.709 300.856 808.161 300.468 807.658 300.083C808.16 299.702 808.703 299.334 809.256 298.966C808.691 298.582 808.122 298.204 807.596 297.825C808.049 297.454 808.535 297.09 809.032 296.725C808.395 296.276 807.774 295.831 807.182 295.386C807.769 295.038 808.384 294.697 809.016 294.356C808.357 294.012 807.713 293.674 807.099 293.334C807.469 292.871 807.887 292.423 808.323 291.977C808.077 291.548 807.854 291.123 807.664 290.701C807.932 290.378 808.251 290.063 808.569 289.746C808.072 289.301 807.608 288.849 807.2 288.39C807.681 288.066 808.223 287.752 808.743 287.428C808.168 287.02 807.596 286.611 807.082 286.202C807.77 286.023 808.497 285.854 809.246 285.689C808.669 284.917 807.725 284.299 806.602 283.823C807.2 283.505 807.831 283.202 808.485 282.902C807.836 282.443 807.199 281.994 806.59 281.542C807.166 281.218 807.781 280.904 808.407 280.59C806.625 278.438 807.338 280.648 808.273 276.8C807.669 276.898 807.088 277 806.528 277.104C807.786 276.223 808.876 275.123 810.984 274.971C811.134 274.758 811.314 274.549 811.52 274.343C809.636 274.188 808.413 273.351 807.378 272.484C807.741 272.139 808.266 271.832 808.457 271.421C808.143 270.867 807.06 270.614 806.825 270.064C807.272 269.686 807.843 269.372 808.418 269.045C807.875 268.701 807.295 268.383 806.897 267.996C806.808 267.382 808.083 267.287 808.698 266.939C807.959 266.328 806.97 265.869 806.042 265.397C806.814 265.066 807.624 264.742 808.418 264.401C807.742 264.03 807.081 263.662 806.456 263.291C806.97 262.862 807.764 262.508 807.938 261.951C807.496 261.485 806.797 261.151 806.221 260.78C806.725 260.324 807.305 259.906 807.959 259.511C807.351 259.045 806.707 258.606 806.064 258.184C806.584 257.766 807.138 257.358 807.708 256.95C807.16 256.575 806.495 256.254 806.176 255.805C806.058 255.174 806.796 254.644 807.176 254.084C805.756 253.902 804.32 253.797 802.906 253.713C803.179 251.931 802.157 249.95 803.884 248.354C797.303 247.463 799.142 246.758 794.705 247.176C793.358 248.128 791.189 247.733 789.401 247.79C788.921 246.841 788.854 245.846 788.507 244.891C786.807 244.088 784.582 244.904 782.721 244.999C780.966 244.699 779.691 243.838 778.054 243.416C776.931 243.382 775.857 243.578 774.801 243.709C773.347 243.706 773.268 244.833 772.067 245.097C771.508 245.248 764.922 248.317 758.54 247.172C751.637 247.091 744.532 246.744 737.903 248.131C737.915 249.126 737.925 250.126 737.932 251.124C738.972 251.178 740.179 251.02 741.096 251.468C734.392 251.835 733.084 250.116 730.761 252.582C731.075 254.452 731.421 256.581 729.414 258.174C728.772 258.677 728.424 259.429 727.285 259.565C726.038 259.804 724.697 260.168 724.199 260.948C724.423 262.98 724.675 265.042 724.211 267.07C723.545 267.63 722.679 268.093 722.031 268.653C722.411 269.014 722.847 269.379 723.3 269.743C721.942 270.959 722.103 272.426 722.103 273.827C722.948 274.036 723.803 274.249 724.675 274.489C723.926 274.765 723.193 275.035 722.483 275.319C722.427 276.706 722.176 278.107 722.679 279.483C718.665 279.645 714.624 279.784 710.621 279.537C710.781 277.664 711.079 270.57 708.794 268.822C707.838 266.733 708.598 264.516 708.219 262.383C707.526 261.519 705.849 261.293 704.446 261.178C703.898 260.304 703.999 259.366 704.205 258.461C704.579 256.932 703.819 255.427 703.741 253.905C702.483 253.703 701.221 253.534 699.968 253.409C699.884 250.986 700.135 248.553 699.247 246.17C698.101 245.971 696.966 245.779 695.848 245.593C695.87 245.097 695.91 244.601 695.983 244.108C693.954 243.649 691.852 243.123 689.656 243.288C685.328 243.543 676.397 243.004 672.797 244.553C672.239 245.137 671.88 245.785 671.249 246.342C669.142 247.199 666.901 246.055 664.804 245.772C664.938 245.302 665.094 244.837 665.268 244.374C662.289 243.608 658.895 243.946 655.749 243.713C653.882 243.497 652.099 243.959 650.282 244.01C648.235 243.159 645.766 242.775 643.859 241.806C644.122 241.641 644.641 241.306 644.904 241.141C644.317 240.77 643.736 240.402 643.177 240.041C643.508 238.579 642.825 237.122 642.887 235.657C642.965 235.023 642.194 234.371 641.121 234.358C639.74 234.257 638.538 233.869 637.353 233.491C637.269 231.949 637.365 230.403 637.297 228.864C636.877 225.276 633.64 226.513 632.87 226.555C631.579 226.848 630.237 226.701 628.952 226.538C625.353 226.056 621.602 226.113 617.963 226.335C615.967 227.159 613.514 226.683 611.323 226.994C610.568 227.953 610.227 229.049 608.433 229.498C608.114 229.252 607.829 229.005 607.578 228.756C606.829 224.318 607.214 219.849 607.158 215.395C602.183 214.245 589.288 214.557 584.431 213.262C579.193 211.895 572.827 212.338 568.042 214.109C560.197 219.175 561.841 220.282 561.223 223.768C560.58 224.696 559.652 225.54 558.886 226.431C560.418 226.444 562.005 226.569 563.045 227.335C559.071 228.648 554.891 229.9 550.418 230.406C548.96 232.556 545.762 233.967 542.677 235.216C543.47 235.891 542.794 236.616 542.353 237.288C541.643 236.822 541.056 236.313 540.569 235.776C537.998 235.969 535.432 236.212 532.844 236.114C531.095 236.006 530.368 237.305 528.748 237.468C527.266 237.647 525.981 238.133 524.69 238.568C522.694 238.686 520.962 237.863 519.066 237.623C518.914 238.231 518.781 238.842 518.658 239.456C515.226 238.632 512.917 236.749 509.743 235.672C508.893 235.497 508.01 235.682 507.188 235.696C506.503 242.064 508.114 251.528 507.412 255.817C507.027 256.148 506.3 256.094 505.763 256.174C505.45 255.725 505.172 255.287 504.886 254.848C502.673 255.466 500.426 256.036 498.234 256.667C497.843 258.189 498.157 259.718 498.492 261.23C497.157 262.712 497.777 264.419 498.145 266.002C495.176 266.842 491.812 266.839 488.704 267.385C488.022 266.279 487.212 265.195 486.815 264.038C488.408 263.997 490.017 263.987 491.638 263.943C491.191 262.937 489.033 263.123 487.72 262.87C487.307 262.465 486.909 262.074 486.518 261.685C487.177 261.301 487.854 260.916 488.541 260.531C488.015 260.123 487.496 259.718 486.998 259.316C487.976 258.644 488.015 257.784 487.669 256.957C489.24 256.936 490.839 256.892 492.37 256.589C491.358 255.597 489.094 255.779 487.49 255.408C489.07 253.119 489.101 253.929 487.461 252.111C488.166 251.783 488.886 251.46 489.614 251.132C489.686 250.272 489.787 249.367 489.044 248.598C487.233 247.73 485.846 246.478 483.465 246.171C481.949 241.761 482.008 248.519 482.963 237.477C481.129 237.116 479.351 236.694 477.585 236.252C472.813 238.155 472.276 236.604 466.311 237.247C461 236.593 462.347 237.392 447.195 237.22C446.977 237.051 446.77 236.896 446.579 236.748C444.216 236.907 441.839 236.953 439.475 236.92C439.76 234.328 438.671 231.605 440.296 229.124C441.264 227.666 439.29 226.32 439.441 224.861C439.664 217.609 438.784 219.248 438.318 208.649C434.825 208.621 431.337 208.652 427.854 208.645C427.927 208.477 428.061 208.136 428.134 207.967C426.898 207.957 425.674 207.95 424.472 207.947C424.126 207.539 423.818 207.134 423.528 206.729C423.255 206.695 422.701 206.628 422.427 206.593C423.366 206.026 423.439 205.26 422.249 204.795C421.517 205.237 421.019 205.983 419.828 205.952C417.771 206.334 415.586 205.476 413.73 206.33C413.409 205.931 412.291 184.665 412.545 182.088C412.142 181.849 411.762 181.612 411.41 181.376C410.667 181.582 409.935 181.787 409.225 181.99C408.65 180.053 409.432 178.058 408.638 176.151C404.704 176.013 407.747 179.029 406.81 183.181C406.453 184.754 407.38 186.289 407.286 187.862C407.903 194.716 407.26 193.118 407.599 204.513C406.872 204.564 406.174 204.618 405.492 204.672C405.268 205.216 405.123 205.772 404.748 206.285C403.357 206.427 403.759 205.371 403.418 204.872C397.107 205.548 400.841 206.758 393.547 204.8C392.396 205.688 391.72 206.724 391.474 207.838C388.047 209.942 385.379 206.586 377.745 208.644C378.36 208.87 379.013 209.096 379.679 209.322C378.89 209.913 378.165 210.53 377.65 211.215C377.08 211.287 376.532 211.361 376.006 211.435C374.944 214.516 378.266 212.626 375.772 215.161C376.129 216.418 376.209 224.527 376.437 225.471C377.859 230.18 375.222 234.966 378.388 235.919C376.951 237.448 377.521 239.382 378.287 241.002C372.463 241.675 377.83 240.37 370.243 243.134C370.132 243.553 370.042 243.975 369.97 244.396C341.782 244.752 357.032 244.104 345.241 243.968C344.705 243.502 344.191 243.026 343.694 242.56C342.817 243.137 341.939 243.762 340.614 243.927C339.652 247.252 341.222 250.579 340.731 253.91C340.569 255.223 339.625 256.499 340.133 257.832C339.635 258.153 339.16 258.483 338.719 258.821C339.3 259.32 339.875 259.843 340.373 260.393C339.691 260.636 339.037 260.889 338.411 261.156C339.159 261.523 339.948 261.892 340.714 262.28C340.11 262.698 339.523 263.113 338.947 263.532C339.466 263.926 339.997 264.335 340.506 264.753C339.087 264.902 337.588 265.01 336.437 265.559C333.47 266.594 337.039 275.187 334.391 282.022C332.798 282.173 331.194 282.255 329.617 282.376C329.654 283.888 330.95 310.471 330.445 313.188C329.802 313.394 329.187 313.6 328.584 313.806C328.494 314.366 328.371 314.926 328.221 315.483C326.343 315.301 324.448 315.274 322.57 315.237C321.859 312.57 321.752 296.054 321.715 295.717C320.094 295.417 318.411 295.322 316.74 295.302C316.175 294.826 315.561 294.391 314.901 293.986C316.204 293.054 315.348 291.995 314.99 290.972C314.991 290.969 313.942 283.462 314.973 280.189C313.694 279.565 312.352 278.65 310.546 278.934C308.926 279.13 307.432 278.614 305.879 278.513C304.885 278.631 304.018 278.985 303.034 279.043C280.301 279.351 296.106 280.431 284.582 278.864C284.973 278.654 285.381 278.448 285.818 278.246C284.23 277.213 284.811 275.729 284.638 274.452L283.945 235.47C283.906 234.154 283.028 232.891 283.313 231.565C282.726 230.33 283.692 229.112 283.112 227.873C283.341 227.05 283.464 226.219 282.514 225.538C282.849 225.511 283.515 225.464 283.844 225.437C282.63 222.923 283.755 220.304 282.961 217.766C282.558 216.22 283.945 214.429 282.005 213.133C282.49 212.961 282.994 212.789 283.514 212.62C283.033 212.276 282.57 211.938 282.111 211.604C284.107 209.859 281.754 207.797 282.893 205.961C281.046 204.184 282.143 204.578 283.028 203.504C282.514 203.244 282.016 202.991 281.53 202.745C281.759 202.282 281.993 201.82 282.234 201.361C281.575 201.28 280.931 201.202 280.311 201.132C279.802 200.491 279.304 199.853 278.852 199.205C280.401 198.739 281.96 198.277 283.492 197.777C283.497 197.561 283.503 197.129 283.509 196.913C279.166 196.333 274.71 196.502 270.311 196.41C269.311 196.043 268.165 195.54 267.025 196.008C264.717 196.805 262.011 196.346 259.523 196.555C256.728 196.957 253.94 196.281 251.128 196.514C251.452 196.869 251.804 197.217 252.178 197.567C250.055 197.363 249.262 196.61 244.99 198.09C244.336 198.529 243.805 199.025 243.24 199.501C245.571 200.075 248.058 200.095 250.512 199.842C250.496 200.254 250.49 200.665 250.507 201.084C248.388 201.074 247.422 202.241 246.181 203.065C247.076 203.159 247.998 203.22 248.943 203.274C248.143 203.622 247.371 203.976 246.623 204.344C246.471 205.721 246.69 207.118 246.237 208.482C246.673 208.681 247.131 208.887 247.596 209.096C247.12 209.814 246.572 210.513 245.986 211.201C246.679 211.327 247.383 211.461 248.11 211.607C247.49 211.86 246.886 212.116 246.299 212.376C246.702 212.525 247.132 212.673 247.579 212.825C246.953 213.092 246.651 213.493 246.427 213.912C246.931 213.976 247.936 214.111 248.44 214.178C247.82 214.678 247.188 215.167 246.584 215.667C247.171 216.166 247.786 216.655 248.44 217.142C247.831 217.594 247.211 218.036 246.567 218.465C247.103 218.853 247.663 219.244 248.221 219.639C247.612 220.014 246.997 220.375 246.522 220.804C246.785 221.651 248.567 221.283 249.597 221.496C248.998 222.43 246.589 222.322 246.422 223.423C247.663 223.473 248.92 223.507 250.195 223.578C249.094 224.104 247.875 224.523 246.752 225.016C246.07 225.768 247.926 226.153 248.603 226.605C248.296 227.145 247.708 227.574 246.981 227.921C247.266 228.04 247.831 228.276 248.116 228.394C247.73 228.917 247.311 229.43 246.791 229.909C248.015 230.959 246.612 232.309 247.904 233.338C247.68 233.716 247.238 234.084 247.351 234.503C247.713 234.895 248.558 235.147 248.681 235.616C248.368 236.025 247.909 236.379 247.507 236.747C247.77 237.145 248.038 237.54 248.323 237.945C247.954 238.306 247.613 238.674 247.29 239.042C247.664 239.393 248.067 239.748 248.48 240.102C248.116 240.52 247.781 240.943 247.474 241.374C248.301 242.205 248.082 243.146 247.691 244.04C248.043 244.297 248.423 244.556 248.821 244.82C248.323 245.181 247.843 245.542 247.379 245.91C247.765 246.396 248.178 246.879 248.609 247.365C248.184 247.614 247.782 247.867 247.396 248.124C247.988 248.978 248.021 249.896 247.675 250.797C248.458 250.969 249.23 251.138 250.046 251.323C249.291 251.88 248.441 252.383 247.608 252.886C248.385 253.233 249.185 253.581 249.984 253.942C249.302 254.29 248.615 254.624 247.937 254.965C247.976 255.137 248.055 255.485 248.094 255.657C248.876 255.775 249.676 255.886 250.503 256.008C249.731 256.541 247.664 256.892 248.351 257.753C249.027 257.989 250.279 257.884 250.469 258.485C249.726 258.88 248.922 259.224 248.15 259.585C248.709 259.919 249.296 260.26 249.888 260.601C248.652 261.458 249.491 262.541 249.173 263.533C248.753 264.482 249.692 265.403 249.284 266.361C249.502 267.613 248.413 268.994 249.893 270.074C249.396 270.448 248.921 270.823 248.457 271.204C249.794 272.012 250.7 271.496 248.518 273.671C248.971 274.009 249.44 274.353 249.915 274.701C249.536 275.035 248.725 275.335 248.993 275.804C249.278 277.471 249.86 279.182 249.206 280.839C249.583 288.07 249.239 291.335 249.239 291.335C248.004 291.304 246.663 291.406 245.673 290.893C244.343 290.245 242.571 289.955 241.593 289.081C242.18 288.767 242.795 288.463 243.421 288.157C242.699 287.667 241.66 287.377 241.051 286.857C240.638 286.057 240.71 285.217 240.749 284.397C239.966 284.164 239.189 283.948 238.418 283.749C238.502 282.982 238.35 282.217 238.239 281.46C238.954 281.359 239.731 281.271 240.481 281.167C239.749 281.096 239.033 281.029 238.34 280.968C238.312 279.965 238.333 277.457 236.841 277.34C233.783 276.904 230.794 276.283 227.63 276.203C227.346 274.318 225.846 228.128 225.846 228.128C226.008 226.765 226.109 225.323 224.996 224.085C223.599 223.633 221.771 223.906 220.278 223.531C220.737 222.981 221.19 222.425 221.608 221.857C223.52 221.533 225.526 221.344 227.271 220.723C225.093 219.212 215.588 220.444 210.072 218.891C206.987 218.439 195.821 219.428 190.681 220.899C190.692 221.098 190.709 221.496 190.72 221.695C192.402 221.988 194.358 222.282 195.085 223.376C193.654 223.689 191.932 223.906 191.044 224.709C191.558 224.776 192.586 224.908 193.1 224.972C192.245 225.428 191.345 225.843 190.451 226.255C190.892 226.798 191.652 227.193 192.479 227.541C191.674 227.541 190.886 227.548 190.115 227.554C191.179 228.915 191.464 233.63 191.395 234.114C191.865 234.31 192.351 234.509 192.853 234.712C192.105 235.06 191.355 235.41 190.64 235.764C191.07 236.571 192.037 237.162 193.323 237.503C192.558 237.874 191.791 238.249 191.076 238.64C191.59 239.058 192.155 239.473 192.73 239.885C192.378 240.246 192.054 240.611 191.763 240.985C192.159 241.447 192.562 241.92 192.976 242.396C192.513 242.753 192.076 243.115 191.651 243.479C192.462 243.718 193.278 243.979 194.089 244.245C193.239 244.677 192.39 245.109 191.651 245.602C192.048 245.673 192.853 245.818 193.25 245.892C192.68 247.06 192.535 248.271 192.601 249.486C192.255 250.296 191.936 251.136 192.852 251.869C192.466 252.274 192.087 252.679 191.746 253.098C192.673 253.435 193.629 253.766 194.664 254.019C193.915 254.191 193.177 254.363 192.473 254.559C193.037 255.608 193.166 256.783 191.797 257.637C192.294 258.038 192.82 258.44 193.367 258.842C192.607 259.314 191.864 259.796 191.132 260.276C191.596 260.687 192.099 261.102 192.652 261.494C192.452 261.619 192.037 261.872 191.831 261.997C193.054 265.717 192.217 283.052 192.268 284.44C189.171 284.403 186.069 284.437 183.017 284.727C182.872 285.894 182.877 287.072 183.162 288.233C182.503 288.267 181.859 288.305 181.234 288.345C181.53 289.171 181.731 290.012 181.781 290.866C180.814 290.927 179.865 290.987 178.936 291.051C179.283 292.962 177.919 294.787 178.248 296.697C178.969 298.044 177.818 299.465 179.02 300.768C177.796 300.994 175.996 301.47 175.129 300.663C174.34 297.071 175.418 289.964 174.984 280.285C174.118 279.769 172.809 279.695 171.754 279.408C171.703 278.267 171.708 277.123 171.619 275.986C168.975 277.691 170.485 278.162 171.044 279.546C166.734 280.181 151.566 279.541 129.25 279.88C123.92 279.684 127.45 288.391 126.147 297.254C123.956 297.713 121.653 297.878 119.434 298.239C119.91 298.729 120.424 299.222 120.91 299.728C119.814 299.846 118.74 300.058 117.634 299.997C115.09 299.721 112.765 300.682 110.233 300.618C106.779 300.544 103.33 300.456 99.8868 300.375C100.458 293.727 99.0172 277.245 99.5398 273.889C99.2769 273.741 98.7511 273.44 98.4893 273.292C98.4503 274.112 98.4441 274.936 98.422 275.759C98.1643 275.766 97.6448 275.776 97.3882 275.783C97.0085 266.24 98.2832 269.75 95.7448 266.289C96.9972 266.599 98.2767 266.9 99.6069 267.112C98.6343 266.067 97.0802 266.241 98.4672 261.655C97.7405 261.598 97.036 261.547 96.343 261.507C95.7394 259.833 95.6279 258.129 95.5828 256.424C91.0043 255.512 94.3998 255.15 83.9399 254.862V255.537C86.1366 255.604 88.7412 255.226 90.4406 256.317C85.8958 256.698 81.251 256.303 76.7629 256.86C76.1478 256.631 75.7061 256.121 74.9301 256.185C69.2958 256.262 70.8942 256.599 70.6702 261.264C70.0277 261.808 68.7142 261.855 67.7972 262.152C67.4229 263.647 66.6796 265.304 68.1718 266.674C67.5061 266.695 66.8635 266.718 66.2378 266.745C64.2987 268.112 64.8456 269.985 64.9634 271.639C65.5281 271.882 66.1263 272.129 66.73 272.375C65.712 272.868 65.2651 273.6 64.8634 274.319C65.4891 274.583 66.1432 274.849 66.8025 275.119C66.1821 275.494 65.5723 275.865 64.975 276.24C64.8057 281.405 65.5692 299.104 65.4724 306.499C57.3008 306.563 49.1226 306.438 40.9562 306.553C40.8447 315.31 41.381 324.058 41.381 332.819C39.7153 332.826 38.0769 332.66 36.4281 332.617C34.427 332.718 32.4258 332.836 30.4247 332.812C28.943 331.806 29.5078 330.537 29.7487 329.349C29.6698 329.012 26.9757 272.154 28.7423 269.112C29.776 267.408 27.7749 265.737 28.0431 264.002C27.859 262.922 28.5688 261.65 27.3048 260.745C26.3436 260.036 25.3203 259.362 24.4707 258.609C24.1521 258.602 23.5203 258.585 23.2017 258.578C22.9724 260.178 22.4866 261.767 21.8767 263.333C20.4456 263.313 19.0311 263.306 17.623 263.303C17.153 262.915 16.7009 262.526 16.2593 262.146C15.907 262.189 15.1919 262.281 14.8396 262.328C14.7334 262.581 14.521 263.087 14.4148 263.344C12.2959 263.067 10.1497 263.087 8.04236 263.347C7.69641 262.932 7.38831 262.52 7.10327 262.105C6.07483 262.166 5.05151 262.233 4.05676 262.311C2.98315 261.511 3.16211 260.499 3.68787 259.597C3.14526 259.59 2.62573 259.587 2.11682 259.587C2.31763 260.272 2.69836 261.031 1.80347 261.608C-1.30396 263.812 -0.155762 263.002 -7.56506 263.35C-8.297 262.813 -9.11292 262.304 -10.2812 262.196C-10.399 262.496 -10.6335 263.1 -10.7502 263.404C-12.0079 263.259 -13.1478 262.911 -14.3613 262.719C-15.4014 262.986 -16.3341 263.37 -17.2899 263.721C-17.4991 264.596 -17.0985 280.257 -17.0775 280.599C-18.8379 280.66 -20.5098 279.755 -22.1923 280.245C-24.6908 280.849 -27.631 280.913 -30.079 280.211C-32.8699 281.085 -38.0613 281.208 -40.3579 280.204C-41.2749 280.599 -42.3423 280.858 -43.4717 280.771C-45.6683 280.66 -48.1837 280.991 -50.0229 280.096C-50.6097 280.37 -51.1522 280.751 -51.9514 280.71C-54.1029 280.757 -56.2671 280.858 -58.4017 280.707C-59.0779 280.471 -59.6038 280.126 -60.1632 279.829C-60.2915 280.052 -60.5491 280.501 -60.6721 280.724C-64.5734 280.862 -68.4757 280.839 -72.3707 280.832C-72.6893 280.258 -72.5273 279.414 -73.6567 279.178C-77.272 281.53 -74.3224 291.238 -74.926 300.693C-76.3456 300.716 -77.7599 300.729 -79.1627 300.686C-79.6317 300.942 -80.0851 301.206 -80.5267 301.469C-81.9579 301.441 -83.3826 301.428 -84.7916 301.408C-85.4415 298.535 -85.124 255.814 -86.3291 251.162C-86.0326 249.607 -86.2281 248.041 -86.0273 246.481C-98.7913 246.238 -113.473 246.808 -116.665 246.056C-118.688 245.732 -120.65 245.222 -122.729 245.097C-123.489 245.421 -123.176 245.975 -123.149 246.444C-126.212 246.441 -129.28 246.406 -132.338 246.471C-132.405 247.342 -132.416 248.216 -132.427 249.093C-132.187 249.229 -131.706 249.495 -131.466 249.63C-134.837 250.789 -132.463 253.93 -134.491 257.595C-134.161 258.626 -132.897 323.583 -133.714 325.071C-133.428 327.302 -133.328 329.543 -133.585 331.78C-173.969 332.118 -157.964 330.749 -171.428 333.937C-171.512 334.467 -171.579 335 -171.629 335.54C-174.06 335.797 -176.626 335.463 -178.935 336.077C-181.048 336.343 -183.234 336.256 -185.369 336.293C-185.569 335.672 -185.251 334.933 -185.883 334.406C-186.778 334.157 -187.783 334.14 -188.717 334.025C-189.283 327.258 -187.865 316.505 -189.991 306.26C-190.401 305.847 -198.132 298.366 -199.287 298.805C-202.272 300.796 -204.211 303.287 -207.163 305.278C-209.948 291.204 -219.723 161.775 -218.895 153.038C-214.563 152.933 -210.036 152.761 -206.112 151.543C-202.9 149.286 -203.951 147.5 -207.565 145.512C-206.251 144.516 -204.591 143.716 -203.104 142.816C-203.937 140.308 -202.243 137.882 -201.885 135.408C-202.455 135.134 -203.182 131.557 -205.171 130.777C-206.373 130.234 -207.72 129.833 -208.967 129.346C-209.872 128.391 -208.955 126.997 -210.7 126.326C-212.164 125.283 -214.584 125.736 -216.53 125.485C-220.614 123.899 -218.889 121.021 -219.196 116.363C-223.445 116.26 -222.353 115.417 -222.371 90.8562C-222.578 72.9121 -223.821 79.7525 -219.669 72.8671C-219.549 72.6696 -222.698 70.2323 -223.091 70.0266C-225.725 68.3758 -223.947 70.0443 -224.248 62.1494C-223.816 60.1717 -224.542 58.2042 -224.677 56.2309C-224.807 54.318 -224.529 52.3904 -224.532 50.4724L-225.876 33.6711C-226.964 28.1323 -227.859 36.7053 -228.065 17.5879C-228.224 2.90341 -227.274 -0.316155 -231.197 0.0235148C-231.849 3.11736 -230.917 27.6828 -230.889 28.0224C-232.879 31.6744 -233.555 30.3601 -233.348 37.205C-233.329 37.8227 -235.858 54.5891 -234.158 59.2092C-233.82 60.2726 -234.205 68.1879 -234.331 69.2628C-234.918 70.7103 -238.328 71.2976 -237.831 72.9687C-238.127 74.5953 -235.41 75.726 -235.639 77.3456C-235.663 81.6217 -236.575 113.528 -235.393 116.173C-243.476 117.568 -236.683 120.352 -238.188 125.498C-240.967 125.859 -243.806 126.109 -246.512 126.625C-248.82 127.61 -247.596 129.588 -248.714 130.935C-250.116 131.873 -252.23 132.21 -253.817 132.994C-254.705 135.012 -254.739 137.158 -254.063 139.207C-253.577 140.658 -254.343 142.355 -252.694 143.604C-252.102 144.208 -250.748 144.697 -251.129 145.5C-252.524 148.086 -254.941 150.345 -245.008 153.027C-242.823 153.209 -240.592 153.128 -238.379 153.266C-238.016 155.607 -238.256 169.62 -238.155 191.425C-238.054 193.136 -239.273 194.756 -239.021 196.474C-238.358 209.115 -241.545 222.019 -240.111 233.27C-239.782 236.19 -241.49 235.727 -241.537 240.698C-241.347 264.449 -242.893 241.743 -242.638 265.335C-242.705 273.03 -243.971 262.775 -243.744 282.547C-243.587 284.491 -245.202 286.33 -244.745 288.28C-244.281 290.417 -245.203 292.556 -244.728 294.693C-244.46 295.814 -244.639 296.961 -245.304 298.024C-246.699 300.138 -245.637 305.845 -246.098 309.565C-248.175 315.858 -246.41 313.927 -246.859 320.368C-246.953 321.86 -248.418 323.2 -248.261 324.715C-248.546 328.398 -246.383 331.036 -255.69 330.067C-256.782 323.423 -255.074 301.902 -256.148 299.197C-256.707 298.222 -258.524 297.699 -259.033 296.724C-259.217 295.563 -259.1 294.399 -259.083 293.238C-260.229 293.042 -261.364 292.843 -262.482 292.634C-262.794 287.579 -260.815 284.008 -268.765 284.312C-272.352 284.44 -278.336 283.458 -278.754 287.72C-283.789 287.757 -288.854 287.559 -293.862 287.805C-296.428 288.547 -296.047 290.309 -296.042 291.74C-298.25 291.74 -300.458 291.753 -302.654 291.781C-302.989 300.879 -302.027 301.234 -302.437 305.438C-303.902 305.378 -305.355 305.263 -306.808 305.331C-307.861 297.235 -306.096 303.564 -307.759 295.28C-311.756 293.667 -316.747 295.068 -320.995 293.961C-322.699 294.022 -324.354 294.68 -326.143 294.376C-326.777 292.073 -325.73 278.338 -326.556 275.652C-334.106 274.926 -322.652 274.077 -348.546 274.205C-349.045 287.821 -348.255 283.693 -352.71 285.234C-354.923 285.554 -355.415 287.099 -355.269 288.281C-355.225 288.891 -354.874 299.435 -355.789 301.551C-363.808 303.017 -363.974 299.133 -369.182 307.049C-372.122 307.582 -375.632 306.674 -378.125 307.967C-381.043 309.151 -384.777 308.436 -388.03 308.372C-388.158 306.873 -387.348 305.196 -388.795 303.863C-389.902 304.048 -390.987 304.254 -392.082 304.443C-392.177 303.37 -392.367 302.307 -392.507 301.244C-405.108 299.194 -413.804 301.023 -417.045 301.301C-417.057 302.023 -417.079 302.748 -417.108 303.478C-418.589 303.336 -420.065 303.245 -421.552 303.225C-421.523 307.18 -421.44 311.135 -421.58 315.091C-482.831 314.898 -484.715 315.375 -486.068 314.848C-487.165 313.775 -487.532 313.477 -487.135 301.092C-487.102 299.712 -484.676 298.507 -485.889 297.126C-486.515 296.195 -485.805 295.186 -486.348 294.244C-489.293 294.285 -492.24 294.247 -495.18 294.254C-497.656 294.207 -499.92 294.996 -502.39 294.949C-506.521 294.949 -510.651 294.895 -514.777 294.97C-511.683 295.306 -500.75 294.961 -497.326 294.824C-500.981 295.483 -504.827 295.007 -508.561 295.152C-511.535 295.162 -514.642 295.419 -517.471 294.744C-516.778 294.626 -516.063 294.534 -515.347 294.44C-518.924 294.177 -522.53 294.265 -526.118 294.271C-526.436 294.558 -526.738 294.852 -527.04 295.149C-526.162 298.179 -526.738 301.291 -526.654 304.355C-528.974 303.573 -531.634 303.953 -534.065 304.271C-535.753 304.602 -537.073 305.371 -538.37 306.07C-540.237 307.042 -539.46 308.766 -541.008 309.869C-542.243 310.862 -542.596 312.198 -544.099 313.069C-548.782 313.356 -560.663 313.407 -563.065 313.156C-564.176 309.822 -564.482 310.272 -570.896 309.083C-574.257 304.801 -574.07 304.53 -575.715 304.044C-590.728 302.452 -590.213 302.118 -593.059 304.054C-593.931 305.772 -592.388 307.466 -592.545 309.198C-592.601 313.666 -592.501 318.135 -592.595 322.606C-593.58 322.599 -594.558 322.593 -595.519 322.586C-595.591 321.918 -595.637 321.259 -595.686 320.601C-630.026 320.539 -611.057 321.049 -633.645 320.584C-633.556 318.603 -633.372 316.608 -633.897 314.644C-634.283 313.166 -633.74 311.678 -633.991 310.203C-634.768 308.928 -635.908 307.736 -636.4 306.404C-640.928 306.373 -645.462 306.501 -649.978 306.363C-652.662 305.772 -654.383 304.156 -655.373 302.607C-663.558 301.376 -665.152 303.237 -667.855 303.359C-669.665 302.941 -669.426 301.537 -669.8 300.595C-670.768 300.484 -671.723 300.373 -672.679 300.268C-674.289 297.693 -673.802 294.939 -673.881 292.252C-676.167 292.216 -678.465 292.313 -680.734 292.171C-682.26 291.587 -683.165 290.598 -684.546 289.92C-688.57 289.113 -692.814 289.977 -696.932 289.677C-700.348 289.413 -703.763 289.7 -707.173 289.761C-707.754 290.713 -708.732 291.543 -709.476 292.444C-710.314 295.205 -709.408 297.999 -709.895 300.77C-710.389 306.429 -706.481 310.986 -717.822 309.723C-717.588 301.244 -715.333 304.593 -748.716 303.686C-749.1 300.65 -747.454 293.302 -751.991 291.918C-754.624 291.671 -757.302 291.817 -759.934 291.584C-760.134 290.683 -760.336 289.788 -760.532 288.891C-763.226 288.445 -765.686 287.71 -767.805 286.616C-792.061 281.314 -784.262 287.399 -786.324 290.574C-787.274 291.644 -789.448 291.624 -791.164 291.823C-792.729 294.587 -792.958 297.544 -792.41 300.432C-791.924 302.305 -793.914 303.966 -793.813 305.815C-793.631 328.916 -793.201 328.841 -795.657 329.247C-798.033 329.652 -800.604 329.827 -803.008 329.405C-804.657 329.038 -805.936 330.107 -807.575 330.029C-819.518 330.167 -823.468 329.214 -823.913 332.459C-824.304 337.089 -823.058 341.747 -824.031 346.363C-826.507 345.86 -828.329 344.224 -828.117 342.648C-828.216 319.713 -826.28 276.947 -826.943 274.078C-827.05 272.944 -827.955 271.891 -827.877 270.75C-827.866 269.448 -828.319 268.172 -828.676 266.896C-832.109 266.09 -835.875 266.93 -839.42 266.495C-841.617 265.779 -841.728 264.173 -842.126 262.867C-844.368 262.465 -846.698 262.533 -849.001 262.536C-851.751 262.603 -854.194 261.132 -856.943 261.868C-857.267 262.735 -857.503 263.64 -858.206 264.436C-859.213 265.074 -860.688 265.311 -861.951 265.702C-864.88 266.458 -867.122 267.98 -870.286 268.428C-873.948 269.494 -873.514 267.707 -874.014 273.703C-874.949 281.876 -872.976 279.897 -873.752 289.056C-873.88 289.511 -873.209 289.808 -872.801 290.143C-874 291.201 -873.904 291.522 -873.835 297.472C-873.88 297.949 -873.326 298.33 -873.013 298.745C-873.349 299.083 -873.679 299.42 -874.008 299.764C-873.667 300.091 -873.315 300.425 -872.963 300.763C-874.494 304.687 -874.349 308.748 -874.305 312.75C-873.684 312.922 -873.059 313.097 -872.427 313.276C-873.019 313.607 -873.824 313.843 -874.176 314.299C-873.986 314.701 -873.6 315.058 -873.254 315.426C-875.597 317.594 -874.104 324.498 -874.5 325.77C-875.06 328.085 -874.668 330.42 -874.645 332.749C-880.19 332.972 -885.752 332.702 -891.297 332.877C-891.454 332.972 -891.767 333.164 -891.923 333.259C-892.224 334.559 -891.459 336.043 -893.102 337.11C-896.514 336.295 -895.929 335.544 -902.23 333.917C-902.291 330.859 -902.124 327.801 -902.286 324.748C-902.756 322.409 -902.756 320.043 -902.493 317.698C-902.432 317.48 -901.798 292.81 -902.331 288.603C-902.498 287.392 -904.081 286.456 -904.304 285.255C-904.774 283.342 -904.103 281.425 -904.164 279.508C-904.164 278.199 -904.454 276.899 -904.516 275.593C-913.632 273.587 -929.89 275.937 -934.511 274.031C-934.639 273.035 -934.701 272.033 -934.522 271.04C-934.126 269.414 -934.892 267.801 -934.674 266.171C-944.515 265.452 -941.577 263.85 -953.422 265.074C-953.366 265.934 -953.249 266.792 -952.98 267.642C-954.98 268.717 -953.096 268.647 -965.088 268.573C-965.323 270.197 -965.223 271.826 -965.262 273.457C-968.649 273.67 -972.109 273.292 -975.451 273.686C-976.888 274.371 -976.586 275.762 -976.994 276.764C-978.061 276.859 -979.123 276.953 -980.18 277.061C-980.404 277.784 -979.7 278.29 -978.715 278.637C-979.213 278.954 -979.794 279.234 -980.169 279.619C-980.18 281.347 -979.632 283.078 -980.034 284.806C-981.665 286.142 -985.105 285.521 -993.545 285.704C-993.606 287.24 -993.589 288.775 -993.617 290.311C-994.713 290.395 -995.809 290.493 -996.893 290.611C-996.91 290.837 -996.954 291.289 -996.971 291.512C-995.819 291.62 -994.662 291.741 -993.505 291.859C-993.566 292.49 -993.599 293.125 -993.616 293.763C-996.445 293.786 -999.272 293.742 -1002.1 293.817C-1000.95 306.501 -1002.54 303.593 -1003.72 305.581C-1003.14 309.266 -1004.71 322.967 -1003.96 328.449C-1005.3 328.665 -1006.69 328.713 -1007.95 328.328C-1008.19 327.427 -1008.97 326.681 -1010.27 326.222C-1009.54 306.157 -1010.75 307.889 -1009.6 306.86C-1010.35 305.777 -1009.9 304.602 -1009.83 303.475C-1009.65 300.053 -1010.32 296.631 -1009.59 293.216C-1014.28 292.423 -1019.17 292.392 -1024 292.382C-1024.05 291.494 -1024.08 290.607 -1024.1 289.722C-1050.77 289.722 -1059.81 289.314 -1055.06 290.856C-1057.51 293.17 -1054.7 292.539 -1056.23 297.98C-1055.67 298.355 -1055.1 298.73 -1054.53 299.114C-1055.33 299.165 -1056.78 299.043 -1056.65 299.776C-1056.08 303.546 -1057.01 319.08 -1056.34 322.704C-1055.95 324.459 -1057.1 326.147 -1057.23 327.888L-1057.31 345.549C-1055.83 345.559 -1054.34 345.579 -1052.87 345.694C-1056.17 346.541 -1059.73 345.758 -1063.17 345.84C-1063.46 345.458 -1063.75 345.077 -1064.03 344.702C-1074.35 347.359 -1074.87 344.976 -1079.3 345.124C-1080.68 345.063 -1082.2 345.35 -1083.44 344.884C-1087.99 343.026 -1088.79 346.559 -1098.94 345.04C-1098.94 345.04 -1098.57 338.488 -1098.5 330.345C-1109.87 329.042 -1121.97 329.829 -1128.35 329.38C-1130.16 323.286 -1128.45 304.36 -1128.46 304.302C-1128.04 297.415 -1129.46 295.631 -1127.93 293.813C-1131.14 293.874 -1134.27 293.441 -1137.41 293.118C-1140.91 293.087 -1144.43 293.182 -1147.84 292.622C-1151.26 292.723 -1154.7 292.642 -1158.12 292.74C-1163.59 293.361 -1169.18 293 -1174.71 293.084C-1173.54 295.581 -1174.4 308.807 -1174.44 309.145C-1174.69 310.716 -1172.38 313.854 -1177.16 314.38C-1180.76 314.265 -1184.38 314.42 -1187.96 314.133C-1190.8 313.918 -1193.61 314.265 -1196.44 314.282C-1197.05 309.741 -1195.03 287.098 -1195.15 284.583C-1195.01 283.844 -1196.13 283.328 -1197.26 283.288C-1204.82 282.481 -1212.58 283.48 -1220.13 282.579C-1225.08 282.991 -1230.08 282.576 -1235.03 282.95L-1237.11 348.935C-1237.15 348.941 -1237.19 348.948 -1237.23 348.954V349.589H-1251.96C-1252.02 390.583 -1252.01 431.577 -1251.97 472.572H1439.97C1439.99 465.029 1440.03 329.401 1439.96 303.755ZM-1175.13 342.41C-1176.9 342.805 -1178.67 342.249 -1180.44 342.191C-1185.87 341.937 -1191.31 342.022 -1196.73 342.076C-1197.43 340.553 -1196.47 322.125 -1196.24 321.56C-1195.4 320.84 -1194.7 321.348 -1178.18 321.199C-1177.17 321.158 -1176.18 321.29 -1175.24 321.506C-1174.63 326.882 -1175.51 333.025 -1175.13 342.41ZM1194.17 325.894C1197.05 325.951 1200 325.644 1202.85 325.876L1203.24 326.174C1200.21 326.032 1197.16 326.012 1194.17 325.894Z" fill="#81A6FF" fill-opacity="0.15"/>
</svg>
