<svg width="360" height="194" viewBox="-20 -30 340 209" fill="none" xmlns="http://www.w3.org/2000/svg">
<path d="M1113.98 124.697C1113.82 124.714 1113.5 124.749 1113.33 124.765C1113.21 124.918 1113.11 125.071 1113.02 125.226C1112.85 125.256 1112.51 125.311 1112.34 125.339C1112.03 125.111 1111.9 124.704 1111.23 124.719C1109.76 124.699 1108.32 124.983 1106.84 124.841C1107.07 123.8 1107.44 122.722 1105.22 122.777C1102.97 122.781 1100.71 122.74 1098.48 122.881C1097.32 122.975 1096.16 122.702 1095.04 122.898C1093.6 123.119 1092.1 123.043 1090.64 123.059C1089.62 123.037 1088.82 123.483 1087.79 123.397C1087.08 123.334 1086.57 123.628 1086 123.779C1085.99 124.087 1085.94 124.397 1086.05 124.706C1086.3 124.982 1086.7 125.232 1086.82 125.543C1085.4 125.557 1083.96 125.498 1082.58 125.692C1082.66 126.008 1082.89 126.309 1083.17 126.597C1082.61 127.084 1082.15 126.974 1083.53 127.571C1082.98 127.602 1082.42 127.61 1081.88 127.584C1082.5 127.848 1083.08 128.138 1083.78 128.361C1083.4 128.49 1083.02 128.612 1082.66 128.738C1083 128.921 1083.37 129.105 1083.73 129.293C1083.46 129.369 1083.2 129.448 1082.95 129.53C1083.55 129.929 1082.83 130.416 1083.35 130.826C1083.16 130.957 1082.97 131.088 1082.8 131.219C1083.1 131.374 1083.41 131.531 1083.74 131.688C1083.47 131.821 1083.2 131.952 1082.96 132.087C1083.23 132.238 1083.52 132.385 1083.82 132.535C1083.53 132.638 1083.22 132.735 1082.96 132.838C1083.16 133.069 1083.57 133.213 1084.03 133.318C1083.65 133.435 1083.27 133.555 1082.92 133.677C1083.13 133.875 1083.36 134.076 1083.58 134.284C1083.19 134.252 1082.83 134.219 1082.47 134.184C1082.76 134.392 1083.03 134.608 1083.32 134.826C1084.11 134.902 1084.9 134.995 1085.68 135.104C1085.58 135.229 1085.5 135.356 1085.43 135.486C1084.91 135.266 1084.26 135.202 1083.62 135.234C1083.52 135.41 1083.44 135.588 1083.38 135.766C1083.38 135.766 1067.73 135.672 1064.63 135.788C1064.98 135.364 1064.63 134.979 1063.98 134.698C1063.74 134.696 1056.43 134.68 1056.1 134.718C1056.23 135.06 1056.39 135.399 1056.55 135.743C1056 135.525 1055.61 135.031 1054.78 135.157C1053.56 135.302 1052.35 135.032 1051.13 135.109C1044.84 135.41 1044.26 134.983 1042.76 135.744C1042.76 135.744 1036.45 135.767 1033.82 135.709C1032.42 135.762 1031.03 135.987 1029.63 135.854C1028.37 135.747 1027.06 135.895 1025.85 135.676C1024.66 135.476 1024.84 135.76 1018.2 135.804C1008.73 135.798 1011.3 135.927 1008.78 135.36C1008.82 135.096 1008.85 134.831 1008.89 134.569C1007.95 134.328 1006.9 134.465 1005.92 134.413C1005.49 134.15 1005.63 133.781 1005.54 133.471C1003.86 133.091 1002.09 133.522 1000.36 133.458C999.115 133.515 997.943 133.319 996.76 133.195C995.651 133.259 994.589 133.457 993.477 133.489C992.561 133.489 991.934 133.886 991.067 133.968C991.079 134.107 991.413 140.137 991.317 140.305C991.479 140.441 991.803 140.567 991.724 140.753C991.137 143.391 991.158 142.714 987.697 142.353C988.051 142.443 988.413 142.528 988.798 142.615C988.356 142.971 987.727 143.65 986.758 143.23C986.426 143.294 986.088 143.357 985.783 143.425C985.437 143.331 985.105 143.241 984.784 143.151C985.263 141.851 984.815 141.701 984.699 137.356C984.167 137.305 983.656 137.176 983.129 137.228C981.476 137.395 979.783 137.317 978.12 137.328C976.991 137.368 976.264 136.884 975.528 136.543C974.488 136.467 973.082 136.325 972.506 136.897C971.304 136.932 970.099 136.881 968.91 136.933C968.592 137.066 968.561 137.284 968.438 137.467C967 137.471 965.561 137.446 964.134 137.496C964.31 137.919 964.705 140.603 964.441 141.228C960.166 140.46 963.394 141.42 958.632 141.495C958.157 141.471 957.559 141.553 957.303 141.303C956.949 139.656 956.239 120.817 955.893 120.009C946.273 119.948 951.349 119.881 947.641 119.646C946.137 119.793 944.633 119.969 943.104 119.991C942.705 119.905 942.733 119.642 942.576 119.478C941.863 119.434 941.157 119.341 940.452 119.413C938.675 119.539 929.892 119.489 929.617 119.5C929.628 119.678 929.642 119.854 929.677 120.035C929.258 120.001 928.829 119.97 928.508 119.834C927.402 119.358 926.043 119.923 924.857 119.991C924.582 119.99 919.021 120.632 916.375 120.574C915.358 121.745 917.759 133.349 917.443 140.353C916.852 140.412 916.276 140.476 915.697 140.516C913.601 138.116 914.619 119.108 912.971 117.295C910.067 117.214 907.16 117.245 904.258 117.235C903.229 117.189 902.403 117.604 901.368 117.525C901.385 117.281 901.401 117.037 901.36 116.796C902.224 116.665 903.161 116.702 904.025 116.54C903.387 114.466 904.199 113.993 903.064 113.359C902.095 113.469 901.104 113.518 900.121 113.493C900.113 113.341 900.119 113.19 900.141 113.04C900.412 113.035 900.695 113.03 900.994 113.028C899.886 112.365 900.035 112.755 900.157 111.603C899.621 111.351 899.347 111.02 899.1 110.686C898.505 110.397 897.953 110.78 897.56 110.979C896.415 111.073 895.534 110.516 894.401 110.567C893.671 110.506 893.102 110.768 892.465 110.879C891.911 110.803 891.469 110.524 890.87 110.598C889.361 110.738 887.879 111.045 886.322 110.954C885.26 110.876 884.557 111.396 883.687 111.606C883.662 112.294 883.596 112.981 883.528 113.668C882.389 113.725 881.296 113.898 880.173 113.973C879.951 114.74 880.253 115.51 880.245 116.281C880.297 116.501 880.121 116.877 880.752 116.917C881.474 116.971 882.223 116.978 882.937 117.1C882.795 117.192 882.663 117.287 882.547 117.381C882.725 117.47 882.921 117.56 883.129 117.653C882.841 117.794 882.602 117.956 882.276 118.064C881.661 118.047 881.12 117.887 880.533 117.844C879.374 117.737 878.172 117.74 877.077 117.517C876.539 117.363 875.979 117.555 875.449 117.583C874.793 117.596 874.156 117.564 873.519 117.575C874.151 117.653 875.021 117.518 875.474 117.823C872.556 117.693 869.668 117.996 866.759 118.015C865.743 118.005 864.791 118.163 863.885 118.365C863.964 118.117 864.217 117.904 864.604 117.743C863.649 117.94 862.608 117.981 861.615 118.082C861.582 118.21 861.565 118.339 861.557 118.468C861.057 118.405 860.563 118.335 860.091 118.264C859.237 118.854 857.722 118.682 856.531 118.922C856.569 119.383 856.863 119.86 856.591 120.316C856.083 120.564 855.416 120.699 854.809 120.861C854.826 121.309 855.408 121.864 854.579 122.214C853.849 122.512 852.901 122.689 851.957 122.642C851.946 122.103 852.095 121.506 851.315 121.075C851.48 120.897 851.658 120.723 851.85 120.548C851.474 120.365 851.087 120.193 850.705 120.027C850.848 119.909 851.007 119.794 851.177 119.681C850.977 119.517 850.787 119.355 850.611 119.193C851.237 118.716 850.521 118.16 850.979 117.655C849.914 117.076 848.325 117.274 846.955 117.348C846.938 117.08 846.944 116.814 846.971 116.551C845.572 115.94 843.6 116.263 842.02 116.475C841.841 116.276 841.685 116.076 841.539 115.879C840.312 115.911 839.083 115.979 837.875 115.85C837.096 99.0394 836.446 100.028 837.323 99.2484C835.932 99.0011 821.771 97.4758 820.299 97.5623C818.173 99.8291 816.677 105.134 816.074 105.767C812.784 123.741 819.575 118.166 809.028 119.885C809.028 120.422 809.017 120.961 809.001 121.5C808.029 121.611 807.043 121.684 806.121 121.866C806.168 122.074 806.516 131.904 806.524 131.938C805.778 131.931 805.042 131.893 804.339 131.787C804.513 131.611 804.716 131.441 804.916 131.27C804.639 131.122 804.361 130.983 804.147 130.82C804.23 130.628 804.65 130.541 804.911 130.406C804.6 130.223 804.299 130.04 804.016 129.854C804.205 129.703 804.414 129.555 804.636 129.408C804.334 129.226 804.041 129.045 803.766 128.862C804.041 128.729 804.334 128.602 804.636 128.475C804.326 128.295 804.035 128.114 803.76 127.931C803.96 127.783 804.183 127.637 804.411 127.492C804.181 127.344 803.955 127.198 803.752 127.054C803.925 126.873 804.125 126.697 804.334 126.522C804.142 126.381 803.933 126.246 803.818 126.092C803.862 125.872 804.2 125.714 804.425 125.536C804.098 125.387 803.771 125.242 803.467 125.096C803.747 124.952 804.043 124.812 804.356 124.675C804.074 124.499 803.791 124.327 803.521 124.156C803.752 123.991 804.005 123.83 804.254 123.667C803.983 123.507 803.714 123.348 803.466 123.19C803.713 123.033 803.98 122.882 804.251 122.732C803.974 122.574 803.694 122.419 803.436 122.263C803.659 122.111 803.897 121.961 804.141 121.812C803.828 121.627 803.524 121.444 803.233 121.262C803.521 121.119 803.823 120.979 804.134 120.839C803.81 120.698 803.494 120.559 803.192 120.419C803.373 120.229 803.579 120.045 803.793 119.862C803.672 119.686 803.563 119.512 803.469 119.339C803.601 119.206 803.758 119.077 803.914 118.947C803.67 118.764 803.442 118.578 803.242 118.39C803.478 118.257 803.744 118.128 803.999 117.995C803.717 117.827 803.436 117.66 803.184 117.492C803.521 117.418 803.878 117.349 804.246 117.281C803.963 116.964 803.499 116.71 802.948 116.515C803.242 116.385 803.551 116.26 803.873 116.137C803.554 115.948 803.241 115.764 802.942 115.578C803.225 115.445 803.527 115.316 803.834 115.188C802.959 114.304 803.309 115.211 803.768 113.632C803.472 113.672 803.186 113.714 802.912 113.757C803.529 113.395 804.065 112.943 805.1 112.881C805.174 112.794 805.262 112.708 805.363 112.623C804.438 112.559 803.837 112.216 803.329 111.86C803.507 111.719 803.765 111.592 803.859 111.424C803.705 111.196 803.172 111.093 803.057 110.867C803.277 110.712 803.557 110.582 803.84 110.448C803.573 110.307 803.288 110.177 803.093 110.017C803.049 109.765 803.675 109.727 803.977 109.584C803.615 109.333 803.129 109.145 802.673 108.951C803.052 108.815 803.45 108.682 803.84 108.542C803.508 108.389 803.183 108.239 802.876 108.086C803.128 107.91 803.519 107.765 803.604 107.536C803.387 107.345 803.044 107.208 802.761 107.055C803.008 106.868 803.293 106.696 803.615 106.534C803.315 106.343 802.999 106.163 802.684 105.99C802.939 105.818 803.211 105.65 803.491 105.483C803.222 105.329 802.895 105.197 802.739 105.013C802.681 104.754 803.043 104.536 803.23 104.307C802.533 104.232 801.827 104.189 801.133 104.154C801.267 103.423 800.765 102.609 801.613 101.954C798.381 101.588 799.284 101.299 797.106 101.471C796.444 101.861 795.379 101.699 794.501 101.723C794.265 101.333 794.232 100.925 794.062 100.533C793.227 100.203 792.134 100.538 791.22 100.577C790.358 100.454 789.732 100.1 788.928 99.9271C788.377 99.9133 787.85 99.9936 787.331 100.048C786.617 100.046 786.578 100.509 785.988 100.617C785.714 100.679 782.479 101.939 779.345 101.469C775.955 101.436 772.466 101.293 769.211 101.863C769.217 102.271 769.222 102.682 769.225 103.092C769.736 103.114 770.329 103.048 770.779 103.233C767.487 103.383 766.844 102.677 765.704 103.69C765.857 104.457 766.027 105.332 765.042 105.986C764.727 106.192 764.556 106.501 763.996 106.556C763.384 106.655 762.725 106.804 762.481 107.124C762.591 107.958 762.715 108.805 762.487 109.638C762.16 109.868 761.734 110.058 761.416 110.287C761.603 110.436 761.817 110.585 762.04 110.735C761.372 111.234 761.452 111.836 761.452 112.411C761.867 112.497 762.286 112.584 762.715 112.683C762.347 112.797 761.987 112.907 761.638 113.024C761.611 113.593 761.488 114.168 761.734 114.733C759.763 114.8 757.779 114.857 755.813 114.756C755.892 113.987 756.038 111.074 754.916 110.357C754.446 109.499 754.82 108.589 754.633 107.713C754.293 107.359 753.469 107.266 752.781 107.219C752.512 106.86 752.561 106.475 752.662 106.103C752.846 105.476 752.473 104.858 752.435 104.233C751.817 104.15 751.197 104.081 750.582 104.03C750.54 103.035 750.664 102.036 750.227 101.058C749.664 100.976 749.107 100.897 748.558 100.821C748.569 100.617 748.589 100.413 748.625 100.211C747.628 100.023 746.596 99.8067 745.517 99.8744C743.392 99.9792 739.006 99.7579 737.238 100.394C736.964 100.634 736.788 100.9 736.478 101.128C735.443 101.48 734.343 101.01 733.313 100.894C733.379 100.701 733.456 100.51 733.541 100.32C732.078 100.006 730.411 100.144 728.866 100.049C727.95 99.9602 727.074 100.15 726.181 100.171C725.177 99.8215 723.964 99.6638 723.027 99.2661C723.156 99.1983 723.411 99.061 723.54 98.9932C723.252 98.8408 722.967 98.6898 722.693 98.5415C722.855 97.9416 722.52 97.3431 722.55 96.7418C722.588 96.4815 722.21 96.2141 721.683 96.2086C721.005 96.1671 720.414 96.0076 719.832 95.8525C719.791 95.2195 719.838 94.5848 719.805 93.953C719.598 92.4802 718.009 92.9879 717.631 93.0054C716.997 93.1258 716.338 93.065 715.707 92.9983C713.939 92.8002 712.097 92.8237 710.31 92.9152C709.33 93.2532 708.125 93.058 707.049 93.1854C706.678 93.579 706.511 94.0291 705.63 94.2134C705.474 94.1123 705.334 94.0112 705.21 93.9087C704.842 92.0869 705.032 90.2525 705.004 88.4239C702.561 87.9519 696.228 88.0798 693.843 87.5484C691.271 86.9872 688.145 87.1689 685.795 87.8961C681.942 89.9757 682.75 90.43 682.446 91.8611C682.13 92.2422 681.674 92.5886 681.298 92.9543C682.051 92.9597 682.83 93.0111 683.341 93.3257C681.389 93.8647 679.336 94.3786 677.14 94.5864C676.424 95.4689 674.853 96.048 673.338 96.5607C673.728 96.8378 673.396 97.1357 673.179 97.4114C672.831 97.2201 672.542 97.0111 672.303 96.7908C671.041 96.8698 669.781 96.9696 668.51 96.9295C667.65 96.8852 667.294 97.4185 666.498 97.4852C665.77 97.5587 665.139 97.7581 664.505 97.9369C663.525 97.9854 662.674 97.6473 661.743 97.549C661.669 97.7985 661.603 98.0492 661.543 98.3012C659.857 97.9632 658.724 97.1901 657.165 96.7481C656.748 96.6762 656.314 96.7523 655.91 96.7577C655.574 99.3719 656.365 103.257 656.02 105.018C655.831 105.154 655.474 105.131 655.211 105.165C655.057 104.98 654.92 104.8 654.78 104.62C653.693 104.874 652.589 105.108 651.513 105.367C651.321 105.992 651.475 106.619 651.64 107.24C650.984 107.848 651.289 108.549 651.469 109.199C650.011 109.544 648.359 109.543 646.833 109.767C646.498 109.313 646.1 108.868 645.905 108.393C646.688 108.376 647.478 108.372 648.274 108.354C648.054 107.941 646.995 108.017 646.35 107.913C646.147 107.747 645.952 107.586 645.76 107.427C646.083 107.269 646.416 107.111 646.753 106.953C646.495 106.785 646.24 106.619 645.995 106.454C646.476 106.178 646.495 105.825 646.325 105.486C647.096 105.477 647.881 105.459 648.633 105.335C648.137 104.927 647.025 105.002 646.237 104.85C647.013 103.91 647.028 104.243 646.223 103.497C646.569 103.362 646.922 103.229 647.28 103.095C647.315 102.741 647.365 102.37 647 102.054C646.111 101.698 645.43 101.184 644.26 101.058C643.516 99.2476 643.545 102.022 644.013 97.4891C643.113 97.3408 642.24 97.1677 641.373 96.9861C639.029 97.7674 638.766 97.1307 635.836 97.3947C633.228 97.126 633.889 97.4542 626.448 97.3835C626.342 97.3142 626.24 97.2506 626.146 97.1896C624.985 97.2548 623.818 97.2741 622.658 97.2602C622.797 96.1963 622.262 95.0782 623.061 94.0599C623.536 93.4615 622.567 92.9087 622.641 92.31C622.75 89.3327 622.318 90.0057 622.089 85.6543C620.374 85.6431 618.661 85.6556 616.951 85.653C616.986 85.5837 617.052 85.4437 617.088 85.3747C616.481 85.3705 615.88 85.3676 615.29 85.3663C615.12 85.1987 614.969 85.0324 614.826 84.8662C614.692 84.8523 614.42 84.8247 614.286 84.8106C614.747 84.5779 614.782 84.2633 614.198 84.0723C613.838 84.2537 613.594 84.5599 613.009 84.5474C611.999 84.7041 610.926 84.3519 610.014 84.7025C609.857 84.5388 609.308 75.8088 609.432 74.7508C609.235 74.6526 609.048 74.5553 608.875 74.4584C608.51 74.5428 608.151 74.6273 607.802 74.7104C607.52 73.9152 607.904 73.0963 607.514 72.3136C605.582 72.2568 607.076 73.4951 606.616 75.1994C606.441 75.845 606.896 76.4755 606.85 77.1211C607.153 79.9349 606.837 79.2789 607.004 83.9568C606.647 83.9777 606.304 83.9998 605.969 84.022C605.859 84.2451 605.787 84.4736 605.604 84.6842C604.92 84.7424 605.118 84.3087 604.951 84.1038C601.851 84.3814 603.685 84.8782 600.103 84.0746C599.537 84.439 599.206 84.8643 599.085 85.3215C597.402 86.1852 596.092 84.8078 592.343 85.6525C592.645 85.7453 592.966 85.8381 593.293 85.9309C592.905 86.1733 592.549 86.4269 592.296 86.7081C592.016 86.7373 591.747 86.7678 591.489 86.7983C590.967 88.0631 592.599 87.287 591.374 88.3277C591.549 88.8437 591.588 92.1729 591.701 92.5602C592.399 94.4936 591.104 96.4583 592.658 96.8495C591.953 97.4771 592.233 98.271 592.609 98.9359C589.749 99.2124 592.385 98.6766 588.659 99.8114C588.604 99.9831 588.56 100.156 588.525 100.33C574.682 100.475 582.171 100.21 576.381 100.154C576.117 99.9623 575.865 99.7671 575.621 99.5758C575.19 99.8127 574.759 100.069 574.108 100.137C573.636 101.502 574.407 102.868 574.166 104.235C574.086 104.774 573.623 105.298 573.872 105.845C573.628 105.977 573.394 106.113 573.178 106.251C573.463 106.456 573.746 106.671 573.99 106.897C573.655 106.996 573.334 107.1 573.026 107.21C573.394 107.36 573.781 107.512 574.157 107.671C573.861 107.843 573.573 108.013 573.29 108.185C573.545 108.347 573.805 108.515 574.055 108.686C573.358 108.747 572.622 108.792 572.057 109.017C570.6 109.442 572.353 112.97 571.052 115.775C570.27 115.838 569.482 115.871 568.708 115.921C568.726 116.541 569.362 127.454 569.114 128.57C568.799 128.654 568.497 128.739 568.2 128.823C568.156 129.053 568.096 129.283 568.022 129.512C567.1 129.437 566.169 129.426 565.247 129.411C564.898 128.316 564.845 121.536 564.827 121.398C564.031 121.274 563.205 121.236 562.384 121.227C562.107 121.032 561.805 120.853 561.481 120.687C562.121 120.305 561.7 119.87 561.525 119.45C561.525 119.45 561.01 116.367 561.517 115.023C560.888 114.767 560.229 114.391 559.342 114.508C558.547 114.588 557.813 114.376 557.051 114.335C556.562 114.383 556.137 114.529 555.653 114.552C544.49 114.679 552.251 115.122 546.592 114.479C546.784 114.393 546.984 114.309 547.199 114.225C546.419 113.801 546.705 113.192 546.619 112.668L546.279 96.665C546.26 96.1247 545.829 95.6065 545.969 95.062C545.681 94.5551 546.155 94.0549 545.87 93.5464C545.982 93.2084 546.043 92.8675 545.576 92.5878C545.741 92.5766 546.068 92.5573 546.229 92.5464C545.633 91.5142 546.186 90.4391 545.796 89.3973C545.598 88.7627 546.279 88.0272 545.326 87.4952C545.565 87.4246 545.812 87.3539 546.067 87.2846C545.831 87.1433 545.604 87.0047 545.378 86.8676C546.359 86.1514 545.203 85.3048 545.763 84.5511C544.855 83.8215 545.394 83.9834 545.829 83.5424C545.576 83.4358 545.332 83.3318 545.093 83.2307C545.205 83.0409 545.321 82.8509 545.439 82.6627C545.115 82.6294 544.799 82.5976 544.494 82.5686C544.244 82.3054 544 82.0435 543.778 81.7776C544.539 81.5863 545.305 81.3966 546.056 81.1914C546.059 81.1028 546.062 80.9253 546.065 80.8367C543.932 80.5985 541.744 80.6678 539.584 80.6303C539.093 80.4794 538.53 80.2729 537.97 80.4653C536.837 80.7921 535.508 80.604 534.286 80.6897C532.913 80.8547 531.544 80.5774 530.163 80.673C530.322 80.8185 530.495 80.9613 530.679 81.1052C529.636 81.0215 529.247 80.7121 527.149 81.3199C526.828 81.5 526.567 81.7036 526.289 81.8991C527.434 82.1347 528.656 82.143 529.861 82.039C529.853 82.2082 529.85 82.3771 529.858 82.5488C528.818 82.5447 528.343 83.024 527.734 83.362C528.173 83.4008 528.626 83.4259 529.09 83.448C528.697 83.5909 528.318 83.7363 527.951 83.8872C527.876 84.4525 527.984 85.0259 527.761 85.5858C527.975 85.6676 528.2 85.7521 528.428 85.8378C528.195 86.1329 527.926 86.4198 527.638 86.7023C527.978 86.7537 528.324 86.809 528.681 86.8686C528.376 86.9726 528.08 87.0779 527.792 87.1845C527.989 87.2455 528.201 87.3065 528.42 87.3688C528.113 87.4783 527.965 87.643 527.855 87.815C528.102 87.8413 528.596 87.8969 528.843 87.9245C528.538 88.1296 528.228 88.3303 527.932 88.5354C528.22 88.7405 528.522 88.9412 528.843 89.1409C528.544 89.3264 528.239 89.5081 527.923 89.684C528.187 89.8433 528.461 90.0041 528.736 90.1662C528.437 90.32 528.135 90.4683 527.901 90.6442C528.03 90.9919 528.906 90.841 529.411 90.9283C529.117 91.312 527.934 91.2677 527.852 91.7194C528.461 91.7402 529.079 91.754 529.705 91.7832C529.164 91.9993 528.566 92.171 528.014 92.3733C527.679 92.6822 528.591 92.8401 528.923 93.0259C528.772 93.2475 528.484 93.4237 528.127 93.5662C528.267 93.6147 528.544 93.7117 528.684 93.7602C528.494 93.9749 528.289 94.1855 528.033 94.3823C528.634 94.8131 527.945 95.3672 528.58 95.79C528.47 95.9451 528.253 96.0962 528.308 96.268C528.486 96.4288 528.901 96.5325 528.961 96.7252C528.807 96.8928 528.582 97.0382 528.385 97.1894C528.514 97.3528 528.646 97.5149 528.786 97.6812C528.604 97.8295 528.437 97.9804 528.278 98.1316C528.462 98.2757 528.66 98.4211 528.863 98.5666C528.684 98.7383 528.519 98.9117 528.368 99.0889C528.775 99.4298 528.667 99.8163 528.475 100.183C528.648 100.289 528.835 100.395 529.03 100.503C528.786 100.652 528.55 100.8 528.322 100.951C528.512 101.15 528.714 101.349 528.926 101.548C528.718 101.65 528.52 101.754 528.33 101.86C528.621 102.21 528.638 102.587 528.468 102.957C528.852 103.028 529.231 103.097 529.632 103.173C529.261 103.402 528.844 103.608 528.435 103.814C528.816 103.957 529.209 104.1 529.601 104.248C529.267 104.391 528.929 104.528 528.596 104.668C528.615 104.739 528.654 104.882 528.673 104.952C529.057 105.001 529.45 105.046 529.856 105.096C529.477 105.315 528.462 105.459 528.799 105.813C529.131 105.91 529.746 105.867 529.84 106.113C529.475 106.275 529.08 106.416 528.701 106.565C528.975 106.702 529.263 106.842 529.554 106.982C528.947 107.334 529.359 107.778 529.203 108.186C528.997 108.575 529.458 108.953 529.258 109.347C529.365 109.861 528.83 110.427 529.557 110.87C529.312 111.024 529.079 111.178 528.851 111.335C529.508 111.666 529.953 111.455 528.881 112.348C529.104 112.486 529.334 112.627 529.568 112.77C529.381 112.907 528.983 113.03 529.115 113.223C529.255 113.907 529.54 114.61 529.219 115.29C529.404 118.258 529.236 119.599 529.236 119.599C528.629 119.586 527.97 119.628 527.484 119.417C526.831 119.151 525.961 119.032 525.481 118.673C525.769 118.545 526.071 118.42 526.378 118.294C526.024 118.093 525.513 117.974 525.214 117.76C525.011 117.432 525.047 117.087 525.066 116.75C524.682 116.655 524.3 116.566 523.921 116.484C523.963 116.17 523.888 115.855 523.833 115.545C524.185 115.504 524.566 115.467 524.934 115.425C524.575 115.395 524.223 115.368 523.883 115.343C523.87 114.931 523.88 113.901 523.147 113.853C521.645 113.675 520.177 113.42 518.623 113.387C518.484 112.613 517.748 93.6509 517.748 93.6509C517.827 93.0913 517.877 92.4997 517.33 91.9912C516.644 91.8056 515.746 91.9177 515.013 91.7639C515.238 91.5382 515.461 91.3096 515.666 91.0766C516.605 90.9437 517.591 90.866 518.447 90.6111C517.378 89.9908 512.71 90.4967 510.001 89.8589C508.486 89.6734 503.003 90.0797 500.478 90.6833C500.484 90.7652 500.492 90.9286 500.498 91.0102C501.324 91.1306 502.284 91.2513 502.641 91.7001C501.938 91.8288 501.093 91.9177 500.657 92.2474C500.909 92.275 501.414 92.3293 501.667 92.3556C501.247 92.5427 500.805 92.7129 500.365 92.8821C500.582 93.1052 500.956 93.2673 501.361 93.4099C500.966 93.4099 500.579 93.4127 500.201 93.4153C500.723 93.9741 500.863 95.9099 500.829 96.1085C501.06 96.1888 501.299 96.2706 501.545 96.3538C501.178 96.4966 500.809 96.6405 500.458 96.7859C500.669 97.1169 501.145 97.3596 501.776 97.4995C501.4 97.652 501.024 97.8058 500.673 97.9663C500.925 98.1381 501.202 98.3085 501.485 98.4774C501.312 98.6257 501.153 98.7753 501.01 98.9291C501.204 99.1189 501.402 99.3128 501.606 99.5082C501.378 99.655 501.164 99.8033 500.955 99.9529C501.353 100.051 501.754 100.158 502.152 100.267C501.735 100.445 501.318 100.622 500.955 100.824C501.15 100.854 501.545 100.913 501.74 100.944C501.46 101.423 501.389 101.92 501.421 102.419C501.251 102.752 501.095 103.096 501.545 103.397C501.355 103.564 501.169 103.73 501.002 103.902C501.457 104.04 501.926 104.176 502.435 104.28C502.067 104.35 501.704 104.421 501.358 104.501C501.636 104.932 501.699 105.414 501.026 105.765C501.271 105.93 501.529 106.095 501.798 106.26C501.424 106.453 501.059 106.652 500.7 106.848C500.928 107.017 501.175 107.188 501.447 107.348C501.348 107.4 501.145 107.504 501.043 107.555C501.644 109.082 501.233 116.198 501.258 116.768C499.737 116.753 498.214 116.767 496.715 116.886C496.644 117.365 496.646 117.849 496.786 118.325C496.462 118.339 496.146 118.355 495.839 118.371C495.985 118.71 496.083 119.056 496.108 119.406C495.633 119.431 495.167 119.456 494.711 119.482C494.881 120.266 494.211 121.016 494.373 121.8C494.727 122.353 494.162 122.936 494.752 123.471C494.151 123.564 493.267 123.759 492.841 123.428C492.454 121.954 492.983 119.036 492.77 115.063C492.345 114.851 491.702 114.82 491.184 114.702C491.159 114.234 491.161 113.764 491.118 113.298C489.819 113.998 490.561 114.191 490.835 114.759C488.718 115.02 481.27 114.757 470.31 114.896C467.693 114.816 469.427 118.39 468.787 122.029C467.711 122.217 466.58 122.285 465.49 122.433C465.724 122.634 465.976 122.836 466.215 123.044C465.677 123.093 465.15 123.18 464.606 123.155C463.357 123.041 462.215 123.436 460.972 123.41C459.275 123.379 457.582 123.343 455.891 123.31C456.171 120.581 455.464 113.814 455.72 112.437C455.591 112.376 455.333 112.253 455.205 112.192C455.185 112.528 455.182 112.866 455.172 113.204C455.045 113.207 454.79 113.212 454.664 113.214C454.477 109.297 455.103 110.738 453.857 109.317C454.472 109.444 455.1 109.568 455.753 109.655C455.276 109.226 454.513 109.297 455.194 107.415C454.837 107.391 454.491 107.37 454.151 107.354C453.854 106.666 453.799 105.967 453.777 105.267C451.529 104.893 453.196 104.744 448.06 104.626V104.903C449.138 104.931 450.417 104.775 451.252 105.223C449.02 105.38 446.739 105.218 444.535 105.446C444.233 105.352 444.016 105.143 443.635 105.169C440.868 105.201 441.653 105.339 441.543 107.254C441.228 107.477 440.583 107.497 440.132 107.618C439.948 108.232 439.583 108.913 440.316 109.475C439.989 109.483 439.674 109.493 439.366 109.504C438.414 110.065 438.683 110.834 438.741 111.513C439.018 111.613 439.312 111.714 439.608 111.815C439.108 112.018 438.889 112.318 438.691 112.613C438.999 112.722 439.32 112.831 439.644 112.942C439.339 113.096 439.039 113.248 438.746 113.402C438.663 115.522 439.038 122.788 438.991 125.824C434.978 125.85 430.961 125.799 426.951 125.846C426.896 129.441 427.16 133.032 427.16 136.629C426.342 136.632 425.537 136.564 424.727 136.546C423.745 136.587 422.762 136.636 421.779 136.626C421.052 136.213 421.329 135.692 421.447 135.204C421.408 135.066 420.085 111.725 420.953 110.476C421.461 109.776 420.478 109.09 420.609 108.378C420.519 107.935 420.868 107.412 420.247 107.041C419.775 106.75 419.272 106.473 418.855 106.164C418.699 106.161 418.388 106.154 418.232 106.151C418.119 106.808 417.881 107.461 417.581 108.104C416.879 108.095 416.184 108.092 415.492 108.091C415.262 107.932 415.04 107.772 414.823 107.616C414.65 107.634 414.299 107.671 414.125 107.691C414.073 107.795 413.969 108.002 413.917 108.108C412.876 107.994 411.822 108.002 410.787 108.109C410.618 107.939 410.466 107.77 410.326 107.599C409.821 107.624 409.319 107.652 408.83 107.684C408.303 107.355 408.391 106.94 408.649 106.57C408.383 106.567 408.128 106.566 407.878 106.566C407.976 106.847 408.163 107.158 407.724 107.395C406.198 108.3 406.762 107.968 403.123 108.11C402.764 107.89 402.363 107.681 401.789 107.636C401.731 107.76 401.616 108.008 401.559 108.132C400.941 108.073 400.381 107.93 399.785 107.851C399.275 107.961 398.817 108.119 398.347 108.263C398.244 108.622 398.441 115.051 398.452 115.191C397.587 115.216 396.766 114.845 395.94 115.046C394.713 115.294 393.269 115.32 392.067 115.032C390.696 115.391 388.147 115.442 387.019 115.029C386.569 115.191 386.044 115.298 385.49 115.262C384.411 115.216 383.176 115.352 382.273 114.985C381.984 115.097 381.718 115.254 381.325 115.237C380.269 115.256 379.206 115.298 378.158 115.236C377.826 115.139 377.568 114.997 377.293 114.875C377.23 114.967 377.103 115.151 377.043 115.243C375.127 115.299 373.211 115.29 371.298 115.287C371.141 115.051 371.221 114.705 370.666 114.608C368.891 115.573 370.339 119.559 370.043 123.44C369.346 123.45 368.651 123.455 367.962 123.437C367.732 123.543 367.509 123.651 367.293 123.759C366.59 123.748 365.89 123.742 365.198 123.734C364.879 122.555 365.035 105.017 364.443 103.107C364.589 102.469 364.493 101.826 364.591 101.185C358.323 101.085 351.113 101.32 349.546 101.011C348.552 100.878 347.589 100.669 346.568 100.617C346.194 100.75 346.348 100.977 346.362 101.17C344.857 101.169 343.35 101.155 341.849 101.181C341.816 101.539 341.811 101.898 341.805 102.258C341.923 102.313 342.159 102.423 342.277 102.478C340.622 102.954 341.787 104.243 340.792 105.748C340.954 106.171 341.574 132.837 341.173 133.448C341.313 134.364 341.363 135.284 341.236 136.202C321.404 136.341 329.264 135.779 322.652 137.088C322.611 137.305 322.578 137.524 322.554 137.746C321.36 137.851 320.1 137.714 318.966 137.966C317.928 138.076 316.855 138.04 315.806 138.055C315.708 137.8 315.864 137.496 315.554 137.28C315.114 137.178 314.621 137.171 314.162 137.124C313.884 134.346 314.58 129.932 313.536 125.726C313.335 125.556 309.538 122.485 308.971 122.665C307.505 123.483 306.553 124.505 305.103 125.323C303.736 119.545 298.935 66.4117 299.342 62.8251C301.469 62.7821 303.693 62.7115 305.62 62.2113C307.197 61.285 306.681 60.5516 304.906 59.7355C305.551 59.3268 306.366 58.9984 307.097 58.6286C306.688 57.5991 307.52 56.6032 307.695 55.5875C307.415 55.4751 307.059 54.0067 306.081 53.6866C305.491 53.4635 304.83 53.2988 304.218 53.0991C303.773 52.7071 304.223 52.1348 303.367 51.8593C302.647 51.4311 301.459 51.6169 300.504 51.5142C298.498 50.8629 299.345 49.6814 299.194 47.7694C297.107 47.7269 297.644 47.3808 297.635 37.2983C297.533 29.9319 296.923 32.74 298.962 29.9134C299.021 29.8323 297.474 28.8317 297.281 28.7473C295.988 28.0696 296.861 28.7546 296.713 25.5135C296.926 24.7017 296.569 23.8939 296.503 23.0839C296.439 22.2986 296.575 21.5073 296.574 20.7199L295.914 13.8227C295.379 11.5489 294.94 15.0682 294.839 7.22019C294.761 1.1919 295.227 -0.129788 293.301 0.00965328C292.981 1.27974 293.438 11.3643 293.452 11.5038C292.475 13.003 292.143 12.4634 292.244 15.2734C292.254 15.527 291.012 22.4099 291.847 24.3065C292.013 24.7431 291.824 27.9925 291.762 28.4337C291.473 29.028 289.799 29.2691 290.043 29.9551C289.897 30.6228 291.232 31.087 291.119 31.7519C291.108 33.5073 290.659 46.6054 291.24 47.6914C287.271 48.2638 290.607 49.4067 289.867 51.5194C288.503 51.6677 287.109 51.7702 285.78 51.9821C284.646 52.3866 285.248 53.1985 284.699 53.7513C284.01 54.1365 282.972 54.2749 282.192 54.5965C281.756 55.4251 281.74 56.306 282.072 57.1471C282.31 57.7429 281.934 58.4396 282.744 58.9523C283.035 59.2004 283.699 59.4011 283.512 59.7308C282.827 60.7921 281.64 61.7195 286.518 62.8204C287.592 62.8952 288.687 62.8619 289.774 62.9187C289.952 63.8799 289.834 69.6324 289.884 78.5838C289.933 79.2862 289.335 79.9511 289.458 80.6563C289.784 85.8456 288.219 91.1431 288.923 95.7619C289.085 96.9605 288.246 96.7705 288.223 98.8113C288.316 108.561 287.557 99.2401 287.682 108.925C287.649 112.084 287.028 107.874 287.139 115.991C287.216 116.789 286.423 117.544 286.647 118.345C286.875 119.222 286.422 120.1 286.656 120.977C286.787 121.437 286.7 121.908 286.373 122.345C285.688 123.212 286.21 125.556 285.983 127.083C284.963 129.666 285.83 128.873 285.61 131.517C285.563 132.13 284.844 132.68 284.921 133.302C284.781 134.814 285.843 135.897 281.273 135.499C280.736 132.772 281.575 123.937 281.048 122.826C280.773 122.426 279.881 122.211 279.631 121.811C279.541 121.334 279.598 120.857 279.606 120.38C279.043 120.3 278.486 120.218 277.937 120.132C277.784 118.057 278.756 116.591 274.852 116.716C273.09 116.768 270.151 116.365 269.946 118.115C267.473 118.13 264.986 118.048 262.527 118.15C261.267 118.454 261.454 119.178 261.456 119.765C260.372 119.765 259.288 119.77 258.209 119.782C258.045 123.517 258.517 123.663 258.316 125.388C257.597 125.363 256.883 125.317 256.169 125.344C255.652 122.021 256.519 124.619 255.702 121.218C253.74 120.556 251.288 121.131 249.202 120.677C248.365 120.702 247.552 120.972 246.674 120.847C246.363 119.902 246.877 114.263 246.471 113.161C242.764 112.863 248.389 112.514 235.673 112.566C235.427 118.156 235.815 116.462 233.628 117.094C232.541 117.226 232.299 117.86 232.371 118.345C232.392 118.595 232.565 122.924 232.116 123.793C228.177 124.394 228.096 122.8 225.539 126.049C224.095 126.268 222.371 125.896 221.147 126.426C219.714 126.913 217.88 126.619 216.283 126.593C216.22 125.978 216.617 125.289 215.907 124.742C215.363 124.818 214.83 124.902 214.292 124.98C214.246 124.539 214.152 124.103 214.084 123.666C207.896 122.825 203.625 123.576 202.033 123.69C202.028 123.987 202.017 124.284 202.003 124.584C201.275 124.526 200.551 124.488 199.82 124.48C199.834 126.103 199.875 127.727 199.807 129.351C169.727 129.272 168.802 129.467 168.138 129.251C167.599 128.811 167.419 128.688 167.613 123.604C167.63 123.038 168.821 122.543 168.225 121.976C167.918 121.594 168.267 121.18 168 120.793C166.554 120.81 165.107 120.794 163.663 120.797C162.447 120.778 161.335 121.102 160.122 121.083C158.093 121.083 156.065 121.06 154.039 121.091C155.558 121.229 160.927 121.087 162.609 121.031C160.814 121.301 158.925 121.106 157.092 121.166C155.631 121.17 154.105 121.275 152.716 120.998C153.056 120.95 153.408 120.912 153.759 120.873C152.002 120.765 150.232 120.802 148.47 120.804C148.313 120.922 148.165 121.042 148.017 121.164C148.448 122.408 148.165 123.686 148.206 124.944C147.067 124.622 145.761 124.779 144.567 124.909C143.738 125.045 143.09 125.361 142.453 125.648C141.536 126.047 141.917 126.755 141.157 127.208C140.551 127.615 140.378 128.164 139.639 128.521C137.34 128.639 131.505 128.66 130.325 128.557C129.78 127.188 129.63 127.373 126.48 126.885C124.829 125.127 124.921 125.016 124.113 124.816C116.741 124.162 116.994 124.025 115.596 124.82C115.168 125.526 115.925 126.221 115.848 126.932C115.821 128.766 115.87 130.6 115.823 132.436C115.34 132.433 114.86 132.431 114.388 132.428C114.352 132.154 114.33 131.883 114.306 131.613C97.442 131.588 106.757 131.797 95.6646 131.606C95.7084 130.793 95.7988 129.974 95.5411 129.168C95.3516 128.561 95.618 127.95 95.4946 127.345C95.113 126.821 94.5533 126.332 94.3116 125.785C92.0879 125.772 89.8617 125.825 87.6437 125.768C86.3259 125.526 85.4805 124.862 84.9946 124.226C80.9749 123.721 80.192 124.485 78.8648 124.535C77.9756 124.363 78.0933 123.787 77.9095 123.4C77.4344 123.355 76.965 123.309 76.4955 123.266C75.705 122.209 75.944 121.078 75.9053 119.975C74.7826 119.96 73.6543 120 72.5399 119.942C71.7906 119.702 71.3459 119.296 70.6679 119.018C68.6916 118.687 66.6079 119.041 64.5851 118.918C62.9079 118.81 61.2306 118.928 59.5564 118.953C59.2708 119.343 58.7906 119.684 58.4254 120.054C58.0139 121.187 58.4585 122.334 58.2194 123.472C57.9767 125.795 59.8962 127.666 54.3268 127.148C54.4414 123.667 55.5491 125.042 39.1552 124.669C38.9662 123.423 39.775 120.406 37.5467 119.838C36.2536 119.737 34.9388 119.797 33.6463 119.701C33.5476 119.331 33.4485 118.964 33.3524 118.595C32.0294 118.412 30.8215 118.11 29.7809 117.661C17.869 115.485 21.6992 117.983 20.6865 119.286C20.2197 119.726 19.1523 119.717 18.3095 119.799C17.5411 120.934 17.4285 122.147 17.6975 123.333C17.9361 124.102 16.9591 124.784 17.0087 125.543C17.098 135.027 17.3092 134.996 16.1029 135.162C14.9363 135.328 13.6737 135.4 12.4932 135.227C11.6835 135.076 11.055 135.516 10.2505 135.484C4.38512 135.54 2.44551 135.149 2.22707 136.481C2.03496 138.382 2.6469 140.294 2.16922 142.189C0.953094 141.983 0.0581818 141.311 0.162491 140.664C0.113953 131.248 1.06464 113.692 0.738785 112.514C0.686615 112.049 0.241989 111.617 0.280212 111.148C0.285889 110.613 0.0633087 110.09 -0.112259 109.566C-1.79781 109.235 -3.64758 109.58 -5.38838 109.401C-6.46716 109.108 -6.52191 108.448 -6.7171 107.912C-7.81808 107.747 -8.96243 107.775 -10.0934 107.776C-11.4438 107.804 -12.6434 107.2 -13.9938 107.502C-14.1528 107.858 -14.2685 108.229 -14.614 108.556C-15.1082 108.818 -15.8327 108.915 -16.4529 109.076C-17.8911 109.386 -18.9921 110.011 -20.5459 110.195C-22.3446 110.633 -22.1313 109.899 -22.3771 112.361C-22.8362 115.715 -21.8669 114.903 -22.248 118.663C-22.311 118.85 -21.9815 118.972 -21.7812 119.109C-22.3699 119.544 -22.3229 119.676 -22.2888 122.118C-22.311 122.314 -22.0389 122.47 -21.8855 122.641C-22.0502 122.779 -22.2124 122.918 -22.374 123.059C-22.2067 123.193 -22.0337 123.331 -21.8607 123.469C-22.6126 125.08 -22.5413 126.747 -22.5196 128.39C-22.215 128.461 -21.9077 128.533 -21.5973 128.606C-21.8881 128.742 -22.2836 128.839 -22.4566 129.026C-22.3632 129.191 -22.1736 129.338 -22.0037 129.489C-23.1543 130.379 -22.421 133.213 -22.6157 133.735C-22.8904 134.685 -22.6978 135.644 -22.687 136.6C-25.41 136.692 -28.1412 136.581 -30.8642 136.653C-30.9412 136.692 -31.0951 136.771 -31.1715 136.809C-31.3197 137.343 -30.9438 137.952 -31.7509 138.39C-33.4261 138.056 -33.139 137.747 -36.2333 137.079C-36.2633 135.824 -36.1812 134.569 -36.2607 133.315C-36.4915 132.355 -36.4915 131.384 -36.3624 130.421C-36.3324 130.332 -36.0211 120.204 -36.2829 118.477C-36.365 117.98 -37.1422 117.596 -37.2517 117.103C-37.4825 116.317 -37.153 115.53 -37.183 114.744C-37.183 114.206 -37.3255 113.673 -37.356 113.136C-41.8327 112.313 -49.8169 113.278 -52.086 112.495C-52.149 112.086 -52.1794 111.675 -52.0916 111.267C-51.8969 110.6 -52.2729 109.937 -52.166 109.268C-56.999 108.973 -55.5562 108.315 -61.373 108.818C-61.3456 109.171 -61.2878 109.523 -61.1561 109.872C-62.1378 110.314 -61.2129 110.285 -67.102 110.255C-67.2172 110.921 -67.1681 111.59 -67.1872 112.259C-68.8506 112.347 -70.55 112.192 -72.1912 112.354C-72.8966 112.635 -72.7484 113.206 -72.9487 113.617C-73.4729 113.656 -73.9945 113.695 -74.5135 113.739C-74.6235 114.036 -74.2775 114.243 -73.7941 114.386C-74.0384 114.516 -74.3239 114.631 -74.5078 114.789C-74.5135 115.499 -74.2444 116.209 -74.4417 116.919C-75.2426 117.467 -76.9318 117.212 -81.0765 117.287C-81.1064 117.918 -81.0982 118.548 -81.1121 119.178C-81.6502 119.213 -82.1883 119.253 -82.7207 119.302C-82.729 119.394 -82.7507 119.58 -82.7589 119.671C-82.1935 119.716 -81.6254 119.766 -81.0568 119.814C-81.0868 120.073 -81.1033 120.333 -81.1116 120.595C-82.5007 120.605 -83.8893 120.587 -85.2759 120.618C-84.7156 125.825 -85.4928 124.631 -86.0748 125.447C-85.7902 126.96 -86.5592 132.584 -86.193 134.835C-86.8489 134.923 -87.5326 134.943 -88.1528 134.785C-88.268 134.415 -88.6496 134.109 -89.2894 133.92C-88.9336 125.684 -89.5244 126.394 -88.9599 125.972C-89.3276 125.527 -89.1081 125.045 -89.0725 124.582C-88.9847 123.178 -89.3168 121.773 -88.9573 120.371C-91.2605 120.045 -93.6623 120.033 -96.0342 120.029C-96.059 119.664 -96.0724 119.3 -96.0837 118.937C-109.178 118.937 -113.62 118.769 -111.286 119.402C-112.489 120.352 -111.109 120.093 -111.862 122.327C-111.585 122.481 -111.305 122.634 -111.028 122.792C-111.417 122.813 -112.128 122.763 -112.065 123.064C-111.788 124.612 -112.242 130.989 -111.914 132.477C-111.722 133.197 -112.288 133.89 -112.351 134.605L-112.392 141.855C-111.664 141.859 -110.934 141.867 -110.21 141.914C-111.829 142.262 -113.581 141.941 -115.269 141.974C-115.411 141.817 -115.551 141.661 -115.692 141.507C-120.759 142.598 -121.014 141.619 -123.191 141.68C-123.866 141.655 -124.613 141.773 -125.222 141.582C-127.46 140.819 -127.85 142.269 -132.834 141.646C-132.834 141.646 -132.655 138.956 -132.62 135.613C-138.202 135.078 -144.144 135.401 -147.276 135.217C-148.165 132.715 -147.325 124.946 -147.333 124.922C-147.123 122.095 -147.824 121.362 -147.073 120.616C-148.648 120.641 -150.186 120.464 -151.725 120.331C-153.444 120.318 -155.173 120.357 -156.85 120.127C-158.53 120.168 -160.216 120.135 -161.896 120.176C-164.583 120.43 -167.328 120.282 -170.046 120.317C-169.47 121.342 -169.89 126.771 -169.911 126.91C-170.033 127.555 -168.901 128.843 -171.248 129.059C-173.016 129.012 -174.792 129.076 -176.552 128.958C-177.943 128.869 -179.324 129.012 -180.713 129.019C-181.017 127.155 -180.024 117.859 -180.081 116.827C-180.015 116.524 -180.565 116.312 -181.116 116.295C-184.83 115.964 -188.643 116.374 -192.349 116.004C-194.778 116.173 -197.237 116.003 -199.667 116.157L-200.687 143.245C-200.707 143.247 -200.727 143.25 -200.746 143.252V143.513H-207.979C-208.009 160.342 -208.004 177.171 -207.983 194H1113.99C1114 190.903 1114.01 135.225 1113.98 124.697ZM-170.253 140.566C-171.12 140.728 -171.99 140.5 -172.86 140.476C-175.523 140.372 -178.194 140.407 -180.86 140.429C-181.199 139.804 -180.729 132.239 -180.618 132.007C-180.205 131.711 -179.861 131.92 -171.749 131.858C-171.252 131.842 -170.766 131.896 -170.305 131.984C-170.006 134.192 -170.436 136.713 -170.253 140.566ZM993.276 133.786C994.689 133.809 996.139 133.683 997.542 133.779L997.731 133.901C996.243 133.843 994.747 133.834 993.276 133.786Z" fill="#81A6FF" fill-opacity="0.15"/>
</svg>
