<svg width="104" height="100" viewBox="0 0 104 100" fill="none" xmlns="http://www.w3.org/2000/svg">
<path d="M18.1373 28.147H10.3008V33.836H18.1373V28.147Z" fill="#FCC37A"/>
<path d="M23.3764 21.301C23.3729 23.3881 22.6563 25.4113 21.3454 27.0354C20.0345 28.6594 18.208 29.7867 16.1686 30.2304C14.1292 30.6741 11.9994 30.4075 10.1323 29.4749C8.26512 28.5422 6.77275 26.9996 5.90253 25.1026C5.35234 23.9108 5.06787 22.6136 5.06885 21.301C5.06941 19.2111 5.78584 17.1845 7.09884 15.5586C8.41185 13.9328 10.2422 12.8057 12.2851 12.3652C14.328 11.9246 16.4601 12.1972 18.3265 13.1374C20.1929 14.0777 21.6809 15.6289 22.5427 17.5328V17.5661C23.0925 18.7344 23.3772 20.0098 23.3764 21.301Z" fill="#FFD9AA"/>
<path d="M22.5429 17.5327V17.5661L11.6451 19.7336C11.2685 19.8105 10.93 20.0151 10.6869 20.3129C10.4439 20.6106 10.3111 20.9832 10.3112 21.3676V25.2359H6.00278L5.90274 25.1025C5.22313 23.6295 4.95025 22.0013 5.11242 20.3872C5.31298 18.3849 6.16844 16.5047 7.5462 15.0381C8.92396 13.5714 10.7471 12.6002 12.7329 12.275C14.7187 11.9498 16.7564 12.2887 18.53 13.2393C20.3036 14.1899 21.7142 15.699 22.5429 17.5327Z" fill="#57565D"/>
<path d="M13.1489 63.4182L18.1509 68.9038L15.93 86.7178C15.9095 86.8277 15.9006 86.9395 15.9033 87.0513C15.9007 87.7193 16.143 88.3651 16.5844 88.8665C17.0258 89.368 17.6356 89.6902 18.2986 89.7724C18.9615 89.8545 19.6316 89.6909 20.182 89.3123C20.7324 88.9338 21.125 88.3667 21.2855 87.7182L25.5706 70.818C25.8364 69.7615 25.7724 68.649 25.3872 67.63L20.7486 55.8418H7.68994L13.1489 63.4182Z" fill="#416FB3"/>
<path d="M2.92452 89.7991C2.54294 89.7986 2.16592 89.7162 1.8189 89.5575C1.47188 89.3988 1.16293 89.1675 0.912918 88.8793C0.662903 88.591 0.477634 88.2525 0.369618 87.8865C0.261602 87.5205 0.233351 87.1357 0.286772 86.7578L5.07541 55.8418H15.5264L5.52226 87.6949C5.39383 88.2891 5.06628 88.8217 4.59386 89.2044C4.12144 89.587 3.53248 89.7968 2.92452 89.7991Z" fill="#416FB3"/>
<path d="M36.4151 44.077C36.4177 44.5917 36.3188 45.1018 36.1241 45.5783C35.9294 46.0547 35.6426 46.488 35.2802 46.8535C34.9178 47.219 34.4869 47.5094 34.0122 47.7082C33.5374 47.907 33.0281 48.0102 32.5135 48.012H27.0912C26.3697 48.012 25.6676 47.7779 25.0904 47.345L20.7553 44.0803V55.8518H5.06885V37.5743C5.06885 36.1858 5.62044 34.8541 6.60229 33.8723C7.58413 32.8904 8.9158 32.3389 10.3043 32.3389H16.3068C16.934 32.3301 17.5569 32.4433 18.1409 32.6723C18.6529 32.8728 19.1353 33.1421 19.5748 33.4727L27.0312 39.4451C27.6228 39.9182 28.3579 40.1758 29.1154 40.1754H32.5135C33.0264 40.1732 33.5348 40.2726 34.0091 40.4679C34.4835 40.6632 34.9145 40.9505 35.2772 41.3132C35.64 41.676 35.9273 42.107 36.1226 42.5813C36.3179 43.0557 36.4173 43.564 36.4151 44.077Z" fill="#82C8EC"/>
<path d="M36.4151 44.0769C36.4177 44.5916 36.3188 45.1018 36.1241 45.5782C35.9294 46.0546 35.6426 46.488 35.2802 46.8534C34.9178 47.2189 34.4869 47.5094 34.0122 47.7081C33.5374 47.9069 33.0282 48.0101 32.5135 48.0119H30.0458L30.0125 47.9785V40.6422L30.1458 40.1753H32.5135C33.0265 40.1731 33.5348 40.2725 34.0092 40.4678C34.4835 40.6631 34.9145 40.9504 35.2772 41.3132C35.64 41.6759 35.9273 42.1069 36.1226 42.5812C36.3179 43.0556 36.4173 43.5639 36.4151 44.0769Z" fill="#FFD9AA"/>
<path d="M86.7023 61.6509V77.7008H60.0247V83.7433L36.6817 83.3265V89.9959H0V100H23.3429H50.0206H76.6982H103.376V87.8083V61.6509H86.7023Z" fill="#D9D8DA"/>
<path d="M61.8922 21.6812H69.7288V15.9921H61.8922V21.6812Z" fill="#C8935F"/>
<path d="M56.6533 9.14572C56.6568 11.2328 57.3734 13.2561 58.6843 14.8801C59.9952 16.5041 61.8217 17.6314 63.8611 18.0751C65.9005 18.5188 68.0303 18.2522 69.8974 17.3196C71.7646 16.387 73.2569 14.8443 74.1272 12.9473C74.6774 11.7555 74.9618 10.4584 74.9608 9.14572C74.9603 7.05586 74.2439 5.02926 72.9309 3.40337C71.6178 1.77748 69.7875 0.650427 67.7446 0.209879C65.7017 -0.230668 63.5696 0.0418778 61.7032 0.982134C59.8368 1.92239 58.3488 3.47361 57.487 5.3775V5.41085C56.9372 6.57912 56.6525 7.85452 56.6533 9.14572Z" fill="#C8935F"/>
<path d="M72.3297 43.6768L71.1292 45.3441L66.8942 51.2465L66.8608 51.2799L61.8921 56.7488L64.1264 74.5561V74.8896C64.1378 75.559 63.9022 76.2092 63.4648 76.7161C63.0273 77.2229 62.4186 77.5509 61.7547 77.6375C61.0908 77.7241 60.4182 77.5632 59.8654 77.1855C59.3126 76.8079 58.9182 76.2398 58.7575 75.5899L54.4891 58.6829C54.2108 57.6244 54.2691 56.5055 54.6558 55.4816L58.6241 45.3441L59.291 43.6768H72.3297Z" fill="#416FB3"/>
<path d="M79.7328 74.5895C79.7903 74.969 79.7653 75.3565 79.6594 75.7255C79.5535 76.0945 79.3692 76.4363 79.1191 76.7276C78.869 77.0189 78.559 77.2527 78.2103 77.4132C77.8615 77.5736 77.4822 77.6569 77.0983 77.6574C76.4873 77.6483 75.8974 77.4324 75.4249 77.0447C74.9525 76.6571 74.6255 76.1207 74.4973 75.5232L66.8608 51.2799L65.0267 45.3441L64.4932 43.6768H74.9641L75.2309 45.3441L79.7328 74.5895Z" fill="#416FB3"/>
<path d="M74.964 25.4025V43.6766H59.2909V31.9051L54.0554 35.8401H47.5194C46.4802 35.8401 45.4835 35.4273 44.7487 34.6924C44.0139 33.9576 43.6011 32.961 43.6011 31.9218C43.6011 30.8826 44.0139 29.886 44.7487 29.1512C45.4835 28.4163 46.4802 28.0035 47.5194 28.0035H52.0879L60.458 21.3008C60.8975 20.9702 61.3799 20.701 61.8919 20.5004C62.4759 20.2715 63.0988 20.1582 63.726 20.167H69.7285C70.4165 20.1652 71.0981 20.2994 71.7341 20.5619C72.3701 20.8244 72.9479 21.21 73.4344 21.6965C73.921 22.183 74.3065 22.7609 74.569 23.3968C74.8315 24.0328 74.9657 24.7144 74.964 25.4025Z" fill="#ED456A"/>
<path d="M50.0204 28.4708V35.8071L49.987 35.8405H47.5194C46.4802 35.8405 45.4835 35.4276 44.7487 34.6928C44.0139 33.958 43.6011 32.9614 43.6011 31.9222C43.6011 30.883 44.0139 29.8864 44.7487 29.1515C45.4835 28.4167 46.4802 28.0039 47.5194 28.0039H49.887L50.0204 28.4708Z" fill="#C8935F"/>
<path d="M31.6797 40.6426V48.0123H28.345V40.6426C28.3484 40.4849 28.3708 40.3282 28.4117 40.1758H31.613C31.6539 40.3282 31.6763 40.4849 31.6797 40.6426Z" fill="#54BBE8"/>
<path d="M20.7417 44.0938H17.407V54.1812H20.7417V44.0938Z" fill="#54BBE8"/>
<path d="M62.6258 33.206V43.677C62.6189 44.1171 62.441 44.5372 62.1298 44.8484C61.8186 45.1596 61.3985 45.3375 60.9585 45.3444C60.5162 45.3444 60.0921 45.1687 59.7795 44.856C59.4668 44.5433 59.2911 44.1192 59.2911 43.677V33.206C59.2911 32.7638 59.4668 32.3397 59.7795 32.027C60.0921 31.7144 60.5162 31.5387 60.9585 31.5387C61.3985 31.5456 61.8186 31.7234 62.1298 32.0347C62.441 32.3459 62.6189 32.766 62.6258 33.206ZM51.688 28.4708V35.8405H48.3533V28.4708C48.3567 28.313 48.3791 28.1563 48.42 28.0039H51.6213C51.6621 28.1563 51.6845 28.313 51.688 28.4708Z" fill="#E13442"/>
<path d="M75.2308 45.344H58.624L59.291 43.6766V42.0093H74.9641V43.6766L75.2308 45.344Z" fill="#23579F"/>
<path d="M4.80859 57.5159H21.4154L20.7485 55.8485V54.1812H5.07537V55.8485L4.80859 57.5159Z" fill="#23579F"/>
<path d="M57.4871 5.37792V5.41127L68.3849 7.57883C68.7615 7.6557 69.1 7.86034 69.343 8.1581C69.5861 8.45586 69.7188 8.82846 69.7188 9.21283V13.0811H74.0305L74.1306 12.9477C74.8102 11.4747 75.0831 9.84655 74.9209 8.23243C74.7203 6.23016 73.8649 4.34996 72.4871 2.8833C71.1093 1.41664 69.2862 0.445424 67.3004 0.120213C65.3146 -0.204998 63.2769 0.133956 61.5033 1.08453C59.7297 2.03511 58.3192 3.54422 57.4904 5.37792H57.4871Z" fill="#57565D"/>
</svg>
