<svg width="455" height="458" viewBox="0 0 455 458" fill="none" xmlns="http://www.w3.org/2000/svg">
<path fill-rule="evenodd" clip-rule="evenodd" d="M108.773 358.145C87.2763 336.547 90.9573 301.44 84.1701 271.742C77.8906 244.267 57.7205 215.004 70.2984 189.801C83.4148 163.519 126.703 169.879 146.039 147.771C166.353 124.544 155.7 81.749 180.666 63.6118C205.045 45.8998 240.019 51.3555 269.399 58.1498C298.749 64.9373 328.543 77.9376 346.675 102.003C364.101 125.13 359.049 157.048 365.225 185.33C370.831 211.004 387.022 235.448 381.42 261.112C375.807 286.827 352.11 303.292 335.095 323.365C317.269 344.396 304.225 371.241 278.876 382.092C252.786 393.26 223.283 387.221 195.166 383.263C164.958 379.01 130.3 379.773 108.773 358.145Z" fill="#A6FFFF" fill-opacity="0.3"/>
<path d="M268.555 66.9705C268.655 67.9395 268.7 68.9148 268.644 69.9544C268.694 70.4389 268.685 70.8749 268.68 71.3658C268.615 72.842 267.379 74.0573 265.843 73.9422C264.367 73.8763 263.205 72.6351 263.272 71.1586C263.306 69.9038 263.292 68.7077 263.171 67.5234C263.093 66.7696 262.956 65.9674 262.825 65.2192C261.695 59.5121 258.579 54.6077 254.304 51.129C249.488 47.1609 243.126 45.0932 236.449 45.7789C227.779 46.6691 220.656 52.0262 217.056 59.3611C215.122 63.3152 214.223 67.8148 214.704 72.5001C215.357 78.8543 218.394 84.583 223.274 88.6529C224.408 89.6249 224.585 91.3484 223.613 92.482C222.641 93.6163 220.918 93.7933 219.784 92.8213C213.829 87.8272 210.115 80.8075 209.319 73.0531C208.683 66.8602 210.03 60.8995 212.775 55.8284C217.304 47.4726 225.772 41.4333 235.896 40.3938C244.081 39.5532 251.802 42.1348 257.734 46.9129C263.619 51.7505 267.715 58.7849 268.555 66.9705Z" fill="#FFA254"/>
<path d="M285.253 93.9348L264.765 119.112C261.913 122.615 256.793 123.087 253.348 120.284C253.348 120.284 226.335 98.3521 226.033 98.0565C226.033 98.0565 234.663 84.0553 238.905 77.1439C240.208 74.9964 241.094 73.545 241.184 73.3727C241.184 73.3727 253.911 62.7055 256.765 60.2903C257.3 60.725 259.675 62.6579 262.822 65.2194C264.598 66.6149 266.563 68.2633 268.642 69.9545C275.708 75.7046 283.368 81.9387 284.081 82.5181C287.524 85.3205 288.104 90.4307 285.253 93.9348Z" fill="#A339FF"/>
<path d="M200.394 122.168C199.761 122.233 199.102 122.077 198.546 121.677C197.33 120.809 197.047 119.119 197.916 117.902C201.986 112.205 208.661 108.493 215.605 107.78C217.094 107.627 218.422 108.708 218.574 110.196C218.727 111.684 217.647 113.012 216.158 113.165C210.761 113.719 205.487 116.617 202.32 121.048C201.851 121.707 201.138 122.091 200.394 122.168Z" fill="#C6E2E7"/>
<path d="M207.277 136.207C205.79 136.36 204.443 135.099 204.29 133.611C203.528 126.189 209.288 119.312 216.711 118.55C218.2 118.397 219.527 119.478 219.68 120.966C219.833 122.454 218.752 123.782 217.264 123.935C212.81 124.392 209.218 128.605 209.675 133.059C209.828 134.546 208.766 136.054 207.277 136.207Z" fill="#C6E2E7"/>
<path d="M257.652 119.788L219.956 123.659L218.85 112.889L251.161 109.571L257.652 119.788Z" fill="#4529AE"/>
<path d="M223.275 88.653C224.409 89.625 224.586 91.3485 223.614 92.4821C222.642 93.6164 220.919 93.7934 219.785 92.8214C213.83 87.8273 210.116 80.8076 209.32 73.0532C208.684 66.8603 210.031 60.8996 212.776 55.8285L217.057 59.3612C215.123 63.3153 214.224 67.8149 214.705 72.5002C215.358 78.8543 218.395 84.5831 223.275 88.653Z" fill="#FF8200"/>
<path d="M275.011 106.523L264.767 119.112C261.915 122.616 256.795 123.087 253.35 120.285C253.35 120.285 226.337 98.3517 226.035 98.0568C226.035 98.0568 234.665 84.0556 238.907 77.1442L275.011 106.523Z" fill="#873FE2"/>
<path d="M256.768 60.2906L241.402 79.1733C233.864 88.4368 226.326 97.7004 226.036 98.0568L219.741 92.9346C218.559 92.0222 218.382 90.2994 219.354 89.1651L246.704 55.5555C247.616 54.3734 249.34 54.1964 250.474 55.1684L256.768 60.2906Z" fill="#4529AE" fill-opacity="0.76"/>
<path d="M241.401 79.1729C233.863 88.4364 226.324 97.6999 226.034 98.0564L219.74 92.9342C218.558 92.0218 218.381 90.2982 219.353 89.1646L233.028 72.3595L241.401 79.1729Z" fill="#4529AE"/>
<path d="M225.342 123.106L218.993 128.909C217.294 129.988 215.054 128.903 214.848 126.901L213.19 110.752C212.984 108.751 214.957 107.233 216.84 107.944L224.236 112.336L225.342 123.106Z" fill="#A339FF"/>
<path d="M155.218 300.346C158.038 303.169 159.784 307.065 159.784 311.371C151.172 311.371 144.193 304.392 144.193 295.78C148.496 295.78 152.395 297.526 155.218 300.346Z" fill="#9AD14B"/>
<path d="M170.772 316.46C170.772 322.529 165.851 327.45 159.783 327.45C159.783 324.416 161.011 321.669 163.001 319.679C164.989 317.691 167.736 316.46 170.772 316.46Z" fill="#9AD14B"/>
<path d="M159.783 311.371C159.783 305.127 162.313 299.473 166.407 295.382C170.499 291.29 176.152 288.757 182.397 288.757C182.397 301.246 172.272 311.371 159.783 311.371Z" fill="#9AD14B"/>
<path d="M161.817 309.338H157.75V335.938H161.817V309.338Z" fill="#9AD14B"/>
<path d="M190 362.956L149.353 389.201C110.285 382.713 134.306 346.174 134.306 346.174C139.892 338.315 148.992 333.201 159.266 333.201C175.768 333.201 189.233 346.391 190 362.956Z" fill="#B27214"/>
<path d="M159.149 361.264C159.149 361.264 161.978 370.321 173.372 372.229C184.766 374.136 152.228 386.338 152.228 386.338L124.841 379.56L137.043 352.987" fill="#995C0D"/>
<path d="M139.515 368.486C140.286 352.078 151.944 338.522 167.427 334.873C164.984 334.242 162.424 333.903 159.784 333.903C143.444 333.903 130.112 346.764 129.353 362.916L148.661 373.592C148.927 373.738 149.199 373.871 149.475 373.992L139.515 368.486Z" fill="#995C0D"/>
<path d="M203.802 371.261L170.558 391.188C167.216 393.189 163.226 393.982 159.317 393.422L120.051 387.797C118.032 387.509 115.968 387.938 114.262 389.003L101.114 397.201L93.6969 379.855L89.9995 371.209L97.8083 366.651C100.628 365.005 103.233 363.068 105.581 360.881C107.927 358.693 110.013 356.254 111.798 353.612C114.93 348.962 120.36 346.102 126.177 346.204C127.501 346.227 128.826 346.361 130.139 346.612L134.626 347.465L157.426 351.798C160.26 352.337 162.161 354.698 162.161 357.275C162.161 357.874 162.059 358.487 161.841 359.091C160.909 361.666 158.157 363.228 155.324 362.791L141.008 360.585C140.719 360.541 140.432 360.52 140.147 360.52C137.446 360.52 135.101 362.475 134.85 365.118C134.598 367.745 136.522 370.115 139.264 370.555L164.545 374.616C166.791 374.977 169.101 374.603 171.096 373.559L190.745 363.257L196.821 360.07C197.87 359.52 199.006 359.259 200.132 359.259C202.403 359.259 204.619 360.329 205.921 362.265C207.966 365.303 207.017 369.338 203.802 371.261Z" fill="#FFD3AE"/>
<path d="M129 346.616C129 346.616 120.489 349.65 118.362 358.378C117.657 361.268 116.004 363.847 113.581 365.615L93.5919 380.201L89.9995 371.467L97.5866 366.861C100.327 365.198 102.857 363.242 105.139 361.032C107.418 358.822 109.444 356.358 111.179 353.688C114.222 348.99 119.498 346.101 125.15 346.204C126.437 346.227 127.724 346.362 129 346.616Z" fill="#E5B48F"/>
<path d="M241.116 162.961C241.539 162.813 242.003 163.025 242.164 163.442C243.567 167.069 249.353 183.214 245.014 192.549C241.425 200.271 232.238 203.648 224.494 200.092C216.749 196.535 213.381 187.392 216.97 179.67C221.309 170.335 237.428 164.249 241.116 162.961V162.961Z" fill="#CBE2FF"/>
<path d="M246.422 180.418C246.254 180.886 246.064 181.351 245.851 181.811C241.997 190.102 232.133 193.728 223.818 189.909C220.3 188.293 217.623 185.604 215.997 182.41C214.227 189.443 217.653 196.947 224.497 200.09C232.243 203.648 241.433 200.27 245.024 192.546C246.623 189.106 246.847 184.741 246.422 180.418V180.418Z" fill="#BED8FB"/>
<path d="M253.866 178.056L253.91 178.051C254.218 178.014 254.379 177.667 254.208 177.41L254.183 177.372C253.785 176.774 253.591 176.064 253.63 175.346L253.653 174.914C253.673 174.54 253.226 174.335 252.953 174.592L252.637 174.89C252.112 175.385 251.442 175.698 250.726 175.784L250.681 175.79C250.373 175.827 250.212 176.174 250.383 176.431L250.408 176.468C250.806 177.066 251 177.777 250.962 178.494L250.938 178.927C250.918 179.3 251.365 179.505 251.638 179.248L251.955 178.95C252.479 178.456 253.149 178.142 253.866 178.056V178.056Z" fill="#FFE07D"/>
<path d="M225.788 165.147L225.833 165.141C226.14 165.104 226.302 164.757 226.131 164.501L226.106 164.463C225.708 163.865 225.513 163.154 225.552 162.437L225.575 162.004C225.595 161.631 225.148 161.425 224.875 161.683L224.559 161.981C224.034 162.475 223.365 162.789 222.648 162.875L222.603 162.88C222.296 162.917 222.135 163.264 222.306 163.521L222.331 163.559C222.729 164.157 222.923 164.867 222.884 165.585L222.861 166.017C222.841 166.391 223.288 166.596 223.561 166.339L223.877 166.041C224.402 165.547 225.072 165.233 225.788 165.147V165.147Z" fill="#FFE07D"/>
<path d="M226.932 182.625L226.977 182.619C227.284 182.582 227.446 182.235 227.275 181.979L227.25 181.941C226.852 181.343 226.657 180.633 226.696 179.915L226.719 179.483C226.74 179.109 226.292 178.904 226.019 179.161L225.703 179.459C225.178 179.953 224.508 180.267 223.792 180.353L223.747 180.359C223.44 180.396 223.278 180.743 223.449 180.999L223.474 181.037C223.873 181.635 224.067 182.345 224.028 183.063L224.005 183.495C223.985 183.869 224.432 184.074 224.705 183.817L225.021 183.519C225.546 183.025 226.216 182.711 226.932 182.625Z" fill="#FFE07D"/>
<path d="M237.382 193.419L237.427 193.414C237.735 193.377 237.896 193.03 237.725 192.773L237.7 192.736C237.302 192.137 237.108 191.427 237.146 190.709L237.17 190.277C237.19 189.903 236.742 189.698 236.469 189.955L236.153 190.253C235.629 190.748 234.959 191.061 234.243 191.147L234.198 191.153C233.89 191.19 233.729 191.537 233.9 191.794L233.925 191.831C234.323 192.429 234.517 193.14 234.479 193.857L234.455 194.29C234.435 194.663 234.882 194.869 235.155 194.611L235.471 194.314C235.996 193.819 236.666 193.505 237.382 193.419Z" fill="#FFE07D"/>
<path d="M172.183 271.872C157.778 275.289 149.005 259.865 163.831 237.001C187.427 250.751 186.588 268.455 172.183 271.872Z" fill="#CBE2FF"/>
<path d="M169.475 269.782C183.2 266.526 184.609 250.301 164.303 236.883C187.276 250.581 186.328 268.009 172.048 271.396C167.41 272.496 163.356 271.643 160.485 269.217C163.015 270.347 166.09 270.585 169.475 269.782Z" fill="#87BCFF"/>
<path d="M175.636 256.456C175.921 256.389 176.096 256.099 176.026 255.808L175.727 254.563C175.657 254.272 175.369 254.091 175.084 254.159C174.798 254.226 174.624 254.516 174.694 254.807L174.993 256.052C175.063 256.343 175.351 256.524 175.636 256.456Z" fill="#0033C7"/>
<path d="M162.12 259.662C162.405 259.595 162.58 259.304 162.51 259.014L162.211 257.769C162.141 257.478 161.853 257.297 161.568 257.364C161.283 257.432 161.108 257.722 161.178 258.013L161.477 259.258C161.547 259.549 161.835 259.73 162.12 259.662Z" fill="#0033C7"/>
<path d="M169.036 258.724C169.835 258.535 170.503 258.018 170.869 257.306C171.004 257.042 170.903 256.714 170.642 256.573C170.381 256.433 170.059 256.532 169.924 256.796C169.7 257.233 169.284 257.552 168.783 257.67C168.283 257.789 167.767 257.691 167.368 257.401C167.127 257.226 166.796 257.281 166.627 257.524C166.458 257.766 166.516 258.104 166.756 258.279C167.406 258.751 168.237 258.913 169.036 258.724Z" fill="#0033C7"/>
</svg>
