<svg width="125" height="137.44" viewBox="0 0 72 79" fill="none" xmlns="http://www.w3.org/2000/svg">
<path fill-rule="evenodd" clip-rule="evenodd" d="M37.6245 0.000573645C54.0319 0.100931 66.3572 13.8279 70.8502 29.5759C74.839 43.5568 68.0586 57.4337 56.5547 66.3509C43.5272 76.4491 26.1191 84.1537 12.5889 74.7369C-1.50915 64.9247 -2.32829 45.4294 3.12118 29.1617C8.40406 13.3912 20.9621 -0.101343 37.6245 0.000573645Z" fill="#F0EFFF"/>
<g style="mix-blend-mode:multiply" opacity="0.33">
<g style="mix-blend-mode:multiply" opacity="0.33">
<path d="M47.2394 34.9988H23.3348C22.5381 34.9988 21.8923 35.6433 21.8923 36.4384V38.2356C21.8923 39.0306 22.5381 39.6751 23.3348 39.6751H47.2394C48.0361 39.6751 48.6819 39.0306 48.6819 38.2356V36.4384C48.6819 35.6433 48.0361 34.9988 47.2394 34.9988Z" fill="#4E4E4E"/>
<path d="M47.2394 34.9988H23.3348C22.5381 34.9988 21.8923 35.6433 21.8923 36.4384V38.2356C21.8923 39.0306 22.5381 39.6751 23.3348 39.6751H47.2394C48.0361 39.6751 48.6819 39.0306 48.6819 38.2356V36.4384C48.6819 35.6433 48.0361 34.9988 47.2394 34.9988Z" stroke="black" stroke-linecap="round" stroke-linejoin="round"/>
</g>
<g style="mix-blend-mode:multiply" opacity="0.33">
<path d="M47.2394 34.9988H23.3348C22.5381 34.9988 21.8923 35.6433 21.8923 36.4384V38.2356C21.8923 39.0306 22.5381 39.6751 23.3348 39.6751H47.2394C48.0361 39.6751 48.6819 39.0306 48.6819 38.2356V36.4384C48.6819 35.6433 48.0361 34.9988 47.2394 34.9988Z" fill="#4E4E4E"/>
</g>
<g style="mix-blend-mode:multiply" opacity="0.17">
<path d="M23.3353 34.9988H47.2399C47.6225 34.9988 47.9894 35.1505 48.2599 35.4205C48.5304 35.6904 48.6824 36.0566 48.6824 36.4384V38.5399C48.6824 38.7731 48.5896 38.9967 48.4244 39.1615C48.2592 39.3264 48.0352 39.419 47.8015 39.419H22.7737C22.5401 39.419 22.316 39.3264 22.1509 39.1615C21.9857 38.9967 21.8929 38.7731 21.8929 38.5399V36.4384C21.8929 36.0566 22.0448 35.6904 22.3154 35.4205C22.5859 35.1505 22.9528 34.9988 23.3354 34.9988H23.3353Z" fill="#4E4E4E"/>
</g>
<g style="mix-blend-mode:multiply" opacity="0.33">
<path d="M47.2394 34.9988H23.3348C22.5381 34.9988 21.8923 35.6433 21.8923 36.4384V38.2356C21.8923 39.0306 22.5381 39.6751 23.3348 39.6751H47.2394C48.0361 39.6751 48.6819 39.0306 48.6819 38.2356V36.4384C48.6819 35.6433 48.0361 34.9988 47.2394 34.9988Z" fill="#4E4E4E"/>
<path d="M47.2394 34.9988H23.3348C22.5381 34.9988 21.8923 35.6433 21.8923 36.4384V38.2356C21.8923 39.0306 22.5381 39.6751 23.3348 39.6751H47.2394C48.0361 39.6751 48.6819 39.0306 48.6819 38.2356V36.4384C48.6819 35.6433 48.0361 34.9988 47.2394 34.9988Z" stroke="#46505C" stroke-width="4" stroke-linecap="round" stroke-linejoin="round"/>
</g>
<g style="mix-blend-mode:multiply" opacity="0.33">
<path d="M46.8272 39.1186V35.5258H23.7469V39.1186H46.8272Z" fill="#4E4E4E"/>
</g>
<g style="mix-blend-mode:multiply" opacity="0.33">
<path d="M46.8272 39.1186V35.5258H23.7469V39.1186H46.8272Z" fill="#4E4E4E"/>
<path d="M46.8272 39.1186V35.5258H23.7469V39.1186H46.8272Z" stroke="#46505C" stroke-linecap="round" stroke-linejoin="round"/>
</g>
<g style="mix-blend-mode:multiply" opacity="0.33">
<path d="M47.2395 39.6752H23.3349C22.5383 39.6752 21.8924 40.3197 21.8924 41.1147V55.9215C21.8924 56.7165 22.5383 57.361 23.3349 57.361H47.2395C48.0362 57.361 48.6821 56.7165 48.6821 55.9215V41.1147C48.6821 40.3197 48.0362 39.6752 47.2395 39.6752Z" fill="#4E4E4E"/>
</g>
<g style="mix-blend-mode:multiply" opacity="0.33">
<path d="M48.2697 55.9215V41.1147C48.2697 40.5468 47.8084 40.0864 47.2393 40.0864H23.3347C22.7657 40.0864 22.3044 40.5468 22.3044 41.1147V55.9215C22.3044 56.4893 22.7657 56.9497 23.3347 56.9497H47.2393C47.8084 56.9497 48.2697 56.4893 48.2697 55.9215Z" fill="#4E4E4E"/>
<path d="M48.2697 55.9215V41.1147C48.2697 40.5468 47.8084 40.0864 47.2393 40.0864H23.3347C22.7657 40.0864 22.3044 40.5468 22.3044 41.1147V55.9215C22.3044 56.4893 22.7657 56.9497 23.3347 56.9497H47.2393C47.8084 56.9497 48.2697 56.4893 48.2697 55.9215Z" stroke="#E6F3FF" stroke-width="2" stroke-miterlimit="10"/>
</g>
<g style="mix-blend-mode:multiply" opacity="0.33">
<path d="M33.6334 56.5566H36.9409C37.0502 56.5566 37.1551 56.5999 37.2324 56.677C37.3097 56.7542 37.3531 56.8588 37.3531 56.9679V57.3607H33.2213V56.9679C33.2213 56.8588 33.2647 56.7542 33.342 56.677C33.4193 56.5999 33.5241 56.5566 33.6334 56.5566Z" fill="#4E4E4E"/>
</g>
<g style="mix-blend-mode:multiply" opacity="0.33">
<path d="M47.2395 39.6752H23.3349C22.5383 39.6752 21.8924 40.3197 21.8924 41.1147V55.9215C21.8924 56.7165 22.5383 57.361 23.3349 57.361H47.2395C48.0362 57.361 48.6821 56.7165 48.6821 55.9215V41.1147C48.6821 40.3197 48.0362 39.6752 47.2395 39.6752Z" fill="#4E4E4E"/>
<path d="M47.2395 39.6752H23.3349C22.5383 39.6752 21.8924 40.3197 21.8924 41.1147V55.9215C21.8924 56.7165 22.5383 57.361 23.3349 57.361H47.2395C48.0362 57.361 48.6821 56.7165 48.6821 55.9215V41.1147C48.6821 40.3197 48.0362 39.6752 47.2395 39.6752Z" stroke="#46505C" stroke-width="4" stroke-linecap="round" stroke-linejoin="round"/>
</g>
<g style="mix-blend-mode:multiply" opacity="0.33">
<path d="M46.8271 41.055H23.7468C23.5761 41.055 23.4377 41.1931 23.4377 41.3635V50.2064C23.4377 50.3768 23.5761 50.5149 23.7468 50.5149H46.8271C46.9978 50.5149 47.1362 50.3768 47.1362 50.2064V41.3635C47.1362 41.1931 46.9978 41.055 46.8271 41.055Z" fill="#4E4E4E"/>
</g>
<g style="mix-blend-mode:multiply" opacity="0.33">
<path d="M27.98 48.2014H26.7436C26.6867 48.2014 26.6406 48.2474 26.6406 48.3042V49.5381C26.6406 49.5949 26.6867 49.6409 26.7436 49.6409H27.98C28.037 49.6409 28.0831 49.5949 28.0831 49.5381V48.3042C28.0831 48.2474 28.037 48.2014 27.98 48.2014Z" fill="#4E4E4E"/>
<path d="M27.98 48.2014H26.7436C26.6867 48.2014 26.6406 48.2474 26.6406 48.3042V49.5381C26.6406 49.5949 26.6867 49.6409 26.7436 49.6409H27.98C28.037 49.6409 28.0831 49.5949 28.0831 49.5381V48.3042C28.0831 48.2474 28.037 48.2014 27.98 48.2014Z" stroke="#626C84" stroke-linecap="round" stroke-linejoin="round"/>
</g>
<g style="mix-blend-mode:multiply" opacity="0.33">
<path d="M25.7506 48.2014H24.5141C24.4572 48.2014 24.4111 48.2474 24.4111 48.3042V49.5381C24.4111 49.5949 24.4572 49.6409 24.5141 49.6409H25.7506C25.8075 49.6409 25.8536 49.5949 25.8536 49.5381V48.3042C25.8536 48.2474 25.8075 48.2014 25.7506 48.2014Z" fill="#4E4E4E"/>
<path d="M25.7506 48.2014H24.5141C24.4572 48.2014 24.4111 48.2474 24.4111 48.3042V49.5381C24.4111 49.5949 24.4572 49.6409 24.5141 49.6409H25.7506C25.8075 49.6409 25.8536 49.5949 25.8536 49.5381V48.3042C25.8536 48.2474 25.8075 48.2014 25.7506 48.2014Z" stroke="#626C84" stroke-linecap="round" stroke-linejoin="round"/>
</g>
<g style="mix-blend-mode:multiply" opacity="0.33">
<path d="M39.1282 48.2014H28.9735C28.9166 48.2014 28.8705 48.2474 28.8705 48.3042V49.5381C28.8705 49.5949 28.9166 49.6409 28.9735 49.6409H39.1282C39.1851 49.6409 39.2313 49.5949 39.2313 49.5381V48.3042C39.2313 48.2474 39.1851 48.2014 39.1282 48.2014Z" fill="#4E4E4E"/>
<path d="M39.1282 48.2014H28.9735C28.9166 48.2014 28.8705 48.2474 28.8705 48.3042V49.5381C28.8705 49.5949 28.9166 49.6409 28.9735 49.6409H39.1282C39.1851 49.6409 39.2313 49.5949 39.2313 49.5381V48.3042C39.2313 48.2474 39.1851 48.2014 39.1282 48.2014Z" stroke="#626C84" stroke-linecap="round" stroke-linejoin="round"/>
</g>
<g style="mix-blend-mode:multiply" opacity="0.33">
<path d="M41.3576 48.2014H40.1211C40.0642 48.2014 40.0181 48.2474 40.0181 48.3042V49.5381C40.0181 49.5949 40.0642 49.6409 40.1211 49.6409H41.3576C41.4145 49.6409 41.4606 49.5949 41.4606 49.5381V48.3042C41.4606 48.2474 41.4145 48.2014 41.3576 48.2014Z" fill="#4E4E4E"/>
<path d="M41.3576 48.2014H40.1211C40.0642 48.2014 40.0181 48.2474 40.0181 48.3042V49.5381C40.0181 49.5949 40.0642 49.6409 40.1211 49.6409H41.3576C41.4145 49.6409 41.4606 49.5949 41.4606 49.5381V48.3042C41.4606 48.2474 41.4145 48.2014 41.3576 48.2014Z" stroke="#626C84" stroke-linecap="round" stroke-linejoin="round"/>
</g>
<g style="mix-blend-mode:multiply" opacity="0.33">
<path d="M44.6176 49.0111H43.7933C43.7364 49.0111 43.6903 49.0571 43.6903 49.1139V49.5381C43.6903 49.5949 43.7364 49.6409 43.7933 49.6409H44.6176C44.6745 49.6409 44.7207 49.5949 44.7207 49.5381V49.1139C44.7207 49.0571 44.6745 49.0111 44.6176 49.0111Z" fill="#4E4E4E"/>
<path d="M44.6176 49.0111H43.7933C43.7364 49.0111 43.6903 49.0571 43.6903 49.1139V49.5381C43.6903 49.5949 43.7364 49.6409 43.7933 49.6409H44.6176C44.6745 49.6409 44.7207 49.5949 44.7207 49.5381V49.1139C44.7207 49.0571 44.6745 49.0111 44.6176 49.0111Z" stroke="#626C84" stroke-linecap="round" stroke-linejoin="round"/>
</g>
<g style="mix-blend-mode:multiply" opacity="0.33">
<path d="M44.6176 48.2014H43.7933C43.7364 48.2014 43.6903 48.2474 43.6903 48.3042V48.7283C43.6903 48.7851 43.7364 48.8312 43.7933 48.8312H44.6176C44.6745 48.8312 44.7207 48.7851 44.7207 48.7283V48.3042C44.7207 48.2474 44.6745 48.2014 44.6176 48.2014Z" fill="#4E4E4E"/>
<path d="M44.6176 48.2014H43.7933C43.7364 48.2014 43.6903 48.2474 43.6903 48.3042V48.7283C43.6903 48.7851 43.7364 48.8312 43.7933 48.8312H44.6176C44.6745 48.8312 44.7207 48.7851 44.7207 48.7283V48.3042C44.7207 48.2474 44.6745 48.2014 44.6176 48.2014Z" stroke="#626C84" stroke-linecap="round" stroke-linejoin="round"/>
</g>
<g style="mix-blend-mode:multiply" opacity="0.33">
<path d="M46.06 49.0111H45.2357C45.1788 49.0111 45.1326 49.0571 45.1326 49.1139V49.5381C45.1326 49.5949 45.1788 49.6409 45.2357 49.6409H46.06C46.1169 49.6409 46.163 49.5949 46.163 49.5381V49.1139C46.163 49.0571 46.1169 49.0111 46.06 49.0111Z" fill="#4E4E4E"/>
<path d="M46.06 49.0111H45.2357C45.1788 49.0111 45.1326 49.0571 45.1326 49.1139V49.5381C45.1326 49.5949 45.1788 49.6409 45.2357 49.6409H46.06C46.1169 49.6409 46.163 49.5949 46.163 49.5381V49.1139C46.163 49.0571 46.1169 49.0111 46.06 49.0111Z" stroke="#626C84" stroke-linecap="round" stroke-linejoin="round"/>
</g>
<g style="mix-blend-mode:multiply" opacity="0.33">
<path d="M43.175 49.0111H42.3507C42.2938 49.0111 42.2477 49.0571 42.2477 49.1139V49.5381C42.2477 49.5949 42.2938 49.6409 42.3507 49.6409H43.175C43.2319 49.6409 43.278 49.5949 43.278 49.5381V49.1139C43.278 49.0571 43.2319 49.0111 43.175 49.0111Z" fill="#4E4E4E"/>
<path d="M43.175 49.0111H42.3507C42.2938 49.0111 42.2477 49.0571 42.2477 49.1139V49.5381C42.2477 49.5949 42.2938 49.6409 42.3507 49.6409H43.175C43.2319 49.6409 43.278 49.5949 43.278 49.5381V49.1139C43.278 49.0571 43.2319 49.0111 43.175 49.0111Z" stroke="#626C84" stroke-linecap="round" stroke-linejoin="round"/>
</g>
<g style="mix-blend-mode:multiply" opacity="0.33">
<path d="M27.7741 46.1531H24.5141C24.4572 46.1531 24.4111 46.1992 24.4111 46.256V47.4899C24.4111 47.5466 24.4572 47.5927 24.5141 47.5927H27.7741C27.831 47.5927 27.8772 47.5466 27.8772 47.4899V46.256C27.8772 46.1992 27.831 46.1531 27.7741 46.1531Z" fill="#4E4E4E"/>
<path d="M27.7741 46.1531H24.5141C24.4572 46.1531 24.4111 46.1992 24.4111 46.256V47.4899C24.4111 47.5466 24.4572 47.5927 24.5141 47.5927H27.7741C27.831 47.5927 27.8772 47.5466 27.8772 47.4899V46.256C27.8772 46.1992 27.831 46.1531 27.7741 46.1531Z" stroke="#626C84" stroke-linecap="round" stroke-linejoin="round"/>
</g>
<g style="mix-blend-mode:multiply" opacity="0.33">
<path d="M30.0224 46.1531H28.7859C28.729 46.1531 28.6829 46.1992 28.6829 46.256V47.4899C28.6829 47.5466 28.729 47.5927 28.7859 47.5927H30.0224C30.0793 47.5927 30.1254 47.5466 30.1254 47.4899V46.256C30.1254 46.1992 30.0793 46.1531 30.0224 46.1531Z" fill="#4E4E4E"/>
<path d="M30.0224 46.1531H28.7859C28.729 46.1531 28.6829 46.1992 28.6829 46.256V47.4899C28.6829 47.5466 28.729 47.5927 28.7859 47.5927H30.0224C30.0793 47.5927 30.1254 47.5466 30.1254 47.4899V46.256C30.1254 46.1992 30.0793 46.1531 30.0224 46.1531Z" stroke="#626C84" stroke-linecap="round" stroke-linejoin="round"/>
</g>
<g style="mix-blend-mode:multiply" opacity="0.33">
<path d="M32.2518 46.1531H31.0154C30.9585 46.1531 30.9124 46.1992 30.9124 46.256V47.4899C30.9124 47.5466 30.9585 47.5927 31.0154 47.5927H32.2518C32.3087 47.5927 32.3549 47.5466 32.3549 47.4899V46.256C32.3549 46.1992 32.3087 46.1531 32.2518 46.1531Z" fill="#4E4E4E"/>
<path d="M32.2518 46.1531H31.0154C30.9585 46.1531 30.9124 46.1992 30.9124 46.256V47.4899C30.9124 47.5466 30.9585 47.5927 31.0154 47.5927H32.2518C32.3087 47.5927 32.3549 47.5466 32.3549 47.4899V46.256C32.3549 46.1992 32.3087 46.1531 32.2518 46.1531Z" stroke="#626C84" stroke-linecap="round" stroke-linejoin="round"/>
</g>
<g style="mix-blend-mode:multiply" opacity="0.33">
<path d="M34.4813 46.1531H33.2449C33.1879 46.1531 33.1418 46.1992 33.1418 46.256V47.4899C33.1418 47.5466 33.1879 47.5927 33.2449 47.5927H34.4813C34.5382 47.5927 34.5843 47.5466 34.5843 47.4899V46.256C34.5843 46.1992 34.5382 46.1531 34.4813 46.1531Z" fill="#4E4E4E"/>
<path d="M34.4813 46.1531H33.2449C33.1879 46.1531 33.1418 46.1992 33.1418 46.256V47.4899C33.1418 47.5466 33.1879 47.5927 33.2449 47.5927H34.4813C34.5382 47.5927 34.5843 47.5466 34.5843 47.4899V46.256C34.5843 46.1992 34.5382 46.1531 34.4813 46.1531Z" stroke="#626C84" stroke-linecap="round" stroke-linejoin="round"/>
</g>
<g style="mix-blend-mode:multiply" opacity="0.33">
<path d="M36.7112 46.1531H35.4747C35.4178 46.1531 35.3717 46.1992 35.3717 46.256V47.4899C35.3717 47.5466 35.4178 47.5927 35.4747 47.5927H36.7112C36.7681 47.5927 36.8142 47.5466 36.8142 47.4899V46.256C36.8142 46.1992 36.7681 46.1531 36.7112 46.1531Z" fill="#4E4E4E"/>
<path d="M36.7112 46.1531H35.4747C35.4178 46.1531 35.3717 46.1992 35.3717 46.256V47.4899C35.3717 47.5466 35.4178 47.5927 35.4747 47.5927H36.7112C36.7681 47.5927 36.8142 47.5466 36.8142 47.4899V46.256C36.8142 46.1992 36.7681 46.1531 36.7112 46.1531Z" stroke="#626C84" stroke-linecap="round" stroke-linejoin="round"/>
</g>
<g style="mix-blend-mode:multiply" opacity="0.33">
<path d="M38.9405 46.1531H37.7041C37.6472 46.1531 37.601 46.1992 37.601 46.256V47.4899C37.601 47.5466 37.6472 47.5927 37.7041 47.5927H38.9405C38.9974 47.5927 39.0436 47.5466 39.0436 47.4899V46.256C39.0436 46.1992 38.9974 46.1531 38.9405 46.1531Z" fill="#4E4E4E"/>
<path d="M38.9405 46.1531H37.7041C37.6472 46.1531 37.601 46.1992 37.601 46.256V47.4899C37.601 47.5466 37.6472 47.5927 37.7041 47.5927H38.9405C38.9974 47.5927 39.0436 47.5466 39.0436 47.4899V46.256C39.0436 46.1992 38.9974 46.1531 38.9405 46.1531Z" stroke="#626C84" stroke-linecap="round" stroke-linejoin="round"/>
</g>
<g style="mix-blend-mode:multiply" opacity="0.33">
<path d="M41.1701 46.1531H39.9337C39.8768 46.1531 39.8306 46.1992 39.8306 46.256V47.4899C39.8306 47.5466 39.8768 47.5927 39.9337 47.5927H41.1701C41.227 47.5927 41.2731 47.5466 41.2731 47.4899V46.256C41.2731 46.1992 41.227 46.1531 41.1701 46.1531Z" fill="#4E4E4E"/>
<path d="M41.1701 46.1531H39.9337C39.8768 46.1531 39.8306 46.1992 39.8306 46.256V47.4899C39.8306 47.5466 39.8768 47.5927 39.9337 47.5927H41.1701C41.227 47.5927 41.2731 47.5466 41.2731 47.4899V46.256C41.2731 46.1992 41.227 46.1531 41.1701 46.1531Z" stroke="#626C84" stroke-linecap="round" stroke-linejoin="round"/>
</g>
<g style="mix-blend-mode:multiply" opacity="0.33">
<path d="M46.06 46.1531H42.3507C42.2938 46.1531 42.2477 46.1992 42.2477 46.256V47.4899C42.2477 47.5466 42.2938 47.5927 42.3507 47.5927H46.06C46.1169 47.5927 46.1631 47.5466 46.1631 47.4899V46.256C46.1631 46.1992 46.1169 46.1531 46.06 46.1531Z" fill="#4E4E4E"/>
<path d="M46.06 46.1531H42.3507C42.2938 46.1531 42.2477 46.1992 42.2477 46.256V47.4899C42.2477 47.5466 42.2938 47.5927 42.3507 47.5927H46.06C46.1169 47.5927 46.1631 47.5466 46.1631 47.4899V46.256C46.1631 46.1992 46.1169 46.1531 46.06 46.1531Z" stroke="#626C84" stroke-linecap="round" stroke-linejoin="round"/>
</g>
<g style="mix-blend-mode:multiply" opacity="0.33">
<path d="M29.2166 44.0473H27.9801C27.9232 44.0473 27.8771 44.0933 27.8771 44.1501V45.384C27.8771 45.4408 27.9232 45.4868 27.9801 45.4868H29.2166C29.2735 45.4868 29.3196 45.4408 29.3196 45.384V44.1501C29.3196 44.0933 29.2735 44.0473 29.2166 44.0473Z" fill="#4E4E4E"/>
<path d="M29.2166 44.0473H27.9801C27.9232 44.0473 27.8771 44.0933 27.8771 44.1501V45.384C27.8771 45.4408 27.9232 45.4868 27.9801 45.4868H29.2166C29.2735 45.4868 29.3196 45.4408 29.3196 45.384V44.1501C29.3196 44.0933 29.2735 44.0473 29.2166 44.0473Z" stroke="#626C84" stroke-linecap="round" stroke-linejoin="round"/>
</g>
<g style="mix-blend-mode:multiply" opacity="0.33">
<path d="M26.987 44.0473H24.5141C24.4572 44.0473 24.4111 44.0933 24.4111 44.1501V45.384C24.4111 45.4408 24.4572 45.4868 24.5141 45.4868H26.987C27.0439 45.4868 27.0901 45.4408 27.0901 45.384V44.1501C27.0901 44.0933 27.0439 44.0473 26.987 44.0473Z" fill="#4E4E4E"/>
<path d="M26.987 44.0473H24.5141C24.4572 44.0473 24.4111 44.0933 24.4111 44.1501V45.384C24.4111 45.4408 24.4572 45.4868 24.5141 45.4868H26.987C27.0439 45.4868 27.0901 45.4408 27.0901 45.384V44.1501C27.0901 44.0933 27.0439 44.0473 26.987 44.0473Z" stroke="#626C84" stroke-linecap="round" stroke-linejoin="round"/>
</g>
<g style="mix-blend-mode:multiply" opacity="0.33">
<path d="M31.446 44.0473H30.2096C30.1527 44.0473 30.1065 44.0933 30.1065 44.1501V45.384C30.1065 45.4408 30.1527 45.4868 30.2096 45.4868H31.446C31.5029 45.4868 31.5491 45.4408 31.5491 45.384V44.1501C31.5491 44.0933 31.5029 44.0473 31.446 44.0473Z" fill="#4E4E4E"/>
<path d="M31.446 44.0473H30.2096C30.1527 44.0473 30.1065 44.0933 30.1065 44.1501V45.384C30.1065 45.4408 30.1527 45.4868 30.2096 45.4868H31.446C31.5029 45.4868 31.5491 45.4408 31.5491 45.384V44.1501C31.5491 44.0933 31.5029 44.0473 31.446 44.0473Z" stroke="#626C84" stroke-linecap="round" stroke-linejoin="round"/>
</g>
<g style="mix-blend-mode:multiply" opacity="0.33">
<path d="M33.6759 44.0473H32.4395C32.3826 44.0473 32.3364 44.0933 32.3364 44.1501V45.384C32.3364 45.4408 32.3826 45.4868 32.4395 45.4868H33.6759C33.7328 45.4868 33.7789 45.4408 33.7789 45.384V44.1501C33.7789 44.0933 33.7328 44.0473 33.6759 44.0473Z" fill="#4E4E4E"/>
<path d="M33.6759 44.0473H32.4395C32.3826 44.0473 32.3364 44.0933 32.3364 44.1501V45.384C32.3364 45.4408 32.3826 45.4868 32.4395 45.4868H33.6759C33.7328 45.4868 33.7789 45.4408 33.7789 45.384V44.1501C33.7789 44.0933 33.7328 44.0473 33.6759 44.0473Z" stroke="#626C84" stroke-linecap="round" stroke-linejoin="round"/>
</g>
<g style="mix-blend-mode:multiply" opacity="0.33">
<path d="M35.9052 44.0473H34.6688C34.6119 44.0473 34.5658 44.0933 34.5658 44.1501V45.384C34.5658 45.4408 34.6119 45.4868 34.6688 45.4868H35.9052C35.9622 45.4868 36.0083 45.4408 36.0083 45.384V44.1501C36.0083 44.0933 35.9622 44.0473 35.9052 44.0473Z" fill="#4E4E4E"/>
<path d="M35.9052 44.0473H34.6688C34.6119 44.0473 34.5658 44.0933 34.5658 44.1501V45.384C34.5658 45.4408 34.6119 45.4868 34.6688 45.4868H35.9052C35.9622 45.4868 36.0083 45.4408 36.0083 45.384V44.1501C36.0083 44.0933 35.9622 44.0473 35.9052 44.0473Z" stroke="#626C84" stroke-linecap="round" stroke-linejoin="round"/>
</g>
<g style="mix-blend-mode:multiply" opacity="0.33">
<path d="M38.1348 44.0473H36.8984C36.8415 44.0473 36.7953 44.0933 36.7953 44.1501V45.384C36.7953 45.4408 36.8415 45.4868 36.8984 45.4868H38.1348C38.1917 45.4868 38.2379 45.4408 38.2379 45.384V44.1501C38.2379 44.0933 38.1917 44.0473 38.1348 44.0473Z" fill="#4E4E4E"/>
<path d="M38.1348 44.0473H36.8984C36.8415 44.0473 36.7953 44.0933 36.7953 44.1501V45.384C36.7953 45.4408 36.8415 45.4868 36.8984 45.4868H38.1348C38.1917 45.4868 38.2379 45.4408 38.2379 45.384V44.1501C38.2379 44.0933 38.1917 44.0473 38.1348 44.0473Z" stroke="#626C84" stroke-linecap="round" stroke-linejoin="round"/>
</g>
<g style="mix-blend-mode:multiply" opacity="0.33">
<path d="M40.3647 44.0473H39.1283C39.0714 44.0473 39.0252 44.0933 39.0252 44.1501V45.384C39.0252 45.4408 39.0714 45.4868 39.1283 45.4868H40.3647C40.4216 45.4868 40.4678 45.4408 40.4678 45.384V44.1501C40.4678 44.0933 40.4216 44.0473 40.3647 44.0473Z" fill="#4E4E4E"/>
<path d="M40.3647 44.0473H39.1283C39.0714 44.0473 39.0252 44.0933 39.0252 44.1501V45.384C39.0252 45.4408 39.0714 45.4868 39.1283 45.4868H40.3647C40.4216 45.4868 40.4678 45.4408 40.4678 45.384V44.1501C40.4678 44.0933 40.4216 44.0473 40.3647 44.0473Z" stroke="#626C84" stroke-linecap="round" stroke-linejoin="round"/>
</g>
<g style="mix-blend-mode:multiply" opacity="0.33">
<path d="M42.594 44.0473H41.3576C41.3007 44.0473 41.2545 44.0933 41.2545 44.1501V45.384C41.2545 45.4408 41.3007 45.4868 41.3576 45.4868H42.594C42.6509 45.4868 42.6971 45.4408 42.6971 45.384V44.1501C42.6971 44.0933 42.6509 44.0473 42.594 44.0473Z" fill="#4E4E4E"/>
<path d="M42.594 44.0473H41.3576C41.3007 44.0473 41.2545 44.0933 41.2545 44.1501V45.384C41.2545 45.4408 41.3007 45.4868 41.3576 45.4868H42.594C42.6509 45.4868 42.6971 45.4408 42.6971 45.384V44.1501C42.6971 44.0933 42.6509 44.0473 42.594 44.0473Z" stroke="#626C84" stroke-linecap="round" stroke-linejoin="round"/>
</g>
<g style="mix-blend-mode:multiply" opacity="0.33">
<path d="M46.0601 44.0473H43.5872C43.5303 44.0473 43.4842 44.0933 43.4842 44.1501V45.384C43.4842 45.4408 43.5303 45.4868 43.5872 45.4868H46.0601C46.117 45.4868 46.1631 45.4408 46.1631 45.384V44.1501C46.1631 44.0933 46.117 44.0473 46.0601 44.0473Z" fill="#4E4E4E"/>
<path d="M46.0601 44.0473H43.5872C43.5303 44.0473 43.4842 44.0933 43.4842 44.1501V45.384C43.4842 45.4408 43.5303 45.4868 43.5872 45.4868H46.0601C46.117 45.4868 46.1631 45.4408 46.1631 45.384V44.1501C46.1631 44.0933 46.117 44.0473 46.0601 44.0473Z" stroke="#626C84" stroke-linecap="round" stroke-linejoin="round"/>
</g>
<g style="mix-blend-mode:multiply" opacity="0.33">
<path d="M28.0071 42.0319H26.7706C26.7137 42.0319 26.6676 42.0779 26.6676 42.1347V43.3686C26.6676 43.4254 26.7137 43.4714 26.7706 43.4714H28.0071C28.064 43.4714 28.1101 43.4254 28.1101 43.3686V42.1347C28.1101 42.0779 28.064 42.0319 28.0071 42.0319Z" fill="#4E4E4E"/>
<path d="M28.0071 42.0319H26.7706C26.7137 42.0319 26.6676 42.0779 26.6676 42.1347V43.3686C26.6676 43.4254 26.7137 43.4714 26.7706 43.4714H28.0071C28.064 43.4714 28.1101 43.4254 28.1101 43.3686V42.1347C28.1101 42.0779 28.064 42.0319 28.0071 42.0319Z" stroke="#626C84" stroke-linecap="round" stroke-linejoin="round"/>
</g>
<g style="mix-blend-mode:multiply" opacity="0.33">
<path d="M25.7506 42.0319H24.5141C24.4572 42.0319 24.4111 42.0779 24.4111 42.1347V43.3686C24.4111 43.4254 24.4572 43.4714 24.5141 43.4714H25.7506C25.8075 43.4714 25.8536 43.4254 25.8536 43.3686V42.1347C25.8536 42.0779 25.8075 42.0319 25.7506 42.0319Z" fill="#4E4E4E"/>
<path d="M25.7506 42.0319H24.5141C24.4572 42.0319 24.4111 42.0779 24.4111 42.1347V43.3686C24.4111 43.4254 24.4572 43.4714 24.5141 43.4714H25.7506C25.8075 43.4714 25.8536 43.4254 25.8536 43.3686V42.1347C25.8536 42.0779 25.8075 42.0319 25.7506 42.0319Z" stroke="#626C84" stroke-linecap="round" stroke-linejoin="round"/>
</g>
<g style="mix-blend-mode:multiply" opacity="0.33">
<path d="M30.264 42.0319H29.0276C28.9707 42.0319 28.9245 42.0779 28.9245 42.1347V43.3686C28.9245 43.4254 28.9707 43.4714 29.0276 43.4714H30.264C30.3209 43.4714 30.367 43.4254 30.367 43.3686V42.1347C30.367 42.0779 30.3209 42.0319 30.264 42.0319Z" fill="#4E4E4E"/>
<path d="M30.264 42.0319H29.0276C28.9707 42.0319 28.9245 42.0779 28.9245 42.1347V43.3686C28.9245 43.4254 28.9707 43.4714 29.0276 43.4714H30.264C30.3209 43.4714 30.367 43.4254 30.367 43.3686V42.1347C30.367 42.0779 30.3209 42.0319 30.264 42.0319Z" stroke="#626C84" stroke-linecap="round" stroke-linejoin="round"/>
</g>
<g style="mix-blend-mode:multiply" opacity="0.33">
<path d="M32.5205 42.0319H31.284C31.2271 42.0319 31.181 42.0779 31.181 42.1347V43.3686C31.181 43.4254 31.2271 43.4714 31.284 43.4714H32.5205C32.5774 43.4714 32.6235 43.4254 32.6235 43.3686V42.1347C32.6235 42.0779 32.5774 42.0319 32.5205 42.0319Z" fill="#4E4E4E"/>
<path d="M32.5205 42.0319H31.284C31.2271 42.0319 31.181 42.0779 31.181 42.1347V43.3686C31.181 43.4254 31.2271 43.4714 31.284 43.4714H32.5205C32.5774 43.4714 32.6235 43.4254 32.6235 43.3686V42.1347C32.6235 42.0779 32.5774 42.0319 32.5205 42.0319Z" stroke="#626C84" stroke-linecap="round" stroke-linejoin="round"/>
</g>
<g style="mix-blend-mode:multiply" opacity="0.33">
<path d="M34.7771 42.0319H33.5407C33.4838 42.0319 33.4377 42.0779 33.4377 42.1347V43.3686C33.4377 43.4254 33.4838 43.4714 33.5407 43.4714H34.7771C34.834 43.4714 34.8802 43.4254 34.8802 43.3686V42.1347C34.8802 42.0779 34.834 42.0319 34.7771 42.0319Z" fill="#4E4E4E"/>
<path d="M34.7771 42.0319H33.5407C33.4838 42.0319 33.4377 42.0779 33.4377 42.1347V43.3686C33.4377 43.4254 33.4838 43.4714 33.5407 43.4714H34.7771C34.834 43.4714 34.8802 43.4254 34.8802 43.3686V42.1347C34.8802 42.0779 34.834 42.0319 34.7771 42.0319Z" stroke="#626C84" stroke-linecap="round" stroke-linejoin="round"/>
</g>
<g style="mix-blend-mode:multiply" opacity="0.33">
<path d="M37.0336 42.0319H35.7972C35.7403 42.0319 35.6941 42.0779 35.6941 42.1347V43.3686C35.6941 43.4254 35.7403 43.4714 35.7972 43.4714H37.0336C37.0905 43.4714 37.1366 43.4254 37.1366 43.3686V42.1347C37.1366 42.0779 37.0905 42.0319 37.0336 42.0319Z" fill="#4E4E4E"/>
<path d="M37.0336 42.0319H35.7972C35.7403 42.0319 35.6941 42.0779 35.6941 42.1347V43.3686C35.6941 43.4254 35.7403 43.4714 35.7972 43.4714H37.0336C37.0905 43.4714 37.1366 43.4254 37.1366 43.3686V42.1347C37.1366 42.0779 37.0905 42.0319 37.0336 42.0319Z" stroke="#626C84" stroke-linecap="round" stroke-linejoin="round"/>
</g>
<g style="mix-blend-mode:multiply" opacity="0.33">
<path d="M39.2901 42.0319H38.0537C37.9968 42.0319 37.9506 42.0779 37.9506 42.1347V43.3686C37.9506 43.4254 37.9968 43.4714 38.0537 43.4714H39.2901C39.347 43.4714 39.3931 43.4254 39.3931 43.3686V42.1347C39.3931 42.0779 39.347 42.0319 39.2901 42.0319Z" fill="#4E4E4E"/>
<path d="M39.2901 42.0319H38.0537C37.9968 42.0319 37.9506 42.0779 37.9506 42.1347V43.3686C37.9506 43.4254 37.9968 43.4714 38.0537 43.4714H39.2901C39.347 43.4714 39.3931 43.4254 39.3931 43.3686V42.1347C39.3931 42.0779 39.347 42.0319 39.2901 42.0319Z" stroke="#626C84" stroke-linecap="round" stroke-linejoin="round"/>
</g>
<g style="mix-blend-mode:multiply" opacity="0.33">
<path d="M41.547 42.0319H40.3106C40.2537 42.0319 40.2076 42.0779 40.2076 42.1347V43.3686C40.2076 43.4254 40.2537 43.4714 40.3106 43.4714H41.547C41.6039 43.4714 41.6501 43.4254 41.6501 43.3686V42.1347C41.6501 42.0779 41.6039 42.0319 41.547 42.0319Z" fill="#4E4E4E"/>
<path d="M41.547 42.0319H40.3106C40.2537 42.0319 40.2076 42.0779 40.2076 42.1347V43.3686C40.2076 43.4254 40.2537 43.4714 40.3106 43.4714H41.547C41.6039 43.4714 41.6501 43.4254 41.6501 43.3686V42.1347C41.6501 42.0779 41.6039 42.0319 41.547 42.0319Z" stroke="#626C84" stroke-linecap="round" stroke-linejoin="round"/>
</g>
<g style="mix-blend-mode:multiply" opacity="0.33">
<path d="M43.8035 42.0319H42.5671C42.5102 42.0319 42.464 42.0779 42.464 42.1347V43.3686C42.464 43.4254 42.5102 43.4714 42.5671 43.4714H43.8035C43.8604 43.4714 43.9065 43.4254 43.9065 43.3686V42.1347C43.9065 42.0779 43.8604 42.0319 43.8035 42.0319Z" fill="#4E4E4E"/>
<path d="M43.8035 42.0319H42.5671C42.5102 42.0319 42.464 42.0779 42.464 42.1347V43.3686C42.464 43.4254 42.5102 43.4714 42.5671 43.4714H43.8035C43.8604 43.4714 43.9065 43.4254 43.9065 43.3686V42.1347C43.9065 42.0779 43.8604 42.0319 43.8035 42.0319Z" stroke="#626C84" stroke-linecap="round" stroke-linejoin="round"/>
</g>
<g style="mix-blend-mode:multiply" opacity="0.33">
<path d="M46.0601 42.0319H44.8237C44.7668 42.0319 44.7206 42.0779 44.7206 42.1347V43.3686C44.7206 43.4254 44.7668 43.4714 44.8237 43.4714H46.0601C46.117 43.4714 46.1632 43.4254 46.1632 43.3686V42.1347C46.1632 42.0779 46.117 42.0319 46.0601 42.0319Z" fill="#4E4E4E"/>
<path d="M46.0601 42.0319H44.8237C44.7668 42.0319 44.7206 42.0779 44.7206 42.1347V43.3686C44.7206 43.4254 44.7668 43.4714 44.8237 43.4714H46.0601C46.117 43.4714 46.1632 43.4254 46.1632 43.3686V42.1347C46.1632 42.0779 46.117 42.0319 46.0601 42.0319Z" stroke="#626C84" stroke-linecap="round" stroke-linejoin="round"/>
</g>
<g style="mix-blend-mode:multiply" opacity="0.33">
<path d="M27.98 48.2014H26.7436C26.6867 48.2014 26.6406 48.2474 26.6406 48.3042V49.5381C26.6406 49.5949 26.6867 49.6409 26.7436 49.6409H27.98C28.037 49.6409 28.0831 49.5949 28.0831 49.5381V48.3042C28.0831 48.2474 28.037 48.2014 27.98 48.2014Z" fill="#4E4E4E"/>
</g>
<g style="mix-blend-mode:multiply" opacity="0.33">
<path d="M25.7506 48.2014H24.5141C24.4572 48.2014 24.4111 48.2474 24.4111 48.3042V49.5381C24.4111 49.5949 24.4572 49.6409 24.5141 49.6409H25.7506C25.8075 49.6409 25.8536 49.5949 25.8536 49.5381V48.3042C25.8536 48.2474 25.8075 48.2014 25.7506 48.2014Z" fill="#4E4E4E"/>
</g>
<g style="mix-blend-mode:multiply" opacity="0.33">
<path d="M39.1282 48.2014H28.9735C28.9166 48.2014 28.8705 48.2474 28.8705 48.3042V49.5381C28.8705 49.5949 28.9166 49.6409 28.9735 49.6409H39.1282C39.1851 49.6409 39.2313 49.5949 39.2313 49.5381V48.3042C39.2313 48.2474 39.1851 48.2014 39.1282 48.2014Z" fill="#4E4E4E"/>
</g>
<g style="mix-blend-mode:multiply" opacity="0.33">
<path d="M41.3576 48.2014H40.1211C40.0642 48.2014 40.0181 48.2474 40.0181 48.3042V49.5381C40.0181 49.5949 40.0642 49.6409 40.1211 49.6409H41.3576C41.4145 49.6409 41.4606 49.5949 41.4606 49.5381V48.3042C41.4606 48.2474 41.4145 48.2014 41.3576 48.2014Z" fill="#4E4E4E"/>
</g>
<g style="mix-blend-mode:multiply" opacity="0.33">
<path d="M44.6176 49.0111H43.7933C43.7364 49.0111 43.6903 49.0571 43.6903 49.1139V49.5381C43.6903 49.5949 43.7364 49.6409 43.7933 49.6409H44.6176C44.6745 49.6409 44.7207 49.5949 44.7207 49.5381V49.1139C44.7207 49.0571 44.6745 49.0111 44.6176 49.0111Z" fill="#4E4E4E"/>
</g>
<g style="mix-blend-mode:multiply" opacity="0.33">
<path d="M44.6176 48.2014H43.7933C43.7364 48.2014 43.6903 48.2474 43.6903 48.3042V48.7283C43.6903 48.7851 43.7364 48.8312 43.7933 48.8312H44.6176C44.6745 48.8312 44.7207 48.7851 44.7207 48.7283V48.3042C44.7207 48.2474 44.6745 48.2014 44.6176 48.2014Z" fill="#4E4E4E"/>
</g>
<g style="mix-blend-mode:multiply" opacity="0.33">
<path d="M46.06 49.0111H45.2357C45.1788 49.0111 45.1326 49.0571 45.1326 49.1139V49.5381C45.1326 49.5949 45.1788 49.6409 45.2357 49.6409H46.06C46.1169 49.6409 46.163 49.5949 46.163 49.5381V49.1139C46.163 49.0571 46.1169 49.0111 46.06 49.0111Z" fill="#4E4E4E"/>
</g>
<g style="mix-blend-mode:multiply" opacity="0.33">
<path d="M43.175 49.0111H42.3507C42.2938 49.0111 42.2477 49.0571 42.2477 49.1139V49.5381C42.2477 49.5949 42.2938 49.6409 42.3507 49.6409H43.175C43.2319 49.6409 43.278 49.5949 43.278 49.5381V49.1139C43.278 49.0571 43.2319 49.0111 43.175 49.0111Z" fill="#4E4E4E"/>
</g>
<g style="mix-blend-mode:multiply" opacity="0.33">
<path d="M27.7741 46.1531H24.5141C24.4572 46.1531 24.4111 46.1992 24.4111 46.256V47.4899C24.4111 47.5466 24.4572 47.5927 24.5141 47.5927H27.7741C27.831 47.5927 27.8772 47.5466 27.8772 47.4899V46.256C27.8772 46.1992 27.831 46.1531 27.7741 46.1531Z" fill="#4E4E4E"/>
</g>
<g style="mix-blend-mode:multiply" opacity="0.33">
<path d="M30.0224 46.1531H28.7859C28.729 46.1531 28.6829 46.1992 28.6829 46.256V47.4899C28.6829 47.5466 28.729 47.5927 28.7859 47.5927H30.0224C30.0793 47.5927 30.1254 47.5466 30.1254 47.4899V46.256C30.1254 46.1992 30.0793 46.1531 30.0224 46.1531Z" fill="#4E4E4E"/>
</g>
<g style="mix-blend-mode:multiply" opacity="0.33">
<path d="M32.2518 46.1531H31.0154C30.9585 46.1531 30.9124 46.1992 30.9124 46.256V47.4899C30.9124 47.5466 30.9585 47.5927 31.0154 47.5927H32.2518C32.3087 47.5927 32.3549 47.5466 32.3549 47.4899V46.256C32.3549 46.1992 32.3087 46.1531 32.2518 46.1531Z" fill="#4E4E4E"/>
</g>
<g style="mix-blend-mode:multiply" opacity="0.33">
<path d="M34.4813 46.1531H33.2449C33.1879 46.1531 33.1418 46.1992 33.1418 46.256V47.4899C33.1418 47.5466 33.1879 47.5927 33.2449 47.5927H34.4813C34.5382 47.5927 34.5843 47.5466 34.5843 47.4899V46.256C34.5843 46.1992 34.5382 46.1531 34.4813 46.1531Z" fill="#4E4E4E"/>
</g>
<g style="mix-blend-mode:multiply" opacity="0.33">
<path d="M36.7112 46.1531H35.4747C35.4178 46.1531 35.3717 46.1992 35.3717 46.256V47.4899C35.3717 47.5466 35.4178 47.5927 35.4747 47.5927H36.7112C36.7681 47.5927 36.8142 47.5466 36.8142 47.4899V46.256C36.8142 46.1992 36.7681 46.1531 36.7112 46.1531Z" fill="#4E4E4E"/>
</g>
<g style="mix-blend-mode:multiply" opacity="0.33">
<path d="M38.9405 46.1531H37.7041C37.6472 46.1531 37.601 46.1992 37.601 46.256V47.4899C37.601 47.5466 37.6472 47.5927 37.7041 47.5927H38.9405C38.9974 47.5927 39.0436 47.5466 39.0436 47.4899V46.256C39.0436 46.1992 38.9974 46.1531 38.9405 46.1531Z" fill="#4E4E4E"/>
</g>
<g style="mix-blend-mode:multiply" opacity="0.33">
<path d="M41.1701 46.1531H39.9337C39.8768 46.1531 39.8306 46.1992 39.8306 46.256V47.4899C39.8306 47.5466 39.8768 47.5927 39.9337 47.5927H41.1701C41.227 47.5927 41.2731 47.5466 41.2731 47.4899V46.256C41.2731 46.1992 41.227 46.1531 41.1701 46.1531Z" fill="#4E4E4E"/>
</g>
<g style="mix-blend-mode:multiply" opacity="0.33">
<path d="M46.06 46.1531H42.3507C42.2938 46.1531 42.2477 46.1992 42.2477 46.256V47.4899C42.2477 47.5466 42.2938 47.5927 42.3507 47.5927H46.06C46.1169 47.5927 46.1631 47.5466 46.1631 47.4899V46.256C46.1631 46.1992 46.1169 46.1531 46.06 46.1531Z" fill="#4E4E4E"/>
</g>
<g style="mix-blend-mode:multiply" opacity="0.33">
<path d="M29.2166 44.0473H27.9801C27.9232 44.0473 27.8771 44.0933 27.8771 44.1501V45.384C27.8771 45.4408 27.9232 45.4868 27.9801 45.4868H29.2166C29.2735 45.4868 29.3196 45.4408 29.3196 45.384V44.1501C29.3196 44.0933 29.2735 44.0473 29.2166 44.0473Z" fill="#4E4E4E"/>
</g>
<g style="mix-blend-mode:multiply" opacity="0.33">
<path d="M26.987 44.0473H24.5141C24.4572 44.0473 24.4111 44.0933 24.4111 44.1501V45.384C24.4111 45.4408 24.4572 45.4868 24.5141 45.4868H26.987C27.0439 45.4868 27.0901 45.4408 27.0901 45.384V44.1501C27.0901 44.0933 27.0439 44.0473 26.987 44.0473Z" fill="#4E4E4E"/>
</g>
<g style="mix-blend-mode:multiply" opacity="0.33">
<path d="M31.446 44.0473H30.2096C30.1527 44.0473 30.1065 44.0933 30.1065 44.1501V45.384C30.1065 45.4408 30.1527 45.4868 30.2096 45.4868H31.446C31.5029 45.4868 31.5491 45.4408 31.5491 45.384V44.1501C31.5491 44.0933 31.5029 44.0473 31.446 44.0473Z" fill="#4E4E4E"/>
</g>
<g style="mix-blend-mode:multiply" opacity="0.33">
<path d="M33.6759 44.0473H32.4395C32.3826 44.0473 32.3364 44.0933 32.3364 44.1501V45.384C32.3364 45.4408 32.3826 45.4868 32.4395 45.4868H33.6759C33.7328 45.4868 33.7789 45.4408 33.7789 45.384V44.1501C33.7789 44.0933 33.7328 44.0473 33.6759 44.0473Z" fill="#4E4E4E"/>
</g>
<g style="mix-blend-mode:multiply" opacity="0.33">
<path d="M35.9052 44.0473H34.6688C34.6119 44.0473 34.5658 44.0933 34.5658 44.1501V45.384C34.5658 45.4408 34.6119 45.4868 34.6688 45.4868H35.9052C35.9622 45.4868 36.0083 45.4408 36.0083 45.384V44.1501C36.0083 44.0933 35.9622 44.0473 35.9052 44.0473Z" fill="#4E4E4E"/>
</g>
<g style="mix-blend-mode:multiply" opacity="0.33">
<path d="M38.1348 44.0473H36.8984C36.8415 44.0473 36.7953 44.0933 36.7953 44.1501V45.384C36.7953 45.4408 36.8415 45.4868 36.8984 45.4868H38.1348C38.1917 45.4868 38.2379 45.4408 38.2379 45.384V44.1501C38.2379 44.0933 38.1917 44.0473 38.1348 44.0473Z" fill="#4E4E4E"/>
</g>
<g style="mix-blend-mode:multiply" opacity="0.33">
<path d="M40.3647 44.0473H39.1283C39.0714 44.0473 39.0252 44.0933 39.0252 44.1501V45.384C39.0252 45.4408 39.0714 45.4868 39.1283 45.4868H40.3647C40.4216 45.4868 40.4678 45.4408 40.4678 45.384V44.1501C40.4678 44.0933 40.4216 44.0473 40.3647 44.0473Z" fill="#4E4E4E"/>
</g>
<g style="mix-blend-mode:multiply" opacity="0.33">
<path d="M42.594 44.0473H41.3576C41.3007 44.0473 41.2545 44.0933 41.2545 44.1501V45.384C41.2545 45.4408 41.3007 45.4868 41.3576 45.4868H42.594C42.6509 45.4868 42.6971 45.4408 42.6971 45.384V44.1501C42.6971 44.0933 42.6509 44.0473 42.594 44.0473Z" fill="#4E4E4E"/>
</g>
<g style="mix-blend-mode:multiply" opacity="0.33">
<path d="M46.0601 44.0473H43.5872C43.5303 44.0473 43.4842 44.0933 43.4842 44.1501V45.384C43.4842 45.4408 43.5303 45.4868 43.5872 45.4868H46.0601C46.117 45.4868 46.1631 45.4408 46.1631 45.384V44.1501C46.1631 44.0933 46.117 44.0473 46.0601 44.0473Z" fill="#4E4E4E"/>
</g>
<g style="mix-blend-mode:multiply" opacity="0.33">
<path d="M28.0071 42.0319H26.7706C26.7137 42.0319 26.6676 42.0779 26.6676 42.1347V43.3686C26.6676 43.4254 26.7137 43.4714 26.7706 43.4714H28.0071C28.064 43.4714 28.1101 43.4254 28.1101 43.3686V42.1347C28.1101 42.0779 28.064 42.0319 28.0071 42.0319Z" fill="#4E4E4E"/>
</g>
<g style="mix-blend-mode:multiply" opacity="0.33">
<path d="M25.7506 42.0319H24.5141C24.4572 42.0319 24.4111 42.0779 24.4111 42.1347V43.3686C24.4111 43.4254 24.4572 43.4714 24.5141 43.4714H25.7506C25.8075 43.4714 25.8536 43.4254 25.8536 43.3686V42.1347C25.8536 42.0779 25.8075 42.0319 25.7506 42.0319Z" fill="#4E4E4E"/>
</g>
<g style="mix-blend-mode:multiply" opacity="0.33">
<path d="M30.264 42.0319H29.0276C28.9707 42.0319 28.9245 42.0779 28.9245 42.1347V43.3686C28.9245 43.4254 28.9707 43.4714 29.0276 43.4714H30.264C30.3209 43.4714 30.367 43.4254 30.367 43.3686V42.1347C30.367 42.0779 30.3209 42.0319 30.264 42.0319Z" fill="#4E4E4E"/>
</g>
<g style="mix-blend-mode:multiply" opacity="0.33">
<path d="M32.5205 42.0319H31.284C31.2271 42.0319 31.181 42.0779 31.181 42.1347V43.3686C31.181 43.4254 31.2271 43.4714 31.284 43.4714H32.5205C32.5774 43.4714 32.6235 43.4254 32.6235 43.3686V42.1347C32.6235 42.0779 32.5774 42.0319 32.5205 42.0319Z" fill="#4E4E4E"/>
</g>
<g style="mix-blend-mode:multiply" opacity="0.33">
<path d="M34.7771 42.0319H33.5407C33.4838 42.0319 33.4377 42.0779 33.4377 42.1347V43.3686C33.4377 43.4254 33.4838 43.4714 33.5407 43.4714H34.7771C34.834 43.4714 34.8802 43.4254 34.8802 43.3686V42.1347C34.8802 42.0779 34.834 42.0319 34.7771 42.0319Z" fill="#4E4E4E"/>
</g>
<g style="mix-blend-mode:multiply" opacity="0.33">
<path d="M37.0336 42.0319H35.7972C35.7403 42.0319 35.6941 42.0779 35.6941 42.1347V43.3686C35.6941 43.4254 35.7403 43.4714 35.7972 43.4714H37.0336C37.0905 43.4714 37.1366 43.4254 37.1366 43.3686V42.1347C37.1366 42.0779 37.0905 42.0319 37.0336 42.0319Z" fill="#4E4E4E"/>
</g>
<g style="mix-blend-mode:multiply" opacity="0.33">
<path d="M39.2901 42.0319H38.0537C37.9968 42.0319 37.9506 42.0779 37.9506 42.1347V43.3686C37.9506 43.4254 37.9968 43.4714 38.0537 43.4714H39.2901C39.347 43.4714 39.3931 43.4254 39.3931 43.3686V42.1347C39.3931 42.0779 39.347 42.0319 39.2901 42.0319Z" fill="#4E4E4E"/>
</g>
<g style="mix-blend-mode:multiply" opacity="0.33">
<path d="M41.547 42.0319H40.3106C40.2537 42.0319 40.2076 42.0779 40.2076 42.1347V43.3686C40.2076 43.4254 40.2537 43.4714 40.3106 43.4714H41.547C41.6039 43.4714 41.6501 43.4254 41.6501 43.3686V42.1347C41.6501 42.0779 41.6039 42.0319 41.547 42.0319Z" fill="#4E4E4E"/>
</g>
<g style="mix-blend-mode:multiply" opacity="0.33">
<path d="M43.8035 42.0319H42.5671C42.5102 42.0319 42.464 42.0779 42.464 42.1347V43.3686C42.464 43.4254 42.5102 43.4714 42.5671 43.4714H43.8035C43.8604 43.4714 43.9065 43.4254 43.9065 43.3686V42.1347C43.9065 42.0779 43.8604 42.0319 43.8035 42.0319Z" fill="#4E4E4E"/>
</g>
<g style="mix-blend-mode:multiply" opacity="0.33">
<path d="M46.0601 42.0319H44.8237C44.7668 42.0319 44.7206 42.0779 44.7206 42.1347V43.3686C44.7206 43.4254 44.7668 43.4714 44.8237 43.4714H46.0601C46.117 43.4714 46.1632 43.4254 46.1632 43.3686V42.1347C46.1632 42.0779 46.117 42.0319 46.0601 42.0319Z" fill="#4E4E4E"/>
</g>
<g style="mix-blend-mode:multiply" opacity="0.33">
<path d="M26.5289 38.7513H44.0452V40.1339C44.0452 40.243 44.0018 40.3476 43.9245 40.4247C43.8472 40.5018 43.7424 40.5452 43.6331 40.5452H26.9411C26.8318 40.5452 26.7269 40.5018 26.6496 40.4247C26.5724 40.3476 26.5289 40.243 26.5289 40.1339V38.7513Z" fill="#4E4E4E"/>
</g>
<g style="mix-blend-mode:multiply" opacity="0.25">
<path d="M43.6331 40.1338H26.9411C26.8318 40.1338 26.7269 40.0905 26.6496 40.0134C26.5724 39.9362 26.5289 39.8316 26.5289 39.7225V40.1338C26.5289 40.2429 26.5724 40.3475 26.6496 40.4247C26.7269 40.5018 26.8318 40.5451 26.9411 40.5451H43.6331C43.7424 40.5451 43.8472 40.5018 43.9245 40.4247C44.0018 40.3475 44.0452 40.2429 44.0452 40.1338V39.7225C44.0452 39.8316 44.0018 39.9362 43.9245 40.0134C43.8472 40.0905 43.7424 40.1338 43.6331 40.1338Z" fill="#4E4E4E"/>
</g>
<g style="mix-blend-mode:multiply" opacity="0.33">
<path d="M26.5289 38.7513H44.0452V40.1339C44.0452 40.243 44.0018 40.3476 43.9245 40.4247C43.8472 40.5018 43.7424 40.5452 43.6331 40.5452H26.9411C26.8318 40.5452 26.7269 40.5018 26.6496 40.4247C26.5724 40.3476 26.5289 40.243 26.5289 40.1339V38.7513Z" fill="#4E4E4E"/>
<path d="M26.5289 38.7513H44.0452V40.1339C44.0452 40.243 44.0018 40.3476 43.9245 40.4247C43.8472 40.5018 43.7424 40.5452 43.6331 40.5452H26.9411C26.8318 40.5452 26.7269 40.5018 26.6496 40.4247C26.5724 40.3476 26.5289 40.243 26.5289 40.1339V38.7513Z" stroke="#46505C" stroke-width="2" stroke-linecap="round" stroke-linejoin="round"/>
</g>
<g style="mix-blend-mode:multiply" opacity="0.33">
<path d="M38.8933 51.0291H31.6807C31.5669 51.0291 31.4746 51.1211 31.4746 51.2347V56.0675C31.4746 56.181 31.5669 56.2731 31.6807 56.2731H38.8933C39.0071 56.2731 39.0994 56.181 39.0994 56.0675V51.2347C39.0994 51.1211 39.0071 51.0291 38.8933 51.0291Z" fill="#4E4E4E"/>
</g>
<g style="mix-blend-mode:multiply" opacity="0.33">
<path d="M38.8933 51.0291H31.6807C31.5669 51.0291 31.4746 51.1211 31.4746 51.2347V56.0675C31.4746 56.181 31.5669 56.2731 31.6807 56.2731H38.8933C39.0071 56.2731 39.0994 56.181 39.0994 56.0675V51.2347C39.0994 51.1211 39.0071 51.0291 38.8933 51.0291Z" fill="#4E4E4E"/>
<path d="M38.8933 51.0291H31.6807C31.5669 51.0291 31.4746 51.1211 31.4746 51.2347V56.0675C31.4746 56.181 31.5669 56.2731 31.6807 56.2731H38.8933C39.0071 56.2731 39.0994 56.181 39.0994 56.0675V51.2347C39.0994 51.1211 39.0071 51.0291 38.8933 51.0291Z" stroke="#626C84" stroke-linecap="round" stroke-linejoin="round"/>
</g>
</g>
<g style="mix-blend-mode:multiply" opacity="0.33">
<g style="mix-blend-mode:multiply" opacity="0.33">
<path d="M12.5677 49.9566L13.3628 48.8226C13.3736 48.8071 13.3901 48.7966 13.4088 48.7933C13.4274 48.79 13.4465 48.7943 13.462 48.8051L14.2735 49.3717C14.289 49.3825 14.2995 49.399 14.3028 49.4176C14.3061 49.4361 14.3019 49.4552 14.291 49.4707L13.496 50.6047C13.4177 50.7164 13.2982 50.7925 13.1637 50.8162C13.0292 50.8399 12.8908 50.8093 12.7788 50.7312L12.6945 50.6723C12.5826 50.5941 12.5063 50.4749 12.4826 50.3406C12.4588 50.2064 12.4894 50.0683 12.5677 49.9566Z" fill="#4E4E4E"/>
<path d="M12.5677 49.9566L13.3628 48.8226C13.3736 48.8071 13.3901 48.7966 13.4088 48.7933C13.4274 48.79 13.4465 48.7943 13.462 48.8051L14.2735 49.3717C14.289 49.3825 14.2995 49.399 14.3028 49.4176C14.3061 49.4361 14.3019 49.4552 14.291 49.4707L13.496 50.6047C13.4177 50.7164 13.2982 50.7925 13.1637 50.8162C13.0292 50.8399 12.8908 50.8093 12.7788 50.7312L12.6945 50.6723C12.5826 50.5941 12.5063 50.4749 12.4826 50.3406C12.4588 50.2064 12.4894 50.0683 12.5677 49.9566Z" stroke="#46505C" stroke-width="3.99818" stroke-linecap="round" stroke-linejoin="round"/>
</g>
<g style="mix-blend-mode:multiply" opacity="0.33">
<path d="M12.5677 49.9566L13.3628 48.8226C13.3736 48.8071 13.3901 48.7966 13.4088 48.7933C13.4274 48.79 13.4465 48.7943 13.462 48.8051L14.2735 49.3717C14.289 49.3825 14.2995 49.399 14.3028 49.4176C14.3061 49.4361 14.3019 49.4552 14.291 49.4707L13.496 50.6047C13.4177 50.7164 13.2982 50.7925 13.1637 50.8162C13.0292 50.8399 12.8908 50.8093 12.7788 50.7312L12.6945 50.6723C12.5826 50.5941 12.5063 50.4749 12.4826 50.3406C12.4588 50.2064 12.4894 50.0683 12.5677 49.9566Z" fill="#4E4E4E"/>
<path d="M12.5677 49.9566L13.3628 48.8226C13.3736 48.8071 13.3901 48.7966 13.4088 48.7933C13.4274 48.79 13.4465 48.7943 13.462 48.8051L14.2735 49.3717C14.289 49.3825 14.2995 49.399 14.3028 49.4176C14.3061 49.4361 14.3019 49.4552 14.291 49.4707L13.496 50.6047C13.4177 50.7164 13.2982 50.7925 13.1637 50.8162C13.0292 50.8399 12.8908 50.8093 12.7788 50.7312L12.6945 50.6723C12.5826 50.5941 12.5063 50.4749 12.4826 50.3406C12.4588 50.2064 12.4894 50.0683 12.5677 49.9566Z" stroke="#46505C" stroke-width="3.99818" stroke-linecap="round" stroke-linejoin="round"/>
</g>
<g style="mix-blend-mode:multiply" opacity="0.33">
<path d="M15.6206 49.9756C17.4743 49.9756 18.9771 48.4759 18.9771 46.626C18.9771 44.776 17.4743 43.2764 15.6206 43.2764C13.7668 43.2764 12.264 44.776 12.264 46.626C12.264 48.4759 13.7668 49.9756 15.6206 49.9756Z" fill="#4E4E4E"/>
<path d="M15.6206 49.9756C17.4743 49.9756 18.9771 48.4759 18.9771 46.626C18.9771 44.776 17.4743 43.2764 15.6206 43.2764C13.7668 43.2764 12.264 44.776 12.264 46.626C12.264 48.4759 13.7668 49.9756 15.6206 49.9756Z" stroke="#46505C" stroke-width="4" stroke-linecap="round" stroke-linejoin="round"/>
</g>
<g style="mix-blend-mode:multiply" opacity="0.33">
<path d="M15.6206 49.9756C17.4743 49.9756 18.9771 48.4759 18.9771 46.626C18.9771 44.776 17.4743 43.2764 15.6206 43.2764C13.7668 43.2764 12.264 44.776 12.264 46.626C12.264 48.4759 13.7668 49.9756 15.6206 49.9756Z" fill="#4E4E4E"/>
<path d="M15.6206 49.9756C17.4743 49.9756 18.9771 48.4759 18.9771 46.626C18.9771 44.776 17.4743 43.2764 15.6206 43.2764C13.7668 43.2764 12.264 44.776 12.264 46.626C12.264 48.4759 13.7668 49.9756 15.6206 49.9756Z" stroke="#46505C" stroke-width="4" stroke-linecap="round" stroke-linejoin="round"/>
</g>
<g style="mix-blend-mode:multiply" opacity="0.33">
<path d="M15.6205 49.2331C17.0633 49.2331 18.233 48.0659 18.233 46.626C18.233 45.1861 17.0633 44.0189 15.6205 44.0189C14.1776 44.0189 13.008 45.1861 13.008 46.626C13.008 48.0659 14.1776 49.2331 15.6205 49.2331Z" fill="#4E4E4E"/>
<path d="M15.6205 49.2331C17.0633 49.2331 18.233 48.0659 18.233 46.626C18.233 45.1861 17.0633 44.0189 15.6205 44.0189C14.1776 44.0189 13.008 45.1861 13.008 46.626C13.008 48.0659 14.1776 49.2331 15.6205 49.2331Z" stroke="#46505C" stroke-width="4" stroke-linecap="round" stroke-linejoin="round"/>
</g>
<g style="mix-blend-mode:multiply" opacity="0.33">
<path d="M15.6205 49.2331C17.0633 49.2331 18.233 48.0659 18.233 46.626C18.233 45.1861 17.0633 44.0189 15.6205 44.0189C14.1776 44.0189 13.008 45.1861 13.008 46.626C13.008 48.0659 14.1776 49.2331 15.6205 49.2331Z" fill="#4E4E4E"/>
<path d="M15.6205 49.2331C17.0633 49.2331 18.233 48.0659 18.233 46.626C18.233 45.1861 17.0633 44.0189 15.6205 44.0189C14.1776 44.0189 13.008 45.1861 13.008 46.626C13.008 48.0659 14.1776 49.2331 15.6205 49.2331Z" stroke="#46505C" stroke-width="4" stroke-linecap="round" stroke-linejoin="round"/>
</g>
<g style="mix-blend-mode:multiply" opacity="0.33">
<path d="M13.9125 46.0848C13.9475 46.0063 13.9853 45.9292 14.0238 45.8539C14.199 45.5113 14.4085 45.1561 14.7428 44.9462C15.0267 44.7679 15.4237 44.6981 15.7314 44.8559C15.9982 44.9926 16.1591 45.2738 16.4025 45.4488C16.5666 45.5492 16.7372 45.6386 16.913 45.7167C17.0905 45.7964 17.2309 45.9406 17.3059 46.1199C17.3883 46.3712 17.2524 46.6394 17.251 46.9038C17.2506 47.0497 17.2912 47.1928 17.3682 47.3169C17.4168 47.3749 17.4481 47.4454 17.4584 47.5204C17.451 47.5684 17.4306 47.6134 17.3995 47.6507C17.3683 47.6881 17.3276 47.7162 17.2816 47.7322C17.0111 47.8598 16.6951 47.8137 16.3975 47.7816C16.0999 47.7496 15.7704 47.7428 15.5352 47.9274C15.4389 48.016 15.3497 48.112 15.2684 48.2145C15.2341 48.2659 15.1888 48.309 15.1358 48.3409C15.0828 48.3727 15.0234 48.3925 14.9619 48.3988C14.9003 48.405 14.8382 48.3976 14.7798 48.3771C14.7215 48.3566 14.6684 48.3234 14.6244 48.28C14.4112 48.1018 14.2261 47.8924 14.0757 47.6589C13.9175 47.4614 13.8057 47.231 13.7487 46.9846C13.6952 46.6787 13.7844 46.3726 13.9125 46.0848Z" fill="#4E4E4E"/>
<path d="M13.9125 46.0848C13.9475 46.0063 13.9853 45.9292 14.0238 45.8539C14.199 45.5113 14.4085 45.1561 14.7428 44.9462C15.0267 44.7679 15.4237 44.6981 15.7314 44.8559C15.9982 44.9926 16.1591 45.2738 16.4025 45.4488C16.5666 45.5492 16.7372 45.6386 16.913 45.7167C17.0905 45.7964 17.2309 45.9406 17.3059 46.1199C17.3883 46.3712 17.2524 46.6394 17.251 46.9038C17.2506 47.0497 17.2912 47.1928 17.3682 47.3169C17.4168 47.3749 17.4481 47.4454 17.4584 47.5204C17.451 47.5684 17.4306 47.6134 17.3995 47.6507C17.3683 47.6881 17.3276 47.7162 17.2816 47.7322C17.0111 47.8598 16.6951 47.8137 16.3975 47.7816C16.0999 47.7496 15.7704 47.7428 15.5352 47.9274C15.4389 48.016 15.3497 48.112 15.2684 48.2145C15.2341 48.2659 15.1888 48.309 15.1358 48.3409C15.0828 48.3727 15.0234 48.3925 14.9619 48.3988C14.9003 48.405 14.8382 48.3976 14.7798 48.3771C14.7215 48.3566 14.6684 48.3234 14.6244 48.28C14.4112 48.1018 14.2261 47.8924 14.0757 47.6589C13.9175 47.4614 13.8057 47.231 13.7487 46.9846C13.6952 46.6787 13.7844 46.3726 13.9125 46.0848Z" stroke="#46505C" stroke-width="4" stroke-linecap="round" stroke-linejoin="round"/>
</g>
<g style="mix-blend-mode:multiply" opacity="0.33">
<path d="M16.1491 48.5998C16.2387 48.5998 16.3113 48.5273 16.3113 48.4379C16.3113 48.3485 16.2387 48.2761 16.1491 48.2761C16.0595 48.2761 15.9869 48.3485 15.9869 48.4379C15.9869 48.5273 16.0595 48.5998 16.1491 48.5998Z" fill="#4E4E4E"/>
<path d="M16.1491 48.5998C16.2387 48.5998 16.3113 48.5273 16.3113 48.4379C16.3113 48.3485 16.2387 48.2761 16.1491 48.2761C16.0595 48.2761 15.9869 48.3485 15.9869 48.4379C15.9869 48.5273 16.0595 48.5998 16.1491 48.5998Z" stroke="#46505C" stroke-width="4" stroke-linecap="round" stroke-linejoin="round"/>
</g>
<g style="mix-blend-mode:multiply" opacity="0.33">
<path d="M15.727 48.6097C15.7891 48.6097 15.8393 48.5595 15.8393 48.4976C15.8393 48.4357 15.7891 48.3856 15.727 48.3856C15.665 48.3856 15.6147 48.4357 15.6147 48.4976C15.6147 48.5595 15.665 48.6097 15.727 48.6097Z" fill="#4E4E4E"/>
<path d="M15.727 48.6097C15.7891 48.6097 15.8393 48.5595 15.8393 48.4976C15.8393 48.4357 15.7891 48.3856 15.727 48.3856C15.665 48.3856 15.6147 48.4357 15.6147 48.4976C15.6147 48.5595 15.665 48.6097 15.727 48.6097Z" stroke="#46505C" stroke-width="4" stroke-linecap="round" stroke-linejoin="round"/>
</g>
<g style="mix-blend-mode:multiply" opacity="0.33">
<path d="M16.5322 48.389C16.5884 48.389 16.634 48.3435 16.634 48.2874C16.634 48.2313 16.5884 48.1858 16.5322 48.1858C16.4759 48.1858 16.4304 48.2313 16.4304 48.2874C16.4304 48.3435 16.4759 48.389 16.5322 48.389Z" fill="#4E4E4E"/>
<path d="M16.5322 48.389C16.5884 48.389 16.634 48.3435 16.634 48.2874C16.634 48.2313 16.5884 48.1858 16.5322 48.1858C16.4759 48.1858 16.4304 48.2313 16.4304 48.2874C16.4304 48.3435 16.4759 48.389 16.5322 48.389Z" stroke="#46505C" stroke-width="4" stroke-linecap="round" stroke-linejoin="round"/>
</g>
<g style="mix-blend-mode:multiply" opacity="0.33">
<path d="M15.3714 48.6123C15.4117 48.6123 15.4443 48.5797 15.4443 48.5395C15.4443 48.4993 15.4117 48.4667 15.3714 48.4667C15.3311 48.4667 15.2984 48.4993 15.2984 48.5395C15.2984 48.5797 15.3311 48.6123 15.3714 48.6123Z" fill="#4E4E4E"/>
<path d="M15.3714 48.6123C15.4117 48.6123 15.4443 48.5797 15.4443 48.5395C15.4443 48.4993 15.4117 48.4667 15.3714 48.4667C15.3311 48.4667 15.2984 48.4993 15.2984 48.5395C15.2984 48.5797 15.3311 48.6123 15.3714 48.6123Z" stroke="#46505C" stroke-width="4" stroke-linecap="round" stroke-linejoin="round"/>
</g>
<g style="mix-blend-mode:multiply" opacity="0.33">
<path d="M16.8538 48.2245C16.8784 48.2245 16.8983 48.2046 16.8983 48.18C16.8983 48.1555 16.8784 48.1356 16.8538 48.1356C16.8292 48.1356 16.8093 48.1555 16.8093 48.18C16.8093 48.2046 16.8292 48.2245 16.8538 48.2245Z" fill="#4E4E4E"/>
<path d="M16.8538 48.2245C16.8784 48.2245 16.8983 48.2046 16.8983 48.18C16.8983 48.1555 16.8784 48.1356 16.8538 48.1356C16.8292 48.1356 16.8093 48.1555 16.8093 48.18C16.8093 48.2046 16.8292 48.2245 16.8538 48.2245Z" stroke="#46505C" stroke-width="4" stroke-linecap="round" stroke-linejoin="round"/>
</g>
<g style="mix-blend-mode:multiply" opacity="0.33">
<path d="M13.5936 46.1142C13.6513 46.1142 13.698 46.0676 13.698 46.01C13.698 45.9524 13.6513 45.9057 13.5936 45.9057C13.5359 45.9057 13.4891 45.9524 13.4891 46.01C13.4891 46.0676 13.5359 46.1142 13.5936 46.1142Z" fill="#4E4E4E"/>
<path d="M13.5936 46.1142C13.6513 46.1142 13.698 46.0676 13.698 46.01C13.698 45.9524 13.6513 45.9057 13.5936 45.9057C13.5359 45.9057 13.4891 45.9524 13.4891 46.01C13.4891 46.0676 13.5359 46.1142 13.5936 46.1142Z" stroke="#46505C" stroke-width="4" stroke-linecap="round" stroke-linejoin="round"/>
</g>
<g style="mix-blend-mode:multiply" opacity="0.33">
<path d="M16.4377 44.895C16.492 44.895 16.536 44.8511 16.536 44.7969C16.536 44.7427 16.492 44.6988 16.4377 44.6988C16.3834 44.6988 16.3394 44.7427 16.3394 44.7969C16.3394 44.8511 16.3834 44.895 16.4377 44.895Z" fill="#4E4E4E"/>
<path d="M16.4377 44.895C16.492 44.895 16.536 44.8511 16.536 44.7969C16.536 44.7427 16.492 44.6988 16.4377 44.6988C16.3834 44.6988 16.3394 44.7427 16.3394 44.7969C16.3394 44.8511 16.3834 44.895 16.4377 44.895Z" stroke="#46505C" stroke-width="4" stroke-linecap="round" stroke-linejoin="round"/>
</g>
<g style="mix-blend-mode:multiply" opacity="0.33">
<path d="M17.0768 45.369C17.1259 45.369 17.1658 45.3292 17.1658 45.2802C17.1658 45.2311 17.1259 45.1913 17.0768 45.1913C17.0276 45.1913 16.9877 45.2311 16.9877 45.2802C16.9877 45.3292 17.0276 45.369 17.0768 45.369Z" fill="#4E4E4E"/>
<path d="M17.0768 45.369C17.1259 45.369 17.1658 45.3292 17.1658 45.2802C17.1658 45.2311 17.1259 45.1913 17.0768 45.1913C17.0276 45.1913 16.9877 45.2311 16.9877 45.2802C16.9877 45.3292 17.0276 45.369 17.0768 45.369Z" stroke="#46505C" stroke-width="4" stroke-linecap="round" stroke-linejoin="round"/>
</g>
<g style="mix-blend-mode:multiply" opacity="0.33">
<path d="M17.1498 45.5707C17.1713 45.5707 17.1888 45.5533 17.1888 45.5318C17.1888 45.5103 17.1713 45.4929 17.1498 45.4929C17.1283 45.4929 17.1109 45.5103 17.1109 45.5318C17.1109 45.5533 17.1283 45.5707 17.1498 45.5707Z" fill="#4E4E4E"/>
<path d="M17.1498 45.5707C17.1713 45.5707 17.1888 45.5533 17.1888 45.5318C17.1888 45.5103 17.1713 45.4929 17.1498 45.4929C17.1283 45.4929 17.1109 45.5103 17.1109 45.5318C17.1109 45.5533 17.1283 45.5707 17.1498 45.5707Z" stroke="#46505C" stroke-width="4" stroke-linecap="round" stroke-linejoin="round"/>
</g>
</g>
<path d="M11.8383 49.1306L12.6338 47.9963C12.6447 47.9809 12.6612 47.9703 12.6798 47.967C12.6985 47.9638 12.7176 47.968 12.7331 47.9788L13.5449 48.5458C13.5603 48.5566 13.5709 48.5731 13.5742 48.5917C13.5775 48.6103 13.5732 48.6294 13.5624 48.6449L12.7668 49.7792C12.6885 49.8909 12.5689 49.967 12.4343 49.9907C12.2998 50.0144 12.1613 49.9838 12.0493 49.9056L11.9649 49.8466C11.853 49.7684 11.7767 49.6491 11.753 49.5148C11.7292 49.3805 11.7599 49.2423 11.8383 49.1306Z" fill="white" stroke="#E6F3FF" stroke-width="2" stroke-miterlimit="10"/>
<path opacity="0.18" d="M12.7333 47.979C12.7178 47.9682 12.6986 47.964 12.68 47.9673C12.6614 47.9706 12.6449 47.9811 12.634 47.9966L12.2758 48.5072C12.4131 48.6378 12.5602 48.7579 12.7157 48.8665C12.8711 48.9749 13.0344 49.0717 13.2043 49.1559L13.5625 48.6451C13.5679 48.6374 13.5717 48.6288 13.5738 48.6197C13.5758 48.6106 13.576 48.6011 13.5744 48.5919C13.5727 48.5827 13.5693 48.574 13.5643 48.5661C13.5592 48.5582 13.5527 48.5514 13.545 48.5461L12.7333 47.979Z" fill="#4E4E4E" stroke="#46505C" stroke-width="4" stroke-linecap="round" stroke-linejoin="round"/>
<path d="M11.8383 49.1306L12.6338 47.9963C12.6447 47.9809 12.6612 47.9703 12.6798 47.967C12.6985 47.9638 12.7176 47.968 12.7331 47.9788L13.5449 48.5458C13.5603 48.5566 13.5709 48.5731 13.5742 48.5917C13.5775 48.6103 13.5732 48.6294 13.5624 48.6449L12.7668 49.7792C12.6885 49.8909 12.5689 49.967 12.4343 49.9907C12.2998 50.0144 12.1613 49.9838 12.0493 49.9056L11.9649 49.8466C11.853 49.7684 11.7767 49.6491 11.753 49.5148C11.7292 49.3805 11.7599 49.2423 11.8383 49.1306V49.1306Z" stroke="#46505C" stroke-width="4" stroke-linecap="round" stroke-linejoin="round"/>
<path d="M14.8765 49.1349C16.7303 49.1349 18.2331 47.6352 18.2331 45.7853C18.2331 43.9353 16.7303 42.4357 14.8765 42.4357C13.0228 42.4357 11.52 43.9353 11.52 45.7853C11.52 47.6352 13.0228 49.1349 14.8765 49.1349Z" fill="white" stroke="#E6F3FF" stroke-width="2" stroke-miterlimit="10"/>
<path d="M14.8765 49.1349C16.7303 49.1349 18.2331 47.6352 18.2331 45.7853C18.2331 43.9353 16.7303 42.4357 14.8765 42.4357C13.0228 42.4357 11.52 43.9353 11.52 45.7853C11.52 47.6352 13.0228 49.1349 14.8765 49.1349Z" stroke="#46505C" stroke-width="4" stroke-linecap="round" stroke-linejoin="round"/>
<path d="M14.8763 48.3924C16.3191 48.3924 17.4888 47.2252 17.4888 45.7853C17.4888 44.3454 16.3191 43.1782 14.8763 43.1782C13.4334 43.1782 12.2638 44.3454 12.2638 45.7853C12.2638 47.2252 13.4334 48.3924 14.8763 48.3924Z" fill="#845B5B"/>
<path d="M14.8763 48.3924C16.3191 48.3924 17.4888 47.2252 17.4888 45.7853C17.4888 44.3454 16.3191 43.1782 14.8763 43.1782C13.4334 43.1782 12.2638 44.3454 12.2638 45.7853C12.2638 47.2252 13.4334 48.3924 14.8763 48.3924Z" stroke="#46505C" stroke-width="2" stroke-linecap="round" stroke-linejoin="round"/>
<g style="mix-blend-mode:multiply" opacity="0.33">
<path d="M13.1688 45.244C13.2037 45.1655 13.2415 45.0884 13.2801 45.013C13.4552 44.6705 13.6648 44.3153 13.9991 44.1054C14.283 43.9271 14.6799 43.8574 14.9876 44.015C15.2545 44.1517 15.4153 44.4331 15.6588 44.608C15.8229 44.7081 15.9935 44.7974 16.1693 44.8753C16.3468 44.9551 16.4872 45.0991 16.5622 45.2782C16.6447 45.5296 16.5088 45.7978 16.5073 46.0621C16.5068 46.208 16.5474 46.3511 16.6245 46.4752C16.6731 46.5332 16.7044 46.6037 16.7147 46.6787C16.7073 46.7267 16.687 46.7718 16.6559 46.8091C16.6247 46.8464 16.584 46.8746 16.538 46.8906C16.2673 47.0181 15.9513 46.9721 15.6537 46.9399C15.3562 46.9078 15.0268 46.9012 14.7914 47.0857C14.6952 47.1744 14.606 47.2704 14.5247 47.3728C14.4903 47.4242 14.4451 47.4673 14.3921 47.4992C14.3391 47.531 14.2797 47.5508 14.2182 47.5571C14.1566 47.5633 14.0945 47.5559 14.0361 47.5354C13.9778 47.5149 13.9247 47.4818 13.8807 47.4384C13.6674 47.2601 13.4824 47.0507 13.3319 46.8172C13.1739 46.6198 13.0622 46.3896 13.0053 46.1435C12.951 45.8379 13.0407 45.5318 13.1688 45.244Z" fill="#845B5B"/>
</g>
<g style="mix-blend-mode:multiply" opacity="0.33">
<path d="M15.4049 47.7589C15.4945 47.7589 15.5671 47.6864 15.5671 47.597C15.5671 47.5076 15.4945 47.4352 15.4049 47.4352C15.3153 47.4352 15.2427 47.5076 15.2427 47.597C15.2427 47.6864 15.3153 47.7589 15.4049 47.7589Z" fill="#845B5B"/>
</g>
<g style="mix-blend-mode:multiply" opacity="0.33">
<path d="M14.9828 47.7688C15.0449 47.7688 15.0951 47.7187 15.0951 47.6568C15.0951 47.5949 15.0449 47.5447 14.9828 47.5447C14.9208 47.5447 14.8705 47.5949 14.8705 47.6568C14.8705 47.7187 14.9208 47.7688 14.9828 47.7688Z" fill="#845B5B"/>
</g>
<g style="mix-blend-mode:multiply" opacity="0.33">
<path d="M15.7878 47.5482C15.8441 47.5482 15.8896 47.5027 15.8896 47.4466C15.8896 47.3905 15.8441 47.345 15.7878 47.345C15.7316 47.345 15.686 47.3905 15.686 47.4466C15.686 47.5027 15.7316 47.5482 15.7878 47.5482Z" fill="#845B5B"/>
</g>
<g style="mix-blend-mode:multiply" opacity="0.33">
<path d="M14.6273 47.7716C14.6676 47.7716 14.7003 47.739 14.7003 47.6988C14.7003 47.6586 14.6676 47.626 14.6273 47.626C14.587 47.626 14.5544 47.6586 14.5544 47.6988C14.5544 47.739 14.587 47.7716 14.6273 47.7716Z" fill="#845B5B"/>
</g>
<g style="mix-blend-mode:multiply" opacity="0.33">
<path d="M16.1099 47.3836C16.1344 47.3836 16.1544 47.3637 16.1544 47.3392C16.1544 47.3147 16.1344 47.2948 16.1099 47.2948C16.0853 47.2948 16.0653 47.3147 16.0653 47.3392C16.0653 47.3637 16.0853 47.3836 16.1099 47.3836Z" fill="#845B5B"/>
</g>
<g style="mix-blend-mode:multiply" opacity="0.33">
<path d="M12.8494 45.2735C12.9071 45.2735 12.9538 45.2269 12.9538 45.1693C12.9538 45.1117 12.9071 45.065 12.8494 45.065C12.7917 45.065 12.7449 45.1117 12.7449 45.1693C12.7449 45.2269 12.7917 45.2735 12.8494 45.2735Z" fill="#845B5B"/>
</g>
<g style="mix-blend-mode:multiply" opacity="0.33">
<path d="M15.6935 44.0541C15.7478 44.0541 15.7918 44.0102 15.7918 43.956C15.7918 43.9018 15.7478 43.8579 15.6935 43.8579C15.6393 43.8579 15.5952 43.9018 15.5952 43.956C15.5952 44.0102 15.6393 44.0541 15.6935 44.0541Z" fill="#845B5B"/>
</g>
<g style="mix-blend-mode:multiply" opacity="0.33">
<path d="M16.3326 44.5281C16.3818 44.5281 16.4216 44.4884 16.4216 44.4393C16.4216 44.3902 16.3818 44.3505 16.3326 44.3505C16.2834 44.3505 16.2436 44.3902 16.2436 44.4393C16.2436 44.4884 16.2834 44.5281 16.3326 44.5281Z" fill="#845B5B"/>
</g>
<g style="mix-blend-mode:multiply" opacity="0.33">
<path d="M16.4056 44.7299C16.4272 44.7299 16.4446 44.7125 16.4446 44.691C16.4446 44.6696 16.4272 44.6522 16.4056 44.6522C16.3841 44.6522 16.3667 44.6696 16.3667 44.691C16.3667 44.7125 16.3841 44.7299 16.4056 44.7299Z" fill="#845B5B"/>
</g>
<path d="M15.1054 46.2062C15.2192 46.2062 15.3114 46.1142 15.3114 46.0006C15.3114 45.887 15.2192 45.7949 15.1054 45.7949C14.9916 45.7949 14.8993 45.887 14.8993 46.0006C14.8993 46.1142 14.9916 46.2062 15.1054 46.2062Z" fill="#845B5B"/>
<path d="M14.4342 45.5707C14.6333 45.5707 14.7948 45.4095 14.7948 45.2108C14.7948 45.012 14.6333 44.8509 14.4342 44.8509C14.235 44.8509 14.0735 45.012 14.0735 45.2108C14.0735 45.4095 14.235 45.5707 14.4342 45.5707Z" fill="#845B5B"/>
<path d="M46.4201 21.8433H22.5155C21.7188 21.8433 21.0729 22.4878 21.0729 23.2829V37.267C21.0729 38.0621 21.7188 38.7066 22.5155 38.7066H46.4201C47.2167 38.7066 47.8626 38.0621 47.8626 37.267V23.2829C47.8626 22.4878 47.2167 21.8433 46.4201 21.8433Z" stroke="black" stroke-linecap="round" stroke-linejoin="round"/>
<path d="M46.4201 21.8433H22.5155C21.7188 21.8433 21.0729 22.4878 21.0729 23.2829V37.267C21.0729 38.0621 21.7188 38.7066 22.5155 38.7066H46.4201C47.2167 38.7066 47.8626 38.0621 47.8626 37.267V23.2829C47.8626 22.4878 47.2167 21.8433 46.4201 21.8433Z" fill="#626C84"/>
<path d="M46.4201 21.8433H22.5155C21.7188 21.8433 21.0729 22.4878 21.0729 23.2829V37.267C21.0729 38.0621 21.7188 38.7066 22.5155 38.7066H46.4201C47.2167 38.7066 47.8626 38.0621 47.8626 37.267V23.2829C47.8626 22.4878 47.2167 21.8433 46.4201 21.8433Z" fill="#626C84"/>
<g style="mix-blend-mode:multiply" opacity="0.17">
<path d="M46.4201 21.8433H22.5155C21.7188 21.8433 21.0729 22.4878 21.0729 23.2829V36.3433C21.0729 37.1383 21.7188 37.7828 22.5155 37.7828H46.4201C47.2167 37.7828 47.8626 37.1383 47.8626 36.3433V23.2829C47.8626 22.4878 47.2167 21.8433 46.4201 21.8433Z" fill="#626C84"/>
</g>
<path opacity="0.1" d="M22.5155 22.2542H46.4201C46.8026 22.2542 47.1696 22.4059 47.4401 22.6758C47.7106 22.9458 47.8626 23.3119 47.8626 23.6937V37.2666V23.2824C47.8626 22.9007 47.7106 22.5345 47.4401 22.2645C47.1696 21.9946 46.8026 21.8429 46.4201 21.8429H22.5155C22.1329 21.8429 21.766 21.9946 21.4954 22.2645C21.2249 22.5345 21.0729 22.9007 21.0729 23.2824V23.6937C21.0729 23.3119 21.2249 22.9458 21.4954 22.6758C21.766 22.4059 22.1329 22.2542 22.5155 22.2542Z" fill="white"/>
<g opacity="0.1">
<path opacity="0.1" d="M29.2361 38.7066H30.8918L43.1689 21.8433H41.5132L29.2361 38.7066Z" fill="white"/>
<path opacity="0.1" d="M31.8469 38.7067H32.3563L44.6336 21.8434H44.1241L31.8469 38.7067Z" fill="white"/>
</g>
<path d="M46.4201 21.8433H22.5155C21.7188 21.8433 21.0729 22.4878 21.0729 23.2829V37.267C21.0729 38.0621 21.7188 38.7066 22.5155 38.7066H46.4201C47.2167 38.7066 47.8626 38.0621 47.8626 37.267V23.2829C47.8626 22.4878 47.2167 21.8433 46.4201 21.8433Z" stroke="#46505C" stroke-width="4" stroke-linecap="round" stroke-linejoin="round"/>
<path d="M46.0079 36.6995V23.7435H22.9276V36.6995H46.0079Z" fill="#FD848E"/>
<g opacity="0.06">
<path opacity="0.06" d="M30.8004 36.6995H32.4561L41.8885 23.7435H40.2328L30.8004 36.6995Z" fill="white"/>
<path opacity="0.06" d="M33.4112 36.6993H33.9207L43.3532 23.7434H42.8438L33.4112 36.6993Z" fill="white"/>
</g>
<path d="M46.0079 36.6995V23.7435H22.9276V36.6995H46.0079Z" stroke="#46505C" stroke-linecap="round" stroke-linejoin="round"/>
<path d="M46.4201 38.7065H22.5155C21.7188 38.7065 21.0729 39.351 21.0729 40.1461V54.9529C21.0729 55.7479 21.7188 56.3924 22.5155 56.3924H46.4201C47.2167 56.3924 47.8626 55.7479 47.8626 54.9529V40.1461C47.8626 39.351 47.2167 38.7065 46.4201 38.7065Z" fill="#E6F3FF"/>
<path d="M47.4505 54.9529V40.1462C47.4505 39.5783 46.9892 39.1179 46.4202 39.1179H22.5156C21.9465 39.1179 21.4852 39.5783 21.4852 40.1462V54.9529C21.4852 55.5208 21.9465 55.9812 22.5156 55.9812H46.4202C46.9892 55.9812 47.4505 55.5208 47.4505 54.9529Z" fill="white" stroke="#E6F3FF" stroke-width="2" stroke-miterlimit="10"/>
<path d="M32.814 55.5884H36.1215C36.2308 55.5884 36.3356 55.6317 36.4129 55.7088C36.4902 55.786 36.5336 55.8906 36.5336 55.9997V56.3925H32.4018V55.9997C32.4018 55.8906 32.4452 55.786 32.5225 55.7088C32.5998 55.6317 32.7047 55.5884 32.814 55.5884Z" fill="#E6F3FF"/>
<path d="M46.4201 38.7065H22.5155C21.7188 38.7065 21.0729 39.351 21.0729 40.1461V54.9529C21.0729 55.7479 21.7188 56.3924 22.5155 56.3924H46.4201C47.2167 56.3924 47.8626 55.7479 47.8626 54.9529V40.1461C47.8626 39.351 47.2167 38.7065 46.4201 38.7065Z" stroke="#46505C" stroke-width="4" stroke-linecap="round" stroke-linejoin="round"/>
<path d="M46.0078 40.0864H22.9275C22.7567 40.0864 22.6183 40.2245 22.6183 40.3949V49.2378C22.6183 49.4082 22.7567 49.5463 22.9275 49.5463H46.0078C46.1785 49.5463 46.3169 49.4082 46.3169 49.2378V40.3949C46.3169 40.2245 46.1785 40.0864 46.0078 40.0864Z" fill="#E6F3FF"/>
<path d="M27.1606 47.2327H25.9241C25.8672 47.2327 25.8211 47.2788 25.8211 47.3356V48.5694C25.8211 48.6262 25.8672 48.6723 25.9241 48.6723H27.1606C27.2175 48.6723 27.2636 48.6262 27.2636 48.5694V47.3356C27.2636 47.2788 27.2175 47.2327 27.1606 47.2327Z" stroke="#626C84" stroke-linecap="round" stroke-linejoin="round"/>
<path d="M24.9312 47.2327H23.6948C23.6379 47.2327 23.5918 47.2788 23.5918 47.3356V48.5694C23.5918 48.6262 23.6379 48.6723 23.6948 48.6723H24.9312C24.9882 48.6723 25.0343 48.6262 25.0343 48.5694V47.3356C25.0343 47.2788 24.9882 47.2327 24.9312 47.2327Z" stroke="#626C84" stroke-linecap="round" stroke-linejoin="round"/>
<path d="M38.3088 47.2327H28.154C28.0971 47.2327 28.051 47.2788 28.051 47.3356V48.5694C28.051 48.6262 28.0971 48.6723 28.154 48.6723H38.3088C38.3657 48.6723 38.4118 48.6262 38.4118 48.5694V47.3356C38.4118 47.2788 38.3657 47.2327 38.3088 47.2327Z" stroke="#626C84" stroke-linecap="round" stroke-linejoin="round"/>
<path d="M40.5382 47.2327H39.3018C39.2449 47.2327 39.1987 47.2788 39.1987 47.3356V48.5694C39.1987 48.6262 39.2449 48.6723 39.3018 48.6723H40.5382C40.5951 48.6723 40.6412 48.6262 40.6412 48.5694V47.3356C40.6412 47.2788 40.5951 47.2327 40.5382 47.2327Z" stroke="#626C84" stroke-linecap="round" stroke-linejoin="round"/>
<path d="M43.798 48.0425H42.9737C42.9168 48.0425 42.8707 48.0885 42.8707 48.1453V48.5695C42.8707 48.6262 42.9168 48.6723 42.9737 48.6723H43.798C43.8549 48.6723 43.9011 48.6262 43.9011 48.5695V48.1453C43.9011 48.0885 43.8549 48.0425 43.798 48.0425Z" stroke="#626C84" stroke-linecap="round" stroke-linejoin="round"/>
<path d="M43.798 47.2327H42.9737C42.9168 47.2327 42.8707 47.2788 42.8707 47.3356V47.7597C42.8707 47.8165 42.9168 47.8625 42.9737 47.8625H43.798C43.8549 47.8625 43.9011 47.8165 43.9011 47.7597V47.3356C43.9011 47.2788 43.8549 47.2327 43.798 47.2327Z" stroke="#626C84" stroke-linecap="round" stroke-linejoin="round"/>
<path d="M45.2408 48.0425H44.4165C44.3596 48.0425 44.3134 48.0885 44.3134 48.1453V48.5695C44.3134 48.6262 44.3596 48.6723 44.4165 48.6723H45.2408C45.2977 48.6723 45.3438 48.6262 45.3438 48.5695V48.1453C45.3438 48.0885 45.2977 48.0425 45.2408 48.0425Z" stroke="#626C84" stroke-linecap="round" stroke-linejoin="round"/>
<path d="M42.3558 48.0425H41.5315C41.4746 48.0425 41.4285 48.0885 41.4285 48.1453V48.5695C41.4285 48.6262 41.4746 48.6723 41.5315 48.6723H42.3558C42.4127 48.6723 42.4588 48.6262 42.4588 48.5695V48.1453C42.4588 48.0885 42.4127 48.0425 42.3558 48.0425Z" stroke="#626C84" stroke-linecap="round" stroke-linejoin="round"/>
<path d="M26.9548 45.1845H23.6948C23.6379 45.1845 23.5918 45.2305 23.5918 45.2873V46.5212C23.5918 46.578 23.6379 46.6241 23.6948 46.6241H26.9548C27.0117 46.6241 27.0578 46.578 27.0578 46.5212V45.2873C27.0578 45.2305 27.0117 45.1845 26.9548 45.1845Z" stroke="#626C84" stroke-linecap="round" stroke-linejoin="round"/>
<path d="M29.203 45.1845H27.9666C27.9097 45.1845 27.8636 45.2305 27.8636 45.2873V46.5212C27.8636 46.578 27.9097 46.6241 27.9666 46.6241H29.203C29.2599 46.6241 29.3061 46.578 29.3061 46.5212V45.2873C29.3061 45.2305 29.2599 45.1845 29.203 45.1845Z" stroke="#626C84" stroke-linecap="round" stroke-linejoin="round"/>
<path d="M31.4324 45.1845H30.1959C30.139 45.1845 30.0929 45.2305 30.0929 45.2873V46.5212C30.0929 46.578 30.139 46.6241 30.1959 46.6241H31.4324C31.4893 46.6241 31.5354 46.578 31.5354 46.5212V45.2873C31.5354 45.2305 31.4893 45.1845 31.4324 45.1845Z" stroke="#626C84" stroke-linecap="round" stroke-linejoin="round"/>
<path d="M33.6622 45.1845H32.4258C32.3689 45.1845 32.3228 45.2305 32.3228 45.2873V46.5212C32.3228 46.578 32.3689 46.6241 32.4258 46.6241H33.6622C33.7191 46.6241 33.7653 46.578 33.7653 46.5212V45.2873C33.7653 45.2305 33.7191 45.1845 33.6622 45.1845Z" stroke="#626C84" stroke-linecap="round" stroke-linejoin="round"/>
<path d="M35.8917 45.1845H34.6553C34.5983 45.1845 34.5522 45.2305 34.5522 45.2873V46.5212C34.5522 46.578 34.5983 46.6241 34.6553 46.6241H35.8917C35.9486 46.6241 35.9947 46.578 35.9947 46.5212V45.2873C35.9947 45.2305 35.9486 45.1845 35.8917 45.1845Z" stroke="#626C84" stroke-linecap="round" stroke-linejoin="round"/>
<path d="M38.1212 45.1845H36.8847C36.8278 45.1845 36.7817 45.2305 36.7817 45.2873V46.5212C36.7817 46.578 36.8278 46.6241 36.8847 46.6241H38.1212C38.1781 46.6241 38.2242 46.578 38.2242 46.5212V45.2873C38.2242 45.2305 38.1781 45.1845 38.1212 45.1845Z" stroke="#626C84" stroke-linecap="round" stroke-linejoin="round"/>
<path d="M40.3509 45.1845H39.1145C39.0576 45.1845 39.0114 45.2305 39.0114 45.2873V46.5212C39.0114 46.578 39.0576 46.6241 39.1145 46.6241H40.3509C40.4078 46.6241 40.454 46.578 40.454 46.5212V45.2873C40.454 45.2305 40.4078 45.1845 40.3509 45.1845Z" stroke="#626C84" stroke-linecap="round" stroke-linejoin="round"/>
<path d="M45.2408 45.1845H41.5315C41.4746 45.1845 41.4285 45.2305 41.4285 45.2873V46.5212C41.4285 46.578 41.4746 46.6241 41.5315 46.6241H45.2408C45.2977 46.6241 45.3439 46.578 45.3439 46.5212V45.2873C45.3439 45.2305 45.2977 45.1845 45.2408 45.1845Z" stroke="#626C84" stroke-linecap="round" stroke-linejoin="round"/>
<path d="M28.3971 43.0787H27.1606C27.1037 43.0787 27.0576 43.1247 27.0576 43.1815V44.4154C27.0576 44.4722 27.1037 44.5182 27.1606 44.5182H28.3971C28.454 44.5182 28.5001 44.4722 28.5001 44.4154V43.1815C28.5001 43.1247 28.454 43.0787 28.3971 43.0787Z" stroke="#626C84" stroke-linecap="round" stroke-linejoin="round"/>
<path d="M26.1677 43.0787H23.6948C23.6379 43.0787 23.5918 43.1247 23.5918 43.1815V44.4154C23.5918 44.4722 23.6379 44.5182 23.6948 44.5182H26.1677C26.2246 44.5182 26.2707 44.4722 26.2707 44.4154V43.1815C26.2707 43.1247 26.2246 43.0787 26.1677 43.0787Z" stroke="#626C84" stroke-linecap="round" stroke-linejoin="round"/>
<path d="M30.627 43.0787H29.3905C29.3336 43.0787 29.2875 43.1247 29.2875 43.1815V44.4154C29.2875 44.4722 29.3336 44.5182 29.3905 44.5182H30.627C30.6839 44.5182 30.73 44.4722 30.73 44.4154V43.1815C30.73 43.1247 30.6839 43.0787 30.627 43.0787Z" stroke="#626C84" stroke-linecap="round" stroke-linejoin="round"/>
<path d="M32.8564 43.0787H31.62C31.5631 43.0787 31.5169 43.1247 31.5169 43.1815V44.4154C31.5169 44.4722 31.5631 44.5182 31.62 44.5182H32.8564C32.9133 44.5182 32.9594 44.4722 32.9594 44.4154V43.1815C32.9594 43.1247 32.9133 43.0787 32.8564 43.0787Z" stroke="#626C84" stroke-linecap="round" stroke-linejoin="round"/>
<path d="M35.0859 43.0787H33.8494C33.7925 43.0787 33.7464 43.1247 33.7464 43.1815V44.4154C33.7464 44.4722 33.7925 44.5182 33.8494 44.5182H35.0859C35.1428 44.5182 35.1889 44.4722 35.1889 44.4154V43.1815C35.1889 43.1247 35.1428 43.0787 35.0859 43.0787Z" stroke="#626C84" stroke-linecap="round" stroke-linejoin="round"/>
<path d="M37.3158 43.0787H36.0793C36.0224 43.0787 35.9763 43.1247 35.9763 43.1815V44.4154C35.9763 44.4722 36.0224 44.5182 36.0793 44.5182H37.3158C37.3727 44.5182 37.4188 44.4722 37.4188 44.4154V43.1815C37.4188 43.1247 37.3727 43.0787 37.3158 43.0787Z" stroke="#626C84" stroke-linecap="round" stroke-linejoin="round"/>
<path d="M39.5452 43.0787H38.3088C38.2519 43.0787 38.2057 43.1247 38.2057 43.1815V44.4154C38.2057 44.4722 38.2519 44.5182 38.3088 44.5182H39.5452C39.6021 44.5182 39.6483 44.4722 39.6483 44.4154V43.1815C39.6483 43.1247 39.6021 43.0787 39.5452 43.0787Z" stroke="#626C84" stroke-linecap="round" stroke-linejoin="round"/>
<path d="M41.7747 43.0787H40.5382C40.4813 43.0787 40.4352 43.1247 40.4352 43.1815V44.4154C40.4352 44.4722 40.4813 44.5182 40.5382 44.5182H41.7747C41.8316 44.5182 41.8777 44.4722 41.8777 44.4154V43.1815C41.8777 43.1247 41.8316 43.0787 41.7747 43.0787Z" stroke="#626C84" stroke-linecap="round" stroke-linejoin="round"/>
<path d="M45.2409 43.0787H42.768C42.7111 43.0787 42.665 43.1247 42.665 43.1815V44.4154C42.665 44.4722 42.7111 44.5182 42.768 44.5182H45.2409C45.2978 44.5182 45.3439 44.4722 45.3439 44.4154V43.1815C45.3439 43.1247 45.2978 43.0787 45.2409 43.0787Z" stroke="#626C84" stroke-linecap="round" stroke-linejoin="round"/>
<path d="M27.1878 41.0633H25.9513C25.8944 41.0633 25.8483 41.1093 25.8483 41.1661V42.4C25.8483 42.4568 25.8944 42.5028 25.9513 42.5028H27.1878C27.2447 42.5028 27.2908 42.4568 27.2908 42.4V41.1661C27.2908 41.1093 27.2447 41.0633 27.1878 41.0633Z" stroke="#626C84" stroke-linecap="round" stroke-linejoin="round"/>
<path d="M24.9312 41.0633H23.6948C23.6379 41.0633 23.5918 41.1093 23.5918 41.1661V42.4C23.5918 42.4568 23.6379 42.5028 23.6948 42.5028H24.9312C24.9882 42.5028 25.0343 42.4568 25.0343 42.4V41.1661C25.0343 41.1093 24.9882 41.0633 24.9312 41.0633Z" stroke="#626C84" stroke-linecap="round" stroke-linejoin="round"/>
<path d="M29.4446 41.0633H28.2082C28.1513 41.0633 28.1052 41.1093 28.1052 41.1661V42.4C28.1052 42.4568 28.1513 42.5028 28.2082 42.5028H29.4446C29.5016 42.5028 29.5477 42.4568 29.5477 42.4V41.1661C29.5477 41.1093 29.5016 41.0633 29.4446 41.0633Z" stroke="#626C84" stroke-linecap="round" stroke-linejoin="round"/>
<path d="M31.7013 41.0633H30.4648C30.4079 41.0633 30.3618 41.1093 30.3618 41.1661V42.4C30.3618 42.4568 30.4079 42.5028 30.4648 42.5028H31.7013C31.7582 42.5028 31.8043 42.4568 31.8043 42.4V41.1661C31.8043 41.1093 31.7582 41.0633 31.7013 41.0633Z" stroke="#626C84" stroke-linecap="round" stroke-linejoin="round"/>
<path d="M33.9576 41.0633H32.7212C32.6643 41.0633 32.6182 41.1093 32.6182 41.1661V42.4C32.6182 42.4568 32.6643 42.5028 32.7212 42.5028H33.9576C34.0145 42.5028 34.0607 42.4568 34.0607 42.4V41.1661C34.0607 41.1093 34.0145 41.0633 33.9576 41.0633Z" stroke="#626C84" stroke-linecap="round" stroke-linejoin="round"/>
<path d="M36.2141 41.0633H34.9777C34.9208 41.0633 34.8747 41.1093 34.8747 41.1661V42.4C34.8747 42.4568 34.9208 42.5028 34.9777 42.5028H36.2141C36.271 42.5028 36.3172 42.4568 36.3172 42.4V41.1661C36.3172 41.1093 36.271 41.0633 36.2141 41.0633Z" stroke="#626C84" stroke-linecap="round" stroke-linejoin="round"/>
<path d="M38.4709 41.0633H37.2345C37.1776 41.0633 37.1314 41.1093 37.1314 41.1661V42.4C37.1314 42.4568 37.1776 42.5028 37.2345 42.5028H38.4709C38.5278 42.5028 38.574 42.4568 38.574 42.4V41.1661C38.574 41.1093 38.5278 41.0633 38.4709 41.0633Z" stroke="#626C84" stroke-linecap="round" stroke-linejoin="round"/>
<path d="M40.7275 41.0633H39.4911C39.4342 41.0633 39.3881 41.1093 39.3881 41.1661V42.4C39.3881 42.4568 39.4342 42.5028 39.4911 42.5028H40.7275C40.7845 42.5028 40.8306 42.4568 40.8306 42.4V41.1661C40.8306 41.1093 40.7845 41.0633 40.7275 41.0633Z" stroke="#626C84" stroke-linecap="round" stroke-linejoin="round"/>
<path d="M42.984 41.0633H41.7476C41.6907 41.0633 41.6446 41.1093 41.6446 41.1661V42.4C41.6446 42.4568 41.6907 42.5028 41.7476 42.5028H42.984C43.0409 42.5028 43.0871 42.4568 43.0871 42.4V41.1661C43.0871 41.1093 43.0409 41.0633 42.984 41.0633Z" stroke="#626C84" stroke-linecap="round" stroke-linejoin="round"/>
<path d="M45.2405 41.0633H44.0041C43.9472 41.0633 43.9011 41.1093 43.9011 41.1661V42.4C43.9011 42.4568 43.9472 42.5028 44.0041 42.5028H45.2405C45.2975 42.5028 45.3436 42.4568 45.3436 42.4V41.1661C45.3436 41.1093 45.2975 41.0633 45.2405 41.0633Z" stroke="#626C84" stroke-linecap="round" stroke-linejoin="round"/>
<path d="M27.1606 47.2327H25.9241C25.8672 47.2327 25.8211 47.2788 25.8211 47.3356V48.5694C25.8211 48.6262 25.8672 48.6723 25.9241 48.6723H27.1606C27.2175 48.6723 27.2636 48.6262 27.2636 48.5694V47.3356C27.2636 47.2788 27.2175 47.2327 27.1606 47.2327Z" fill="#626C84"/>
<path d="M24.9312 47.2327H23.6948C23.6379 47.2327 23.5918 47.2788 23.5918 47.3356V48.5694C23.5918 48.6262 23.6379 48.6723 23.6948 48.6723H24.9312C24.9882 48.6723 25.0343 48.6262 25.0343 48.5694V47.3356C25.0343 47.2788 24.9882 47.2327 24.9312 47.2327Z" fill="#626C84"/>
<path d="M38.3088 47.2327H28.154C28.0971 47.2327 28.051 47.2788 28.051 47.3356V48.5694C28.051 48.6262 28.0971 48.6723 28.154 48.6723H38.3088C38.3657 48.6723 38.4118 48.6262 38.4118 48.5694V47.3356C38.4118 47.2788 38.3657 47.2327 38.3088 47.2327Z" fill="#626C84"/>
<path d="M40.5382 47.2327H39.3018C39.2449 47.2327 39.1987 47.2788 39.1987 47.3356V48.5694C39.1987 48.6262 39.2449 48.6723 39.3018 48.6723H40.5382C40.5951 48.6723 40.6412 48.6262 40.6412 48.5694V47.3356C40.6412 47.2788 40.5951 47.2327 40.5382 47.2327Z" fill="#626C84"/>
<path d="M43.798 48.0425H42.9737C42.9168 48.0425 42.8707 48.0885 42.8707 48.1453V48.5695C42.8707 48.6262 42.9168 48.6723 42.9737 48.6723H43.798C43.8549 48.6723 43.9011 48.6262 43.9011 48.5695V48.1453C43.9011 48.0885 43.8549 48.0425 43.798 48.0425Z" fill="#626C84"/>
<path d="M43.798 47.2327H42.9737C42.9168 47.2327 42.8707 47.2788 42.8707 47.3356V47.7597C42.8707 47.8165 42.9168 47.8625 42.9737 47.8625H43.798C43.8549 47.8625 43.9011 47.8165 43.9011 47.7597V47.3356C43.9011 47.2788 43.8549 47.2327 43.798 47.2327Z" fill="#626C84"/>
<path d="M45.2408 48.0425H44.4165C44.3596 48.0425 44.3134 48.0885 44.3134 48.1453V48.5695C44.3134 48.6262 44.3596 48.6723 44.4165 48.6723H45.2408C45.2977 48.6723 45.3438 48.6262 45.3438 48.5695V48.1453C45.3438 48.0885 45.2977 48.0425 45.2408 48.0425Z" fill="#626C84"/>
<path d="M42.3558 48.0425H41.5315C41.4746 48.0425 41.4285 48.0885 41.4285 48.1453V48.5695C41.4285 48.6262 41.4746 48.6723 41.5315 48.6723H42.3558C42.4127 48.6723 42.4588 48.6262 42.4588 48.5695V48.1453C42.4588 48.0885 42.4127 48.0425 42.3558 48.0425Z" fill="#626C84"/>
<path d="M26.9548 45.1845H23.6948C23.6379 45.1845 23.5918 45.2305 23.5918 45.2873V46.5212C23.5918 46.578 23.6379 46.6241 23.6948 46.6241H26.9548C27.0117 46.6241 27.0578 46.578 27.0578 46.5212V45.2873C27.0578 45.2305 27.0117 45.1845 26.9548 45.1845Z" fill="#626C84"/>
<path d="M29.203 45.1845H27.9666C27.9097 45.1845 27.8636 45.2305 27.8636 45.2873V46.5212C27.8636 46.578 27.9097 46.6241 27.9666 46.6241H29.203C29.2599 46.6241 29.3061 46.578 29.3061 46.5212V45.2873C29.3061 45.2305 29.2599 45.1845 29.203 45.1845Z" fill="#626C84"/>
<path d="M31.4324 45.1845H30.1959C30.139 45.1845 30.0929 45.2305 30.0929 45.2873V46.5212C30.0929 46.578 30.139 46.6241 30.1959 46.6241H31.4324C31.4893 46.6241 31.5354 46.578 31.5354 46.5212V45.2873C31.5354 45.2305 31.4893 45.1845 31.4324 45.1845Z" fill="#626C84"/>
<path d="M33.6622 45.1845H32.4258C32.3689 45.1845 32.3228 45.2305 32.3228 45.2873V46.5212C32.3228 46.578 32.3689 46.6241 32.4258 46.6241H33.6622C33.7191 46.6241 33.7653 46.578 33.7653 46.5212V45.2873C33.7653 45.2305 33.7191 45.1845 33.6622 45.1845Z" fill="#626C84"/>
<path d="M35.8917 45.1845H34.6553C34.5983 45.1845 34.5522 45.2305 34.5522 45.2873V46.5212C34.5522 46.578 34.5983 46.6241 34.6553 46.6241H35.8917C35.9486 46.6241 35.9947 46.578 35.9947 46.5212V45.2873C35.9947 45.2305 35.9486 45.1845 35.8917 45.1845Z" fill="#626C84"/>
<path d="M38.1212 45.1845H36.8847C36.8278 45.1845 36.7817 45.2305 36.7817 45.2873V46.5212C36.7817 46.578 36.8278 46.6241 36.8847 46.6241H38.1212C38.1781 46.6241 38.2242 46.578 38.2242 46.5212V45.2873C38.2242 45.2305 38.1781 45.1845 38.1212 45.1845Z" fill="#626C84"/>
<path d="M40.3509 45.1845H39.1145C39.0576 45.1845 39.0114 45.2305 39.0114 45.2873V46.5212C39.0114 46.578 39.0576 46.6241 39.1145 46.6241H40.3509C40.4078 46.6241 40.454 46.578 40.454 46.5212V45.2873C40.454 45.2305 40.4078 45.1845 40.3509 45.1845Z" fill="#626C84"/>
<path d="M45.2408 45.1845H41.5315C41.4746 45.1845 41.4285 45.2305 41.4285 45.2873V46.5212C41.4285 46.578 41.4746 46.6241 41.5315 46.6241H45.2408C45.2977 46.6241 45.3439 46.578 45.3439 46.5212V45.2873C45.3439 45.2305 45.2977 45.1845 45.2408 45.1845Z" fill="#626C84"/>
<path d="M28.3971 43.0787H27.1606C27.1037 43.0787 27.0576 43.1247 27.0576 43.1815V44.4154C27.0576 44.4722 27.1037 44.5182 27.1606 44.5182H28.3971C28.454 44.5182 28.5001 44.4722 28.5001 44.4154V43.1815C28.5001 43.1247 28.454 43.0787 28.3971 43.0787Z" fill="#626C84"/>
<path d="M26.1677 43.0787H23.6948C23.6379 43.0787 23.5918 43.1247 23.5918 43.1815V44.4154C23.5918 44.4722 23.6379 44.5182 23.6948 44.5182H26.1677C26.2246 44.5182 26.2707 44.4722 26.2707 44.4154V43.1815C26.2707 43.1247 26.2246 43.0787 26.1677 43.0787Z" fill="#626C84"/>
<path d="M30.627 43.0787H29.3905C29.3336 43.0787 29.2875 43.1247 29.2875 43.1815V44.4154C29.2875 44.4722 29.3336 44.5182 29.3905 44.5182H30.627C30.6839 44.5182 30.73 44.4722 30.73 44.4154V43.1815C30.73 43.1247 30.6839 43.0787 30.627 43.0787Z" fill="#626C84"/>
<path d="M32.8564 43.0787H31.62C31.5631 43.0787 31.5169 43.1247 31.5169 43.1815V44.4154C31.5169 44.4722 31.5631 44.5182 31.62 44.5182H32.8564C32.9133 44.5182 32.9594 44.4722 32.9594 44.4154V43.1815C32.9594 43.1247 32.9133 43.0787 32.8564 43.0787Z" fill="#626C84"/>
<path d="M35.0859 43.0787H33.8494C33.7925 43.0787 33.7464 43.1247 33.7464 43.1815V44.4154C33.7464 44.4722 33.7925 44.5182 33.8494 44.5182H35.0859C35.1428 44.5182 35.1889 44.4722 35.1889 44.4154V43.1815C35.1889 43.1247 35.1428 43.0787 35.0859 43.0787Z" fill="#626C84"/>
<path d="M37.3158 43.0787H36.0793C36.0224 43.0787 35.9763 43.1247 35.9763 43.1815V44.4154C35.9763 44.4722 36.0224 44.5182 36.0793 44.5182H37.3158C37.3727 44.5182 37.4188 44.4722 37.4188 44.4154V43.1815C37.4188 43.1247 37.3727 43.0787 37.3158 43.0787Z" fill="#626C84"/>
<path d="M39.5452 43.0787H38.3088C38.2519 43.0787 38.2057 43.1247 38.2057 43.1815V44.4154C38.2057 44.4722 38.2519 44.5182 38.3088 44.5182H39.5452C39.6021 44.5182 39.6483 44.4722 39.6483 44.4154V43.1815C39.6483 43.1247 39.6021 43.0787 39.5452 43.0787Z" fill="#626C84"/>
<path d="M41.7747 43.0787H40.5382C40.4813 43.0787 40.4352 43.1247 40.4352 43.1815V44.4154C40.4352 44.4722 40.4813 44.5182 40.5382 44.5182H41.7747C41.8316 44.5182 41.8777 44.4722 41.8777 44.4154V43.1815C41.8777 43.1247 41.8316 43.0787 41.7747 43.0787Z" fill="#626C84"/>
<path d="M45.2409 43.0787H42.768C42.7111 43.0787 42.665 43.1247 42.665 43.1815V44.4154C42.665 44.4722 42.7111 44.5182 42.768 44.5182H45.2409C45.2978 44.5182 45.3439 44.4722 45.3439 44.4154V43.1815C45.3439 43.1247 45.2978 43.0787 45.2409 43.0787Z" fill="#626C84"/>
<path d="M27.1878 41.0633H25.9513C25.8944 41.0633 25.8483 41.1093 25.8483 41.1661V42.4C25.8483 42.4568 25.8944 42.5028 25.9513 42.5028H27.1878C27.2447 42.5028 27.2908 42.4568 27.2908 42.4V41.1661C27.2908 41.1093 27.2447 41.0633 27.1878 41.0633Z" fill="#626C84"/>
<path d="M24.9312 41.0633H23.6948C23.6379 41.0633 23.5918 41.1093 23.5918 41.1661V42.4C23.5918 42.4568 23.6379 42.5028 23.6948 42.5028H24.9312C24.9882 42.5028 25.0343 42.4568 25.0343 42.4V41.1661C25.0343 41.1093 24.9882 41.0633 24.9312 41.0633Z" fill="#626C84"/>
<path d="M29.4446 41.0633H28.2082C28.1513 41.0633 28.1052 41.1093 28.1052 41.1661V42.4C28.1052 42.4568 28.1513 42.5028 28.2082 42.5028H29.4446C29.5016 42.5028 29.5477 42.4568 29.5477 42.4V41.1661C29.5477 41.1093 29.5016 41.0633 29.4446 41.0633Z" fill="#626C84"/>
<path d="M31.7013 41.0633H30.4648C30.4079 41.0633 30.3618 41.1093 30.3618 41.1661V42.4C30.3618 42.4568 30.4079 42.5028 30.4648 42.5028H31.7013C31.7582 42.5028 31.8043 42.4568 31.8043 42.4V41.1661C31.8043 41.1093 31.7582 41.0633 31.7013 41.0633Z" fill="#626C84"/>
<path d="M33.9576 41.0633H32.7212C32.6643 41.0633 32.6182 41.1093 32.6182 41.1661V42.4C32.6182 42.4568 32.6643 42.5028 32.7212 42.5028H33.9576C34.0145 42.5028 34.0607 42.4568 34.0607 42.4V41.1661C34.0607 41.1093 34.0145 41.0633 33.9576 41.0633Z" fill="#626C84"/>
<path d="M36.2141 41.0633H34.9777C34.9208 41.0633 34.8747 41.1093 34.8747 41.1661V42.4C34.8747 42.4568 34.9208 42.5028 34.9777 42.5028H36.2141C36.271 42.5028 36.3172 42.4568 36.3172 42.4V41.1661C36.3172 41.1093 36.271 41.0633 36.2141 41.0633Z" fill="#626C84"/>
<path d="M38.4709 41.0633H37.2345C37.1776 41.0633 37.1314 41.1093 37.1314 41.1661V42.4C37.1314 42.4568 37.1776 42.5028 37.2345 42.5028H38.4709C38.5278 42.5028 38.574 42.4568 38.574 42.4V41.1661C38.574 41.1093 38.5278 41.0633 38.4709 41.0633Z" fill="#626C84"/>
<path d="M40.7275 41.0633H39.4911C39.4342 41.0633 39.3881 41.1093 39.3881 41.1661V42.4C39.3881 42.4568 39.4342 42.5028 39.4911 42.5028H40.7275C40.7845 42.5028 40.8306 42.4568 40.8306 42.4V41.1661C40.8306 41.1093 40.7845 41.0633 40.7275 41.0633Z" fill="#626C84"/>
<path d="M42.984 41.0633H41.7476C41.6907 41.0633 41.6446 41.1093 41.6446 41.1661V42.4C41.6446 42.4568 41.6907 42.5028 41.7476 42.5028H42.984C43.0409 42.5028 43.0871 42.4568 43.0871 42.4V41.1661C43.0871 41.1093 43.0409 41.0633 42.984 41.0633Z" fill="#626C84"/>
<path d="M45.2405 41.0633H44.0041C43.9472 41.0633 43.9011 41.1093 43.9011 41.1661V42.4C43.9011 42.4568 43.9472 42.5028 44.0041 42.5028H45.2405C45.2975 42.5028 45.3436 42.4568 45.3436 42.4V41.1661C45.3436 41.1093 45.2975 41.0633 45.2405 41.0633Z" fill="#626C84"/>
<path d="M25.7096 37.7828H43.2259V39.1654C43.2259 39.2744 43.1825 39.3791 43.1052 39.4562C43.0279 39.5333 42.9231 39.5767 42.8138 39.5767H26.1217C26.0124 39.5767 25.9076 39.5333 25.8303 39.4562C25.753 39.3791 25.7096 39.2744 25.7096 39.1654V37.7828Z" fill="#626C84"/>
<path opacity="0.12" d="M43.2259 37.7828H25.7096V37.9884H43.2259V37.7828Z" fill="white"/>
<g style="mix-blend-mode:multiply" opacity="0.25">
<path d="M42.8138 39.1653H26.1217C26.0124 39.1653 25.9076 39.122 25.8303 39.0449C25.753 38.9677 25.7096 38.8631 25.7096 38.754V39.1653C25.7096 39.2744 25.753 39.379 25.8303 39.4562C25.9076 39.5333 26.0124 39.5766 26.1217 39.5766H42.8138C42.9231 39.5766 43.0279 39.5333 43.1052 39.4562C43.1825 39.379 43.2259 39.2744 43.2259 39.1653V38.754C43.2259 38.8631 43.1825 38.9677 43.1052 39.0449C43.0279 39.122 42.9231 39.1653 42.8138 39.1653Z" fill="#626C84"/>
</g>
<path d="M25.7096 37.7828H43.2259V39.1654C43.2259 39.2744 43.1825 39.3791 43.1052 39.4562C43.0279 39.5333 42.9231 39.5767 42.8138 39.5767H26.1217C26.0124 39.5767 25.9076 39.5333 25.8303 39.4562C25.753 39.3791 25.7096 39.2744 25.7096 39.1654V37.7828Z" stroke="#46505C" stroke-width="2" stroke-linecap="round" stroke-linejoin="round"/>
<path d="M38.0743 50.0605H30.8617C30.7478 50.0605 30.6556 50.1526 30.6556 50.2661V55.0989C30.6556 55.2125 30.7478 55.3046 30.8617 55.3046H38.0743C38.1881 55.3046 38.2803 55.2125 38.2803 55.0989V50.2661C38.2803 50.1526 38.1881 50.0605 38.0743 50.0605Z" fill="#E6F3FF"/>
<path d="M38.0743 50.0605H30.8617C30.7478 50.0605 30.6556 50.1526 30.6556 50.2661V55.0989C30.6556 55.2125 30.7478 55.3046 30.8617 55.3046H38.0743C38.1881 55.3046 38.2803 55.2125 38.2803 55.0989V50.2661C38.2803 50.1526 38.1881 50.0605 38.0743 50.0605Z" stroke="#626C84" stroke-linecap="round" stroke-linejoin="round"/>
<path opacity="0.52" d="M34.4679 23.1953C34.6386 23.1953 34.777 23.0571 34.777 22.8868C34.777 22.7164 34.6386 22.5783 34.4679 22.5783C34.2972 22.5783 34.1588 22.7164 34.1588 22.8868C34.1588 23.0571 34.2972 23.1953 34.4679 23.1953Z" fill="white"/>
<path d="M34.4679 23.1953C34.6386 23.1953 34.777 23.0571 34.777 22.8868C34.777 22.7164 34.6386 22.5783 34.4679 22.5783C34.2972 22.5783 34.1588 22.7164 34.1588 22.8868C34.1588 23.0571 34.2972 23.1953 34.4679 23.1953Z" stroke="#46505C" stroke-linecap="round" stroke-linejoin="round"/>
<path d="M40.8931 25.054H39.6567C39.5998 25.054 39.5536 25.1001 39.5536 25.1568C39.5536 25.2136 39.5998 25.2597 39.6567 25.2597H40.8931C40.95 25.2597 40.9962 25.2136 40.9962 25.1568C40.9962 25.1001 40.95 25.054 40.8931 25.054Z" fill="white"/>
<path d="M43.5696 25.054H42.3331C42.2762 25.054 42.2301 25.1001 42.2301 25.1568C42.2301 25.2136 42.2762 25.2597 42.3331 25.2597H43.5696C43.6265 25.2597 43.6726 25.2136 43.6726 25.1568C43.6726 25.1001 43.6265 25.054 43.5696 25.054Z" fill="white"/>
<path d="M38.2169 25.054H36.9805C36.9236 25.054 36.8774 25.1001 36.8774 25.1568C36.8774 25.2136 36.9236 25.2597 36.9805 25.2597H38.2169C38.2738 25.2597 38.32 25.2136 38.32 25.1568C38.32 25.1001 38.2738 25.054 38.2169 25.054Z" fill="white"/>
<path d="M24.9095 25.7078C25.1847 25.7078 25.4079 25.4851 25.4079 25.2104C25.4079 24.9357 25.1847 24.7131 24.9095 24.7131C24.6342 24.7131 24.4111 24.9357 24.4111 25.2104C24.4111 25.4851 24.6342 25.7078 24.9095 25.7078Z" fill="white"/>
<g opacity="0.72">
<path opacity="0.72" d="M39.6773 30.6562H29.2465V31.031H39.6773V30.6562Z" fill="white"/>
<path opacity="0.72" d="M38.3585 29.4123H30.5659V29.7925H38.3585V29.4123Z" fill="white"/>
</g>
<path d="M36.261 33.5696H33.2924C32.9805 33.5696 32.7277 33.8219 32.7277 34.1332C32.7277 34.4444 32.9805 34.6967 33.2924 34.6967H36.261C36.5729 34.6967 36.8257 34.4444 36.8257 34.1332C36.8257 33.8219 36.5729 33.5696 36.261 33.5696Z" stroke="white" stroke-miterlimit="10"/>
</svg>
