<svg width="136" height="126" viewBox="0 0 136 126" fill="none" xmlns="http://www.w3.org/2000/svg">
<path fill-rule="evenodd" clip-rule="evenodd" d="M79.4633 0.0242652C112.784 0.786899 119.489 28.2749 128.78 54.1558C137.178 77.5477 142.823 94.8376 118.767 109.502C93.1001 125.149 51.405 132.749 24.6591 118.332C-5.31658 102.173 -3.76152 75.4887 7.30623 47.7701C18.4336 19.9021 43.2558 -0.804447 79.4633 0.0242652Z" fill="#F0EFFF"/>
<g clip-path="url(#clip0)">
<path opacity="0.26" d="M67.09 90.0605C87.6896 90.0605 104.389 89.0546 104.389 87.8138C104.389 86.5729 87.6896 85.567 67.09 85.567C46.4903 85.567 29.791 86.5729 29.791 87.8138C29.791 89.0546 46.4903 90.0605 67.09 90.0605Z" fill="#162126"/>
<path d="M126.688 88.5984H9.49734C7.23775 88.5984 5.40649 88.211 5.40649 85.9514H130.779C130.779 88.2102 128.948 88.5984 126.688 88.5984Z" fill="#E7A56B"/>
<path opacity="0.7" d="M5.40649 86.2721H130.779C130.779 86.6763 130.618 87.0639 130.333 87.3497C130.047 87.6356 129.659 87.7961 129.255 87.7961H6.93054C6.52634 87.7961 6.13869 87.6356 5.85288 87.3497C5.56706 87.0639 5.40649 86.6763 5.40649 86.2721Z" fill="#C8935F"/>
<path d="M132.223 84.8274H3.72191C3.32321 84.8274 3 85.1506 3 85.5493C3 85.948 3.32321 86.2712 3.72191 86.2712H132.223C132.621 86.2712 132.945 85.948 132.945 85.5493C132.945 85.1506 132.621 84.8274 132.223 84.8274Z" fill="#E7A56B"/>
<path d="M133 85.8759C132.901 86.1021 132.519 86.2713 132.062 86.2713H3.88245C3.35305 86.2713 3.08032 86.0419 3.08032 85.762V85.3376C3.08032 85.097 3.40117 84.8933 3.8271 84.8411C3.81103 84.877 3.80256 84.9157 3.80224 84.955V85.3793C3.80224 85.6593 4.23539 85.8887 4.76479 85.8887H132.784C132.856 85.8888 132.929 85.8845 133 85.8759Z" fill="#C8935F"/>
<path d="M10.8152 85.2806C12.087 85.4065 13.3642 85.4684 14.6422 85.4659C15.1331 85.4659 15.5309 85.4587 15.8053 85.4555C16.0796 85.4522 16.2328 85.4555 16.2336 85.4691C16.2344 85.4827 16.0836 85.5068 15.8093 85.5349C15.535 85.5629 15.1371 85.5918 14.6446 85.6103C13.3598 85.6558 12.0734 85.6137 10.7944 85.4843L9.7059 85.3712C9.35376 85.3303 9.01607 85.3046 8.69281 85.291C8.04629 85.2557 7.46315 85.2549 6.97305 85.2685C5.99285 85.2974 5.38804 85.3696 5.38403 85.3375C5.38403 85.3247 5.53082 85.2886 5.80355 85.2469C6.07627 85.2052 6.47252 85.1554 6.96583 85.1242C7.5434 85.087 8.12251 85.0798 8.70083 85.1025C9.0273 85.1153 9.37061 85.137 9.72274 85.1755L10.8152 85.2806Z" fill="#C8935F"/>
<path d="M22.7669 85.2806C24.0386 85.4065 25.3159 85.4684 26.5938 85.4659C27.0847 85.4659 27.4826 85.4587 27.7569 85.4555C28.0313 85.4523 28.1845 85.4555 28.1853 85.4691C28.1861 85.4827 28.0353 85.5068 27.7609 85.5349C27.4866 85.563 27.0888 85.5918 26.5963 85.6103C25.3115 85.6558 24.0251 85.6137 22.746 85.4843L21.6576 85.3704C21.3054 85.3295 20.9677 85.3039 20.6445 85.2902C19.998 85.2549 19.4148 85.2541 18.9247 85.2678C17.9445 85.2966 17.3397 85.3688 17.3357 85.3367C17.3357 85.3239 17.4825 85.2878 17.7552 85.2461C18.0279 85.2044 18.4242 85.1547 18.9175 85.1234C19.4951 85.0862 20.0742 85.079 20.6525 85.1017C20.979 85.1146 21.3223 85.1362 21.6744 85.1747L22.7669 85.2806Z" fill="#C8935F"/>
<path d="M50.3602 85.2806C51.6319 85.4065 52.9092 85.4684 54.1871 85.4659C54.678 85.4659 55.0759 85.4587 55.3502 85.4555C55.6245 85.4523 55.7777 85.4555 55.7785 85.4691C55.7794 85.4827 55.6286 85.5068 55.3542 85.5349C55.0799 85.563 54.682 85.5918 54.1895 85.6103C52.9048 85.6558 51.6184 85.6137 50.3393 85.4843L49.2508 85.3704C48.8987 85.3295 48.561 85.3039 48.2377 85.2902C47.5912 85.2549 47.0081 85.2541 46.518 85.2678C45.5378 85.2966 44.933 85.3688 44.929 85.3367C44.929 85.3239 45.0757 85.2878 45.3485 85.2461C45.6212 85.2044 46.0174 85.1547 46.5108 85.1234C47.0883 85.0862 47.6674 85.079 48.2458 85.1017C48.5722 85.1146 48.9155 85.1362 49.2677 85.1747L50.3602 85.2806Z" fill="#C8935F"/>
<path d="M77.5519 85.2806C78.8237 85.4065 80.1009 85.4684 81.3789 85.4659C81.8698 85.4659 82.2676 85.4587 82.542 85.4555C82.8163 85.4523 82.9695 85.4555 82.9703 85.4691C82.9711 85.4827 82.8203 85.5068 82.546 85.5349C82.2717 85.563 81.8738 85.5918 81.3813 85.6103C80.0965 85.6558 78.8101 85.6137 77.5311 85.4843L76.4426 85.3704C76.0905 85.3295 75.7528 85.3039 75.4295 85.2902C74.783 85.2549 74.1998 85.2541 73.7097 85.2678C72.7295 85.2966 72.1247 85.3688 72.1207 85.3367C72.1207 85.3239 72.2675 85.2878 72.5402 85.2461C72.813 85.2044 73.2092 85.1547 73.7025 85.1234C74.2801 85.0862 74.8592 85.079 75.4375 85.1017C75.764 85.1146 76.1073 85.1362 76.4594 85.1747L77.5519 85.2806Z" fill="#C8935F"/>
<path d="M85.3349 85.542C86.0885 85.6898 86.8491 85.7996 87.6137 85.8709C87.9073 85.899 88.1455 85.9174 88.31 85.931C88.3963 85.9317 88.4822 85.9427 88.5658 85.9639C88.481 85.98 88.3945 85.9851 88.3084 85.9792C88.1423 85.9792 87.9033 85.9744 87.6073 85.9575C86.8363 85.9114 86.0692 85.8127 85.3116 85.6623L84.6699 85.5324C84.4621 85.4875 84.2616 85.4522 84.0691 85.4241C83.6849 85.3663 83.336 85.3318 83.0416 85.3126C82.4536 85.2741 82.0878 85.2829 82.087 85.2629C82.1708 85.2412 82.2572 85.2309 82.3437 85.2324C82.509 85.2227 82.7496 85.2155 83.0456 85.2252C83.3944 85.2357 83.7425 85.2643 84.0884 85.311C84.2825 85.3375 84.4894 85.3695 84.6956 85.4129L85.3349 85.542Z" fill="#C8935F"/>
<path d="M57.9827 85.542C58.7363 85.6898 59.4969 85.7996 60.2615 85.8709C60.5551 85.899 60.7933 85.9174 60.9578 85.931C61.0441 85.9317 61.13 85.9427 61.2137 85.9639C61.1288 85.98 61.0423 85.9851 60.9562 85.9792C60.7901 85.9792 60.5511 85.9744 60.2551 85.9575C59.4841 85.9114 58.7171 85.8127 57.9594 85.6623L57.3177 85.5324C57.11 85.4875 56.9094 85.4522 56.7169 85.4241C56.3327 85.3663 55.9838 85.3318 55.6894 85.3126C55.1014 85.2741 54.7357 85.2829 54.7349 85.2629C54.8187 85.2412 54.905 85.2309 54.9915 85.2324C55.1568 85.2227 55.3974 85.2155 55.6934 85.2252C56.0422 85.2357 56.3903 85.2643 56.7362 85.311C56.9303 85.3375 57.1372 85.3695 57.3434 85.4129L57.9827 85.542Z" fill="#C8935F"/>
<path d="M30.6301 85.542C31.3838 85.6898 32.1443 85.7996 32.909 85.8709C33.2026 85.899 33.4408 85.9174 33.6052 85.931C33.6915 85.9317 33.7774 85.9427 33.8611 85.9639C33.7763 85.98 33.6898 85.9851 33.6036 85.9792C33.4376 85.9792 33.1986 85.9744 32.9026 85.9575C32.1315 85.9114 31.3645 85.8127 30.6069 85.6623L29.9652 85.5324C29.7574 85.4875 29.5569 85.4522 29.3644 85.4241C28.9802 85.3663 28.6312 85.3318 28.3369 85.3126C27.7489 85.2741 27.3831 85.2829 27.3823 85.2629C27.4661 85.2412 27.5525 85.2309 27.639 85.2324C27.8042 85.2227 28.0449 85.2155 28.3409 85.2252C28.6897 85.2357 29.0378 85.2643 29.3836 85.311C29.5777 85.3375 29.7847 85.3695 29.9908 85.4129L30.6301 85.542Z" fill="#C8935F"/>
<path d="M100.656 85.542C101.409 85.6898 102.17 85.7996 102.934 85.8709C103.228 85.899 103.466 85.9174 103.631 85.931C103.717 85.9317 103.803 85.9427 103.886 85.9639C103.802 85.98 103.715 85.9851 103.629 85.9792C103.463 85.9792 103.224 85.9744 102.928 85.9575C102.157 85.9114 101.39 85.8127 100.632 85.6623L99.9906 85.5324C99.7828 85.4875 99.5823 85.4522 99.3898 85.4241C99.0056 85.3663 98.6566 85.3318 98.3622 85.3126C97.7743 85.2741 97.4085 85.2829 97.4077 85.2629C97.4915 85.2412 97.5779 85.2309 97.6644 85.2324C97.8296 85.2227 98.0703 85.2155 98.3663 85.2252C98.7151 85.2357 99.0632 85.2643 99.409 85.311C99.6031 85.3375 99.8101 85.3695 100.016 85.4129L100.656 85.542Z" fill="#C8935F"/>
<path d="M117.019 85.542C117.773 85.6898 118.533 85.7996 119.298 85.8709C119.591 85.899 119.83 85.9174 119.994 85.931C120.08 85.9317 120.166 85.9427 120.25 85.9639C120.165 85.98 120.079 85.9851 119.993 85.9792C119.826 85.9792 119.587 85.9744 119.291 85.9575C118.52 85.9114 117.753 85.8127 116.996 85.6623L116.354 85.5324C116.146 85.4875 115.946 85.4522 115.753 85.4241C115.369 85.3663 115.02 85.3318 114.726 85.3126C114.138 85.2741 113.772 85.2829 113.771 85.2629C113.855 85.2412 113.941 85.2309 114.028 85.2324C114.193 85.2227 114.434 85.2155 114.73 85.2252C115.079 85.2357 115.427 85.2643 115.773 85.311C115.967 85.3375 116.174 85.3695 116.38 85.4129L117.019 85.542Z" fill="#C8935F"/>
<path d="M106.348 85.2806C107.62 85.4065 108.897 85.4684 110.175 85.4659C110.666 85.4659 111.064 85.4587 111.338 85.4555C111.613 85.4523 111.766 85.4555 111.767 85.4691C111.767 85.4827 111.617 85.5068 111.342 85.5349C111.068 85.563 110.67 85.5918 110.178 85.6103C108.893 85.6558 107.606 85.6137 106.327 85.4843L105.239 85.3704C104.887 85.3295 104.549 85.3039 104.226 85.2902C103.579 85.2549 102.996 85.2541 102.506 85.2678C101.526 85.2966 100.921 85.3688 100.917 85.3367C100.917 85.3239 101.064 85.2878 101.337 85.2461C101.609 85.2044 102.005 85.1547 102.499 85.1234C103.076 85.0862 103.655 85.079 104.234 85.1017C104.56 85.1146 104.904 85.1362 105.256 85.1747L106.348 85.2806Z" fill="#C8935F"/>
<path d="M91.8299 85.2806C93.1016 85.4065 94.3789 85.4684 95.6569 85.4659C96.1478 85.4659 96.5456 85.4587 96.8199 85.4555C97.0943 85.4523 97.2475 85.4555 97.2483 85.4691C97.2491 85.4827 97.0983 85.5068 96.8239 85.5349C96.5496 85.563 96.1518 85.5918 95.6593 85.6103C94.3745 85.6558 93.0881 85.6137 91.809 85.4843L90.7206 85.3704C90.3684 85.3295 90.0307 85.3039 89.7075 85.2902C89.0609 85.2549 88.4778 85.2541 87.9877 85.2678C87.0075 85.2966 86.4027 85.3688 86.3987 85.3367C86.3987 85.3239 86.5455 85.2878 86.8182 85.2461C87.0909 85.2044 87.4872 85.1547 87.9805 85.1234C88.558 85.0862 89.1372 85.079 89.7155 85.1017C90.0419 85.1146 90.3853 85.1362 90.7374 85.1747L91.8299 85.2806Z" fill="#C8935F"/>
<path d="M125.92 85.2806C127.192 85.4065 128.469 85.4684 129.747 85.4659C130.238 85.4659 130.636 85.4587 130.91 85.4555C131.185 85.4523 131.338 85.4555 131.339 85.4691C131.339 85.4827 131.189 85.5068 130.914 85.5349C130.64 85.563 130.242 85.5918 129.75 85.6103C128.465 85.6558 127.178 85.6137 125.899 85.4843L124.811 85.3704C124.459 85.3295 124.121 85.3039 123.798 85.2902C123.151 85.2549 122.568 85.2541 122.078 85.2678C121.098 85.2966 120.493 85.3688 120.489 85.3367C120.489 85.3239 120.636 85.2878 120.909 85.2461C121.181 85.2044 121.577 85.1547 122.071 85.1234C122.648 85.0862 123.227 85.079 123.806 85.1017C124.132 85.1146 124.476 85.1362 124.828 85.1747L125.92 85.2806Z" fill="#C8935F"/>
<path d="M63.7555 85.2806C65.0273 85.4065 66.3045 85.4684 67.5825 85.4659C68.0734 85.4659 68.4712 85.4587 68.7456 85.4555C69.0199 85.4523 69.1731 85.4555 69.1739 85.4691C69.1747 85.4827 69.0239 85.5068 68.7496 85.5349C68.4753 85.563 68.0774 85.5918 67.5849 85.6103C66.3001 85.6558 65.0137 85.6137 63.7347 85.4843L62.6462 85.3704C62.2941 85.3295 61.9564 85.3039 61.6331 85.2902C60.9866 85.2549 60.4035 85.2541 59.9134 85.2678C58.9332 85.2966 58.3284 85.3688 58.3243 85.3367C58.3243 85.3239 58.4711 85.2878 58.7439 85.2461C59.0166 85.2044 59.4128 85.1547 59.9061 85.1234C60.4837 85.0862 61.0628 85.079 61.6411 85.1017C61.9676 85.1146 62.3109 85.1362 62.663 85.1747L63.7555 85.2806Z" fill="#C8935F"/>
<path d="M37.2054 85.2806C38.4771 85.4065 39.7544 85.4684 41.0323 85.4659C41.5232 85.4659 41.9211 85.4587 42.1954 85.4555C42.4697 85.4523 42.623 85.4555 42.6238 85.4691C42.6246 85.4827 42.4738 85.5068 42.1994 85.5349C41.9251 85.563 41.5272 85.5918 41.0347 85.6103C39.75 85.6558 38.4636 85.6137 37.1845 85.4843L36.096 85.3704C35.7439 85.3295 35.4062 85.3039 35.0829 85.2902C34.4364 85.2549 33.8533 85.2541 33.3632 85.2678C32.383 85.2966 31.7782 85.3688 31.7742 85.3367C31.7742 85.3239 31.921 85.2878 32.1937 85.2461C32.4664 85.2044 32.8627 85.1547 33.356 85.1234C33.9335 85.0862 34.5127 85.079 35.091 85.1017C35.4174 85.1146 35.7607 85.1362 36.1129 85.1747L37.2054 85.2806Z" fill="#C8935F"/>
<g opacity="0.2">
<path opacity="0.2" d="M128.326 75.9312H120.947V83.3107H128.326V75.9312Z" fill="#98E2CA"/>
<path opacity="0.2" d="M126.762 79.6211C126.762 78.4471 125.81 77.4954 124.637 77.4954C123.463 77.4954 122.511 78.4471 122.511 79.6211C122.511 80.795 123.463 81.7467 124.637 81.7467C125.81 81.7467 126.762 80.795 126.762 79.6211Z" fill="white"/>
<path opacity="0.2" d="M124.396 79.2929C124.396 79.1157 124.252 78.972 124.075 78.972C123.898 78.972 123.754 79.1157 123.754 79.2929V79.9482C123.754 80.1254 123.898 80.269 124.075 80.269C124.252 80.269 124.396 80.1254 124.396 79.9482V79.2929Z" fill="#9EBAB7"/>
<path opacity="0.2" d="M125.519 79.2929C125.519 79.1157 125.375 78.972 125.198 78.972C125.021 78.972 124.877 79.1157 124.877 79.2929V79.9482C124.877 80.1254 125.021 80.269 125.198 80.269C125.375 80.269 125.519 80.1254 125.519 79.9482V79.2929Z" fill="#9EBAB7"/>
</g>
<path opacity="0.1" d="M86.983 57.548V83.885C86.983 84.7938 86.46 85.5695 85.7196 85.8903C85.4833 85.9932 85.2282 86.0461 84.9704 86.046H53.4613C53.2794 86.0457 53.0986 86.0187 52.9246 85.9657C52.0976 85.7251 51.4808 84.923 51.4503 83.9701C51.4503 83.9428 51.4503 83.9147 51.4503 83.8898V57.548C51.4487 56.3528 52.3495 55.3903 53.4613 55.3903H84.9696C86.0822 55.3903 86.983 56.3528 86.983 57.548Z" fill="black"/>
<path d="M88.6672 55.0348V82.6192C88.6674 83.0601 88.5354 83.4909 88.2883 83.8561C88.0413 84.2212 87.6905 84.504 87.2811 84.6678C87.1238 84.7314 86.9596 84.7764 86.7919 84.8018C86.6817 84.8182 86.5704 84.8265 86.459 84.8266H51.8921C51.8096 84.8266 51.7271 84.822 51.645 84.813C51.5295 84.8003 51.4152 84.7781 51.3033 84.7464C50.8516 84.6222 50.4511 84.3574 50.1599 83.9904C49.8688 83.6234 49.702 83.1732 49.6838 82.705C49.6838 82.6769 49.6838 82.6481 49.6838 82.6192V55.0348C49.6838 54.8286 49.7245 54.6244 49.8034 54.4339C49.8823 54.2434 49.998 54.0703 50.1439 53.9245C50.2897 53.7788 50.4629 53.6632 50.6534 53.5843C50.844 53.5055 51.0482 53.465 51.2544 53.4651H87.0967C87.3029 53.465 87.5071 53.5055 87.6976 53.5843C87.8882 53.6632 88.0613 53.7788 88.2072 53.9245C88.353 54.0703 88.4687 54.2434 88.5477 54.4339C88.6266 54.6244 88.6672 54.8286 88.6672 55.0348Z" fill="#F68A5D"/>
<path d="M87.1135 83.9461H86.8568V83.6252H87.1135C87.1954 83.6262 87.2749 83.5983 87.3382 83.5463C87.4014 83.4944 87.4443 83.4218 87.4592 83.3413L87.7753 83.3974C87.7471 83.5521 87.6654 83.6919 87.5443 83.7923C87.4233 83.8926 87.2707 83.9471 87.1135 83.9461ZM86.5344 83.9461H85.5678V83.6252H86.5344V83.9461ZM85.2453 83.9461H84.2788V83.6252H85.2453V83.9461ZM83.9563 83.9461H82.9898V83.6252H83.9563V83.9461ZM82.6673 83.9461H81.7007V83.6252H82.6673V83.9461ZM81.3783 83.9461H80.4117V83.6252H81.3783V83.9461ZM80.0893 83.9461H79.1219V83.6252H80.0885L80.0893 83.9461ZM78.8011 83.9461H77.8337V83.6252H78.8011V83.9461ZM77.512 83.9461H76.5447V83.6252H77.5112L77.512 83.9461ZM76.223 83.9461H75.2556V83.6252H76.2222L76.223 83.9461ZM74.934 83.9461H73.9666V83.6252H74.9332L74.934 83.9461ZM73.645 83.9461H72.6776V83.6252H73.6442L73.645 83.9461ZM72.356 83.9461H71.3886V83.6252H72.3552L72.356 83.9461ZM71.0669 83.9461H70.0996V83.6252H71.0661L71.0669 83.9461ZM69.7779 83.9461H68.8106V83.6252H69.7771L69.7779 83.9461ZM68.4889 83.9461H67.5215V83.6252H68.4881L68.4889 83.9461ZM67.1999 83.9461H66.2325V83.6252H67.1991L67.1999 83.9461ZM65.9109 83.9461H64.9435V83.6252H65.9109V83.9461ZM64.6218 83.9461H63.6545V83.6252H64.621L64.6218 83.9461ZM63.3328 83.9461H62.3655V83.6252H63.332L63.3328 83.9461ZM62.0438 83.9461H61.074V83.6252H62.0406L62.0438 83.9461ZM60.7532 83.9461H59.7906V83.6252H60.7532V83.9461ZM59.4642 83.9461H58.4992V83.6252H59.4658L59.4642 83.9461ZM58.1751 83.9461H57.2102V83.6252H58.1767L58.1751 83.9461ZM56.8861 83.9461H55.9212V83.6252H56.8877L56.8861 83.9461ZM55.5971 83.9461H54.6321V83.6252H55.5987L55.5971 83.9461ZM54.3081 83.9461H53.3431V83.6252H54.3097L54.3081 83.9461ZM53.0191 83.9461H52.0541V83.6252H53.0207L53.0191 83.9461ZM51.7301 83.9461H51.2359H51.1846H51.1621C51.1421 83.9461 51.1212 83.9405 51.1012 83.9364C51.083 83.9333 51.0651 83.929 51.0474 83.9236L51.0322 83.9188C51.0129 83.9128 50.9939 83.9059 50.9752 83.8979C50.9615 83.8927 50.9481 83.8865 50.9351 83.8795C50.9219 83.8733 50.9091 83.8663 50.8966 83.8586L50.875 83.845C50.8641 83.8387 50.8537 83.8317 50.8437 83.8242C50.8336 83.8176 50.824 83.8103 50.8148 83.8025C50.7991 83.7905 50.7841 83.7777 50.7699 83.764C50.7523 83.7471 50.7357 83.7291 50.7202 83.7102L50.7001 83.6862L50.9552 83.4913L50.9672 83.5057C50.9759 83.5162 50.9853 83.5261 50.9953 83.5354L51.0138 83.5506L51.0683 83.5875L51.0771 83.5915L51.1004 83.6028L51.1285 83.6124L51.1405 83.6164L51.1613 83.6212L51.1926 83.6268H51.2095H51.7317L51.7301 83.9461ZM50.6239 83.2835H50.5662V82.321H50.887V83.2835H50.6239ZM87.7849 83.0469H87.464V82.0795H87.7849V83.0469ZM50.887 81.9945H50.5662V81.0279H50.887V81.9945ZM87.7849 81.7539H87.464V80.7913H87.7849V81.7539ZM50.887 80.7055H50.5662V79.7389H50.887V80.7055ZM87.7849 80.4648H87.464V79.5023H87.7849V80.4648ZM50.887 79.4165H50.5662V78.4499H50.887V79.4165ZM87.7849 79.1758H87.464V78.2133H87.7849V79.1758ZM50.887 78.1274H50.5662V77.1609H50.887V78.1274ZM87.7849 77.8868H87.464V76.9242H87.7849V77.8868ZM50.887 76.8384H50.5662V75.8719H50.887V76.8384ZM87.7849 76.5978H87.464V75.6352H87.7849V76.5978ZM50.887 75.5494H50.5662V74.5828H50.887V75.5494ZM87.7849 75.3088H87.464V74.3462H87.7849V75.3088ZM50.887 74.2604H50.5662V73.2938H50.887V74.2604ZM87.7849 74.0197H87.464V73.0572H87.7849V74.0197ZM50.887 72.9714H50.5662V72.0048H50.887V72.9714ZM87.7849 72.7307H87.464V71.7682H87.7849V72.7307ZM50.887 71.6823H50.5662V70.7158H50.887V71.6823ZM87.7849 71.4417H87.464V70.4791H87.7849V71.4417ZM50.887 70.3901H50.5662V69.4276H50.887V70.3901ZM87.7849 70.1495H87.464V69.1869H87.7849V70.1495ZM50.887 69.1067H50.5662V68.1377H50.887V69.1067ZM87.7849 68.8661H87.464V67.9035H87.7849V68.8661ZM50.887 67.8153H50.5662V66.8487H50.887V67.8153ZM87.7849 67.5746H87.464V66.6121H87.7849V67.5746ZM50.887 66.5263H50.5662V65.5597H50.887V66.5263ZM87.7849 66.2856H87.464V65.3231H87.7849V66.2856ZM50.887 65.2372H50.5662V64.2707H50.887V65.2372ZM87.7849 64.9966H87.464V64.034H87.7849V64.9966ZM50.887 63.949H50.5662V62.9817H50.887V63.949ZM87.7849 63.7084H87.464V62.745H87.7849V63.7084ZM50.887 62.66H50.5662V61.6926H50.887V62.66ZM87.7849 62.4194H87.464V61.456H87.7849V62.4194ZM50.887 61.371H50.5662V60.4036H50.887V61.371ZM87.7849 61.1303H87.464V60.167H87.7849V61.1303ZM50.887 60.082H50.5662V59.1146H50.887V60.082ZM87.7849 59.8413H87.464V58.878H87.7849V59.8413ZM50.887 58.7929H50.5662V57.8256H50.887V58.7929ZM87.7849 58.5523H87.464V57.589H87.7849V58.5523ZM50.887 57.5039H50.5662V56.5374H50.887V57.5039ZM87.7849 57.2633H87.464V56.2999H87.7849V57.2633ZM50.887 56.2149H50.5662V55.2483H50.887V56.2149ZM87.7849 55.9743H87.464V55.0109L87.7849 55.0045V55.9783V55.9743ZM50.8918 54.9532L50.5758 54.8986C50.6031 54.7433 50.6845 54.6026 50.8057 54.5016C50.9268 54.4005 51.0798 54.3457 51.2375 54.3467H51.4926V54.6676H51.2375C51.1555 54.6667 51.0757 54.6948 51.0124 54.7471C50.9491 54.7994 50.9064 54.8724 50.8918 54.9532ZM87.3999 54.8112L87.3846 54.7935C87.38 54.7873 87.3749 54.7814 87.3694 54.7759L87.363 54.7687C87.3571 54.7625 87.3506 54.7569 87.3437 54.7518C87.2799 54.697 87.1985 54.6668 87.1143 54.6668H86.6178V54.3459H87.1143C87.2717 54.3459 87.4241 54.4009 87.545 54.5016C87.5643 54.5163 87.5823 54.5327 87.5988 54.5505C87.6116 54.5635 87.6236 54.5771 87.6349 54.5914L87.6517 54.6115L87.3934 54.8016L87.3999 54.8112ZM86.2945 54.6684H85.328V54.3476H86.2945V54.6684ZM85.0055 54.6684H84.0389V54.3476H85.0055V54.6684ZM83.7165 54.6684H82.7499V54.3476H83.7165V54.6684ZM82.4275 54.6684H81.4609V54.3476H82.4275V54.6684ZM81.1385 54.6684H80.1719V54.3476H81.1385V54.6684ZM79.8494 54.6684H78.8813V54.3476H79.8478L79.8494 54.6684ZM78.5604 54.6684H77.5979V54.3476H78.5604V54.6684ZM77.2714 54.6684H76.3048V54.3476H77.2714V54.6684ZM75.9824 54.6684H75.0158V54.3476H75.9824V54.6684ZM74.6934 54.6684H73.7268V54.3476H74.6942L74.6934 54.6684ZM73.4043 54.6684H72.4386V54.3476H73.4051L73.4043 54.6684ZM72.1153 54.6684H71.1496V54.3476H72.1161L72.1153 54.6684ZM70.8263 54.6684H69.8605V54.3476H70.8271L70.8263 54.6684ZM69.5373 54.6684H68.5715V54.3476H69.5381L69.5373 54.6684ZM68.2483 54.6684H67.2825V54.3476H68.2491L68.2483 54.6684ZM66.9592 54.6684H65.9935V54.3476H66.96L66.9592 54.6684ZM65.6702 54.6684H64.7045V54.3476H65.671L65.6702 54.6684ZM64.3812 54.6684H63.4154V54.3476H64.382L64.3812 54.6684ZM63.0922 54.6684H62.1264V54.3476H63.093L63.0922 54.6684ZM61.8032 54.6684H60.8334V54.3476H61.804L61.8032 54.6684ZM60.5125 54.6684H59.55V54.3476H60.5125V54.6684ZM59.2291 54.6684H58.2594V54.3476H59.2291V54.6684ZM57.9401 54.6684H56.9704V54.3476H57.9369L57.9401 54.6684ZM56.6511 54.6684H55.6813V54.3476H56.6479L56.6511 54.6684ZM55.3621 54.6684H54.3923V54.3476H55.3589L55.3621 54.6684ZM54.0731 54.6684H53.1033V54.3476H54.0699L54.0731 54.6684ZM52.784 54.6684H51.8143V54.3476H52.7808L52.784 54.6684Z" fill="#CC6E4E"/>
<path opacity="0.3" d="M88.6672 73.5374V82.8173C88.6677 83.2342 88.5328 83.6401 88.2829 83.9738C88.0329 84.3075 87.6814 84.551 87.2811 84.6678C87.1086 84.7191 86.9257 84.8282 86.7372 84.8282H51.3835C50.4763 84.5787 49.7231 83.6844 49.6862 82.7058C49.691 82.6718 49.7082 82.6409 49.7343 82.6187C49.7605 82.5965 49.7939 82.5847 49.8281 82.5854C49.9942 82.5854 50.2998 82.5935 50.7265 82.5959C51.2992 82.5959 52.0901 82.5959 53.0527 82.579L53.4842 82.571C53.488 82.5714 53.4917 82.5714 53.4955 82.571C53.7767 82.5646 54.0709 82.5571 54.3778 82.5485L54.8527 82.5341C55.0933 82.5261 55.3436 82.5181 55.5986 82.5076L56.027 82.4908H56.1168L56.6518 82.4667H56.7064L57.1379 82.4451L57.5181 82.4258L57.9304 82.4026L58.3411 82.3785L58.6379 82.36L58.9355 82.3408L59.0478 82.3336L59.3317 82.3143C60.0063 82.2686 60.7034 82.2149 61.4173 82.1539L61.7381 82.1258L62.3429 82.0705C71.0011 81.2467 81.898 79.2133 87.6244 74.1936C87.9035 73.9492 88.1709 73.6973 88.4265 73.438C88.4463 73.4184 88.4714 73.405 88.4987 73.3997C88.5259 73.3943 88.5542 73.3971 88.5799 73.4077C88.6056 73.4183 88.6276 73.4363 88.6432 73.4594C88.6587 73.4825 88.667 73.5096 88.6672 73.5374Z" fill="#CB4E53"/>
<path opacity="0.1" d="M73.7476 53.8662V68.0534C73.7476 69.0328 73.1861 69.8278 72.4995 69.8278H65.8515C65.1649 69.8286 64.6034 69.0328 64.6034 68.0534V53.8662H73.7476Z" fill="black"/>
<path opacity="0.1" d="M61.4751 77.6083H53.8549C53.3233 77.6083 52.8923 78.0392 52.8923 78.5708V82.3408C52.8923 82.8724 53.3233 83.3034 53.8549 83.3034H61.4751C62.0067 83.3034 62.4377 82.8724 62.4377 82.3408V78.5708C62.4377 78.0392 62.0067 77.6083 61.4751 77.6083Z" fill="black"/>
<path d="M73.7478 53.3848V67.5721C73.7478 68.5515 73.1864 69.3464 72.4997 69.3464H65.8517C65.3913 69.3464 64.9886 68.991 64.772 68.464C64.6587 68.181 64.6015 67.8786 64.6036 67.5737V53.3848H73.7478Z" fill="#FCE0C3"/>
<path opacity="0.4" d="M73.7478 65.3927V67.5721C73.7478 68.5515 73.1863 69.3464 72.4997 69.3464H65.8516C65.3912 69.3464 64.9885 68.9911 64.772 68.4641C66.5367 68.6253 71.4465 68.7513 73.7478 65.3927Z" fill="#DBBB9E"/>
<path d="M70.4991 59.3204H69.4563V57.6448L71.2843 55.4839C71.3035 55.4613 71.3158 55.4337 71.3198 55.4044C71.3238 55.375 71.3192 55.3451 71.3067 55.3183C71.2942 55.2914 71.2743 55.2687 71.2493 55.2529C71.2243 55.237 71.1952 55.2287 71.1656 55.2288H67.1839C67.1543 55.2287 67.1252 55.237 67.1002 55.2529C67.0752 55.2687 67.0553 55.2914 67.0428 55.3183C67.0303 55.3451 67.0257 55.375 67.0297 55.4044C67.0337 55.4337 67.046 55.4613 67.0652 55.4839L68.8932 57.6448V59.3204H67.8505C67.7762 59.3189 67.7042 59.3457 67.649 59.3953C67.5937 59.4449 67.5594 59.5136 67.5529 59.5876C67.5509 59.6258 67.5567 59.664 67.57 59.6999C67.5833 59.7357 67.6037 59.7686 67.63 59.7963C67.6563 59.8241 67.688 59.8462 67.7232 59.8613C67.7583 59.8765 67.7962 59.8843 67.8344 59.8843H70.5151C70.5534 59.8843 70.5912 59.8765 70.6263 59.8613C70.6615 59.8462 70.6932 59.8241 70.7195 59.7963C70.7458 59.7686 70.7663 59.7357 70.7795 59.6999C70.7928 59.664 70.7986 59.6258 70.7966 59.5876C70.7902 59.5136 70.7558 59.4449 70.7006 59.3953C70.6453 59.3457 70.5733 59.3189 70.4991 59.3204Z" fill="#DBBB9E"/>
<path d="M71.8228 63.2583L71.3648 62.4642L70.8089 61.5017C70.7909 61.4707 70.7651 61.445 70.7341 61.4271C70.703 61.4093 70.6679 61.3999 70.632 61.3999C70.5962 61.3999 70.561 61.4093 70.53 61.4271C70.499 61.445 70.4732 61.4707 70.4552 61.5017L69.8993 62.4642L69.4413 63.2583C69.4148 63.3067 69.4012 63.361 69.4019 63.4161C69.4025 63.4712 69.4173 63.5252 69.4449 63.5729C69.4725 63.6206 69.5118 63.6604 69.5593 63.6885C69.6067 63.7166 69.6605 63.732 69.7156 63.7332H70.1696V66.6209C70.1679 66.7352 70.2075 66.8463 70.2812 66.9337C70.3549 67.0211 70.4577 67.0789 70.5707 67.0965C70.636 67.1052 70.7024 67.0998 70.7655 67.0808C70.8286 67.0618 70.8869 67.0295 70.9366 66.9862C70.9862 66.9428 71.026 66.8894 71.0534 66.8294C71.0808 66.7695 71.095 66.7044 71.0953 66.6385V63.7324H71.5493C71.6042 63.731 71.6578 63.7155 71.705 63.6874C71.7522 63.6593 71.7914 63.6196 71.8189 63.572C71.8463 63.5244 71.8611 63.4706 71.8618 63.4157C71.8625 63.3608 71.849 63.3066 71.8228 63.2583Z" fill="#DBBB9E"/>
<path d="M68.935 63.2583L68.477 62.4642L67.9211 61.5017C67.9031 61.4707 67.8773 61.445 67.8463 61.4271C67.8152 61.4093 67.78 61.3999 67.7442 61.3999C67.7084 61.3999 67.6732 61.4093 67.6422 61.4271C67.6112 61.445 67.5853 61.4707 67.5674 61.5017L67.0115 62.4642L66.5535 63.2583C66.527 63.3067 66.5134 63.361 66.5141 63.4161C66.5147 63.4712 66.5295 63.5252 66.5571 63.5729C66.5846 63.6206 66.624 63.6604 66.6714 63.6885C66.7189 63.7166 66.7727 63.732 66.8278 63.7332H67.2818V66.6209C67.2801 66.7352 67.3197 66.8463 67.3934 66.9337C67.4671 67.0211 67.5699 67.0789 67.6829 67.0965C67.7482 67.1052 67.8146 67.0998 67.8777 67.0808C67.9408 67.0618 67.9991 67.0295 68.0488 66.9862C68.0984 66.9428 68.1382 66.8894 68.1656 66.8294C68.193 66.7695 68.2072 66.7044 68.2075 66.6385V63.7324H68.6615C68.7164 63.731 68.77 63.7155 68.8172 63.6874C68.8644 63.6593 68.9036 63.6196 68.9311 63.572C68.9585 63.5244 68.9733 63.4706 68.974 63.4157C68.9747 63.3608 68.9612 63.3066 68.935 63.2583Z" fill="#DBBB9E"/>
<path d="M61.3948 77.2071H53.7746C53.243 77.2071 52.812 77.6381 52.812 78.1697V81.9397C52.812 82.4713 53.243 82.9022 53.7746 82.9022H61.3948C61.9264 82.9022 62.3573 82.4713 62.3573 81.9397V78.1697C62.3573 77.6381 61.9264 77.2071 61.3948 77.2071Z" fill="white"/>
<path d="M60.5125 78.5306H53.8549V78.9317H60.5125V78.5306Z" fill="#DBBB9E"/>
<path d="M58.1061 79.6737H53.8549V80.0747H58.1061V79.6737Z" fill="#DBBB9E"/>
<path d="M58.1061 80.8168H53.8549V81.2178H58.1061V80.8168Z" fill="#DBBB9E"/>
<path opacity="0.4" d="M62.3494 82.0625C62.3197 82.2947 62.2065 82.5082 62.0308 82.6629C61.8551 82.8177 61.629 82.9031 61.3949 82.9031H53.7746C53.6385 82.9038 53.5037 82.8755 53.3793 82.8202C53.2548 82.7649 53.1435 82.6838 53.0527 82.5823C55.3548 82.5382 58.6468 82.4122 62.3494 82.0625Z" fill="#DBBB9E"/>
<path d="M52.9726 59.4379C52.9526 59.2478 52.9158 59.0599 52.8627 58.8764C52.8184 58.7227 52.7627 58.5725 52.6958 58.4272C52.4367 57.8606 52.0212 57.3798 51.4982 57.0411C50.9703 56.6974 50.354 56.514 49.7239 56.5133H49.6838V57.0748H49.7239C50.359 57.0743 50.9737 57.2982 51.4597 57.7069C51.5692 57.7988 51.6714 57.8991 51.7654 58.0069C52.1932 58.498 52.4286 59.1275 52.4279 59.7788C52.4279 59.8277 52.4279 59.8774 52.4239 59.9256C52.4135 60.1232 52.3812 60.319 52.3277 60.5095C52.2011 60.9582 51.9607 61.3666 51.6298 61.6951C51.5753 61.7496 51.5183 61.8025 51.4589 61.8555C50.9729 62.2642 50.3582 62.4881 49.7231 62.4876H49.6838V63.0539H49.7239C50.3383 63.0553 50.9404 62.8817 51.4597 62.5533C51.8796 62.2883 52.2342 61.9319 52.4969 61.5106C52.6138 61.3242 52.7113 61.1264 52.7881 60.9202C52.8444 60.7701 52.8892 60.6159 52.922 60.459C52.9614 60.2723 52.9848 60.0825 52.9918 59.8919C52.9918 59.855 52.9918 59.8173 52.9918 59.7796C52.9914 59.6654 52.985 59.5513 52.9726 59.4379Z" fill="#FCE0C3"/>
<path d="M54.8255 59.46C54.2744 59.4598 53.7333 59.3134 53.2573 59.0357C52.9446 58.8535 52.5987 58.7352 52.2399 58.6877C51.8811 58.6402 51.5164 58.6644 51.167 58.759L49.7833 59.1272L49.6838 58.759L51.0675 58.3908C51.4652 58.2842 51.8801 58.2576 52.2881 58.3127C52.6961 58.3678 53.0891 58.5034 53.4442 58.7117C54.0586 59.0703 54.7884 59.1759 55.4792 59.006L57.0522 58.6226L57.1412 58.9876L55.5682 59.371C55.3251 59.4301 55.0757 59.46 54.8255 59.46Z" fill="#CC6E4E"/>
<path d="M54.8255 60.1404C54.2744 60.1401 53.7333 59.9937 53.2573 59.716C52.9447 59.5332 52.5988 59.4143 52.2398 59.3662C51.8808 59.3182 51.5159 59.3419 51.1662 59.4361L49.7825 59.8019L49.6838 59.4417L51.0675 59.0735C51.4652 58.9669 51.8801 58.9404 52.2881 58.9954C52.6961 59.0505 53.0891 59.1861 53.4442 59.3944C54.0586 59.753 54.7884 59.8586 55.4792 59.6888L57.0522 59.3054L57.1412 59.6703L55.5682 60.0537C55.325 60.1121 55.0756 60.1412 54.8255 60.1404Z" fill="#CC6E4E"/>
<path d="M54.8255 60.8206C54.2744 60.8204 53.7333 60.674 53.2573 60.3963C52.9447 60.2134 52.5988 60.0945 52.2398 60.0464C51.8809 59.9984 51.5159 60.0221 51.1662 60.1163L49.7825 60.4845L49.6838 60.1227L51.0675 59.7545C51.4652 59.6479 51.8801 59.6214 52.2881 59.6764C52.6961 59.7315 53.0891 59.8671 53.4442 60.0754C54.0601 60.4325 54.7909 60.5358 55.4816 60.3634L57.0546 59.9799L57.1436 60.3449L55.5707 60.7283C55.3268 60.7887 55.0767 60.8197 54.8255 60.8206Z" fill="#CC6E4E"/>
<path d="M54.8255 61.5009C54.2744 61.5006 53.7333 61.3542 53.2573 61.0765C52.9447 60.8937 52.5988 60.7748 52.2398 60.7267C51.8808 60.6786 51.5159 60.7024 51.1662 60.7966L49.7825 61.1656L49.6838 60.8014L51.0675 60.4332C51.4652 60.3266 51.8801 60.3001 52.2881 60.3551C52.6961 60.4102 53.0891 60.5458 53.4442 60.7541C54.0586 61.1127 54.7884 61.2183 55.4792 61.0485L57.0522 60.6651L57.1412 61.03L55.5682 61.4134C55.325 61.472 55.0757 61.5014 54.8255 61.5009Z" fill="#CC6E4E"/>
<path d="M70.954 78.031L68.5557 73.2182L81.644 66.6913L84.0423 71.5041L70.954 78.031ZM68.8781 73.3297L71.0615 77.7085L83.7191 71.3966L81.5357 67.021L68.8781 73.3297Z" fill="#EF473F"/>
</g>
<path opacity="0.5" d="M24.357 77.7022C24.3326 77.6651 21.8773 73.9277 20.9242 68.6447C20.3646 65.541 20.4238 62.5186 21.1019 59.6613C21.9482 56.09 23.7699 52.7694 26.5129 49.7904L26.5912 49.8624C23.8598 52.8244 22.0487 56.1323 21.2056 59.6857C20.5317 62.5282 20.4725 65.5367 21.03 68.6257C21.9821 73.8875 24.4226 77.6069 24.4469 77.644L24.357 77.7022Z" fill="#9FA1D1"/>
<path opacity="0.5" d="M23.4048 77.7022C23.3805 77.6651 20.9252 73.9277 19.9721 68.6447C19.4124 65.541 19.4717 62.5186 20.1498 59.6613C20.9961 56.09 22.8177 52.7694 25.5607 49.7904L25.639 49.8624C22.9076 52.8244 21.0966 56.1323 20.2535 59.6857C19.5796 62.5282 19.5204 65.5367 20.0778 68.6257C21.0299 73.8875 23.4704 77.6069 23.4947 77.644L23.4048 77.7022Z" fill="#9FA1D1"/>
<path opacity="0.5" d="M25.2032 46.0391L25.0974 46.0148C25.108 45.9714 26.1616 41.6257 29.3691 37.3213C31.2531 34.793 33.5021 32.7725 36.0516 31.3158C39.2389 29.4952 42.9076 28.5569 46.9571 28.5273V28.6331C42.9277 28.6627 39.2759 29.5968 36.1055 31.4068C33.5667 32.855 31.3314 34.866 29.4558 37.3816C26.2611 41.6681 25.2106 45.9958 25.2032 46.0391Z" fill="#9FA1D1"/>
<path opacity="0.5" d="M26.2608 47.097L26.155 47.0727C26.1656 47.0293 27.2192 42.6836 30.4267 38.3792C32.3107 35.8509 34.5597 33.8304 37.1092 32.3737C40.2965 30.5531 43.9652 29.6148 48.0147 29.5852V29.6909C43.9853 29.7206 40.3336 30.6547 37.1631 32.4647C34.6243 33.9129 32.389 35.9239 30.5134 38.4395C27.3187 42.7259 26.2682 47.0536 26.2608 47.097Z" fill="#9FA1D1"/>
<path d="M26.4177 48.2735H24.6711V79.9957H26.4177V48.2735Z" fill="#ECF3F2"/>
<path d="M28.165 48.2735H26.4185V79.9957H28.165V48.2735Z" fill="#0033C7"/>
<path d="M50.6163 30.5481L49.4873 29.0134L23.9347 47.8111L25.0637 49.3458L50.6163 30.5481Z" fill="#ECF3F2"/>
<path d="M51.626 32.1556L50.502 30.6123L24.807 49.3284L25.9311 50.8716L51.626 32.1556Z" fill="#0033C7"/>
<path d="M43.1636 24.5149L45.1483 21.5153C46.2038 19.92 47.8498 18.8093 49.7242 18.4276C51.5986 18.0459 53.5479 18.4245 55.1432 19.48L64.5399 25.6972C64.9272 25.9534 65.1968 26.353 65.2894 26.808C65.3821 27.2629 65.2902 27.7361 65.034 28.1234L57.0218 40.233C56.7656 40.6202 56.3661 40.8898 55.9111 40.9825C55.4561 41.0751 54.9829 40.9832 54.5957 40.727L45.1989 34.5098C43.6036 33.4543 42.493 31.8083 42.1113 29.9339C41.7296 28.0595 42.1081 26.1102 43.1636 24.5149Z" fill="url(#paint0_linear)"/>
<path d="M26.6842 77.1404C27.7503 77.1404 28.7728 77.5639 29.5267 78.3178C30.2805 79.0717 30.7041 80.0942 30.7041 81.1603V81.4777H22.6643V81.1603C22.6643 80.0942 23.0878 79.0717 23.8417 78.3178C24.5956 77.5639 25.618 77.1404 26.6842 77.1404Z" fill="url(#paint1_linear)"/>
<path d="M20.1257 81.5002H33.2432C34.3374 81.5002 35.3867 81.9349 36.1604 82.7086C36.9342 83.4823 37.3688 84.5317 37.3688 85.6259H16C16 84.5317 16.4347 83.4823 17.2084 82.7086C17.9821 81.9349 19.0315 81.5002 20.1257 81.5002Z" fill="url(#paint2_linear)"/>
<path opacity="0.25" d="M31.6689 82.5355H17.2534C18.0224 81.788 19.053 81.3704 20.1255 81.3719H32.548V81.3825C32.5853 81.5178 32.5909 81.6599 32.5642 81.7977C32.5376 81.9355 32.4794 82.0653 32.3943 82.1769C32.3092 82.2886 32.1995 82.379 32.0736 82.4412C31.9478 82.5034 31.8093 82.5357 31.6689 82.5355Z" fill="white"/>
<defs>
<linearGradient id="paint0_linear" x1="4521.27" y1="3418.43" x2="8501.01" y2="3418.43" gradientUnits="userSpaceOnUse">
<stop stop-color="#81A6FF"/>
<stop offset="0.38" stop-color="#C6EBFD"/>
</linearGradient>
<linearGradient id="paint1_linear" x1="553.288" y1="2842.09" x2="1164.31" y2="2842.09" gradientUnits="userSpaceOnUse">
<stop stop-color="#81A6FF"/>
<stop offset="0.38" stop-color="#C6EBFD"/>
</linearGradient>
<linearGradient id="paint2_linear" x1="80.1065" y1="2872.47" x2="4396.61" y2="2872.47" gradientUnits="userSpaceOnUse">
<stop stop-color="#81A6FF"/>
<stop offset="0.38" stop-color="#C6EBFD"/>
</linearGradient>
<clipPath id="clip0">
<rect width="130" height="66.3351" fill="white" transform="translate(3 29.0002)"/>
</clipPath>
</defs>
</svg>
