<svg width="185" height="122" viewBox="0 0 185 122" fill="none" xmlns="http://www.w3.org/2000/svg">
<path fill-rule="evenodd" clip-rule="evenodd" d="M97.8871 0.551881C125.919 1.31148 149.313 12.4173 166.029 26.2061C181.922 39.317 187.708 55.3067 183.842 71.458C179.474 89.7131 171.058 109.898 144.039 118.09C116.807 126.346 85.4482 118.089 58.5375 109.448C33.1035 101.281 9.97571 89.7504 2.78969 72.7347C-4.63153 55.1621 3.11515 36.4265 21.7315 22.2959C40.2278 8.25654 68.4434 -0.245989 97.8871 0.551881Z" fill="#F0EFFF"/>
<path opacity="0.5" d="M58.7442 50.2663H54.218C51.8217 50.2663 49.8914 48.336 49.8914 45.9397C49.8914 43.5435 51.8217 41.6131 54.218 41.6131H58.7442C61.1405 41.6131 63.0709 43.5435 63.0709 45.9397C63.0709 48.3194 61.1405 50.2663 58.7442 50.2663Z" fill="#825D7E"/>
<path d="M78.4471 41.1805H59.8593C57.463 41.1805 55.5327 39.2502 55.5327 36.8539C55.5327 34.4577 57.463 32.5273 59.8593 32.5273H78.4471C80.8433 32.5273 82.7737 34.4577 82.7737 36.8539C82.7737 39.2502 80.8433 41.1805 78.4471 41.1805Z" fill="#684463"/>
<path opacity="0.56" d="M162.317 84.7461H33.1175C31.9194 84.7461 30.9542 83.7809 30.9542 82.5828C30.9542 81.3846 31.9194 80.4195 33.1175 80.4195H162.3C163.498 80.4195 164.463 81.3846 164.463 82.5828C164.48 83.7809 163.498 84.7461 162.317 84.7461Z" fill="#2D4659"/>
<path d="M90.3452 65.7756H87.0171V82.4164H90.3452V65.7756Z" fill="#253228"/>
<path d="M92.3421 65.7756H90.3452V82.4164H92.3421V65.7756Z" fill="#496D52"/>
<path d="M108.983 65.7756H105.655V82.4164H108.983V65.7756Z" fill="#253228"/>
<path d="M110.98 65.7756H108.983V82.4164H110.98V65.7756Z" fill="#496D52"/>
<path d="M122.961 65.7756H119.633V82.4164H122.961V65.7756Z" fill="#253228"/>
<path d="M124.958 65.7756H122.961V82.4164H124.958V65.7756Z" fill="#496D52"/>
<path d="M135.675 69.1037H133.678V82.4164H135.675V69.1037Z" fill="#253228"/>
<path d="M137.006 69.1037H135.675V82.4164H137.006V69.1037Z" fill="#496D52"/>
<path d="M148.305 69.1037H146.308V82.4164H148.305V69.1037Z" fill="#253228"/>
<path d="M149.636 69.1037H148.305V82.4164H149.636V69.1037Z" fill="#496D52"/>
<path d="M149.636 69.1037H148.305V69.7694H149.636V69.1037Z" fill="#55845F"/>
<path d="M148.305 69.1037H146.308V69.7694H148.305V69.1037Z" fill="#496D52"/>
<path d="M143.213 50.4661H141.216V82.4164H143.213V50.4661Z" fill="#253228"/>
<path d="M144.544 50.4661H143.213V82.4164H144.544V50.4661Z" fill="#496D52"/>
<path d="M155.86 50.4661H153.863V82.4164H155.86V50.4661Z" fill="#253228"/>
<path d="M157.191 50.4661H155.86V82.4164H157.191V50.4661Z" fill="#496D52"/>
<path d="M86.2516 57.1224H82.3243V28.5002H86.2516C86.8007 28.5002 87.25 28.9495 87.25 29.4987V56.1239C87.25 56.6731 86.8174 57.1224 86.2516 57.1224Z" fill="#EF6562"/>
<path d="M85.0034 57.1224H44.3999C43.8508 57.1224 43.4015 56.6731 43.4015 56.1239V29.4987C43.4015 28.9495 43.8508 28.5002 44.3999 28.5002H85.0034C85.5526 28.5002 86.0019 28.9495 86.0019 29.4987V56.1239C86.0019 56.6731 85.5526 57.1224 85.0034 57.1224Z" fill="#EC958B"/>
<path d="M83.9949 55.1151V30.4867L45.3883 30.4867L45.3883 55.1151L83.9949 55.1151Z" fill="#34515B"/>
<path d="M45.8876 55.1151L45.8876 30.4867H45.3883L45.3883 55.1151H45.8876Z" fill="#D84E4E"/>
<path d="M84.005 30.4805H83.3727V55.1088H84.005V30.4805Z" fill="#284249"/>
<path d="M68.163 57.1224H65.1344V82.4164H68.163V57.1224Z" fill="#D84E4E"/>
<path d="M66.8982 57.1224H63.8696V82.4164H66.8982V57.1224Z" fill="#EF6562"/>
<path d="M66.8982 57.1224H63.8696V58.3538H66.8982V57.1224Z" fill="#D84E4E"/>
<path d="M77.1824 82.4164H56.7642V80.4195C56.7642 79.3212 57.6628 78.4226 58.7611 78.4226H75.1855C76.2838 78.4226 77.1824 79.3212 77.1824 80.4195V82.4164Z" fill="#EF6562"/>
<path d="M75.3352 82.4164H54.917V80.4195C54.917 79.3212 55.8156 78.4226 56.9139 78.4226H73.3383C74.4366 78.4226 75.3352 79.3212 75.3352 80.4195V82.4164Z" fill="#EC958B"/>
<path d="M108.983 62.5972H87.0171V65.7756H108.983V62.5972Z" fill="#253228"/>
<path d="M124.958 62.5972H108.983V65.7756H124.958V62.5972Z" fill="#496D52"/>
<path d="M107.319 60.384H85.8522V62.5972H107.319V60.384Z" fill="#9FD6A3"/>
<path d="M108.983 62.5972H87.0171V63.2628H108.983V62.5972Z" fill="#496D52"/>
<path d="M126.556 60.384H107.319V62.5972H126.556V60.384Z" fill="#83B78D"/>
<path d="M148.705 66.4412H132.729V69.1037H148.705V66.4412Z" fill="#81B58C"/>
<path d="M158.023 66.4412H148.704V69.1037H158.023V66.4412Z" fill="#496D52"/>
<path d="M153.863 52.0968H143.213V58.0875H153.863V52.0968Z" fill="#81B58C"/>
<path d="M157.191 69.1037H155.86V69.7694H157.191V69.1037Z" fill="#55845F"/>
<path d="M155.86 69.1037H153.863V69.7694H155.86V69.1037Z" fill="#496D52"/>
<path d="M143.213 69.1037H141.216V69.7694H143.213V69.1037Z" fill="#496D52"/>
<path d="M135.675 69.1037H133.678V69.7694H135.675V69.1037Z" fill="#496D52"/>
<path d="M137.006 69.1037H135.675V69.7694H137.006V69.1037Z" fill="#55845F"/>
<path d="M144.544 69.1037H143.213V69.7694H144.544V69.1037Z" fill="#55845F"/>
<path d="M124.958 62.5972H108.983V63.2628H124.958V62.5972Z" fill="#577F5D"/>
<path d="M115.143 41.4584L113.593 41.6671L115.476 55.6529L117.026 55.4442L115.143 41.4584Z" fill="#DD5858"/>
<path d="M115.289 41.8318L113.541 42.0671L114.036 45.745L115.785 45.5097L115.289 41.8318Z" fill="#EF6562"/>
<path d="M113.579 42.3779L113.249 42.4223L113.28 42.6532L113.61 42.6088L113.579 42.3779Z" fill="#E8E8E8"/>
<path d="M113.726 45.2742L113.626 45.2909L113.277 42.6783L113.51 42.645L113.842 45.1245C113.859 45.1744 113.809 45.2576 113.726 45.2742Z" fill="#E8E8E8"/>
<path d="M115.69 45.5064L114.14 45.715L114.164 45.8964L115.715 45.6878L115.69 45.5064Z" fill="#D35050"/>
<path d="M111.645 45.8233L110.298 46.2393L109.682 44.2591C109.599 43.9928 109.748 43.7099 110.015 43.6267L110.414 43.5103C110.68 43.4271 110.963 43.5768 111.046 43.8431L111.645 45.8233Z" fill="#E8E8E8"/>
<path d="M111.979 45.7209L109.977 46.347L111.061 49.8092L113.062 49.1831L111.979 45.7209Z" fill="#35393D"/>
<path d="M110.863 49.3347L112.494 47.2879L112.144 46.1896L110.514 48.2365L110.863 49.3347Z" fill="#808284"/>
<path d="M112.961 49.1967L111.15 49.7632L113.332 56.7354L115.142 56.1689L112.961 49.1967Z" fill="#3B4044"/>
<path opacity="0.66" d="M112.06 49.4847L111.456 49.6735L113.637 56.6457L114.241 56.4568L112.06 49.4847Z" fill="#6D6F70"/>
<path d="M119.999 43.2104L119.35 43.1106L118.535 44.575L120.365 44.8412L119.999 43.2104Z" fill="#C5E1DF"/>
<path d="M117.919 56.7561L117.436 56.6895C117.07 56.6396 116.821 56.2901 116.87 55.924L118.551 44.575L120.365 44.8413L118.684 56.1903C118.634 56.5564 118.285 56.8226 117.919 56.7561Z" fill="#B3DBAD"/>
<path d="M117.237 56.6562L117.103 56.6396C116.92 56.6063 116.787 56.4399 116.804 56.2402L118.535 44.5584L119 44.6249L117.237 56.6562Z" fill="#68A575"/>
<path d="M118.235 56.806L118.102 56.7893L119.882 44.7747L120.348 44.8412L118.618 56.5231C118.601 56.7061 118.435 56.8392 118.235 56.806Z" fill="#68A575"/>
<path d="M119.999 43.2105L119.849 42.5448C119.832 42.445 119.716 42.4284 119.666 42.5116L119.333 43.1106L119.999 43.2105Z" fill="#6F5A66"/>
<path d="M119.999 43.2105L119.683 43.1606L119.882 44.7747L120.365 44.8413L119.999 43.2105Z" fill="#A5CECA"/>
<path d="M119.999 60.384H110.68V50.7989C110.68 50.6158 110.83 50.4661 111.013 50.4661H119.666C119.849 50.4661 119.999 50.6158 119.999 50.7989V60.384Z" fill="#F2E07C"/>
<path d="M118.668 50.4661V60.384H119.999V50.7989C119.999 50.6158 119.849 50.4661 119.666 50.4661H118.668Z" fill="#DFBB4D"/>
<path d="M113.592 55.425H108.417V60.3839H113.592V55.425Z" fill="#6E7EE0"/>
<path d="M108.983 55.425H108.417V60.3839H108.983V55.425Z" fill="#7A8CE2"/>
<path d="M112.836 60.3711H113.585V55.4121H112.836V60.3711Z" fill="#6373C1"/>
<path d="M113.589 60.3711H114.055V55.4121H113.589V60.3711Z" fill="#DFBB4D"/>
<path d="M96.8684 56.4734H92.9745V60.3674H96.8684V56.4734Z" fill="#EC958B"/>
<path d="M96.8684 56.4734H92.9745V56.6565H96.8684V56.4734Z" fill="#EF6562"/>
<path d="M98.9319 56.4734H96.8684V60.3674H98.9319V56.4734Z" fill="#EF6562"/>
<path d="M95.3373 58.9861H94.6883L94.5885 59.3023H94.239L94.8214 57.6715H95.2042L95.7866 59.3023H95.4371L95.3373 58.9861ZM95.0045 58.0542L94.7715 58.7365H95.2375L95.0045 58.0542Z" fill="white"/>
<path d="M102.393 56.4734H98.4993V60.3674H102.393V56.4734Z" fill="#E8B58B"/>
<path d="M104.457 56.4734H102.393V60.3674H104.457V56.4734Z" fill="#E09D6C"/>
<path d="M100.463 57.6715C100.862 57.6715 101.045 57.9045 101.045 58.1707C101.045 58.3704 100.929 58.5701 100.679 58.6367L101.062 59.3023H100.679L100.313 58.6699H100.163V59.3023H99.8304V57.6715H100.463ZM100.463 57.9378H100.197V58.4203H100.463C100.646 58.4203 100.729 58.3205 100.729 58.1707C100.712 58.0376 100.629 57.9378 100.463 57.9378Z" fill="white"/>
<path d="M95.8366 52.5795H91.9426V56.4734H95.8366V52.5795Z" fill="#1BB1B2"/>
<path d="M97.9001 52.5795H95.8367V56.4734H97.9001V52.5795Z" fill="#19A5A1"/>
<path d="M94.4223 53.7776H94.7717L94.1726 55.4084H93.7733L93.1742 53.7776H93.5236L93.9729 55.0756L94.4223 53.7776Z" fill="white"/>
<path d="M45.6647 81.3847C43.5846 82.899 40.6725 82.4497 39.1582 80.3696C37.6438 78.2895 38.0931 75.3773 40.1732 73.863L45.6647 81.3847Z" fill="#EF6562"/>
<path d="M40.1733 73.863C42.2534 72.3487 45.1656 72.798 46.6799 74.8781C48.1942 76.9582 47.7449 79.8703 45.6648 81.3846L40.1733 73.863Z" fill="#F2E07C"/>
<path opacity="0.25" d="M43.6178 73.0143C45.3818 73.68 46.6298 75.3773 46.6298 77.3742C46.6298 79.9535 44.5497 82.0336 41.9704 82.0336C41.7374 82.0336 41.5045 82.017 41.2715 81.9837C41.7873 82.1834 42.3365 82.2832 42.9189 82.2832C45.4982 82.2832 47.5783 80.2031 47.5783 77.6238C47.5783 75.2775 45.8643 73.3471 43.6178 73.0143Z" fill="#A59A63"/>
<path d="M60.9243 44.6252C61.0241 44.4421 61.1073 44.2591 61.1905 44.076C61.2737 43.893 61.357 43.6933 61.4235 43.4936C61.5733 43.1109 61.7064 42.7115 61.8229 42.3121C61.8562 42.2123 61.8895 42.1124 61.9061 42.0126L61.9893 41.7131C62.0392 41.5134 62.0891 41.3137 62.1224 41.0973C62.1724 40.8977 62.2056 40.6813 62.2389 40.4816C62.2722 40.2819 62.2888 40.0656 62.3221 39.8659L62.3388 39.7328L62.422 39.6662C62.5052 39.583 62.6383 39.4998 62.7881 39.4998C62.9378 39.4832 63.0543 39.5331 63.1375 39.583C63.3039 39.6829 63.4204 39.7827 63.5036 39.8992C63.6867 40.1155 63.8198 40.3319 63.9529 40.5648C64.2025 41.0141 64.4022 41.4634 64.6019 41.9294C64.785 42.3953 64.968 42.8613 65.1178 43.3272C65.2675 43.7932 65.4173 44.2757 65.5171 44.775C65.5338 44.8582 65.4839 44.9414 65.4007 44.958C65.3175 44.9746 65.2343 44.9247 65.2176 44.8415C65.0845 44.3756 64.9181 43.9263 64.735 43.4603C64.552 43.011 64.3523 42.5617 64.1526 42.1291C63.9363 41.6964 63.7199 41.2638 63.4537 40.8644C63.3206 40.6647 63.1874 40.4816 63.0377 40.3319C62.9711 40.2653 62.8879 40.1987 62.838 40.1821C62.8213 40.1655 62.8047 40.1821 62.838 40.1821C62.8546 40.1821 62.8879 40.1655 62.8713 40.1655L62.9711 39.9658C62.9378 40.1821 62.9212 40.3984 62.8879 40.6148C62.8546 40.8311 62.8213 41.0474 62.7714 41.2638C62.7381 41.4801 62.6716 41.6964 62.6217 41.8961L62.5384 42.2123C62.5052 42.3121 62.4885 42.4286 62.4552 42.5285C62.3388 42.9445 62.189 43.3605 62.0392 43.7599C61.956 43.9596 61.8728 44.1592 61.7896 44.3589C61.7064 44.5586 61.6066 44.7583 61.5067 44.958C61.4235 45.1244 61.2238 45.191 61.0574 45.0911C60.891 44.9913 60.8411 44.7916 60.9243 44.6252Z" fill="#D1D1D1"/>
<path d="M61.174 42.4619L65.3342 42.0292C65.4839 42.0126 65.6171 42.129 65.6337 42.2788C65.6504 42.4286 65.5505 42.5617 65.4007 42.5784L61.2405 43.1275C61.0575 43.1441 60.8911 43.0277 60.8745 42.8446C60.8578 42.6616 60.9909 42.4951 61.174 42.4619Z" fill="#D1D1D1"/>
<path d="M153.264 53.9107H151.433C151.151 53.9107 150.934 53.6944 150.934 53.4115C150.934 53.1286 151.151 52.9123 151.433 52.9123H153.264C153.547 52.9123 153.763 53.1286 153.763 53.4115C153.763 53.6778 153.547 53.9107 153.264 53.9107Z" fill="#253228"/>
<path d="M151.949 55.4583H149.953C149.67 55.4583 149.453 55.242 149.453 54.9591C149.453 54.6762 149.67 54.4599 149.953 54.4599H151.949C152.232 54.4599 152.449 54.6762 152.449 54.9591C152.449 55.2253 152.232 55.4583 151.949 55.4583Z" fill="#253228"/>
<path opacity="0.74" d="M150.369 57.2888H144.378C144.095 57.2888 143.879 57.0725 143.879 56.7896C143.879 56.5067 144.095 56.2903 144.378 56.2903H150.369C150.651 56.2903 150.868 56.5067 150.868 56.7896C150.868 57.0725 150.651 57.2888 150.369 57.2888Z" fill="#253228"/>
<path opacity="0.23" d="M61.357 80.4195H57.5296C57.2467 80.4195 57.0304 80.2032 57.0304 79.9203C57.0304 79.6374 57.2467 79.421 57.5296 79.421H61.357C61.6399 79.421 61.8562 79.6374 61.8562 79.9203C61.8562 80.1865 61.6399 80.4195 61.357 80.4195Z" fill="#EF6562"/>
<path opacity="0.23" d="M65.1344 80.4195H64.0195C63.7366 80.4195 63.5203 80.2032 63.5203 79.9203C63.5203 79.6374 63.7366 79.421 64.0195 79.421H65.1344C65.4173 79.421 65.6336 79.6374 65.6336 79.9203C65.6336 80.1865 65.4173 80.4195 65.1344 80.4195Z" fill="#EF6562"/>
<path opacity="0.23" d="M73.4216 81.6675H68.9619C68.679 81.6675 68.4626 81.4512 68.4626 81.1683C68.4626 80.8854 68.679 80.6691 68.9619 80.6691H73.4216C73.7045 80.6691 73.9208 80.8854 73.9208 81.1683C73.9208 81.4346 73.7045 81.6675 73.4216 81.6675Z" fill="#EF6562"/>
<path opacity="0.23" d="M71.6243 81.6675H70.759C70.4761 81.6675 70.2598 81.4512 70.2598 81.1683C70.2598 80.8854 70.4761 80.6691 70.759 80.6691H71.6243C71.9072 80.6691 72.1235 80.8854 72.1235 81.1683C72.1235 81.4346 71.9072 81.6675 71.6243 81.6675Z" fill="#EF6562"/>
<path d="M147.207 55.4583H146.342C146.059 55.4583 145.842 55.242 145.842 54.9591C145.842 54.6762 146.059 54.4599 146.342 54.4599H147.207C147.49 54.4599 147.706 54.6762 147.706 54.9591C147.706 55.2253 147.49 55.4583 147.207 55.4583Z" fill="#253228"/>
<path d="M148.721 53.9107H144.561C144.278 53.9107 144.062 53.6944 144.062 53.4115C144.062 53.1286 144.278 52.9123 144.561 52.9123H148.721C149.004 52.9123 149.22 53.1286 149.22 53.4115C149.22 53.6778 149.004 53.9107 148.721 53.9107Z" fill="#253228"/>
<path opacity="0.18" d="M93.0743 64.1781H89.613C89.4632 64.1781 89.3301 64.0616 89.3301 63.8952C89.3301 63.7454 89.4466 63.6123 89.613 63.6123H93.0743C93.224 63.6123 93.3571 63.7288 93.3571 63.8952C93.3405 64.0616 93.224 64.1781 93.0743 64.1781Z" fill="#496D52"/>
<path opacity="0.18" d="M95.7201 64.1781H94.1392C93.9895 64.1781 93.8563 64.0616 93.8563 63.8952C93.8563 63.7454 93.9728 63.6123 94.1392 63.6123H95.7201C95.8699 63.6123 96.003 63.7288 96.003 63.8952C95.9863 64.0616 95.8699 64.1781 95.7201 64.1781Z" fill="#496D52"/>
<path opacity="0.18" d="M97.8669 65.1432H94.4555C94.3057 65.1432 94.1726 65.0267 94.1726 64.8603C94.1726 64.7106 94.2891 64.5774 94.4555 64.5774H97.8669C98.0166 64.5774 98.1498 64.6939 98.1498 64.8603C98.1331 65.0101 98.0166 65.1432 97.8669 65.1432Z" fill="#496D52"/>
<path opacity="0.18" d="M103.941 65.1432H102.926C102.776 65.1432 102.643 65.0267 102.643 64.8603C102.643 64.7106 102.759 64.5774 102.926 64.5774H103.941C104.09 64.5774 104.224 64.6939 104.224 64.8603C104.207 65.0101 104.09 65.1432 103.941 65.1432Z" fill="#496D52"/>
<path opacity="0.18" d="M104.956 64.3445H103.941C103.791 64.3445 103.658 64.228 103.658 64.0616C103.658 63.9118 103.774 63.7787 103.941 63.7787H104.956C105.106 63.7787 105.239 63.8952 105.239 64.0616C105.239 64.2114 105.122 64.3445 104.956 64.3445Z" fill="#496D52"/>
<path opacity="0.26" d="M115.623 65.1432H111.712C111.562 65.1432 111.429 65.0267 111.429 64.8603C111.429 64.7106 111.546 64.5774 111.712 64.5774H115.623C115.772 64.5774 115.906 64.6939 115.906 64.8603C115.889 65.0101 115.772 65.1432 115.623 65.1432Z" fill="#253228"/>
<path opacity="0.26" d="M121.197 65.1432H120.182C120.032 65.1432 119.899 65.0267 119.899 64.8603C119.899 64.7106 120.016 64.5774 120.182 64.5774H121.197C121.347 64.5774 121.48 64.6939 121.48 64.8603C121.463 65.0101 121.347 65.1432 121.197 65.1432Z" fill="#253228"/>
<path opacity="0.26" d="M116.687 64.1947H114.491C114.341 64.1947 114.208 64.0783 114.208 63.9118C114.208 63.7621 114.324 63.629 114.491 63.629H116.687C116.837 63.629 116.97 63.7454 116.97 63.9118C116.97 64.0783 116.854 64.1947 116.687 64.1947Z" fill="#253228"/>
</svg>
