<svg width="150" height="151" viewBox="0 0 150 151" fill="none" xmlns="http://www.w3.org/2000/svg">
<path fill-rule="evenodd" clip-rule="evenodd" d="M82.696 27.5243C116.016 28.2869 137.441 49.3892 146.733 75.2701C155.131 98.662 146.733 132.5 118.5 137.5C89.2328 137.5 54.6378 160.249 27.8918 145.832C10.5391 125.5 -0.528776 102.989 10.539 75.2701C21.6664 47.4021 46.4886 26.6956 82.696 27.5243Z" fill="#F0EFFF"/>
<path opacity="0.34" d="M123.975 123.185H31.0951C29.9101 123.185 28.9501 122.225 28.9501 121.04C28.9501 119.855 29.9101 118.895 31.0951 118.895H123.975C125.16 118.895 126.12 119.855 126.12 121.04C126.12 122.225 125.16 123.185 123.975 123.185Z" fill="black"/>
<path d="M95.7611 121.044H98.4611V80.4239H95.7611V121.044Z" fill="#2F262D"/>
<path d="M69.436 121.044H72.136V80.4239H69.436V121.044Z" fill="#2F262D"/>
<path d="M81.93 83.0752C72.645 83.0752 65.13 75.9952 65.13 67.2802C65.13 65.0302 65.64 62.8852 66.54 60.9352C60.63 63.3802 56.505 68.9452 56.505 75.3952C56.505 84.1252 64.02 91.1902 73.305 91.1902C80.19 91.1902 86.1 87.3052 88.695 81.7402C86.61 82.5952 84.33 83.0752 81.93 83.0752Z" fill="#81A6FF"/>
<path d="M56.0701 80.4204H35.5051C34.7251 80.4204 34.0801 79.7754 34.0801 78.9954V77.6454C34.0801 76.8654 34.7251 76.2204 35.5051 76.2204H56.0701C56.8501 76.2204 57.4951 76.8654 57.4951 77.6454V78.9954C57.4951 79.7754 56.8501 80.4204 56.0701 80.4204Z" fill="#FD848E"/>
<path d="M39.5377 121.044H42.2377L42.2377 80.4239H39.5377L39.5377 121.044Z" fill="#2F262D"/>
<path d="M56.1441 121.044H58.8441L58.8441 80.4239H56.1441L56.1441 121.044Z" fill="#494149"/>
<path d="M112.013 121.044H114.713V80.4239H112.013V121.044Z" fill="#494149"/>
<path d="M81.5098 76.2201C81.2098 74.8401 79.5448 73.7901 77.5198 73.7901C75.5098 73.7901 73.8298 74.8401 73.5298 76.2201H81.5098Z" fill="#F4EFF0"/>
<path d="M98.7151 76.2202H81.9151C81.7051 76.2202 81.5251 76.0402 81.5251 75.8302C81.5251 75.6202 81.7051 75.4402 81.9151 75.4402H98.7301C98.9401 75.4402 99.1201 75.6202 99.1201 75.8302C99.1201 76.0402 98.9401 76.2202 98.7151 76.2202Z" fill="white"/>
<path d="M98.715 75.8303H81.915C81.765 75.8303 81.645 75.7553 81.57 75.6353C81.54 75.6953 81.51 75.7553 81.51 75.8303C81.51 76.0403 81.69 76.2203 81.9 76.2203H98.715C98.925 76.2203 99.105 76.0403 99.105 75.8303C99.105 75.7553 99.09 75.6953 99.045 75.6353C98.985 75.7403 98.865 75.8303 98.715 75.8303Z" fill="#F4EFF0"/>
<path d="M85.1701 76.2202H81.9151C81.7051 76.2202 81.5251 76.0402 81.5251 75.8302C81.5251 75.6202 81.7051 75.4402 81.9151 75.4402H85.1701C85.3801 75.4402 85.5601 75.6202 85.5601 75.8302C85.5601 76.0402 85.3951 76.2202 85.1701 76.2202Z" fill="#F4EFF0"/>
<path d="M97.5299 75.4403H96.2999V75.1553C96.2999 75.0053 96.4199 74.8703 96.5849 74.8703H97.2449C97.3949 74.8703 97.5299 74.9903 97.5299 75.1553V75.4403Z" fill="#F4EFF0"/>
<path d="M96.0299 75.4403H94.7999V75.1553C94.7999 75.0053 94.9199 74.8703 95.0849 74.8703H95.7449C95.8949 74.8703 96.0299 74.9903 96.0299 75.1553V75.4403Z" fill="#F4EFF0"/>
<path d="M94.5299 75.4403H93.2999V75.1553C93.2999 75.0053 93.4199 74.8703 93.5849 74.8703H94.2449C94.3949 74.8703 94.5299 74.9903 94.5299 75.1553V75.4403Z" fill="#F4EFF0"/>
<path d="M93.0299 75.4403H91.7999V75.1553C91.7999 75.0053 91.9199 74.8703 92.0849 74.8703H92.7449C92.8949 74.8703 93.0299 74.9903 93.0299 75.1553V75.4403Z" fill="#F4EFF0"/>
<path d="M91.5299 75.4403H90.2999V75.1553C90.2999 75.0053 90.4199 74.8703 90.5849 74.8703H91.2449C91.3949 74.8703 91.5299 74.9903 91.5299 75.1553V75.4403Z" fill="#F4EFF0"/>
<path d="M90.0299 75.4403H88.7999V75.1553C88.7999 75.0053 88.9199 74.8703 89.0849 74.8703H89.7449C89.8949 74.8703 90.0299 74.9903 90.0299 75.1553V75.4403Z" fill="#F4EFF0"/>
<path d="M88.5299 75.4403H87.2999V75.1553C87.2999 75.0053 87.4199 74.8703 87.5849 74.8703H88.2449C88.3949 74.8703 88.5299 74.9903 88.5299 75.1553V75.4403Z" fill="#F4EFF0"/>
<path d="M87.0299 75.4403H85.7999V75.1553C85.7999 75.0053 85.9199 74.8703 86.0849 74.8703H86.7449C86.8949 74.8703 87.0299 74.9903 87.0299 75.1553V75.4403Z" fill="#F4EFF0"/>
<path d="M85.5299 75.4403H84.2999V75.1553C84.2999 75.0053 84.4199 74.8703 84.5849 74.8703H85.2449C85.3949 74.8703 85.5299 74.9903 85.5299 75.1553V75.4403Z" fill="#F4EFF0"/>
<path d="M84.0299 75.4403H82.7999V75.1553C82.7999 75.0053 82.9199 74.8703 83.0849 74.8703H83.7449C83.8949 74.8703 84.0299 74.9903 84.0299 75.1553V75.4403Z" fill="#F4EFF0"/>
<path d="M81.915 76.2203H85.17C85.38 76.2203 85.56 76.0403 85.56 75.8303H81.51C81.51 76.0403 81.69 76.2203 81.915 76.2203Z" fill="#E2E2E2"/>
<path d="M67.9999 84.5004C63.9999 82.5004 60.6497 76.8839 60.6497 69.9706C60.6497 68.1858 60.9032 66.4843 61.3506 64.9374C58.413 66.8769 56.3627 71.2914 56.3627 76.4079C56.3627 83.333 65.2476 90.4374 69.8627 90.4374C79.4999 93.0004 87.9999 86.5004 76.3627 86.9374C75.3263 87.6156 68.9999 85.0004 67.9999 84.5004Z" fill="#81A6FF"/>
<path d="M109.905 68.9302H84.7049C84.2099 68.9302 83.8049 68.5252 83.8049 68.0302L86.9249 50.0302C86.9249 49.5352 87.3299 49.1302 87.8249 49.1302H113.025C113.52 49.1302 113.925 49.5352 113.925 50.0302L110.805 68.0302C110.805 68.5252 110.415 68.9302 109.905 68.9302Z" fill="#CECECE"/>
<path d="M111.405 68.9302H86.2049C85.7099 68.9302 85.3049 68.5252 85.3049 68.0302L88.4249 50.0302C88.4249 49.5352 88.8299 49.1302 89.3249 49.1302H114.525C115.02 49.1302 115.425 49.5352 115.425 50.0302L112.305 68.0302C112.305 68.5252 111.915 68.9302 111.405 68.9302Z" fill="#F4EFF0"/>
<path d="M103.71 75.2452L101.64 64.7602H97.9498C97.4998 64.7602 97.1548 65.1802 97.2448 65.6152L99.0748 74.8702C99.1498 75.2152 98.8798 75.5302 98.5348 75.5302H96.2848C95.8798 75.5302 95.5648 75.8602 95.5648 76.2502H99.3448H102.855C103.41 76.2652 103.815 75.7702 103.71 75.2452Z" fill="#CECECE"/>
<path d="M103.905 76.2653H100.08L97.8598 65.0153C97.8298 64.8803 97.9348 64.7753 98.0698 64.7753H102.375L104.505 75.5603C104.565 75.9203 104.28 76.2653 103.905 76.2653Z" fill="#F4EFF0"/>
<path d="M99.3601 76.2652H100.08L99.8851 75.2451H99.1501L99.3601 76.2652Z" fill="#F4EFF0"/>
<path d="M99.3601 76.2652C99.7351 76.2652 100.02 75.9201 99.9451 75.5451L99.8851 75.2451H99.0751L99.3601 76.2652Z" fill="#CECECE"/>
<path d="M102.66 59.3903C101.85 59.3903 101.19 58.7303 101.19 57.9203C101.19 57.6503 101.265 57.4103 101.385 57.2003C101.175 57.1403 100.95 57.0953 100.71 57.0953C99.4348 57.0953 98.4148 58.1303 98.4148 59.3903C98.4148 60.6503 99.4498 61.6853 100.71 61.6853C101.985 61.6853 103.005 60.6503 103.005 59.3903C103.005 59.3753 103.005 59.3603 103.005 59.3453C102.885 59.3753 102.78 59.3903 102.66 59.3903Z" fill="#CECECE"/>
<path d="M54.8251 80.4204H119.055C119.835 80.4204 120.48 79.7754 120.48 78.9954V77.6454C120.48 76.8654 119.835 76.2204 119.055 76.2204H54.8251C54.0451 76.2204 53.4001 76.8654 53.4001 77.6454V78.9954C53.4001 79.7754 54.0301 80.4204 54.8251 80.4204Z" fill="#FFA4AB"/>
<path d="M51.1499 76.2203H48.7199C47.4899 76.2203 46.4849 75.2153 46.4849 73.9853V67.3703H53.3849V73.9853C53.3999 75.2153 52.3949 76.2203 51.1499 76.2203Z" fill="#FF6161"/>
<path d="M47.265 68.2704C45.66 68.2704 44.37 69.5754 44.37 71.1654C44.37 72.7554 45.675 74.0604 47.265 74.0604C48.855 74.0604 50.16 72.7554 50.16 71.1654C50.16 69.5754 48.855 68.2704 47.265 68.2704ZM47.265 73.4304C46.02 73.4304 45 72.4104 45 71.1654C45 69.9204 46.02 68.9004 47.265 68.9004C48.51 68.9004 49.53 69.9204 49.53 71.1654C49.515 72.4254 48.51 73.4304 47.265 73.4304Z" fill="#F4A36C"/>
<path d="M51.1499 76.2203H48.7199C47.4899 76.2203 46.4849 75.2153 46.4849 73.9853V67.3703H53.3849V73.9853C53.3999 75.2153 52.3949 76.2203 51.1499 76.2203Z" fill="#F7BC8B"/>
<path d="M49.7549 74.1203C49.0649 74.1203 48.5099 73.5653 48.5099 72.8753V67.3703H46.4849V73.9853C46.4849 75.2153 47.4899 76.2203 48.7199 76.2203H51.1499C52.3349 76.2203 53.3099 75.2903 53.3849 74.1203H49.7549Z" fill="#EFA573"/>
<path opacity="0.77" d="M49.1847 66.1704C49.7232 66.1704 50.1597 65.7339 50.1597 65.1954C50.1597 64.6569 49.7232 64.2204 49.1847 64.2204C48.6462 64.2204 48.2097 64.6569 48.2097 65.1954C48.2097 65.7339 48.6462 66.1704 49.1847 66.1704Z" fill="#F2F2F2"/>
<path opacity="0.77" d="M50.9848 63.2454C51.7884 63.2454 52.4398 62.5939 52.4398 61.7904C52.4398 60.9868 51.7884 60.3354 50.9848 60.3354C50.1812 60.3354 49.5298 60.9868 49.5298 61.7904C49.5298 62.5939 50.1812 63.2454 50.9848 63.2454Z" fill="#F2F2F2"/>
</svg>
