<svg width="475" height="509" viewBox="0 0 475 509" fill="none" xmlns="http://www.w3.org/2000/svg">
<g clip-path="url(#clip0)">
<path d="M61.226 346.911L49.4628 349.327C53.1827 367.435 44.0542 378.97 44.0542 378.97L77.882 372.021C77.8819 372.02 64.9459 365.018 61.226 346.911Z" fill="#426175"/>
<path d="M80.4697 372.872L42.0113 380.772C41.0852 380.963 40.1813 380.366 39.991 379.44C39.385 376.49 41.2848 373.607 44.2354 373.001L75.3621 366.607C78.3127 366.001 81.1951 367.901 81.8011 370.851C81.9914 371.777 81.3951 372.682 80.4697 372.872Z" fill="#CDD6DF"/>
<path d="M97.6901 350.248L17.2662 366.769C15.394 367.154 13.5654 365.948 13.1809 364.076L0.94109 304.496C0.556626 302.624 1.76175 300.795 3.6339 300.41L84.0579 283.889C85.93 283.504 87.7586 284.71 88.1431 286.581L100.383 346.162C100.767 348.034 99.5616 349.863 97.6901 350.248Z" fill="#426175"/>
<path d="M84.0579 283.889L74.6326 285.825C76.5047 285.44 78.3334 286.646 78.7178 288.518L90.9577 348.099C91.3422 349.97 90.137 351.799 88.2649 352.184L97.6902 350.248C99.5617 349.863 100.767 348.034 100.383 346.162L88.1431 286.582C87.7587 284.71 85.9294 283.504 84.0579 283.889Z" fill="#2C4456"/>
<path d="M6.20276 305.186L83.5798 289.29L93.0771 335.521L15.7001 351.417L6.20276 305.186Z" fill="#F2F2F2"/>
<path d="M6.20276 305.186L83.5798 289.29L85.3489 297.902L7.97187 313.797L6.20276 305.186Z" fill="#46D1C0"/>
<path d="M11.8689 357.689L13.1811 364.076C13.5656 365.948 15.3949 367.154 17.2664 366.769L97.6903 350.248C99.5624 349.863 100.768 348.034 100.383 346.162L99.0709 339.775L11.8689 357.689Z" fill="#CDD6DF"/>
<path d="M99.0709 339.775L89.6456 341.711L90.9578 348.099C91.3423 349.97 90.1372 351.799 88.265 352.184L97.6903 350.248C99.5618 349.863 100.768 348.034 100.383 346.162L99.0709 339.775Z" fill="#ABB2BA"/>
<path d="M31.6321 328.723L37.9942 322.407C38.0888 322.3 38.2507 322.238 38.3904 322.209C38.9779 322.088 39.8586 322.548 40.0193 323.33C40.0882 323.666 39.9837 324.008 39.7667 324.227L34.6903 329.289L41.3513 331.94C41.6313 332.028 41.8622 332.301 41.9369 332.665C42.0976 333.447 41.4637 334.189 40.8762 334.309C40.7365 334.338 40.5631 334.345 40.4341 334.284L32.0971 330.987C31.6206 330.794 31.3274 330.359 31.2527 329.995C31.1781 329.632 31.2704 329.089 31.6321 328.723Z" fill="#F78E36"/>
<path d="M53.9041 312.09C53.9385 312.258 53.9393 312.404 53.8841 312.56L47.8302 335.123C47.7314 335.493 47.4084 335.763 47.0172 335.844C46.3745 335.976 45.8183 335.537 45.715 335.034C45.6863 334.894 45.6855 334.749 45.7127 334.597L51.7774 311.945C51.8704 311.547 52.1491 311.344 52.5123 311.27C53.0712 311.155 53.772 311.448 53.9041 312.09Z" fill="#F78E36"/>
<path d="M68.986 323.409L62.6239 329.725C62.5294 329.832 62.3954 329.889 62.2557 329.917C61.6409 330.044 60.7937 329.606 60.633 328.823C60.5584 328.46 60.6622 328.118 60.8577 327.932L65.9615 322.865L59.2733 320.22C59.0146 320.098 58.7845 319.825 58.7156 319.49C58.5549 318.707 59.1551 317.943 59.7698 317.817C59.9095 317.788 60.055 317.788 60.184 317.848L68.5209 321.145C68.9974 321.338 69.2965 321.801 69.371 322.164C69.4457 322.528 69.3757 323.037 68.986 323.409Z" fill="#F78E36"/>
<path d="M63.144 299.254C62.4681 299.393 61.8047 298.955 61.6658 298.279C61.5268 297.603 61.964 296.939 62.64 296.8C63.3166 296.661 63.9798 297.099 64.1188 297.775C64.2577 298.451 63.8206 299.115 63.144 299.254Z" fill="#81A6FF"/>
<path d="M69.8656 297.873C69.189 298.012 68.5257 297.574 68.3868 296.898C68.2478 296.222 68.685 295.559 69.3616 295.42C70.0382 295.281 70.7014 295.718 70.8404 296.394C70.9793 297.07 70.5422 297.734 69.8656 297.873Z" fill="#F2F2F2"/>
<path d="M76.5872 296.492C75.9106 296.631 75.2472 296.194 75.1084 295.518C74.9694 294.841 75.4065 294.178 76.0831 294.039C76.7591 293.9 77.4223 294.337 77.5613 295.014C77.7002 295.69 77.2631 296.354 76.5872 296.492Z" fill="#F78E36"/>
</g>
<path fill-rule="evenodd" clip-rule="evenodd" d="M244.425 210.107C162.862 212.74 147.119 276.83 125.004 337.25C105.016 391.859 91.6193 432.209 150.877 465.687C214.103 501.407 316.376 518.004 381.507 483.789C454.503 445.443 450.041 383.434 422.264 319.266C394.337 254.753 333.054 207.246 244.425 210.107Z" fill="#F0EFFF"/>
<path d="M462.794 410.878L461.262 401.046L460.816 404.733C460.745 405.323 459.332 417.011 459.332 417.011C459.165 418.388 458.236 419.503 456.965 419.85L449.306 421.94L457.002 423.91C458.276 424.236 459.221 425.335 459.409 426.711L461.591 442.643L463.521 426.679C463.687 425.301 464.615 424.187 465.883 423.84L473.548 421.749L465.85 419.778C464.577 419.452 463.703 417.54 463.514 416.165" stroke="black" stroke-width="2" stroke-miterlimit="10" stroke-linecap="round" stroke-linejoin="round"/>
<path d="M154.653 45.9288L153.121 36.0963L152.676 39.7837C152.604 40.3734 151.191 52.0614 151.191 52.0614C151.025 53.439 150.096 54.5535 148.824 54.9005L141.165 56.9911L148.862 58.9612C150.135 59.2872 151.08 60.3862 151.268 61.7614L153.451 77.6934L155.38 61.7295C155.547 60.3514 156.474 59.2374 157.742 58.8912L165.407 56.7995L157.71 54.8289C156.436 54.5028 155.562 52.5905 155.374 51.2156" stroke="black" stroke-width="2" stroke-miterlimit="10" stroke-linecap="round" stroke-linejoin="round"/>
<ellipse cx="269" cy="480" rx="77" ry="29" fill="#C4C4C4"/>
<g clip-path="url(#clip1)">
<path d="M287.728 422.321C287.28 422.565 286.788 422.68 286.299 422.68C285.522 422.68 284.754 422.38 284.177 421.804L263.381 401.008C262.812 400.44 262.5 399.671 262.5 398.882C262.5 399.671 262.187 400.44 261.619 401.008L240.823 421.804C240.246 422.38 239.477 422.68 238.701 422.68C238.212 422.68 237.72 422.565 237.271 422.321L185.425 394.22V450.95C185.424 451.054 185.43 451.157 185.44 451.259C185.444 451.303 185.453 451.345 185.459 451.388C185.466 451.441 185.472 451.493 185.483 451.545C185.496 451.61 185.513 451.674 185.53 451.737C185.538 451.767 185.544 451.796 185.553 451.825C185.573 451.89 185.596 451.953 185.62 452.016C185.63 452.044 185.639 452.072 185.651 452.1C185.674 452.156 185.701 452.211 185.727 452.266C185.744 452.299 185.758 452.333 185.776 452.367C185.8 452.411 185.826 452.454 185.852 452.497C185.877 452.538 185.901 452.58 185.927 452.621C185.949 452.655 185.974 452.686 185.998 452.718C186.032 452.765 186.065 452.812 186.102 452.858C186.123 452.883 186.146 452.906 186.167 452.931C186.209 452.98 186.252 453.029 186.297 453.075C186.321 453.099 186.347 453.121 186.372 453.143C186.417 453.187 186.462 453.23 186.511 453.27C186.558 453.309 186.607 453.344 186.656 453.38C186.685 453.401 186.712 453.423 186.741 453.444C186.827 453.502 186.917 453.555 187.009 453.605L261.072 493.639C261.518 493.88 262.008 494 262.5 494C262.991 494 263.482 493.88 263.928 493.639L337.99 453.605C338.082 453.555 338.172 453.501 338.258 453.444C338.287 453.423 338.315 453.401 338.343 453.38C338.392 453.344 338.442 453.308 338.488 453.27C338.537 453.23 338.582 453.187 338.627 453.143C338.652 453.121 338.678 453.099 338.701 453.075C338.747 453.029 338.79 452.98 338.832 452.931C338.853 452.906 338.876 452.883 338.896 452.858C338.933 452.813 338.967 452.766 339.001 452.718C339.025 452.686 339.049 452.655 339.071 452.621C339.098 452.58 339.121 452.539 339.146 452.497C339.172 452.454 339.199 452.411 339.223 452.367C339.24 452.333 339.255 452.299 339.272 452.266C339.298 452.211 339.325 452.156 339.348 452.1C339.36 452.072 339.369 452.044 339.379 452.016C339.403 451.953 339.426 451.89 339.446 451.825C339.455 451.797 339.461 451.767 339.469 451.737C339.485 451.674 339.503 451.61 339.516 451.545C339.526 451.493 339.532 451.441 339.54 451.388C339.546 451.345 339.555 451.303 339.559 451.259C339.569 451.157 339.574 451.053 339.574 450.95V394.22L287.728 422.321Z" fill="#E2AE83"/>
<path d="M260.926 315.444C261.759 314.996 262.332 314.174 262.468 313.237C262.488 313.094 262.5 312.95 262.5 312.805C262.5 312.95 262.512 313.094 262.532 313.233C262.668 314.17 263.241 314.988 264.073 315.44L338.146 355.479C338.598 355.723 339.087 355.839 339.575 355.839C339.087 355.839 338.598 355.96 338.146 356.203L264.073 396.243C263.241 396.691 262.668 397.512 262.532 398.449C262.512 398.593 262.5 398.737 262.5 398.881C262.5 398.737 262.488 398.593 262.468 398.449C262.332 397.512 261.759 396.691 260.926 396.243L186.854 356.203C186.458 355.992 186.033 355.871 185.609 355.843C186.033 355.815 186.458 355.695 186.854 355.483L260.926 315.444Z" fill="#C48D69"/>
<path d="M363.142 331.604C363.278 332.541 362.97 333.486 362.301 334.158L341.705 354.952C341.129 355.536 340.356 355.84 339.575 355.84C339.087 355.84 338.598 355.724 338.146 355.48L264.073 315.441C263.24 314.989 262.668 314.171 262.532 313.234C262.512 313.094 262.5 312.951 262.5 312.806C262.5 312.802 262.5 312.802 262.5 312.798C262.5 312.01 262.812 311.24 263.381 310.676L284.177 289.88C285.114 288.939 286.559 288.731 287.728 289.363L361.601 329.403C362.433 329.85 363.002 330.667 363.142 331.604Z" fill="#D39C72"/>
<path d="M362.301 377.525C362.97 378.197 363.278 379.143 363.142 380.08C363.002 381.012 362.433 381.829 361.601 382.282L287.728 422.321C287.28 422.565 286.788 422.68 286.299 422.68C285.522 422.68 284.754 422.38 284.177 421.804L263.381 401.008C262.812 400.439 262.5 399.671 262.5 398.882C262.5 398.738 262.512 398.594 262.532 398.449C262.668 397.512 263.24 396.692 264.073 396.243L338.146 356.204C338.598 355.96 339.087 355.839 339.575 355.839C340.356 355.839 341.129 356.148 341.705 356.729L362.301 377.525Z" fill="#F2C397"/>
<path d="M362.301 377.525L341.705 356.729C341.128 356.148 340.356 355.839 339.575 355.839C339.086 355.839 338.598 355.96 338.146 356.204L330.325 360.434C330.778 360.19 331.266 360.069 331.754 360.069C332.535 360.069 333.308 360.378 333.885 360.958L354.481 381.754C355.149 382.427 355.458 383.372 355.322 384.309C355.181 385.242 354.613 386.059 353.78 386.511L361.6 382.282C362.433 381.829 363.002 381.012 363.142 380.08C363.278 379.143 362.97 378.197 362.301 377.525Z" fill="#E2AE83"/>
<path d="M262.5 312.797C262.5 312.801 262.5 312.801 262.5 312.805C262.5 312.95 262.488 313.094 262.467 313.238C262.331 314.175 261.759 314.996 260.926 315.444L186.854 355.483C186.457 355.696 186.033 355.816 185.608 355.844C185.524 355.84 185.436 355.84 185.352 355.844C184.595 355.828 183.855 355.524 183.294 354.959L162.698 334.162C162.029 333.489 161.721 332.545 161.857 331.608C161.997 330.675 162.566 329.858 163.399 329.406L237.271 289.367C238.44 288.734 239.885 288.946 240.822 289.883L261.619 310.679C262.187 311.248 262.496 312.013 262.5 312.797Z" fill="#E2AE83"/>
<path d="M262.467 398.449C262.488 398.594 262.5 398.738 262.5 398.882C262.5 399.671 262.187 400.44 261.619 401.008L240.822 421.804C240.246 422.38 239.477 422.681 238.7 422.681C238.212 422.681 237.719 422.565 237.271 422.321L163.399 382.282C162.566 381.829 161.997 381.013 161.857 380.08C161.721 379.143 162.029 378.197 162.698 377.525L183.294 356.729C183.855 356.164 184.595 355.86 185.352 355.844C185.376 355.848 185.4 355.848 185.424 355.848C185.484 355.848 185.544 355.848 185.608 355.844C186.033 355.872 186.457 355.992 186.854 356.204L260.926 396.243C261.759 396.692 262.331 397.512 262.467 398.449Z" fill="#FFD2A6"/>
<path d="M185.608 355.844C185.544 355.848 185.484 355.848 185.424 355.848C185.4 355.848 185.376 355.848 185.352 355.844C185.436 355.84 185.524 355.84 185.608 355.844Z" fill="#E2AE83"/>
<path d="M338.708 394.69C338.669 394.765 338.628 394.793 338.587 394.756H338.586L327.562 400.731V457.456C327.562 457.561 327.557 457.664 327.547 457.766C327.542 457.81 327.534 457.852 327.528 457.895C327.52 457.947 327.514 458 327.504 458.051C327.491 458.117 327.474 458.18 327.457 458.244C327.449 458.273 327.443 458.303 327.434 458.332C327.414 458.397 327.391 458.459 327.367 458.522C327.357 458.55 327.348 458.579 327.336 458.607C327.313 458.663 327.286 458.718 327.26 458.773C327.244 458.806 327.229 458.84 327.211 458.873C327.187 458.918 327.16 458.961 327.134 459.004C327.11 459.046 327.086 459.087 327.06 459.128C327.038 459.161 327.013 459.193 326.989 459.225C326.955 459.272 326.921 459.319 326.885 459.365C326.864 459.39 326.841 459.413 326.82 459.438C326.777 459.487 326.735 459.535 326.69 459.581C326.666 459.606 326.64 459.627 326.616 459.65C326.57 459.693 326.525 459.736 326.477 459.776C326.43 459.815 326.38 459.85 326.331 459.886C326.302 459.907 326.276 459.93 326.246 459.95C326.226 459.963 326.205 459.974 326.186 459.987L337.991 453.605C338.084 453.555 338.173 453.501 338.259 453.443C338.289 453.423 338.316 453.401 338.344 453.379C338.393 453.343 338.443 453.308 338.49 453.269C338.538 453.229 338.583 453.186 338.629 453.143C338.653 453.12 338.679 453.099 338.703 453.074C338.748 453.028 338.791 452.98 338.833 452.93C338.854 452.906 338.877 452.883 338.898 452.858C338.934 452.812 338.968 452.765 339.002 452.717C339.026 452.685 339.051 452.654 339.073 452.621C339.099 452.58 339.123 452.538 339.147 452.497C339.173 452.454 339.2 452.411 339.224 452.366C339.242 452.333 339.256 452.299 339.273 452.265C339.299 452.211 339.326 452.156 339.349 452.1C339.361 452.072 339.37 452.043 339.38 452.015C339.404 451.953 339.427 451.89 339.447 451.825C339.456 451.796 339.462 451.766 339.47 451.736C339.487 451.673 339.504 451.61 339.517 451.544C339.527 451.493 339.533 451.44 339.541 451.388C339.547 451.345 339.556 451.302 339.56 451.259C339.57 451.156 339.575 451.053 339.575 450.949V394.22L338.708 394.69Z" fill="#D39C72"/>
<path d="M261.619 401.008L240.823 421.804C240.246 422.38 239.477 422.68 238.701 422.68C238.212 422.68 237.72 422.565 237.271 422.321L185.425 394.22V450.95C185.424 451.054 185.43 451.157 185.44 451.259C185.444 451.303 185.453 451.345 185.459 451.388C185.466 451.441 185.472 451.493 185.483 451.545C185.496 451.61 185.513 451.674 185.53 451.737C185.538 451.767 185.544 451.796 185.553 451.825C185.573 451.89 185.596 451.953 185.62 452.016C185.63 452.044 185.639 452.072 185.651 452.1C185.674 452.156 185.701 452.211 185.727 452.266C185.744 452.299 185.758 452.333 185.776 452.367C185.8 452.411 185.826 452.454 185.852 452.497C185.877 452.538 185.901 452.58 185.927 452.621C185.949 452.655 185.974 452.686 185.998 452.718C186.032 452.765 186.065 452.812 186.102 452.858C186.123 452.883 186.146 452.906 186.167 452.931C186.209 452.98 186.252 453.029 186.297 453.075C186.321 453.099 186.347 453.121 186.372 453.143C186.417 453.187 186.462 453.23 186.511 453.27C186.558 453.309 186.607 453.344 186.656 453.38C186.685 453.401 186.712 453.423 186.741 453.444C186.827 453.502 186.917 453.555 187.009 453.605L261.072 493.639C261.518 493.88 262.008 494 262.5 494V398.882C262.5 399.671 262.187 400.44 261.619 401.008Z" fill="#F2C397"/>
</g>
<g clip-path="url(#clip2)">
<path d="M359.01 242.822L362.523 254.227L286.936 277.51L283.423 266.106C282.978 264.66 283.79 263.125 285.236 262.679L355.583 241.01C357.03 240.564 358.565 241.376 359.01 242.822Z" fill="#E22334"/>
<path d="M359.007 242.823L362.52 254.227L353.817 256.908L350.304 245.504C349.859 244.058 348.324 243.246 346.877 243.691L355.581 241.01C357.027 240.565 358.562 241.377 359.007 242.823Z" fill="#C21D2C"/>
<path d="M288.835 283.674L364.421 260.391L369.548 277.033L293.962 300.317L288.835 283.674Z" fill="#F8C52D"/>
<path d="M355.718 263.072L364.421 260.391L369.547 277.033L360.844 279.713L355.718 263.072Z" fill="#E7B729"/>
<path d="M293.154 297.697L368.74 274.413L373.06 288.436L297.474 311.72L293.154 297.697Z" fill="#26D192"/>
<path d="M360.036 277.094L368.74 274.413L373.06 288.437L364.356 291.118L360.036 277.094Z" fill="#1EC186"/>
<path d="M296.667 309.1L372.253 285.816L376.572 299.839L300.987 323.123L296.667 309.1Z" fill="#1C96F9"/>
<path d="M363.549 288.498L372.253 285.817L376.573 299.841L367.869 302.522L363.549 288.498Z" fill="#1785F8"/>
<path d="M375.765 297.221L378.47 306.003C378.916 307.449 378.104 308.984 376.658 309.43L306.313 331.098C304.864 331.545 303.332 330.732 302.886 329.286L300.181 320.504L375.765 297.221Z" fill="#0E6AC2"/>
<path d="M334.909 309.806L336.089 313.636C336.535 315.083 335.723 316.618 334.276 317.063L302.168 326.954L300.181 320.504L334.909 309.806Z" fill="#0857A0"/>
<path d="M375.766 297.221L378.471 306.003C378.916 307.449 378.104 308.984 376.658 309.43L367.955 312.111C369.401 311.665 370.213 310.13 369.768 308.684L367.063 299.902L375.766 297.221Z" fill="#0857A0"/>
<path d="M286.129 274.891L361.715 251.607L365.228 263.01L289.642 286.294L286.129 274.891Z" fill="#FB7722"/>
<path d="M353.012 254.288L361.715 251.607L365.228 263.011L356.525 265.692L353.012 254.288Z" fill="#F2671F"/>
<path d="M287.245 383.727L283.153 384.988C281.706 385.433 280.172 384.622 279.726 383.175L241.232 258.209C240.786 256.762 241.598 255.228 243.045 254.783L247.137 253.522C248.584 253.076 250.118 253.888 250.564 255.335L289.058 380.3C289.504 381.747 288.692 383.282 287.245 383.727Z" fill="#756F6F"/>
<path d="M262.009 325.657L271.34 322.783L275.566 336.503L266.235 339.378L262.009 325.657Z" fill="#5B5555"/>
<path d="M314.64 244.007L318.152 255.408L242.568 278.691L239.056 267.29C238.61 265.844 239.42 264.309 240.869 263.863L311.214 242.194C312.662 241.748 314.195 242.561 314.64 244.007Z" fill="#F82F40"/>
<path d="M314.64 244.007L318.152 255.408L309.446 258.09L305.934 246.689C305.488 245.242 303.956 244.43 302.507 244.876L311.213 242.194C312.659 241.749 314.194 242.561 314.64 244.007Z" fill="#E22334"/>
<path d="M244.465 284.856L320.051 261.573L325.178 278.216L249.592 301.499L244.465 284.856Z" fill="#FEE265"/>
<path d="M311.346 264.254L320.052 261.572L325.179 278.216L316.473 280.898L311.346 264.254Z" fill="#F8C52D"/>
<path d="M248.784 298.88L324.371 275.596L328.69 289.618L253.103 312.901L248.784 298.88Z" fill="#23F1A8"/>
<path d="M315.666 278.278L324.372 275.597L328.691 289.618L319.985 292.299L315.666 278.278Z" fill="#26D192"/>
<path d="M252.297 310.282L327.883 286.999L332.203 301.022L256.617 324.305L252.297 310.282Z" fill="#31A7FB"/>
<path d="M319.178 289.68L327.884 286.998L332.204 301.022L323.498 303.704L319.178 289.68Z" fill="#1C96F9"/>
<path d="M331.397 298.402L334.103 307.186C334.548 308.633 333.736 310.168 332.29 310.613L261.942 332.283C260.496 332.729 258.961 331.916 258.515 330.47L255.809 321.686L331.397 298.402Z" fill="#1475CB"/>
<path d="M322.691 301.084L331.396 298.402L334.102 307.186C334.548 308.632 333.736 310.168 332.289 310.613L323.584 313.295C325.033 312.849 325.842 311.314 325.397 309.868L322.691 301.084Z" fill="#0E6AC2"/>
<path d="M241.759 276.072L317.346 252.788L320.859 264.192L245.271 287.476L241.759 276.072Z" fill="#FB8627"/>
<path d="M308.64 255.47L317.346 252.788L320.859 264.192L312.153 266.874L308.64 255.47Z" fill="#FB7722"/>
<path d="M294.575 287.096C297.354 281.826 295.34 275.299 290.072 272.512C285.41 270.046 279.761 271.334 276.588 275.31C275.879 276.198 274.705 276.56 273.62 276.225C268.759 274.723 263.364 276.837 260.898 281.499C258.111 286.767 260.119 293.296 265.382 296.088L282.643 305.22C283.654 305.755 284.909 305.369 285.444 304.357L294.575 287.096Z" fill="#F3EAE6"/>
<path d="M294.575 287.095L285.444 304.355C284.908 305.368 283.654 305.754 282.641 305.219L279.216 303.407L287.931 286.933C290.71 281.664 288.697 275.136 283.427 272.35C282.945 272.093 282.452 271.879 281.95 271.701C284.563 270.927 287.473 271.134 290.072 272.511C295.339 275.298 297.354 281.825 294.575 287.095Z" fill="#E0D3CE"/>
</g>
<g clip-path="url(#clip3)">
<path d="M331.517 142.147C343.233 138.818 350.032 126.621 346.702 114.905C343.373 103.189 331.176 96.3901 319.46 99.7197C307.744 103.049 300.945 115.246 304.275 126.962C307.604 138.678 319.801 145.477 331.517 142.147Z" fill="#FBD307"/>
<path d="M330.154 137.352C339.222 134.775 344.484 125.335 341.907 116.268C339.33 107.2 329.89 101.938 320.823 104.515C311.755 107.092 306.493 116.532 309.07 125.6C311.647 134.667 321.087 139.929 330.154 137.352Z" fill="#FBE77B"/>
<path d="M320.823 104.515C319.689 104.837 318.615 105.267 317.608 105.789C325.524 105.194 333.033 110.214 335.288 118.148C337.543 126.083 333.796 134.301 326.75 137.959C327.881 137.874 329.021 137.674 330.154 137.352C339.222 134.775 344.484 125.335 341.907 116.267C339.33 107.2 329.89 101.938 320.823 104.515Z" fill="#FCDD2E"/>
<path d="M327.174 119.105C326.838 119.084 326.494 119.06 326.149 119.032L324.559 113.434C325.417 113.43 326.002 113.695 326.057 113.721C326.68 114.029 327.437 113.777 327.752 113.155C328.068 112.53 327.817 111.766 327.192 111.449C327.108 111.407 325.733 110.733 323.849 110.935L323.523 109.789C323.331 109.115 322.629 108.723 321.954 108.915C321.28 109.106 320.888 109.809 321.08 110.483L321.42 111.68C321.228 111.781 321.034 111.892 320.838 112.017C319.269 113.022 318.403 114.856 318.58 116.802C318.741 118.578 319.744 120.05 321.197 120.644C321.984 120.966 322.921 121.199 324.174 121.372L326.183 128.438C325.16 128.662 324.493 128.61 323.235 128.217C322.566 128.008 321.854 128.381 321.645 129.051C321.436 129.72 321.81 130.432 322.479 130.641C324.33 131.219 325.469 131.208 326.877 130.882L327.234 132.14C327.426 132.814 328.128 133.206 328.803 133.014C329.477 132.823 329.869 132.12 329.677 131.446L329.283 130.06C331.731 128.746 332.638 126.134 332.402 123.999C332.093 121.206 330.041 119.286 327.174 119.105ZM322.158 118.293C321.586 118.06 321.184 117.4 321.109 116.572C321.04 115.81 321.278 114.8 322.138 114.205L323.404 118.662C322.945 118.562 322.521 118.442 322.158 118.293ZM329.878 124.278C329.999 125.371 329.61 126.676 328.557 127.504L326.888 121.631C326.93 121.634 326.971 121.637 327.014 121.639C329.417 121.791 329.814 123.698 329.878 124.278Z" fill="#FBBE66"/>
<path d="M328.499 149.374C328.132 149.474 327.795 149.628 327.494 149.826C326.973 150.168 326.273 149.926 326.103 149.327L320.651 130.143C320.15 128.38 318.404 127.224 316.601 127.552C315.834 127.692 315.183 128.064 314.69 128.573C315.873 128.873 316.87 129.774 317.227 131.033L323.52 153.176C323.964 154.738 324.935 156.063 326.228 156.958C326.943 157.453 327.48 158.164 327.718 159.001L329.056 163.708C329.894 166.657 329.753 169.798 328.655 172.66L327.715 175.112C326.732 177.676 326.519 180.462 327.087 183.135L333.706 181.254C333.138 178.581 333.351 175.794 334.334 173.231L335.275 170.779C336.372 167.917 336.513 164.776 335.675 161.827L332.854 151.903C332.321 150.025 330.383 148.86 328.499 149.374Z" fill="#E8B587"/>
<path d="M327.403 156.624C326.111 155.729 325.139 154.403 324.696 152.841L318.403 130.699C318.08 129.562 316.844 128.284 315.736 127.827C314.186 128.546 313.344 130.304 313.826 131.999L318.51 148.483L315.383 149.372C314.815 147.375 313.193 146.816 312.582 146.99C311.726 147.89 311.368 149.225 311.73 150.498L312.784 154.207L309.539 155.129L309.417 154.698C309.109 153.615 308.186 152.302 306.733 152.282C305.878 153.182 305.519 154.518 305.881 155.791L306.416 157.675L303.176 158.596C302.438 155.996 300.489 156.182 300.489 156.182C299.633 157.082 299.274 158.418 299.636 159.69L302.77 170.717C303.295 172.565 304.19 174.287 305.401 175.778L310.242 181.8C311.195 182.985 311.9 184.349 312.315 185.811L312.715 187.219L328.263 182.801C327.695 180.128 327.907 177.341 328.891 174.777L329.831 172.326C330.929 169.463 331.069 166.322 330.231 163.373L328.894 158.667C328.656 157.83 328.119 157.119 327.403 156.624Z" fill="#EECBAB"/>
<path d="M312.661 153.776C312.119 151.867 310.109 150.772 308.203 151.367C307.623 151.548 307.126 151.869 306.733 152.282C307.912 152.585 308.903 153.488 309.259 154.742L309.612 155.985C310.146 157.864 312.102 158.954 313.981 158.42L312.661 153.776Z" fill="#E8B587"/>
<path d="M301.958 155.267C301.378 155.448 300.881 155.769 300.488 156.182C301.667 156.484 302.658 157.387 303.014 158.642L303.226 159.385C303.759 161.263 305.715 162.354 307.594 161.82L306.416 157.675C305.874 155.767 303.864 154.672 301.958 155.267Z" fill="#E8B587"/>
<path d="M330.225 181.721L328.987 177.364L310.887 182.507C309.712 182.841 309.03 184.065 309.364 185.24L309.998 187.47C310.332 188.645 311.555 189.326 312.73 188.993L328.702 184.454C329.877 184.12 330.559 182.896 330.225 181.721Z" fill="#7BA0B0"/>
<path d="M333.098 176.195L328.607 177.472L329.845 181.829C330.179 183.004 329.497 184.228 328.322 184.562L334.941 182.68C336.116 182.347 336.798 181.123 336.464 179.948L335.831 177.718C335.497 176.543 334.273 175.861 333.098 176.195Z" fill="#688B96"/>
<path d="M294.196 122.574L292.975 122.921L292.628 121.7C292.436 121.026 291.734 120.634 291.059 120.826C290.385 121.017 289.993 121.72 290.185 122.394L290.532 123.616L289.311 123.963C288.636 124.154 288.245 124.857 288.436 125.531C288.628 126.206 289.33 126.597 290.005 126.405L291.226 126.058L291.573 127.28C291.765 127.954 292.467 128.346 293.142 128.154C293.816 127.962 294.208 127.26 294.016 126.585L293.669 125.364L294.89 125.017C295.565 124.825 295.956 124.123 295.764 123.449C295.573 122.774 294.87 122.383 294.196 122.574Z" fill="#9DC6FB"/>
<path d="M347.342 144.762L346.121 145.109L345.774 143.888C345.582 143.213 344.88 142.822 344.205 143.014C343.531 143.205 343.139 143.907 343.331 144.582L343.678 145.803L342.457 146.15C341.782 146.342 341.391 147.044 341.583 147.719C341.774 148.393 342.476 148.785 343.151 148.593L344.372 148.246L344.719 149.467C344.911 150.142 345.613 150.533 346.288 150.342C346.962 150.15 347.354 149.448 347.162 148.773L346.815 147.552L348.036 147.205C348.711 147.013 349.102 146.311 348.911 145.636C348.719 144.962 348.017 144.57 347.342 144.762Z" fill="#9DC6FB"/>
<path d="M345.906 93.5241L344.685 93.8712L344.338 92.6499C344.146 91.9753 343.444 91.5839 342.769 91.7756C342.095 91.9673 341.703 92.6695 341.895 93.3441L342.242 94.5654L341.021 94.9125C340.346 95.1042 339.955 95.8064 340.147 96.4809C340.338 97.1555 341.041 97.5469 341.715 97.3552L342.936 97.0081L343.283 98.2295C343.475 98.904 344.177 99.2954 344.852 99.1037C345.526 98.912 345.918 98.2098 345.726 97.5353L345.379 96.3139L346.6 95.9668C347.275 95.7751 347.666 95.0729 347.475 94.3984C347.283 93.7239 346.581 93.3324 345.906 93.5241Z" fill="#9DC6FB"/>
<path d="M314.052 146.074C313.472 146.256 312.975 146.577 312.582 146.989C313.76 147.292 314.751 148.195 315.108 149.45L315.999 152.587C316.533 154.465 318.489 155.556 320.368 155.022L318.51 148.483C317.967 146.574 315.958 145.48 314.052 146.074Z" fill="#E8B587"/>
</g>
<path d="M139.264 158.116C138.569 157.891 138.185 157.138 138.407 156.434L140.155 150.891C140.377 150.186 141.121 149.798 141.816 150.023C142.511 150.248 142.895 151.001 142.673 151.706L140.925 157.249C140.703 157.953 139.959 158.341 139.264 158.116Z" fill="#868EAF"/>
<path d="M144.033 161.761L133.082 196.496C132.608 197.999 131.022 198.828 129.539 198.348L124.168 196.61C122.685 196.13 121.867 194.523 122.341 193.02L133.292 158.285C133.406 157.924 133.657 157.624 133.989 157.45L139.303 154.673C139.995 154.312 140.845 154.587 141.202 155.288L143.943 160.672C144.115 161.008 144.147 161.4 144.033 161.761Z" fill="#F9F5F3"/>
<path d="M143.943 160.672L141.202 155.288C140.845 154.587 139.995 154.312 139.303 154.673L138.01 155.349L140.083 159.423C140.255 159.759 140.287 160.151 140.173 160.512L129.222 195.247C128.748 196.75 127.162 197.579 125.679 197.099L129.539 198.348C131.022 198.828 132.608 197.999 133.082 196.496L144.034 161.761C144.147 161.4 144.115 161.008 143.943 160.672Z" fill="#F9EAE0"/>
<path d="M124.592 185.879L122.34 193.02C121.867 194.523 122.685 196.13 124.168 196.61L129.539 198.348C131.022 198.828 132.608 197.999 133.082 196.496L135.333 189.355L124.592 185.879Z" fill="#FA8EBB"/>
<path d="M129.222 195.247C128.748 196.75 127.162 197.579 125.678 197.099L129.539 198.348C131.022 198.828 132.608 197.999 133.082 196.497L135.333 189.355L131.473 188.106L129.222 195.247Z" fill="#F57FB0"/>
<path d="M76.754 196.818L66.0128 193.342L63.692 200.703C63.4529 201.462 64.0851 202.21 64.8616 202.088L68.8776 201.454C69.2063 201.402 69.5401 201.51 69.7783 201.746L72.6881 204.62C73.2508 205.176 74.194 204.938 74.4332 204.179L76.754 196.818Z" fill="#89DD8E"/>
<path d="M72.8939 195.569L70.6691 202.626L72.6882 204.621C73.2509 205.176 74.1941 204.938 74.4333 204.18L76.7541 196.819L72.8939 195.569Z" fill="#79D191"/>
<path d="M61.7169 192.889L106.024 207.228C108.99 208.188 112.163 206.53 113.11 203.525L132.838 140.952C133.786 137.947 132.149 134.733 129.183 133.773L84.876 119.435C84.1344 119.195 83.3412 119.609 83.1043 120.361L60.8031 191.094C60.5662 191.846 60.9754 192.649 61.7169 192.889Z" fill="#A0C8FF"/>
<path d="M91.5892 121.607L96.9598 123.345L73.8007 196.8L68.4302 195.062L91.5892 121.607Z" fill="#868EAF"/>
<path d="M112.111 155.231L98.5925 150.857C97.8764 150.625 97.4813 149.849 97.71 149.123L100.313 140.869C100.541 140.143 101.307 139.743 102.024 139.975L115.542 144.349C116.258 144.581 116.653 145.357 116.424 146.083L113.822 154.337C113.593 155.063 112.827 155.463 112.111 155.231Z" fill="#F9F5F3"/>
<path d="M93.0995 122.096L96.9597 123.346L73.8006 196.8L69.9405 195.551L93.0995 122.096Z" fill="#7D83AD"/>
<path d="M129.183 133.773L125.323 132.524C128.289 133.484 129.925 136.698 128.978 139.703L109.25 202.276C108.302 205.281 105.13 206.939 102.164 205.979L106.024 207.228C108.99 208.188 112.162 206.53 113.11 203.525L132.838 140.952C133.785 137.947 132.149 134.733 129.183 133.773V133.773Z" fill="#91B2FA"/>
<path d="M115.496 144.335L111.636 143.085C112.377 143.325 112.786 144.129 112.549 144.88L109.976 153.042C109.739 153.793 108.946 154.207 108.205 153.967L112.065 155.217C112.806 155.457 113.599 155.042 113.836 154.291L116.41 146.129C116.646 145.378 116.237 144.575 115.496 144.335Z" fill="#F9EAE0"/>
<path d="M133.592 157.761C133.458 157.911 133.354 158.088 133.292 158.285L124.056 187.579L134.797 191.055L144.033 161.761C144.095 161.564 144.112 161.359 144.089 161.158L133.592 157.761Z" fill="#A0C8FF"/>
<path d="M144.071 161.615C144.072 161.608 144.073 161.6 144.074 161.592C144.082 161.55 144.089 161.507 144.093 161.464C144.093 161.46 144.093 161.455 144.093 161.451C144.097 161.404 144.1 161.357 144.099 161.309C144.099 161.309 144.099 161.309 144.099 161.308C144.098 161.258 144.095 161.208 144.089 161.158L144.089 161.158L140.229 159.908C140.253 160.109 140.235 160.315 140.173 160.511L130.937 189.806L134.798 191.055L144.034 161.761C144.049 161.713 144.061 161.664 144.071 161.615Z" fill="#91B2FA"/>
<path d="M390.239 27.3124L435.445 35.8678L434.153 42.8766L388.947 34.3211L390.239 27.3124Z" fill="#F69583"/>
<path d="M403.838 56.0733L391.788 53.7928C391.139 53.6701 390.712 53.0381 390.833 52.3811L393.569 37.5417L407.967 40.2667L405.231 55.106C405.11 55.763 404.486 56.196 403.838 56.0733Z" fill="#FFCEC0"/>
<path d="M424.565 59.9951L412.515 57.7145C411.866 57.5918 411.439 56.9598 411.56 56.3028L414.296 41.4635L428.695 44.1884L425.958 59.0278C425.837 59.6848 425.214 60.1178 424.565 59.9951Z" fill="#FFCEC0"/>
<path d="M392.267 29.3339L390.641 19.3997C390.378 17.7928 388.879 16.7064 387.293 16.9729C385.706 17.2396 384.634 18.7582 384.897 20.3651L386.524 30.2993L392.267 29.3339Z" fill="#FDB0A0"/>
<path d="M390.641 19.4001L392.267 29.3339L388.451 29.9753L386.825 20.0415C386.683 19.177 386.183 18.4625 385.506 18.0295C385.937 17.4866 386.561 17.0963 387.293 16.9733C388.879 16.7066 390.378 17.7929 390.641 19.4001Z" fill="#F69583"/>
<path d="M437.845 40.0117L442.902 31.3424C443.72 29.9401 443.261 28.1316 441.876 27.3031C440.492 26.4744 438.707 26.9394 437.889 28.3416L432.833 37.0109L437.845 40.0117Z" fill="#FDB0A0"/>
<path d="M442.902 31.3429L437.845 40.0119L435.339 38.5114L440.395 29.8424C440.944 28.9021 440.918 27.7796 440.425 26.8937C440.92 26.8978 441.42 27.0301 441.876 27.3034C443.26 28.1317 443.72 29.9403 442.902 31.3429Z" fill="#F69583"/>
<path d="M434.496 36.2225C441.61 31.2705 443.423 21.415 438.543 14.1989C433.866 7.28348 424.738 5.30079 417.713 9.49029C417.202 9.79498 416.541 9.66993 416.174 9.19894C411.115 2.72255 401.896 1.2331 395.071 5.97169C387.948 10.9161 386.127 20.7701 390.997 27.9902L408.076 53.2442C408.412 53.74 409.08 53.8665 409.57 53.5268L434.496 36.2225Z" fill="#FB4A59"/>
<path d="M434.497 36.2224L409.57 53.5272C409.081 53.8669 408.411 53.7402 408.076 53.2444L405.942 50.0866L429.751 33.5582C436.865 28.6061 438.678 18.7502 433.797 11.5344C432.921 10.2392 431.888 9.11633 430.743 8.1754C433.807 9.24434 436.571 11.2835 438.543 14.1986C443.423 21.4157 441.611 31.2703 434.497 36.2224Z" fill="#F82F40"/>
<path d="M392.181 33.5214C391.806 33.3919 391.553 33.0362 391.55 32.6346L391.495 24.6837C391.483 22.8171 389.834 21.3953 388.009 21.6889C386.525 21.9276 385.459 23.2694 385.471 24.7913L385.536 33.5834L385.567 37.6175C385.612 43.6395 390.467 48.4843 396.411 48.4386L398.828 48.42C399.343 48.4161 399.757 47.9904 399.753 47.4691L399.728 44.1209C399.692 39.3216 396.665 35.07 392.181 33.5214Z" fill="#FFDFD0"/>
<path d="M398.827 48.4194L396.755 48.4353L396.729 44.8707C396.693 40.0716 393.666 35.8196 389.182 34.2717C388.807 34.142 388.554 33.7862 388.551 33.3848L388.496 25.4333C388.488 24.0542 387.584 22.9173 386.376 22.5367C386.808 22.0992 387.369 21.7914 388.008 21.6889C389.834 21.3949 391.483 22.8167 391.494 24.683L391.55 32.6344C391.552 33.0358 391.805 33.3916 392.18 33.5214C396.664 35.0692 399.692 39.3212 399.727 44.1201L399.752 47.4679C399.756 47.9894 399.342 48.4155 398.827 48.4194Z" fill="#FFCEC0"/>
<path d="M431.421 40.9479C431.817 40.9643 432.18 40.7251 432.325 40.3517L435.21 32.9569C435.886 31.2205 437.93 30.4977 439.528 31.4391C440.826 32.2045 441.342 33.8456 440.79 35.2608L437.595 43.4358L436.13 47.1869C433.942 52.7863 427.688 55.5286 422.161 53.3121L419.913 52.4105C419.435 52.2186 419.2 51.6702 419.39 51.1856L420.606 48.0723C422.35 43.6098 426.688 40.7521 431.421 40.9479Z" fill="#FFDFD0"/>
<path d="M440.789 35.2604L437.595 43.4359L436.129 47.1871C433.941 52.7862 427.687 55.5284 422.161 53.3118L421.095 52.8843C426.135 53.9633 431.357 51.2409 433.317 46.2245L434.782 42.4731L437.977 34.299C438.411 33.1873 438.185 31.9353 437.439 31.0807C438.125 30.9452 438.866 31.049 439.528 31.4398C440.826 32.2047 441.342 33.8459 440.789 35.2604Z" fill="#FFCEC0"/>
<defs>
<clipPath id="clip0">
<rect width="89.0232" height="89.0232" fill="white" transform="translate(0 299.914) rotate(-11.6089)"/>
</clipPath>
<clipPath id="clip1">
<rect width="205" height="205" fill="white" transform="translate(160 289)"/>
</clipPath>
<clipPath id="clip2">
<rect width="136.243" height="136.243" fill="white" transform="translate(229 259.109) rotate(-17.1209)"/>
</clipPath>
<clipPath id="clip3">
<rect width="85.3026" height="85.3026" fill="white" transform="translate(274 111.319) rotate(-15.8645)"/>
</clipPath>
</defs>
</svg>
