<svg width="129" height="100" viewBox="0 0 129 100" fill="none" xmlns="http://www.w3.org/2000/svg">
<path d="M47.3427 69.9604H69.8435V99.9713H47.3427V69.9604Z" fill="#855C52"/>
<path d="M44.9426 22.4416C41.9017 15.2813 34.2168 3.68115 27.6589 3.68115C21.0622 3.68115 13.9894 14.4264 11.133 20.6539C7.54805 28.4457 4.56543 38.9286 4.56543 52.2678C4.56543 69.1823 11.8617 78.5285 19.566 82.2786H19.5563L19.6437 82.3175C20.3918 82.6867 21.1593 83.1919 21.7131 83.8622C22.3543 84.6589 22.4223 86.3299 22.4223 86.8934V94.3063C22.4223 94.3063 22.3349 97.1334 22.0726 97.9981C21.8977 98.5519 21.3148 99.232 21.2759 99.9509H32.2057V62.8381C32.2057 59.8944 33.7796 56.3288 35.9558 54.3566L50.0043 41.5712C49.0522 34.0709 47.1577 27.6879 44.9426 22.4416Z" fill="#855C52"/>
<path d="M19.6445 82.3282C19.6445 82.3282 24.5994 84.2032 29.457 84.2032C29.457 84.2032 34.7422 84.7084 39.1141 81.9104L52.8517 41.3195L45.5554 9.5988L29.1559 0L20.8881 0.854955L5.10058 22.1219C5.10058 22.1219 0 48.7324 0 49.1016C0 49.461 4.25534 74.4976 4.25534 74.4976L11.9111 79.7244L19.6445 82.3282Z" fill="#BDCF46"/>
<path d="M124.405 86.2433C123.929 85.981 123.259 85.7964 122.929 85.3203C122.472 84.65 122.919 83.8339 122.919 83.1052C122.919 79.8311 120.694 76.6833 117.41 76.013C116.798 75.8867 116.108 76.0615 115.525 75.7992C114.68 75.43 114.797 74.5848 114.593 73.8173C114.292 72.632 113.718 71.5342 112.863 70.6501C111.571 69.3094 109.832 68.5127 107.957 68.5127C106.84 68.5127 105.791 68.8139 104.848 69.3191V100H121.17C124.609 100 127.573 97.2314 128 93.8796C128.408 90.8386 127.145 87.7492 124.405 86.2433Z" fill="#BDCF46"/>
<path d="M73.613 64.4521H95.7544V88.4394H73.613V64.4521Z" fill="white"/>
<path d="M70.9415 32.4504C69.6105 31.2457 67.444 31.2457 66.1227 32.4504L50.5101 46.664L38.7253 57.3898C37.404 58.5945 36.3159 61.0428 36.3159 62.8401V96.7177C36.3159 98.5053 37.7829 99.9723 39.5706 99.9723H52.1423V77.6269C52.1423 76.2668 53.2595 75.1495 54.61 75.1495H64.5294C65.8895 75.1495 67.0068 76.2668 67.0068 77.6269V99.9723H97.4937C99.291 99.9723 100.748 98.5053 100.748 96.7177V62.8401C100.748 61.0428 99.6602 58.5945 98.3389 57.3898L70.9415 32.4504ZM82.6194 84.2528H79.083C77.4314 84.2528 76.0713 82.9024 76.0713 81.2411V78.2099H82.6194V84.2528ZM82.6194 75.3438H76.0713V71.2925C76.0713 69.6409 77.4314 68.2905 79.083 68.2905H82.6194V75.3438ZM92.0434 81.2411C92.0434 82.8927 90.6929 84.2528 89.0316 84.2528H85.4855V78.2196H92.0336V81.2411H92.0434ZM92.0434 75.3438H85.4952V68.2807H89.0413C90.6929 68.2807 92.0531 69.6312 92.0531 71.2828V75.3438H92.0434Z" fill="#FCC21B"/>
<path d="M103.935 61.9361H32.8083L68.7844 29.3799L103.935 61.9361Z" fill="#EF6B00"/>
</svg>
