<svg width="94" height="110" viewBox="0 0 94 110" fill="none" xmlns="http://www.w3.org/2000/svg">
<path d="M77.0815 0C81.5743 0.00600291 85.8807 1.79653 89.0534 4.97768C92.2261 8.15884 94.0051 12.47 93.9991 16.9629C93.9931 21.4557 92.2025 25.7621 89.0214 28.9348C85.8402 32.1074 81.529 33.8865 77.0362 33.8805C75.0293 33.8849 73.0385 33.5213 71.1628 32.8076L61.3307 34.5323L64.1735 27.9142C61.5587 24.8649 60.1209 20.9809 60.1198 16.964C60.1199 12.4653 61.9069 8.1509 65.0878 4.96964C68.2686 1.78838 72.5828 0.000780257 77.0815 0Z" fill="#00ACEA"/>
<path d="M66.4459 58.8115V72.3918H59.7033H6.74033H0V58.8115H10.1852H56.2607H66.4459Z" fill="#00ACEA"/>
<path d="M59.7033 72.3916H6.74036V110H59.7033V72.3916Z" fill="#FEDB41"/>
<path d="M41.9833 45.0459H48.1284C50.2851 45.0462 52.3534 45.9031 53.8785 47.4281C55.4035 48.9532 56.2604 51.0215 56.2607 53.1782V58.8117H10.1852V53.1782C10.1849 51.0217 11.0413 48.9534 12.566 47.4283C14.0907 45.9032 16.1587 45.0463 18.3152 45.0459H24.4241C26.8268 47.1257 29.8899 48.2848 33.0676 48.3168C36.2453 48.3487 39.3311 47.2513 41.7751 45.2202L41.9833 45.0459Z" fill="#00EFD1"/>
<path d="M26.5811 6.71756C27.0431 5.97711 27.7313 5.40514 28.5438 5.08635C29.3562 4.76756 30.2497 4.71891 31.092 4.9476L35.664 6.18114C37.5009 6.67908 39.4222 6.78321 41.3021 6.4867L51.2858 4.91818C51.2858 8.32229 49.9482 11.8962 47.0714 13.3764C46.7572 13.5398 46.4293 13.6754 46.0914 13.7816C46.0914 13.7816 36.214 15.298 29.8811 15.6669C29.0052 15.7167 28.1972 15.7462 27.4932 15.7462C27.0882 15.7456 26.7 15.5844 26.4136 15.298C26.1272 15.0116 25.9661 14.6234 25.9655 14.2184V8.87229C25.9633 8.11036 26.1768 7.36336 26.5811 6.71756Z" fill="#4B5D63"/>
<path d="M41.9832 39.2672C39.5393 41.3505 36.433 42.4948 33.2217 42.4948C30.0104 42.4948 26.9041 41.3505 24.4602 39.2672C22.8656 37.9301 21.5824 36.2608 20.7004 34.376C19.8184 32.4912 19.3589 30.4364 19.354 28.3555V20.0059H19.3993C20.9723 20.2571 25.275 20.6804 29.8832 15.6942L29.881 15.667C36.2139 15.2981 46.0912 13.7816 46.0912 13.7816C46.4291 13.6754 46.7571 13.5399 47.0713 13.3765L47.0894 13.4082V28.3555C47.0819 32.0714 45.6251 35.6378 43.0289 38.2962C42.6969 38.6373 42.3479 38.9614 41.9832 39.2672Z" fill="#F7CAA5"/>
<path d="M41.9833 39.2671V45.0455L41.7751 45.2198C39.3311 47.2509 36.2453 48.3483 33.0676 48.3163C29.8899 48.2844 26.8268 47.1253 24.4241 45.0455V39.3101L24.4603 39.2671C26.9042 41.3504 30.0105 42.4946 33.2218 42.4946C36.4332 42.4946 39.5394 41.3504 41.9833 39.2671Z" fill="#EDB288"/>
<path d="M29.881 15.6672L29.8832 15.6943C25.275 20.6805 20.9723 20.2573 19.3993 20.006H19.354V18.8902C19.3546 16.3993 20.0259 13.9544 21.2976 11.8126C22.5693 9.67067 24.3943 7.91079 26.581 6.71777C26.1766 7.36357 25.9632 8.11057 25.9653 8.87251V14.2186C25.9659 14.6236 26.1271 15.0119 26.4135 15.2982C26.6998 15.5846 27.0881 15.7458 27.4931 15.7464C28.197 15.7464 29.005 15.717 29.881 15.6672Z" fill="#384649"/>
<path d="M27.5928 30.7774C26.404 30.776 25.2644 30.3031 24.4238 29.4626C23.5832 28.622 23.1104 27.4824 23.109 26.2936C23.109 25.8134 23.2998 25.3528 23.6394 25.0133C23.9789 24.6737 24.4395 24.4829 24.9197 24.4829C25.3999 24.4829 25.8605 24.6737 26.2001 25.0133C26.5396 25.3528 26.7304 25.8134 26.7304 26.2936C26.7304 26.5223 26.8213 26.7417 26.983 26.9034C27.1447 27.0651 27.364 27.156 27.5928 27.156C27.8215 27.156 28.0408 27.0651 28.2025 26.9034C28.3642 26.7417 28.4551 26.5223 28.4551 26.2936C28.4551 25.8134 28.6459 25.3528 28.9854 25.0133C29.325 24.6737 29.7856 24.4829 30.2658 24.4829C30.746 24.4829 31.2066 24.6737 31.5462 25.0133C31.8857 25.3528 32.0765 25.8134 32.0765 26.2936C32.0751 27.4824 31.6023 28.622 30.7617 29.4626C29.9212 30.3031 28.7815 30.776 27.5928 30.7774ZM38.8508 30.7774C37.6623 30.7757 36.5231 30.3027 35.6829 29.4621C34.8428 28.6215 34.3704 27.4821 34.3693 26.2936C34.3693 25.8134 34.5601 25.3528 34.8996 25.0133C35.2392 24.6737 35.6998 24.4829 36.18 24.4829C36.6602 24.4829 37.1208 24.6737 37.4604 25.0133C37.7999 25.3528 37.9907 25.8134 37.9907 26.2936C37.9907 26.522 38.0814 26.7411 38.2429 26.9026C38.4044 27.0641 38.6235 27.1548 38.8519 27.1548C39.0803 27.1548 39.2994 27.0641 39.4609 26.9026C39.6224 26.7411 39.7131 26.522 39.7131 26.2936C39.7131 25.8134 39.9039 25.3528 40.2435 25.0133C40.583 24.6737 41.0436 24.4829 41.5238 24.4829C42.004 24.4829 42.4646 24.6737 42.8042 25.0133C43.1438 25.3528 43.3345 25.8134 43.3345 26.2936C43.3331 27.4824 42.8603 28.622 42.0197 29.4626C41.1792 30.3031 40.0395 30.776 38.8508 30.7774Z" fill="#EDB288"/>
<path d="M79.1389 14.9383H68.501C68.0208 14.9383 67.5602 14.7475 67.2206 14.408C66.8811 14.0684 66.6903 13.6078 66.6903 13.1276C66.6903 12.6474 66.8811 12.1868 67.2206 11.8472C67.5602 11.5077 68.0208 11.3169 68.501 11.3169H79.1389C79.6191 11.3169 80.0797 11.5077 80.4192 11.8472C80.7588 12.1868 80.9496 12.6474 80.9496 13.1276C80.9496 13.6078 80.7588 14.0684 80.4192 14.408C80.0797 14.7475 79.6191 14.9383 79.1389 14.9383ZM86.1553 21.7284H68.501C68.0208 21.7284 67.5602 21.5376 67.2206 21.1981C66.8811 20.8585 66.6903 20.3979 66.6903 19.9177C66.6903 19.4375 66.8811 18.9769 67.2206 18.6374C67.5602 18.2978 68.0208 18.107 68.501 18.107H86.1553C86.6356 18.107 87.0961 18.2978 87.4357 18.6374C87.7753 18.9769 87.966 19.4375 87.966 19.9177C87.966 20.3979 87.7753 20.8585 87.4357 21.1981C87.0961 21.5376 86.6356 21.7284 86.1553 21.7284Z" fill="#FEDB41"/>
</svg>
