<svg width="17" height="15" viewBox="0 0 17 15" fill="none" xmlns="http://www.w3.org/2000/svg">
<path d="M15.6514 1.44068C14.7714 0.511661 13.5639 0 12.251 0C11.2697 0 10.371 0.301972 9.57988 0.897457C9.18066 1.19804 8.81893 1.56578 8.5 1.99501C8.1812 1.56591 7.81934 1.19804 7.41999 0.897457C6.62895 0.301972 5.73026 0 4.74895 0C3.43613 0 2.2285 0.511661 1.34849 1.44068C0.478981 2.35884 0 3.61318 0 4.97282C0 6.37221 0.535789 7.65319 1.6861 9.00424C2.71513 10.2128 4.1941 11.4396 5.90678 12.8602C6.4916 13.3453 7.1545 13.8953 7.84281 14.481C8.02465 14.636 8.25798 14.7214 8.5 14.7214C8.74189 14.7214 8.97535 14.636 9.15693 14.4813C9.84525 13.8954 10.5085 13.3452 11.0936 12.8598C12.806 11.4395 14.285 10.2128 15.314 9.00411C16.4643 7.65319 17 6.37221 17 4.97269C17 3.61318 16.521 2.35884 15.6514 1.44068Z" fill="white"/>
</svg>
