<svg width="238" height="238" viewBox="0 0 238 238" fill="none" xmlns="http://www.w3.org/2000/svg">
<path fill-rule="evenodd" clip-rule="evenodd" d="M210.251 92.5187C213.314 112.093 219.924 131.073 215.487 150.238C210.421 172.121 204.349 200.044 183.736 207.041C162.499 214.249 143.698 189.257 122.294 181.869C107.072 176.614 91.3586 177.115 76.7813 170.119C56.0898 160.189 29.0828 154.808 20.4023 132.967C11.7025 111.077 23.9916 86.2499 35.4431 66.1086C45.9469 47.6342 62.3553 33.6384 81.518 25.4754C99.0236 18.0182 118.093 21.8111 137.117 22.7966C157.688 23.8622 181.63 16.8962 196.898 31.4523C212.161 46.0033 206.949 71.419 210.251 92.5187Z" fill="#81A6FF" fill-opacity="0.3"/>
</svg>
