<svg width="200" height="201" viewBox="0 0 200 201" fill="none" xmlns="http://www.w3.org/2000/svg">
<path fill-rule="evenodd" clip-rule="evenodd" d="M106.464 0.131069C128.349 0.404693 151.011 3.46908 168.366 17.714C185.48 31.7615 196.057 53.684 199.449 76.4529C202.545 97.2335 191.848 116.239 186.039 136.345C180.116 156.849 182.052 183.408 165.183 195.058C148.303 206.715 126.25 195.076 106.464 191.298C90.433 188.236 76.094 182.355 61.246 175.209C41.8977 165.897 17.391 162.957 6.78335 143.324C-4.29067 122.827 0.0705453 96.6794 6.59983 74.065C13.2041 51.1911 25.0829 29.7882 43.5005 16.1528C61.678 2.69527 84.3494 -0.145429 106.464 0.131069Z" fill="#BF8FFF" fill-opacity="0.3"/>
</svg>
