<svg width="200" height="201" viewBox="0 0 200 201" fill="none" xmlns="http://www.w3.org/2000/svg">
<path fill-rule="evenodd" clip-rule="evenodd" d="M108.912 0.128162C127.552 0.706874 140.06 16.9555 154.964 27.3874C169.551 37.5974 187.554 44.8221 194.947 60.349C202.71 76.6522 200.414 95.2943 195.505 112.531C190.359 130.599 180.16 146.399 166.527 160.129C149.917 176.857 133.24 197.218 108.912 199.738C83.9339 202.325 56.9029 191.337 41.1557 173.115C26.4393 156.085 38.2306 130.694 31.2227 109.839C24.3491 89.3833 -5.97043 74.1638 1.04631 53.7502C8.05465 33.361 40.277 34.5454 60.5711 24.4568C77.1345 16.2228 90.1423 -0.454552 108.912 0.128162Z" fill="#A6FFFF" fill-opacity="0.3"/>
</svg>
