<svg width="262" height="263" viewBox="0 0 262 263" fill="none" xmlns="http://www.w3.org/2000/svg">
<path fill-rule="evenodd" clip-rule="evenodd" d="M223.165 169.326C219.125 189.932 195.006 199.482 176.372 210.225C157.523 221.091 137.892 234.759 115.387 231.461C93.1641 228.204 76.4893 210.019 61.7036 193.421C48.909 179.058 39.7665 162.132 37.3551 143.863C35.1555 127.199 44.6129 112.833 48.9619 96.89C54.1086 78.0233 47.695 51.9441 65.1391 42.0114C82.5657 32.0887 104.673 52.1196 125.513 53.3016C148.107 54.583 173.784 34.6008 191.159 49.1587C208.596 63.7694 190.006 90.9651 195.619 112.042C201.131 132.736 227.186 148.812 223.165 169.326Z" fill="#FF8200" fill-opacity="0.3"/>
</svg>
